<?xml version="1.0" encoding="utf-8"?>
<svg xmlns="http://www.w3.org/2000/svg" xmlns:xlink="http://www.w3.org/1999/xlink" width="600" height="400" viewBox="0 0 2400 1600">
<defs>
  <clipPath id="clip020">
    <rect x="0" y="0" width="2400" height="1600"/>
  </clipPath>
</defs>
<path clip-path="url(#clip020)" d="M0 1600 L2400 1600 L2400 0 L0 0  Z" fill="#ffffff" fill-rule="evenodd" fill-opacity="1"/>
<defs>
  <clipPath id="clip021">
    <rect x="480" y="0" width="1681" height="1600"/>
  </clipPath>
</defs>
<path clip-path="url(#clip020)" d="M242.135 1423.18 L2352.76 1423.18 L2352.76 123.472 L242.135 123.472  Z" fill="#ffffff" fill-rule="evenodd" fill-opacity="1"/>
<defs>
  <clipPath id="clip022">
    <rect x="242" y="123" width="2112" height="1301"/>
  </clipPath>
</defs>
<polyline clip-path="url(#clip022)" style="stroke:#000000; stroke-linecap:round; stroke-linejoin:round; stroke-width:2; stroke-opacity:0.1; fill:none" points="467.385,1423.18 467.385,123.472 "/>
<polyline clip-path="url(#clip022)" style="stroke:#000000; stroke-linecap:round; stroke-linejoin:round; stroke-width:2; stroke-opacity:0.1; fill:none" points="881.174,1423.18 881.174,123.472 "/>
<polyline clip-path="url(#clip022)" style="stroke:#000000; stroke-linecap:round; stroke-linejoin:round; stroke-width:2; stroke-opacity:0.1; fill:none" points="1294.96,1423.18 1294.96,123.472 "/>
<polyline clip-path="url(#clip022)" style="stroke:#000000; stroke-linecap:round; stroke-linejoin:round; stroke-width:2; stroke-opacity:0.1; fill:none" points="1708.75,1423.18 1708.75,123.472 "/>
<polyline clip-path="url(#clip022)" style="stroke:#000000; stroke-linecap:round; stroke-linejoin:round; stroke-width:2; stroke-opacity:0.1; fill:none" points="2122.54,1423.18 2122.54,123.472 "/>
<polyline clip-path="url(#clip020)" style="stroke:#000000; stroke-linecap:round; stroke-linejoin:round; stroke-width:4; stroke-opacity:1; fill:none" points="242.135,1423.18 2352.76,1423.18 "/>
<polyline clip-path="url(#clip020)" style="stroke:#000000; stroke-linecap:round; stroke-linejoin:round; stroke-width:4; stroke-opacity:1; fill:none" points="467.385,1423.18 467.385,1404.28 "/>
<polyline clip-path="url(#clip020)" style="stroke:#000000; stroke-linecap:round; stroke-linejoin:round; stroke-width:4; stroke-opacity:1; fill:none" points="881.174,1423.18 881.174,1404.28 "/>
<polyline clip-path="url(#clip020)" style="stroke:#000000; stroke-linecap:round; stroke-linejoin:round; stroke-width:4; stroke-opacity:1; fill:none" points="1294.96,1423.18 1294.96,1404.28 "/>
<polyline clip-path="url(#clip020)" style="stroke:#000000; stroke-linecap:round; stroke-linejoin:round; stroke-width:4; stroke-opacity:1; fill:none" points="1708.75,1423.18 1708.75,1404.28 "/>
<polyline clip-path="url(#clip020)" style="stroke:#000000; stroke-linecap:round; stroke-linejoin:round; stroke-width:4; stroke-opacity:1; fill:none" points="2122.54,1423.18 2122.54,1404.28 "/>
<path clip-path="url(#clip020)" d="M411.911 1481.64 L419.549 1481.64 L419.549 1455.28 L411.239 1456.95 L411.239 1452.69 L419.503 1451.02 L424.179 1451.02 L424.179 1481.64 L431.818 1481.64 L431.818 1485.58 L411.911 1485.58 L411.911 1481.64 Z" fill="#000000" fill-rule="evenodd" fill-opacity="1" /><path clip-path="url(#clip020)" d="M451.262 1454.1 Q447.651 1454.1 445.822 1457.66 Q444.017 1461.2 444.017 1468.33 Q444.017 1475.44 445.822 1479.01 Q447.651 1482.55 451.262 1482.55 Q454.896 1482.55 456.702 1479.01 Q458.531 1475.44 458.531 1468.33 Q458.531 1461.2 456.702 1457.66 Q454.896 1454.1 451.262 1454.1 M451.262 1450.39 Q457.072 1450.39 460.128 1455 Q463.207 1459.58 463.207 1468.33 Q463.207 1477.06 460.128 1481.67 Q457.072 1486.25 451.262 1486.25 Q445.452 1486.25 442.373 1481.67 Q439.318 1477.06 439.318 1468.33 Q439.318 1459.58 442.373 1455 Q445.452 1450.39 451.262 1450.39 Z" fill="#000000" fill-rule="evenodd" fill-opacity="1" /><path clip-path="url(#clip020)" d="M481.424 1454.1 Q477.813 1454.1 475.984 1457.66 Q474.179 1461.2 474.179 1468.33 Q474.179 1475.44 475.984 1479.01 Q477.813 1482.55 481.424 1482.55 Q485.058 1482.55 486.864 1479.01 Q488.693 1475.44 488.693 1468.33 Q488.693 1461.2 486.864 1457.66 Q485.058 1454.1 481.424 1454.1 M481.424 1450.39 Q487.234 1450.39 490.29 1455 Q493.368 1459.58 493.368 1468.33 Q493.368 1477.06 490.29 1481.67 Q487.234 1486.25 481.424 1486.25 Q475.614 1486.25 472.535 1481.67 Q469.48 1477.06 469.48 1468.33 Q469.48 1459.58 472.535 1455 Q475.614 1450.39 481.424 1450.39 Z" fill="#000000" fill-rule="evenodd" fill-opacity="1" /><path clip-path="url(#clip020)" d="M511.586 1454.1 Q507.975 1454.1 506.146 1457.66 Q504.341 1461.2 504.341 1468.33 Q504.341 1475.44 506.146 1479.01 Q507.975 1482.55 511.586 1482.55 Q515.22 1482.55 517.026 1479.01 Q518.854 1475.44 518.854 1468.33 Q518.854 1461.2 517.026 1457.66 Q515.22 1454.1 511.586 1454.1 M511.586 1450.39 Q517.396 1450.39 520.452 1455 Q523.53 1459.58 523.53 1468.33 Q523.53 1477.06 520.452 1481.67 Q517.396 1486.25 511.586 1486.25 Q505.776 1486.25 502.697 1481.67 Q499.642 1477.06 499.642 1468.33 Q499.642 1459.58 502.697 1455 Q505.776 1450.39 511.586 1450.39 Z" fill="#000000" fill-rule="evenodd" fill-opacity="1" /><path clip-path="url(#clip020)" d="M825.699 1481.64 L833.338 1481.64 L833.338 1455.28 L825.028 1456.95 L825.028 1452.69 L833.292 1451.02 L837.968 1451.02 L837.968 1481.64 L845.607 1481.64 L845.607 1485.58 L825.699 1485.58 L825.699 1481.64 Z" fill="#000000" fill-rule="evenodd" fill-opacity="1" /><path clip-path="url(#clip020)" d="M855.097 1451.02 L873.454 1451.02 L873.454 1454.96 L859.38 1454.96 L859.38 1463.43 Q860.398 1463.08 861.417 1462.92 Q862.435 1462.73 863.454 1462.73 Q869.241 1462.73 872.62 1465.9 Q876 1469.08 876 1474.49 Q876 1480.07 872.528 1483.17 Q869.056 1486.25 862.736 1486.25 Q860.56 1486.25 858.292 1485.88 Q856.046 1485.51 853.639 1484.77 L853.639 1480.07 Q855.722 1481.2 857.945 1481.76 Q860.167 1482.32 862.644 1482.32 Q866.648 1482.32 868.986 1480.21 Q871.324 1478.1 871.324 1474.49 Q871.324 1470.88 868.986 1468.77 Q866.648 1466.67 862.644 1466.67 Q860.769 1466.67 858.894 1467.08 Q857.042 1467.5 855.097 1468.38 L855.097 1451.02 Z" fill="#000000" fill-rule="evenodd" fill-opacity="1" /><path clip-path="url(#clip020)" d="M895.213 1454.1 Q891.602 1454.1 889.773 1457.66 Q887.968 1461.2 887.968 1468.33 Q887.968 1475.44 889.773 1479.01 Q891.602 1482.55 895.213 1482.55 Q898.847 1482.55 900.653 1479.01 Q902.481 1475.44 902.481 1468.33 Q902.481 1461.2 900.653 1457.66 Q898.847 1454.1 895.213 1454.1 M895.213 1450.39 Q901.023 1450.39 904.079 1455 Q907.157 1459.58 907.157 1468.33 Q907.157 1477.06 904.079 1481.67 Q901.023 1486.25 895.213 1486.25 Q889.403 1486.25 886.324 1481.67 Q883.269 1477.06 883.269 1468.33 Q883.269 1459.58 886.324 1455 Q889.403 1450.39 895.213 1450.39 Z" fill="#000000" fill-rule="evenodd" fill-opacity="1" /><path clip-path="url(#clip020)" d="M925.375 1454.1 Q921.764 1454.1 919.935 1457.66 Q918.129 1461.2 918.129 1468.33 Q918.129 1475.44 919.935 1479.01 Q921.764 1482.55 925.375 1482.55 Q929.009 1482.55 930.815 1479.01 Q932.643 1475.44 932.643 1468.33 Q932.643 1461.2 930.815 1457.66 Q929.009 1454.1 925.375 1454.1 M925.375 1450.39 Q931.185 1450.39 934.241 1455 Q937.319 1459.58 937.319 1468.33 Q937.319 1477.06 934.241 1481.67 Q931.185 1486.25 925.375 1486.25 Q919.565 1486.25 916.486 1481.67 Q913.43 1477.06 913.43 1468.33 Q913.43 1459.58 916.486 1455 Q919.565 1450.39 925.375 1450.39 Z" fill="#000000" fill-rule="evenodd" fill-opacity="1" /><path clip-path="url(#clip020)" d="M1243.57 1481.64 L1259.89 1481.64 L1259.89 1485.58 L1237.95 1485.58 L1237.95 1481.64 Q1240.61 1478.89 1245.19 1474.26 Q1249.8 1469.61 1250.98 1468.27 Q1253.23 1465.74 1254.11 1464.01 Q1255.01 1462.25 1255.01 1460.56 Q1255.01 1457.8 1253.06 1456.07 Q1251.14 1454.33 1248.04 1454.33 Q1245.84 1454.33 1243.39 1455.09 Q1240.96 1455.86 1238.18 1457.41 L1238.18 1452.69 Q1241 1451.55 1243.46 1450.97 Q1245.91 1450.39 1247.95 1450.39 Q1253.32 1450.39 1256.51 1453.08 Q1259.71 1455.77 1259.71 1460.26 Q1259.71 1462.39 1258.9 1464.31 Q1258.11 1466.2 1256 1468.8 Q1255.43 1469.47 1252.32 1472.69 Q1249.22 1475.88 1243.57 1481.64 Z" fill="#000000" fill-rule="evenodd" fill-opacity="1" /><path clip-path="url(#clip020)" d="M1279.71 1454.1 Q1276.1 1454.1 1274.27 1457.66 Q1272.46 1461.2 1272.46 1468.33 Q1272.46 1475.44 1274.27 1479.01 Q1276.1 1482.55 1279.71 1482.55 Q1283.34 1482.55 1285.15 1479.01 Q1286.98 1475.44 1286.98 1468.33 Q1286.98 1461.2 1285.15 1457.66 Q1283.34 1454.1 1279.71 1454.1 M1279.71 1450.39 Q1285.52 1450.39 1288.57 1455 Q1291.65 1459.58 1291.65 1468.33 Q1291.65 1477.06 1288.57 1481.67 Q1285.52 1486.25 1279.71 1486.25 Q1273.9 1486.25 1270.82 1481.67 Q1267.76 1477.06 1267.76 1468.33 Q1267.76 1459.58 1270.82 1455 Q1273.9 1450.39 1279.71 1450.39 Z" fill="#000000" fill-rule="evenodd" fill-opacity="1" /><path clip-path="url(#clip020)" d="M1309.87 1454.1 Q1306.26 1454.1 1304.43 1457.66 Q1302.62 1461.2 1302.62 1468.33 Q1302.62 1475.44 1304.43 1479.01 Q1306.26 1482.55 1309.87 1482.55 Q1313.5 1482.55 1315.31 1479.01 Q1317.14 1475.44 1317.14 1468.33 Q1317.14 1461.2 1315.31 1457.66 Q1313.5 1454.1 1309.87 1454.1 M1309.87 1450.39 Q1315.68 1450.39 1318.74 1455 Q1321.81 1459.58 1321.81 1468.33 Q1321.81 1477.06 1318.74 1481.67 Q1315.68 1486.25 1309.87 1486.25 Q1304.06 1486.25 1300.98 1481.67 Q1297.93 1477.06 1297.93 1468.33 Q1297.93 1459.58 1300.98 1455 Q1304.06 1450.39 1309.87 1450.39 Z" fill="#000000" fill-rule="evenodd" fill-opacity="1" /><path clip-path="url(#clip020)" d="M1340.03 1454.1 Q1336.42 1454.1 1334.59 1457.66 Q1332.79 1461.2 1332.79 1468.33 Q1332.79 1475.44 1334.59 1479.01 Q1336.42 1482.55 1340.03 1482.55 Q1343.67 1482.55 1345.47 1479.01 Q1347.3 1475.44 1347.3 1468.33 Q1347.3 1461.2 1345.47 1457.66 Q1343.67 1454.1 1340.03 1454.1 M1340.03 1450.39 Q1345.84 1450.39 1348.9 1455 Q1351.98 1459.58 1351.98 1468.33 Q1351.98 1477.06 1348.9 1481.67 Q1345.84 1486.25 1340.03 1486.25 Q1334.22 1486.25 1331.14 1481.67 Q1328.09 1477.06 1328.09 1468.33 Q1328.09 1459.58 1331.14 1455 Q1334.22 1450.39 1340.03 1450.39 Z" fill="#000000" fill-rule="evenodd" fill-opacity="1" /><path clip-path="url(#clip020)" d="M1657.36 1481.64 L1673.68 1481.64 L1673.68 1485.58 L1651.74 1485.58 L1651.74 1481.64 Q1654.4 1478.89 1658.98 1474.26 Q1663.59 1469.61 1664.77 1468.27 Q1667.02 1465.74 1667.9 1464.01 Q1668.8 1462.25 1668.8 1460.56 Q1668.8 1457.8 1666.85 1456.07 Q1664.93 1454.33 1661.83 1454.33 Q1659.63 1454.33 1657.18 1455.09 Q1654.75 1455.86 1651.97 1457.41 L1651.97 1452.69 Q1654.79 1451.55 1657.25 1450.97 Q1659.7 1450.39 1661.74 1450.39 Q1667.11 1450.39 1670.3 1453.08 Q1673.5 1455.77 1673.5 1460.26 Q1673.5 1462.39 1672.69 1464.31 Q1671.9 1466.2 1669.79 1468.8 Q1669.21 1469.47 1666.11 1472.69 Q1663.01 1475.88 1657.36 1481.64 Z" fill="#000000" fill-rule="evenodd" fill-opacity="1" /><path clip-path="url(#clip020)" d="M1683.54 1451.02 L1701.9 1451.02 L1701.9 1454.96 L1687.83 1454.96 L1687.83 1463.43 Q1688.84 1463.08 1689.86 1462.92 Q1690.88 1462.73 1691.9 1462.73 Q1697.69 1462.73 1701.07 1465.9 Q1704.45 1469.08 1704.45 1474.49 Q1704.45 1480.07 1700.97 1483.17 Q1697.5 1486.25 1691.18 1486.25 Q1689.01 1486.25 1686.74 1485.88 Q1684.49 1485.51 1682.08 1484.77 L1682.08 1480.07 Q1684.17 1481.2 1686.39 1481.76 Q1688.61 1482.32 1691.09 1482.32 Q1695.09 1482.32 1697.43 1480.21 Q1699.77 1478.1 1699.77 1474.49 Q1699.77 1470.88 1697.43 1468.77 Q1695.09 1466.67 1691.09 1466.67 Q1689.21 1466.67 1687.34 1467.08 Q1685.49 1467.5 1683.54 1468.38 L1683.54 1451.02 Z" fill="#000000" fill-rule="evenodd" fill-opacity="1" /><path clip-path="url(#clip020)" d="M1723.66 1454.1 Q1720.05 1454.1 1718.22 1457.66 Q1716.41 1461.2 1716.41 1468.33 Q1716.41 1475.44 1718.22 1479.01 Q1720.05 1482.55 1723.66 1482.55 Q1727.29 1482.55 1729.1 1479.01 Q1730.93 1475.44 1730.93 1468.33 Q1730.93 1461.2 1729.1 1457.66 Q1727.29 1454.1 1723.66 1454.1 M1723.66 1450.39 Q1729.47 1450.39 1732.52 1455 Q1735.6 1459.58 1735.6 1468.33 Q1735.6 1477.06 1732.52 1481.67 Q1729.47 1486.25 1723.66 1486.25 Q1717.85 1486.25 1714.77 1481.67 Q1711.71 1477.06 1711.71 1468.33 Q1711.71 1459.58 1714.77 1455 Q1717.85 1450.39 1723.66 1450.39 Z" fill="#000000" fill-rule="evenodd" fill-opacity="1" /><path clip-path="url(#clip020)" d="M1753.82 1454.1 Q1750.21 1454.1 1748.38 1457.66 Q1746.58 1461.2 1746.58 1468.33 Q1746.58 1475.44 1748.38 1479.01 Q1750.21 1482.55 1753.82 1482.55 Q1757.45 1482.55 1759.26 1479.01 Q1761.09 1475.44 1761.09 1468.33 Q1761.09 1461.2 1759.26 1457.66 Q1757.45 1454.1 1753.82 1454.1 M1753.82 1450.39 Q1759.63 1450.39 1762.69 1455 Q1765.77 1459.58 1765.77 1468.33 Q1765.77 1477.06 1762.69 1481.67 Q1759.63 1486.25 1753.82 1486.25 Q1748.01 1486.25 1744.93 1481.67 Q1741.88 1477.06 1741.88 1468.33 Q1741.88 1459.58 1744.93 1455 Q1748.01 1450.39 1753.82 1450.39 Z" fill="#000000" fill-rule="evenodd" fill-opacity="1" /><path clip-path="url(#clip020)" d="M2081.22 1466.95 Q2084.58 1467.66 2086.45 1469.93 Q2088.35 1472.2 2088.35 1475.53 Q2088.35 1480.65 2084.83 1483.45 Q2081.31 1486.25 2074.83 1486.25 Q2072.66 1486.25 2070.34 1485.81 Q2068.05 1485.39 2065.6 1484.54 L2065.6 1480.02 Q2067.54 1481.16 2069.86 1481.74 Q2072.17 1482.32 2074.69 1482.32 Q2079.09 1482.32 2081.38 1480.58 Q2083.7 1478.84 2083.7 1475.53 Q2083.7 1472.48 2081.55 1470.77 Q2079.42 1469.03 2075.6 1469.03 L2071.57 1469.03 L2071.57 1465.19 L2075.78 1465.19 Q2079.23 1465.19 2081.06 1463.82 Q2082.89 1462.43 2082.89 1459.84 Q2082.89 1457.18 2080.99 1455.77 Q2079.11 1454.33 2075.6 1454.33 Q2073.67 1454.33 2071.48 1454.75 Q2069.28 1455.16 2066.64 1456.04 L2066.64 1451.88 Q2069.3 1451.14 2071.61 1450.77 Q2073.95 1450.39 2076.01 1450.39 Q2081.34 1450.39 2084.44 1452.83 Q2087.54 1455.23 2087.54 1459.35 Q2087.54 1462.22 2085.9 1464.21 Q2084.25 1466.18 2081.22 1466.95 Z" fill="#000000" fill-rule="evenodd" fill-opacity="1" /><path clip-path="url(#clip020)" d="M2107.22 1454.1 Q2103.61 1454.1 2101.78 1457.66 Q2099.97 1461.2 2099.97 1468.33 Q2099.97 1475.44 2101.78 1479.01 Q2103.61 1482.55 2107.22 1482.55 Q2110.85 1482.55 2112.66 1479.01 Q2114.48 1475.44 2114.48 1468.33 Q2114.48 1461.2 2112.66 1457.66 Q2110.85 1454.1 2107.22 1454.1 M2107.22 1450.39 Q2113.03 1450.39 2116.08 1455 Q2119.16 1459.58 2119.16 1468.33 Q2119.16 1477.06 2116.08 1481.67 Q2113.03 1486.25 2107.22 1486.25 Q2101.41 1486.25 2098.33 1481.67 Q2095.27 1477.06 2095.27 1468.33 Q2095.27 1459.58 2098.33 1455 Q2101.41 1450.39 2107.22 1450.39 Z" fill="#000000" fill-rule="evenodd" fill-opacity="1" /><path clip-path="url(#clip020)" d="M2137.38 1454.1 Q2133.77 1454.1 2131.94 1457.66 Q2130.13 1461.2 2130.13 1468.33 Q2130.13 1475.44 2131.94 1479.01 Q2133.77 1482.55 2137.38 1482.55 Q2141.01 1482.55 2142.82 1479.01 Q2144.65 1475.44 2144.65 1468.33 Q2144.65 1461.2 2142.82 1457.66 Q2141.01 1454.1 2137.38 1454.1 M2137.38 1450.39 Q2143.19 1450.39 2146.24 1455 Q2149.32 1459.58 2149.32 1468.33 Q2149.32 1477.06 2146.24 1481.67 Q2143.19 1486.25 2137.38 1486.25 Q2131.57 1486.25 2128.49 1481.67 Q2125.43 1477.06 2125.43 1468.33 Q2125.43 1459.58 2128.49 1455 Q2131.57 1450.39 2137.38 1450.39 Z" fill="#000000" fill-rule="evenodd" fill-opacity="1" /><path clip-path="url(#clip020)" d="M2167.54 1454.1 Q2163.93 1454.1 2162.1 1457.66 Q2160.29 1461.2 2160.29 1468.33 Q2160.29 1475.44 2162.1 1479.01 Q2163.93 1482.55 2167.54 1482.55 Q2171.17 1482.55 2172.98 1479.01 Q2174.81 1475.44 2174.81 1468.33 Q2174.81 1461.2 2172.98 1457.66 Q2171.17 1454.1 2167.54 1454.1 M2167.54 1450.39 Q2173.35 1450.39 2176.41 1455 Q2179.48 1459.58 2179.48 1468.33 Q2179.48 1477.06 2176.41 1481.67 Q2173.35 1486.25 2167.54 1486.25 Q2161.73 1486.25 2158.65 1481.67 Q2155.6 1477.06 2155.6 1468.33 Q2155.6 1459.58 2158.65 1455 Q2161.73 1450.39 2167.54 1450.39 Z" fill="#000000" fill-rule="evenodd" fill-opacity="1" /><path clip-path="url(#clip020)" d="M1251.09 1526.86 L1242.37 1550.51 L1259.84 1550.51 L1251.09 1526.86 M1247.46 1520.52 L1254.75 1520.52 L1272.86 1568.04 L1266.17 1568.04 L1261.85 1555.85 L1240.42 1555.85 L1236.1 1568.04 L1229.32 1568.04 L1247.46 1520.52 Z" fill="#000000" fill-rule="evenodd" fill-opacity="1" /><path clip-path="url(#clip020)" d="M1286.23 1525.81 L1286.23 1562.76 L1293.99 1562.76 Q1303.83 1562.76 1308.38 1558.3 Q1312.96 1553.85 1312.96 1544.24 Q1312.96 1534.69 1308.38 1530.26 Q1303.83 1525.81 1293.99 1525.81 L1286.23 1525.81 M1279.8 1520.52 L1293.01 1520.52 Q1306.82 1520.52 1313.28 1526.28 Q1319.74 1532.01 1319.74 1544.24 Q1319.74 1556.52 1313.25 1562.28 Q1306.76 1568.04 1293.01 1568.04 L1279.8 1568.04 L1279.8 1520.52 Z" fill="#000000" fill-rule="evenodd" fill-opacity="1" /><path clip-path="url(#clip020)" d="M1365.57 1524.18 L1365.57 1530.96 Q1362.33 1527.94 1358.64 1526.44 Q1354.98 1524.95 1350.84 1524.95 Q1342.69 1524.95 1338.36 1529.95 Q1334.03 1534.91 1334.03 1544.33 Q1334.03 1553.72 1338.36 1558.72 Q1342.69 1563.68 1350.84 1563.68 Q1354.98 1563.68 1358.64 1562.19 Q1362.33 1560.69 1365.57 1557.67 L1365.57 1564.38 Q1362.2 1566.68 1358.41 1567.82 Q1354.66 1568.97 1350.46 1568.97 Q1339.67 1568.97 1333.46 1562.38 Q1327.25 1555.76 1327.25 1544.33 Q1327.25 1532.87 1333.46 1526.28 Q1339.67 1519.66 1350.46 1519.66 Q1354.72 1519.66 1358.48 1520.81 Q1362.26 1521.92 1365.57 1524.18 Z" fill="#000000" fill-rule="evenodd" fill-opacity="1" /><polyline clip-path="url(#clip022)" style="stroke:#000000; stroke-linecap:round; stroke-linejoin:round; stroke-width:2; stroke-opacity:0.1; fill:none" points="242.135,1386.4 2352.76,1386.4 "/>
<polyline clip-path="url(#clip022)" style="stroke:#000000; stroke-linecap:round; stroke-linejoin:round; stroke-width:2; stroke-opacity:0.1; fill:none" points="242.135,1182.04 2352.76,1182.04 "/>
<polyline clip-path="url(#clip022)" style="stroke:#000000; stroke-linecap:round; stroke-linejoin:round; stroke-width:2; stroke-opacity:0.1; fill:none" points="242.135,977.683 2352.76,977.683 "/>
<polyline clip-path="url(#clip022)" style="stroke:#000000; stroke-linecap:round; stroke-linejoin:round; stroke-width:2; stroke-opacity:0.1; fill:none" points="242.135,773.326 2352.76,773.326 "/>
<polyline clip-path="url(#clip022)" style="stroke:#000000; stroke-linecap:round; stroke-linejoin:round; stroke-width:2; stroke-opacity:0.1; fill:none" points="242.135,568.969 2352.76,568.969 "/>
<polyline clip-path="url(#clip022)" style="stroke:#000000; stroke-linecap:round; stroke-linejoin:round; stroke-width:2; stroke-opacity:0.1; fill:none" points="242.135,364.613 2352.76,364.613 "/>
<polyline clip-path="url(#clip022)" style="stroke:#000000; stroke-linecap:round; stroke-linejoin:round; stroke-width:2; stroke-opacity:0.1; fill:none" points="242.135,160.256 2352.76,160.256 "/>
<polyline clip-path="url(#clip020)" style="stroke:#000000; stroke-linecap:round; stroke-linejoin:round; stroke-width:4; stroke-opacity:1; fill:none" points="242.135,1423.18 242.135,123.472 "/>
<polyline clip-path="url(#clip020)" style="stroke:#000000; stroke-linecap:round; stroke-linejoin:round; stroke-width:4; stroke-opacity:1; fill:none" points="242.135,1386.4 261.032,1386.4 "/>
<polyline clip-path="url(#clip020)" style="stroke:#000000; stroke-linecap:round; stroke-linejoin:round; stroke-width:4; stroke-opacity:1; fill:none" points="242.135,1182.04 261.032,1182.04 "/>
<polyline clip-path="url(#clip020)" style="stroke:#000000; stroke-linecap:round; stroke-linejoin:round; stroke-width:4; stroke-opacity:1; fill:none" points="242.135,977.683 261.032,977.683 "/>
<polyline clip-path="url(#clip020)" style="stroke:#000000; stroke-linecap:round; stroke-linejoin:round; stroke-width:4; stroke-opacity:1; fill:none" points="242.135,773.326 261.032,773.326 "/>
<polyline clip-path="url(#clip020)" style="stroke:#000000; stroke-linecap:round; stroke-linejoin:round; stroke-width:4; stroke-opacity:1; fill:none" points="242.135,568.969 261.032,568.969 "/>
<polyline clip-path="url(#clip020)" style="stroke:#000000; stroke-linecap:round; stroke-linejoin:round; stroke-width:4; stroke-opacity:1; fill:none" points="242.135,364.613 261.032,364.613 "/>
<polyline clip-path="url(#clip020)" style="stroke:#000000; stroke-linecap:round; stroke-linejoin:round; stroke-width:4; stroke-opacity:1; fill:none" points="242.135,160.256 261.032,160.256 "/>
<path clip-path="url(#clip020)" d="M114.26 1386.85 L143.936 1386.85 L143.936 1390.78 L114.26 1390.78 L114.26 1386.85 Z" fill="#000000" fill-rule="evenodd" fill-opacity="1" /><path clip-path="url(#clip020)" d="M164.607 1384.53 Q161.459 1384.53 159.607 1386.69 Q157.778 1388.84 157.778 1392.59 Q157.778 1396.31 159.607 1398.49 Q161.459 1400.64 164.607 1400.64 Q167.755 1400.64 169.584 1398.49 Q171.436 1396.31 171.436 1392.59 Q171.436 1388.84 169.584 1386.69 Q167.755 1384.53 164.607 1384.53 M173.889 1369.88 L173.889 1374.14 Q172.13 1373.31 170.325 1372.87 Q168.542 1372.43 166.783 1372.43 Q162.153 1372.43 159.7 1375.55 Q157.269 1378.68 156.922 1385 Q158.288 1382.98 160.348 1381.92 Q162.408 1380.83 164.885 1380.83 Q170.093 1380.83 173.102 1384 Q176.135 1387.15 176.135 1392.59 Q176.135 1397.91 172.987 1401.13 Q169.839 1404.35 164.607 1404.35 Q158.612 1404.35 155.44 1399.76 Q152.269 1395.16 152.269 1386.43 Q152.269 1378.24 156.158 1373.37 Q160.047 1368.49 166.598 1368.49 Q168.357 1368.49 170.139 1368.84 Q171.945 1369.19 173.889 1369.88 Z" fill="#000000" fill-rule="evenodd" fill-opacity="1" /><path clip-path="url(#clip020)" d="M194.19 1372.19 Q190.579 1372.19 188.75 1375.76 Q186.945 1379.3 186.945 1386.43 Q186.945 1393.54 188.75 1397.1 Q190.579 1400.64 194.19 1400.64 Q197.825 1400.64 199.63 1397.1 Q201.459 1393.54 201.459 1386.43 Q201.459 1379.3 199.63 1375.76 Q197.825 1372.19 194.19 1372.19 M194.19 1368.49 Q200 1368.49 203.056 1373.1 Q206.135 1377.68 206.135 1386.43 Q206.135 1395.16 203.056 1399.76 Q200 1404.35 194.19 1404.35 Q188.38 1404.35 185.301 1399.76 Q182.246 1395.16 182.246 1386.43 Q182.246 1377.68 185.301 1373.1 Q188.38 1368.49 194.19 1368.49 Z" fill="#000000" fill-rule="evenodd" fill-opacity="1" /><path clip-path="url(#clip020)" d="M114.26 1182.49 L143.936 1182.49 L143.936 1186.43 L114.26 1186.43 L114.26 1182.49 Z" fill="#000000" fill-rule="evenodd" fill-opacity="1" /><path clip-path="url(#clip020)" d="M154.075 1164.76 L172.431 1164.76 L172.431 1168.69 L158.357 1168.69 L158.357 1177.17 Q159.376 1176.82 160.394 1176.66 Q161.413 1176.47 162.431 1176.47 Q168.218 1176.47 171.598 1179.64 Q174.977 1182.81 174.977 1188.23 Q174.977 1193.81 171.505 1196.91 Q168.033 1199.99 161.714 1199.99 Q159.538 1199.99 157.269 1199.62 Q155.024 1199.25 152.616 1198.51 L152.616 1193.81 Q154.7 1194.94 156.922 1195.5 Q159.144 1196.06 161.621 1196.06 Q165.626 1196.06 167.964 1193.95 Q170.302 1191.84 170.302 1188.23 Q170.302 1184.62 167.964 1182.51 Q165.626 1180.41 161.621 1180.41 Q159.746 1180.41 157.871 1180.82 Q156.019 1181.24 154.075 1182.12 L154.075 1164.76 Z" fill="#000000" fill-rule="evenodd" fill-opacity="1" /><path clip-path="url(#clip020)" d="M194.19 1167.84 Q190.579 1167.84 188.75 1171.4 Q186.945 1174.94 186.945 1182.07 Q186.945 1189.18 188.75 1192.75 Q190.579 1196.29 194.19 1196.29 Q197.825 1196.29 199.63 1192.75 Q201.459 1189.18 201.459 1182.07 Q201.459 1174.94 199.63 1171.4 Q197.825 1167.84 194.19 1167.84 M194.19 1164.13 Q200 1164.13 203.056 1168.74 Q206.135 1173.32 206.135 1182.07 Q206.135 1190.8 203.056 1195.41 Q200 1199.99 194.19 1199.99 Q188.38 1199.99 185.301 1195.41 Q182.246 1190.8 182.246 1182.07 Q182.246 1173.32 185.301 1168.74 Q188.38 1164.13 194.19 1164.13 Z" fill="#000000" fill-rule="evenodd" fill-opacity="1" /><path clip-path="url(#clip020)" d="M114.26 978.134 L143.936 978.134 L143.936 982.069 L114.26 982.069 L114.26 978.134 Z" fill="#000000" fill-rule="evenodd" fill-opacity="1" /><path clip-path="url(#clip020)" d="M166.876 964.477 L155.07 982.926 L166.876 982.926 L166.876 964.477 M165.649 960.403 L171.528 960.403 L171.528 982.926 L176.459 982.926 L176.459 986.814 L171.528 986.814 L171.528 994.963 L166.876 994.963 L166.876 986.814 L151.274 986.814 L151.274 982.301 L165.649 960.403 Z" fill="#000000" fill-rule="evenodd" fill-opacity="1" /><path clip-path="url(#clip020)" d="M194.19 963.481 Q190.579 963.481 188.75 967.046 Q186.945 970.588 186.945 977.717 Q186.945 984.824 188.75 988.389 Q190.579 991.93 194.19 991.93 Q197.825 991.93 199.63 988.389 Q201.459 984.824 201.459 977.717 Q201.459 970.588 199.63 967.046 Q197.825 963.481 194.19 963.481 M194.19 959.778 Q200 959.778 203.056 964.384 Q206.135 968.967 206.135 977.717 Q206.135 986.444 203.056 991.051 Q200 995.634 194.19 995.634 Q188.38 995.634 185.301 991.051 Q182.246 986.444 182.246 977.717 Q182.246 968.967 185.301 964.384 Q188.38 959.778 194.19 959.778 Z" fill="#000000" fill-rule="evenodd" fill-opacity="1" /><path clip-path="url(#clip020)" d="M114.26 773.777 L143.936 773.777 L143.936 777.713 L114.26 777.713 L114.26 773.777 Z" fill="#000000" fill-rule="evenodd" fill-opacity="1" /><path clip-path="url(#clip020)" d="M168.195 771.972 Q171.552 772.689 173.427 774.958 Q175.325 777.226 175.325 780.56 Q175.325 785.675 171.806 788.476 Q168.288 791.277 161.806 791.277 Q159.63 791.277 157.315 790.837 Q155.024 790.421 152.57 789.564 L152.57 785.05 Q154.515 786.185 156.829 786.763 Q159.144 787.342 161.667 787.342 Q166.065 787.342 168.357 785.606 Q170.672 783.87 170.672 780.56 Q170.672 777.504 168.519 775.791 Q166.39 774.055 162.57 774.055 L158.542 774.055 L158.542 770.213 L162.755 770.213 Q166.204 770.213 168.033 768.847 Q169.862 767.458 169.862 764.865 Q169.862 762.203 167.964 760.791 Q166.089 759.356 162.57 759.356 Q160.649 759.356 158.45 759.773 Q156.251 760.189 153.612 761.069 L153.612 756.902 Q156.274 756.162 158.589 755.791 Q160.927 755.421 162.987 755.421 Q168.311 755.421 171.413 757.852 Q174.514 760.259 174.514 764.379 Q174.514 767.25 172.871 769.24 Q171.227 771.208 168.195 771.972 Z" fill="#000000" fill-rule="evenodd" fill-opacity="1" /><path clip-path="url(#clip020)" d="M194.19 759.125 Q190.579 759.125 188.75 762.689 Q186.945 766.231 186.945 773.361 Q186.945 780.467 188.75 784.032 Q190.579 787.574 194.19 787.574 Q197.825 787.574 199.63 784.032 Q201.459 780.467 201.459 773.361 Q201.459 766.231 199.63 762.689 Q197.825 759.125 194.19 759.125 M194.19 755.421 Q200 755.421 203.056 760.027 Q206.135 764.611 206.135 773.361 Q206.135 782.088 203.056 786.694 Q200 791.277 194.19 791.277 Q188.38 791.277 185.301 786.694 Q182.246 782.088 182.246 773.361 Q182.246 764.611 185.301 760.027 Q188.38 755.421 194.19 755.421 Z" fill="#000000" fill-rule="evenodd" fill-opacity="1" /><path clip-path="url(#clip020)" d="M114.26 569.421 L143.936 569.421 L143.936 573.356 L114.26 573.356 L114.26 569.421 Z" fill="#000000" fill-rule="evenodd" fill-opacity="1" /><path clip-path="url(#clip020)" d="M158.056 582.314 L174.376 582.314 L174.376 586.249 L152.431 586.249 L152.431 582.314 Q155.093 579.56 159.677 574.93 Q164.283 570.277 165.464 568.935 Q167.709 566.412 168.589 564.675 Q169.491 562.916 169.491 561.226 Q169.491 558.472 167.547 556.736 Q165.626 555 162.524 555 Q160.325 555 157.871 555.763 Q155.44 556.527 152.663 558.078 L152.663 553.356 Q155.487 552.222 157.94 551.643 Q160.394 551.064 162.431 551.064 Q167.802 551.064 170.996 553.75 Q174.19 556.435 174.19 560.925 Q174.19 563.055 173.38 564.976 Q172.593 566.875 170.487 569.467 Q169.908 570.138 166.806 573.356 Q163.704 576.55 158.056 582.314 Z" fill="#000000" fill-rule="evenodd" fill-opacity="1" /><path clip-path="url(#clip020)" d="M194.19 554.768 Q190.579 554.768 188.75 558.333 Q186.945 561.875 186.945 569.004 Q186.945 576.111 188.75 579.675 Q190.579 583.217 194.19 583.217 Q197.825 583.217 199.63 579.675 Q201.459 576.111 201.459 569.004 Q201.459 561.875 199.63 558.333 Q197.825 554.768 194.19 554.768 M194.19 551.064 Q200 551.064 203.056 555.671 Q206.135 560.254 206.135 569.004 Q206.135 577.731 203.056 582.337 Q200 586.921 194.19 586.921 Q188.38 586.921 185.301 582.337 Q182.246 577.731 182.246 569.004 Q182.246 560.254 185.301 555.671 Q188.38 551.064 194.19 551.064 Z" fill="#000000" fill-rule="evenodd" fill-opacity="1" /><path clip-path="url(#clip020)" d="M114.26 365.064 L143.936 365.064 L143.936 368.999 L114.26 368.999 L114.26 365.064 Z" fill="#000000" fill-rule="evenodd" fill-opacity="1" /><path clip-path="url(#clip020)" d="M154.839 377.958 L162.477 377.958 L162.477 351.592 L154.167 353.259 L154.167 349 L162.431 347.333 L167.107 347.333 L167.107 377.958 L174.746 377.958 L174.746 381.893 L154.839 381.893 L154.839 377.958 Z" fill="#000000" fill-rule="evenodd" fill-opacity="1" /><path clip-path="url(#clip020)" d="M194.19 350.412 Q190.579 350.412 188.75 353.976 Q186.945 357.518 186.945 364.648 Q186.945 371.754 188.75 375.319 Q190.579 378.86 194.19 378.86 Q197.825 378.86 199.63 375.319 Q201.459 371.754 201.459 364.648 Q201.459 357.518 199.63 353.976 Q197.825 350.412 194.19 350.412 M194.19 346.708 Q200 346.708 203.056 351.314 Q206.135 355.898 206.135 364.648 Q206.135 373.374 203.056 377.981 Q200 382.564 194.19 382.564 Q188.38 382.564 185.301 377.981 Q182.246 373.374 182.246 364.648 Q182.246 355.898 185.301 351.314 Q188.38 346.708 194.19 346.708 Z" fill="#000000" fill-rule="evenodd" fill-opacity="1" /><path clip-path="url(#clip020)" d="M194.19 146.055 Q190.579 146.055 188.75 149.62 Q186.945 153.161 186.945 160.291 Q186.945 167.397 188.75 170.962 Q190.579 174.504 194.19 174.504 Q197.825 174.504 199.63 170.962 Q201.459 167.397 201.459 160.291 Q201.459 153.161 199.63 149.62 Q197.825 146.055 194.19 146.055 M194.19 142.351 Q200 142.351 203.056 146.958 Q206.135 151.541 206.135 160.291 Q206.135 169.018 203.056 173.624 Q200 178.208 194.19 178.208 Q188.38 178.208 185.301 173.624 Q182.246 169.018 182.246 160.291 Q182.246 151.541 185.301 146.958 Q188.38 142.351 194.19 142.351 Z" fill="#000000" fill-rule="evenodd" fill-opacity="1" /><path clip-path="url(#clip020)" d="M33.7671 817.552 L14.479 817.552 L14.479 811.695 L64.0042 811.695 L64.0042 817.552 L58.657 817.552 Q61.8398 819.398 63.3994 822.231 Q64.9272 825.031 64.9272 828.978 Q64.9272 835.439 59.771 839.513 Q54.6147 843.556 46.212 843.556 Q37.8093 843.556 32.6531 839.513 Q27.4968 835.439 27.4968 828.978 Q27.4968 825.031 29.0564 822.231 Q30.5842 819.398 33.7671 817.552 M46.212 837.508 Q52.6732 837.508 56.3653 834.866 Q60.0256 832.193 60.0256 827.546 Q60.0256 822.899 56.3653 820.225 Q52.6732 817.552 46.212 817.552 Q39.7508 817.552 36.0905 820.225 Q32.3984 822.899 32.3984 827.546 Q32.3984 832.193 36.0905 834.866 Q39.7508 837.508 46.212 837.508 Z" fill="#000000" fill-rule="evenodd" fill-opacity="1" /><path clip-path="url(#clip020)" d="M41.3104 792.948 L58.7206 792.948 L58.7206 782.636 Q58.7206 777.448 56.5881 774.965 Q54.4238 772.451 49.9996 772.451 Q45.5436 772.451 43.4429 774.965 Q41.3104 777.448 41.3104 782.636 L41.3104 792.948 M21.7677 792.948 L36.0905 792.948 L36.0905 783.432 Q36.0905 778.721 34.34 776.429 Q32.5576 774.106 28.9291 774.106 Q25.3325 774.106 23.5501 776.429 Q21.7677 778.721 21.7677 783.432 L21.7677 792.948 M16.4842 799.378 L16.4842 782.954 Q16.4842 775.602 19.5397 771.623 Q22.5952 767.645 28.2289 767.645 Q32.5894 767.645 35.1675 769.682 Q37.7456 771.719 38.3822 775.665 Q39.4007 770.923 42.6472 768.313 Q45.8619 765.671 50.6998 765.671 Q57.0655 765.671 60.5348 770 Q64.0042 774.329 64.0042 782.318 L64.0042 799.378 L16.4842 799.378 Z" fill="#000000" fill-rule="evenodd" fill-opacity="1" /><path clip-path="url(#clip020)" d="M35.1993 727.159 Q31.2526 724.963 29.3747 721.907 Q27.4968 718.851 27.4968 714.714 Q27.4968 709.144 31.4117 706.12 Q35.2948 703.096 42.4881 703.096 L64.0042 703.096 L64.0042 708.985 L42.679 708.985 Q37.5546 708.985 35.072 710.799 Q32.5894 712.613 32.5894 716.337 Q32.5894 720.888 35.6131 723.53 Q38.6368 726.172 43.8567 726.172 L64.0042 726.172 L64.0042 732.06 L42.679 732.06 Q37.5228 732.06 35.072 733.875 Q32.5894 735.689 32.5894 739.476 Q32.5894 743.964 35.6449 746.606 Q38.6686 749.248 43.8567 749.248 L64.0042 749.248 L64.0042 755.136 L28.3562 755.136 L28.3562 749.248 L33.8944 749.248 Q30.616 747.243 29.0564 744.442 Q27.4968 741.641 27.4968 737.789 Q27.4968 733.906 29.4702 731.201 Q31.4436 728.464 35.1993 727.159 Z" fill="#000000" fill-rule="evenodd" fill-opacity="1" /><path clip-path="url(#clip020)" d="M1107.52 65.6895 L1136.08 65.6895 L1136.08 72.576 L1097.67 72.576 L1097.67 65.6895 Q1102.33 60.8689 1110.35 52.7671 Q1118.42 44.6248 1120.48 42.2752 Q1124.41 37.8598 1125.95 34.8216 Q1127.53 31.7429 1127.53 28.7857 Q1127.53 23.9651 1124.13 20.927 Q1120.77 17.8888 1115.34 17.8888 Q1111.49 17.8888 1107.19 19.2256 Q1102.94 20.5624 1098.08 23.2765 L1098.08 15.0127 Q1103.02 13.0277 1107.32 12.015 Q1111.61 11.0023 1115.17 11.0023 Q1124.57 11.0023 1130.16 15.7013 Q1135.75 20.4004 1135.75 28.2591 Q1135.75 31.9859 1134.34 35.3482 Q1132.96 38.6699 1129.27 43.2069 Q1128.26 44.3817 1122.83 50.0125 Q1117.4 55.6027 1107.52 65.6895 Z" fill="#000000" fill-rule="evenodd" fill-opacity="1" /><path clip-path="url(#clip020)" d="M1189.91 45.1919 L1189.91 72.576 L1182.46 72.576 L1182.46 45.4349 Q1182.46 38.994 1179.95 35.7938 Q1177.44 32.5936 1172.41 32.5936 Q1166.38 32.5936 1162.89 36.4419 Q1159.41 40.2903 1159.41 46.9338 L1159.41 72.576 L1151.92 72.576 L1151.92 27.2059 L1159.41 27.2059 L1159.41 34.2544 Q1162.08 30.163 1165.69 28.1376 Q1169.34 26.1121 1174.07 26.1121 Q1181.89 26.1121 1185.9 30.9732 Q1189.91 35.7938 1189.91 45.1919 Z" fill="#000000" fill-rule="evenodd" fill-opacity="1" /><path clip-path="url(#clip020)" d="M1234.64 34.0924 L1234.64 9.54393 L1242.09 9.54393 L1242.09 72.576 L1234.64 72.576 L1234.64 65.7705 Q1232.29 69.8214 1228.68 71.8063 Q1225.12 73.7508 1220.09 73.7508 Q1211.87 73.7508 1206.68 67.1883 Q1201.54 60.6258 1201.54 49.9314 Q1201.54 39.2371 1206.68 32.6746 Q1211.87 26.1121 1220.09 26.1121 Q1225.12 26.1121 1228.68 28.0971 Q1232.29 30.0415 1234.64 34.0924 M1209.24 49.9314 Q1209.24 58.1548 1212.6 62.8538 Q1216 67.5124 1221.92 67.5124 Q1227.83 67.5124 1231.23 62.8538 Q1234.64 58.1548 1234.64 49.9314 Q1234.64 41.7081 1231.23 37.0496 Q1227.83 32.3505 1221.92 32.3505 Q1216 32.3505 1212.6 37.0496 Q1209.24 41.7081 1209.24 49.9314 Z" fill="#000000" fill-rule="evenodd" fill-opacity="1" /><path clip-path="url(#clip020)" d="M1301.39 32.4315 Q1295.4 32.4315 1291.92 37.1306 Q1288.43 41.7891 1288.43 49.9314 Q1288.43 58.0738 1291.88 62.7728 Q1295.36 67.4314 1301.39 67.4314 Q1307.35 67.4314 1310.83 62.7323 Q1314.32 58.0333 1314.32 49.9314 Q1314.32 41.8701 1310.83 37.1711 Q1307.35 32.4315 1301.39 32.4315 M1301.39 26.1121 Q1311.12 26.1121 1316.67 32.4315 Q1322.22 38.7509 1322.22 49.9314 Q1322.22 61.0714 1316.67 67.4314 Q1311.12 73.7508 1301.39 73.7508 Q1291.63 73.7508 1286.08 67.4314 Q1280.57 61.0714 1280.57 49.9314 Q1280.57 38.7509 1286.08 32.4315 Q1291.63 26.1121 1301.39 26.1121 Z" fill="#000000" fill-rule="evenodd" fill-opacity="1" /><path clip-path="url(#clip020)" d="M1360.86 34.1734 Q1359.61 33.4443 1358.11 33.1202 Q1356.65 32.7556 1354.87 32.7556 Q1348.55 32.7556 1345.14 36.8875 Q1341.78 40.9789 1341.78 48.6757 L1341.78 72.576 L1334.29 72.576 L1334.29 27.2059 L1341.78 27.2059 L1341.78 34.2544 Q1344.13 30.1225 1347.9 28.1376 Q1351.67 26.1121 1357.05 26.1121 Q1357.82 26.1121 1358.76 26.2337 Q1359.69 26.3147 1360.82 26.5172 L1360.86 34.1734 Z" fill="#000000" fill-rule="evenodd" fill-opacity="1" /><path clip-path="url(#clip020)" d="M1397.08 34.0924 L1397.08 9.54393 L1404.53 9.54393 L1404.53 72.576 L1397.08 72.576 L1397.08 65.7705 Q1394.73 69.8214 1391.12 71.8063 Q1387.56 73.7508 1382.53 73.7508 Q1374.31 73.7508 1369.13 67.1883 Q1363.98 60.6258 1363.98 49.9314 Q1363.98 39.2371 1369.13 32.6746 Q1374.31 26.1121 1382.53 26.1121 Q1387.56 26.1121 1391.12 28.0971 Q1394.73 30.0415 1397.08 34.0924 M1371.68 49.9314 Q1371.68 58.1548 1375.04 62.8538 Q1378.44 67.5124 1384.36 67.5124 Q1390.27 67.5124 1393.67 62.8538 Q1397.08 58.1548 1397.08 49.9314 Q1397.08 41.7081 1393.67 37.0496 Q1390.27 32.3505 1384.36 32.3505 Q1378.44 32.3505 1375.04 37.0496 Q1371.68 41.7081 1371.68 49.9314 Z" fill="#000000" fill-rule="evenodd" fill-opacity="1" /><path clip-path="url(#clip020)" d="M1458.69 48.0275 L1458.69 51.6733 L1424.42 51.6733 Q1424.91 59.3701 1429.04 63.421 Q1433.21 67.4314 1440.62 67.4314 Q1444.92 67.4314 1448.93 66.3781 Q1452.98 65.3249 1456.95 63.2184 L1456.95 70.267 Q1452.94 71.9684 1448.73 72.8596 Q1444.51 73.7508 1440.18 73.7508 Q1429.32 73.7508 1422.96 67.4314 Q1416.64 61.1119 1416.64 50.3365 Q1416.64 39.1965 1422.64 32.6746 Q1428.67 26.1121 1438.88 26.1121 Q1448.04 26.1121 1453.34 32.0264 Q1458.69 37.9003 1458.69 48.0275 M1451.24 45.84 Q1451.16 39.7232 1447.79 36.0774 Q1444.47 32.4315 1438.96 32.4315 Q1432.73 32.4315 1428.96 35.9558 Q1425.23 39.4801 1424.66 45.8805 L1451.24 45.84 Z" fill="#000000" fill-rule="evenodd" fill-opacity="1" /><path clip-path="url(#clip020)" d="M1497.22 34.1734 Q1495.96 33.4443 1494.46 33.1202 Q1493 32.7556 1491.22 32.7556 Q1484.9 32.7556 1481.5 36.8875 Q1478.14 40.9789 1478.14 48.6757 L1478.14 72.576 L1470.64 72.576 L1470.64 27.2059 L1478.14 27.2059 L1478.14 34.2544 Q1480.49 30.1225 1484.25 28.1376 Q1488.02 26.1121 1493.41 26.1121 Q1494.18 26.1121 1495.11 26.2337 Q1496.04 26.3147 1497.18 26.5172 L1497.22 34.1734 Z" fill="#000000" fill-rule="evenodd" fill-opacity="1" /><circle clip-path="url(#clip022)" cx="301.869" cy="160.256" r="14.4" fill="#009af9" fill-rule="evenodd" fill-opacity="1" stroke="#000000" stroke-opacity="1" stroke-width="3.2"/>
<circle clip-path="url(#clip022)" cx="315.938" cy="180.692" r="14.4" fill="#009af9" fill-rule="evenodd" fill-opacity="1" stroke="#000000" stroke-opacity="1" stroke-width="3.2"/>
<circle clip-path="url(#clip022)" cx="339.938" cy="201.128" r="14.4" fill="#009af9" fill-rule="evenodd" fill-opacity="1" stroke="#000000" stroke-opacity="1" stroke-width="3.2"/>
<circle clip-path="url(#clip022)" cx="358.972" cy="221.563" r="14.4" fill="#009af9" fill-rule="evenodd" fill-opacity="1" stroke="#000000" stroke-opacity="1" stroke-width="3.2"/>
<circle clip-path="url(#clip022)" cx="385.455" cy="241.999" r="14.4" fill="#009af9" fill-rule="evenodd" fill-opacity="1" stroke="#000000" stroke-opacity="1" stroke-width="3.2"/>
<circle clip-path="url(#clip022)" cx="416.075" cy="262.435" r="14.4" fill="#009af9" fill-rule="evenodd" fill-opacity="1" stroke="#000000" stroke-opacity="1" stroke-width="3.2"/>
<circle clip-path="url(#clip022)" cx="451.661" cy="282.87" r="14.4" fill="#009af9" fill-rule="evenodd" fill-opacity="1" stroke="#000000" stroke-opacity="1" stroke-width="3.2"/>
<circle clip-path="url(#clip022)" cx="482.281" cy="303.306" r="14.4" fill="#009af9" fill-rule="evenodd" fill-opacity="1" stroke="#000000" stroke-opacity="1" stroke-width="3.2"/>
<circle clip-path="url(#clip022)" cx="517.039" cy="323.742" r="14.4" fill="#009af9" fill-rule="evenodd" fill-opacity="1" stroke="#000000" stroke-opacity="1" stroke-width="3.2"/>
<circle clip-path="url(#clip022)" cx="548.487" cy="344.177" r="14.4" fill="#009af9" fill-rule="evenodd" fill-opacity="1" stroke="#000000" stroke-opacity="1" stroke-width="3.2"/>
<circle clip-path="url(#clip022)" cx="581.591" cy="364.613" r="14.4" fill="#009af9" fill-rule="evenodd" fill-opacity="1" stroke="#000000" stroke-opacity="1" stroke-width="3.2"/>
<circle clip-path="url(#clip022)" cx="733.865" cy="446.355" r="14.4" fill="#009af9" fill-rule="evenodd" fill-opacity="1" stroke="#000000" stroke-opacity="1" stroke-width="3.2"/>
<circle clip-path="url(#clip022)" cx="799.243" cy="487.227" r="14.4" fill="#009af9" fill-rule="evenodd" fill-opacity="1" stroke="#000000" stroke-opacity="1" stroke-width="3.2"/>
<circle clip-path="url(#clip022)" cx="871.243" cy="528.098" r="14.4" fill="#009af9" fill-rule="evenodd" fill-opacity="1" stroke="#000000" stroke-opacity="1" stroke-width="3.2"/>
<circle clip-path="url(#clip022)" cx="949.863" cy="568.969" r="14.4" fill="#009af9" fill-rule="evenodd" fill-opacity="1" stroke="#000000" stroke-opacity="1" stroke-width="3.2"/>
<circle clip-path="url(#clip022)" cx="1014.41" cy="609.841" r="14.4" fill="#009af9" fill-rule="evenodd" fill-opacity="1" stroke="#000000" stroke-opacity="1" stroke-width="3.2"/>
<circle clip-path="url(#clip022)" cx="1110.41" cy="671.148" r="14.4" fill="#009af9" fill-rule="evenodd" fill-opacity="1" stroke="#000000" stroke-opacity="1" stroke-width="3.2"/>
<circle clip-path="url(#clip022)" cx="1292.48" cy="773.326" r="14.4" fill="#009af9" fill-rule="evenodd" fill-opacity="1" stroke="#000000" stroke-opacity="1" stroke-width="3.2"/>
<circle clip-path="url(#clip022)" cx="1474.55" cy="875.504" r="14.4" fill="#009af9" fill-rule="evenodd" fill-opacity="1" stroke="#000000" stroke-opacity="1" stroke-width="3.2"/>
<circle clip-path="url(#clip022)" cx="1616.89" cy="936.811" r="14.4" fill="#009af9" fill-rule="evenodd" fill-opacity="1" stroke="#000000" stroke-opacity="1" stroke-width="3.2"/>
<circle clip-path="url(#clip022)" cx="1753.44" cy="977.683" r="14.4" fill="#009af9" fill-rule="evenodd" fill-opacity="1" stroke="#000000" stroke-opacity="1" stroke-width="3.2"/>
<circle clip-path="url(#clip022)" cx="1835.37" cy="1018.55" r="14.4" fill="#009af9" fill-rule="evenodd" fill-opacity="1" stroke="#000000" stroke-opacity="1" stroke-width="3.2"/>
<circle clip-path="url(#clip022)" cx="1887.51" cy="1059.43" r="14.4" fill="#009af9" fill-rule="evenodd" fill-opacity="1" stroke="#000000" stroke-opacity="1" stroke-width="3.2"/>
<circle clip-path="url(#clip022)" cx="1942.96" cy="1100.3" r="14.4" fill="#009af9" fill-rule="evenodd" fill-opacity="1" stroke="#000000" stroke-opacity="1" stroke-width="3.2"/>
<circle clip-path="url(#clip022)" cx="1994.27" cy="1141.17" r="14.4" fill="#009af9" fill-rule="evenodd" fill-opacity="1" stroke="#000000" stroke-opacity="1" stroke-width="3.2"/>
<circle clip-path="url(#clip022)" cx="2046.4" cy="1182.04" r="14.4" fill="#009af9" fill-rule="evenodd" fill-opacity="1" stroke="#000000" stroke-opacity="1" stroke-width="3.2"/>
<circle clip-path="url(#clip022)" cx="2097.71" cy="1222.91" r="14.4" fill="#009af9" fill-rule="evenodd" fill-opacity="1" stroke="#000000" stroke-opacity="1" stroke-width="3.2"/>
<circle clip-path="url(#clip022)" cx="2134.13" cy="1263.78" r="14.4" fill="#009af9" fill-rule="evenodd" fill-opacity="1" stroke="#000000" stroke-opacity="1" stroke-width="3.2"/>
<circle clip-path="url(#clip022)" cx="2181.3" cy="1304.65" r="14.4" fill="#009af9" fill-rule="evenodd" fill-opacity="1" stroke="#000000" stroke-opacity="1" stroke-width="3.2"/>
<circle clip-path="url(#clip022)" cx="2232.61" cy="1345.52" r="14.4" fill="#009af9" fill-rule="evenodd" fill-opacity="1" stroke="#000000" stroke-opacity="1" stroke-width="3.2"/>
<circle clip-path="url(#clip022)" cx="2293.02" cy="1386.4" r="14.4" fill="#009af9" fill-rule="evenodd" fill-opacity="1" stroke="#000000" stroke-opacity="1" stroke-width="3.2"/>
<polyline clip-path="url(#clip022)" style="stroke:#e26f46; stroke-linecap:round; stroke-linejoin:round; stroke-width:4; stroke-opacity:1; fill:none" points="301.869,195.896 303.862,196.992 305.856,198.088 307.849,199.184 309.842,200.28 311.835,201.376 313.828,202.473 315.821,203.569 317.814,204.666 319.808,205.763 321.801,206.86 323.794,207.957 325.787,209.054 327.78,210.151 329.773,211.249 331.766,212.346 333.76,213.444 335.753,214.541 337.746,215.639 339.739,216.737 341.732,217.835 343.725,218.933 345.718,220.031 347.712,221.129 349.705,222.228 351.698,223.326 353.691,224.425 355.684,225.524 357.677,226.622 359.67,227.721 361.664,228.82 363.657,229.919 365.65,231.019 367.643,232.118 369.636,233.218 371.629,234.317 373.622,235.417 375.616,236.517 377.609,237.616 379.602,238.716 381.595,239.816 383.588,240.917 385.581,242.017 387.574,243.117 389.568,244.218 391.561,245.319 393.554,246.419 395.547,247.52 397.54,248.621 399.533,249.722 401.526,250.823 403.52,251.925 405.513,253.026 407.506,254.127 409.499,255.229 411.492,256.331 413.485,257.433 415.479,258.534 417.472,259.636 419.465,260.739 421.458,261.841 423.451,262.943 425.444,264.046 427.437,265.148 429.431,266.251 431.424,267.354 433.417,268.456 435.41,269.559 437.403,270.662 439.396,271.766 441.389,272.869 443.383,273.972 445.376,275.076 447.369,276.179 449.362,277.283 451.355,278.387 453.348,279.491 455.341,280.595 457.335,281.699 459.328,282.803 461.321,283.908 463.314,285.012 465.307,286.117 467.3,287.221 469.293,288.326 471.287,289.431 473.28,290.536 475.273,291.641 477.266,292.746 479.259,293.852 481.252,294.957 483.245,296.063 485.239,297.168 487.232,298.274 489.225,299.38 491.218,300.486 493.211,301.592 495.204,302.698 497.197,303.804 499.191,304.911 501.184,306.017 503.177,307.124 505.17,308.23 507.163,309.337 509.156,310.444 511.149,311.551 513.143,312.658 515.136,313.765 517.129,314.873 519.122,315.98 521.115,317.088 523.108,318.195 525.101,319.303 527.095,320.411 529.088,321.519 531.081,322.627 533.074,323.735 535.067,324.844 537.06,325.952 539.054,327.061 541.047,328.169 543.04,329.278 545.033,330.387 547.026,331.496 549.019,332.605 551.012,333.714 553.006,334.823 554.999,335.932 556.992,337.042 558.985,338.151 560.978,339.261 562.971,340.371 564.964,341.481 566.958,342.591 568.951,343.701 570.944,344.811 572.937,345.921 574.93,347.032 576.923,348.142 578.916,349.253 580.91,350.364 582.903,351.475 584.896,352.586 586.889,353.697 588.882,354.808 590.875,355.919 592.868,357.03 594.862,358.142 596.855,359.253 598.848,360.365 600.841,361.477 602.834,362.589 604.827,363.701 606.82,364.813 608.814,365.925 610.807,367.038 612.8,368.15 614.793,369.263 616.786,370.375 618.779,371.488 620.772,372.601 622.766,373.714 624.759,374.827 626.752,375.94 628.745,377.053 630.738,378.167 632.731,379.28 634.724,380.394 636.718,381.508 638.711,382.621 640.704,383.735 642.697,384.849 644.69,385.964 646.683,387.078 648.677,388.192 650.67,389.307 652.663,390.421 654.656,391.536 656.649,392.651 658.642,393.766 660.635,394.881 662.629,395.996 664.622,397.111 666.615,398.226 668.608,399.342 670.601,400.457 672.594,401.573 674.587,402.689 676.581,403.804 678.574,404.92 680.567,406.036 682.56,407.153 684.553,408.269 686.546,409.385 688.539,410.502 690.533,411.618 692.526,412.735 694.519,413.852 696.512,414.969 698.505,416.086 700.498,417.203 702.491,418.32 704.485,419.437 706.478,420.555 708.471,421.672 710.464,422.79 712.457,423.908 714.45,425.026 716.443,426.144 718.437,427.262 720.43,428.38 722.423,429.498 724.416,430.617 726.409,431.735 728.402,432.854 730.395,433.972 732.389,435.091 734.382,436.21 736.375,437.329 738.368,438.448 740.361,439.568 742.354,440.687 744.347,441.806 746.341,442.926 748.334,444.046 750.327,445.166 752.32,446.285 754.313,447.405 756.306,448.526 758.299,449.646 760.293,450.766 762.286,451.886 764.279,453.007 766.272,454.128 768.265,455.248 770.258,456.369 772.252,457.49 774.245,458.611 776.238,459.732 778.231,460.854 780.224,461.975 782.217,463.097 784.21,464.218 786.204,465.34 788.197,466.462 790.19,467.584 792.183,468.706 794.176,469.828 796.169,470.95 798.162,472.072 800.156,473.195 802.149,474.317 804.142,475.44 806.135,476.563 808.128,477.686 810.121,478.809 812.114,479.932 814.108,481.055 816.101,482.178 818.094,483.302 820.087,484.425 822.08,485.549 824.073,486.672 826.066,487.796 828.06,488.92 830.053,490.044 832.046,491.168 834.039,492.293 836.032,493.417 838.025,494.541 840.018,495.666 842.012,496.791 844.005,497.915 845.998,499.04 847.991,500.165 849.984,501.29 851.977,502.416 853.97,503.541 855.964,504.666 857.957,505.792 859.95,506.918 861.943,508.043 863.936,509.169 865.929,510.295 867.922,511.421 869.916,512.547 871.909,513.674 873.902,514.8 875.895,515.927 877.888,517.053 879.881,518.18 881.874,519.307 883.868,520.434 885.861,521.561 887.854,522.688 889.847,523.815 891.84,524.942 893.833,526.07 895.827,527.197 897.82,528.325 899.813,529.453 901.806,530.581 903.799,531.709 905.792,532.837 907.785,533.965 909.779,535.093 911.772,536.222 913.765,537.35 915.758,538.479 917.751,539.607 919.744,540.736 921.737,541.865 923.731,542.994 925.724,544.123 927.717,545.253 929.71,546.382 931.703,547.511 933.696,548.641 935.689,549.771 937.683,550.9 939.676,552.03 941.669,553.16 943.662,554.29 945.655,555.421 947.648,556.551 949.641,557.681 951.635,558.812 953.628,559.943 955.621,561.073 957.614,562.204 959.607,563.335 961.6,564.466 963.593,565.597 965.587,566.729 967.58,567.86 969.573,568.992 971.566,570.123 973.559,571.255 975.552,572.387 977.545,573.519 979.539,574.651 981.532,575.783 983.525,576.915 985.518,578.047 987.511,579.18 989.504,580.312 991.497,581.445 993.491,582.578 995.484,583.711 997.477,584.844 999.47,585.977 1001.46,587.11 1003.46,588.243 1005.45,589.377 1007.44,590.51 1009.44,591.644 1011.43,592.777 1013.42,593.911 1015.42,595.045 1017.41,596.179 1019.4,597.313 1021.39,598.448 1023.39,599.582 1025.38,600.717 1027.37,601.851 1029.37,602.986 1031.36,604.121 1033.35,605.255 1035.35,606.39 1037.34,607.526 1039.33,608.661 1041.33,609.796 1043.32,610.932 1045.31,612.067 1047.31,613.203 1049.3,614.338 1051.29,615.474 1053.28,616.61 1055.28,617.746 1057.27,618.883 1059.26,620.019 1061.26,621.155 1063.25,622.292 1065.24,623.428 1067.24,624.565 1069.23,625.702 1071.22,626.839 1073.22,627.976 1075.21,629.113 1077.2,630.25 1079.2,631.387 1081.19,632.525 1083.18,633.662 1085.18,634.8 1087.17,635.938 1089.16,637.076 1091.15,638.214 1093.15,639.352 1095.14,640.49 1097.13,641.628 1099.13,642.767 1101.12,643.905 1103.11,645.044 1105.11,646.183 1107.1,647.321 1109.09,648.46 1111.09,649.599 1113.08,650.739 1115.07,651.878 1117.07,653.017 1119.06,654.157 1121.05,655.296 1123.05,656.436 1125.04,657.576 1127.03,658.716 1129.02,659.856 1131.02,660.996 1133.01,662.136 1135,663.276 1137,664.417 1138.99,665.557 1140.98,666.698 1142.98,667.839 1144.97,668.98 1146.96,670.12 1148.96,671.262 1150.95,672.403 1152.94,673.544 1154.94,674.685 1156.93,675.827 1158.92,676.968 1160.91,678.11 1162.91,679.252 1164.9,680.394 1166.89,681.536 1168.89,682.678 1170.88,683.82 1172.87,684.963 1174.87,686.105 1176.86,687.248 1178.85,688.39 1180.85,689.533 1182.84,690.676 1184.83,691.819 1186.83,692.962 1188.82,694.105 1190.81,695.249 1192.81,696.392 1194.8,697.536 1196.79,698.679 1198.78,699.823 1200.78,700.967 1202.77,702.111 1204.76,703.255 1206.76,704.399 1208.75,705.543 1210.74,706.687 1212.74,707.832 1214.73,708.977 1216.72,710.121 1218.72,711.266 1220.71,712.411 1222.7,713.556 1224.7,714.701 1226.69,715.846 1228.68,716.992 1230.67,718.137 1232.67,719.283 1234.66,720.428 1236.65,721.574 1238.65,722.72 1240.64,723.866 1242.63,725.012 1244.63,726.158 1246.62,727.304 1248.61,728.451 1250.61,729.597 1252.6,730.744 1254.59,731.89 1256.59,733.037 1258.58,734.184 1260.57,735.331 1262.57,736.478 1264.56,737.626 1266.55,738.773 1268.54,739.92 1270.54,741.068 1272.53,742.216 1274.52,743.363 1276.52,744.511 1278.51,745.659 1280.5,746.807 1282.5,747.956 1284.49,749.104 1286.48,750.252 1288.48,751.401 1290.47,752.549 1292.46,753.698 1294.46,754.847 1296.45,755.996 1298.44,757.145 1300.44,758.294 1302.43,759.443 1304.42,760.593 1306.41,761.742 1308.41,762.892 1310.4,764.042 1312.39,765.191 1314.39,766.341 1316.38,767.491 1318.37,768.641 1320.37,769.792 1322.36,770.942 1324.35,772.092 1326.35,773.243 1328.34,774.394 1330.33,775.544 1332.33,776.695 1334.32,777.846 1336.31,778.997 1338.3,780.148 1340.3,781.3 1342.29,782.451 1344.28,783.603 1346.28,784.754 1348.27,785.906 1350.26,787.058 1352.26,788.21 1354.25,789.362 1356.24,790.514 1358.24,791.666 1360.23,792.818 1362.22,793.971 1364.22,795.123 1366.21,796.276 1368.2,797.429 1370.2,798.582 1372.19,799.735 1374.18,800.888 1376.17,802.041 1378.17,803.194 1380.16,804.348 1382.15,805.501 1384.15,806.655 1386.14,807.809 1388.13,808.962 1390.13,810.116 1392.12,811.27 1394.11,812.425 1396.11,813.579 1398.1,814.733 1400.09,815.888 1402.09,817.042 1404.08,818.197 1406.07,819.352 1408.06,820.507 1410.06,821.662 1412.05,822.817 1414.04,823.972 1416.04,825.127 1418.03,826.283 1420.02,827.438 1422.02,828.594 1424.01,829.75 1426,830.906 1428,832.061 1429.99,833.218 1431.98,834.374 1433.98,835.53 1435.97,836.686 1437.96,837.843 1439.96,839 1441.95,840.156 1443.94,841.313 1445.93,842.47 1447.93,843.627 1449.92,844.784 1451.91,845.941 1453.91,847.099 1455.9,848.256 1457.89,849.414 1459.89,850.571 1461.88,851.729 1463.87,852.887 1465.87,854.045 1467.86,855.203 1469.85,856.361 1471.85,857.52 1473.84,858.678 1475.83,859.837 1477.82,860.995 1479.82,862.154 1481.81,863.313 1483.8,864.472 1485.8,865.631 1487.79,866.79 1489.78,867.949 1491.78,869.109 1493.77,870.268 1495.76,871.428 1497.76,872.587 1499.75,873.747 1501.74,874.907 1503.74,876.067 1505.73,877.227 1507.72,878.387 1509.72,879.548 1511.71,880.708 1513.7,881.869 1515.69,883.029 1517.69,884.19 1519.68,885.351 1521.67,886.512 1523.67,887.673 1525.66,888.834 1527.65,889.996 1529.65,891.157 1531.64,892.318 1533.63,893.48 1535.63,894.642 1537.62,895.804 1539.61,896.965 1541.61,898.128 1543.6,899.29 1545.59,900.452 1547.59,901.614 1549.58,902.777 1551.57,903.939 1553.56,905.102 1555.56,906.265 1557.55,907.428 1559.54,908.591 1561.54,909.754 1563.53,910.917 1565.52,912.08 1567.52,913.244 1569.51,914.407 1571.5,915.571 1573.5,916.735 1575.49,917.898 1577.48,919.062 1579.48,920.226 1581.47,921.391 1583.46,922.555 1585.45,923.719 1587.45,924.884 1589.44,926.048 1591.43,927.213 1593.43,928.378 1595.42,929.543 1597.41,930.708 1599.41,931.873 1601.4,933.038 1603.39,934.203 1605.39,935.369 1607.38,936.534 1609.37,937.7 1611.37,938.866 1613.36,940.032 1615.35,941.198 1617.35,942.364 1619.34,943.53 1621.33,944.696 1623.32,945.862 1625.32,947.029 1627.31,948.196 1629.3,949.362 1631.3,950.529 1633.29,951.696 1635.28,952.863 1637.28,954.03 1639.27,955.197 1641.26,956.365 1643.26,957.532 1645.25,958.7 1647.24,959.868 1649.24,961.035 1651.23,962.203 1653.22,963.371 1655.21,964.539 1657.21,965.708 1659.2,966.876 1661.19,968.044 1663.19,969.213 1665.18,970.381 1667.17,971.55 1669.17,972.719 1671.16,973.888 1673.15,975.057 1675.15,976.226 1677.14,977.395 1679.13,978.565 1681.13,979.734 1683.12,980.904 1685.11,982.074 1687.11,983.243 1689.1,984.413 1691.09,985.583 1693.08,986.753 1695.08,987.924 1697.07,989.094 1699.06,990.264 1701.06,991.435 1703.05,992.606 1705.04,993.776 1707.04,994.947 1709.03,996.118 1711.02,997.289 1713.02,998.46 1715.01,999.632 1717,1000.8 1719,1001.97 1720.99,1003.15 1722.98,1004.32 1724.97,1005.49 1726.97,1006.66 1728.96,1007.83 1730.95,1009.01 1732.95,1010.18 1734.94,1011.35 1736.93,1012.52 1738.93,1013.7 1740.92,1014.87 1742.91,1016.04 1744.91,1017.21 1746.9,1018.39 1748.89,1019.56 1750.89,1020.73 1752.88,1021.91 1754.87,1023.08 1756.87,1024.25 1758.86,1025.43 1760.85,1026.6 1762.84,1027.77 1764.84,1028.95 1766.83,1030.12 1768.82,1031.3 1770.82,1032.47 1772.81,1033.65 1774.8,1034.82 1776.8,1035.99 1778.79,1037.17 1780.78,1038.34 1782.78,1039.52 1784.77,1040.69 1786.76,1041.87 1788.76,1043.04 1790.75,1044.22 1792.74,1045.4 1794.74,1046.57 1796.73,1047.75 1798.72,1048.92 1800.71,1050.1 1802.71,1051.27 1804.7,1052.45 1806.69,1053.63 1808.69,1054.8 1810.68,1055.98 1812.67,1057.16 1814.67,1058.33 1816.66,1059.51 1818.65,1060.69 1820.65,1061.86 1822.64,1063.04 1824.63,1064.22 1826.63,1065.39 1828.62,1066.57 1830.61,1067.75 1832.6,1068.93 1834.6,1070.1 1836.59,1071.28 1838.58,1072.46 1840.58,1073.64 1842.57,1074.82 1844.56,1075.99 1846.56,1077.17 1848.55,1078.35 1850.54,1079.53 1852.54,1080.71 1854.53,1081.89 1856.52,1083.07 1858.52,1084.24 1860.51,1085.42 1862.5,1086.6 1864.5,1087.78 1866.49,1088.96 1868.48,1090.14 1870.47,1091.32 1872.47,1092.5 1874.46,1093.68 1876.45,1094.86 1878.45,1096.04 1880.44,1097.22 1882.43,1098.4 1884.43,1099.58 1886.42,1100.76 1888.41,1101.94 1890.41,1103.12 1892.4,1104.3 1894.39,1105.48 1896.39,1106.66 1898.38,1107.85 1900.37,1109.03 1902.36,1110.21 1904.36,1111.39 1906.35,1112.57 1908.34,1113.75 1910.34,1114.93 1912.33,1116.12 1914.32,1117.3 1916.32,1118.48 1918.31,1119.66 1920.3,1120.84 1922.3,1122.03 1924.29,1123.21 1926.28,1124.39 1928.28,1125.57 1930.27,1126.76 1932.26,1127.94 1934.26,1129.12 1936.25,1130.31 1938.24,1131.49 1940.23,1132.67 1942.23,1133.86 1944.22,1135.04 1946.21,1136.22 1948.21,1137.41 1950.2,1138.59 1952.19,1139.78 1954.19,1140.96 1956.18,1142.14 1958.17,1143.33 1960.17,1144.51 1962.16,1145.7 1964.15,1146.88 1966.15,1148.07 1968.14,1149.25 1970.13,1150.44 1972.12,1151.62 1974.12,1152.81 1976.11,1153.99 1978.1,1155.18 1980.1,1156.36 1982.09,1157.55 1984.08,1158.73 1986.08,1159.92 1988.07,1161.1 1990.06,1162.29 1992.06,1163.48 1994.05,1164.66 1996.04,1165.85 1998.04,1167.04 2000.03,1168.22 2002.02,1169.41 2004.02,1170.6 2006.01,1171.78 2008,1172.97 2009.99,1174.16 2011.99,1175.34 2013.98,1176.53 2015.97,1177.72 2017.97,1178.91 2019.96,1180.09 2021.95,1181.28 2023.95,1182.47 2025.94,1183.66 2027.93,1184.84 2029.93,1186.03 2031.92,1187.22 2033.91,1188.41 2035.91,1189.6 2037.9,1190.79 2039.89,1191.97 2041.89,1193.16 2043.88,1194.35 2045.87,1195.54 2047.86,1196.73 2049.86,1197.92 2051.85,1199.11 2053.84,1200.3 2055.84,1201.49 2057.83,1202.68 2059.82,1203.87 2061.82,1205.06 2063.81,1206.25 2065.8,1207.44 2067.8,1208.63 2069.79,1209.82 2071.78,1211.01 2073.78,1212.2 2075.77,1213.39 2077.76,1214.58 2079.75,1215.77 2081.75,1216.96 2083.74,1218.15 2085.73,1219.34 2087.73,1220.53 2089.72,1221.73 2091.71,1222.92 2093.71,1224.11 2095.7,1225.3 2097.69,1226.49 2099.69,1227.68 2101.68,1228.88 2103.67,1230.07 2105.67,1231.26 2107.66,1232.45 2109.65,1233.64 2111.65,1234.84 2113.64,1236.03 2115.63,1237.22 2117.62,1238.41 2119.62,1239.61 2121.61,1240.8 2123.6,1241.99 2125.6,1243.19 2127.59,1244.38 2129.58,1245.57 2131.58,1246.77 2133.57,1247.96 2135.56,1249.15 2137.56,1250.35 2139.55,1251.54 2141.54,1252.74 2143.54,1253.93 2145.53,1255.12 2147.52,1256.32 2149.51,1257.51 2151.51,1258.71 2153.5,1259.9 2155.49,1261.1 2157.49,1262.29 2159.48,1263.49 2161.47,1264.68 2163.47,1265.88 2165.46,1267.07 2167.45,1268.27 2169.45,1269.46 2171.44,1270.66 2173.43,1271.86 2175.43,1273.05 2177.42,1274.25 2179.41,1275.44 2181.41,1276.64 2183.4,1277.84 2185.39,1279.03 2187.38,1280.23 2189.38,1281.43 2191.37,1282.62 2193.36,1283.82 2195.36,1285.02 2197.35,1286.21 2199.34,1287.41 2201.34,1288.61 2203.33,1289.8 2205.32,1291 2207.32,1292.2 2209.31,1293.4 2211.3,1294.6 2213.3,1295.79 2215.29,1296.99 2217.28,1298.19 2219.27,1299.39 2221.27,1300.59 2223.26,1301.78 2225.25,1302.98 2227.25,1304.18 2229.24,1305.38 2231.23,1306.58 2233.23,1307.78 2235.22,1308.98 2237.21,1310.18 2239.21,1311.38 2241.2,1312.58 2243.19,1313.77 2245.19,1314.97 2247.18,1316.17 2249.17,1317.37 2251.17,1318.57 2253.16,1319.77 2255.15,1320.97 2257.14,1322.17 2259.14,1323.37 2261.13,1324.57 2263.12,1325.78 2265.12,1326.98 2267.11,1328.18 2269.1,1329.38 2271.1,1330.58 2273.09,1331.78 2275.08,1332.98 2277.08,1334.18 2279.07,1335.38 2281.06,1336.59 2283.06,1337.79 2285.05,1338.99 2287.04,1340.19 2289.04,1341.39 2291.03,1342.59 2293.02,1343.8 "/>
<path clip-path="url(#clip020)" d="M1438.98 322.316 L2282.4 322.316 L2282.4 166.796 L1438.98 166.796  Z" fill="#ffffff" fill-rule="evenodd" fill-opacity="1"/>
<polyline clip-path="url(#clip020)" style="stroke:#000000; stroke-linecap:round; stroke-linejoin:round; stroke-width:4; stroke-opacity:1; fill:none" points="1438.98,322.316 2282.4,322.316 2282.4,166.796 1438.98,166.796 1438.98,322.316 "/>
<circle clip-path="url(#clip020)" cx="1532.79" cy="218.636" r="23.04" fill="#009af9" fill-rule="evenodd" fill-opacity="1" stroke="#000000" stroke-opacity="1" stroke-width="5.12"/>
<path clip-path="url(#clip020)" d="M1645.5 213.925 L1645.5 199.897 L1649.76 199.897 L1649.76 235.916 L1645.5 235.916 L1645.5 232.027 Q1644.16 234.342 1642.1 235.476 Q1640.06 236.587 1637.19 236.587 Q1632.5 236.587 1629.53 232.837 Q1626.59 229.087 1626.59 222.976 Q1626.59 216.865 1629.53 213.115 Q1632.5 209.365 1637.19 209.365 Q1640.06 209.365 1642.1 210.499 Q1644.16 211.61 1645.5 213.925 M1630.99 222.976 Q1630.99 227.675 1632.91 230.36 Q1634.86 233.022 1638.24 233.022 Q1641.62 233.022 1643.56 230.36 Q1645.5 227.675 1645.5 222.976 Q1645.5 218.277 1643.56 215.615 Q1641.62 212.93 1638.24 212.93 Q1634.86 212.93 1632.91 215.615 Q1630.99 218.277 1630.99 222.976 Z" fill="#000000" fill-rule="evenodd" fill-opacity="1" /><path clip-path="url(#clip020)" d="M1677.15 222.976 Q1677.15 218.277 1675.2 215.615 Q1673.28 212.93 1669.9 212.93 Q1666.52 212.93 1664.58 215.615 Q1662.66 218.277 1662.66 222.976 Q1662.66 227.675 1664.58 230.36 Q1666.52 233.022 1669.9 233.022 Q1673.28 233.022 1675.2 230.36 Q1677.15 227.675 1677.15 222.976 M1662.66 213.925 Q1664 211.61 1666.04 210.499 Q1668.1 209.365 1670.94 209.365 Q1675.67 209.365 1678.61 213.115 Q1681.57 216.865 1681.57 222.976 Q1681.57 229.087 1678.61 232.837 Q1675.67 236.587 1670.94 236.587 Q1668.1 236.587 1666.04 235.476 Q1664 234.342 1662.66 232.027 L1662.66 235.916 L1658.38 235.916 L1658.38 199.897 L1662.66 199.897 L1662.66 213.925 Z" fill="#000000" fill-rule="evenodd" fill-opacity="1" /><path clip-path="url(#clip020)" d="M1708.81 214.967 Q1710.41 212.096 1712.63 210.731 Q1714.86 209.365 1717.87 209.365 Q1721.92 209.365 1724.12 212.212 Q1726.31 215.036 1726.31 220.268 L1726.31 235.916 L1722.03 235.916 L1722.03 220.407 Q1722.03 216.68 1720.71 214.874 Q1719.39 213.069 1716.68 213.069 Q1713.37 213.069 1711.45 215.268 Q1709.53 217.467 1709.53 221.263 L1709.53 235.916 L1705.25 235.916 L1705.25 220.407 Q1705.25 216.657 1703.93 214.874 Q1702.61 213.069 1699.86 213.069 Q1696.59 213.069 1694.67 215.291 Q1692.75 217.49 1692.75 221.263 L1692.75 235.916 L1688.47 235.916 L1688.47 209.99 L1692.75 209.99 L1692.75 214.018 Q1694.21 211.633 1696.25 210.499 Q1698.28 209.365 1701.08 209.365 Q1703.91 209.365 1705.87 210.8 Q1707.87 212.235 1708.81 214.967 Z" fill="#000000" fill-rule="evenodd" fill-opacity="1" /><path clip-path="url(#clip020)" d="M1735.9 230.036 L1740.78 230.036 L1740.78 234.018 L1736.99 241.425 L1734 241.425 L1735.9 234.018 L1735.9 230.036 Z" fill="#000000" fill-rule="evenodd" fill-opacity="1" /><path clip-path="url(#clip020)" d="M1776.68 205.962 L1770.34 223.161 L1783.05 223.161 L1776.68 205.962 M1774.05 201.356 L1779.35 201.356 L1792.52 235.916 L1787.66 235.916 L1784.51 227.05 L1768.93 227.05 L1765.78 235.916 L1760.85 235.916 L1774.05 201.356 Z" fill="#000000" fill-rule="evenodd" fill-opacity="1" /><path clip-path="url(#clip020)" d="M1802.24 205.198 L1802.24 232.073 L1807.89 232.073 Q1815.04 232.073 1818.35 228.832 Q1821.68 225.592 1821.68 218.601 Q1821.68 211.657 1818.35 208.439 Q1815.04 205.198 1807.89 205.198 L1802.24 205.198 M1797.56 201.356 L1807.17 201.356 Q1817.22 201.356 1821.92 205.546 Q1826.61 209.712 1826.61 218.601 Q1826.61 227.536 1821.89 231.726 Q1817.17 235.916 1807.17 235.916 L1797.56 235.916 L1797.56 201.356 Z" fill="#000000" fill-rule="evenodd" fill-opacity="1" /><path clip-path="url(#clip020)" d="M1859.95 204.018 L1859.95 208.948 Q1857.59 206.749 1854.9 205.661 Q1852.24 204.573 1849.23 204.573 Q1843.3 204.573 1840.16 208.208 Q1837.01 211.819 1837.01 218.67 Q1837.01 225.499 1840.16 229.133 Q1843.3 232.744 1849.23 232.744 Q1852.24 232.744 1854.9 231.656 Q1857.59 230.569 1859.95 228.369 L1859.95 233.254 Q1857.49 234.92 1854.74 235.754 Q1852.01 236.587 1848.95 236.587 Q1841.11 236.587 1836.59 231.795 Q1832.08 226.981 1832.08 218.67 Q1832.08 210.337 1836.59 205.546 Q1841.11 200.731 1848.95 200.731 Q1852.05 200.731 1854.79 201.564 Q1857.54 202.374 1859.95 204.018 Z" fill="#000000" fill-rule="evenodd" fill-opacity="1" /><path clip-path="url(#clip020)" d="M1886.17 232.027 L1886.17 245.777 L1881.89 245.777 L1881.89 209.99 L1886.17 209.99 L1886.17 213.925 Q1887.52 211.61 1889.55 210.499 Q1891.61 209.365 1894.46 209.365 Q1899.18 209.365 1902.12 213.115 Q1905.09 216.865 1905.09 222.976 Q1905.09 229.087 1902.12 232.837 Q1899.18 236.587 1894.46 236.587 Q1891.61 236.587 1889.55 235.476 Q1887.52 234.342 1886.17 232.027 M1900.67 222.976 Q1900.67 218.277 1898.72 215.615 Q1896.8 212.93 1893.42 212.93 Q1890.04 212.93 1888.1 215.615 Q1886.17 218.277 1886.17 222.976 Q1886.17 227.675 1888.1 230.36 Q1890.04 233.022 1893.42 233.022 Q1896.8 233.022 1898.72 230.36 Q1900.67 227.675 1900.67 222.976 Z" fill="#000000" fill-rule="evenodd" fill-opacity="1" /><path clip-path="url(#clip020)" d="M1923.93 222.883 Q1918.77 222.883 1916.78 224.064 Q1914.79 225.244 1914.79 228.092 Q1914.79 230.36 1916.27 231.703 Q1917.77 233.022 1920.34 233.022 Q1923.88 233.022 1926.01 230.522 Q1928.17 227.999 1928.17 223.832 L1928.17 222.883 L1923.93 222.883 M1932.42 221.124 L1932.42 235.916 L1928.17 235.916 L1928.17 231.981 Q1926.71 234.342 1924.53 235.476 Q1922.36 236.587 1919.21 236.587 Q1915.23 236.587 1912.86 234.365 Q1910.53 232.119 1910.53 228.369 Q1910.53 223.994 1913.44 221.772 Q1916.38 219.55 1922.19 219.55 L1928.17 219.55 L1928.17 219.133 Q1928.17 216.194 1926.22 214.596 Q1924.3 212.976 1920.8 212.976 Q1918.58 212.976 1916.48 213.508 Q1914.37 214.041 1912.42 215.106 L1912.42 211.17 Q1914.76 210.268 1916.96 209.828 Q1919.16 209.365 1921.24 209.365 Q1926.87 209.365 1929.65 212.282 Q1932.42 215.198 1932.42 221.124 Z" fill="#000000" fill-rule="evenodd" fill-opacity="1" /><path clip-path="url(#clip020)" d="M1941.2 209.99 L1945.46 209.99 L1945.46 235.916 L1941.2 235.916 L1941.2 209.99 M1941.2 199.897 L1945.46 199.897 L1945.46 205.291 L1941.2 205.291 L1941.2 199.897 Z" fill="#000000" fill-rule="evenodd" fill-opacity="1" /><path clip-path="url(#clip020)" d="M1969.39 213.971 Q1968.67 213.555 1967.82 213.37 Q1966.98 213.161 1965.97 213.161 Q1962.35 213.161 1960.41 215.522 Q1958.49 217.86 1958.49 222.258 L1958.49 235.916 L1954.21 235.916 L1954.21 209.99 L1958.49 209.99 L1958.49 214.018 Q1959.83 211.657 1961.98 210.522 Q1964.14 209.365 1967.22 209.365 Q1967.66 209.365 1968.19 209.434 Q1968.72 209.481 1969.37 209.596 L1969.39 213.971 Z" fill="#000000" fill-rule="evenodd" fill-opacity="1" /><path clip-path="url(#clip020)" d="M1990.39 210.754 L1990.39 214.782 Q1988.58 213.856 1986.64 213.393 Q1984.69 212.93 1982.61 212.93 Q1979.44 212.93 1977.84 213.902 Q1976.27 214.874 1976.27 216.819 Q1976.27 218.3 1977.4 219.157 Q1978.54 219.99 1981.96 220.754 L1983.42 221.078 Q1987.96 222.05 1989.85 223.832 Q1991.78 225.592 1991.78 228.763 Q1991.78 232.374 1988.91 234.481 Q1986.06 236.587 1981.06 236.587 Q1978.98 236.587 1976.71 236.17 Q1974.46 235.777 1971.96 234.967 L1971.96 230.569 Q1974.32 231.795 1976.61 232.42 Q1978.91 233.022 1981.15 233.022 Q1984.16 233.022 1985.78 232.004 Q1987.4 230.962 1987.4 229.087 Q1987.4 227.351 1986.22 226.425 Q1985.06 225.499 1981.1 224.643 L1979.62 224.295 Q1975.66 223.462 1973.91 221.749 Q1972.15 220.013 1972.15 217.004 Q1972.15 213.346 1974.74 211.356 Q1977.33 209.365 1982.1 209.365 Q1984.46 209.365 1986.54 209.712 Q1988.63 210.059 1990.39 210.754 Z" fill="#000000" fill-rule="evenodd" fill-opacity="1" /><polyline clip-path="url(#clip020)" style="stroke:#e26f46; stroke-linecap:round; stroke-linejoin:round; stroke-width:4; stroke-opacity:1; fill:none" points="1462.43,270.476 1603.14,270.476 "/>
<path clip-path="url(#clip020)" d="M1643.1 251.737 L1643.1 255.279 L1639.02 255.279 Q1636.73 255.279 1635.83 256.205 Q1634.95 257.131 1634.95 259.538 L1634.95 261.83 L1641.96 261.83 L1641.96 265.14 L1634.95 265.14 L1634.95 287.756 L1630.67 287.756 L1630.67 265.14 L1626.59 265.14 L1626.59 261.83 L1630.67 261.83 L1630.67 260.024 Q1630.67 255.696 1632.68 253.728 Q1634.69 251.737 1639.07 251.737 L1643.1 251.737 Z" fill="#000000" fill-rule="evenodd" fill-opacity="1" /><path clip-path="url(#clip020)" d="M1646.66 261.83 L1650.92 261.83 L1650.92 287.756 L1646.66 287.756 L1646.66 261.83 M1646.66 251.737 L1650.92 251.737 L1650.92 257.131 L1646.66 257.131 L1646.66 251.737 Z" fill="#000000" fill-rule="evenodd" fill-opacity="1" /><path clip-path="url(#clip020)" d="M1664.05 254.469 L1664.05 261.83 L1672.82 261.83 L1672.82 265.14 L1664.05 265.14 L1664.05 279.214 Q1664.05 282.385 1664.9 283.288 Q1665.78 284.191 1668.44 284.191 L1672.82 284.191 L1672.82 287.756 L1668.44 287.756 Q1663.51 287.756 1661.64 285.927 Q1659.76 284.075 1659.76 279.214 L1659.76 265.14 L1656.64 265.14 L1656.64 261.83 L1659.76 261.83 L1659.76 254.469 L1664.05 254.469 Z" fill="#000000" fill-rule="evenodd" fill-opacity="1" /><path clip-path="url(#clip020)" d="M1706.62 251.737 L1706.62 255.279 L1702.54 255.279 Q1700.25 255.279 1699.35 256.205 Q1698.47 257.131 1698.47 259.538 L1698.47 261.83 L1705.48 261.83 L1705.48 265.14 L1698.47 265.14 L1698.47 287.756 L1694.19 287.756 L1694.19 265.14 L1690.11 265.14 L1690.11 261.83 L1694.19 261.83 L1694.19 260.024 Q1694.19 255.696 1696.2 253.728 Q1698.21 251.737 1702.59 251.737 L1706.62 251.737 Z" fill="#000000" fill-rule="evenodd" fill-opacity="1" /><path clip-path="url(#clip020)" d="M1709.74 277.524 L1709.74 261.83 L1714 261.83 L1714 277.362 Q1714 281.043 1715.43 282.895 Q1716.87 284.723 1719.74 284.723 Q1723.19 284.723 1725.18 282.524 Q1727.19 280.325 1727.19 276.529 L1727.19 261.83 L1731.45 261.83 L1731.45 287.756 L1727.19 287.756 L1727.19 283.774 Q1725.64 286.135 1723.58 287.293 Q1721.55 288.427 1718.84 288.427 Q1714.37 288.427 1712.06 285.649 Q1709.74 282.871 1709.74 277.524 M1720.46 261.205 L1720.46 261.205 Z" fill="#000000" fill-rule="evenodd" fill-opacity="1" /><path clip-path="url(#clip020)" d="M1761.78 272.108 L1761.78 287.756 L1757.52 287.756 L1757.52 272.247 Q1757.52 268.566 1756.08 266.737 Q1754.65 264.909 1751.78 264.909 Q1748.33 264.909 1746.34 267.108 Q1744.35 269.307 1744.35 273.103 L1744.35 287.756 L1740.06 287.756 L1740.06 261.83 L1744.35 261.83 L1744.35 265.858 Q1745.87 263.52 1747.93 262.362 Q1750.02 261.205 1752.73 261.205 Q1757.19 261.205 1759.49 263.983 Q1761.78 266.737 1761.78 272.108 Z" fill="#000000" fill-rule="evenodd" fill-opacity="1" /><path clip-path="url(#clip020)" d="M1788.93 262.825 L1788.93 266.807 Q1787.12 265.811 1785.3 265.325 Q1783.49 264.816 1781.64 264.816 Q1777.49 264.816 1775.2 267.455 Q1772.91 270.071 1772.91 274.816 Q1772.91 279.561 1775.2 282.2 Q1777.49 284.816 1781.64 284.816 Q1783.49 284.816 1785.3 284.33 Q1787.12 283.821 1788.93 282.825 L1788.93 286.76 Q1787.15 287.594 1785.23 288.01 Q1783.33 288.427 1781.18 288.427 Q1775.32 288.427 1771.87 284.746 Q1768.42 281.066 1768.42 274.816 Q1768.42 268.473 1771.89 264.839 Q1775.39 261.205 1781.45 261.205 Q1783.42 261.205 1785.3 261.622 Q1787.17 262.015 1788.93 262.825 Z" fill="#000000" fill-rule="evenodd" fill-opacity="1" /><path clip-path="url(#clip020)" d="M1800.55 254.469 L1800.55 261.83 L1809.32 261.83 L1809.32 265.14 L1800.55 265.14 L1800.55 279.214 Q1800.55 282.385 1801.41 283.288 Q1802.29 284.191 1804.95 284.191 L1809.32 284.191 L1809.32 287.756 L1804.95 287.756 Q1800.02 287.756 1798.14 285.927 Q1796.27 284.075 1796.27 279.214 L1796.27 265.14 L1793.14 265.14 L1793.14 261.83 L1796.27 261.83 L1796.27 254.469 L1800.55 254.469 Z" fill="#000000" fill-rule="evenodd" fill-opacity="1" /><path clip-path="url(#clip020)" d="M1814.93 261.83 L1819.18 261.83 L1819.18 287.756 L1814.93 287.756 L1814.93 261.83 M1814.93 251.737 L1819.18 251.737 L1819.18 257.131 L1814.93 257.131 L1814.93 251.737 Z" fill="#000000" fill-rule="evenodd" fill-opacity="1" /><path clip-path="url(#clip020)" d="M1838.14 264.816 Q1834.72 264.816 1832.73 267.501 Q1830.74 270.163 1830.74 274.816 Q1830.74 279.469 1832.7 282.154 Q1834.69 284.816 1838.14 284.816 Q1841.55 284.816 1843.54 282.131 Q1845.53 279.446 1845.53 274.816 Q1845.53 270.21 1843.54 267.524 Q1841.55 264.816 1838.14 264.816 M1838.14 261.205 Q1843.7 261.205 1846.87 264.816 Q1850.04 268.427 1850.04 274.816 Q1850.04 281.182 1846.87 284.816 Q1843.7 288.427 1838.14 288.427 Q1832.56 288.427 1829.39 284.816 Q1826.24 281.182 1826.24 274.816 Q1826.24 268.427 1829.39 264.816 Q1832.56 261.205 1838.14 261.205 Z" fill="#000000" fill-rule="evenodd" fill-opacity="1" /><path clip-path="url(#clip020)" d="M1878.65 272.108 L1878.65 287.756 L1874.39 287.756 L1874.39 272.247 Q1874.39 268.566 1872.96 266.737 Q1871.52 264.909 1868.65 264.909 Q1865.2 264.909 1863.21 267.108 Q1861.22 269.307 1861.22 273.103 L1861.22 287.756 L1856.94 287.756 L1856.94 261.83 L1861.22 261.83 L1861.22 265.858 Q1862.75 263.52 1864.81 262.362 Q1866.89 261.205 1869.6 261.205 Q1874.07 261.205 1876.36 263.983 Q1878.65 266.737 1878.65 272.108 Z" fill="#000000" fill-rule="evenodd" fill-opacity="1" /><path clip-path="url(#clip020)" d="M1888.23 281.876 L1893.12 281.876 L1893.12 285.858 L1889.32 293.265 L1886.34 293.265 L1888.23 285.858 L1888.23 281.876 Z" fill="#000000" fill-rule="evenodd" fill-opacity="1" /><path clip-path="url(#clip020)" d="M1939.46 273.728 L1939.46 275.811 L1919.88 275.811 Q1920.16 280.209 1922.52 282.524 Q1924.9 284.816 1929.14 284.816 Q1931.59 284.816 1933.88 284.214 Q1936.2 283.612 1938.47 282.409 L1938.47 286.436 Q1936.17 287.408 1933.77 287.918 Q1931.36 288.427 1928.88 288.427 Q1922.68 288.427 1919.04 284.816 Q1915.43 281.205 1915.43 275.047 Q1915.43 268.682 1918.86 264.955 Q1922.31 261.205 1928.14 261.205 Q1933.37 261.205 1936.41 264.585 Q1939.46 267.941 1939.46 273.728 M1935.2 272.478 Q1935.16 268.983 1933.23 266.899 Q1931.34 264.816 1928.19 264.816 Q1924.62 264.816 1922.47 266.83 Q1920.34 268.844 1920.02 272.501 L1935.2 272.478 Z" fill="#000000" fill-rule="evenodd" fill-opacity="1" /><path clip-path="url(#clip020)" d="M1961.48 265.811 Q1960.76 265.395 1959.9 265.21 Q1959.07 265.001 1958.05 265.001 Q1954.44 265.001 1952.49 267.362 Q1950.57 269.7 1950.57 274.098 L1950.57 287.756 L1946.29 287.756 L1946.29 261.83 L1950.57 261.83 L1950.57 265.858 Q1951.92 263.497 1954.07 262.362 Q1956.22 261.205 1959.3 261.205 Q1959.74 261.205 1960.27 261.274 Q1960.8 261.321 1961.45 261.436 L1961.48 265.811 Z" fill="#000000" fill-rule="evenodd" fill-opacity="1" /><path clip-path="url(#clip020)" d="M1980.13 265.811 Q1979.41 265.395 1978.56 265.21 Q1977.73 265.001 1976.71 265.001 Q1973.1 265.001 1971.15 267.362 Q1969.23 269.7 1969.23 274.098 L1969.23 287.756 L1964.95 287.756 L1964.95 261.83 L1969.23 261.83 L1969.23 265.858 Q1970.57 263.497 1972.73 262.362 Q1974.88 261.205 1977.96 261.205 Q1978.4 261.205 1978.93 261.274 Q1979.46 261.321 1980.11 261.436 L1980.13 265.811 Z" fill="#000000" fill-rule="evenodd" fill-opacity="1" /><path clip-path="url(#clip020)" d="M1993.6 264.816 Q1990.18 264.816 1988.19 267.501 Q1986.2 270.163 1986.2 274.816 Q1986.2 279.469 1988.16 282.154 Q1990.16 284.816 1993.6 284.816 Q1997.01 284.816 1999 282.131 Q2000.99 279.446 2000.99 274.816 Q2000.99 270.21 1999 267.524 Q1997.01 264.816 1993.6 264.816 M1993.6 261.205 Q1999.16 261.205 2002.33 264.816 Q2005.5 268.427 2005.5 274.816 Q2005.5 281.182 2002.33 284.816 Q1999.16 288.427 1993.6 288.427 Q1988.03 288.427 1984.85 284.816 Q1981.71 281.182 1981.71 274.816 Q1981.71 268.427 1984.85 264.816 Q1988.03 261.205 1993.6 261.205 Z" fill="#000000" fill-rule="evenodd" fill-opacity="1" /><path clip-path="url(#clip020)" d="M2027.59 265.811 Q2026.87 265.395 2026.01 265.21 Q2025.18 265.001 2024.16 265.001 Q2020.55 265.001 2018.6 267.362 Q2016.68 269.7 2016.68 274.098 L2016.68 287.756 L2012.4 287.756 L2012.4 261.83 L2016.68 261.83 L2016.68 265.858 Q2018.03 263.497 2020.18 262.362 Q2022.33 261.205 2025.41 261.205 Q2025.85 261.205 2026.38 261.274 Q2026.91 261.321 2027.56 261.436 L2027.59 265.811 Z" fill="#000000" fill-rule="evenodd" fill-opacity="1" /><path clip-path="url(#clip020)" d="M2047.68 266.228 L2077.35 266.228 L2077.35 270.117 L2047.68 270.117 L2047.68 266.228 M2047.68 275.672 L2077.35 275.672 L2077.35 279.608 L2047.68 279.608 L2047.68 275.672 Z" fill="#000000" fill-rule="evenodd" fill-opacity="1" /><path clip-path="url(#clip020)" d="M2115.36 257.27 L2103.56 275.719 L2115.36 275.719 L2115.36 257.27 M2114.14 253.196 L2120.02 253.196 L2120.02 275.719 L2124.95 275.719 L2124.95 279.608 L2120.02 279.608 L2120.02 287.756 L2115.36 287.756 L2115.36 279.608 L2099.76 279.608 L2099.76 275.094 L2114.14 253.196 Z" fill="#000000" fill-rule="evenodd" fill-opacity="1" /><path clip-path="url(#clip020)" d="M2133.49 283.821 L2141.13 283.821 L2141.13 257.455 L2132.82 259.122 L2132.82 254.862 L2141.08 253.196 L2145.76 253.196 L2145.76 283.821 L2153.4 283.821 L2153.4 287.756 L2133.49 287.756 L2133.49 283.821 Z" fill="#000000" fill-rule="evenodd" fill-opacity="1" /><path clip-path="url(#clip020)" d="M2162.84 281.876 L2167.72 281.876 L2167.72 287.756 L2162.84 287.756 L2162.84 281.876 Z" fill="#000000" fill-rule="evenodd" fill-opacity="1" /><path clip-path="url(#clip020)" d="M2190.76 257.27 L2178.95 275.719 L2190.76 275.719 L2190.76 257.27 M2189.53 253.196 L2195.41 253.196 L2195.41 275.719 L2200.34 275.719 L2200.34 279.608 L2195.41 279.608 L2195.41 287.756 L2190.76 287.756 L2190.76 279.608 L2175.15 279.608 L2175.15 275.094 L2189.53 253.196 Z" fill="#000000" fill-rule="evenodd" fill-opacity="1" /><path clip-path="url(#clip020)" d="M2208.12 253.196 L2226.47 253.196 L2226.47 257.131 L2212.4 257.131 L2212.4 265.603 Q2213.42 265.256 2214.44 265.094 Q2215.46 264.909 2216.47 264.909 Q2222.26 264.909 2225.64 268.08 Q2229.02 271.251 2229.02 276.668 Q2229.02 282.246 2225.55 285.348 Q2222.08 288.427 2215.76 288.427 Q2213.58 288.427 2211.31 288.057 Q2209.07 287.686 2206.66 286.946 L2206.66 282.246 Q2208.74 283.381 2210.96 283.936 Q2213.19 284.492 2215.66 284.492 Q2219.67 284.492 2222.01 282.385 Q2224.34 280.279 2224.34 276.668 Q2224.34 273.057 2222.01 270.95 Q2219.67 268.844 2215.66 268.844 Q2213.79 268.844 2211.91 269.26 Q2210.06 269.677 2208.12 270.557 L2208.12 253.196 Z" fill="#000000" fill-rule="evenodd" fill-opacity="1" /><path clip-path="url(#clip020)" d="M2239.04 283.821 L2246.68 283.821 L2246.68 257.455 L2238.37 259.122 L2238.37 254.862 L2246.64 253.196 L2251.31 253.196 L2251.31 283.821 L2258.95 283.821 L2258.95 287.756 L2239.04 287.756 L2239.04 283.821 Z" fill="#000000" fill-rule="evenodd" fill-opacity="1" /></svg>
