<?xml version="1.0" encoding="utf-8"?>
<svg xmlns="http://www.w3.org/2000/svg" xmlns:xlink="http://www.w3.org/1999/xlink" width="600" height="400" viewBox="0 0 2400 1600">
<defs>
  <clipPath id="clip250">
    <rect x="0" y="0" width="2400" height="1600"/>
  </clipPath>
</defs>
<path clip-path="url(#clip250)" d="
M0 1600 L2400 1600 L2400 8.88178e-14 L0 8.88178e-14  Z
  " fill="#ffffff" fill-rule="evenodd" fill-opacity="1"/>
<defs>
  <clipPath id="clip251">
    <rect x="480" y="0" width="1681" height="1600"/>
  </clipPath>
</defs>
<path clip-path="url(#clip250)" d="
M242.135 1423.18 L2352.76 1423.18 L2352.76 123.472 L242.135 123.472  Z
  " fill="#ffffff" fill-rule="evenodd" fill-opacity="1"/>
<defs>
  <clipPath id="clip252">
    <rect x="242" y="123" width="2112" height="1301"/>
  </clipPath>
</defs>
<polyline clip-path="url(#clip252)" style="stroke:#000000; stroke-linecap:butt; stroke-linejoin:round; stroke-width:2; stroke-opacity:0.1; fill:none" points="
  467.385,1423.18 467.385,123.472 
  "/>
<polyline clip-path="url(#clip252)" style="stroke:#000000; stroke-linecap:butt; stroke-linejoin:round; stroke-width:2; stroke-opacity:0.1; fill:none" points="
  881.174,1423.18 881.174,123.472 
  "/>
<polyline clip-path="url(#clip252)" style="stroke:#000000; stroke-linecap:butt; stroke-linejoin:round; stroke-width:2; stroke-opacity:0.1; fill:none" points="
  1294.96,1423.18 1294.96,123.472 
  "/>
<polyline clip-path="url(#clip252)" style="stroke:#000000; stroke-linecap:butt; stroke-linejoin:round; stroke-width:2; stroke-opacity:0.1; fill:none" points="
  1708.75,1423.18 1708.75,123.472 
  "/>
<polyline clip-path="url(#clip252)" style="stroke:#000000; stroke-linecap:butt; stroke-linejoin:round; stroke-width:2; stroke-opacity:0.1; fill:none" points="
  2122.54,1423.18 2122.54,123.472 
  "/>
<polyline clip-path="url(#clip250)" style="stroke:#000000; stroke-linecap:butt; stroke-linejoin:round; stroke-width:4; stroke-opacity:1; fill:none" points="
  242.135,1423.18 2352.76,1423.18 
  "/>
<polyline clip-path="url(#clip250)" style="stroke:#000000; stroke-linecap:butt; stroke-linejoin:round; stroke-width:4; stroke-opacity:1; fill:none" points="
  467.385,1423.18 467.385,1404.28 
  "/>
<polyline clip-path="url(#clip250)" style="stroke:#000000; stroke-linecap:butt; stroke-linejoin:round; stroke-width:4; stroke-opacity:1; fill:none" points="
  881.174,1423.18 881.174,1404.28 
  "/>
<polyline clip-path="url(#clip250)" style="stroke:#000000; stroke-linecap:butt; stroke-linejoin:round; stroke-width:4; stroke-opacity:1; fill:none" points="
  1294.96,1423.18 1294.96,1404.28 
  "/>
<polyline clip-path="url(#clip250)" style="stroke:#000000; stroke-linecap:butt; stroke-linejoin:round; stroke-width:4; stroke-opacity:1; fill:none" points="
  1708.75,1423.18 1708.75,1404.28 
  "/>
<polyline clip-path="url(#clip250)" style="stroke:#000000; stroke-linecap:butt; stroke-linejoin:round; stroke-width:4; stroke-opacity:1; fill:none" points="
  2122.54,1423.18 2122.54,1404.28 
  "/>
<path clip-path="url(#clip250)" d="M411.911 1481.64 L419.549 1481.64 L419.549 1455.28 L411.239 1456.95 L411.239 1452.69 L419.503 1451.02 L424.179 1451.02 L424.179 1481.64 L431.818 1481.64 L431.818 1485.58 L411.911 1485.58 L411.911 1481.64 Z" fill="#000000" fill-rule="evenodd" fill-opacity="1" /><path clip-path="url(#clip250)" d="M451.262 1454.1 Q447.651 1454.1 445.822 1457.66 Q444.017 1461.2 444.017 1468.33 Q444.017 1475.44 445.822 1479.01 Q447.651 1482.55 451.262 1482.55 Q454.896 1482.55 456.702 1479.01 Q458.531 1475.44 458.531 1468.33 Q458.531 1461.2 456.702 1457.66 Q454.896 1454.1 451.262 1454.1 M451.262 1450.39 Q457.072 1450.39 460.128 1455 Q463.207 1459.58 463.207 1468.33 Q463.207 1477.06 460.128 1481.67 Q457.072 1486.25 451.262 1486.25 Q445.452 1486.25 442.373 1481.67 Q439.318 1477.06 439.318 1468.33 Q439.318 1459.58 442.373 1455 Q445.452 1450.39 451.262 1450.39 Z" fill="#000000" fill-rule="evenodd" fill-opacity="1" /><path clip-path="url(#clip250)" d="M481.424 1454.1 Q477.813 1454.1 475.984 1457.66 Q474.179 1461.2 474.179 1468.33 Q474.179 1475.44 475.984 1479.01 Q477.813 1482.55 481.424 1482.55 Q485.058 1482.55 486.864 1479.01 Q488.693 1475.44 488.693 1468.33 Q488.693 1461.2 486.864 1457.66 Q485.058 1454.1 481.424 1454.1 M481.424 1450.39 Q487.234 1450.39 490.29 1455 Q493.368 1459.58 493.368 1468.33 Q493.368 1477.06 490.29 1481.67 Q487.234 1486.25 481.424 1486.25 Q475.614 1486.25 472.535 1481.67 Q469.48 1477.06 469.48 1468.33 Q469.48 1459.58 472.535 1455 Q475.614 1450.39 481.424 1450.39 Z" fill="#000000" fill-rule="evenodd" fill-opacity="1" /><path clip-path="url(#clip250)" d="M511.586 1454.1 Q507.975 1454.1 506.146 1457.66 Q504.341 1461.2 504.341 1468.33 Q504.341 1475.44 506.146 1479.01 Q507.975 1482.55 511.586 1482.55 Q515.22 1482.55 517.026 1479.01 Q518.854 1475.44 518.854 1468.33 Q518.854 1461.2 517.026 1457.66 Q515.22 1454.1 511.586 1454.1 M511.586 1450.39 Q517.396 1450.39 520.452 1455 Q523.53 1459.58 523.53 1468.33 Q523.53 1477.06 520.452 1481.67 Q517.396 1486.25 511.586 1486.25 Q505.776 1486.25 502.697 1481.67 Q499.642 1477.06 499.642 1468.33 Q499.642 1459.58 502.697 1455 Q505.776 1450.39 511.586 1450.39 Z" fill="#000000" fill-rule="evenodd" fill-opacity="1" /><path clip-path="url(#clip250)" d="M825.699 1481.64 L833.338 1481.64 L833.338 1455.28 L825.028 1456.95 L825.028 1452.69 L833.292 1451.02 L837.968 1451.02 L837.968 1481.64 L845.607 1481.64 L845.607 1485.58 L825.699 1485.58 L825.699 1481.64 Z" fill="#000000" fill-rule="evenodd" fill-opacity="1" /><path clip-path="url(#clip250)" d="M855.097 1451.02 L873.454 1451.02 L873.454 1454.96 L859.38 1454.96 L859.38 1463.43 Q860.398 1463.08 861.417 1462.92 Q862.435 1462.73 863.454 1462.73 Q869.241 1462.73 872.62 1465.9 Q876 1469.08 876 1474.49 Q876 1480.07 872.528 1483.17 Q869.056 1486.25 862.736 1486.25 Q860.56 1486.25 858.292 1485.88 Q856.046 1485.51 853.639 1484.77 L853.639 1480.07 Q855.722 1481.2 857.945 1481.76 Q860.167 1482.32 862.644 1482.32 Q866.648 1482.32 868.986 1480.21 Q871.324 1478.1 871.324 1474.49 Q871.324 1470.88 868.986 1468.77 Q866.648 1466.67 862.644 1466.67 Q860.769 1466.67 858.894 1467.08 Q857.042 1467.5 855.097 1468.38 L855.097 1451.02 Z" fill="#000000" fill-rule="evenodd" fill-opacity="1" /><path clip-path="url(#clip250)" d="M895.213 1454.1 Q891.602 1454.1 889.773 1457.66 Q887.968 1461.2 887.968 1468.33 Q887.968 1475.44 889.773 1479.01 Q891.602 1482.55 895.213 1482.55 Q898.847 1482.55 900.653 1479.01 Q902.481 1475.44 902.481 1468.33 Q902.481 1461.2 900.653 1457.66 Q898.847 1454.1 895.213 1454.1 M895.213 1450.39 Q901.023 1450.39 904.079 1455 Q907.157 1459.58 907.157 1468.33 Q907.157 1477.06 904.079 1481.67 Q901.023 1486.25 895.213 1486.25 Q889.403 1486.25 886.324 1481.67 Q883.269 1477.06 883.269 1468.33 Q883.269 1459.58 886.324 1455 Q889.403 1450.39 895.213 1450.39 Z" fill="#000000" fill-rule="evenodd" fill-opacity="1" /><path clip-path="url(#clip250)" d="M925.375 1454.1 Q921.764 1454.1 919.935 1457.66 Q918.129 1461.2 918.129 1468.33 Q918.129 1475.44 919.935 1479.01 Q921.764 1482.55 925.375 1482.55 Q929.009 1482.55 930.815 1479.01 Q932.643 1475.44 932.643 1468.33 Q932.643 1461.2 930.815 1457.66 Q929.009 1454.1 925.375 1454.1 M925.375 1450.39 Q931.185 1450.39 934.241 1455 Q937.319 1459.58 937.319 1468.33 Q937.319 1477.06 934.241 1481.67 Q931.185 1486.25 925.375 1486.25 Q919.565 1486.25 916.486 1481.67 Q913.43 1477.06 913.43 1468.33 Q913.43 1459.58 916.486 1455 Q919.565 1450.39 925.375 1450.39 Z" fill="#000000" fill-rule="evenodd" fill-opacity="1" /><path clip-path="url(#clip250)" d="M1243.57 1481.64 L1259.89 1481.64 L1259.89 1485.58 L1237.95 1485.58 L1237.95 1481.64 Q1240.61 1478.89 1245.19 1474.26 Q1249.8 1469.61 1250.98 1468.27 Q1253.23 1465.74 1254.11 1464.01 Q1255.01 1462.25 1255.01 1460.56 Q1255.01 1457.8 1253.06 1456.07 Q1251.14 1454.33 1248.04 1454.33 Q1245.84 1454.33 1243.39 1455.09 Q1240.96 1455.86 1238.18 1457.41 L1238.18 1452.69 Q1241 1451.55 1243.46 1450.97 Q1245.91 1450.39 1247.95 1450.39 Q1253.32 1450.39 1256.51 1453.08 Q1259.71 1455.77 1259.71 1460.26 Q1259.71 1462.39 1258.9 1464.31 Q1258.11 1466.2 1256 1468.8 Q1255.43 1469.47 1252.32 1472.69 Q1249.22 1475.88 1243.57 1481.64 Z" fill="#000000" fill-rule="evenodd" fill-opacity="1" /><path clip-path="url(#clip250)" d="M1279.71 1454.1 Q1276.1 1454.1 1274.27 1457.66 Q1272.46 1461.2 1272.46 1468.33 Q1272.46 1475.44 1274.27 1479.01 Q1276.1 1482.55 1279.71 1482.55 Q1283.34 1482.55 1285.15 1479.01 Q1286.98 1475.44 1286.98 1468.33 Q1286.98 1461.2 1285.15 1457.66 Q1283.34 1454.1 1279.71 1454.1 M1279.71 1450.39 Q1285.52 1450.39 1288.57 1455 Q1291.65 1459.58 1291.65 1468.33 Q1291.65 1477.06 1288.57 1481.67 Q1285.52 1486.25 1279.71 1486.25 Q1273.9 1486.25 1270.82 1481.67 Q1267.76 1477.06 1267.76 1468.33 Q1267.76 1459.58 1270.82 1455 Q1273.9 1450.39 1279.71 1450.39 Z" fill="#000000" fill-rule="evenodd" fill-opacity="1" /><path clip-path="url(#clip250)" d="M1309.87 1454.1 Q1306.26 1454.1 1304.43 1457.66 Q1302.62 1461.2 1302.62 1468.33 Q1302.62 1475.44 1304.43 1479.01 Q1306.26 1482.55 1309.87 1482.55 Q1313.5 1482.55 1315.31 1479.01 Q1317.14 1475.44 1317.14 1468.33 Q1317.14 1461.2 1315.31 1457.66 Q1313.5 1454.1 1309.87 1454.1 M1309.87 1450.39 Q1315.68 1450.39 1318.74 1455 Q1321.81 1459.58 1321.81 1468.33 Q1321.81 1477.06 1318.74 1481.67 Q1315.68 1486.25 1309.87 1486.25 Q1304.06 1486.25 1300.98 1481.67 Q1297.93 1477.06 1297.93 1468.33 Q1297.93 1459.58 1300.98 1455 Q1304.06 1450.39 1309.87 1450.39 Z" fill="#000000" fill-rule="evenodd" fill-opacity="1" /><path clip-path="url(#clip250)" d="M1340.03 1454.1 Q1336.42 1454.1 1334.59 1457.66 Q1332.79 1461.2 1332.79 1468.33 Q1332.79 1475.44 1334.59 1479.01 Q1336.42 1482.55 1340.03 1482.55 Q1343.67 1482.55 1345.47 1479.01 Q1347.3 1475.44 1347.3 1468.33 Q1347.3 1461.2 1345.47 1457.66 Q1343.67 1454.1 1340.03 1454.1 M1340.03 1450.39 Q1345.84 1450.39 1348.9 1455 Q1351.98 1459.58 1351.98 1468.33 Q1351.98 1477.06 1348.9 1481.67 Q1345.84 1486.25 1340.03 1486.25 Q1334.22 1486.25 1331.14 1481.67 Q1328.09 1477.06 1328.09 1468.33 Q1328.09 1459.58 1331.14 1455 Q1334.22 1450.39 1340.03 1450.39 Z" fill="#000000" fill-rule="evenodd" fill-opacity="1" /><path clip-path="url(#clip250)" d="M1657.36 1481.64 L1673.68 1481.64 L1673.68 1485.58 L1651.74 1485.58 L1651.74 1481.64 Q1654.4 1478.89 1658.98 1474.26 Q1663.59 1469.61 1664.77 1468.27 Q1667.02 1465.74 1667.9 1464.01 Q1668.8 1462.25 1668.8 1460.56 Q1668.8 1457.8 1666.85 1456.07 Q1664.93 1454.33 1661.83 1454.33 Q1659.63 1454.33 1657.18 1455.09 Q1654.75 1455.86 1651.97 1457.41 L1651.97 1452.69 Q1654.79 1451.55 1657.25 1450.97 Q1659.7 1450.39 1661.74 1450.39 Q1667.11 1450.39 1670.3 1453.08 Q1673.5 1455.77 1673.5 1460.26 Q1673.5 1462.39 1672.69 1464.31 Q1671.9 1466.2 1669.79 1468.8 Q1669.21 1469.47 1666.11 1472.69 Q1663.01 1475.88 1657.36 1481.64 Z" fill="#000000" fill-rule="evenodd" fill-opacity="1" /><path clip-path="url(#clip250)" d="M1683.54 1451.02 L1701.9 1451.02 L1701.9 1454.96 L1687.83 1454.96 L1687.83 1463.43 Q1688.84 1463.08 1689.86 1462.92 Q1690.88 1462.73 1691.9 1462.73 Q1697.69 1462.73 1701.07 1465.9 Q1704.45 1469.08 1704.45 1474.49 Q1704.45 1480.07 1700.97 1483.17 Q1697.5 1486.25 1691.18 1486.25 Q1689.01 1486.25 1686.74 1485.88 Q1684.49 1485.51 1682.08 1484.77 L1682.08 1480.07 Q1684.17 1481.2 1686.39 1481.76 Q1688.61 1482.32 1691.09 1482.32 Q1695.09 1482.32 1697.43 1480.21 Q1699.77 1478.1 1699.77 1474.49 Q1699.77 1470.88 1697.43 1468.77 Q1695.09 1466.67 1691.09 1466.67 Q1689.21 1466.67 1687.34 1467.08 Q1685.49 1467.5 1683.54 1468.38 L1683.54 1451.02 Z" fill="#000000" fill-rule="evenodd" fill-opacity="1" /><path clip-path="url(#clip250)" d="M1723.66 1454.1 Q1720.05 1454.1 1718.22 1457.66 Q1716.41 1461.2 1716.41 1468.33 Q1716.41 1475.44 1718.22 1479.01 Q1720.05 1482.55 1723.66 1482.55 Q1727.29 1482.55 1729.1 1479.01 Q1730.93 1475.44 1730.93 1468.33 Q1730.93 1461.2 1729.1 1457.66 Q1727.29 1454.1 1723.66 1454.1 M1723.66 1450.39 Q1729.47 1450.39 1732.52 1455 Q1735.6 1459.58 1735.6 1468.33 Q1735.6 1477.06 1732.52 1481.67 Q1729.47 1486.25 1723.66 1486.25 Q1717.85 1486.25 1714.77 1481.67 Q1711.71 1477.06 1711.71 1468.33 Q1711.71 1459.58 1714.77 1455 Q1717.85 1450.39 1723.66 1450.39 Z" fill="#000000" fill-rule="evenodd" fill-opacity="1" /><path clip-path="url(#clip250)" d="M1753.82 1454.1 Q1750.21 1454.1 1748.38 1457.66 Q1746.58 1461.2 1746.58 1468.33 Q1746.58 1475.44 1748.38 1479.01 Q1750.21 1482.55 1753.82 1482.55 Q1757.45 1482.55 1759.26 1479.01 Q1761.09 1475.44 1761.09 1468.33 Q1761.09 1461.2 1759.26 1457.66 Q1757.45 1454.1 1753.82 1454.1 M1753.82 1450.39 Q1759.63 1450.39 1762.69 1455 Q1765.77 1459.58 1765.77 1468.33 Q1765.77 1477.06 1762.69 1481.67 Q1759.63 1486.25 1753.82 1486.25 Q1748.01 1486.25 1744.93 1481.67 Q1741.88 1477.06 1741.88 1468.33 Q1741.88 1459.58 1744.93 1455 Q1748.01 1450.39 1753.82 1450.39 Z" fill="#000000" fill-rule="evenodd" fill-opacity="1" /><path clip-path="url(#clip250)" d="M2081.22 1466.95 Q2084.58 1467.66 2086.45 1469.93 Q2088.35 1472.2 2088.35 1475.53 Q2088.35 1480.65 2084.83 1483.45 Q2081.31 1486.25 2074.83 1486.25 Q2072.66 1486.25 2070.34 1485.81 Q2068.05 1485.39 2065.6 1484.54 L2065.6 1480.02 Q2067.54 1481.16 2069.86 1481.74 Q2072.17 1482.32 2074.69 1482.32 Q2079.09 1482.32 2081.38 1480.58 Q2083.7 1478.84 2083.7 1475.53 Q2083.7 1472.48 2081.55 1470.77 Q2079.42 1469.03 2075.6 1469.03 L2071.57 1469.03 L2071.57 1465.19 L2075.78 1465.19 Q2079.23 1465.19 2081.06 1463.82 Q2082.89 1462.43 2082.89 1459.84 Q2082.89 1457.18 2080.99 1455.77 Q2079.11 1454.33 2075.6 1454.33 Q2073.67 1454.33 2071.48 1454.75 Q2069.28 1455.16 2066.64 1456.04 L2066.64 1451.88 Q2069.3 1451.14 2071.61 1450.77 Q2073.95 1450.39 2076.01 1450.39 Q2081.34 1450.39 2084.44 1452.83 Q2087.54 1455.23 2087.54 1459.35 Q2087.54 1462.22 2085.9 1464.21 Q2084.25 1466.18 2081.22 1466.95 Z" fill="#000000" fill-rule="evenodd" fill-opacity="1" /><path clip-path="url(#clip250)" d="M2107.22 1454.1 Q2103.61 1454.1 2101.78 1457.66 Q2099.97 1461.2 2099.97 1468.33 Q2099.97 1475.44 2101.78 1479.01 Q2103.61 1482.55 2107.22 1482.55 Q2110.85 1482.55 2112.66 1479.01 Q2114.48 1475.44 2114.48 1468.33 Q2114.48 1461.2 2112.66 1457.66 Q2110.85 1454.1 2107.22 1454.1 M2107.22 1450.39 Q2113.03 1450.39 2116.08 1455 Q2119.16 1459.58 2119.16 1468.33 Q2119.16 1477.06 2116.08 1481.67 Q2113.03 1486.25 2107.22 1486.25 Q2101.41 1486.25 2098.33 1481.67 Q2095.27 1477.06 2095.27 1468.33 Q2095.27 1459.58 2098.33 1455 Q2101.41 1450.39 2107.22 1450.39 Z" fill="#000000" fill-rule="evenodd" fill-opacity="1" /><path clip-path="url(#clip250)" d="M2137.38 1454.1 Q2133.77 1454.1 2131.94 1457.66 Q2130.13 1461.2 2130.13 1468.33 Q2130.13 1475.44 2131.94 1479.01 Q2133.77 1482.55 2137.38 1482.55 Q2141.01 1482.55 2142.82 1479.01 Q2144.65 1475.44 2144.65 1468.33 Q2144.65 1461.2 2142.82 1457.66 Q2141.01 1454.1 2137.38 1454.1 M2137.38 1450.39 Q2143.19 1450.39 2146.24 1455 Q2149.32 1459.58 2149.32 1468.33 Q2149.32 1477.06 2146.24 1481.67 Q2143.19 1486.25 2137.38 1486.25 Q2131.57 1486.25 2128.49 1481.67 Q2125.43 1477.06 2125.43 1468.33 Q2125.43 1459.58 2128.49 1455 Q2131.57 1450.39 2137.38 1450.39 Z" fill="#000000" fill-rule="evenodd" fill-opacity="1" /><path clip-path="url(#clip250)" d="M2167.54 1454.1 Q2163.93 1454.1 2162.1 1457.66 Q2160.29 1461.2 2160.29 1468.33 Q2160.29 1475.44 2162.1 1479.01 Q2163.93 1482.55 2167.54 1482.55 Q2171.17 1482.55 2172.98 1479.01 Q2174.81 1475.44 2174.81 1468.33 Q2174.81 1461.2 2172.98 1457.66 Q2171.17 1454.1 2167.54 1454.1 M2167.54 1450.39 Q2173.35 1450.39 2176.41 1455 Q2179.48 1459.58 2179.48 1468.33 Q2179.48 1477.06 2176.41 1481.67 Q2173.35 1486.25 2167.54 1486.25 Q2161.73 1486.25 2158.65 1481.67 Q2155.6 1477.06 2155.6 1468.33 Q2155.6 1459.58 2158.65 1455 Q2161.73 1450.39 2167.54 1450.39 Z" fill="#000000" fill-rule="evenodd" fill-opacity="1" /><path clip-path="url(#clip250)" d="M1251.09 1526.86 L1242.37 1550.51 L1259.84 1550.51 L1251.09 1526.86 M1247.46 1520.52 L1254.75 1520.52 L1272.86 1568.04 L1266.17 1568.04 L1261.85 1555.85 L1240.42 1555.85 L1236.1 1568.04 L1229.32 1568.04 L1247.46 1520.52 Z" fill="#000000" fill-rule="evenodd" fill-opacity="1" /><path clip-path="url(#clip250)" d="M1286.23 1525.81 L1286.23 1562.76 L1293.99 1562.76 Q1303.83 1562.76 1308.38 1558.3 Q1312.96 1553.85 1312.96 1544.24 Q1312.96 1534.69 1308.38 1530.26 Q1303.83 1525.81 1293.99 1525.81 L1286.23 1525.81 M1279.8 1520.52 L1293.01 1520.52 Q1306.82 1520.52 1313.28 1526.28 Q1319.74 1532.01 1319.74 1544.24 Q1319.74 1556.52 1313.25 1562.28 Q1306.76 1568.04 1293.01 1568.04 L1279.8 1568.04 L1279.8 1520.52 Z" fill="#000000" fill-rule="evenodd" fill-opacity="1" /><path clip-path="url(#clip250)" d="M1365.57 1524.18 L1365.57 1530.96 Q1362.33 1527.94 1358.64 1526.44 Q1354.98 1524.95 1350.84 1524.95 Q1342.69 1524.95 1338.36 1529.95 Q1334.03 1534.91 1334.03 1544.33 Q1334.03 1553.72 1338.36 1558.72 Q1342.69 1563.68 1350.84 1563.68 Q1354.98 1563.68 1358.64 1562.19 Q1362.33 1560.69 1365.57 1557.67 L1365.57 1564.38 Q1362.2 1566.68 1358.41 1567.82 Q1354.66 1568.97 1350.46 1568.97 Q1339.67 1568.97 1333.46 1562.38 Q1327.25 1555.76 1327.25 1544.33 Q1327.25 1532.87 1333.46 1526.28 Q1339.67 1519.66 1350.46 1519.66 Q1354.72 1519.66 1358.48 1520.81 Q1362.26 1521.92 1365.57 1524.18 Z" fill="#000000" fill-rule="evenodd" fill-opacity="1" /><polyline clip-path="url(#clip252)" style="stroke:#000000; stroke-linecap:butt; stroke-linejoin:round; stroke-width:2; stroke-opacity:0.1; fill:none" points="
  242.135,1386.4 2352.76,1386.4 
  "/>
<polyline clip-path="url(#clip252)" style="stroke:#000000; stroke-linecap:butt; stroke-linejoin:round; stroke-width:2; stroke-opacity:0.1; fill:none" points="
  242.135,1182.04 2352.76,1182.04 
  "/>
<polyline clip-path="url(#clip252)" style="stroke:#000000; stroke-linecap:butt; stroke-linejoin:round; stroke-width:2; stroke-opacity:0.1; fill:none" points="
  242.135,977.683 2352.76,977.683 
  "/>
<polyline clip-path="url(#clip252)" style="stroke:#000000; stroke-linecap:butt; stroke-linejoin:round; stroke-width:2; stroke-opacity:0.1; fill:none" points="
  242.135,773.326 2352.76,773.326 
  "/>
<polyline clip-path="url(#clip252)" style="stroke:#000000; stroke-linecap:butt; stroke-linejoin:round; stroke-width:2; stroke-opacity:0.1; fill:none" points="
  242.135,568.969 2352.76,568.969 
  "/>
<polyline clip-path="url(#clip252)" style="stroke:#000000; stroke-linecap:butt; stroke-linejoin:round; stroke-width:2; stroke-opacity:0.1; fill:none" points="
  242.135,364.613 2352.76,364.613 
  "/>
<polyline clip-path="url(#clip252)" style="stroke:#000000; stroke-linecap:butt; stroke-linejoin:round; stroke-width:2; stroke-opacity:0.1; fill:none" points="
  242.135,160.256 2352.76,160.256 
  "/>
<polyline clip-path="url(#clip250)" style="stroke:#000000; stroke-linecap:butt; stroke-linejoin:round; stroke-width:4; stroke-opacity:1; fill:none" points="
  242.135,1423.18 242.135,123.472 
  "/>
<polyline clip-path="url(#clip250)" style="stroke:#000000; stroke-linecap:butt; stroke-linejoin:round; stroke-width:4; stroke-opacity:1; fill:none" points="
  242.135,1386.4 261.032,1386.4 
  "/>
<polyline clip-path="url(#clip250)" style="stroke:#000000; stroke-linecap:butt; stroke-linejoin:round; stroke-width:4; stroke-opacity:1; fill:none" points="
  242.135,1182.04 261.032,1182.04 
  "/>
<polyline clip-path="url(#clip250)" style="stroke:#000000; stroke-linecap:butt; stroke-linejoin:round; stroke-width:4; stroke-opacity:1; fill:none" points="
  242.135,977.683 261.032,977.683 
  "/>
<polyline clip-path="url(#clip250)" style="stroke:#000000; stroke-linecap:butt; stroke-linejoin:round; stroke-width:4; stroke-opacity:1; fill:none" points="
  242.135,773.326 261.032,773.326 
  "/>
<polyline clip-path="url(#clip250)" style="stroke:#000000; stroke-linecap:butt; stroke-linejoin:round; stroke-width:4; stroke-opacity:1; fill:none" points="
  242.135,568.969 261.032,568.969 
  "/>
<polyline clip-path="url(#clip250)" style="stroke:#000000; stroke-linecap:butt; stroke-linejoin:round; stroke-width:4; stroke-opacity:1; fill:none" points="
  242.135,364.613 261.032,364.613 
  "/>
<polyline clip-path="url(#clip250)" style="stroke:#000000; stroke-linecap:butt; stroke-linejoin:round; stroke-width:4; stroke-opacity:1; fill:none" points="
  242.135,160.256 261.032,160.256 
  "/>
<path clip-path="url(#clip250)" d="M114.26 1386.85 L143.936 1386.85 L143.936 1390.78 L114.26 1390.78 L114.26 1386.85 Z" fill="#000000" fill-rule="evenodd" fill-opacity="1" /><path clip-path="url(#clip250)" d="M164.607 1384.53 Q161.459 1384.53 159.607 1386.69 Q157.778 1388.84 157.778 1392.59 Q157.778 1396.31 159.607 1398.49 Q161.459 1400.64 164.607 1400.64 Q167.755 1400.64 169.584 1398.49 Q171.436 1396.31 171.436 1392.59 Q171.436 1388.84 169.584 1386.69 Q167.755 1384.53 164.607 1384.53 M173.889 1369.88 L173.889 1374.14 Q172.13 1373.31 170.325 1372.87 Q168.542 1372.43 166.783 1372.43 Q162.153 1372.43 159.7 1375.55 Q157.269 1378.68 156.922 1385 Q158.288 1382.98 160.348 1381.92 Q162.408 1380.83 164.885 1380.83 Q170.093 1380.83 173.102 1384 Q176.135 1387.15 176.135 1392.59 Q176.135 1397.91 172.987 1401.13 Q169.839 1404.35 164.607 1404.35 Q158.612 1404.35 155.44 1399.76 Q152.269 1395.16 152.269 1386.43 Q152.269 1378.24 156.158 1373.37 Q160.047 1368.49 166.598 1368.49 Q168.357 1368.49 170.139 1368.84 Q171.945 1369.19 173.889 1369.88 Z" fill="#000000" fill-rule="evenodd" fill-opacity="1" /><path clip-path="url(#clip250)" d="M194.19 1372.19 Q190.579 1372.19 188.75 1375.76 Q186.945 1379.3 186.945 1386.43 Q186.945 1393.54 188.75 1397.1 Q190.579 1400.64 194.19 1400.64 Q197.825 1400.64 199.63 1397.1 Q201.459 1393.54 201.459 1386.43 Q201.459 1379.3 199.63 1375.76 Q197.825 1372.19 194.19 1372.19 M194.19 1368.49 Q200 1368.49 203.056 1373.1 Q206.135 1377.68 206.135 1386.43 Q206.135 1395.16 203.056 1399.76 Q200 1404.35 194.19 1404.35 Q188.38 1404.35 185.301 1399.76 Q182.246 1395.16 182.246 1386.43 Q182.246 1377.68 185.301 1373.1 Q188.38 1368.49 194.19 1368.49 Z" fill="#000000" fill-rule="evenodd" fill-opacity="1" /><path clip-path="url(#clip250)" d="M114.26 1182.49 L143.936 1182.49 L143.936 1186.43 L114.26 1186.43 L114.26 1182.49 Z" fill="#000000" fill-rule="evenodd" fill-opacity="1" /><path clip-path="url(#clip250)" d="M154.075 1164.76 L172.431 1164.76 L172.431 1168.69 L158.357 1168.69 L158.357 1177.17 Q159.376 1176.82 160.394 1176.66 Q161.413 1176.47 162.431 1176.47 Q168.218 1176.47 171.598 1179.64 Q174.977 1182.81 174.977 1188.23 Q174.977 1193.81 171.505 1196.91 Q168.033 1199.99 161.714 1199.99 Q159.538 1199.99 157.269 1199.62 Q155.024 1199.25 152.616 1198.51 L152.616 1193.81 Q154.7 1194.94 156.922 1195.5 Q159.144 1196.06 161.621 1196.06 Q165.626 1196.06 167.964 1193.95 Q170.302 1191.84 170.302 1188.23 Q170.302 1184.62 167.964 1182.51 Q165.626 1180.41 161.621 1180.41 Q159.746 1180.41 157.871 1180.82 Q156.019 1181.24 154.075 1182.12 L154.075 1164.76 Z" fill="#000000" fill-rule="evenodd" fill-opacity="1" /><path clip-path="url(#clip250)" d="M194.19 1167.84 Q190.579 1167.84 188.75 1171.4 Q186.945 1174.94 186.945 1182.07 Q186.945 1189.18 188.75 1192.75 Q190.579 1196.29 194.19 1196.29 Q197.825 1196.29 199.63 1192.75 Q201.459 1189.18 201.459 1182.07 Q201.459 1174.94 199.63 1171.4 Q197.825 1167.84 194.19 1167.84 M194.19 1164.13 Q200 1164.13 203.056 1168.74 Q206.135 1173.32 206.135 1182.07 Q206.135 1190.8 203.056 1195.41 Q200 1199.99 194.19 1199.99 Q188.38 1199.99 185.301 1195.41 Q182.246 1190.8 182.246 1182.07 Q182.246 1173.32 185.301 1168.74 Q188.38 1164.13 194.19 1164.13 Z" fill="#000000" fill-rule="evenodd" fill-opacity="1" /><path clip-path="url(#clip250)" d="M114.26 978.134 L143.936 978.134 L143.936 982.069 L114.26 982.069 L114.26 978.134 Z" fill="#000000" fill-rule="evenodd" fill-opacity="1" /><path clip-path="url(#clip250)" d="M166.876 964.477 L155.07 982.926 L166.876 982.926 L166.876 964.477 M165.649 960.403 L171.528 960.403 L171.528 982.926 L176.459 982.926 L176.459 986.814 L171.528 986.814 L171.528 994.963 L166.876 994.963 L166.876 986.814 L151.274 986.814 L151.274 982.301 L165.649 960.403 Z" fill="#000000" fill-rule="evenodd" fill-opacity="1" /><path clip-path="url(#clip250)" d="M194.19 963.481 Q190.579 963.481 188.75 967.046 Q186.945 970.588 186.945 977.717 Q186.945 984.824 188.75 988.389 Q190.579 991.93 194.19 991.93 Q197.825 991.93 199.63 988.389 Q201.459 984.824 201.459 977.717 Q201.459 970.588 199.63 967.046 Q197.825 963.481 194.19 963.481 M194.19 959.778 Q200 959.778 203.056 964.384 Q206.135 968.967 206.135 977.717 Q206.135 986.444 203.056 991.051 Q200 995.634 194.19 995.634 Q188.38 995.634 185.301 991.051 Q182.246 986.444 182.246 977.717 Q182.246 968.967 185.301 964.384 Q188.38 959.778 194.19 959.778 Z" fill="#000000" fill-rule="evenodd" fill-opacity="1" /><path clip-path="url(#clip250)" d="M114.26 773.777 L143.936 773.777 L143.936 777.713 L114.26 777.713 L114.26 773.777 Z" fill="#000000" fill-rule="evenodd" fill-opacity="1" /><path clip-path="url(#clip250)" d="M168.195 771.972 Q171.552 772.689 173.427 774.958 Q175.325 777.226 175.325 780.56 Q175.325 785.675 171.806 788.476 Q168.288 791.277 161.806 791.277 Q159.63 791.277 157.315 790.837 Q155.024 790.421 152.57 789.564 L152.57 785.05 Q154.515 786.185 156.829 786.763 Q159.144 787.342 161.667 787.342 Q166.065 787.342 168.357 785.606 Q170.672 783.87 170.672 780.56 Q170.672 777.504 168.519 775.791 Q166.39 774.055 162.57 774.055 L158.542 774.055 L158.542 770.213 L162.755 770.213 Q166.204 770.213 168.033 768.847 Q169.862 767.458 169.862 764.865 Q169.862 762.203 167.964 760.791 Q166.089 759.356 162.57 759.356 Q160.649 759.356 158.45 759.773 Q156.251 760.189 153.612 761.069 L153.612 756.902 Q156.274 756.162 158.589 755.791 Q160.927 755.421 162.987 755.421 Q168.311 755.421 171.413 757.852 Q174.514 760.259 174.514 764.379 Q174.514 767.25 172.871 769.24 Q171.227 771.208 168.195 771.972 Z" fill="#000000" fill-rule="evenodd" fill-opacity="1" /><path clip-path="url(#clip250)" d="M194.19 759.125 Q190.579 759.125 188.75 762.689 Q186.945 766.231 186.945 773.361 Q186.945 780.467 188.75 784.032 Q190.579 787.574 194.19 787.574 Q197.825 787.574 199.63 784.032 Q201.459 780.467 201.459 773.361 Q201.459 766.231 199.63 762.689 Q197.825 759.125 194.19 759.125 M194.19 755.421 Q200 755.421 203.056 760.027 Q206.135 764.611 206.135 773.361 Q206.135 782.088 203.056 786.694 Q200 791.277 194.19 791.277 Q188.38 791.277 185.301 786.694 Q182.246 782.088 182.246 773.361 Q182.246 764.611 185.301 760.027 Q188.38 755.421 194.19 755.421 Z" fill="#000000" fill-rule="evenodd" fill-opacity="1" /><path clip-path="url(#clip250)" d="M114.26 569.421 L143.936 569.421 L143.936 573.356 L114.26 573.356 L114.26 569.421 Z" fill="#000000" fill-rule="evenodd" fill-opacity="1" /><path clip-path="url(#clip250)" d="M158.056 582.314 L174.376 582.314 L174.376 586.249 L152.431 586.249 L152.431 582.314 Q155.093 579.56 159.677 574.93 Q164.283 570.277 165.464 568.935 Q167.709 566.412 168.589 564.675 Q169.491 562.916 169.491 561.226 Q169.491 558.472 167.547 556.736 Q165.626 555 162.524 555 Q160.325 555 157.871 555.763 Q155.44 556.527 152.663 558.078 L152.663 553.356 Q155.487 552.222 157.94 551.643 Q160.394 551.064 162.431 551.064 Q167.802 551.064 170.996 553.75 Q174.19 556.435 174.19 560.925 Q174.19 563.055 173.38 564.976 Q172.593 566.875 170.487 569.467 Q169.908 570.138 166.806 573.356 Q163.704 576.55 158.056 582.314 Z" fill="#000000" fill-rule="evenodd" fill-opacity="1" /><path clip-path="url(#clip250)" d="M194.19 554.768 Q190.579 554.768 188.75 558.333 Q186.945 561.875 186.945 569.004 Q186.945 576.111 188.75 579.675 Q190.579 583.217 194.19 583.217 Q197.825 583.217 199.63 579.675 Q201.459 576.111 201.459 569.004 Q201.459 561.875 199.63 558.333 Q197.825 554.768 194.19 554.768 M194.19 551.064 Q200 551.064 203.056 555.671 Q206.135 560.254 206.135 569.004 Q206.135 577.731 203.056 582.337 Q200 586.921 194.19 586.921 Q188.38 586.921 185.301 582.337 Q182.246 577.731 182.246 569.004 Q182.246 560.254 185.301 555.671 Q188.38 551.064 194.19 551.064 Z" fill="#000000" fill-rule="evenodd" fill-opacity="1" /><path clip-path="url(#clip250)" d="M114.26 365.064 L143.936 365.064 L143.936 368.999 L114.26 368.999 L114.26 365.064 Z" fill="#000000" fill-rule="evenodd" fill-opacity="1" /><path clip-path="url(#clip250)" d="M154.839 377.958 L162.477 377.958 L162.477 351.592 L154.167 353.259 L154.167 349 L162.431 347.333 L167.107 347.333 L167.107 377.958 L174.746 377.958 L174.746 381.893 L154.839 381.893 L154.839 377.958 Z" fill="#000000" fill-rule="evenodd" fill-opacity="1" /><path clip-path="url(#clip250)" d="M194.19 350.412 Q190.579 350.412 188.75 353.976 Q186.945 357.518 186.945 364.648 Q186.945 371.754 188.75 375.319 Q190.579 378.86 194.19 378.86 Q197.825 378.86 199.63 375.319 Q201.459 371.754 201.459 364.648 Q201.459 357.518 199.63 353.976 Q197.825 350.412 194.19 350.412 M194.19 346.708 Q200 346.708 203.056 351.314 Q206.135 355.898 206.135 364.648 Q206.135 373.374 203.056 377.981 Q200 382.564 194.19 382.564 Q188.38 382.564 185.301 377.981 Q182.246 373.374 182.246 364.648 Q182.246 355.898 185.301 351.314 Q188.38 346.708 194.19 346.708 Z" fill="#000000" fill-rule="evenodd" fill-opacity="1" /><path clip-path="url(#clip250)" d="M194.19 146.055 Q190.579 146.055 188.75 149.62 Q186.945 153.161 186.945 160.291 Q186.945 167.397 188.75 170.962 Q190.579 174.504 194.19 174.504 Q197.825 174.504 199.63 170.962 Q201.459 167.397 201.459 160.291 Q201.459 153.161 199.63 149.62 Q197.825 146.055 194.19 146.055 M194.19 142.351 Q200 142.351 203.056 146.958 Q206.135 151.541 206.135 160.291 Q206.135 169.018 203.056 173.624 Q200 178.208 194.19 178.208 Q188.38 178.208 185.301 173.624 Q182.246 169.018 182.246 160.291 Q182.246 151.541 185.301 146.958 Q188.38 142.351 194.19 142.351 Z" fill="#000000" fill-rule="evenodd" fill-opacity="1" /><path clip-path="url(#clip250)" d="M33.7671 817.552 L14.479 817.552 L14.479 811.695 L64.0042 811.695 L64.0042 817.552 L58.657 817.552 Q61.8398 819.398 63.3994 822.231 Q64.9272 825.031 64.9272 828.978 Q64.9272 835.439 59.771 839.513 Q54.6147 843.556 46.212 843.556 Q37.8093 843.556 32.6531 839.513 Q27.4968 835.439 27.4968 828.978 Q27.4968 825.031 29.0564 822.231 Q30.5842 819.398 33.7671 817.552 M46.212 837.508 Q52.6732 837.508 56.3653 834.866 Q60.0256 832.193 60.0256 827.546 Q60.0256 822.899 56.3653 820.225 Q52.6732 817.552 46.212 817.552 Q39.7508 817.552 36.0905 820.225 Q32.3984 822.899 32.3984 827.546 Q32.3984 832.193 36.0905 834.866 Q39.7508 837.508 46.212 837.508 Z" fill="#000000" fill-rule="evenodd" fill-opacity="1" /><path clip-path="url(#clip250)" d="M41.3104 792.948 L58.7206 792.948 L58.7206 782.636 Q58.7206 777.448 56.5881 774.965 Q54.4238 772.451 49.9996 772.451 Q45.5436 772.451 43.4429 774.965 Q41.3104 777.448 41.3104 782.636 L41.3104 792.948 M21.7677 792.948 L36.0905 792.948 L36.0905 783.432 Q36.0905 778.721 34.34 776.429 Q32.5576 774.106 28.9291 774.106 Q25.3325 774.106 23.5501 776.429 Q21.7677 778.721 21.7677 783.432 L21.7677 792.948 M16.4842 799.378 L16.4842 782.954 Q16.4842 775.602 19.5397 771.623 Q22.5952 767.645 28.2289 767.645 Q32.5894 767.645 35.1675 769.682 Q37.7456 771.719 38.3822 775.665 Q39.4007 770.923 42.6472 768.313 Q45.8619 765.671 50.6998 765.671 Q57.0655 765.671 60.5348 770 Q64.0042 774.329 64.0042 782.318 L64.0042 799.378 L16.4842 799.378 Z" fill="#000000" fill-rule="evenodd" fill-opacity="1" /><path clip-path="url(#clip250)" d="M35.1993 727.159 Q31.2526 724.963 29.3747 721.907 Q27.4968 718.851 27.4968 714.714 Q27.4968 709.144 31.4117 706.12 Q35.2948 703.096 42.4881 703.096 L64.0042 703.096 L64.0042 708.985 L42.679 708.985 Q37.5546 708.985 35.072 710.799 Q32.5894 712.613 32.5894 716.337 Q32.5894 720.888 35.6131 723.53 Q38.6368 726.172 43.8567 726.172 L64.0042 726.172 L64.0042 732.06 L42.679 732.06 Q37.5228 732.06 35.072 733.875 Q32.5894 735.689 32.5894 739.476 Q32.5894 743.964 35.6449 746.606 Q38.6686 749.248 43.8567 749.248 L64.0042 749.248 L64.0042 755.136 L28.3562 755.136 L28.3562 749.248 L33.8944 749.248 Q30.616 747.243 29.0564 744.442 Q27.4968 741.641 27.4968 737.789 Q27.4968 733.906 29.4702 731.201 Q31.4436 728.464 35.1993 727.159 Z" fill="#000000" fill-rule="evenodd" fill-opacity="1" /><path clip-path="url(#clip250)" d="M1107.52 65.6895 L1136.08 65.6895 L1136.08 72.576 L1097.67 72.576 L1097.67 65.6895 Q1102.33 60.8689 1110.35 52.7671 Q1118.42 44.6248 1120.48 42.2752 Q1124.41 37.8598 1125.95 34.8216 Q1127.53 31.7429 1127.53 28.7857 Q1127.53 23.9651 1124.13 20.927 Q1120.77 17.8888 1115.34 17.8888 Q1111.49 17.8888 1107.19 19.2256 Q1102.94 20.5624 1098.08 23.2765 L1098.08 15.0127 Q1103.02 13.0277 1107.32 12.015 Q1111.61 11.0023 1115.17 11.0023 Q1124.57 11.0023 1130.16 15.7013 Q1135.75 20.4004 1135.75 28.2591 Q1135.75 31.9859 1134.34 35.3482 Q1132.96 38.6699 1129.27 43.2069 Q1128.26 44.3817 1122.83 50.0125 Q1117.4 55.6027 1107.52 65.6895 Z" fill="#000000" fill-rule="evenodd" fill-opacity="1" /><path clip-path="url(#clip250)" d="M1189.91 45.1919 L1189.91 72.576 L1182.46 72.576 L1182.46 45.4349 Q1182.46 38.994 1179.95 35.7938 Q1177.44 32.5936 1172.41 32.5936 Q1166.38 32.5936 1162.89 36.4419 Q1159.41 40.2903 1159.41 46.9338 L1159.41 72.576 L1151.92 72.576 L1151.92 27.2059 L1159.41 27.2059 L1159.41 34.2544 Q1162.08 30.163 1165.69 28.1376 Q1169.34 26.1121 1174.07 26.1121 Q1181.89 26.1121 1185.9 30.9732 Q1189.91 35.7938 1189.91 45.1919 Z" fill="#000000" fill-rule="evenodd" fill-opacity="1" /><path clip-path="url(#clip250)" d="M1234.64 34.0924 L1234.64 9.54393 L1242.09 9.54393 L1242.09 72.576 L1234.64 72.576 L1234.64 65.7705 Q1232.29 69.8214 1228.68 71.8063 Q1225.12 73.7508 1220.09 73.7508 Q1211.87 73.7508 1206.68 67.1883 Q1201.54 60.6258 1201.54 49.9314 Q1201.54 39.2371 1206.68 32.6746 Q1211.87 26.1121 1220.09 26.1121 Q1225.12 26.1121 1228.68 28.0971 Q1232.29 30.0415 1234.64 34.0924 M1209.24 49.9314 Q1209.24 58.1548 1212.6 62.8538 Q1216 67.5124 1221.92 67.5124 Q1227.83 67.5124 1231.23 62.8538 Q1234.64 58.1548 1234.64 49.9314 Q1234.64 41.7081 1231.23 37.0496 Q1227.83 32.3505 1221.92 32.3505 Q1216 32.3505 1212.6 37.0496 Q1209.24 41.7081 1209.24 49.9314 Z" fill="#000000" fill-rule="evenodd" fill-opacity="1" /><path clip-path="url(#clip250)" d="M1301.39 32.4315 Q1295.4 32.4315 1291.92 37.1306 Q1288.43 41.7891 1288.43 49.9314 Q1288.43 58.0738 1291.88 62.7728 Q1295.36 67.4314 1301.39 67.4314 Q1307.35 67.4314 1310.83 62.7323 Q1314.32 58.0333 1314.32 49.9314 Q1314.32 41.8701 1310.83 37.1711 Q1307.35 32.4315 1301.39 32.4315 M1301.39 26.1121 Q1311.12 26.1121 1316.67 32.4315 Q1322.22 38.7509 1322.22 49.9314 Q1322.22 61.0714 1316.67 67.4314 Q1311.12 73.7508 1301.39 73.7508 Q1291.63 73.7508 1286.08 67.4314 Q1280.57 61.0714 1280.57 49.9314 Q1280.57 38.7509 1286.08 32.4315 Q1291.63 26.1121 1301.39 26.1121 Z" fill="#000000" fill-rule="evenodd" fill-opacity="1" /><path clip-path="url(#clip250)" d="M1360.86 34.1734 Q1359.61 33.4443 1358.11 33.1202 Q1356.65 32.7556 1354.87 32.7556 Q1348.55 32.7556 1345.14 36.8875 Q1341.78 40.9789 1341.78 48.6757 L1341.78 72.576 L1334.29 72.576 L1334.29 27.2059 L1341.78 27.2059 L1341.78 34.2544 Q1344.13 30.1225 1347.9 28.1376 Q1351.67 26.1121 1357.05 26.1121 Q1357.82 26.1121 1358.76 26.2337 Q1359.69 26.3147 1360.82 26.5172 L1360.86 34.1734 Z" fill="#000000" fill-rule="evenodd" fill-opacity="1" /><path clip-path="url(#clip250)" d="M1397.08 34.0924 L1397.08 9.54393 L1404.53 9.54393 L1404.53 72.576 L1397.08 72.576 L1397.08 65.7705 Q1394.73 69.8214 1391.12 71.8063 Q1387.56 73.7508 1382.53 73.7508 Q1374.31 73.7508 1369.13 67.1883 Q1363.98 60.6258 1363.98 49.9314 Q1363.98 39.2371 1369.13 32.6746 Q1374.31 26.1121 1382.53 26.1121 Q1387.56 26.1121 1391.12 28.0971 Q1394.73 30.0415 1397.08 34.0924 M1371.68 49.9314 Q1371.68 58.1548 1375.04 62.8538 Q1378.44 67.5124 1384.36 67.5124 Q1390.27 67.5124 1393.67 62.8538 Q1397.08 58.1548 1397.08 49.9314 Q1397.08 41.7081 1393.67 37.0496 Q1390.27 32.3505 1384.36 32.3505 Q1378.44 32.3505 1375.04 37.0496 Q1371.68 41.7081 1371.68 49.9314 Z" fill="#000000" fill-rule="evenodd" fill-opacity="1" /><path clip-path="url(#clip250)" d="M1458.69 48.0275 L1458.69 51.6733 L1424.42 51.6733 Q1424.91 59.3701 1429.04 63.421 Q1433.21 67.4314 1440.62 67.4314 Q1444.92 67.4314 1448.93 66.3781 Q1452.98 65.3249 1456.95 63.2184 L1456.95 70.267 Q1452.94 71.9684 1448.73 72.8596 Q1444.51 73.7508 1440.18 73.7508 Q1429.32 73.7508 1422.96 67.4314 Q1416.64 61.1119 1416.64 50.3365 Q1416.64 39.1965 1422.64 32.6746 Q1428.67 26.1121 1438.88 26.1121 Q1448.04 26.1121 1453.34 32.0264 Q1458.69 37.9003 1458.69 48.0275 M1451.24 45.84 Q1451.16 39.7232 1447.79 36.0774 Q1444.47 32.4315 1438.96 32.4315 Q1432.73 32.4315 1428.96 35.9558 Q1425.23 39.4801 1424.66 45.8805 L1451.24 45.84 Z" fill="#000000" fill-rule="evenodd" fill-opacity="1" /><path clip-path="url(#clip250)" d="M1497.22 34.1734 Q1495.96 33.4443 1494.46 33.1202 Q1493 32.7556 1491.22 32.7556 Q1484.9 32.7556 1481.5 36.8875 Q1478.14 40.9789 1478.14 48.6757 L1478.14 72.576 L1470.64 72.576 L1470.64 27.2059 L1478.14 27.2059 L1478.14 34.2544 Q1480.49 30.1225 1484.25 28.1376 Q1488.02 26.1121 1493.41 26.1121 Q1494.18 26.1121 1495.11 26.2337 Q1496.04 26.3147 1497.18 26.5172 L1497.22 34.1734 Z" fill="#000000" fill-rule="evenodd" fill-opacity="1" /><circle clip-path="url(#clip252)" cx="301.869" cy="160.256" r="14" fill="#009af9" fill-rule="evenodd" fill-opacity="1" stroke="#000000" stroke-opacity="1" stroke-width="3.2"/>
<circle clip-path="url(#clip252)" cx="315.938" cy="180.692" r="14" fill="#009af9" fill-rule="evenodd" fill-opacity="1" stroke="#000000" stroke-opacity="1" stroke-width="3.2"/>
<circle clip-path="url(#clip252)" cx="339.938" cy="201.128" r="14" fill="#009af9" fill-rule="evenodd" fill-opacity="1" stroke="#000000" stroke-opacity="1" stroke-width="3.2"/>
<circle clip-path="url(#clip252)" cx="358.972" cy="221.563" r="14" fill="#009af9" fill-rule="evenodd" fill-opacity="1" stroke="#000000" stroke-opacity="1" stroke-width="3.2"/>
<circle clip-path="url(#clip252)" cx="385.455" cy="241.999" r="14" fill="#009af9" fill-rule="evenodd" fill-opacity="1" stroke="#000000" stroke-opacity="1" stroke-width="3.2"/>
<circle clip-path="url(#clip252)" cx="416.075" cy="262.435" r="14" fill="#009af9" fill-rule="evenodd" fill-opacity="1" stroke="#000000" stroke-opacity="1" stroke-width="3.2"/>
<circle clip-path="url(#clip252)" cx="451.661" cy="282.87" r="14" fill="#009af9" fill-rule="evenodd" fill-opacity="1" stroke="#000000" stroke-opacity="1" stroke-width="3.2"/>
<circle clip-path="url(#clip252)" cx="482.281" cy="303.306" r="14" fill="#009af9" fill-rule="evenodd" fill-opacity="1" stroke="#000000" stroke-opacity="1" stroke-width="3.2"/>
<circle clip-path="url(#clip252)" cx="517.039" cy="323.742" r="14" fill="#009af9" fill-rule="evenodd" fill-opacity="1" stroke="#000000" stroke-opacity="1" stroke-width="3.2"/>
<circle clip-path="url(#clip252)" cx="548.487" cy="344.177" r="14" fill="#009af9" fill-rule="evenodd" fill-opacity="1" stroke="#000000" stroke-opacity="1" stroke-width="3.2"/>
<circle clip-path="url(#clip252)" cx="581.591" cy="364.613" r="14" fill="#009af9" fill-rule="evenodd" fill-opacity="1" stroke="#000000" stroke-opacity="1" stroke-width="3.2"/>
<circle clip-path="url(#clip252)" cx="633.728" cy="385.049" r="14" fill="#009af9" fill-rule="evenodd" fill-opacity="1" stroke="#000000" stroke-opacity="1" stroke-width="3.2"/>
<circle clip-path="url(#clip252)" cx="670.141" cy="405.484" r="14" fill="#009af9" fill-rule="evenodd" fill-opacity="1" stroke="#000000" stroke-opacity="1" stroke-width="3.2"/>
<circle clip-path="url(#clip252)" cx="702.417" cy="425.92" r="14" fill="#009af9" fill-rule="evenodd" fill-opacity="1" stroke="#000000" stroke-opacity="1" stroke-width="3.2"/>
<circle clip-path="url(#clip252)" cx="733.865" cy="446.355" r="14" fill="#009af9" fill-rule="evenodd" fill-opacity="1" stroke="#000000" stroke-opacity="1" stroke-width="3.2"/>
<circle clip-path="url(#clip252)" cx="769.451" cy="466.791" r="14" fill="#009af9" fill-rule="evenodd" fill-opacity="1" stroke="#000000" stroke-opacity="1" stroke-width="3.2"/>
<circle clip-path="url(#clip252)" cx="799.243" cy="487.227" r="14" fill="#009af9" fill-rule="evenodd" fill-opacity="1" stroke="#000000" stroke-opacity="1" stroke-width="3.2"/>
<circle clip-path="url(#clip252)" cx="837.312" cy="507.662" r="14" fill="#009af9" fill-rule="evenodd" fill-opacity="1" stroke="#000000" stroke-opacity="1" stroke-width="3.2"/>
<circle clip-path="url(#clip252)" cx="871.243" cy="528.098" r="14" fill="#009af9" fill-rule="evenodd" fill-opacity="1" stroke="#000000" stroke-opacity="1" stroke-width="3.2"/>
<circle clip-path="url(#clip252)" cx="902.691" cy="548.534" r="14" fill="#009af9" fill-rule="evenodd" fill-opacity="1" stroke="#000000" stroke-opacity="1" stroke-width="3.2"/>
<circle clip-path="url(#clip252)" cx="949.863" cy="568.969" r="14" fill="#009af9" fill-rule="evenodd" fill-opacity="1" stroke="#000000" stroke-opacity="1" stroke-width="3.2"/>
<circle clip-path="url(#clip252)" cx="980.483" cy="589.405" r="14" fill="#009af9" fill-rule="evenodd" fill-opacity="1" stroke="#000000" stroke-opacity="1" stroke-width="3.2"/>
<circle clip-path="url(#clip252)" cx="1014.41" cy="609.841" r="14" fill="#009af9" fill-rule="evenodd" fill-opacity="1" stroke="#000000" stroke-opacity="1" stroke-width="3.2"/>
<circle clip-path="url(#clip252)" cx="1045.03" cy="630.276" r="14" fill="#009af9" fill-rule="evenodd" fill-opacity="1" stroke="#000000" stroke-opacity="1" stroke-width="3.2"/>
<circle clip-path="url(#clip252)" cx="1074" cy="650.712" r="14" fill="#009af9" fill-rule="evenodd" fill-opacity="1" stroke="#000000" stroke-opacity="1" stroke-width="3.2"/>
<circle clip-path="url(#clip252)" cx="1110.41" cy="671.148" r="14" fill="#009af9" fill-rule="evenodd" fill-opacity="1" stroke="#000000" stroke-opacity="1" stroke-width="3.2"/>
<circle clip-path="url(#clip252)" cx="1138.55" cy="691.583" r="14" fill="#009af9" fill-rule="evenodd" fill-opacity="1" stroke="#000000" stroke-opacity="1" stroke-width="3.2"/>
<circle clip-path="url(#clip252)" cx="1176.62" cy="712.019" r="14" fill="#009af9" fill-rule="evenodd" fill-opacity="1" stroke="#000000" stroke-opacity="1" stroke-width="3.2"/>
<circle clip-path="url(#clip252)" cx="1211.38" cy="732.455" r="14" fill="#009af9" fill-rule="evenodd" fill-opacity="1" stroke="#000000" stroke-opacity="1" stroke-width="3.2"/>
<circle clip-path="url(#clip252)" cx="1242.83" cy="752.89" r="14" fill="#009af9" fill-rule="evenodd" fill-opacity="1" stroke="#000000" stroke-opacity="1" stroke-width="3.2"/>
<circle clip-path="url(#clip252)" cx="1292.48" cy="773.326" r="14" fill="#009af9" fill-rule="evenodd" fill-opacity="1" stroke="#000000" stroke-opacity="1" stroke-width="3.2"/>
<circle clip-path="url(#clip252)" cx="1323.93" cy="793.762" r="14" fill="#009af9" fill-rule="evenodd" fill-opacity="1" stroke="#000000" stroke-opacity="1" stroke-width="3.2"/>
<circle clip-path="url(#clip252)" cx="1362" cy="814.197" r="14" fill="#009af9" fill-rule="evenodd" fill-opacity="1" stroke="#000000" stroke-opacity="1" stroke-width="3.2"/>
<circle clip-path="url(#clip252)" cx="1396.75" cy="834.633" r="14" fill="#009af9" fill-rule="evenodd" fill-opacity="1" stroke="#000000" stroke-opacity="1" stroke-width="3.2"/>
<circle clip-path="url(#clip252)" cx="1433.17" cy="855.069" r="14" fill="#009af9" fill-rule="evenodd" fill-opacity="1" stroke="#000000" stroke-opacity="1" stroke-width="3.2"/>
<circle clip-path="url(#clip252)" cx="1474.55" cy="875.504" r="14" fill="#009af9" fill-rule="evenodd" fill-opacity="1" stroke="#000000" stroke-opacity="1" stroke-width="3.2"/>
<circle clip-path="url(#clip252)" cx="1521.72" cy="895.94" r="14" fill="#009af9" fill-rule="evenodd" fill-opacity="1" stroke="#000000" stroke-opacity="1" stroke-width="3.2"/>
<circle clip-path="url(#clip252)" cx="1564.75" cy="916.376" r="14" fill="#009af9" fill-rule="evenodd" fill-opacity="1" stroke="#000000" stroke-opacity="1" stroke-width="3.2"/>
<circle clip-path="url(#clip252)" cx="1616.89" cy="936.811" r="14" fill="#009af9" fill-rule="evenodd" fill-opacity="1" stroke="#000000" stroke-opacity="1" stroke-width="3.2"/>
<circle clip-path="url(#clip252)" cx="1669.03" cy="957.247" r="14" fill="#009af9" fill-rule="evenodd" fill-opacity="1" stroke="#000000" stroke-opacity="1" stroke-width="3.2"/>
<circle clip-path="url(#clip252)" cx="1753.44" cy="977.683" r="14" fill="#009af9" fill-rule="evenodd" fill-opacity="1" stroke="#000000" stroke-opacity="1" stroke-width="3.2"/>
<circle clip-path="url(#clip252)" cx="1793.99" cy="998.118" r="14" fill="#009af9" fill-rule="evenodd" fill-opacity="1" stroke="#000000" stroke-opacity="1" stroke-width="3.2"/>
<circle clip-path="url(#clip252)" cx="1835.37" cy="1018.55" r="14" fill="#009af9" fill-rule="evenodd" fill-opacity="1" stroke="#000000" stroke-opacity="1" stroke-width="3.2"/>
<circle clip-path="url(#clip252)" cx="1863.51" cy="1038.99" r="14" fill="#009af9" fill-rule="evenodd" fill-opacity="1" stroke="#000000" stroke-opacity="1" stroke-width="3.2"/>
<circle clip-path="url(#clip252)" cx="1887.51" cy="1059.43" r="14" fill="#009af9" fill-rule="evenodd" fill-opacity="1" stroke="#000000" stroke-opacity="1" stroke-width="3.2"/>
<circle clip-path="url(#clip252)" cx="1920.61" cy="1079.86" r="14" fill="#009af9" fill-rule="evenodd" fill-opacity="1" stroke="#000000" stroke-opacity="1" stroke-width="3.2"/>
<circle clip-path="url(#clip252)" cx="1942.96" cy="1100.3" r="14" fill="#009af9" fill-rule="evenodd" fill-opacity="1" stroke="#000000" stroke-opacity="1" stroke-width="3.2"/>
<circle clip-path="url(#clip252)" cx="1978.54" cy="1120.73" r="14" fill="#009af9" fill-rule="evenodd" fill-opacity="1" stroke="#000000" stroke-opacity="1" stroke-width="3.2"/>
<circle clip-path="url(#clip252)" cx="1994.27" cy="1141.17" r="14" fill="#009af9" fill-rule="evenodd" fill-opacity="1" stroke="#000000" stroke-opacity="1" stroke-width="3.2"/>
<circle clip-path="url(#clip252)" cx="2022.4" cy="1161.6" r="14" fill="#009af9" fill-rule="evenodd" fill-opacity="1" stroke="#000000" stroke-opacity="1" stroke-width="3.2"/>
<circle clip-path="url(#clip252)" cx="2046.4" cy="1182.04" r="14" fill="#009af9" fill-rule="evenodd" fill-opacity="1" stroke="#000000" stroke-opacity="1" stroke-width="3.2"/>
<circle clip-path="url(#clip252)" cx="2072.89" cy="1202.47" r="14" fill="#009af9" fill-rule="evenodd" fill-opacity="1" stroke="#000000" stroke-opacity="1" stroke-width="3.2"/>
<circle clip-path="url(#clip252)" cx="2097.71" cy="1222.91" r="14" fill="#009af9" fill-rule="evenodd" fill-opacity="1" stroke="#000000" stroke-opacity="1" stroke-width="3.2"/>
<circle clip-path="url(#clip252)" cx="2115.92" cy="1243.35" r="14" fill="#009af9" fill-rule="evenodd" fill-opacity="1" stroke="#000000" stroke-opacity="1" stroke-width="3.2"/>
<circle clip-path="url(#clip252)" cx="2134.13" cy="1263.78" r="14" fill="#009af9" fill-rule="evenodd" fill-opacity="1" stroke="#000000" stroke-opacity="1" stroke-width="3.2"/>
<circle clip-path="url(#clip252)" cx="2162.26" cy="1284.22" r="14" fill="#009af9" fill-rule="evenodd" fill-opacity="1" stroke="#000000" stroke-opacity="1" stroke-width="3.2"/>
<circle clip-path="url(#clip252)" cx="2181.3" cy="1304.65" r="14" fill="#009af9" fill-rule="evenodd" fill-opacity="1" stroke="#000000" stroke-opacity="1" stroke-width="3.2"/>
<circle clip-path="url(#clip252)" cx="2207.78" cy="1325.09" r="14" fill="#009af9" fill-rule="evenodd" fill-opacity="1" stroke="#000000" stroke-opacity="1" stroke-width="3.2"/>
<circle clip-path="url(#clip252)" cx="2232.61" cy="1345.52" r="14" fill="#009af9" fill-rule="evenodd" fill-opacity="1" stroke="#000000" stroke-opacity="1" stroke-width="3.2"/>
<circle clip-path="url(#clip252)" cx="2258.26" cy="1365.96" r="14" fill="#009af9" fill-rule="evenodd" fill-opacity="1" stroke="#000000" stroke-opacity="1" stroke-width="3.2"/>
<circle clip-path="url(#clip252)" cx="2293.02" cy="1386.4" r="14" fill="#009af9" fill-rule="evenodd" fill-opacity="1" stroke="#000000" stroke-opacity="1" stroke-width="3.2"/>
<polyline clip-path="url(#clip252)" style="stroke:#e26f46; stroke-linecap:butt; stroke-linejoin:round; stroke-width:4; stroke-opacity:1; fill:none" points="
  301.869,197.944 303.862,199.064 305.856,200.184 307.849,201.304 309.842,202.424 311.835,203.544 313.828,204.664 315.821,205.785 317.814,206.905 319.808,208.025 
  321.801,209.146 323.794,210.266 325.787,211.386 327.78,212.507 329.773,213.627 331.766,214.748 333.76,215.869 335.753,216.989 337.746,218.11 339.739,219.231 
  341.732,220.352 343.725,221.472 345.718,222.593 347.712,223.714 349.705,224.835 351.698,225.956 353.691,227.077 355.684,228.198 357.677,229.32 359.67,230.441 
  361.664,231.562 363.657,232.683 365.65,233.805 367.643,234.926 369.636,236.048 371.629,237.169 373.622,238.291 375.616,239.412 377.609,240.534 379.602,241.655 
  381.595,242.777 383.588,243.899 385.581,245.021 387.574,246.143 389.568,247.264 391.561,248.386 393.554,249.508 395.547,250.63 397.54,251.752 399.533,252.875 
  401.526,253.997 403.52,255.119 405.513,256.241 407.506,257.363 409.499,258.486 411.492,259.608 413.485,260.731 415.479,261.853 417.472,262.976 419.465,264.098 
  421.458,265.221 423.451,266.343 425.444,267.466 427.437,268.589 429.431,269.712 431.424,270.834 433.417,271.957 435.41,273.08 437.403,274.203 439.396,275.326 
  441.389,276.449 443.383,277.572 445.376,278.695 447.369,279.819 449.362,280.942 451.355,282.065 453.348,283.188 455.341,284.312 457.335,285.435 459.328,286.559 
  461.321,287.682 463.314,288.806 465.307,289.929 467.3,291.053 469.293,292.177 471.287,293.3 473.28,294.424 475.273,295.548 477.266,296.672 479.259,297.796 
  481.252,298.92 483.245,300.044 485.239,301.168 487.232,302.292 489.225,303.416 491.218,304.54 493.211,305.664 495.204,306.789 497.197,307.913 499.191,309.037 
  501.184,310.162 503.177,311.286 505.17,312.411 507.163,313.535 509.156,314.66 511.149,315.784 513.143,316.909 515.136,318.034 517.129,319.158 519.122,320.283 
  521.115,321.408 523.108,322.533 525.101,323.658 527.095,324.783 529.088,325.908 531.081,327.033 533.074,328.158 535.067,329.283 537.06,330.408 539.054,331.534 
  541.047,332.659 543.04,333.784 545.033,334.91 547.026,336.035 549.019,337.161 551.012,338.286 553.006,339.412 554.999,340.537 556.992,341.663 558.985,342.789 
  560.978,343.914 562.971,345.04 564.964,346.166 566.958,347.292 568.951,348.418 570.944,349.544 572.937,350.67 574.93,351.796 576.923,352.922 578.916,354.048 
  580.91,355.174 582.903,356.3 584.896,357.427 586.889,358.553 588.882,359.679 590.875,360.806 592.868,361.932 594.862,363.059 596.855,364.185 598.848,365.312 
  600.841,366.439 602.834,367.565 604.827,368.692 606.82,369.819 608.814,370.946 610.807,372.072 612.8,373.199 614.793,374.326 616.786,375.453 618.779,376.58 
  620.772,377.707 622.766,378.835 624.759,379.962 626.752,381.089 628.745,382.216 630.738,383.344 632.731,384.471 634.724,385.598 636.718,386.726 638.711,387.853 
  640.704,388.981 642.697,390.108 644.69,391.236 646.683,392.364 648.677,393.491 650.67,394.619 652.663,395.747 654.656,396.875 656.649,398.003 658.642,399.131 
  660.635,400.259 662.629,401.387 664.622,402.515 666.615,403.643 668.608,404.771 670.601,405.899 672.594,407.027 674.587,408.156 676.581,409.284 678.574,410.412 
  680.567,411.541 682.56,412.669 684.553,413.798 686.546,414.926 688.539,416.055 690.533,417.184 692.526,418.312 694.519,419.441 696.512,420.57 698.505,421.699 
  700.498,422.828 702.491,423.957 704.485,425.086 706.478,426.215 708.471,427.344 710.464,428.473 712.457,429.602 714.45,430.731 716.443,431.86 718.437,432.99 
  720.43,434.119 722.423,435.248 724.416,436.378 726.409,437.507 728.402,438.637 730.395,439.766 732.389,440.896 734.382,442.026 736.375,443.155 738.368,444.285 
  740.361,445.415 742.354,446.545 744.347,447.674 746.341,448.804 748.334,449.934 750.327,451.064 752.32,452.194 754.313,453.324 756.306,454.455 758.299,455.585 
  760.293,456.715 762.286,457.845 764.279,458.976 766.272,460.106 768.265,461.236 770.258,462.367 772.252,463.497 774.245,464.628 776.238,465.758 778.231,466.889 
  780.224,468.02 782.217,469.15 784.21,470.281 786.204,471.412 788.197,472.543 790.19,473.674 792.183,474.805 794.176,475.936 796.169,477.067 798.162,478.198 
  800.156,479.329 802.149,480.46 804.142,481.591 806.135,482.723 808.128,483.854 810.121,484.985 812.114,486.117 814.108,487.248 816.101,488.38 818.094,489.511 
  820.087,490.643 822.08,491.774 824.073,492.906 826.066,494.038 828.06,495.169 830.053,496.301 832.046,497.433 834.039,498.565 836.032,499.697 838.025,500.829 
  840.018,501.961 842.012,503.093 844.005,504.225 845.998,505.357 847.991,506.489 849.984,507.622 851.977,508.754 853.97,509.886 855.964,511.019 857.957,512.151 
  859.95,513.284 861.943,514.416 863.936,515.549 865.929,516.681 867.922,517.814 869.916,518.947 871.909,520.079 873.902,521.212 875.895,522.345 877.888,523.478 
  879.881,524.611 881.874,525.744 883.868,526.877 885.861,528.01 887.854,529.143 889.847,530.276 891.84,531.409 893.833,532.542 895.827,533.676 897.82,534.809 
  899.813,535.942 901.806,537.076 903.799,538.209 905.792,539.343 907.785,540.476 909.779,541.61 911.772,542.744 913.765,543.877 915.758,545.011 917.751,546.145 
  919.744,547.278 921.737,548.412 923.731,549.546 925.724,550.68 927.717,551.814 929.71,552.948 931.703,554.082 933.696,555.216 935.689,556.351 937.683,557.485 
  939.676,558.619 941.669,559.753 943.662,560.888 945.655,562.022 947.648,563.157 949.641,564.291 951.635,565.426 953.628,566.56 955.621,567.695 957.614,568.829 
  959.607,569.964 961.6,571.099 963.593,572.234 965.587,573.369 967.58,574.504 969.573,575.638 971.566,576.773 973.559,577.908 975.552,579.044 977.545,580.179 
  979.539,581.314 981.532,582.449 983.525,583.584 985.518,584.72 987.511,585.855 989.504,586.99 991.497,588.126 993.491,589.261 995.484,590.397 997.477,591.532 
  999.47,592.668 1001.46,593.804 1003.46,594.939 1005.45,596.075 1007.44,597.211 1009.44,598.347 1011.43,599.482 1013.42,600.618 1015.42,601.754 1017.41,602.89 
  1019.4,604.026 1021.39,605.163 1023.39,606.299 1025.38,607.435 1027.37,608.571 1029.37,609.707 1031.36,610.844 1033.35,611.98 1035.35,613.116 1037.34,614.253 
  1039.33,615.389 1041.33,616.526 1043.32,617.663 1045.31,618.799 1047.31,619.936 1049.3,621.073 1051.29,622.209 1053.28,623.346 1055.28,624.483 1057.27,625.62 
  1059.26,626.757 1061.26,627.894 1063.25,629.031 1065.24,630.168 1067.24,631.305 1069.23,632.442 1071.22,633.58 1073.22,634.717 1075.21,635.854 1077.2,636.992 
  1079.2,638.129 1081.19,639.266 1083.18,640.404 1085.18,641.541 1087.17,642.679 1089.16,643.817 1091.15,644.954 1093.15,646.092 1095.14,647.23 1097.13,648.368 
  1099.13,649.505 1101.12,650.643 1103.11,651.781 1105.11,652.919 1107.1,654.057 1109.09,655.195 1111.09,656.334 1113.08,657.472 1115.07,658.61 1117.07,659.748 
  1119.06,660.886 1121.05,662.025 1123.05,663.163 1125.04,664.302 1127.03,665.44 1129.02,666.579 1131.02,667.717 1133.01,668.856 1135,669.994 1137,671.133 
  1138.99,672.272 1140.98,673.411 1142.98,674.55 1144.97,675.688 1146.96,676.827 1148.96,677.966 1150.95,679.105 1152.94,680.244 1154.94,681.384 1156.93,682.523 
  1158.92,683.662 1160.91,684.801 1162.91,685.94 1164.9,687.08 1166.89,688.219 1168.89,689.359 1170.88,690.498 1172.87,691.638 1174.87,692.777 1176.86,693.917 
  1178.85,695.056 1180.85,696.196 1182.84,697.336 1184.83,698.476 1186.83,699.615 1188.82,700.755 1190.81,701.895 1192.81,703.035 1194.8,704.175 1196.79,705.315 
  1198.78,706.455 1200.78,707.595 1202.77,708.736 1204.76,709.876 1206.76,711.016 1208.75,712.156 1210.74,713.297 1212.74,714.437 1214.73,715.578 1216.72,716.718 
  1218.72,717.859 1220.71,718.999 1222.7,720.14 1224.7,721.281 1226.69,722.421 1228.68,723.562 1230.67,724.703 1232.67,725.844 1234.66,726.985 1236.65,728.126 
  1238.65,729.267 1240.64,730.408 1242.63,731.549 1244.63,732.69 1246.62,733.831 1248.61,734.972 1250.61,736.113 1252.6,737.255 1254.59,738.396 1256.59,739.537 
  1258.58,740.679 1260.57,741.82 1262.57,742.962 1264.56,744.104 1266.55,745.245 1268.54,746.387 1270.54,747.528 1272.53,748.67 1274.52,749.812 1276.52,750.954 
  1278.51,752.096 1280.5,753.238 1282.5,754.38 1284.49,755.522 1286.48,756.664 1288.48,757.806 1290.47,758.948 1292.46,760.09 1294.46,761.232 1296.45,762.375 
  1298.44,763.517 1300.44,764.66 1302.43,765.802 1304.42,766.944 1306.41,768.087 1308.41,769.229 1310.4,770.372 1312.39,771.515 1314.39,772.657 1316.38,773.8 
  1318.37,774.943 1320.37,776.086 1322.36,777.229 1324.35,778.372 1326.35,779.515 1328.34,780.658 1330.33,781.801 1332.33,782.944 1334.32,784.087 1336.31,785.23 
  1338.3,786.373 1340.3,787.517 1342.29,788.66 1344.28,789.803 1346.28,790.947 1348.27,792.09 1350.26,793.234 1352.26,794.377 1354.25,795.521 1356.24,796.664 
  1358.24,797.808 1360.23,798.952 1362.22,800.096 1364.22,801.239 1366.21,802.383 1368.2,803.527 1370.2,804.671 1372.19,805.815 1374.18,806.959 1376.17,808.103 
  1378.17,809.247 1380.16,810.392 1382.15,811.536 1384.15,812.68 1386.14,813.824 1388.13,814.969 1390.13,816.113 1392.12,817.258 1394.11,818.402 1396.11,819.547 
  1398.1,820.691 1400.09,821.836 1402.09,822.98 1404.08,824.125 1406.07,825.27 1408.06,826.415 1410.06,827.56 1412.05,828.704 1414.04,829.849 1416.04,830.994 
  1418.03,832.139 1420.02,833.284 1422.02,834.43 1424.01,835.575 1426,836.72 1428,837.865 1429.99,839.01 1431.98,840.156 1433.98,841.301 1435.97,842.447 
  1437.96,843.592 1439.96,844.738 1441.95,845.883 1443.94,847.029 1445.93,848.174 1447.93,849.32 1449.92,850.466 1451.91,851.612 1453.91,852.758 1455.9,853.903 
  1457.89,855.049 1459.89,856.195 1461.88,857.341 1463.87,858.487 1465.87,859.633 1467.86,860.78 1469.85,861.926 1471.85,863.072 1473.84,864.218 1475.83,865.365 
  1477.82,866.511 1479.82,867.657 1481.81,868.804 1483.8,869.95 1485.8,871.097 1487.79,872.244 1489.78,873.39 1491.78,874.537 1493.77,875.684 1495.76,876.83 
  1497.76,877.977 1499.75,879.124 1501.74,880.271 1503.74,881.418 1505.73,882.565 1507.72,883.712 1509.72,884.859 1511.71,886.006 1513.7,887.153 1515.69,888.301 
  1517.69,889.448 1519.68,890.595 1521.67,891.743 1523.67,892.89 1525.66,894.037 1527.65,895.185 1529.65,896.332 1531.64,897.48 1533.63,898.628 1535.63,899.775 
  1537.62,900.923 1539.61,902.071 1541.61,903.219 1543.6,904.367 1545.59,905.514 1547.59,906.662 1549.58,907.81 1551.57,908.958 1553.56,910.106 1555.56,911.255 
  1557.55,912.403 1559.54,913.551 1561.54,914.699 1563.53,915.848 1565.52,916.996 1567.52,918.144 1569.51,919.293 1571.5,920.441 1573.5,921.59 1575.49,922.738 
  1577.48,923.887 1579.48,925.036 1581.47,926.184 1583.46,927.333 1585.45,928.482 1587.45,929.631 1589.44,930.78 1591.43,931.928 1593.43,933.077 1595.42,934.226 
  1597.41,935.375 1599.41,936.525 1601.4,937.674 1603.39,938.823 1605.39,939.972 1607.38,941.121 1609.37,942.271 1611.37,943.42 1613.36,944.57 1615.35,945.719 
  1617.35,946.869 1619.34,948.018 1621.33,949.168 1623.32,950.317 1625.32,951.467 1627.31,952.617 1629.3,953.767 1631.3,954.916 1633.29,956.066 1635.28,957.216 
  1637.28,958.366 1639.27,959.516 1641.26,960.666 1643.26,961.816 1645.25,962.966 1647.24,964.117 1649.24,965.267 1651.23,966.417 1653.22,967.567 1655.21,968.718 
  1657.21,969.868 1659.2,971.019 1661.19,972.169 1663.19,973.32 1665.18,974.47 1667.17,975.621 1669.17,976.772 1671.16,977.922 1673.15,979.073 1675.15,980.224 
  1677.14,981.375 1679.13,982.526 1681.13,983.677 1683.12,984.828 1685.11,985.979 1687.11,987.13 1689.1,988.281 1691.09,989.432 1693.08,990.583 1695.08,991.735 
  1697.07,992.886 1699.06,994.037 1701.06,995.189 1703.05,996.34 1705.04,997.492 1707.04,998.643 1709.03,999.795 1711.02,1000.95 1713.02,1002.1 1715.01,1003.25 
  1717,1004.4 1719,1005.55 1720.99,1006.71 1722.98,1007.86 1724.97,1009.01 1726.97,1010.16 1728.96,1011.31 1730.95,1012.46 1732.95,1013.62 1734.94,1014.77 
  1736.93,1015.92 1738.93,1017.07 1740.92,1018.23 1742.91,1019.38 1744.91,1020.53 1746.9,1021.68 1748.89,1022.84 1750.89,1023.99 1752.88,1025.14 1754.87,1026.29 
  1756.87,1027.45 1758.86,1028.6 1760.85,1029.75 1762.84,1030.9 1764.84,1032.06 1766.83,1033.21 1768.82,1034.36 1770.82,1035.52 1772.81,1036.67 1774.8,1037.82 
  1776.8,1038.97 1778.79,1040.13 1780.78,1041.28 1782.78,1042.43 1784.77,1043.59 1786.76,1044.74 1788.76,1045.89 1790.75,1047.05 1792.74,1048.2 1794.74,1049.35 
  1796.73,1050.51 1798.72,1051.66 1800.71,1052.82 1802.71,1053.97 1804.7,1055.12 1806.69,1056.28 1808.69,1057.43 1810.68,1058.58 1812.67,1059.74 1814.67,1060.89 
  1816.66,1062.05 1818.65,1063.2 1820.65,1064.35 1822.64,1065.51 1824.63,1066.66 1826.63,1067.82 1828.62,1068.97 1830.61,1070.13 1832.6,1071.28 1834.6,1072.43 
  1836.59,1073.59 1838.58,1074.74 1840.58,1075.9 1842.57,1077.05 1844.56,1078.21 1846.56,1079.36 1848.55,1080.52 1850.54,1081.67 1852.54,1082.83 1854.53,1083.98 
  1856.52,1085.14 1858.52,1086.29 1860.51,1087.45 1862.5,1088.6 1864.5,1089.76 1866.49,1090.91 1868.48,1092.07 1870.47,1093.22 1872.47,1094.38 1874.46,1095.53 
  1876.45,1096.69 1878.45,1097.84 1880.44,1099 1882.43,1100.15 1884.43,1101.31 1886.42,1102.46 1888.41,1103.62 1890.41,1104.78 1892.4,1105.93 1894.39,1107.09 
  1896.39,1108.24 1898.38,1109.4 1900.37,1110.55 1902.36,1111.71 1904.36,1112.87 1906.35,1114.02 1908.34,1115.18 1910.34,1116.33 1912.33,1117.49 1914.32,1118.65 
  1916.32,1119.8 1918.31,1120.96 1920.3,1122.12 1922.3,1123.27 1924.29,1124.43 1926.28,1125.59 1928.28,1126.74 1930.27,1127.9 1932.26,1129.05 1934.26,1130.21 
  1936.25,1131.37 1938.24,1132.52 1940.23,1133.68 1942.23,1134.84 1944.22,1136 1946.21,1137.15 1948.21,1138.31 1950.2,1139.47 1952.19,1140.62 1954.19,1141.78 
  1956.18,1142.94 1958.17,1144.09 1960.17,1145.25 1962.16,1146.41 1964.15,1147.57 1966.15,1148.72 1968.14,1149.88 1970.13,1151.04 1972.12,1152.2 1974.12,1153.35 
  1976.11,1154.51 1978.1,1155.67 1980.1,1156.83 1982.09,1157.98 1984.08,1159.14 1986.08,1160.3 1988.07,1161.46 1990.06,1162.62 1992.06,1163.77 1994.05,1164.93 
  1996.04,1166.09 1998.04,1167.25 2000.03,1168.41 2002.02,1169.56 2004.02,1170.72 2006.01,1171.88 2008,1173.04 2009.99,1174.2 2011.99,1175.36 2013.98,1176.51 
  2015.97,1177.67 2017.97,1178.83 2019.96,1179.99 2021.95,1181.15 2023.95,1182.31 2025.94,1183.47 2027.93,1184.62 2029.93,1185.78 2031.92,1186.94 2033.91,1188.1 
  2035.91,1189.26 2037.9,1190.42 2039.89,1191.58 2041.89,1192.74 2043.88,1193.9 2045.87,1195.06 2047.86,1196.21 2049.86,1197.37 2051.85,1198.53 2053.84,1199.69 
  2055.84,1200.85 2057.83,1202.01 2059.82,1203.17 2061.82,1204.33 2063.81,1205.49 2065.8,1206.65 2067.8,1207.81 2069.79,1208.97 2071.78,1210.13 2073.78,1211.29 
  2075.77,1212.45 2077.76,1213.61 2079.75,1214.77 2081.75,1215.93 2083.74,1217.09 2085.73,1218.25 2087.73,1219.41 2089.72,1220.57 2091.71,1221.73 2093.71,1222.89 
  2095.7,1224.05 2097.69,1225.21 2099.69,1226.37 2101.68,1227.53 2103.67,1228.69 2105.67,1229.85 2107.66,1231.01 2109.65,1232.17 2111.65,1233.33 2113.64,1234.49 
  2115.63,1235.65 2117.62,1236.81 2119.62,1237.98 2121.61,1239.14 2123.6,1240.3 2125.6,1241.46 2127.59,1242.62 2129.58,1243.78 2131.58,1244.94 2133.57,1246.1 
  2135.56,1247.26 2137.56,1248.42 2139.55,1249.59 2141.54,1250.75 2143.54,1251.91 2145.53,1253.07 2147.52,1254.23 2149.51,1255.39 2151.51,1256.55 2153.5,1257.72 
  2155.49,1258.88 2157.49,1260.04 2159.48,1261.2 2161.47,1262.36 2163.47,1263.52 2165.46,1264.69 2167.45,1265.85 2169.45,1267.01 2171.44,1268.17 2173.43,1269.33 
  2175.43,1270.5 2177.42,1271.66 2179.41,1272.82 2181.41,1273.98 2183.4,1275.15 2185.39,1276.31 2187.38,1277.47 2189.38,1278.63 2191.37,1279.79 2193.36,1280.96 
  2195.36,1282.12 2197.35,1283.28 2199.34,1284.44 2201.34,1285.61 2203.33,1286.77 2205.32,1287.93 2207.32,1289.1 2209.31,1290.26 2211.3,1291.42 2213.3,1292.58 
  2215.29,1293.75 2217.28,1294.91 2219.27,1296.07 2221.27,1297.24 2223.26,1298.4 2225.25,1299.56 2227.25,1300.73 2229.24,1301.89 2231.23,1303.05 2233.23,1304.22 
  2235.22,1305.38 2237.21,1306.54 2239.21,1307.71 2241.2,1308.87 2243.19,1310.03 2245.19,1311.2 2247.18,1312.36 2249.17,1313.52 2251.17,1314.69 2253.16,1315.85 
  2255.15,1317.02 2257.14,1318.18 2259.14,1319.34 2261.13,1320.51 2263.12,1321.67 2265.12,1322.84 2267.11,1324 2269.1,1325.16 2271.1,1326.33 2273.09,1327.49 
  2275.08,1328.66 2277.08,1329.82 2279.07,1330.99 2281.06,1332.15 2283.06,1333.31 2285.05,1334.48 2287.04,1335.64 2289.04,1336.81 2291.03,1337.97 2293.02,1339.14 
  
  "/>
<path clip-path="url(#clip250)" d="
M1383.66 322.316 L2282.4 322.316 L2282.4 166.796 L1383.66 166.796  Z
  " fill="#ffffff" fill-rule="evenodd" fill-opacity="1"/>
<polyline clip-path="url(#clip250)" style="stroke:#000000; stroke-linecap:butt; stroke-linejoin:round; stroke-width:4; stroke-opacity:1; fill:none" points="
  1383.66,322.316 2282.4,322.316 2282.4,166.796 1383.66,166.796 1383.66,322.316 
  "/>
<circle clip-path="url(#clip250)" cx="1477.46" cy="218.636" r="23" fill="#009af9" fill-rule="evenodd" fill-opacity="1" stroke="#000000" stroke-opacity="1" stroke-width="5.12"/>
<path clip-path="url(#clip250)" d="M1590.18 213.925 L1590.18 199.897 L1594.44 199.897 L1594.44 235.916 L1590.18 235.916 L1590.18 232.027 Q1588.84 234.342 1586.78 235.476 Q1584.74 236.587 1581.87 236.587 Q1577.17 236.587 1574.21 232.837 Q1571.27 229.087 1571.27 222.976 Q1571.27 216.865 1574.21 213.115 Q1577.17 209.365 1581.87 209.365 Q1584.74 209.365 1586.78 210.499 Q1588.84 211.61 1590.18 213.925 M1575.66 222.976 Q1575.66 227.675 1577.59 230.36 Q1579.53 233.022 1582.91 233.022 Q1586.29 233.022 1588.23 230.36 Q1590.18 227.675 1590.18 222.976 Q1590.18 218.277 1588.23 215.615 Q1586.29 212.93 1582.91 212.93 Q1579.53 212.93 1577.59 215.615 Q1575.66 218.277 1575.66 222.976 Z" fill="#000000" fill-rule="evenodd" fill-opacity="1" /><path clip-path="url(#clip250)" d="M1621.82 222.976 Q1621.82 218.277 1619.88 215.615 Q1617.96 212.93 1614.58 212.93 Q1611.2 212.93 1609.25 215.615 Q1607.33 218.277 1607.33 222.976 Q1607.33 227.675 1609.25 230.36 Q1611.2 233.022 1614.58 233.022 Q1617.96 233.022 1619.88 230.36 Q1621.82 227.675 1621.82 222.976 M1607.33 213.925 Q1608.67 211.61 1610.71 210.499 Q1612.77 209.365 1615.62 209.365 Q1620.34 209.365 1623.28 213.115 Q1626.24 216.865 1626.24 222.976 Q1626.24 229.087 1623.28 232.837 Q1620.34 236.587 1615.62 236.587 Q1612.77 236.587 1610.71 235.476 Q1608.67 234.342 1607.33 232.027 L1607.33 235.916 L1603.05 235.916 L1603.05 199.897 L1607.33 199.897 L1607.33 213.925 Z" fill="#000000" fill-rule="evenodd" fill-opacity="1" /><path clip-path="url(#clip250)" d="M1653.49 214.967 Q1655.09 212.096 1657.31 210.731 Q1659.53 209.365 1662.54 209.365 Q1666.59 209.365 1668.79 212.212 Q1670.99 215.036 1670.99 220.268 L1670.99 235.916 L1666.71 235.916 L1666.71 220.407 Q1666.71 216.68 1665.39 214.874 Q1664.07 213.069 1661.36 213.069 Q1658.05 213.069 1656.13 215.268 Q1654.21 217.467 1654.21 221.263 L1654.21 235.916 L1649.92 235.916 L1649.92 220.407 Q1649.92 216.657 1648.6 214.874 Q1647.28 213.069 1644.53 213.069 Q1641.27 213.069 1639.34 215.291 Q1637.42 217.49 1637.42 221.263 L1637.42 235.916 L1633.14 235.916 L1633.14 209.99 L1637.42 209.99 L1637.42 214.018 Q1638.88 211.633 1640.92 210.499 Q1642.96 209.365 1645.76 209.365 Q1648.58 209.365 1650.55 210.8 Q1652.54 212.235 1653.49 214.967 Z" fill="#000000" fill-rule="evenodd" fill-opacity="1" /><path clip-path="url(#clip250)" d="M1680.57 230.036 L1685.46 230.036 L1685.46 234.018 L1681.66 241.425 L1678.67 241.425 L1680.57 234.018 L1680.57 230.036 Z" fill="#000000" fill-rule="evenodd" fill-opacity="1" /><path clip-path="url(#clip250)" d="M1721.36 205.962 L1715.02 223.161 L1727.72 223.161 L1721.36 205.962 M1718.72 201.356 L1724.02 201.356 L1737.19 235.916 L1732.33 235.916 L1729.18 227.05 L1713.6 227.05 L1710.46 235.916 L1705.53 235.916 L1718.72 201.356 Z" fill="#000000" fill-rule="evenodd" fill-opacity="1" /><path clip-path="url(#clip250)" d="M1746.91 205.198 L1746.91 232.073 L1752.56 232.073 Q1759.71 232.073 1763.02 228.832 Q1766.36 225.592 1766.36 218.601 Q1766.36 211.657 1763.02 208.439 Q1759.71 205.198 1752.56 205.198 L1746.91 205.198 M1742.24 201.356 L1751.84 201.356 Q1761.89 201.356 1766.59 205.546 Q1771.29 209.712 1771.29 218.601 Q1771.29 227.536 1766.57 231.726 Q1761.84 235.916 1751.84 235.916 L1742.24 235.916 L1742.24 201.356 Z" fill="#000000" fill-rule="evenodd" fill-opacity="1" /><path clip-path="url(#clip250)" d="M1804.62 204.018 L1804.62 208.948 Q1802.26 206.749 1799.58 205.661 Q1796.91 204.573 1793.9 204.573 Q1787.98 204.573 1784.83 208.208 Q1781.68 211.819 1781.68 218.67 Q1781.68 225.499 1784.83 229.133 Q1787.98 232.744 1793.9 232.744 Q1796.91 232.744 1799.58 231.656 Q1802.26 230.569 1804.62 228.369 L1804.62 233.254 Q1802.17 234.92 1799.41 235.754 Q1796.68 236.587 1793.63 236.587 Q1785.78 236.587 1781.27 231.795 Q1776.75 226.981 1776.75 218.67 Q1776.75 210.337 1781.27 205.546 Q1785.78 200.731 1793.63 200.731 Q1796.73 200.731 1799.46 201.564 Q1802.21 202.374 1804.62 204.018 Z" fill="#000000" fill-rule="evenodd" fill-opacity="1" /><path clip-path="url(#clip250)" d="M1830.85 232.027 L1830.85 245.777 L1826.57 245.777 L1826.57 209.99 L1830.85 209.99 L1830.85 213.925 Q1832.19 211.61 1834.23 210.499 Q1836.29 209.365 1839.14 209.365 Q1843.86 209.365 1846.8 213.115 Q1849.76 216.865 1849.76 222.976 Q1849.76 229.087 1846.8 232.837 Q1843.86 236.587 1839.14 236.587 Q1836.29 236.587 1834.23 235.476 Q1832.19 234.342 1830.85 232.027 M1845.34 222.976 Q1845.34 218.277 1843.39 215.615 Q1841.47 212.93 1838.09 212.93 Q1834.71 212.93 1832.77 215.615 Q1830.85 218.277 1830.85 222.976 Q1830.85 227.675 1832.77 230.36 Q1834.71 233.022 1838.09 233.022 Q1841.47 233.022 1843.39 230.36 Q1845.34 227.675 1845.34 222.976 Z" fill="#000000" fill-rule="evenodd" fill-opacity="1" /><path clip-path="url(#clip250)" d="M1868.6 222.883 Q1863.44 222.883 1861.45 224.064 Q1859.46 225.244 1859.46 228.092 Q1859.46 230.36 1860.94 231.703 Q1862.45 233.022 1865.02 233.022 Q1868.56 233.022 1870.69 230.522 Q1872.84 227.999 1872.84 223.832 L1872.84 222.883 L1868.6 222.883 M1877.1 221.124 L1877.1 235.916 L1872.84 235.916 L1872.84 231.981 Q1871.38 234.342 1869.2 235.476 Q1867.03 236.587 1863.88 236.587 Q1859.9 236.587 1857.54 234.365 Q1855.2 232.119 1855.2 228.369 Q1855.2 223.994 1858.12 221.772 Q1861.06 219.55 1866.87 219.55 L1872.84 219.55 L1872.84 219.133 Q1872.84 216.194 1870.89 214.596 Q1868.97 212.976 1865.48 212.976 Q1863.26 212.976 1861.15 213.508 Q1859.04 214.041 1857.1 215.106 L1857.1 211.17 Q1859.44 210.268 1861.64 209.828 Q1863.83 209.365 1865.92 209.365 Q1871.54 209.365 1874.32 212.282 Q1877.1 215.198 1877.1 221.124 Z" fill="#000000" fill-rule="evenodd" fill-opacity="1" /><path clip-path="url(#clip250)" d="M1885.87 209.99 L1890.13 209.99 L1890.13 235.916 L1885.87 235.916 L1885.87 209.99 M1885.87 199.897 L1890.13 199.897 L1890.13 205.291 L1885.87 205.291 L1885.87 199.897 Z" fill="#000000" fill-rule="evenodd" fill-opacity="1" /><path clip-path="url(#clip250)" d="M1914.07 213.971 Q1913.35 213.555 1912.49 213.37 Q1911.66 213.161 1910.64 213.161 Q1907.03 213.161 1905.08 215.522 Q1903.16 217.86 1903.16 222.258 L1903.16 235.916 L1898.88 235.916 L1898.88 209.99 L1903.16 209.99 L1903.16 214.018 Q1904.51 211.657 1906.66 210.522 Q1908.81 209.365 1911.89 209.365 Q1912.33 209.365 1912.86 209.434 Q1913.39 209.481 1914.04 209.596 L1914.07 213.971 Z" fill="#000000" fill-rule="evenodd" fill-opacity="1" /><path clip-path="url(#clip250)" d="M1935.06 210.754 L1935.06 214.782 Q1933.26 213.856 1931.31 213.393 Q1929.37 212.93 1927.28 212.93 Q1924.11 212.93 1922.51 213.902 Q1920.94 214.874 1920.94 216.819 Q1920.94 218.3 1922.07 219.157 Q1923.21 219.99 1926.64 220.754 L1928.09 221.078 Q1932.63 222.05 1934.53 223.832 Q1936.45 225.592 1936.45 228.763 Q1936.45 232.374 1933.58 234.481 Q1930.73 236.587 1925.73 236.587 Q1923.65 236.587 1921.38 236.17 Q1919.14 235.777 1916.64 234.967 L1916.64 230.569 Q1919 231.795 1921.29 232.42 Q1923.58 233.022 1925.82 233.022 Q1928.83 233.022 1930.45 232.004 Q1932.07 230.962 1932.07 229.087 Q1932.07 227.351 1930.89 226.425 Q1929.74 225.499 1925.78 224.643 L1924.3 224.295 Q1920.34 223.462 1918.58 221.749 Q1916.82 220.013 1916.82 217.004 Q1916.82 213.346 1919.41 211.356 Q1922.01 209.365 1926.77 209.365 Q1929.14 209.365 1931.22 209.712 Q1933.3 210.059 1935.06 210.754 Z" fill="#000000" fill-rule="evenodd" fill-opacity="1" /><polyline clip-path="url(#clip250)" style="stroke:#e26f46; stroke-linecap:butt; stroke-linejoin:round; stroke-width:4; stroke-opacity:1; fill:none" points="
  1407.11,270.476 1547.82,270.476 
  "/>
<path clip-path="url(#clip250)" d="M1587.77 251.737 L1587.77 255.279 L1583.7 255.279 Q1581.41 255.279 1580.5 256.205 Q1579.62 257.131 1579.62 259.538 L1579.62 261.83 L1586.64 261.83 L1586.64 265.14 L1579.62 265.14 L1579.62 287.756 L1575.34 287.756 L1575.34 265.14 L1571.27 265.14 L1571.27 261.83 L1575.34 261.83 L1575.34 260.024 Q1575.34 255.696 1577.35 253.728 Q1579.37 251.737 1583.74 251.737 L1587.77 251.737 Z" fill="#000000" fill-rule="evenodd" fill-opacity="1" /><path clip-path="url(#clip250)" d="M1591.34 261.83 L1595.6 261.83 L1595.6 287.756 L1591.34 287.756 L1591.34 261.83 M1591.34 251.737 L1595.6 251.737 L1595.6 257.131 L1591.34 257.131 L1591.34 251.737 Z" fill="#000000" fill-rule="evenodd" fill-opacity="1" /><path clip-path="url(#clip250)" d="M1608.72 254.469 L1608.72 261.83 L1617.49 261.83 L1617.49 265.14 L1608.72 265.14 L1608.72 279.214 Q1608.72 282.385 1609.58 283.288 Q1610.46 284.191 1613.12 284.191 L1617.49 284.191 L1617.49 287.756 L1613.12 287.756 Q1608.19 287.756 1606.31 285.927 Q1604.44 284.075 1604.44 279.214 L1604.44 265.14 L1601.31 265.14 L1601.31 261.83 L1604.44 261.83 L1604.44 254.469 L1608.72 254.469 Z" fill="#000000" fill-rule="evenodd" fill-opacity="1" /><path clip-path="url(#clip250)" d="M1651.29 251.737 L1651.29 255.279 L1647.22 255.279 Q1644.92 255.279 1644.02 256.205 Q1643.14 257.131 1643.14 259.538 L1643.14 261.83 L1650.16 261.83 L1650.16 265.14 L1643.14 265.14 L1643.14 287.756 L1638.86 287.756 L1638.86 265.14 L1634.78 265.14 L1634.78 261.83 L1638.86 261.83 L1638.86 260.024 Q1638.86 255.696 1640.87 253.728 Q1642.89 251.737 1647.26 251.737 L1651.29 251.737 Z" fill="#000000" fill-rule="evenodd" fill-opacity="1" /><path clip-path="url(#clip250)" d="M1654.41 277.524 L1654.41 261.83 L1658.67 261.83 L1658.67 277.362 Q1658.67 281.043 1660.11 282.895 Q1661.54 284.723 1664.41 284.723 Q1667.86 284.723 1669.85 282.524 Q1671.87 280.325 1671.87 276.529 L1671.87 261.83 L1676.13 261.83 L1676.13 287.756 L1671.87 287.756 L1671.87 283.774 Q1670.32 286.135 1668.26 287.293 Q1666.22 288.427 1663.51 288.427 Q1659.04 288.427 1656.73 285.649 Q1654.41 282.871 1654.41 277.524 M1665.13 261.205 L1665.13 261.205 Z" fill="#000000" fill-rule="evenodd" fill-opacity="1" /><path clip-path="url(#clip250)" d="M1706.45 272.108 L1706.45 287.756 L1702.19 287.756 L1702.19 272.247 Q1702.19 268.566 1700.76 266.737 Q1699.32 264.909 1696.45 264.909 Q1693 264.909 1691.01 267.108 Q1689.02 269.307 1689.02 273.103 L1689.02 287.756 L1684.74 287.756 L1684.74 261.83 L1689.02 261.83 L1689.02 265.858 Q1690.55 263.52 1692.61 262.362 Q1694.69 261.205 1697.4 261.205 Q1701.87 261.205 1704.16 263.983 Q1706.45 266.737 1706.45 272.108 Z" fill="#000000" fill-rule="evenodd" fill-opacity="1" /><path clip-path="url(#clip250)" d="M1733.6 262.825 L1733.6 266.807 Q1731.8 265.811 1729.97 265.325 Q1728.16 264.816 1726.31 264.816 Q1722.17 264.816 1719.88 267.455 Q1717.59 270.071 1717.59 274.816 Q1717.59 279.561 1719.88 282.2 Q1722.17 284.816 1726.31 284.816 Q1728.16 284.816 1729.97 284.33 Q1731.8 283.821 1733.6 282.825 L1733.6 286.76 Q1731.82 287.594 1729.9 288.01 Q1728 288.427 1725.85 288.427 Q1719.99 288.427 1716.54 284.746 Q1713.09 281.066 1713.09 274.816 Q1713.09 268.473 1716.57 264.839 Q1720.06 261.205 1726.13 261.205 Q1728.09 261.205 1729.97 261.622 Q1731.84 262.015 1733.6 262.825 Z" fill="#000000" fill-rule="evenodd" fill-opacity="1" /><path clip-path="url(#clip250)" d="M1745.22 254.469 L1745.22 261.83 L1754 261.83 L1754 265.14 L1745.22 265.14 L1745.22 279.214 Q1745.22 282.385 1746.08 283.288 Q1746.96 284.191 1749.62 284.191 L1754 284.191 L1754 287.756 L1749.62 287.756 Q1744.69 287.756 1742.82 285.927 Q1740.94 284.075 1740.94 279.214 L1740.94 265.14 L1737.82 265.14 L1737.82 261.83 L1740.94 261.83 L1740.94 254.469 L1745.22 254.469 Z" fill="#000000" fill-rule="evenodd" fill-opacity="1" /><path clip-path="url(#clip250)" d="M1759.6 261.83 L1763.86 261.83 L1763.86 287.756 L1759.6 287.756 L1759.6 261.83 M1759.6 251.737 L1763.86 251.737 L1763.86 257.131 L1759.6 257.131 L1759.6 251.737 Z" fill="#000000" fill-rule="evenodd" fill-opacity="1" /><path clip-path="url(#clip250)" d="M1782.82 264.816 Q1779.39 264.816 1777.4 267.501 Q1775.41 270.163 1775.41 274.816 Q1775.41 279.469 1777.38 282.154 Q1779.37 284.816 1782.82 284.816 Q1786.22 284.816 1788.21 282.131 Q1790.2 279.446 1790.2 274.816 Q1790.2 270.21 1788.21 267.524 Q1786.22 264.816 1782.82 264.816 M1782.82 261.205 Q1788.37 261.205 1791.54 264.816 Q1794.71 268.427 1794.71 274.816 Q1794.71 281.182 1791.54 284.816 Q1788.37 288.427 1782.82 288.427 Q1777.24 288.427 1774.07 284.816 Q1770.92 281.182 1770.92 274.816 Q1770.92 268.427 1774.07 264.816 Q1777.24 261.205 1782.82 261.205 Z" fill="#000000" fill-rule="evenodd" fill-opacity="1" /><path clip-path="url(#clip250)" d="M1823.33 272.108 L1823.33 287.756 L1819.07 287.756 L1819.07 272.247 Q1819.07 268.566 1817.63 266.737 Q1816.2 264.909 1813.33 264.909 Q1809.88 264.909 1807.89 267.108 Q1805.89 269.307 1805.89 273.103 L1805.89 287.756 L1801.61 287.756 L1801.61 261.83 L1805.89 261.83 L1805.89 265.858 Q1807.42 263.52 1809.48 262.362 Q1811.57 261.205 1814.27 261.205 Q1818.74 261.205 1821.03 263.983 Q1823.33 266.737 1823.33 272.108 Z" fill="#000000" fill-rule="evenodd" fill-opacity="1" /><path clip-path="url(#clip250)" d="M1832.91 281.876 L1837.79 281.876 L1837.79 285.858 L1834 293.265 L1831.01 293.265 L1832.91 285.858 L1832.91 281.876 Z" fill="#000000" fill-rule="evenodd" fill-opacity="1" /><path clip-path="url(#clip250)" d="M1884.14 273.728 L1884.14 275.811 L1864.55 275.811 Q1864.83 280.209 1867.19 282.524 Q1869.58 284.816 1873.81 284.816 Q1876.26 284.816 1878.56 284.214 Q1880.87 283.612 1883.14 282.409 L1883.14 286.436 Q1880.85 287.408 1878.44 287.918 Q1876.03 288.427 1873.56 288.427 Q1867.35 288.427 1863.72 284.816 Q1860.11 281.205 1860.11 275.047 Q1860.11 268.682 1863.53 264.955 Q1866.98 261.205 1872.82 261.205 Q1878.05 261.205 1881.08 264.585 Q1884.14 267.941 1884.14 273.728 M1879.88 272.478 Q1879.83 268.983 1877.91 266.899 Q1876.01 264.816 1872.86 264.816 Q1869.3 264.816 1867.14 266.83 Q1865.02 268.844 1864.69 272.501 L1879.88 272.478 Z" fill="#000000" fill-rule="evenodd" fill-opacity="1" /><path clip-path="url(#clip250)" d="M1906.15 265.811 Q1905.43 265.395 1904.58 265.21 Q1903.74 265.001 1902.72 265.001 Q1899.11 265.001 1897.17 267.362 Q1895.25 269.7 1895.25 274.098 L1895.25 287.756 L1890.96 287.756 L1890.96 261.83 L1895.25 261.83 L1895.25 265.858 Q1896.59 263.497 1898.74 262.362 Q1900.89 261.205 1903.97 261.205 Q1904.41 261.205 1904.95 261.274 Q1905.48 261.321 1906.13 261.436 L1906.15 265.811 Z" fill="#000000" fill-rule="evenodd" fill-opacity="1" /><path clip-path="url(#clip250)" d="M1924.81 265.811 Q1924.09 265.395 1923.23 265.21 Q1922.4 265.001 1921.38 265.001 Q1917.77 265.001 1915.82 267.362 Q1913.9 269.7 1913.9 274.098 L1913.9 287.756 L1909.62 287.756 L1909.62 261.83 L1913.9 261.83 L1913.9 265.858 Q1915.25 263.497 1917.4 262.362 Q1919.55 261.205 1922.63 261.205 Q1923.07 261.205 1923.6 261.274 Q1924.14 261.321 1924.78 261.436 L1924.81 265.811 Z" fill="#000000" fill-rule="evenodd" fill-opacity="1" /><path clip-path="url(#clip250)" d="M1938.28 264.816 Q1934.85 264.816 1932.86 267.501 Q1930.87 270.163 1930.87 274.816 Q1930.87 279.469 1932.84 282.154 Q1934.83 284.816 1938.28 284.816 Q1941.68 284.816 1943.67 282.131 Q1945.66 279.446 1945.66 274.816 Q1945.66 270.21 1943.67 267.524 Q1941.68 264.816 1938.28 264.816 M1938.28 261.205 Q1943.83 261.205 1947.01 264.816 Q1950.18 268.427 1950.18 274.816 Q1950.18 281.182 1947.01 284.816 Q1943.83 288.427 1938.28 288.427 Q1932.7 288.427 1929.53 284.816 Q1926.38 281.182 1926.38 274.816 Q1926.38 268.427 1929.53 264.816 Q1932.7 261.205 1938.28 261.205 Z" fill="#000000" fill-rule="evenodd" fill-opacity="1" /><path clip-path="url(#clip250)" d="M1972.26 265.811 Q1971.54 265.395 1970.69 265.21 Q1969.85 265.001 1968.83 265.001 Q1965.22 265.001 1963.28 267.362 Q1961.36 269.7 1961.36 274.098 L1961.36 287.756 L1957.07 287.756 L1957.07 261.83 L1961.36 261.83 L1961.36 265.858 Q1962.7 263.497 1964.85 262.362 Q1967.01 261.205 1970.08 261.205 Q1970.52 261.205 1971.06 261.274 Q1971.59 261.321 1972.24 261.436 L1972.26 265.811 Z" fill="#000000" fill-rule="evenodd" fill-opacity="1" /><path clip-path="url(#clip250)" d="M1992.35 266.228 L2022.03 266.228 L2022.03 270.117 L1992.35 270.117 L1992.35 266.228 M1992.35 275.672 L2022.03 275.672 L2022.03 279.608 L1992.35 279.608 L1992.35 275.672 Z" fill="#000000" fill-rule="evenodd" fill-opacity="1" /><path clip-path="url(#clip250)" d="M2060.04 257.27 L2048.23 275.719 L2060.04 275.719 L2060.04 257.27 M2058.81 253.196 L2064.69 253.196 L2064.69 275.719 L2069.62 275.719 L2069.62 279.608 L2064.69 279.608 L2064.69 287.756 L2060.04 287.756 L2060.04 279.608 L2044.44 279.608 L2044.44 275.094 L2058.81 253.196 Z" fill="#000000" fill-rule="evenodd" fill-opacity="1" /><path clip-path="url(#clip250)" d="M2087.35 256.274 Q2083.74 256.274 2081.91 259.839 Q2080.11 263.381 2080.11 270.51 Q2080.11 277.617 2081.91 281.182 Q2083.74 284.723 2087.35 284.723 Q2090.99 284.723 2092.79 281.182 Q2094.62 277.617 2094.62 270.51 Q2094.62 263.381 2092.79 259.839 Q2090.99 256.274 2087.35 256.274 M2087.35 252.571 Q2093.16 252.571 2096.22 257.177 Q2099.3 261.76 2099.3 270.51 Q2099.3 279.237 2096.22 283.844 Q2093.16 288.427 2087.35 288.427 Q2081.54 288.427 2078.46 283.844 Q2075.41 279.237 2075.41 270.51 Q2075.41 261.76 2078.46 257.177 Q2081.54 252.571 2087.35 252.571 Z" fill="#000000" fill-rule="evenodd" fill-opacity="1" /><path clip-path="url(#clip250)" d="M2107.51 281.876 L2112.4 281.876 L2112.4 287.756 L2107.51 287.756 L2107.51 281.876 Z" fill="#000000" fill-rule="evenodd" fill-opacity="1" /><path clip-path="url(#clip250)" d="M2122.63 253.196 L2140.99 253.196 L2140.99 257.131 L2126.91 257.131 L2126.91 265.603 Q2127.93 265.256 2128.95 265.094 Q2129.97 264.909 2130.99 264.909 Q2136.77 264.909 2140.15 268.08 Q2143.53 271.251 2143.53 276.668 Q2143.53 282.246 2140.06 285.348 Q2136.59 288.427 2130.27 288.427 Q2128.09 288.427 2125.82 288.057 Q2123.58 287.686 2121.17 286.946 L2121.17 282.246 Q2123.25 283.381 2125.48 283.936 Q2127.7 284.492 2130.18 284.492 Q2134.18 284.492 2136.52 282.385 Q2138.86 280.279 2138.86 276.668 Q2138.86 273.057 2136.52 270.95 Q2134.18 268.844 2130.18 268.844 Q2128.3 268.844 2126.43 269.26 Q2124.57 269.677 2122.63 270.557 L2122.63 253.196 Z" fill="#000000" fill-rule="evenodd" fill-opacity="1" /><path clip-path="url(#clip250)" d="M2163.32 268.612 Q2160.18 268.612 2158.32 270.765 Q2156.49 272.918 2156.49 276.668 Q2156.49 280.395 2158.32 282.571 Q2160.18 284.723 2163.32 284.723 Q2166.47 284.723 2168.3 282.571 Q2170.15 280.395 2170.15 276.668 Q2170.15 272.918 2168.3 270.765 Q2166.47 268.612 2163.32 268.612 M2172.61 253.96 L2172.61 258.219 Q2170.85 257.386 2169.04 256.946 Q2167.26 256.506 2165.5 256.506 Q2160.87 256.506 2158.42 259.631 Q2155.99 262.756 2155.64 269.075 Q2157 267.061 2159.06 265.997 Q2161.12 264.909 2163.6 264.909 Q2168.81 264.909 2171.82 268.08 Q2174.85 271.228 2174.85 276.668 Q2174.85 281.992 2171.7 285.209 Q2168.56 288.427 2163.32 288.427 Q2157.33 288.427 2154.16 283.844 Q2150.99 279.237 2150.99 270.51 Q2150.99 262.316 2154.87 257.455 Q2158.76 252.571 2165.31 252.571 Q2167.07 252.571 2168.86 252.918 Q2170.66 253.265 2172.61 253.96 Z" fill="#000000" fill-rule="evenodd" fill-opacity="1" /><path clip-path="url(#clip250)" d="M2192.91 256.274 Q2189.3 256.274 2187.47 259.839 Q2185.66 263.381 2185.66 270.51 Q2185.66 277.617 2187.47 281.182 Q2189.3 284.723 2192.91 284.723 Q2196.54 284.723 2198.35 281.182 Q2200.18 277.617 2200.18 270.51 Q2200.18 263.381 2198.35 259.839 Q2196.54 256.274 2192.91 256.274 M2192.91 252.571 Q2198.72 252.571 2201.77 257.177 Q2204.85 261.76 2204.85 270.51 Q2204.85 279.237 2201.77 283.844 Q2198.72 288.427 2192.91 288.427 Q2187.1 288.427 2184.02 283.844 Q2180.96 279.237 2180.96 270.51 Q2180.96 261.76 2184.02 257.177 Q2187.1 252.571 2192.91 252.571 Z" fill="#000000" fill-rule="evenodd" fill-opacity="1" /><path clip-path="url(#clip250)" d="M2225.92 257.27 L2214.11 275.719 L2225.92 275.719 L2225.92 257.27 M2224.69 253.196 L2230.57 253.196 L2230.57 275.719 L2235.5 275.719 L2235.5 279.608 L2230.57 279.608 L2230.57 287.756 L2225.92 287.756 L2225.92 279.608 L2210.31 279.608 L2210.31 275.094 L2224.69 253.196 Z" fill="#000000" fill-rule="evenodd" fill-opacity="1" /></svg>
