<?xml version="1.0" encoding="utf-8"?>
<svg xmlns="http://www.w3.org/2000/svg" xmlns:xlink="http://www.w3.org/1999/xlink" width="600" height="400" viewBox="0 0 2400 1600">
<defs>
  <clipPath id="clip080">
    <rect x="0" y="0" width="2400" height="1600"/>
  </clipPath>
</defs>
<path clip-path="url(#clip080)" d="M0 1600 L2400 1600 L2400 0 L0 0  Z" fill="#ffffff" fill-rule="evenodd" fill-opacity="1"/>
<defs>
  <clipPath id="clip081">
    <rect x="480" y="0" width="1681" height="1600"/>
  </clipPath>
</defs>
<path clip-path="url(#clip080)" d="M242.135 1423.18 L2352.76 1423.18 L2352.76 123.472 L242.135 123.472  Z" fill="#ffffff" fill-rule="evenodd" fill-opacity="1"/>
<defs>
  <clipPath id="clip082">
    <rect x="242" y="123" width="2112" height="1301"/>
  </clipPath>
</defs>
<polyline clip-path="url(#clip082)" style="stroke:#000000; stroke-linecap:round; stroke-linejoin:round; stroke-width:2; stroke-opacity:0.1; fill:none" points="467.385,1423.18 467.385,123.472 "/>
<polyline clip-path="url(#clip082)" style="stroke:#000000; stroke-linecap:round; stroke-linejoin:round; stroke-width:2; stroke-opacity:0.1; fill:none" points="881.174,1423.18 881.174,123.472 "/>
<polyline clip-path="url(#clip082)" style="stroke:#000000; stroke-linecap:round; stroke-linejoin:round; stroke-width:2; stroke-opacity:0.1; fill:none" points="1294.96,1423.18 1294.96,123.472 "/>
<polyline clip-path="url(#clip082)" style="stroke:#000000; stroke-linecap:round; stroke-linejoin:round; stroke-width:2; stroke-opacity:0.1; fill:none" points="1708.75,1423.18 1708.75,123.472 "/>
<polyline clip-path="url(#clip082)" style="stroke:#000000; stroke-linecap:round; stroke-linejoin:round; stroke-width:2; stroke-opacity:0.1; fill:none" points="2122.54,1423.18 2122.54,123.472 "/>
<polyline clip-path="url(#clip080)" style="stroke:#000000; stroke-linecap:round; stroke-linejoin:round; stroke-width:4; stroke-opacity:1; fill:none" points="242.135,1423.18 2352.76,1423.18 "/>
<polyline clip-path="url(#clip080)" style="stroke:#000000; stroke-linecap:round; stroke-linejoin:round; stroke-width:4; stroke-opacity:1; fill:none" points="467.385,1423.18 467.385,1404.28 "/>
<polyline clip-path="url(#clip080)" style="stroke:#000000; stroke-linecap:round; stroke-linejoin:round; stroke-width:4; stroke-opacity:1; fill:none" points="881.174,1423.18 881.174,1404.28 "/>
<polyline clip-path="url(#clip080)" style="stroke:#000000; stroke-linecap:round; stroke-linejoin:round; stroke-width:4; stroke-opacity:1; fill:none" points="1294.96,1423.18 1294.96,1404.28 "/>
<polyline clip-path="url(#clip080)" style="stroke:#000000; stroke-linecap:round; stroke-linejoin:round; stroke-width:4; stroke-opacity:1; fill:none" points="1708.75,1423.18 1708.75,1404.28 "/>
<polyline clip-path="url(#clip080)" style="stroke:#000000; stroke-linecap:round; stroke-linejoin:round; stroke-width:4; stroke-opacity:1; fill:none" points="2122.54,1423.18 2122.54,1404.28 "/>
<path clip-path="url(#clip080)" d="M411.911 1481.64 L419.549 1481.64 L419.549 1455.28 L411.239 1456.95 L411.239 1452.69 L419.503 1451.02 L424.179 1451.02 L424.179 1481.64 L431.818 1481.64 L431.818 1485.58 L411.911 1485.58 L411.911 1481.64 Z" fill="#000000" fill-rule="evenodd" fill-opacity="1" /><path clip-path="url(#clip080)" d="M451.262 1454.1 Q447.651 1454.1 445.822 1457.66 Q444.017 1461.2 444.017 1468.33 Q444.017 1475.44 445.822 1479.01 Q447.651 1482.55 451.262 1482.55 Q454.896 1482.55 456.702 1479.01 Q458.531 1475.44 458.531 1468.33 Q458.531 1461.2 456.702 1457.66 Q454.896 1454.1 451.262 1454.1 M451.262 1450.39 Q457.072 1450.39 460.128 1455 Q463.207 1459.58 463.207 1468.33 Q463.207 1477.06 460.128 1481.67 Q457.072 1486.25 451.262 1486.25 Q445.452 1486.25 442.373 1481.67 Q439.318 1477.06 439.318 1468.33 Q439.318 1459.58 442.373 1455 Q445.452 1450.39 451.262 1450.39 Z" fill="#000000" fill-rule="evenodd" fill-opacity="1" /><path clip-path="url(#clip080)" d="M481.424 1454.1 Q477.813 1454.1 475.984 1457.66 Q474.179 1461.2 474.179 1468.33 Q474.179 1475.44 475.984 1479.01 Q477.813 1482.55 481.424 1482.55 Q485.058 1482.55 486.864 1479.01 Q488.693 1475.44 488.693 1468.33 Q488.693 1461.2 486.864 1457.66 Q485.058 1454.1 481.424 1454.1 M481.424 1450.39 Q487.234 1450.39 490.29 1455 Q493.368 1459.58 493.368 1468.33 Q493.368 1477.06 490.29 1481.67 Q487.234 1486.25 481.424 1486.25 Q475.614 1486.25 472.535 1481.67 Q469.48 1477.06 469.48 1468.33 Q469.48 1459.58 472.535 1455 Q475.614 1450.39 481.424 1450.39 Z" fill="#000000" fill-rule="evenodd" fill-opacity="1" /><path clip-path="url(#clip080)" d="M511.586 1454.1 Q507.975 1454.1 506.146 1457.66 Q504.341 1461.2 504.341 1468.33 Q504.341 1475.44 506.146 1479.01 Q507.975 1482.55 511.586 1482.55 Q515.22 1482.55 517.026 1479.01 Q518.854 1475.44 518.854 1468.33 Q518.854 1461.2 517.026 1457.66 Q515.22 1454.1 511.586 1454.1 M511.586 1450.39 Q517.396 1450.39 520.452 1455 Q523.53 1459.58 523.53 1468.33 Q523.53 1477.06 520.452 1481.67 Q517.396 1486.25 511.586 1486.25 Q505.776 1486.25 502.697 1481.67 Q499.642 1477.06 499.642 1468.33 Q499.642 1459.58 502.697 1455 Q505.776 1450.39 511.586 1450.39 Z" fill="#000000" fill-rule="evenodd" fill-opacity="1" /><path clip-path="url(#clip080)" d="M825.699 1481.64 L833.338 1481.64 L833.338 1455.28 L825.028 1456.95 L825.028 1452.69 L833.292 1451.02 L837.968 1451.02 L837.968 1481.64 L845.607 1481.64 L845.607 1485.58 L825.699 1485.58 L825.699 1481.64 Z" fill="#000000" fill-rule="evenodd" fill-opacity="1" /><path clip-path="url(#clip080)" d="M855.097 1451.02 L873.454 1451.02 L873.454 1454.96 L859.38 1454.96 L859.38 1463.43 Q860.398 1463.08 861.417 1462.92 Q862.435 1462.73 863.454 1462.73 Q869.241 1462.73 872.62 1465.9 Q876 1469.08 876 1474.49 Q876 1480.07 872.528 1483.17 Q869.056 1486.25 862.736 1486.25 Q860.56 1486.25 858.292 1485.88 Q856.046 1485.51 853.639 1484.77 L853.639 1480.07 Q855.722 1481.2 857.945 1481.76 Q860.167 1482.32 862.644 1482.32 Q866.648 1482.32 868.986 1480.21 Q871.324 1478.1 871.324 1474.49 Q871.324 1470.88 868.986 1468.77 Q866.648 1466.67 862.644 1466.67 Q860.769 1466.67 858.894 1467.08 Q857.042 1467.5 855.097 1468.38 L855.097 1451.02 Z" fill="#000000" fill-rule="evenodd" fill-opacity="1" /><path clip-path="url(#clip080)" d="M895.213 1454.1 Q891.602 1454.1 889.773 1457.66 Q887.968 1461.2 887.968 1468.33 Q887.968 1475.44 889.773 1479.01 Q891.602 1482.55 895.213 1482.55 Q898.847 1482.55 900.653 1479.01 Q902.481 1475.44 902.481 1468.33 Q902.481 1461.2 900.653 1457.66 Q898.847 1454.1 895.213 1454.1 M895.213 1450.39 Q901.023 1450.39 904.079 1455 Q907.157 1459.58 907.157 1468.33 Q907.157 1477.06 904.079 1481.67 Q901.023 1486.25 895.213 1486.25 Q889.403 1486.25 886.324 1481.67 Q883.269 1477.06 883.269 1468.33 Q883.269 1459.58 886.324 1455 Q889.403 1450.39 895.213 1450.39 Z" fill="#000000" fill-rule="evenodd" fill-opacity="1" /><path clip-path="url(#clip080)" d="M925.375 1454.1 Q921.764 1454.1 919.935 1457.66 Q918.129 1461.2 918.129 1468.33 Q918.129 1475.44 919.935 1479.01 Q921.764 1482.55 925.375 1482.55 Q929.009 1482.55 930.815 1479.01 Q932.643 1475.44 932.643 1468.33 Q932.643 1461.2 930.815 1457.66 Q929.009 1454.1 925.375 1454.1 M925.375 1450.39 Q931.185 1450.39 934.241 1455 Q937.319 1459.58 937.319 1468.33 Q937.319 1477.06 934.241 1481.67 Q931.185 1486.25 925.375 1486.25 Q919.565 1486.25 916.486 1481.67 Q913.43 1477.06 913.43 1468.33 Q913.43 1459.58 916.486 1455 Q919.565 1450.39 925.375 1450.39 Z" fill="#000000" fill-rule="evenodd" fill-opacity="1" /><path clip-path="url(#clip080)" d="M1243.57 1481.64 L1259.89 1481.64 L1259.89 1485.58 L1237.95 1485.58 L1237.95 1481.64 Q1240.61 1478.89 1245.19 1474.26 Q1249.8 1469.61 1250.98 1468.27 Q1253.23 1465.74 1254.11 1464.01 Q1255.01 1462.25 1255.01 1460.56 Q1255.01 1457.8 1253.06 1456.07 Q1251.14 1454.33 1248.04 1454.33 Q1245.84 1454.33 1243.39 1455.09 Q1240.96 1455.86 1238.18 1457.41 L1238.18 1452.69 Q1241 1451.55 1243.46 1450.97 Q1245.91 1450.39 1247.95 1450.39 Q1253.32 1450.39 1256.51 1453.08 Q1259.71 1455.77 1259.71 1460.26 Q1259.71 1462.39 1258.9 1464.31 Q1258.11 1466.2 1256 1468.8 Q1255.43 1469.47 1252.32 1472.69 Q1249.22 1475.88 1243.57 1481.64 Z" fill="#000000" fill-rule="evenodd" fill-opacity="1" /><path clip-path="url(#clip080)" d="M1279.71 1454.1 Q1276.1 1454.1 1274.27 1457.66 Q1272.46 1461.2 1272.46 1468.33 Q1272.46 1475.44 1274.27 1479.01 Q1276.1 1482.55 1279.71 1482.55 Q1283.34 1482.55 1285.15 1479.01 Q1286.98 1475.44 1286.98 1468.33 Q1286.98 1461.2 1285.15 1457.66 Q1283.34 1454.1 1279.71 1454.1 M1279.71 1450.39 Q1285.52 1450.39 1288.57 1455 Q1291.65 1459.58 1291.65 1468.33 Q1291.65 1477.06 1288.57 1481.67 Q1285.52 1486.25 1279.71 1486.25 Q1273.9 1486.25 1270.82 1481.67 Q1267.76 1477.06 1267.76 1468.33 Q1267.76 1459.58 1270.82 1455 Q1273.9 1450.39 1279.71 1450.39 Z" fill="#000000" fill-rule="evenodd" fill-opacity="1" /><path clip-path="url(#clip080)" d="M1309.87 1454.1 Q1306.26 1454.1 1304.43 1457.66 Q1302.62 1461.2 1302.62 1468.33 Q1302.62 1475.44 1304.43 1479.01 Q1306.26 1482.55 1309.87 1482.55 Q1313.5 1482.55 1315.31 1479.01 Q1317.14 1475.44 1317.14 1468.33 Q1317.14 1461.2 1315.31 1457.66 Q1313.5 1454.1 1309.87 1454.1 M1309.87 1450.39 Q1315.68 1450.39 1318.74 1455 Q1321.81 1459.58 1321.81 1468.33 Q1321.81 1477.06 1318.74 1481.67 Q1315.68 1486.25 1309.87 1486.25 Q1304.06 1486.25 1300.98 1481.67 Q1297.93 1477.06 1297.93 1468.33 Q1297.93 1459.58 1300.98 1455 Q1304.06 1450.39 1309.87 1450.39 Z" fill="#000000" fill-rule="evenodd" fill-opacity="1" /><path clip-path="url(#clip080)" d="M1340.03 1454.1 Q1336.42 1454.1 1334.59 1457.66 Q1332.79 1461.2 1332.79 1468.33 Q1332.79 1475.44 1334.59 1479.01 Q1336.42 1482.55 1340.03 1482.55 Q1343.67 1482.55 1345.47 1479.01 Q1347.3 1475.44 1347.3 1468.33 Q1347.3 1461.2 1345.47 1457.66 Q1343.67 1454.1 1340.03 1454.1 M1340.03 1450.39 Q1345.84 1450.39 1348.9 1455 Q1351.98 1459.58 1351.98 1468.33 Q1351.98 1477.06 1348.9 1481.67 Q1345.84 1486.25 1340.03 1486.25 Q1334.22 1486.25 1331.14 1481.67 Q1328.09 1477.06 1328.09 1468.33 Q1328.09 1459.58 1331.14 1455 Q1334.22 1450.39 1340.03 1450.39 Z" fill="#000000" fill-rule="evenodd" fill-opacity="1" /><path clip-path="url(#clip080)" d="M1657.36 1481.64 L1673.68 1481.64 L1673.68 1485.58 L1651.74 1485.58 L1651.74 1481.64 Q1654.4 1478.89 1658.98 1474.26 Q1663.59 1469.61 1664.77 1468.27 Q1667.02 1465.74 1667.9 1464.01 Q1668.8 1462.25 1668.8 1460.56 Q1668.8 1457.8 1666.85 1456.07 Q1664.93 1454.33 1661.83 1454.33 Q1659.63 1454.33 1657.18 1455.09 Q1654.75 1455.86 1651.97 1457.41 L1651.97 1452.69 Q1654.79 1451.55 1657.25 1450.97 Q1659.7 1450.39 1661.74 1450.39 Q1667.11 1450.39 1670.3 1453.08 Q1673.5 1455.77 1673.5 1460.26 Q1673.5 1462.39 1672.69 1464.31 Q1671.9 1466.2 1669.79 1468.8 Q1669.21 1469.47 1666.11 1472.69 Q1663.01 1475.88 1657.36 1481.64 Z" fill="#000000" fill-rule="evenodd" fill-opacity="1" /><path clip-path="url(#clip080)" d="M1683.54 1451.02 L1701.9 1451.02 L1701.9 1454.96 L1687.83 1454.96 L1687.83 1463.43 Q1688.84 1463.08 1689.86 1462.92 Q1690.88 1462.73 1691.9 1462.73 Q1697.69 1462.73 1701.07 1465.9 Q1704.45 1469.08 1704.45 1474.49 Q1704.45 1480.07 1700.97 1483.17 Q1697.5 1486.25 1691.18 1486.25 Q1689.01 1486.25 1686.74 1485.88 Q1684.49 1485.51 1682.08 1484.77 L1682.08 1480.07 Q1684.17 1481.2 1686.39 1481.76 Q1688.61 1482.32 1691.09 1482.32 Q1695.09 1482.32 1697.43 1480.21 Q1699.77 1478.1 1699.77 1474.49 Q1699.77 1470.88 1697.43 1468.77 Q1695.09 1466.67 1691.09 1466.67 Q1689.21 1466.67 1687.34 1467.08 Q1685.49 1467.5 1683.54 1468.38 L1683.54 1451.02 Z" fill="#000000" fill-rule="evenodd" fill-opacity="1" /><path clip-path="url(#clip080)" d="M1723.66 1454.1 Q1720.05 1454.1 1718.22 1457.66 Q1716.41 1461.2 1716.41 1468.33 Q1716.41 1475.44 1718.22 1479.01 Q1720.05 1482.55 1723.66 1482.55 Q1727.29 1482.55 1729.1 1479.01 Q1730.93 1475.44 1730.93 1468.33 Q1730.93 1461.2 1729.1 1457.66 Q1727.29 1454.1 1723.66 1454.1 M1723.66 1450.39 Q1729.47 1450.39 1732.52 1455 Q1735.6 1459.58 1735.6 1468.33 Q1735.6 1477.06 1732.52 1481.67 Q1729.47 1486.25 1723.66 1486.25 Q1717.85 1486.25 1714.77 1481.67 Q1711.71 1477.06 1711.71 1468.33 Q1711.71 1459.58 1714.77 1455 Q1717.85 1450.39 1723.66 1450.39 Z" fill="#000000" fill-rule="evenodd" fill-opacity="1" /><path clip-path="url(#clip080)" d="M1753.82 1454.1 Q1750.21 1454.1 1748.38 1457.66 Q1746.58 1461.2 1746.58 1468.33 Q1746.58 1475.44 1748.38 1479.01 Q1750.21 1482.55 1753.82 1482.55 Q1757.45 1482.55 1759.26 1479.01 Q1761.09 1475.44 1761.09 1468.33 Q1761.09 1461.2 1759.26 1457.66 Q1757.45 1454.1 1753.82 1454.1 M1753.82 1450.39 Q1759.63 1450.39 1762.69 1455 Q1765.77 1459.58 1765.77 1468.33 Q1765.77 1477.06 1762.69 1481.67 Q1759.63 1486.25 1753.82 1486.25 Q1748.01 1486.25 1744.93 1481.67 Q1741.88 1477.06 1741.88 1468.33 Q1741.88 1459.58 1744.93 1455 Q1748.01 1450.39 1753.82 1450.39 Z" fill="#000000" fill-rule="evenodd" fill-opacity="1" /><path clip-path="url(#clip080)" d="M2081.22 1466.95 Q2084.58 1467.66 2086.45 1469.93 Q2088.35 1472.2 2088.35 1475.53 Q2088.35 1480.65 2084.83 1483.45 Q2081.31 1486.25 2074.83 1486.25 Q2072.66 1486.25 2070.34 1485.81 Q2068.05 1485.39 2065.6 1484.54 L2065.6 1480.02 Q2067.54 1481.16 2069.86 1481.74 Q2072.17 1482.32 2074.69 1482.32 Q2079.09 1482.32 2081.38 1480.58 Q2083.7 1478.84 2083.7 1475.53 Q2083.7 1472.48 2081.55 1470.77 Q2079.42 1469.03 2075.6 1469.03 L2071.57 1469.03 L2071.57 1465.19 L2075.78 1465.19 Q2079.23 1465.19 2081.06 1463.82 Q2082.89 1462.43 2082.89 1459.84 Q2082.89 1457.18 2080.99 1455.77 Q2079.11 1454.33 2075.6 1454.33 Q2073.67 1454.33 2071.48 1454.75 Q2069.28 1455.16 2066.64 1456.04 L2066.64 1451.88 Q2069.3 1451.14 2071.61 1450.77 Q2073.95 1450.39 2076.01 1450.39 Q2081.34 1450.39 2084.44 1452.83 Q2087.54 1455.23 2087.54 1459.35 Q2087.54 1462.22 2085.9 1464.21 Q2084.25 1466.18 2081.22 1466.95 Z" fill="#000000" fill-rule="evenodd" fill-opacity="1" /><path clip-path="url(#clip080)" d="M2107.22 1454.1 Q2103.61 1454.1 2101.78 1457.66 Q2099.97 1461.2 2099.97 1468.33 Q2099.97 1475.44 2101.78 1479.01 Q2103.61 1482.55 2107.22 1482.55 Q2110.85 1482.55 2112.66 1479.01 Q2114.48 1475.44 2114.48 1468.33 Q2114.48 1461.2 2112.66 1457.66 Q2110.85 1454.1 2107.22 1454.1 M2107.22 1450.39 Q2113.03 1450.39 2116.08 1455 Q2119.16 1459.58 2119.16 1468.33 Q2119.16 1477.06 2116.08 1481.67 Q2113.03 1486.25 2107.22 1486.25 Q2101.41 1486.25 2098.33 1481.67 Q2095.27 1477.06 2095.27 1468.33 Q2095.27 1459.58 2098.33 1455 Q2101.41 1450.39 2107.22 1450.39 Z" fill="#000000" fill-rule="evenodd" fill-opacity="1" /><path clip-path="url(#clip080)" d="M2137.38 1454.1 Q2133.77 1454.1 2131.94 1457.66 Q2130.13 1461.2 2130.13 1468.33 Q2130.13 1475.44 2131.94 1479.01 Q2133.77 1482.55 2137.38 1482.55 Q2141.01 1482.55 2142.82 1479.01 Q2144.65 1475.44 2144.65 1468.33 Q2144.65 1461.2 2142.82 1457.66 Q2141.01 1454.1 2137.38 1454.1 M2137.38 1450.39 Q2143.19 1450.39 2146.24 1455 Q2149.32 1459.58 2149.32 1468.33 Q2149.32 1477.06 2146.24 1481.67 Q2143.19 1486.25 2137.38 1486.25 Q2131.57 1486.25 2128.49 1481.67 Q2125.43 1477.06 2125.43 1468.33 Q2125.43 1459.58 2128.49 1455 Q2131.57 1450.39 2137.38 1450.39 Z" fill="#000000" fill-rule="evenodd" fill-opacity="1" /><path clip-path="url(#clip080)" d="M2167.54 1454.1 Q2163.93 1454.1 2162.1 1457.66 Q2160.29 1461.2 2160.29 1468.33 Q2160.29 1475.44 2162.1 1479.01 Q2163.93 1482.55 2167.54 1482.55 Q2171.17 1482.55 2172.98 1479.01 Q2174.81 1475.44 2174.81 1468.33 Q2174.81 1461.2 2172.98 1457.66 Q2171.17 1454.1 2167.54 1454.1 M2167.54 1450.39 Q2173.35 1450.39 2176.41 1455 Q2179.48 1459.58 2179.48 1468.33 Q2179.48 1477.06 2176.41 1481.67 Q2173.35 1486.25 2167.54 1486.25 Q2161.73 1486.25 2158.65 1481.67 Q2155.6 1477.06 2155.6 1468.33 Q2155.6 1459.58 2158.65 1455 Q2161.73 1450.39 2167.54 1450.39 Z" fill="#000000" fill-rule="evenodd" fill-opacity="1" /><path clip-path="url(#clip080)" d="M1251.09 1526.86 L1242.37 1550.51 L1259.84 1550.51 L1251.09 1526.86 M1247.46 1520.52 L1254.75 1520.52 L1272.86 1568.04 L1266.17 1568.04 L1261.85 1555.85 L1240.42 1555.85 L1236.1 1568.04 L1229.32 1568.04 L1247.46 1520.52 Z" fill="#000000" fill-rule="evenodd" fill-opacity="1" /><path clip-path="url(#clip080)" d="M1286.23 1525.81 L1286.23 1562.76 L1293.99 1562.76 Q1303.83 1562.76 1308.38 1558.3 Q1312.96 1553.85 1312.96 1544.24 Q1312.96 1534.69 1308.38 1530.26 Q1303.83 1525.81 1293.99 1525.81 L1286.23 1525.81 M1279.8 1520.52 L1293.01 1520.52 Q1306.82 1520.52 1313.28 1526.28 Q1319.74 1532.01 1319.74 1544.24 Q1319.74 1556.52 1313.25 1562.28 Q1306.76 1568.04 1293.01 1568.04 L1279.8 1568.04 L1279.8 1520.52 Z" fill="#000000" fill-rule="evenodd" fill-opacity="1" /><path clip-path="url(#clip080)" d="M1365.57 1524.18 L1365.57 1530.96 Q1362.33 1527.94 1358.64 1526.44 Q1354.98 1524.95 1350.84 1524.95 Q1342.69 1524.95 1338.36 1529.95 Q1334.03 1534.91 1334.03 1544.33 Q1334.03 1553.72 1338.36 1558.72 Q1342.69 1563.68 1350.84 1563.68 Q1354.98 1563.68 1358.64 1562.19 Q1362.33 1560.69 1365.57 1557.67 L1365.57 1564.38 Q1362.2 1566.68 1358.41 1567.82 Q1354.66 1568.97 1350.46 1568.97 Q1339.67 1568.97 1333.46 1562.38 Q1327.25 1555.76 1327.25 1544.33 Q1327.25 1532.87 1333.46 1526.28 Q1339.67 1519.66 1350.46 1519.66 Q1354.72 1519.66 1358.48 1520.81 Q1362.26 1521.92 1365.57 1524.18 Z" fill="#000000" fill-rule="evenodd" fill-opacity="1" /><polyline clip-path="url(#clip082)" style="stroke:#000000; stroke-linecap:round; stroke-linejoin:round; stroke-width:2; stroke-opacity:0.1; fill:none" points="242.135,1364.48 2352.76,1364.48 "/>
<polyline clip-path="url(#clip082)" style="stroke:#000000; stroke-linecap:round; stroke-linejoin:round; stroke-width:2; stroke-opacity:0.1; fill:none" points="242.135,1163.77 2352.76,1163.77 "/>
<polyline clip-path="url(#clip082)" style="stroke:#000000; stroke-linecap:round; stroke-linejoin:round; stroke-width:2; stroke-opacity:0.1; fill:none" points="242.135,963.07 2352.76,963.07 "/>
<polyline clip-path="url(#clip082)" style="stroke:#000000; stroke-linecap:round; stroke-linejoin:round; stroke-width:2; stroke-opacity:0.1; fill:none" points="242.135,762.367 2352.76,762.367 "/>
<polyline clip-path="url(#clip082)" style="stroke:#000000; stroke-linecap:round; stroke-linejoin:round; stroke-width:2; stroke-opacity:0.1; fill:none" points="242.135,561.663 2352.76,561.663 "/>
<polyline clip-path="url(#clip082)" style="stroke:#000000; stroke-linecap:round; stroke-linejoin:round; stroke-width:2; stroke-opacity:0.1; fill:none" points="242.135,360.96 2352.76,360.96 "/>
<polyline clip-path="url(#clip082)" style="stroke:#000000; stroke-linecap:round; stroke-linejoin:round; stroke-width:2; stroke-opacity:0.1; fill:none" points="242.135,160.256 2352.76,160.256 "/>
<polyline clip-path="url(#clip080)" style="stroke:#000000; stroke-linecap:round; stroke-linejoin:round; stroke-width:4; stroke-opacity:1; fill:none" points="242.135,1423.18 242.135,123.472 "/>
<polyline clip-path="url(#clip080)" style="stroke:#000000; stroke-linecap:round; stroke-linejoin:round; stroke-width:4; stroke-opacity:1; fill:none" points="242.135,1364.48 261.032,1364.48 "/>
<polyline clip-path="url(#clip080)" style="stroke:#000000; stroke-linecap:round; stroke-linejoin:round; stroke-width:4; stroke-opacity:1; fill:none" points="242.135,1163.77 261.032,1163.77 "/>
<polyline clip-path="url(#clip080)" style="stroke:#000000; stroke-linecap:round; stroke-linejoin:round; stroke-width:4; stroke-opacity:1; fill:none" points="242.135,963.07 261.032,963.07 "/>
<polyline clip-path="url(#clip080)" style="stroke:#000000; stroke-linecap:round; stroke-linejoin:round; stroke-width:4; stroke-opacity:1; fill:none" points="242.135,762.367 261.032,762.367 "/>
<polyline clip-path="url(#clip080)" style="stroke:#000000; stroke-linecap:round; stroke-linejoin:round; stroke-width:4; stroke-opacity:1; fill:none" points="242.135,561.663 261.032,561.663 "/>
<polyline clip-path="url(#clip080)" style="stroke:#000000; stroke-linecap:round; stroke-linejoin:round; stroke-width:4; stroke-opacity:1; fill:none" points="242.135,360.96 261.032,360.96 "/>
<polyline clip-path="url(#clip080)" style="stroke:#000000; stroke-linecap:round; stroke-linejoin:round; stroke-width:4; stroke-opacity:1; fill:none" points="242.135,160.256 261.032,160.256 "/>
<path clip-path="url(#clip080)" d="M114.26 1364.93 L143.936 1364.93 L143.936 1368.86 L114.26 1368.86 L114.26 1364.93 Z" fill="#000000" fill-rule="evenodd" fill-opacity="1" /><path clip-path="url(#clip080)" d="M164.607 1362.61 Q161.459 1362.61 159.607 1364.77 Q157.778 1366.92 157.778 1370.67 Q157.778 1374.4 159.607 1376.57 Q161.459 1378.72 164.607 1378.72 Q167.755 1378.72 169.584 1376.57 Q171.436 1374.4 171.436 1370.67 Q171.436 1366.92 169.584 1364.77 Q167.755 1362.61 164.607 1362.61 M173.889 1347.96 L173.889 1352.22 Q172.13 1351.39 170.325 1350.95 Q168.542 1350.51 166.783 1350.51 Q162.153 1350.51 159.7 1353.63 Q157.269 1356.76 156.922 1363.08 Q158.288 1361.06 160.348 1360 Q162.408 1358.91 164.885 1358.91 Q170.093 1358.91 173.102 1362.08 Q176.135 1365.23 176.135 1370.67 Q176.135 1375.99 172.987 1379.21 Q169.839 1382.43 164.607 1382.43 Q158.612 1382.43 155.44 1377.85 Q152.269 1373.24 152.269 1364.51 Q152.269 1356.32 156.158 1351.46 Q160.047 1346.57 166.598 1346.57 Q168.357 1346.57 170.139 1346.92 Q171.945 1347.27 173.889 1347.96 Z" fill="#000000" fill-rule="evenodd" fill-opacity="1" /><path clip-path="url(#clip080)" d="M194.19 1350.28 Q190.579 1350.28 188.75 1353.84 Q186.945 1357.38 186.945 1364.51 Q186.945 1371.62 188.75 1375.18 Q190.579 1378.72 194.19 1378.72 Q197.825 1378.72 199.63 1375.18 Q201.459 1371.62 201.459 1364.51 Q201.459 1357.38 199.63 1353.84 Q197.825 1350.28 194.19 1350.28 M194.19 1346.57 Q200 1346.57 203.056 1351.18 Q206.135 1355.76 206.135 1364.51 Q206.135 1373.24 203.056 1377.85 Q200 1382.43 194.19 1382.43 Q188.38 1382.43 185.301 1377.85 Q182.246 1373.24 182.246 1364.51 Q182.246 1355.76 185.301 1351.18 Q188.38 1346.57 194.19 1346.57 Z" fill="#000000" fill-rule="evenodd" fill-opacity="1" /><path clip-path="url(#clip080)" d="M114.26 1164.23 L143.936 1164.23 L143.936 1168.16 L114.26 1168.16 L114.26 1164.23 Z" fill="#000000" fill-rule="evenodd" fill-opacity="1" /><path clip-path="url(#clip080)" d="M154.075 1146.49 L172.431 1146.49 L172.431 1150.43 L158.357 1150.43 L158.357 1158.9 Q159.376 1158.55 160.394 1158.39 Q161.413 1158.21 162.431 1158.21 Q168.218 1158.21 171.598 1161.38 Q174.977 1164.55 174.977 1169.97 Q174.977 1175.54 171.505 1178.65 Q168.033 1181.73 161.714 1181.73 Q159.538 1181.73 157.269 1181.35 Q155.024 1180.98 152.616 1180.24 L152.616 1175.54 Q154.7 1176.68 156.922 1177.23 Q159.144 1177.79 161.621 1177.79 Q165.626 1177.79 167.964 1175.68 Q170.302 1173.58 170.302 1169.97 Q170.302 1166.35 167.964 1164.25 Q165.626 1162.14 161.621 1162.14 Q159.746 1162.14 157.871 1162.56 Q156.019 1162.98 154.075 1163.85 L154.075 1146.49 Z" fill="#000000" fill-rule="evenodd" fill-opacity="1" /><path clip-path="url(#clip080)" d="M194.19 1149.57 Q190.579 1149.57 188.75 1153.14 Q186.945 1156.68 186.945 1163.81 Q186.945 1170.92 188.75 1174.48 Q190.579 1178.02 194.19 1178.02 Q197.825 1178.02 199.63 1174.48 Q201.459 1170.92 201.459 1163.81 Q201.459 1156.68 199.63 1153.14 Q197.825 1149.57 194.19 1149.57 M194.19 1145.87 Q200 1145.87 203.056 1150.48 Q206.135 1155.06 206.135 1163.81 Q206.135 1172.54 203.056 1177.14 Q200 1181.73 194.19 1181.73 Q188.38 1181.73 185.301 1177.14 Q182.246 1172.54 182.246 1163.81 Q182.246 1155.06 185.301 1150.48 Q188.38 1145.87 194.19 1145.87 Z" fill="#000000" fill-rule="evenodd" fill-opacity="1" /><path clip-path="url(#clip080)" d="M114.26 963.522 L143.936 963.522 L143.936 967.457 L114.26 967.457 L114.26 963.522 Z" fill="#000000" fill-rule="evenodd" fill-opacity="1" /><path clip-path="url(#clip080)" d="M166.876 949.864 L155.07 968.313 L166.876 968.313 L166.876 949.864 M165.649 945.79 L171.528 945.79 L171.528 968.313 L176.459 968.313 L176.459 972.202 L171.528 972.202 L171.528 980.35 L166.876 980.35 L166.876 972.202 L151.274 972.202 L151.274 967.688 L165.649 945.79 Z" fill="#000000" fill-rule="evenodd" fill-opacity="1" /><path clip-path="url(#clip080)" d="M194.19 948.869 Q190.579 948.869 188.75 952.434 Q186.945 955.975 186.945 963.105 Q186.945 970.212 188.75 973.776 Q190.579 977.318 194.19 977.318 Q197.825 977.318 199.63 973.776 Q201.459 970.212 201.459 963.105 Q201.459 955.975 199.63 952.434 Q197.825 948.869 194.19 948.869 M194.19 945.165 Q200 945.165 203.056 949.772 Q206.135 954.355 206.135 963.105 Q206.135 971.832 203.056 976.438 Q200 981.022 194.19 981.022 Q188.38 981.022 185.301 976.438 Q182.246 971.832 182.246 963.105 Q182.246 954.355 185.301 949.772 Q188.38 945.165 194.19 945.165 Z" fill="#000000" fill-rule="evenodd" fill-opacity="1" /><path clip-path="url(#clip080)" d="M114.26 762.818 L143.936 762.818 L143.936 766.753 L114.26 766.753 L114.26 762.818 Z" fill="#000000" fill-rule="evenodd" fill-opacity="1" /><path clip-path="url(#clip080)" d="M168.195 761.013 Q171.552 761.73 173.427 763.999 Q175.325 766.267 175.325 769.601 Q175.325 774.716 171.806 777.517 Q168.288 780.318 161.806 780.318 Q159.63 780.318 157.315 779.878 Q155.024 779.462 152.57 778.605 L152.57 774.091 Q154.515 775.226 156.829 775.804 Q159.144 776.383 161.667 776.383 Q166.065 776.383 168.357 774.647 Q170.672 772.911 170.672 769.601 Q170.672 766.545 168.519 764.832 Q166.39 763.096 162.57 763.096 L158.542 763.096 L158.542 759.253 L162.755 759.253 Q166.204 759.253 168.033 757.888 Q169.862 756.499 169.862 753.906 Q169.862 751.244 167.964 749.832 Q166.089 748.397 162.57 748.397 Q160.649 748.397 158.45 748.814 Q156.251 749.23 153.612 750.11 L153.612 745.943 Q156.274 745.203 158.589 744.832 Q160.927 744.462 162.987 744.462 Q168.311 744.462 171.413 746.892 Q174.514 749.3 174.514 753.42 Q174.514 756.29 172.871 758.281 Q171.227 760.249 168.195 761.013 Z" fill="#000000" fill-rule="evenodd" fill-opacity="1" /><path clip-path="url(#clip080)" d="M194.19 748.166 Q190.579 748.166 188.75 751.73 Q186.945 755.272 186.945 762.402 Q186.945 769.508 188.75 773.073 Q190.579 776.614 194.19 776.614 Q197.825 776.614 199.63 773.073 Q201.459 769.508 201.459 762.402 Q201.459 755.272 199.63 751.73 Q197.825 748.166 194.19 748.166 M194.19 744.462 Q200 744.462 203.056 749.068 Q206.135 753.652 206.135 762.402 Q206.135 771.128 203.056 775.735 Q200 780.318 194.19 780.318 Q188.38 780.318 185.301 775.735 Q182.246 771.128 182.246 762.402 Q182.246 753.652 185.301 749.068 Q188.38 744.462 194.19 744.462 Z" fill="#000000" fill-rule="evenodd" fill-opacity="1" /><path clip-path="url(#clip080)" d="M114.26 562.115 L143.936 562.115 L143.936 566.05 L114.26 566.05 L114.26 562.115 Z" fill="#000000" fill-rule="evenodd" fill-opacity="1" /><path clip-path="url(#clip080)" d="M158.056 575.008 L174.376 575.008 L174.376 578.943 L152.431 578.943 L152.431 575.008 Q155.093 572.254 159.677 567.624 Q164.283 562.971 165.464 561.629 Q167.709 559.105 168.589 557.369 Q169.491 555.61 169.491 553.92 Q169.491 551.166 167.547 549.43 Q165.626 547.693 162.524 547.693 Q160.325 547.693 157.871 548.457 Q155.44 549.221 152.663 550.772 L152.663 546.05 Q155.487 544.916 157.94 544.337 Q160.394 543.758 162.431 543.758 Q167.802 543.758 170.996 546.443 Q174.19 549.129 174.19 553.619 Q174.19 555.749 173.38 557.67 Q172.593 559.568 170.487 562.161 Q169.908 562.832 166.806 566.05 Q163.704 569.244 158.056 575.008 Z" fill="#000000" fill-rule="evenodd" fill-opacity="1" /><path clip-path="url(#clip080)" d="M194.19 547.462 Q190.579 547.462 188.75 551.027 Q186.945 554.568 186.945 561.698 Q186.945 568.804 188.75 572.369 Q190.579 575.911 194.19 575.911 Q197.825 575.911 199.63 572.369 Q201.459 568.804 201.459 561.698 Q201.459 554.568 199.63 551.027 Q197.825 547.462 194.19 547.462 M194.19 543.758 Q200 543.758 203.056 548.365 Q206.135 552.948 206.135 561.698 Q206.135 570.425 203.056 575.031 Q200 579.615 194.19 579.615 Q188.38 579.615 185.301 575.031 Q182.246 570.425 182.246 561.698 Q182.246 552.948 185.301 548.365 Q188.38 543.758 194.19 543.758 Z" fill="#000000" fill-rule="evenodd" fill-opacity="1" /><path clip-path="url(#clip080)" d="M114.26 361.411 L143.936 361.411 L143.936 365.346 L114.26 365.346 L114.26 361.411 Z" fill="#000000" fill-rule="evenodd" fill-opacity="1" /><path clip-path="url(#clip080)" d="M154.839 374.305 L162.477 374.305 L162.477 347.939 L154.167 349.606 L154.167 345.346 L162.431 343.68 L167.107 343.68 L167.107 374.305 L174.746 374.305 L174.746 378.24 L154.839 378.24 L154.839 374.305 Z" fill="#000000" fill-rule="evenodd" fill-opacity="1" /><path clip-path="url(#clip080)" d="M194.19 346.759 Q190.579 346.759 188.75 350.323 Q186.945 353.865 186.945 360.995 Q186.945 368.101 188.75 371.666 Q190.579 375.207 194.19 375.207 Q197.825 375.207 199.63 371.666 Q201.459 368.101 201.459 360.995 Q201.459 353.865 199.63 350.323 Q197.825 346.759 194.19 346.759 M194.19 343.055 Q200 343.055 203.056 347.661 Q206.135 352.245 206.135 360.995 Q206.135 369.721 203.056 374.328 Q200 378.911 194.19 378.911 Q188.38 378.911 185.301 374.328 Q182.246 369.721 182.246 360.995 Q182.246 352.245 185.301 347.661 Q188.38 343.055 194.19 343.055 Z" fill="#000000" fill-rule="evenodd" fill-opacity="1" /><path clip-path="url(#clip080)" d="M194.19 146.055 Q190.579 146.055 188.75 149.62 Q186.945 153.161 186.945 160.291 Q186.945 167.397 188.75 170.962 Q190.579 174.504 194.19 174.504 Q197.825 174.504 199.63 170.962 Q201.459 167.397 201.459 160.291 Q201.459 153.161 199.63 149.62 Q197.825 146.055 194.19 146.055 M194.19 142.351 Q200 142.351 203.056 146.958 Q206.135 151.541 206.135 160.291 Q206.135 169.018 203.056 173.624 Q200 178.208 194.19 178.208 Q188.38 178.208 185.301 173.624 Q182.246 169.018 182.246 160.291 Q182.246 151.541 185.301 146.958 Q188.38 142.351 194.19 142.351 Z" fill="#000000" fill-rule="evenodd" fill-opacity="1" /><path clip-path="url(#clip080)" d="M33.7671 817.552 L14.479 817.552 L14.479 811.695 L64.0042 811.695 L64.0042 817.552 L58.657 817.552 Q61.8398 819.398 63.3994 822.231 Q64.9272 825.031 64.9272 828.978 Q64.9272 835.439 59.771 839.513 Q54.6147 843.556 46.212 843.556 Q37.8093 843.556 32.6531 839.513 Q27.4968 835.439 27.4968 828.978 Q27.4968 825.031 29.0564 822.231 Q30.5842 819.398 33.7671 817.552 M46.212 837.508 Q52.6732 837.508 56.3653 834.866 Q60.0256 832.193 60.0256 827.546 Q60.0256 822.899 56.3653 820.225 Q52.6732 817.552 46.212 817.552 Q39.7508 817.552 36.0905 820.225 Q32.3984 822.899 32.3984 827.546 Q32.3984 832.193 36.0905 834.866 Q39.7508 837.508 46.212 837.508 Z" fill="#000000" fill-rule="evenodd" fill-opacity="1" /><path clip-path="url(#clip080)" d="M41.3104 792.948 L58.7206 792.948 L58.7206 782.636 Q58.7206 777.448 56.5881 774.965 Q54.4238 772.451 49.9996 772.451 Q45.5436 772.451 43.4429 774.965 Q41.3104 777.448 41.3104 782.636 L41.3104 792.948 M21.7677 792.948 L36.0905 792.948 L36.0905 783.432 Q36.0905 778.721 34.34 776.429 Q32.5576 774.106 28.9291 774.106 Q25.3325 774.106 23.5501 776.429 Q21.7677 778.721 21.7677 783.432 L21.7677 792.948 M16.4842 799.378 L16.4842 782.954 Q16.4842 775.602 19.5397 771.623 Q22.5952 767.645 28.2289 767.645 Q32.5894 767.645 35.1675 769.682 Q37.7456 771.719 38.3822 775.665 Q39.4007 770.923 42.6472 768.313 Q45.8619 765.671 50.6998 765.671 Q57.0655 765.671 60.5348 770 Q64.0042 774.329 64.0042 782.318 L64.0042 799.378 L16.4842 799.378 Z" fill="#000000" fill-rule="evenodd" fill-opacity="1" /><path clip-path="url(#clip080)" d="M35.1993 727.159 Q31.2526 724.963 29.3747 721.907 Q27.4968 718.851 27.4968 714.714 Q27.4968 709.144 31.4117 706.12 Q35.2948 703.096 42.4881 703.096 L64.0042 703.096 L64.0042 708.985 L42.679 708.985 Q37.5546 708.985 35.072 710.799 Q32.5894 712.613 32.5894 716.337 Q32.5894 720.888 35.6131 723.53 Q38.6368 726.172 43.8567 726.172 L64.0042 726.172 L64.0042 732.06 L42.679 732.06 Q37.5228 732.06 35.072 733.875 Q32.5894 735.689 32.5894 739.476 Q32.5894 743.964 35.6449 746.606 Q38.6686 749.248 43.8567 749.248 L64.0042 749.248 L64.0042 755.136 L28.3562 755.136 L28.3562 749.248 L33.8944 749.248 Q30.616 747.243 29.0564 744.442 Q27.4968 741.641 27.4968 737.789 Q27.4968 733.906 29.4702 731.201 Q31.4436 728.464 35.1993 727.159 Z" fill="#000000" fill-rule="evenodd" fill-opacity="1" /><path clip-path="url(#clip080)" d="M1134.03 19.2256 L1113.37 51.5113 L1134.03 51.5113 L1134.03 19.2256 M1131.88 12.096 L1142.17 12.096 L1142.17 51.5113 L1150.8 51.5113 L1150.8 58.3168 L1142.17 58.3168 L1142.17 72.576 L1134.03 72.576 L1134.03 58.3168 L1106.73 58.3168 L1106.73 50.4176 L1131.88 12.096 Z" fill="#000000" fill-rule="evenodd" fill-opacity="1" /><path clip-path="url(#clip080)" d="M1170.65 14.324 L1170.65 27.2059 L1186 27.2059 L1186 32.9987 L1170.65 32.9987 L1170.65 57.6282 Q1170.65 63.1779 1172.15 64.7578 Q1173.69 66.3376 1178.35 66.3376 L1186 66.3376 L1186 72.576 L1178.35 72.576 Q1169.72 72.576 1166.44 69.3758 Q1163.16 66.1351 1163.16 57.6282 L1163.16 32.9987 L1157.69 32.9987 L1157.69 27.2059 L1163.16 27.2059 L1163.16 14.324 L1170.65 14.324 Z" fill="#000000" fill-rule="evenodd" fill-opacity="1" /><path clip-path="url(#clip080)" d="M1233.52 45.1919 L1233.52 72.576 L1226.07 72.576 L1226.07 45.4349 Q1226.07 38.994 1223.56 35.7938 Q1221.05 32.5936 1216.02 32.5936 Q1209.99 32.5936 1206.5 36.4419 Q1203.02 40.2903 1203.02 46.9338 L1203.02 72.576 L1195.52 72.576 L1195.52 9.54393 L1203.02 9.54393 L1203.02 34.2544 Q1205.69 30.163 1209.3 28.1376 Q1212.94 26.1121 1217.68 26.1121 Q1225.5 26.1121 1229.51 30.9732 Q1233.52 35.7938 1233.52 45.1919 Z" fill="#000000" fill-rule="evenodd" fill-opacity="1" /><path clip-path="url(#clip080)" d="M1292.34 32.4315 Q1286.35 32.4315 1282.86 37.1306 Q1279.38 41.7891 1279.38 49.9314 Q1279.38 58.0738 1282.82 62.7728 Q1286.31 67.4314 1292.34 67.4314 Q1298.3 67.4314 1301.78 62.7323 Q1305.26 58.0333 1305.26 49.9314 Q1305.26 41.8701 1301.78 37.1711 Q1298.3 32.4315 1292.34 32.4315 M1292.34 26.1121 Q1302.06 26.1121 1307.61 32.4315 Q1313.16 38.7509 1313.16 49.9314 Q1313.16 61.0714 1307.61 67.4314 Q1302.06 73.7508 1292.34 73.7508 Q1282.58 73.7508 1277.03 67.4314 Q1271.52 61.0714 1271.52 49.9314 Q1271.52 38.7509 1277.03 32.4315 Q1282.58 26.1121 1292.34 26.1121 Z" fill="#000000" fill-rule="evenodd" fill-opacity="1" /><path clip-path="url(#clip080)" d="M1351.81 34.1734 Q1350.55 33.4443 1349.05 33.1202 Q1347.6 32.7556 1345.81 32.7556 Q1339.49 32.7556 1336.09 36.8875 Q1332.73 40.9789 1332.73 48.6757 L1332.73 72.576 L1325.23 72.576 L1325.23 27.2059 L1332.73 27.2059 L1332.73 34.2544 Q1335.08 30.1225 1338.85 28.1376 Q1342.61 26.1121 1348 26.1121 Q1348.77 26.1121 1349.7 26.2337 Q1350.63 26.3147 1351.77 26.5172 L1351.81 34.1734 Z" fill="#000000" fill-rule="evenodd" fill-opacity="1" /><path clip-path="url(#clip080)" d="M1388.02 34.0924 L1388.02 9.54393 L1395.48 9.54393 L1395.48 72.576 L1388.02 72.576 L1388.02 65.7705 Q1385.67 69.8214 1382.07 71.8063 Q1378.5 73.7508 1373.48 73.7508 Q1365.26 73.7508 1360.07 67.1883 Q1354.93 60.6258 1354.93 49.9314 Q1354.93 39.2371 1360.07 32.6746 Q1365.26 26.1121 1373.48 26.1121 Q1378.5 26.1121 1382.07 28.0971 Q1385.67 30.0415 1388.02 34.0924 M1362.62 49.9314 Q1362.62 58.1548 1365.99 62.8538 Q1369.39 67.5124 1375.3 67.5124 Q1381.22 67.5124 1384.62 62.8538 Q1388.02 58.1548 1388.02 49.9314 Q1388.02 41.7081 1384.62 37.0496 Q1381.22 32.3505 1375.3 32.3505 Q1369.39 32.3505 1365.99 37.0496 Q1362.62 41.7081 1362.62 49.9314 Z" fill="#000000" fill-rule="evenodd" fill-opacity="1" /><path clip-path="url(#clip080)" d="M1449.64 48.0275 L1449.64 51.6733 L1415.37 51.6733 Q1415.85 59.3701 1419.99 63.421 Q1424.16 67.4314 1431.57 67.4314 Q1435.86 67.4314 1439.88 66.3781 Q1443.93 65.3249 1447.9 63.2184 L1447.9 70.267 Q1443.89 71.9684 1439.67 72.8596 Q1435.46 73.7508 1431.13 73.7508 Q1420.27 73.7508 1413.91 67.4314 Q1407.59 61.1119 1407.59 50.3365 Q1407.59 39.1965 1413.58 32.6746 Q1419.62 26.1121 1429.83 26.1121 Q1438.98 26.1121 1444.29 32.0264 Q1449.64 37.9003 1449.64 48.0275 M1442.18 45.84 Q1442.1 39.7232 1438.74 36.0774 Q1435.42 32.4315 1429.91 32.4315 Q1423.67 32.4315 1419.9 35.9558 Q1416.18 39.4801 1415.61 45.8805 L1442.18 45.84 Z" fill="#000000" fill-rule="evenodd" fill-opacity="1" /><path clip-path="url(#clip080)" d="M1488.16 34.1734 Q1486.91 33.4443 1485.41 33.1202 Q1483.95 32.7556 1482.17 32.7556 Q1475.85 32.7556 1472.44 36.8875 Q1469.08 40.9789 1469.08 48.6757 L1469.08 72.576 L1461.59 72.576 L1461.59 27.2059 L1469.08 27.2059 L1469.08 34.2544 Q1471.43 30.1225 1475.2 28.1376 Q1478.97 26.1121 1484.35 26.1121 Q1485.12 26.1121 1486.06 26.2337 Q1486.99 26.3147 1488.12 26.5172 L1488.16 34.1734 Z" fill="#000000" fill-rule="evenodd" fill-opacity="1" /><circle clip-path="url(#clip082)" cx="301.869" cy="160.256" r="14.4" fill="#009af9" fill-rule="evenodd" fill-opacity="1" stroke="#000000" stroke-opacity="1" stroke-width="3.2"/>
<circle clip-path="url(#clip082)" cx="315.938" cy="180.327" r="14.4" fill="#009af9" fill-rule="evenodd" fill-opacity="1" stroke="#000000" stroke-opacity="1" stroke-width="3.2"/>
<circle clip-path="url(#clip082)" cx="339.938" cy="200.397" r="14.4" fill="#009af9" fill-rule="evenodd" fill-opacity="1" stroke="#000000" stroke-opacity="1" stroke-width="3.2"/>
<circle clip-path="url(#clip082)" cx="358.972" cy="220.467" r="14.4" fill="#009af9" fill-rule="evenodd" fill-opacity="1" stroke="#000000" stroke-opacity="1" stroke-width="3.2"/>
<circle clip-path="url(#clip082)" cx="385.455" cy="240.538" r="14.4" fill="#009af9" fill-rule="evenodd" fill-opacity="1" stroke="#000000" stroke-opacity="1" stroke-width="3.2"/>
<circle clip-path="url(#clip082)" cx="416.075" cy="260.608" r="14.4" fill="#009af9" fill-rule="evenodd" fill-opacity="1" stroke="#000000" stroke-opacity="1" stroke-width="3.2"/>
<circle clip-path="url(#clip082)" cx="451.661" cy="280.678" r="14.4" fill="#009af9" fill-rule="evenodd" fill-opacity="1" stroke="#000000" stroke-opacity="1" stroke-width="3.2"/>
<circle clip-path="url(#clip082)" cx="482.281" cy="300.749" r="14.4" fill="#009af9" fill-rule="evenodd" fill-opacity="1" stroke="#000000" stroke-opacity="1" stroke-width="3.2"/>
<circle clip-path="url(#clip082)" cx="517.039" cy="320.819" r="14.4" fill="#009af9" fill-rule="evenodd" fill-opacity="1" stroke="#000000" stroke-opacity="1" stroke-width="3.2"/>
<circle clip-path="url(#clip082)" cx="548.487" cy="340.889" r="14.4" fill="#009af9" fill-rule="evenodd" fill-opacity="1" stroke="#000000" stroke-opacity="1" stroke-width="3.2"/>
<circle clip-path="url(#clip082)" cx="581.591" cy="360.96" r="14.4" fill="#009af9" fill-rule="evenodd" fill-opacity="1" stroke="#000000" stroke-opacity="1" stroke-width="3.2"/>
<circle clip-path="url(#clip082)" cx="733.865" cy="441.241" r="14.4" fill="#009af9" fill-rule="evenodd" fill-opacity="1" stroke="#000000" stroke-opacity="1" stroke-width="3.2"/>
<circle clip-path="url(#clip082)" cx="799.243" cy="481.382" r="14.4" fill="#009af9" fill-rule="evenodd" fill-opacity="1" stroke="#000000" stroke-opacity="1" stroke-width="3.2"/>
<circle clip-path="url(#clip082)" cx="871.243" cy="521.523" r="14.4" fill="#009af9" fill-rule="evenodd" fill-opacity="1" stroke="#000000" stroke-opacity="1" stroke-width="3.2"/>
<circle clip-path="url(#clip082)" cx="949.863" cy="561.663" r="14.4" fill="#009af9" fill-rule="evenodd" fill-opacity="1" stroke="#000000" stroke-opacity="1" stroke-width="3.2"/>
<circle clip-path="url(#clip082)" cx="1014.41" cy="601.804" r="14.4" fill="#009af9" fill-rule="evenodd" fill-opacity="1" stroke="#000000" stroke-opacity="1" stroke-width="3.2"/>
<circle clip-path="url(#clip082)" cx="1110.41" cy="662.015" r="14.4" fill="#009af9" fill-rule="evenodd" fill-opacity="1" stroke="#000000" stroke-opacity="1" stroke-width="3.2"/>
<circle clip-path="url(#clip082)" cx="1292.48" cy="762.367" r="14.4" fill="#009af9" fill-rule="evenodd" fill-opacity="1" stroke="#000000" stroke-opacity="1" stroke-width="3.2"/>
<circle clip-path="url(#clip082)" cx="1474.55" cy="862.719" r="14.4" fill="#009af9" fill-rule="evenodd" fill-opacity="1" stroke="#000000" stroke-opacity="1" stroke-width="3.2"/>
<circle clip-path="url(#clip082)" cx="1616.89" cy="922.93" r="14.4" fill="#009af9" fill-rule="evenodd" fill-opacity="1" stroke="#000000" stroke-opacity="1" stroke-width="3.2"/>
<circle clip-path="url(#clip082)" cx="1753.44" cy="963.07" r="14.4" fill="#009af9" fill-rule="evenodd" fill-opacity="1" stroke="#000000" stroke-opacity="1" stroke-width="3.2"/>
<circle clip-path="url(#clip082)" cx="1835.37" cy="1003.21" r="14.4" fill="#009af9" fill-rule="evenodd" fill-opacity="1" stroke="#000000" stroke-opacity="1" stroke-width="3.2"/>
<circle clip-path="url(#clip082)" cx="1887.51" cy="1043.35" r="14.4" fill="#009af9" fill-rule="evenodd" fill-opacity="1" stroke="#000000" stroke-opacity="1" stroke-width="3.2"/>
<circle clip-path="url(#clip082)" cx="1942.96" cy="1083.49" r="14.4" fill="#009af9" fill-rule="evenodd" fill-opacity="1" stroke="#000000" stroke-opacity="1" stroke-width="3.2"/>
<circle clip-path="url(#clip082)" cx="1994.27" cy="1123.63" r="14.4" fill="#009af9" fill-rule="evenodd" fill-opacity="1" stroke="#000000" stroke-opacity="1" stroke-width="3.2"/>
<circle clip-path="url(#clip082)" cx="2046.4" cy="1163.77" r="14.4" fill="#009af9" fill-rule="evenodd" fill-opacity="1" stroke="#000000" stroke-opacity="1" stroke-width="3.2"/>
<circle clip-path="url(#clip082)" cx="2097.71" cy="1203.91" r="14.4" fill="#009af9" fill-rule="evenodd" fill-opacity="1" stroke="#000000" stroke-opacity="1" stroke-width="3.2"/>
<circle clip-path="url(#clip082)" cx="2134.13" cy="1244.06" r="14.4" fill="#009af9" fill-rule="evenodd" fill-opacity="1" stroke="#000000" stroke-opacity="1" stroke-width="3.2"/>
<circle clip-path="url(#clip082)" cx="2181.3" cy="1284.2" r="14.4" fill="#009af9" fill-rule="evenodd" fill-opacity="1" stroke="#000000" stroke-opacity="1" stroke-width="3.2"/>
<circle clip-path="url(#clip082)" cx="2232.61" cy="1324.34" r="14.4" fill="#009af9" fill-rule="evenodd" fill-opacity="1" stroke="#000000" stroke-opacity="1" stroke-width="3.2"/>
<circle clip-path="url(#clip082)" cx="2293.02" cy="1364.48" r="14.4" fill="#009af9" fill-rule="evenodd" fill-opacity="1" stroke="#000000" stroke-opacity="1" stroke-width="3.2"/>
<polyline clip-path="url(#clip082)" style="stroke:#e26f46; stroke-linecap:round; stroke-linejoin:round; stroke-width:4; stroke-opacity:1; fill:none" points="301.869,188.831 303.862,189.837 305.856,190.846 307.849,191.858 309.842,192.872 311.835,193.889 313.828,194.909 315.821,195.932 317.814,196.957 319.808,197.985 321.801,199.016 323.794,200.049 325.787,201.085 327.78,202.124 329.773,203.165 331.766,204.208 333.76,205.255 335.753,206.304 337.746,207.355 339.739,208.409 341.732,209.465 343.725,210.524 345.718,211.585 347.712,212.648 349.705,213.714 351.698,214.783 353.691,215.853 355.684,216.926 357.677,218.002 359.67,219.079 361.664,220.159 363.657,221.241 365.65,222.326 367.643,223.413 369.636,224.501 371.629,225.593 373.622,226.686 375.616,227.781 377.609,228.879 379.602,229.978 381.595,231.08 383.588,232.184 385.581,233.29 387.574,234.398 389.568,235.508 391.561,236.62 393.554,237.734 395.547,238.85 397.54,239.968 399.533,241.087 401.526,242.209 403.52,243.333 405.513,244.458 407.506,245.586 409.499,246.715 411.492,247.846 413.485,248.979 415.479,250.114 417.472,251.251 419.465,252.389 421.458,253.529 423.451,254.671 425.444,255.814 427.437,256.959 429.431,258.106 431.424,259.255 433.417,260.405 435.41,261.557 437.403,262.71 439.396,263.865 441.389,265.022 443.383,266.18 445.376,267.339 447.369,268.501 449.362,269.663 451.355,270.828 453.348,271.993 455.341,273.161 457.335,274.329 459.328,275.499 461.321,276.671 463.314,277.844 465.307,279.018 467.3,280.194 469.293,281.371 471.287,282.549 473.28,283.729 475.273,284.91 477.266,286.092 479.259,287.275 481.252,288.46 483.245,289.646 485.239,290.833 487.232,292.022 489.225,293.212 491.218,294.402 493.211,295.594 495.204,296.788 497.197,297.982 499.191,299.177 501.184,300.374 503.177,301.572 505.17,302.77 507.163,303.97 509.156,305.171 511.149,306.373 513.143,307.576 515.136,308.78 517.129,309.984 519.122,311.19 521.115,312.397 523.108,313.605 525.101,314.813 527.095,316.023 529.088,317.233 531.081,318.445 533.074,319.657 535.067,320.87 537.06,322.084 539.054,323.299 541.047,324.515 543.04,325.731 545.033,326.948 547.026,328.166 549.019,329.385 551.012,330.604 553.006,331.825 554.999,333.045 556.992,334.267 558.985,335.489 560.978,336.712 562.971,337.936 564.964,339.16 566.958,340.385 568.951,341.611 570.944,342.837 572.937,344.064 574.93,345.291 576.923,346.519 578.916,347.748 580.91,348.977 582.903,350.206 584.896,351.437 586.889,352.667 588.882,353.898 590.875,355.13 592.868,356.362 594.862,357.594 596.855,358.827 598.848,360.061 600.841,361.295 602.834,362.529 604.827,363.764 606.82,364.999 608.814,366.234 610.807,367.47 612.8,368.706 614.793,369.942 616.786,371.179 618.779,372.416 620.772,373.653 622.766,374.891 624.759,376.129 626.752,377.367 628.745,378.605 630.738,379.844 632.731,381.083 634.724,382.322 636.718,383.561 638.711,384.801 640.704,386.04 642.697,387.28 644.69,388.52 646.683,389.76 648.677,391 650.67,392.241 652.663,393.481 654.656,394.722 656.649,395.963 658.642,397.203 660.635,398.444 662.629,399.685 664.622,400.926 666.615,402.167 668.608,403.408 670.601,404.649 672.594,405.89 674.587,407.131 676.581,408.372 678.574,409.613 680.567,410.854 682.56,412.095 684.553,413.335 686.546,414.576 688.539,415.817 690.533,417.057 692.526,418.298 694.519,419.538 696.512,420.778 698.505,422.018 700.498,423.258 702.491,424.498 704.485,425.738 706.478,426.977 708.471,428.216 710.464,429.455 712.457,430.694 714.45,431.933 716.443,433.171 718.437,434.41 720.43,435.648 722.423,436.885 724.416,438.123 726.409,439.36 728.402,440.597 730.395,441.834 732.389,443.07 734.382,444.306 736.375,445.542 738.368,446.777 740.361,448.012 742.354,449.247 744.347,450.481 746.341,451.716 748.334,452.949 750.327,454.182 752.32,455.415 754.313,456.648 756.306,457.88 758.299,459.112 760.293,460.343 762.286,461.574 764.279,462.804 766.272,464.034 768.265,465.264 770.258,466.493 772.252,467.722 774.245,468.95 776.238,470.177 778.231,471.405 780.224,472.631 782.217,473.857 784.21,475.083 786.204,476.308 788.197,477.533 790.19,478.757 792.183,479.98 794.176,481.203 796.169,482.426 798.162,483.648 800.156,484.869 802.149,486.089 804.142,487.31 806.135,488.529 808.128,489.748 810.121,490.966 812.114,492.184 814.108,493.401 816.101,494.617 818.094,495.833 820.087,497.048 822.08,498.263 824.073,499.476 826.066,500.689 828.06,501.902 830.053,503.114 832.046,504.325 834.039,505.535 836.032,506.745 838.025,507.954 840.018,509.162 842.012,510.369 844.005,511.576 845.998,512.782 847.991,513.988 849.984,515.192 851.977,516.396 853.97,517.599 855.964,518.802 857.957,520.003 859.95,521.204 861.943,522.404 863.936,523.603 865.929,524.801 867.922,525.999 869.916,527.196 871.909,528.392 873.902,529.587 875.895,530.781 877.888,531.975 879.881,533.168 881.874,534.36 883.868,535.551 885.861,536.741 887.854,537.93 889.847,539.119 891.84,540.306 893.833,541.493 895.827,542.679 897.82,543.864 899.813,545.048 901.806,546.231 903.799,547.413 905.792,548.595 907.785,549.775 909.779,550.955 911.772,552.134 913.765,553.312 915.758,554.488 917.751,555.664 919.744,556.839 921.737,558.013 923.731,559.187 925.724,560.359 927.717,561.53 929.71,562.7 931.703,563.87 933.696,565.038 935.689,566.206 937.683,567.372 939.676,568.538 941.669,569.702 943.662,570.866 945.655,572.028 947.648,573.19 949.641,574.35 951.635,575.51 953.628,576.669 955.621,577.826 957.614,578.983 959.607,580.138 961.6,581.293 963.593,582.447 965.587,583.599 967.58,584.751 969.573,585.901 971.566,587.051 973.559,588.199 975.552,589.347 977.545,590.493 979.539,591.638 981.532,592.783 983.525,593.926 985.518,595.068 987.511,596.209 989.504,597.35 991.497,598.489 993.491,599.627 995.484,600.764 997.477,601.9 999.47,603.034 1001.46,604.168 1003.46,605.301 1005.45,606.433 1007.44,607.563 1009.44,608.693 1011.43,609.821 1013.42,610.948 1015.42,612.075 1017.41,613.2 1019.4,614.324 1021.39,615.447 1023.39,616.569 1025.38,617.69 1027.37,618.81 1029.37,619.928 1031.36,621.046 1033.35,622.162 1035.35,623.278 1037.34,624.392 1039.33,625.505 1041.33,626.617 1043.32,627.728 1045.31,628.838 1047.31,629.947 1049.3,631.054 1051.29,632.161 1053.28,633.266 1055.28,634.371 1057.27,635.474 1059.26,636.576 1061.26,637.677 1063.25,638.777 1065.24,639.876 1067.24,640.974 1069.23,642.07 1071.22,643.166 1073.22,644.26 1075.21,645.353 1077.2,646.445 1079.2,647.536 1081.19,648.626 1083.18,649.715 1085.18,650.802 1087.17,651.889 1089.16,652.974 1091.15,654.059 1093.15,655.142 1095.14,656.224 1097.13,657.305 1099.13,658.385 1101.12,659.463 1103.11,660.541 1105.11,661.617 1107.1,662.693 1109.09,663.767 1111.09,664.84 1113.08,665.912 1115.07,666.983 1117.07,668.053 1119.06,669.122 1121.05,670.189 1123.05,671.256 1125.04,672.321 1127.03,673.385 1129.02,674.449 1131.02,675.511 1133.01,676.572 1135,677.631 1137,678.69 1138.99,679.748 1140.98,680.804 1142.98,681.86 1144.97,682.914 1146.96,683.967 1148.96,685.019 1150.95,686.07 1152.94,687.12 1154.94,688.169 1156.93,689.217 1158.92,690.264 1160.91,691.309 1162.91,692.354 1164.9,693.397 1166.89,694.44 1168.89,695.481 1170.88,696.521 1172.87,697.56 1174.87,698.598 1176.86,699.635 1178.85,700.671 1180.85,701.706 1182.84,702.74 1184.83,703.773 1186.83,704.804 1188.82,705.835 1190.81,706.865 1192.81,707.893 1194.8,708.921 1196.79,709.947 1198.78,710.972 1200.78,711.997 1202.77,713.02 1204.76,714.042 1206.76,715.064 1208.75,716.084 1210.74,717.103 1212.74,718.121 1214.73,719.138 1216.72,720.155 1218.72,721.17 1220.71,722.184 1222.7,723.197 1224.7,724.209 1226.69,725.22 1228.68,726.23 1230.67,727.239 1232.67,728.248 1234.66,729.255 1236.65,730.261 1238.65,731.266 1240.64,732.27 1242.63,733.274 1244.63,734.276 1246.62,735.277 1248.61,736.278 1250.61,737.277 1252.6,738.276 1254.59,739.273 1256.59,740.27 1258.58,741.265 1260.57,742.26 1262.57,743.254 1264.56,744.247 1266.55,745.239 1268.54,746.23 1270.54,747.22 1272.53,748.209 1274.52,749.197 1276.52,750.185 1278.51,751.171 1280.5,752.157 1282.5,753.142 1284.49,754.126 1286.48,755.109 1288.48,756.091 1290.47,757.072 1292.46,758.052 1294.46,759.032 1296.45,760.011 1298.44,760.989 1300.44,761.966 1302.43,762.942 1304.42,763.917 1306.41,764.892 1308.41,765.866 1310.4,766.839 1312.39,767.811 1314.39,768.782 1316.38,769.753 1318.37,770.722 1320.37,771.691 1322.36,772.66 1324.35,773.627 1326.35,774.594 1328.34,775.56 1330.33,776.525 1332.33,777.489 1334.32,778.453 1336.31,779.416 1338.3,780.378 1340.3,781.34 1342.29,782.301 1344.28,783.261 1346.28,784.22 1348.27,785.179 1350.26,786.137 1352.26,787.094 1354.25,788.051 1356.24,789.007 1358.24,789.962 1360.23,790.917 1362.22,791.871 1364.22,792.824 1366.21,793.777 1368.2,794.729 1370.2,795.681 1372.19,796.632 1374.18,797.582 1376.17,798.532 1378.17,799.481 1380.16,800.43 1382.15,801.378 1384.15,802.325 1386.14,803.272 1388.13,804.218 1390.13,805.164 1392.12,806.109 1394.11,807.054 1396.11,807.998 1398.1,808.942 1400.09,809.885 1402.09,810.828 1404.08,811.77 1406.07,812.711 1408.06,813.653 1410.06,814.593 1412.05,815.534 1414.04,816.473 1416.04,817.413 1418.03,818.352 1420.02,819.29 1422.02,820.229 1424.01,821.166 1426,822.104 1428,823.041 1429.99,823.977 1431.98,824.913 1433.98,825.849 1435.97,826.785 1437.96,827.72 1439.96,828.654 1441.95,829.589 1443.94,830.523 1445.93,831.457 1447.93,832.39 1449.92,833.324 1451.91,834.256 1453.91,835.189 1455.9,836.122 1457.89,837.054 1459.89,837.986 1461.88,838.917 1463.87,839.849 1465.87,840.78 1467.86,841.711 1469.85,842.642 1471.85,843.572 1473.84,844.503 1475.83,845.433 1477.82,846.363 1479.82,847.293 1481.81,848.223 1483.8,849.153 1485.8,850.082 1487.79,851.012 1489.78,851.941 1491.78,852.87 1493.77,853.799 1495.76,854.729 1497.76,855.658 1499.75,856.587 1501.74,857.516 1503.74,858.445 1505.73,859.373 1507.72,860.302 1509.72,861.231 1511.71,862.16 1513.7,863.089 1515.69,864.018 1517.69,864.947 1519.68,865.876 1521.67,866.806 1523.67,867.735 1525.66,868.664 1527.65,869.594 1529.65,870.523 1531.64,871.453 1533.63,872.383 1535.63,873.313 1537.62,874.243 1539.61,875.173 1541.61,876.104 1543.6,877.034 1545.59,877.965 1547.59,878.896 1549.58,879.828 1551.57,880.759 1553.56,881.691 1555.56,882.623 1557.55,883.556 1559.54,884.488 1561.54,885.421 1563.53,886.354 1565.52,887.288 1567.52,888.222 1569.51,889.156 1571.5,890.091 1573.5,891.026 1575.49,891.961 1577.48,892.897 1579.48,893.833 1581.47,894.77 1583.46,895.707 1585.45,896.644 1587.45,897.582 1589.44,898.521 1591.43,899.46 1593.43,900.399 1595.42,901.339 1597.41,902.279 1599.41,903.22 1601.4,904.162 1603.39,905.104 1605.39,906.047 1607.38,906.99 1609.37,907.934 1611.37,908.878 1613.36,909.823 1615.35,910.769 1617.35,911.715 1619.34,912.662 1621.33,913.61 1623.32,914.559 1625.32,915.508 1627.31,916.458 1629.3,917.408 1631.3,918.36 1633.29,919.312 1635.28,920.265 1637.28,921.218 1639.27,922.173 1641.26,923.128 1643.26,924.084 1645.25,925.041 1647.24,925.999 1649.24,926.958 1651.23,927.917 1653.22,928.878 1655.21,929.839 1657.21,930.802 1659.2,931.765 1661.19,932.729 1663.19,933.695 1665.18,934.661 1667.17,935.628 1669.17,936.596 1671.16,937.566 1673.15,938.536 1675.15,939.507 1677.14,940.48 1679.13,941.454 1681.13,942.428 1683.12,943.404 1685.11,944.381 1687.11,945.359 1689.1,946.338 1691.09,947.319 1693.08,948.301 1695.08,949.284 1697.07,950.268 1699.06,951.253 1701.06,952.24 1703.05,953.228 1705.04,954.217 1707.04,955.207 1709.03,956.199 1711.02,957.192 1713.02,958.187 1715.01,959.183 1717,960.18 1719,961.179 1720.99,962.179 1722.98,963.181 1724.97,964.184 1726.97,965.188 1728.96,966.194 1730.95,967.202 1732.95,968.211 1734.94,969.221 1736.93,970.233 1738.93,971.247 1740.92,972.262 1742.91,973.279 1744.91,974.297 1746.9,975.317 1748.89,976.339 1750.89,977.363 1752.88,978.388 1754.87,979.414 1756.87,980.443 1758.86,981.473 1760.85,982.505 1762.84,983.539 1764.84,984.575 1766.83,985.612 1768.82,986.651 1770.82,987.692 1772.81,988.735 1774.8,989.78 1776.8,990.826 1778.79,991.875 1780.78,992.925 1782.78,993.978 1784.77,995.032 1786.76,996.088 1788.76,997.147 1790.75,998.207 1792.74,999.269 1794.74,1000.33 1796.73,1001.4 1798.72,1002.47 1800.71,1003.54 1802.71,1004.61 1804.7,1005.69 1806.69,1006.76 1808.69,1007.84 1810.68,1008.93 1812.67,1010.01 1814.67,1011.09 1816.66,1012.18 1818.65,1013.27 1820.65,1014.37 1822.64,1015.46 1824.63,1016.56 1826.63,1017.66 1828.62,1018.76 1830.61,1019.86 1832.6,1020.97 1834.6,1022.08 1836.59,1023.19 1838.58,1024.31 1840.58,1025.42 1842.57,1026.54 1844.56,1027.66 1846.56,1028.79 1848.55,1029.92 1850.54,1031.04 1852.54,1032.18 1854.53,1033.31 1856.52,1034.45 1858.52,1035.59 1860.51,1036.73 1862.5,1037.88 1864.5,1039.02 1866.49,1040.17 1868.48,1041.33 1870.47,1042.48 1872.47,1043.64 1874.46,1044.8 1876.45,1045.97 1878.45,1047.14 1880.44,1048.31 1882.43,1049.48 1884.43,1050.65 1886.42,1051.83 1888.41,1053.02 1890.41,1054.2 1892.4,1055.39 1894.39,1056.58 1896.39,1057.77 1898.38,1058.97 1900.37,1060.17 1902.36,1061.37 1904.36,1062.58 1906.35,1063.79 1908.34,1065 1910.34,1066.22 1912.33,1067.44 1914.32,1068.66 1916.32,1069.88 1918.31,1071.11 1920.3,1072.34 1922.3,1073.58 1924.29,1074.82 1926.28,1076.06 1928.28,1077.3 1930.27,1078.55 1932.26,1079.8 1934.26,1081.06 1936.25,1082.32 1938.24,1083.58 1940.23,1084.85 1942.23,1086.12 1944.22,1087.39 1946.21,1088.67 1948.21,1089.95 1950.2,1091.23 1952.19,1092.52 1954.19,1093.81 1956.18,1095.1 1958.17,1096.4 1960.17,1097.7 1962.16,1099.01 1964.15,1100.32 1966.15,1101.63 1968.14,1102.95 1970.13,1104.27 1972.12,1105.59 1974.12,1106.92 1976.11,1108.25 1978.1,1109.59 1980.1,1110.93 1982.09,1112.28 1984.08,1113.62 1986.08,1114.98 1988.07,1116.33 1990.06,1117.69 1992.06,1119.06 1994.05,1120.43 1996.04,1121.8 1998.04,1123.17 2000.03,1124.56 2002.02,1125.94 2004.02,1127.33 2006.01,1128.72 2008,1130.12 2009.99,1131.52 2011.99,1132.93 2013.98,1134.34 2015.97,1135.76 2017.97,1137.18 2019.96,1138.6 2021.95,1140.03 2023.95,1141.46 2025.94,1142.9 2027.93,1144.34 2029.93,1145.79 2031.92,1147.24 2033.91,1148.69 2035.91,1150.15 2037.9,1151.62 2039.89,1153.09 2041.89,1154.56 2043.88,1156.04 2045.87,1157.52 2047.86,1159.01 2049.86,1160.5 2051.85,1162 2053.84,1163.5 2055.84,1165.01 2057.83,1166.52 2059.82,1168.04 2061.82,1169.56 2063.81,1171.09 2065.8,1172.62 2067.8,1174.15 2069.79,1175.7 2071.78,1177.24 2073.78,1178.8 2075.77,1180.35 2077.76,1181.91 2079.75,1183.48 2081.75,1185.05 2083.74,1186.63 2085.73,1188.21 2087.73,1189.8 2089.72,1191.39 2091.71,1192.99 2093.71,1194.6 2095.7,1196.21 2097.69,1197.82 2099.69,1199.44 2101.68,1201.07 2103.67,1202.7 2105.67,1204.33 2107.66,1205.97 2109.65,1207.62 2111.65,1209.27 2113.64,1210.93 2115.63,1212.6 2117.62,1214.27 2119.62,1215.94 2121.61,1217.62 2123.6,1219.31 2125.6,1221 2127.59,1222.7 2129.58,1224.4 2131.58,1226.11 2133.57,1227.83 2135.56,1229.55 2137.56,1231.28 2139.55,1233.01 2141.54,1234.75 2143.54,1236.49 2145.53,1238.24 2147.52,1240 2149.51,1241.76 2151.51,1243.53 2153.5,1245.31 2155.49,1247.09 2157.49,1248.88 2159.48,1250.67 2161.47,1252.47 2163.47,1254.28 2165.46,1256.09 2167.45,1257.91 2169.45,1259.73 2171.44,1261.56 2173.43,1263.4 2175.43,1265.24 2177.42,1267.1 2179.41,1268.95 2181.41,1270.82 2183.4,1272.69 2185.39,1274.56 2187.38,1276.45 2189.38,1278.33 2191.37,1280.23 2193.36,1282.13 2195.36,1284.04 2197.35,1285.96 2199.34,1287.88 2201.34,1289.81 2203.33,1291.75 2205.32,1293.69 2207.32,1295.64 2209.31,1297.6 2211.3,1299.56 2213.3,1301.54 2215.29,1303.51 2217.28,1305.5 2219.27,1307.49 2221.27,1309.49 2223.26,1311.5 2225.25,1313.51 2227.25,1315.53 2229.24,1317.56 2231.23,1319.59 2233.23,1321.63 2235.22,1323.68 2237.21,1325.74 2239.21,1327.8 2241.2,1329.87 2243.19,1331.95 2245.19,1334.04 2247.18,1336.13 2249.17,1338.23 2251.17,1340.34 2253.16,1342.46 2255.15,1344.58 2257.14,1346.71 2259.14,1348.85 2261.13,1350.99 2263.12,1353.15 2265.12,1355.31 2267.11,1357.48 2269.1,1359.66 2271.1,1361.84 2273.09,1364.03 2275.08,1366.23 2277.08,1368.44 2279.07,1370.66 2281.06,1372.88 2283.06,1375.11 2285.05,1377.35 2287.04,1379.6 2289.04,1381.86 2291.03,1384.12 2293.02,1386.4 "/>
<path clip-path="url(#clip080)" d="M1407.78 322.316 L2282.4 322.316 L2282.4 166.796 L1407.78 166.796  Z" fill="#ffffff" fill-rule="evenodd" fill-opacity="1"/>
<polyline clip-path="url(#clip080)" style="stroke:#000000; stroke-linecap:round; stroke-linejoin:round; stroke-width:4; stroke-opacity:1; fill:none" points="1407.78,322.316 2282.4,322.316 2282.4,166.796 1407.78,166.796 1407.78,322.316 "/>
<circle clip-path="url(#clip080)" cx="1501.58" cy="218.636" r="23.04" fill="#009af9" fill-rule="evenodd" fill-opacity="1" stroke="#000000" stroke-opacity="1" stroke-width="5.12"/>
<path clip-path="url(#clip080)" d="M1614.3 213.925 L1614.3 199.897 L1618.56 199.897 L1618.56 235.916 L1614.3 235.916 L1614.3 232.027 Q1612.96 234.342 1610.9 235.476 Q1608.86 236.587 1605.99 236.587 Q1601.29 236.587 1598.33 232.837 Q1595.39 229.087 1595.39 222.976 Q1595.39 216.865 1598.33 213.115 Q1601.29 209.365 1605.99 209.365 Q1608.86 209.365 1610.9 210.499 Q1612.96 211.61 1614.3 213.925 M1599.79 222.976 Q1599.79 227.675 1601.71 230.36 Q1603.65 233.022 1607.03 233.022 Q1610.41 233.022 1612.36 230.36 Q1614.3 227.675 1614.3 222.976 Q1614.3 218.277 1612.36 215.615 Q1610.41 212.93 1607.03 212.93 Q1603.65 212.93 1601.71 215.615 Q1599.79 218.277 1599.79 222.976 Z" fill="#000000" fill-rule="evenodd" fill-opacity="1" /><path clip-path="url(#clip080)" d="M1645.94 222.976 Q1645.94 218.277 1644 215.615 Q1642.08 212.93 1638.7 212.93 Q1635.32 212.93 1633.38 215.615 Q1631.45 218.277 1631.45 222.976 Q1631.45 227.675 1633.38 230.36 Q1635.32 233.022 1638.7 233.022 Q1642.08 233.022 1644 230.36 Q1645.94 227.675 1645.94 222.976 M1631.45 213.925 Q1632.8 211.61 1634.83 210.499 Q1636.89 209.365 1639.74 209.365 Q1644.46 209.365 1647.4 213.115 Q1650.37 216.865 1650.37 222.976 Q1650.37 229.087 1647.4 232.837 Q1644.46 236.587 1639.74 236.587 Q1636.89 236.587 1634.83 235.476 Q1632.8 234.342 1631.45 232.027 L1631.45 235.916 L1627.17 235.916 L1627.17 199.897 L1631.45 199.897 L1631.45 213.925 Z" fill="#000000" fill-rule="evenodd" fill-opacity="1" /><path clip-path="url(#clip080)" d="M1677.61 214.967 Q1679.21 212.096 1681.43 210.731 Q1683.65 209.365 1686.66 209.365 Q1690.71 209.365 1692.91 212.212 Q1695.11 215.036 1695.11 220.268 L1695.11 235.916 L1690.83 235.916 L1690.83 220.407 Q1690.83 216.68 1689.51 214.874 Q1688.19 213.069 1685.48 213.069 Q1682.17 213.069 1680.25 215.268 Q1678.33 217.467 1678.33 221.263 L1678.33 235.916 L1674.05 235.916 L1674.05 220.407 Q1674.05 216.657 1672.73 214.874 Q1671.41 213.069 1668.65 213.069 Q1665.39 213.069 1663.47 215.291 Q1661.55 217.49 1661.55 221.263 L1661.55 235.916 L1657.26 235.916 L1657.26 209.99 L1661.55 209.99 L1661.55 214.018 Q1663 211.633 1665.04 210.499 Q1667.08 209.365 1669.88 209.365 Q1672.7 209.365 1674.67 210.8 Q1676.66 212.235 1677.61 214.967 Z" fill="#000000" fill-rule="evenodd" fill-opacity="1" /><path clip-path="url(#clip080)" d="M1704.69 230.036 L1709.58 230.036 L1709.58 234.018 L1705.78 241.425 L1702.8 241.425 L1704.69 234.018 L1704.69 230.036 Z" fill="#000000" fill-rule="evenodd" fill-opacity="1" /><path clip-path="url(#clip080)" d="M1745.48 205.962 L1739.14 223.161 L1751.85 223.161 L1745.48 205.962 M1742.84 201.356 L1748.14 201.356 L1761.31 235.916 L1756.45 235.916 L1753.31 227.05 L1737.73 227.05 L1734.58 235.916 L1729.65 235.916 L1742.84 201.356 Z" fill="#000000" fill-rule="evenodd" fill-opacity="1" /><path clip-path="url(#clip080)" d="M1771.04 205.198 L1771.04 232.073 L1776.68 232.073 Q1783.84 232.073 1787.15 228.832 Q1790.48 225.592 1790.48 218.601 Q1790.48 211.657 1787.15 208.439 Q1783.84 205.198 1776.68 205.198 L1771.04 205.198 M1766.36 201.356 L1775.97 201.356 Q1786.01 201.356 1790.71 205.546 Q1795.41 209.712 1795.41 218.601 Q1795.41 227.536 1790.69 231.726 Q1785.97 235.916 1775.97 235.916 L1766.36 235.916 L1766.36 201.356 Z" fill="#000000" fill-rule="evenodd" fill-opacity="1" /><path clip-path="url(#clip080)" d="M1828.74 204.018 L1828.74 208.948 Q1826.38 206.749 1823.7 205.661 Q1821.04 204.573 1818.03 204.573 Q1812.1 204.573 1808.95 208.208 Q1805.8 211.819 1805.8 218.67 Q1805.8 225.499 1808.95 229.133 Q1812.1 232.744 1818.03 232.744 Q1821.04 232.744 1823.7 231.656 Q1826.38 230.569 1828.74 228.369 L1828.74 233.254 Q1826.29 234.92 1823.54 235.754 Q1820.8 236.587 1817.75 236.587 Q1809.9 236.587 1805.39 231.795 Q1800.87 226.981 1800.87 218.67 Q1800.87 210.337 1805.39 205.546 Q1809.9 200.731 1817.75 200.731 Q1820.85 200.731 1823.58 201.564 Q1826.34 202.374 1828.74 204.018 Z" fill="#000000" fill-rule="evenodd" fill-opacity="1" /><path clip-path="url(#clip080)" d="M1854.97 232.027 L1854.97 245.777 L1850.69 245.777 L1850.69 209.99 L1854.97 209.99 L1854.97 213.925 Q1856.31 211.61 1858.35 210.499 Q1860.41 209.365 1863.26 209.365 Q1867.98 209.365 1870.92 213.115 Q1873.88 216.865 1873.88 222.976 Q1873.88 229.087 1870.92 232.837 Q1867.98 236.587 1863.26 236.587 Q1860.41 236.587 1858.35 235.476 Q1856.31 234.342 1854.97 232.027 M1869.46 222.976 Q1869.46 218.277 1867.52 215.615 Q1865.6 212.93 1862.22 212.93 Q1858.84 212.93 1856.89 215.615 Q1854.97 218.277 1854.97 222.976 Q1854.97 227.675 1856.89 230.36 Q1858.84 233.022 1862.22 233.022 Q1865.6 233.022 1867.52 230.36 Q1869.46 227.675 1869.46 222.976 Z" fill="#000000" fill-rule="evenodd" fill-opacity="1" /><path clip-path="url(#clip080)" d="M1892.73 222.883 Q1887.56 222.883 1885.57 224.064 Q1883.58 225.244 1883.58 228.092 Q1883.58 230.36 1885.06 231.703 Q1886.57 233.022 1889.14 233.022 Q1892.68 233.022 1894.81 230.522 Q1896.96 227.999 1896.96 223.832 L1896.96 222.883 L1892.73 222.883 M1901.22 221.124 L1901.22 235.916 L1896.96 235.916 L1896.96 231.981 Q1895.5 234.342 1893.33 235.476 Q1891.15 236.587 1888 236.587 Q1884.02 236.587 1881.66 234.365 Q1879.32 232.119 1879.32 228.369 Q1879.32 223.994 1882.24 221.772 Q1885.18 219.55 1890.99 219.55 L1896.96 219.55 L1896.96 219.133 Q1896.96 216.194 1895.02 214.596 Q1893.1 212.976 1889.6 212.976 Q1887.38 212.976 1885.27 213.508 Q1883.17 214.041 1881.22 215.106 L1881.22 211.17 Q1883.56 210.268 1885.76 209.828 Q1887.96 209.365 1890.04 209.365 Q1895.67 209.365 1898.44 212.282 Q1901.22 215.198 1901.22 221.124 Z" fill="#000000" fill-rule="evenodd" fill-opacity="1" /><path clip-path="url(#clip080)" d="M1909.99 209.99 L1914.25 209.99 L1914.25 235.916 L1909.99 235.916 L1909.99 209.99 M1909.99 199.897 L1914.25 199.897 L1914.25 205.291 L1909.99 205.291 L1909.99 199.897 Z" fill="#000000" fill-rule="evenodd" fill-opacity="1" /><path clip-path="url(#clip080)" d="M1938.19 213.971 Q1937.47 213.555 1936.61 213.37 Q1935.78 213.161 1934.76 213.161 Q1931.15 213.161 1929.21 215.522 Q1927.29 217.86 1927.29 222.258 L1927.29 235.916 L1923 235.916 L1923 209.99 L1927.29 209.99 L1927.29 214.018 Q1928.63 211.657 1930.78 210.522 Q1932.93 209.365 1936.01 209.365 Q1936.45 209.365 1936.98 209.434 Q1937.52 209.481 1938.17 209.596 L1938.19 213.971 Z" fill="#000000" fill-rule="evenodd" fill-opacity="1" /><path clip-path="url(#clip080)" d="M1959.18 210.754 L1959.18 214.782 Q1957.38 213.856 1955.43 213.393 Q1953.49 212.93 1951.41 212.93 Q1948.23 212.93 1946.64 213.902 Q1945.06 214.874 1945.06 216.819 Q1945.06 218.3 1946.2 219.157 Q1947.33 219.99 1950.76 220.754 L1952.22 221.078 Q1956.75 222.05 1958.65 223.832 Q1960.57 225.592 1960.57 228.763 Q1960.57 232.374 1957.7 234.481 Q1954.85 236.587 1949.85 236.587 Q1947.77 236.587 1945.5 236.17 Q1943.26 235.777 1940.76 234.967 L1940.76 230.569 Q1943.12 231.795 1945.41 232.42 Q1947.7 233.022 1949.95 233.022 Q1952.96 233.022 1954.58 232.004 Q1956.2 230.962 1956.2 229.087 Q1956.2 227.351 1955.02 226.425 Q1953.86 225.499 1949.9 224.643 L1948.42 224.295 Q1944.46 223.462 1942.7 221.749 Q1940.94 220.013 1940.94 217.004 Q1940.94 213.346 1943.54 211.356 Q1946.13 209.365 1950.9 209.365 Q1953.26 209.365 1955.34 209.712 Q1957.42 210.059 1959.18 210.754 Z" fill="#000000" fill-rule="evenodd" fill-opacity="1" /><polyline clip-path="url(#clip080)" style="stroke:#e26f46; stroke-linecap:round; stroke-linejoin:round; stroke-width:4; stroke-opacity:1; fill:none" points="1431.23,270.476 1571.94,270.476 "/>
<path clip-path="url(#clip080)" d="M1611.89 251.737 L1611.89 255.279 L1607.82 255.279 Q1605.53 255.279 1604.63 256.205 Q1603.75 257.131 1603.75 259.538 L1603.75 261.83 L1610.76 261.83 L1610.76 265.14 L1603.75 265.14 L1603.75 287.756 L1599.46 287.756 L1599.46 265.14 L1595.39 265.14 L1595.39 261.83 L1599.46 261.83 L1599.46 260.024 Q1599.46 255.696 1601.48 253.728 Q1603.49 251.737 1607.87 251.737 L1611.89 251.737 Z" fill="#000000" fill-rule="evenodd" fill-opacity="1" /><path clip-path="url(#clip080)" d="M1615.46 261.83 L1619.72 261.83 L1619.72 287.756 L1615.46 287.756 L1615.46 261.83 M1615.46 251.737 L1619.72 251.737 L1619.72 257.131 L1615.46 257.131 L1615.46 251.737 Z" fill="#000000" fill-rule="evenodd" fill-opacity="1" /><path clip-path="url(#clip080)" d="M1632.84 254.469 L1632.84 261.83 L1641.62 261.83 L1641.62 265.14 L1632.84 265.14 L1632.84 279.214 Q1632.84 282.385 1633.7 283.288 Q1634.58 284.191 1637.24 284.191 L1641.62 284.191 L1641.62 287.756 L1637.24 287.756 Q1632.31 287.756 1630.44 285.927 Q1628.56 284.075 1628.56 279.214 L1628.56 265.14 L1625.44 265.14 L1625.44 261.83 L1628.56 261.83 L1628.56 254.469 L1632.84 254.469 Z" fill="#000000" fill-rule="evenodd" fill-opacity="1" /><path clip-path="url(#clip080)" d="M1675.41 251.737 L1675.41 255.279 L1671.34 255.279 Q1669.05 255.279 1668.14 256.205 Q1667.26 257.131 1667.26 259.538 L1667.26 261.83 L1674.28 261.83 L1674.28 265.14 L1667.26 265.14 L1667.26 287.756 L1662.98 287.756 L1662.98 265.14 L1658.91 265.14 L1658.91 261.83 L1662.98 261.83 L1662.98 260.024 Q1662.98 255.696 1665 253.728 Q1667.01 251.737 1671.38 251.737 L1675.41 251.737 Z" fill="#000000" fill-rule="evenodd" fill-opacity="1" /><path clip-path="url(#clip080)" d="M1678.54 277.524 L1678.54 261.83 L1682.8 261.83 L1682.8 277.362 Q1682.8 281.043 1684.23 282.895 Q1685.67 284.723 1688.54 284.723 Q1691.99 284.723 1693.98 282.524 Q1695.99 280.325 1695.99 276.529 L1695.99 261.83 L1700.25 261.83 L1700.25 287.756 L1695.99 287.756 L1695.99 283.774 Q1694.44 286.135 1692.38 287.293 Q1690.34 288.427 1687.63 288.427 Q1683.17 288.427 1680.85 285.649 Q1678.54 282.871 1678.54 277.524 M1689.25 261.205 L1689.25 261.205 Z" fill="#000000" fill-rule="evenodd" fill-opacity="1" /><path clip-path="url(#clip080)" d="M1730.57 272.108 L1730.57 287.756 L1726.31 287.756 L1726.31 272.247 Q1726.31 268.566 1724.88 266.737 Q1723.44 264.909 1720.57 264.909 Q1717.12 264.909 1715.13 267.108 Q1713.14 269.307 1713.14 273.103 L1713.14 287.756 L1708.86 287.756 L1708.86 261.83 L1713.14 261.83 L1713.14 265.858 Q1714.67 263.52 1716.73 262.362 Q1718.81 261.205 1721.52 261.205 Q1725.99 261.205 1728.28 263.983 Q1730.57 266.737 1730.57 272.108 Z" fill="#000000" fill-rule="evenodd" fill-opacity="1" /><path clip-path="url(#clip080)" d="M1757.73 262.825 L1757.73 266.807 Q1755.92 265.811 1754.09 265.325 Q1752.29 264.816 1750.43 264.816 Q1746.29 264.816 1744 267.455 Q1741.71 270.071 1741.71 274.816 Q1741.71 279.561 1744 282.2 Q1746.29 284.816 1750.43 284.816 Q1752.29 284.816 1754.09 284.33 Q1755.92 283.821 1757.73 282.825 L1757.73 286.76 Q1755.94 287.594 1754.02 288.01 Q1752.12 288.427 1749.97 288.427 Q1744.12 288.427 1740.67 284.746 Q1737.22 281.066 1737.22 274.816 Q1737.22 268.473 1740.69 264.839 Q1744.18 261.205 1750.25 261.205 Q1752.22 261.205 1754.09 261.622 Q1755.97 262.015 1757.73 262.825 Z" fill="#000000" fill-rule="evenodd" fill-opacity="1" /><path clip-path="url(#clip080)" d="M1769.35 254.469 L1769.35 261.83 L1778.12 261.83 L1778.12 265.14 L1769.35 265.14 L1769.35 279.214 Q1769.35 282.385 1770.2 283.288 Q1771.08 284.191 1773.74 284.191 L1778.12 284.191 L1778.12 287.756 L1773.74 287.756 Q1768.81 287.756 1766.94 285.927 Q1765.06 284.075 1765.06 279.214 L1765.06 265.14 L1761.94 265.14 L1761.94 261.83 L1765.06 261.83 L1765.06 254.469 L1769.35 254.469 Z" fill="#000000" fill-rule="evenodd" fill-opacity="1" /><path clip-path="url(#clip080)" d="M1783.72 261.83 L1787.98 261.83 L1787.98 287.756 L1783.72 287.756 L1783.72 261.83 M1783.72 251.737 L1787.98 251.737 L1787.98 257.131 L1783.72 257.131 L1783.72 251.737 Z" fill="#000000" fill-rule="evenodd" fill-opacity="1" /><path clip-path="url(#clip080)" d="M1806.94 264.816 Q1803.51 264.816 1801.52 267.501 Q1799.53 270.163 1799.53 274.816 Q1799.53 279.469 1801.5 282.154 Q1803.49 284.816 1806.94 284.816 Q1810.34 284.816 1812.33 282.131 Q1814.32 279.446 1814.32 274.816 Q1814.32 270.21 1812.33 267.524 Q1810.34 264.816 1806.94 264.816 M1806.94 261.205 Q1812.49 261.205 1815.67 264.816 Q1818.84 268.427 1818.84 274.816 Q1818.84 281.182 1815.67 284.816 Q1812.49 288.427 1806.94 288.427 Q1801.36 288.427 1798.19 284.816 Q1795.04 281.182 1795.04 274.816 Q1795.04 268.427 1798.19 264.816 Q1801.36 261.205 1806.94 261.205 Z" fill="#000000" fill-rule="evenodd" fill-opacity="1" /><path clip-path="url(#clip080)" d="M1847.45 272.108 L1847.45 287.756 L1843.19 287.756 L1843.19 272.247 Q1843.19 268.566 1841.75 266.737 Q1840.32 264.909 1837.45 264.909 Q1834 264.909 1832.01 267.108 Q1830.02 269.307 1830.02 273.103 L1830.02 287.756 L1825.74 287.756 L1825.74 261.83 L1830.02 261.83 L1830.02 265.858 Q1831.55 263.52 1833.61 262.362 Q1835.69 261.205 1838.4 261.205 Q1842.86 261.205 1845.16 263.983 Q1847.45 266.737 1847.45 272.108 Z" fill="#000000" fill-rule="evenodd" fill-opacity="1" /><path clip-path="url(#clip080)" d="M1857.03 281.876 L1861.92 281.876 L1861.92 285.858 L1858.12 293.265 L1855.13 293.265 L1857.03 285.858 L1857.03 281.876 Z" fill="#000000" fill-rule="evenodd" fill-opacity="1" /><path clip-path="url(#clip080)" d="M1908.26 273.728 L1908.26 275.811 L1888.67 275.811 Q1888.95 280.209 1891.31 282.524 Q1893.7 284.816 1897.93 284.816 Q1900.39 284.816 1902.68 284.214 Q1904.99 283.612 1907.26 282.409 L1907.26 286.436 Q1904.97 287.408 1902.56 287.918 Q1900.16 288.427 1897.68 288.427 Q1891.48 288.427 1887.84 284.816 Q1884.23 281.205 1884.23 275.047 Q1884.23 268.682 1887.66 264.955 Q1891.11 261.205 1896.94 261.205 Q1902.17 261.205 1905.2 264.585 Q1908.26 267.941 1908.26 273.728 M1904 272.478 Q1903.95 268.983 1902.03 266.899 Q1900.13 264.816 1896.98 264.816 Q1893.42 264.816 1891.27 266.83 Q1889.14 268.844 1888.81 272.501 L1904 272.478 Z" fill="#000000" fill-rule="evenodd" fill-opacity="1" /><path clip-path="url(#clip080)" d="M1930.27 265.811 Q1929.55 265.395 1928.7 265.21 Q1927.86 265.001 1926.85 265.001 Q1923.23 265.001 1921.29 267.362 Q1919.37 269.7 1919.37 274.098 L1919.37 287.756 L1915.09 287.756 L1915.09 261.83 L1919.37 261.83 L1919.37 265.858 Q1920.71 263.497 1922.86 262.362 Q1925.02 261.205 1928.1 261.205 Q1928.54 261.205 1929.07 261.274 Q1929.6 261.321 1930.25 261.436 L1930.27 265.811 Z" fill="#000000" fill-rule="evenodd" fill-opacity="1" /><path clip-path="url(#clip080)" d="M1948.93 265.811 Q1948.21 265.395 1947.35 265.21 Q1946.52 265.001 1945.5 265.001 Q1941.89 265.001 1939.95 267.362 Q1938.03 269.7 1938.03 274.098 L1938.03 287.756 L1933.74 287.756 L1933.74 261.83 L1938.03 261.83 L1938.03 265.858 Q1939.37 263.497 1941.52 262.362 Q1943.67 261.205 1946.75 261.205 Q1947.19 261.205 1947.73 261.274 Q1948.26 261.321 1948.91 261.436 L1948.93 265.811 Z" fill="#000000" fill-rule="evenodd" fill-opacity="1" /><path clip-path="url(#clip080)" d="M1962.4 264.816 Q1958.98 264.816 1956.98 267.501 Q1954.99 270.163 1954.99 274.816 Q1954.99 279.469 1956.96 282.154 Q1958.95 284.816 1962.4 284.816 Q1965.8 284.816 1967.79 282.131 Q1969.79 279.446 1969.79 274.816 Q1969.79 270.21 1967.79 267.524 Q1965.8 264.816 1962.4 264.816 M1962.4 261.205 Q1967.96 261.205 1971.13 264.816 Q1974.3 268.427 1974.3 274.816 Q1974.3 281.182 1971.13 284.816 Q1967.96 288.427 1962.4 288.427 Q1956.82 288.427 1953.65 284.816 Q1950.5 281.182 1950.5 274.816 Q1950.5 268.427 1953.65 264.816 Q1956.82 261.205 1962.4 261.205 Z" fill="#000000" fill-rule="evenodd" fill-opacity="1" /><path clip-path="url(#clip080)" d="M1996.38 265.811 Q1995.66 265.395 1994.81 265.21 Q1993.98 265.001 1992.96 265.001 Q1989.35 265.001 1987.4 267.362 Q1985.48 269.7 1985.48 274.098 L1985.48 287.756 L1981.2 287.756 L1981.2 261.83 L1985.48 261.83 L1985.48 265.858 Q1986.82 263.497 1988.98 262.362 Q1991.13 261.205 1994.21 261.205 Q1994.65 261.205 1995.18 261.274 Q1995.71 261.321 1996.36 261.436 L1996.38 265.811 Z" fill="#000000" fill-rule="evenodd" fill-opacity="1" /><path clip-path="url(#clip080)" d="M2016.47 266.228 L2046.15 266.228 L2046.15 270.117 L2016.47 270.117 L2016.47 266.228 M2016.47 275.672 L2046.15 275.672 L2046.15 279.608 L2016.47 279.608 L2016.47 275.672 Z" fill="#000000" fill-rule="evenodd" fill-opacity="1" /><path clip-path="url(#clip080)" d="M2072.12 283.821 L2079.76 283.821 L2079.76 257.455 L2071.45 259.122 L2071.45 254.862 L2079.72 253.196 L2084.39 253.196 L2084.39 283.821 L2092.03 283.821 L2092.03 287.756 L2072.12 287.756 L2072.12 283.821 Z" fill="#000000" fill-rule="evenodd" fill-opacity="1" /><path clip-path="url(#clip080)" d="M2111.47 256.274 Q2107.86 256.274 2106.03 259.839 Q2104.23 263.381 2104.23 270.51 Q2104.23 277.617 2106.03 281.182 Q2107.86 284.723 2111.47 284.723 Q2115.11 284.723 2116.91 281.182 Q2118.74 277.617 2118.74 270.51 Q2118.74 263.381 2116.91 259.839 Q2115.11 256.274 2111.47 256.274 M2111.47 252.571 Q2117.28 252.571 2120.34 257.177 Q2123.42 261.76 2123.42 270.51 Q2123.42 279.237 2120.34 283.844 Q2117.28 288.427 2111.47 288.427 Q2105.66 288.427 2102.59 283.844 Q2099.53 279.237 2099.53 270.51 Q2099.53 261.76 2102.59 257.177 Q2105.66 252.571 2111.47 252.571 Z" fill="#000000" fill-rule="evenodd" fill-opacity="1" /><path clip-path="url(#clip080)" d="M2131.64 281.876 L2136.52 281.876 L2136.52 287.756 L2131.64 287.756 L2131.64 281.876 Z" fill="#000000" fill-rule="evenodd" fill-opacity="1" /><path clip-path="url(#clip080)" d="M2146.84 287.038 L2146.84 282.779 Q2148.6 283.612 2150.41 284.052 Q2152.21 284.492 2153.95 284.492 Q2158.58 284.492 2161.01 281.39 Q2163.46 278.265 2163.81 271.922 Q2162.47 273.913 2160.41 274.978 Q2158.35 276.043 2155.85 276.043 Q2150.66 276.043 2147.63 272.918 Q2144.62 269.77 2144.62 264.33 Q2144.62 259.006 2147.77 255.788 Q2150.92 252.571 2156.15 252.571 Q2162.15 252.571 2165.29 257.177 Q2168.46 261.76 2168.46 270.51 Q2168.46 278.682 2164.58 283.566 Q2160.71 288.427 2154.16 288.427 Q2152.4 288.427 2150.59 288.08 Q2148.79 287.733 2146.84 287.038 M2156.15 272.385 Q2159.3 272.385 2161.13 270.233 Q2162.98 268.08 2162.98 264.33 Q2162.98 260.603 2161.13 258.45 Q2159.3 256.274 2156.15 256.274 Q2153 256.274 2151.15 258.45 Q2149.32 260.603 2149.32 264.33 Q2149.32 268.08 2151.15 270.233 Q2153 272.385 2156.15 272.385 Z" fill="#000000" fill-rule="evenodd" fill-opacity="1" /><path clip-path="url(#clip080)" d="M2176.91 253.196 L2195.27 253.196 L2195.27 257.131 L2181.2 257.131 L2181.2 265.603 Q2182.21 265.256 2183.23 265.094 Q2184.25 264.909 2185.27 264.909 Q2191.06 264.909 2194.44 268.08 Q2197.82 271.251 2197.82 276.668 Q2197.82 282.246 2194.34 285.348 Q2190.87 288.427 2184.55 288.427 Q2182.38 288.427 2180.11 288.057 Q2177.86 287.686 2175.46 286.946 L2175.46 282.246 Q2177.54 283.381 2179.76 283.936 Q2181.98 284.492 2184.46 284.492 Q2188.46 284.492 2190.8 282.385 Q2193.14 280.279 2193.14 276.668 Q2193.14 273.057 2190.8 270.95 Q2188.46 268.844 2184.46 268.844 Q2182.59 268.844 2180.71 269.26 Q2178.86 269.677 2176.91 270.557 L2176.91 253.196 Z" fill="#000000" fill-rule="evenodd" fill-opacity="1" /><path clip-path="url(#clip080)" d="M2211.06 283.821 L2227.38 283.821 L2227.38 287.756 L2205.43 287.756 L2205.43 283.821 Q2208.09 281.066 2212.68 276.436 Q2217.28 271.784 2218.46 270.441 Q2220.71 267.918 2221.59 266.182 Q2222.49 264.423 2222.49 262.733 Q2222.49 259.978 2220.55 258.242 Q2218.63 256.506 2215.52 256.506 Q2213.33 256.506 2210.87 257.27 Q2208.44 258.034 2205.66 259.585 L2205.66 254.862 Q2208.49 253.728 2210.94 253.149 Q2213.4 252.571 2215.43 252.571 Q2220.8 252.571 2224 255.256 Q2227.19 257.941 2227.19 262.432 Q2227.19 264.561 2226.38 266.483 Q2225.59 268.381 2223.49 270.973 Q2222.91 271.645 2219.81 274.862 Q2216.71 278.057 2211.06 283.821 Z" fill="#000000" fill-rule="evenodd" fill-opacity="1" /><path clip-path="url(#clip080)" d="M2237.33 287.038 L2237.33 282.779 Q2239.09 283.612 2240.9 284.052 Q2242.7 284.492 2244.44 284.492 Q2249.07 284.492 2251.5 281.39 Q2253.95 278.265 2254.3 271.922 Q2252.96 273.913 2250.9 274.978 Q2248.83 276.043 2246.33 276.043 Q2241.15 276.043 2238.12 272.918 Q2235.11 269.77 2235.11 264.33 Q2235.11 259.006 2238.26 255.788 Q2241.4 252.571 2246.64 252.571 Q2252.63 252.571 2255.78 257.177 Q2258.95 261.76 2258.95 270.51 Q2258.95 278.682 2255.06 283.566 Q2251.2 288.427 2244.65 288.427 Q2242.89 288.427 2241.08 288.08 Q2239.27 287.733 2237.33 287.038 M2246.64 272.385 Q2249.78 272.385 2251.61 270.233 Q2253.46 268.08 2253.46 264.33 Q2253.46 260.603 2251.61 258.45 Q2249.78 256.274 2246.64 256.274 Q2243.49 256.274 2241.64 258.45 Q2239.81 260.603 2239.81 264.33 Q2239.81 268.08 2241.64 270.233 Q2243.49 272.385 2246.64 272.385 Z" fill="#000000" fill-rule="evenodd" fill-opacity="1" /></svg>
