<?xml version="1.0" encoding="utf-8"?>
<svg xmlns="http://www.w3.org/2000/svg" xmlns:xlink="http://www.w3.org/1999/xlink" width="600" height="400" viewBox="0 0 2400 1600">
<defs>
  <clipPath id="clip290">
    <rect x="0" y="0" width="2400" height="1600"/>
  </clipPath>
</defs>
<path clip-path="url(#clip290)" d="
M0 1600 L2400 1600 L2400 8.88178e-14 L0 8.88178e-14  Z
  " fill="#ffffff" fill-rule="evenodd" fill-opacity="1"/>
<defs>
  <clipPath id="clip291">
    <rect x="480" y="0" width="1681" height="1600"/>
  </clipPath>
</defs>
<path clip-path="url(#clip290)" d="
M242.135 1423.18 L2352.76 1423.18 L2352.76 123.472 L242.135 123.472  Z
  " fill="#ffffff" fill-rule="evenodd" fill-opacity="1"/>
<defs>
  <clipPath id="clip292">
    <rect x="242" y="123" width="2112" height="1301"/>
  </clipPath>
</defs>
<polyline clip-path="url(#clip292)" style="stroke:#000000; stroke-linecap:butt; stroke-linejoin:round; stroke-width:2; stroke-opacity:0.1; fill:none" points="
  467.385,1423.18 467.385,123.472 
  "/>
<polyline clip-path="url(#clip292)" style="stroke:#000000; stroke-linecap:butt; stroke-linejoin:round; stroke-width:2; stroke-opacity:0.1; fill:none" points="
  881.174,1423.18 881.174,123.472 
  "/>
<polyline clip-path="url(#clip292)" style="stroke:#000000; stroke-linecap:butt; stroke-linejoin:round; stroke-width:2; stroke-opacity:0.1; fill:none" points="
  1294.96,1423.18 1294.96,123.472 
  "/>
<polyline clip-path="url(#clip292)" style="stroke:#000000; stroke-linecap:butt; stroke-linejoin:round; stroke-width:2; stroke-opacity:0.1; fill:none" points="
  1708.75,1423.18 1708.75,123.472 
  "/>
<polyline clip-path="url(#clip292)" style="stroke:#000000; stroke-linecap:butt; stroke-linejoin:round; stroke-width:2; stroke-opacity:0.1; fill:none" points="
  2122.54,1423.18 2122.54,123.472 
  "/>
<polyline clip-path="url(#clip290)" style="stroke:#000000; stroke-linecap:butt; stroke-linejoin:round; stroke-width:4; stroke-opacity:1; fill:none" points="
  242.135,1423.18 2352.76,1423.18 
  "/>
<polyline clip-path="url(#clip290)" style="stroke:#000000; stroke-linecap:butt; stroke-linejoin:round; stroke-width:4; stroke-opacity:1; fill:none" points="
  467.385,1423.18 467.385,1404.28 
  "/>
<polyline clip-path="url(#clip290)" style="stroke:#000000; stroke-linecap:butt; stroke-linejoin:round; stroke-width:4; stroke-opacity:1; fill:none" points="
  881.174,1423.18 881.174,1404.28 
  "/>
<polyline clip-path="url(#clip290)" style="stroke:#000000; stroke-linecap:butt; stroke-linejoin:round; stroke-width:4; stroke-opacity:1; fill:none" points="
  1294.96,1423.18 1294.96,1404.28 
  "/>
<polyline clip-path="url(#clip290)" style="stroke:#000000; stroke-linecap:butt; stroke-linejoin:round; stroke-width:4; stroke-opacity:1; fill:none" points="
  1708.75,1423.18 1708.75,1404.28 
  "/>
<polyline clip-path="url(#clip290)" style="stroke:#000000; stroke-linecap:butt; stroke-linejoin:round; stroke-width:4; stroke-opacity:1; fill:none" points="
  2122.54,1423.18 2122.54,1404.28 
  "/>
<path clip-path="url(#clip290)" d="M411.911 1481.64 L419.549 1481.64 L419.549 1455.28 L411.239 1456.95 L411.239 1452.69 L419.503 1451.02 L424.179 1451.02 L424.179 1481.64 L431.818 1481.64 L431.818 1485.58 L411.911 1485.58 L411.911 1481.64 Z" fill="#000000" fill-rule="evenodd" fill-opacity="1" /><path clip-path="url(#clip290)" d="M451.262 1454.1 Q447.651 1454.1 445.822 1457.66 Q444.017 1461.2 444.017 1468.33 Q444.017 1475.44 445.822 1479.01 Q447.651 1482.55 451.262 1482.55 Q454.896 1482.55 456.702 1479.01 Q458.531 1475.44 458.531 1468.33 Q458.531 1461.2 456.702 1457.66 Q454.896 1454.1 451.262 1454.1 M451.262 1450.39 Q457.072 1450.39 460.128 1455 Q463.207 1459.58 463.207 1468.33 Q463.207 1477.06 460.128 1481.67 Q457.072 1486.25 451.262 1486.25 Q445.452 1486.25 442.373 1481.67 Q439.318 1477.06 439.318 1468.33 Q439.318 1459.58 442.373 1455 Q445.452 1450.39 451.262 1450.39 Z" fill="#000000" fill-rule="evenodd" fill-opacity="1" /><path clip-path="url(#clip290)" d="M481.424 1454.1 Q477.813 1454.1 475.984 1457.66 Q474.179 1461.2 474.179 1468.33 Q474.179 1475.44 475.984 1479.01 Q477.813 1482.55 481.424 1482.55 Q485.058 1482.55 486.864 1479.01 Q488.693 1475.44 488.693 1468.33 Q488.693 1461.2 486.864 1457.66 Q485.058 1454.1 481.424 1454.1 M481.424 1450.39 Q487.234 1450.39 490.29 1455 Q493.368 1459.58 493.368 1468.33 Q493.368 1477.06 490.29 1481.67 Q487.234 1486.25 481.424 1486.25 Q475.614 1486.25 472.535 1481.67 Q469.48 1477.06 469.48 1468.33 Q469.48 1459.58 472.535 1455 Q475.614 1450.39 481.424 1450.39 Z" fill="#000000" fill-rule="evenodd" fill-opacity="1" /><path clip-path="url(#clip290)" d="M511.586 1454.1 Q507.975 1454.1 506.146 1457.66 Q504.341 1461.2 504.341 1468.33 Q504.341 1475.44 506.146 1479.01 Q507.975 1482.55 511.586 1482.55 Q515.22 1482.55 517.026 1479.01 Q518.854 1475.44 518.854 1468.33 Q518.854 1461.2 517.026 1457.66 Q515.22 1454.1 511.586 1454.1 M511.586 1450.39 Q517.396 1450.39 520.452 1455 Q523.53 1459.58 523.53 1468.33 Q523.53 1477.06 520.452 1481.67 Q517.396 1486.25 511.586 1486.25 Q505.776 1486.25 502.697 1481.67 Q499.642 1477.06 499.642 1468.33 Q499.642 1459.58 502.697 1455 Q505.776 1450.39 511.586 1450.39 Z" fill="#000000" fill-rule="evenodd" fill-opacity="1" /><path clip-path="url(#clip290)" d="M825.699 1481.64 L833.338 1481.64 L833.338 1455.28 L825.028 1456.95 L825.028 1452.69 L833.292 1451.02 L837.968 1451.02 L837.968 1481.64 L845.607 1481.64 L845.607 1485.58 L825.699 1485.58 L825.699 1481.64 Z" fill="#000000" fill-rule="evenodd" fill-opacity="1" /><path clip-path="url(#clip290)" d="M855.097 1451.02 L873.454 1451.02 L873.454 1454.96 L859.38 1454.96 L859.38 1463.43 Q860.398 1463.08 861.417 1462.92 Q862.435 1462.73 863.454 1462.73 Q869.241 1462.73 872.62 1465.9 Q876 1469.08 876 1474.49 Q876 1480.07 872.528 1483.17 Q869.056 1486.25 862.736 1486.25 Q860.56 1486.25 858.292 1485.88 Q856.046 1485.51 853.639 1484.77 L853.639 1480.07 Q855.722 1481.2 857.945 1481.76 Q860.167 1482.32 862.644 1482.32 Q866.648 1482.32 868.986 1480.21 Q871.324 1478.1 871.324 1474.49 Q871.324 1470.88 868.986 1468.77 Q866.648 1466.67 862.644 1466.67 Q860.769 1466.67 858.894 1467.08 Q857.042 1467.5 855.097 1468.38 L855.097 1451.02 Z" fill="#000000" fill-rule="evenodd" fill-opacity="1" /><path clip-path="url(#clip290)" d="M895.213 1454.1 Q891.602 1454.1 889.773 1457.66 Q887.968 1461.2 887.968 1468.33 Q887.968 1475.44 889.773 1479.01 Q891.602 1482.55 895.213 1482.55 Q898.847 1482.55 900.653 1479.01 Q902.481 1475.44 902.481 1468.33 Q902.481 1461.2 900.653 1457.66 Q898.847 1454.1 895.213 1454.1 M895.213 1450.39 Q901.023 1450.39 904.079 1455 Q907.157 1459.58 907.157 1468.33 Q907.157 1477.06 904.079 1481.67 Q901.023 1486.25 895.213 1486.25 Q889.403 1486.25 886.324 1481.67 Q883.269 1477.06 883.269 1468.33 Q883.269 1459.58 886.324 1455 Q889.403 1450.39 895.213 1450.39 Z" fill="#000000" fill-rule="evenodd" fill-opacity="1" /><path clip-path="url(#clip290)" d="M925.375 1454.1 Q921.764 1454.1 919.935 1457.66 Q918.129 1461.2 918.129 1468.33 Q918.129 1475.44 919.935 1479.01 Q921.764 1482.55 925.375 1482.55 Q929.009 1482.55 930.815 1479.01 Q932.643 1475.44 932.643 1468.33 Q932.643 1461.2 930.815 1457.66 Q929.009 1454.1 925.375 1454.1 M925.375 1450.39 Q931.185 1450.39 934.241 1455 Q937.319 1459.58 937.319 1468.33 Q937.319 1477.06 934.241 1481.67 Q931.185 1486.25 925.375 1486.25 Q919.565 1486.25 916.486 1481.67 Q913.43 1477.06 913.43 1468.33 Q913.43 1459.58 916.486 1455 Q919.565 1450.39 925.375 1450.39 Z" fill="#000000" fill-rule="evenodd" fill-opacity="1" /><path clip-path="url(#clip290)" d="M1243.57 1481.64 L1259.89 1481.64 L1259.89 1485.58 L1237.95 1485.58 L1237.95 1481.64 Q1240.61 1478.89 1245.19 1474.26 Q1249.8 1469.61 1250.98 1468.27 Q1253.23 1465.74 1254.11 1464.01 Q1255.01 1462.25 1255.01 1460.56 Q1255.01 1457.8 1253.06 1456.07 Q1251.14 1454.33 1248.04 1454.33 Q1245.84 1454.33 1243.39 1455.09 Q1240.96 1455.86 1238.18 1457.41 L1238.18 1452.69 Q1241 1451.55 1243.46 1450.97 Q1245.91 1450.39 1247.95 1450.39 Q1253.32 1450.39 1256.51 1453.08 Q1259.71 1455.77 1259.71 1460.26 Q1259.71 1462.39 1258.9 1464.31 Q1258.11 1466.2 1256 1468.8 Q1255.43 1469.47 1252.32 1472.69 Q1249.22 1475.88 1243.57 1481.64 Z" fill="#000000" fill-rule="evenodd" fill-opacity="1" /><path clip-path="url(#clip290)" d="M1279.71 1454.1 Q1276.1 1454.1 1274.27 1457.66 Q1272.46 1461.2 1272.46 1468.33 Q1272.46 1475.44 1274.27 1479.01 Q1276.1 1482.55 1279.71 1482.55 Q1283.34 1482.55 1285.15 1479.01 Q1286.98 1475.44 1286.98 1468.33 Q1286.98 1461.2 1285.15 1457.66 Q1283.34 1454.1 1279.71 1454.1 M1279.71 1450.39 Q1285.52 1450.39 1288.57 1455 Q1291.65 1459.58 1291.65 1468.33 Q1291.65 1477.06 1288.57 1481.67 Q1285.52 1486.25 1279.71 1486.25 Q1273.9 1486.25 1270.82 1481.67 Q1267.76 1477.06 1267.76 1468.33 Q1267.76 1459.58 1270.82 1455 Q1273.9 1450.39 1279.71 1450.39 Z" fill="#000000" fill-rule="evenodd" fill-opacity="1" /><path clip-path="url(#clip290)" d="M1309.87 1454.1 Q1306.26 1454.1 1304.43 1457.66 Q1302.62 1461.2 1302.62 1468.33 Q1302.62 1475.44 1304.43 1479.01 Q1306.26 1482.55 1309.87 1482.55 Q1313.5 1482.55 1315.31 1479.01 Q1317.14 1475.44 1317.14 1468.33 Q1317.14 1461.2 1315.31 1457.66 Q1313.5 1454.1 1309.87 1454.1 M1309.87 1450.39 Q1315.68 1450.39 1318.74 1455 Q1321.81 1459.58 1321.81 1468.33 Q1321.81 1477.06 1318.74 1481.67 Q1315.68 1486.25 1309.87 1486.25 Q1304.06 1486.25 1300.98 1481.67 Q1297.93 1477.06 1297.93 1468.33 Q1297.93 1459.58 1300.98 1455 Q1304.06 1450.39 1309.87 1450.39 Z" fill="#000000" fill-rule="evenodd" fill-opacity="1" /><path clip-path="url(#clip290)" d="M1340.03 1454.1 Q1336.42 1454.1 1334.59 1457.66 Q1332.79 1461.2 1332.79 1468.33 Q1332.79 1475.44 1334.59 1479.01 Q1336.42 1482.55 1340.03 1482.55 Q1343.67 1482.55 1345.47 1479.01 Q1347.3 1475.44 1347.3 1468.33 Q1347.3 1461.2 1345.47 1457.66 Q1343.67 1454.1 1340.03 1454.1 M1340.03 1450.39 Q1345.84 1450.39 1348.9 1455 Q1351.98 1459.58 1351.98 1468.33 Q1351.98 1477.06 1348.9 1481.67 Q1345.84 1486.25 1340.03 1486.25 Q1334.22 1486.25 1331.14 1481.67 Q1328.09 1477.06 1328.09 1468.33 Q1328.09 1459.58 1331.14 1455 Q1334.22 1450.39 1340.03 1450.39 Z" fill="#000000" fill-rule="evenodd" fill-opacity="1" /><path clip-path="url(#clip290)" d="M1657.36 1481.64 L1673.68 1481.64 L1673.68 1485.58 L1651.74 1485.58 L1651.74 1481.64 Q1654.4 1478.89 1658.98 1474.26 Q1663.59 1469.61 1664.77 1468.27 Q1667.02 1465.74 1667.9 1464.01 Q1668.8 1462.25 1668.8 1460.56 Q1668.8 1457.8 1666.85 1456.07 Q1664.93 1454.33 1661.83 1454.33 Q1659.63 1454.33 1657.18 1455.09 Q1654.75 1455.86 1651.97 1457.41 L1651.97 1452.69 Q1654.79 1451.55 1657.25 1450.97 Q1659.7 1450.39 1661.74 1450.39 Q1667.11 1450.39 1670.3 1453.08 Q1673.5 1455.77 1673.5 1460.26 Q1673.5 1462.39 1672.69 1464.31 Q1671.9 1466.2 1669.79 1468.8 Q1669.21 1469.47 1666.11 1472.69 Q1663.01 1475.88 1657.36 1481.64 Z" fill="#000000" fill-rule="evenodd" fill-opacity="1" /><path clip-path="url(#clip290)" d="M1683.54 1451.02 L1701.9 1451.02 L1701.9 1454.96 L1687.83 1454.96 L1687.83 1463.43 Q1688.84 1463.08 1689.86 1462.92 Q1690.88 1462.73 1691.9 1462.73 Q1697.69 1462.73 1701.07 1465.9 Q1704.45 1469.08 1704.45 1474.49 Q1704.45 1480.07 1700.97 1483.17 Q1697.5 1486.25 1691.18 1486.25 Q1689.01 1486.25 1686.74 1485.88 Q1684.49 1485.51 1682.08 1484.77 L1682.08 1480.07 Q1684.17 1481.2 1686.39 1481.76 Q1688.61 1482.32 1691.09 1482.32 Q1695.09 1482.32 1697.43 1480.21 Q1699.77 1478.1 1699.77 1474.49 Q1699.77 1470.88 1697.43 1468.77 Q1695.09 1466.67 1691.09 1466.67 Q1689.21 1466.67 1687.34 1467.08 Q1685.49 1467.5 1683.54 1468.38 L1683.54 1451.02 Z" fill="#000000" fill-rule="evenodd" fill-opacity="1" /><path clip-path="url(#clip290)" d="M1723.66 1454.1 Q1720.05 1454.1 1718.22 1457.66 Q1716.41 1461.2 1716.41 1468.33 Q1716.41 1475.44 1718.22 1479.01 Q1720.05 1482.55 1723.66 1482.55 Q1727.29 1482.55 1729.1 1479.01 Q1730.93 1475.44 1730.93 1468.33 Q1730.93 1461.2 1729.1 1457.66 Q1727.29 1454.1 1723.66 1454.1 M1723.66 1450.39 Q1729.47 1450.39 1732.52 1455 Q1735.6 1459.58 1735.6 1468.33 Q1735.6 1477.06 1732.52 1481.67 Q1729.47 1486.25 1723.66 1486.25 Q1717.85 1486.25 1714.77 1481.67 Q1711.71 1477.06 1711.71 1468.33 Q1711.71 1459.58 1714.77 1455 Q1717.85 1450.39 1723.66 1450.39 Z" fill="#000000" fill-rule="evenodd" fill-opacity="1" /><path clip-path="url(#clip290)" d="M1753.82 1454.1 Q1750.21 1454.1 1748.38 1457.66 Q1746.58 1461.2 1746.58 1468.33 Q1746.58 1475.44 1748.38 1479.01 Q1750.21 1482.55 1753.82 1482.55 Q1757.45 1482.55 1759.26 1479.01 Q1761.09 1475.44 1761.09 1468.33 Q1761.09 1461.2 1759.26 1457.66 Q1757.45 1454.1 1753.82 1454.1 M1753.82 1450.39 Q1759.63 1450.39 1762.69 1455 Q1765.77 1459.58 1765.77 1468.33 Q1765.77 1477.06 1762.69 1481.67 Q1759.63 1486.25 1753.82 1486.25 Q1748.01 1486.25 1744.93 1481.67 Q1741.88 1477.06 1741.88 1468.33 Q1741.88 1459.58 1744.93 1455 Q1748.01 1450.39 1753.82 1450.39 Z" fill="#000000" fill-rule="evenodd" fill-opacity="1" /><path clip-path="url(#clip290)" d="M2081.22 1466.95 Q2084.58 1467.66 2086.45 1469.93 Q2088.35 1472.2 2088.35 1475.53 Q2088.35 1480.65 2084.83 1483.45 Q2081.31 1486.25 2074.83 1486.25 Q2072.66 1486.25 2070.34 1485.81 Q2068.05 1485.39 2065.6 1484.54 L2065.6 1480.02 Q2067.54 1481.16 2069.86 1481.74 Q2072.17 1482.32 2074.69 1482.32 Q2079.09 1482.32 2081.38 1480.58 Q2083.7 1478.84 2083.7 1475.53 Q2083.7 1472.48 2081.55 1470.77 Q2079.42 1469.03 2075.6 1469.03 L2071.57 1469.03 L2071.57 1465.19 L2075.78 1465.19 Q2079.23 1465.19 2081.06 1463.82 Q2082.89 1462.43 2082.89 1459.84 Q2082.89 1457.18 2080.99 1455.77 Q2079.11 1454.33 2075.6 1454.33 Q2073.67 1454.33 2071.48 1454.75 Q2069.28 1455.16 2066.64 1456.04 L2066.64 1451.88 Q2069.3 1451.14 2071.61 1450.77 Q2073.95 1450.39 2076.01 1450.39 Q2081.34 1450.39 2084.44 1452.83 Q2087.54 1455.23 2087.54 1459.35 Q2087.54 1462.22 2085.9 1464.21 Q2084.25 1466.18 2081.22 1466.95 Z" fill="#000000" fill-rule="evenodd" fill-opacity="1" /><path clip-path="url(#clip290)" d="M2107.22 1454.1 Q2103.61 1454.1 2101.78 1457.66 Q2099.97 1461.2 2099.97 1468.33 Q2099.97 1475.44 2101.78 1479.01 Q2103.61 1482.55 2107.22 1482.55 Q2110.85 1482.55 2112.66 1479.01 Q2114.48 1475.44 2114.48 1468.33 Q2114.48 1461.2 2112.66 1457.66 Q2110.85 1454.1 2107.22 1454.1 M2107.22 1450.39 Q2113.03 1450.39 2116.08 1455 Q2119.16 1459.58 2119.16 1468.33 Q2119.16 1477.06 2116.08 1481.67 Q2113.03 1486.25 2107.22 1486.25 Q2101.41 1486.25 2098.33 1481.67 Q2095.27 1477.06 2095.27 1468.33 Q2095.27 1459.58 2098.33 1455 Q2101.41 1450.39 2107.22 1450.39 Z" fill="#000000" fill-rule="evenodd" fill-opacity="1" /><path clip-path="url(#clip290)" d="M2137.38 1454.1 Q2133.77 1454.1 2131.94 1457.66 Q2130.13 1461.2 2130.13 1468.33 Q2130.13 1475.44 2131.94 1479.01 Q2133.77 1482.55 2137.38 1482.55 Q2141.01 1482.55 2142.82 1479.01 Q2144.65 1475.44 2144.65 1468.33 Q2144.65 1461.2 2142.82 1457.66 Q2141.01 1454.1 2137.38 1454.1 M2137.38 1450.39 Q2143.19 1450.39 2146.24 1455 Q2149.32 1459.58 2149.32 1468.33 Q2149.32 1477.06 2146.24 1481.67 Q2143.19 1486.25 2137.38 1486.25 Q2131.57 1486.25 2128.49 1481.67 Q2125.43 1477.06 2125.43 1468.33 Q2125.43 1459.58 2128.49 1455 Q2131.57 1450.39 2137.38 1450.39 Z" fill="#000000" fill-rule="evenodd" fill-opacity="1" /><path clip-path="url(#clip290)" d="M2167.54 1454.1 Q2163.93 1454.1 2162.1 1457.66 Q2160.29 1461.2 2160.29 1468.33 Q2160.29 1475.44 2162.1 1479.01 Q2163.93 1482.55 2167.54 1482.55 Q2171.17 1482.55 2172.98 1479.01 Q2174.81 1475.44 2174.81 1468.33 Q2174.81 1461.2 2172.98 1457.66 Q2171.17 1454.1 2167.54 1454.1 M2167.54 1450.39 Q2173.35 1450.39 2176.41 1455 Q2179.48 1459.58 2179.48 1468.33 Q2179.48 1477.06 2176.41 1481.67 Q2173.35 1486.25 2167.54 1486.25 Q2161.73 1486.25 2158.65 1481.67 Q2155.6 1477.06 2155.6 1468.33 Q2155.6 1459.58 2158.65 1455 Q2161.73 1450.39 2167.54 1450.39 Z" fill="#000000" fill-rule="evenodd" fill-opacity="1" /><path clip-path="url(#clip290)" d="M1251.09 1526.86 L1242.37 1550.51 L1259.84 1550.51 L1251.09 1526.86 M1247.46 1520.52 L1254.75 1520.52 L1272.86 1568.04 L1266.17 1568.04 L1261.85 1555.85 L1240.42 1555.85 L1236.1 1568.04 L1229.32 1568.04 L1247.46 1520.52 Z" fill="#000000" fill-rule="evenodd" fill-opacity="1" /><path clip-path="url(#clip290)" d="M1286.23 1525.81 L1286.23 1562.76 L1293.99 1562.76 Q1303.83 1562.76 1308.38 1558.3 Q1312.96 1553.85 1312.96 1544.24 Q1312.96 1534.69 1308.38 1530.26 Q1303.83 1525.81 1293.99 1525.81 L1286.23 1525.81 M1279.8 1520.52 L1293.01 1520.52 Q1306.82 1520.52 1313.28 1526.28 Q1319.74 1532.01 1319.74 1544.24 Q1319.74 1556.52 1313.25 1562.28 Q1306.76 1568.04 1293.01 1568.04 L1279.8 1568.04 L1279.8 1520.52 Z" fill="#000000" fill-rule="evenodd" fill-opacity="1" /><path clip-path="url(#clip290)" d="M1365.57 1524.18 L1365.57 1530.96 Q1362.33 1527.94 1358.64 1526.44 Q1354.98 1524.95 1350.84 1524.95 Q1342.69 1524.95 1338.36 1529.95 Q1334.03 1534.91 1334.03 1544.33 Q1334.03 1553.72 1338.36 1558.72 Q1342.69 1563.68 1350.84 1563.68 Q1354.98 1563.68 1358.64 1562.19 Q1362.33 1560.69 1365.57 1557.67 L1365.57 1564.38 Q1362.2 1566.68 1358.41 1567.82 Q1354.66 1568.97 1350.46 1568.97 Q1339.67 1568.97 1333.46 1562.38 Q1327.25 1555.76 1327.25 1544.33 Q1327.25 1532.87 1333.46 1526.28 Q1339.67 1519.66 1350.46 1519.66 Q1354.72 1519.66 1358.48 1520.81 Q1362.26 1521.92 1365.57 1524.18 Z" fill="#000000" fill-rule="evenodd" fill-opacity="1" /><polyline clip-path="url(#clip292)" style="stroke:#000000; stroke-linecap:butt; stroke-linejoin:round; stroke-width:2; stroke-opacity:0.1; fill:none" points="
  242.135,1386.4 2352.76,1386.4 
  "/>
<polyline clip-path="url(#clip292)" style="stroke:#000000; stroke-linecap:butt; stroke-linejoin:round; stroke-width:2; stroke-opacity:0.1; fill:none" points="
  242.135,1182.04 2352.76,1182.04 
  "/>
<polyline clip-path="url(#clip292)" style="stroke:#000000; stroke-linecap:butt; stroke-linejoin:round; stroke-width:2; stroke-opacity:0.1; fill:none" points="
  242.135,977.683 2352.76,977.683 
  "/>
<polyline clip-path="url(#clip292)" style="stroke:#000000; stroke-linecap:butt; stroke-linejoin:round; stroke-width:2; stroke-opacity:0.1; fill:none" points="
  242.135,773.326 2352.76,773.326 
  "/>
<polyline clip-path="url(#clip292)" style="stroke:#000000; stroke-linecap:butt; stroke-linejoin:round; stroke-width:2; stroke-opacity:0.1; fill:none" points="
  242.135,568.969 2352.76,568.969 
  "/>
<polyline clip-path="url(#clip292)" style="stroke:#000000; stroke-linecap:butt; stroke-linejoin:round; stroke-width:2; stroke-opacity:0.1; fill:none" points="
  242.135,364.613 2352.76,364.613 
  "/>
<polyline clip-path="url(#clip292)" style="stroke:#000000; stroke-linecap:butt; stroke-linejoin:round; stroke-width:2; stroke-opacity:0.1; fill:none" points="
  242.135,160.256 2352.76,160.256 
  "/>
<polyline clip-path="url(#clip290)" style="stroke:#000000; stroke-linecap:butt; stroke-linejoin:round; stroke-width:4; stroke-opacity:1; fill:none" points="
  242.135,1423.18 242.135,123.472 
  "/>
<polyline clip-path="url(#clip290)" style="stroke:#000000; stroke-linecap:butt; stroke-linejoin:round; stroke-width:4; stroke-opacity:1; fill:none" points="
  242.135,1386.4 261.032,1386.4 
  "/>
<polyline clip-path="url(#clip290)" style="stroke:#000000; stroke-linecap:butt; stroke-linejoin:round; stroke-width:4; stroke-opacity:1; fill:none" points="
  242.135,1182.04 261.032,1182.04 
  "/>
<polyline clip-path="url(#clip290)" style="stroke:#000000; stroke-linecap:butt; stroke-linejoin:round; stroke-width:4; stroke-opacity:1; fill:none" points="
  242.135,977.683 261.032,977.683 
  "/>
<polyline clip-path="url(#clip290)" style="stroke:#000000; stroke-linecap:butt; stroke-linejoin:round; stroke-width:4; stroke-opacity:1; fill:none" points="
  242.135,773.326 261.032,773.326 
  "/>
<polyline clip-path="url(#clip290)" style="stroke:#000000; stroke-linecap:butt; stroke-linejoin:round; stroke-width:4; stroke-opacity:1; fill:none" points="
  242.135,568.969 261.032,568.969 
  "/>
<polyline clip-path="url(#clip290)" style="stroke:#000000; stroke-linecap:butt; stroke-linejoin:round; stroke-width:4; stroke-opacity:1; fill:none" points="
  242.135,364.613 261.032,364.613 
  "/>
<polyline clip-path="url(#clip290)" style="stroke:#000000; stroke-linecap:butt; stroke-linejoin:round; stroke-width:4; stroke-opacity:1; fill:none" points="
  242.135,160.256 261.032,160.256 
  "/>
<path clip-path="url(#clip290)" d="M114.26 1386.85 L143.936 1386.85 L143.936 1390.78 L114.26 1390.78 L114.26 1386.85 Z" fill="#000000" fill-rule="evenodd" fill-opacity="1" /><path clip-path="url(#clip290)" d="M164.607 1384.53 Q161.459 1384.53 159.607 1386.69 Q157.778 1388.84 157.778 1392.59 Q157.778 1396.31 159.607 1398.49 Q161.459 1400.64 164.607 1400.64 Q167.755 1400.64 169.584 1398.49 Q171.436 1396.31 171.436 1392.59 Q171.436 1388.84 169.584 1386.69 Q167.755 1384.53 164.607 1384.53 M173.889 1369.88 L173.889 1374.14 Q172.13 1373.31 170.325 1372.87 Q168.542 1372.43 166.783 1372.43 Q162.153 1372.43 159.7 1375.55 Q157.269 1378.68 156.922 1385 Q158.288 1382.98 160.348 1381.92 Q162.408 1380.83 164.885 1380.83 Q170.093 1380.83 173.102 1384 Q176.135 1387.15 176.135 1392.59 Q176.135 1397.91 172.987 1401.13 Q169.839 1404.35 164.607 1404.35 Q158.612 1404.35 155.44 1399.76 Q152.269 1395.16 152.269 1386.43 Q152.269 1378.24 156.158 1373.37 Q160.047 1368.49 166.598 1368.49 Q168.357 1368.49 170.139 1368.84 Q171.945 1369.19 173.889 1369.88 Z" fill="#000000" fill-rule="evenodd" fill-opacity="1" /><path clip-path="url(#clip290)" d="M194.19 1372.19 Q190.579 1372.19 188.75 1375.76 Q186.945 1379.3 186.945 1386.43 Q186.945 1393.54 188.75 1397.1 Q190.579 1400.64 194.19 1400.64 Q197.825 1400.64 199.63 1397.1 Q201.459 1393.54 201.459 1386.43 Q201.459 1379.3 199.63 1375.76 Q197.825 1372.19 194.19 1372.19 M194.19 1368.49 Q200 1368.49 203.056 1373.1 Q206.135 1377.68 206.135 1386.43 Q206.135 1395.16 203.056 1399.76 Q200 1404.35 194.19 1404.35 Q188.38 1404.35 185.301 1399.76 Q182.246 1395.16 182.246 1386.43 Q182.246 1377.68 185.301 1373.1 Q188.38 1368.49 194.19 1368.49 Z" fill="#000000" fill-rule="evenodd" fill-opacity="1" /><path clip-path="url(#clip290)" d="M114.26 1182.49 L143.936 1182.49 L143.936 1186.43 L114.26 1186.43 L114.26 1182.49 Z" fill="#000000" fill-rule="evenodd" fill-opacity="1" /><path clip-path="url(#clip290)" d="M154.075 1164.76 L172.431 1164.76 L172.431 1168.69 L158.357 1168.69 L158.357 1177.17 Q159.376 1176.82 160.394 1176.66 Q161.413 1176.47 162.431 1176.47 Q168.218 1176.47 171.598 1179.64 Q174.977 1182.81 174.977 1188.23 Q174.977 1193.81 171.505 1196.91 Q168.033 1199.99 161.714 1199.99 Q159.538 1199.99 157.269 1199.62 Q155.024 1199.25 152.616 1198.51 L152.616 1193.81 Q154.7 1194.94 156.922 1195.5 Q159.144 1196.06 161.621 1196.06 Q165.626 1196.06 167.964 1193.95 Q170.302 1191.84 170.302 1188.23 Q170.302 1184.62 167.964 1182.51 Q165.626 1180.41 161.621 1180.41 Q159.746 1180.41 157.871 1180.82 Q156.019 1181.24 154.075 1182.12 L154.075 1164.76 Z" fill="#000000" fill-rule="evenodd" fill-opacity="1" /><path clip-path="url(#clip290)" d="M194.19 1167.84 Q190.579 1167.84 188.75 1171.4 Q186.945 1174.94 186.945 1182.07 Q186.945 1189.18 188.75 1192.75 Q190.579 1196.29 194.19 1196.29 Q197.825 1196.29 199.63 1192.75 Q201.459 1189.18 201.459 1182.07 Q201.459 1174.94 199.63 1171.4 Q197.825 1167.84 194.19 1167.84 M194.19 1164.13 Q200 1164.13 203.056 1168.74 Q206.135 1173.32 206.135 1182.07 Q206.135 1190.8 203.056 1195.41 Q200 1199.99 194.19 1199.99 Q188.38 1199.99 185.301 1195.41 Q182.246 1190.8 182.246 1182.07 Q182.246 1173.32 185.301 1168.74 Q188.38 1164.13 194.19 1164.13 Z" fill="#000000" fill-rule="evenodd" fill-opacity="1" /><path clip-path="url(#clip290)" d="M114.26 978.134 L143.936 978.134 L143.936 982.069 L114.26 982.069 L114.26 978.134 Z" fill="#000000" fill-rule="evenodd" fill-opacity="1" /><path clip-path="url(#clip290)" d="M166.876 964.477 L155.07 982.926 L166.876 982.926 L166.876 964.477 M165.649 960.403 L171.528 960.403 L171.528 982.926 L176.459 982.926 L176.459 986.814 L171.528 986.814 L171.528 994.963 L166.876 994.963 L166.876 986.814 L151.274 986.814 L151.274 982.301 L165.649 960.403 Z" fill="#000000" fill-rule="evenodd" fill-opacity="1" /><path clip-path="url(#clip290)" d="M194.19 963.481 Q190.579 963.481 188.75 967.046 Q186.945 970.588 186.945 977.717 Q186.945 984.824 188.75 988.389 Q190.579 991.93 194.19 991.93 Q197.825 991.93 199.63 988.389 Q201.459 984.824 201.459 977.717 Q201.459 970.588 199.63 967.046 Q197.825 963.481 194.19 963.481 M194.19 959.778 Q200 959.778 203.056 964.384 Q206.135 968.967 206.135 977.717 Q206.135 986.444 203.056 991.051 Q200 995.634 194.19 995.634 Q188.38 995.634 185.301 991.051 Q182.246 986.444 182.246 977.717 Q182.246 968.967 185.301 964.384 Q188.38 959.778 194.19 959.778 Z" fill="#000000" fill-rule="evenodd" fill-opacity="1" /><path clip-path="url(#clip290)" d="M114.26 773.777 L143.936 773.777 L143.936 777.713 L114.26 777.713 L114.26 773.777 Z" fill="#000000" fill-rule="evenodd" fill-opacity="1" /><path clip-path="url(#clip290)" d="M168.195 771.972 Q171.552 772.689 173.427 774.958 Q175.325 777.226 175.325 780.56 Q175.325 785.675 171.806 788.476 Q168.288 791.277 161.806 791.277 Q159.63 791.277 157.315 790.837 Q155.024 790.421 152.57 789.564 L152.57 785.05 Q154.515 786.185 156.829 786.763 Q159.144 787.342 161.667 787.342 Q166.065 787.342 168.357 785.606 Q170.672 783.87 170.672 780.56 Q170.672 777.504 168.519 775.791 Q166.39 774.055 162.57 774.055 L158.542 774.055 L158.542 770.213 L162.755 770.213 Q166.204 770.213 168.033 768.847 Q169.862 767.458 169.862 764.865 Q169.862 762.203 167.964 760.791 Q166.089 759.356 162.57 759.356 Q160.649 759.356 158.45 759.773 Q156.251 760.189 153.612 761.069 L153.612 756.902 Q156.274 756.162 158.589 755.791 Q160.927 755.421 162.987 755.421 Q168.311 755.421 171.413 757.852 Q174.514 760.259 174.514 764.379 Q174.514 767.25 172.871 769.24 Q171.227 771.208 168.195 771.972 Z" fill="#000000" fill-rule="evenodd" fill-opacity="1" /><path clip-path="url(#clip290)" d="M194.19 759.125 Q190.579 759.125 188.75 762.689 Q186.945 766.231 186.945 773.361 Q186.945 780.467 188.75 784.032 Q190.579 787.574 194.19 787.574 Q197.825 787.574 199.63 784.032 Q201.459 780.467 201.459 773.361 Q201.459 766.231 199.63 762.689 Q197.825 759.125 194.19 759.125 M194.19 755.421 Q200 755.421 203.056 760.027 Q206.135 764.611 206.135 773.361 Q206.135 782.088 203.056 786.694 Q200 791.277 194.19 791.277 Q188.38 791.277 185.301 786.694 Q182.246 782.088 182.246 773.361 Q182.246 764.611 185.301 760.027 Q188.38 755.421 194.19 755.421 Z" fill="#000000" fill-rule="evenodd" fill-opacity="1" /><path clip-path="url(#clip290)" d="M114.26 569.421 L143.936 569.421 L143.936 573.356 L114.26 573.356 L114.26 569.421 Z" fill="#000000" fill-rule="evenodd" fill-opacity="1" /><path clip-path="url(#clip290)" d="M158.056 582.314 L174.376 582.314 L174.376 586.249 L152.431 586.249 L152.431 582.314 Q155.093 579.56 159.677 574.93 Q164.283 570.277 165.464 568.935 Q167.709 566.412 168.589 564.675 Q169.491 562.916 169.491 561.226 Q169.491 558.472 167.547 556.736 Q165.626 555 162.524 555 Q160.325 555 157.871 555.763 Q155.44 556.527 152.663 558.078 L152.663 553.356 Q155.487 552.222 157.94 551.643 Q160.394 551.064 162.431 551.064 Q167.802 551.064 170.996 553.75 Q174.19 556.435 174.19 560.925 Q174.19 563.055 173.38 564.976 Q172.593 566.875 170.487 569.467 Q169.908 570.138 166.806 573.356 Q163.704 576.55 158.056 582.314 Z" fill="#000000" fill-rule="evenodd" fill-opacity="1" /><path clip-path="url(#clip290)" d="M194.19 554.768 Q190.579 554.768 188.75 558.333 Q186.945 561.875 186.945 569.004 Q186.945 576.111 188.75 579.675 Q190.579 583.217 194.19 583.217 Q197.825 583.217 199.63 579.675 Q201.459 576.111 201.459 569.004 Q201.459 561.875 199.63 558.333 Q197.825 554.768 194.19 554.768 M194.19 551.064 Q200 551.064 203.056 555.671 Q206.135 560.254 206.135 569.004 Q206.135 577.731 203.056 582.337 Q200 586.921 194.19 586.921 Q188.38 586.921 185.301 582.337 Q182.246 577.731 182.246 569.004 Q182.246 560.254 185.301 555.671 Q188.38 551.064 194.19 551.064 Z" fill="#000000" fill-rule="evenodd" fill-opacity="1" /><path clip-path="url(#clip290)" d="M114.26 365.064 L143.936 365.064 L143.936 368.999 L114.26 368.999 L114.26 365.064 Z" fill="#000000" fill-rule="evenodd" fill-opacity="1" /><path clip-path="url(#clip290)" d="M154.839 377.958 L162.477 377.958 L162.477 351.592 L154.167 353.259 L154.167 349 L162.431 347.333 L167.107 347.333 L167.107 377.958 L174.746 377.958 L174.746 381.893 L154.839 381.893 L154.839 377.958 Z" fill="#000000" fill-rule="evenodd" fill-opacity="1" /><path clip-path="url(#clip290)" d="M194.19 350.412 Q190.579 350.412 188.75 353.976 Q186.945 357.518 186.945 364.648 Q186.945 371.754 188.75 375.319 Q190.579 378.86 194.19 378.86 Q197.825 378.86 199.63 375.319 Q201.459 371.754 201.459 364.648 Q201.459 357.518 199.63 353.976 Q197.825 350.412 194.19 350.412 M194.19 346.708 Q200 346.708 203.056 351.314 Q206.135 355.898 206.135 364.648 Q206.135 373.374 203.056 377.981 Q200 382.564 194.19 382.564 Q188.38 382.564 185.301 377.981 Q182.246 373.374 182.246 364.648 Q182.246 355.898 185.301 351.314 Q188.38 346.708 194.19 346.708 Z" fill="#000000" fill-rule="evenodd" fill-opacity="1" /><path clip-path="url(#clip290)" d="M194.19 146.055 Q190.579 146.055 188.75 149.62 Q186.945 153.161 186.945 160.291 Q186.945 167.397 188.75 170.962 Q190.579 174.504 194.19 174.504 Q197.825 174.504 199.63 170.962 Q201.459 167.397 201.459 160.291 Q201.459 153.161 199.63 149.62 Q197.825 146.055 194.19 146.055 M194.19 142.351 Q200 142.351 203.056 146.958 Q206.135 151.541 206.135 160.291 Q206.135 169.018 203.056 173.624 Q200 178.208 194.19 178.208 Q188.38 178.208 185.301 173.624 Q182.246 169.018 182.246 160.291 Q182.246 151.541 185.301 146.958 Q188.38 142.351 194.19 142.351 Z" fill="#000000" fill-rule="evenodd" fill-opacity="1" /><path clip-path="url(#clip290)" d="M33.7671 817.552 L14.479 817.552 L14.479 811.695 L64.0042 811.695 L64.0042 817.552 L58.657 817.552 Q61.8398 819.398 63.3994 822.231 Q64.9272 825.031 64.9272 828.978 Q64.9272 835.439 59.771 839.513 Q54.6147 843.556 46.212 843.556 Q37.8093 843.556 32.6531 839.513 Q27.4968 835.439 27.4968 828.978 Q27.4968 825.031 29.0564 822.231 Q30.5842 819.398 33.7671 817.552 M46.212 837.508 Q52.6732 837.508 56.3653 834.866 Q60.0256 832.193 60.0256 827.546 Q60.0256 822.899 56.3653 820.225 Q52.6732 817.552 46.212 817.552 Q39.7508 817.552 36.0905 820.225 Q32.3984 822.899 32.3984 827.546 Q32.3984 832.193 36.0905 834.866 Q39.7508 837.508 46.212 837.508 Z" fill="#000000" fill-rule="evenodd" fill-opacity="1" /><path clip-path="url(#clip290)" d="M41.3104 792.948 L58.7206 792.948 L58.7206 782.636 Q58.7206 777.448 56.5881 774.965 Q54.4238 772.451 49.9996 772.451 Q45.5436 772.451 43.4429 774.965 Q41.3104 777.448 41.3104 782.636 L41.3104 792.948 M21.7677 792.948 L36.0905 792.948 L36.0905 783.432 Q36.0905 778.721 34.34 776.429 Q32.5576 774.106 28.9291 774.106 Q25.3325 774.106 23.5501 776.429 Q21.7677 778.721 21.7677 783.432 L21.7677 792.948 M16.4842 799.378 L16.4842 782.954 Q16.4842 775.602 19.5397 771.623 Q22.5952 767.645 28.2289 767.645 Q32.5894 767.645 35.1675 769.682 Q37.7456 771.719 38.3822 775.665 Q39.4007 770.923 42.6472 768.313 Q45.8619 765.671 50.6998 765.671 Q57.0655 765.671 60.5348 770 Q64.0042 774.329 64.0042 782.318 L64.0042 799.378 L16.4842 799.378 Z" fill="#000000" fill-rule="evenodd" fill-opacity="1" /><path clip-path="url(#clip290)" d="M35.1993 727.159 Q31.2526 724.963 29.3747 721.907 Q27.4968 718.851 27.4968 714.714 Q27.4968 709.144 31.4117 706.12 Q35.2948 703.096 42.4881 703.096 L64.0042 703.096 L64.0042 708.985 L42.679 708.985 Q37.5546 708.985 35.072 710.799 Q32.5894 712.613 32.5894 716.337 Q32.5894 720.888 35.6131 723.53 Q38.6368 726.172 43.8567 726.172 L64.0042 726.172 L64.0042 732.06 L42.679 732.06 Q37.5228 732.06 35.072 733.875 Q32.5894 735.689 32.5894 739.476 Q32.5894 743.964 35.6449 746.606 Q38.6686 749.248 43.8567 749.248 L64.0042 749.248 L64.0042 755.136 L28.3562 755.136 L28.3562 749.248 L33.8944 749.248 Q30.616 747.243 29.0564 744.442 Q27.4968 741.641 27.4968 737.789 Q27.4968 733.906 29.4702 731.201 Q31.4436 728.464 35.1993 727.159 Z" fill="#000000" fill-rule="evenodd" fill-opacity="1" /><path clip-path="url(#clip290)" d="M1135.11 39.9662 Q1140.98 41.222 1144.26 45.1919 Q1147.58 49.1618 1147.58 54.9951 Q1147.58 63.9476 1141.42 68.8492 Q1135.27 73.7508 1123.92 73.7508 Q1120.12 73.7508 1116.07 72.9811 Q1112.06 72.2519 1107.76 70.7531 L1107.76 62.8538 Q1111.16 64.8388 1115.22 65.8515 Q1119.27 66.8642 1123.68 66.8642 Q1131.38 66.8642 1135.39 63.826 Q1139.44 60.7879 1139.44 54.9951 Q1139.44 49.6479 1135.67 46.6502 Q1131.95 43.612 1125.26 43.612 L1118.21 43.612 L1118.21 36.8875 L1125.59 36.8875 Q1131.62 36.8875 1134.82 34.4975 Q1138.02 32.067 1138.02 27.5299 Q1138.02 22.8714 1134.7 20.4004 Q1131.42 17.8888 1125.26 17.8888 Q1121.9 17.8888 1118.05 18.618 Q1114.2 19.3471 1109.58 20.8865 L1109.58 13.5948 Q1114.24 12.2985 1118.29 11.6504 Q1122.39 11.0023 1125.99 11.0023 Q1135.31 11.0023 1140.74 15.2557 Q1146.16 19.4686 1146.16 26.6793 Q1146.16 31.7024 1143.29 35.1862 Q1140.41 38.6294 1135.11 39.9662 Z" fill="#000000" fill-rule="evenodd" fill-opacity="1" /><path clip-path="url(#clip290)" d="M1188.33 34.1734 Q1187.08 33.4443 1185.58 33.1202 Q1184.12 32.7556 1182.34 32.7556 Q1176.02 32.7556 1172.62 36.8875 Q1169.25 40.9789 1169.25 48.6757 L1169.25 72.576 L1161.76 72.576 L1161.76 27.2059 L1169.25 27.2059 L1169.25 34.2544 Q1171.6 30.1225 1175.37 28.1376 Q1179.14 26.1121 1184.53 26.1121 Q1185.3 26.1121 1186.23 26.2337 Q1187.16 26.3147 1188.29 26.5172 L1188.33 34.1734 Z" fill="#000000" fill-rule="evenodd" fill-opacity="1" /><path clip-path="url(#clip290)" d="M1224.55 34.0924 L1224.55 9.54393 L1232 9.54393 L1232 72.576 L1224.55 72.576 L1224.55 65.7705 Q1222.2 69.8214 1218.59 71.8063 Q1215.03 73.7508 1210.01 73.7508 Q1201.78 73.7508 1196.6 67.1883 Q1191.45 60.6258 1191.45 49.9314 Q1191.45 39.2371 1196.6 32.6746 Q1201.78 26.1121 1210.01 26.1121 Q1215.03 26.1121 1218.59 28.0971 Q1222.2 30.0415 1224.55 34.0924 M1199.15 49.9314 Q1199.15 58.1548 1202.51 62.8538 Q1205.92 67.5124 1211.83 67.5124 Q1217.74 67.5124 1221.15 62.8538 Q1224.55 58.1548 1224.55 49.9314 Q1224.55 41.7081 1221.15 37.0496 Q1217.74 32.3505 1211.83 32.3505 Q1205.92 32.3505 1202.51 37.0496 Q1199.15 41.7081 1199.15 49.9314 Z" fill="#000000" fill-rule="evenodd" fill-opacity="1" /><path clip-path="url(#clip290)" d="M1291.31 32.4315 Q1285.31 32.4315 1281.83 37.1306 Q1278.35 41.7891 1278.35 49.9314 Q1278.35 58.0738 1281.79 62.7728 Q1285.27 67.4314 1291.31 67.4314 Q1297.26 67.4314 1300.75 62.7323 Q1304.23 58.0333 1304.23 49.9314 Q1304.23 41.8701 1300.75 37.1711 Q1297.26 32.4315 1291.31 32.4315 M1291.31 26.1121 Q1301.03 26.1121 1306.58 32.4315 Q1312.13 38.7509 1312.13 49.9314 Q1312.13 61.0714 1306.58 67.4314 Q1301.03 73.7508 1291.31 73.7508 Q1281.55 73.7508 1276 67.4314 Q1270.49 61.0714 1270.49 49.9314 Q1270.49 38.7509 1276 32.4315 Q1281.55 26.1121 1291.31 26.1121 Z" fill="#000000" fill-rule="evenodd" fill-opacity="1" /><path clip-path="url(#clip290)" d="M1350.78 34.1734 Q1349.52 33.4443 1348.02 33.1202 Q1346.56 32.7556 1344.78 32.7556 Q1338.46 32.7556 1335.06 36.8875 Q1331.7 40.9789 1331.7 48.6757 L1331.7 72.576 L1324.2 72.576 L1324.2 27.2059 L1331.7 27.2059 L1331.7 34.2544 Q1334.05 30.1225 1337.81 28.1376 Q1341.58 26.1121 1346.97 26.1121 Q1347.74 26.1121 1348.67 26.2337 Q1349.6 26.3147 1350.73 26.5172 L1350.78 34.1734 Z" fill="#000000" fill-rule="evenodd" fill-opacity="1" /><path clip-path="url(#clip290)" d="M1386.99 34.0924 L1386.99 9.54393 L1394.44 9.54393 L1394.44 72.576 L1386.99 72.576 L1386.99 65.7705 Q1384.64 69.8214 1381.04 71.8063 Q1377.47 73.7508 1372.45 73.7508 Q1364.22 73.7508 1359.04 67.1883 Q1353.89 60.6258 1353.89 49.9314 Q1353.89 39.2371 1359.04 32.6746 Q1364.22 26.1121 1372.45 26.1121 Q1377.47 26.1121 1381.04 28.0971 Q1384.64 30.0415 1386.99 34.0924 M1361.59 49.9314 Q1361.59 58.1548 1364.95 62.8538 Q1368.36 67.5124 1374.27 67.5124 Q1380.19 67.5124 1383.59 62.8538 Q1386.99 58.1548 1386.99 49.9314 Q1386.99 41.7081 1383.59 37.0496 Q1380.19 32.3505 1374.27 32.3505 Q1368.36 32.3505 1364.95 37.0496 Q1361.59 41.7081 1361.59 49.9314 Z" fill="#000000" fill-rule="evenodd" fill-opacity="1" /><path clip-path="url(#clip290)" d="M1448.6 48.0275 L1448.6 51.6733 L1414.33 51.6733 Q1414.82 59.3701 1418.95 63.421 Q1423.12 67.4314 1430.54 67.4314 Q1434.83 67.4314 1438.84 66.3781 Q1442.89 65.3249 1446.86 63.2184 L1446.86 70.267 Q1442.85 71.9684 1438.64 72.8596 Q1434.43 73.7508 1430.09 73.7508 Q1419.24 73.7508 1412.88 67.4314 Q1406.56 61.1119 1406.56 50.3365 Q1406.56 39.1965 1412.55 32.6746 Q1418.59 26.1121 1428.8 26.1121 Q1437.95 26.1121 1443.26 32.0264 Q1448.6 37.9003 1448.6 48.0275 M1441.15 45.84 Q1441.07 39.7232 1437.71 36.0774 Q1434.39 32.4315 1428.88 32.4315 Q1422.64 32.4315 1418.87 35.9558 Q1415.14 39.4801 1414.58 45.8805 L1441.15 45.84 Z" fill="#000000" fill-rule="evenodd" fill-opacity="1" /><path clip-path="url(#clip290)" d="M1487.13 34.1734 Q1485.87 33.4443 1484.37 33.1202 Q1482.92 32.7556 1481.13 32.7556 Q1474.81 32.7556 1471.41 36.8875 Q1468.05 40.9789 1468.05 48.6757 L1468.05 72.576 L1460.55 72.576 L1460.55 27.2059 L1468.05 27.2059 L1468.05 34.2544 Q1470.4 30.1225 1474.17 28.1376 Q1477.93 26.1121 1483.32 26.1121 Q1484.09 26.1121 1485.02 26.2337 Q1485.95 26.3147 1487.09 26.5172 L1487.13 34.1734 Z" fill="#000000" fill-rule="evenodd" fill-opacity="1" /><circle clip-path="url(#clip292)" cx="301.869" cy="160.256" r="14" fill="#009af9" fill-rule="evenodd" fill-opacity="1" stroke="#000000" stroke-opacity="1" stroke-width="3.2"/>
<circle clip-path="url(#clip292)" cx="315.938" cy="180.692" r="14" fill="#009af9" fill-rule="evenodd" fill-opacity="1" stroke="#000000" stroke-opacity="1" stroke-width="3.2"/>
<circle clip-path="url(#clip292)" cx="339.938" cy="201.128" r="14" fill="#009af9" fill-rule="evenodd" fill-opacity="1" stroke="#000000" stroke-opacity="1" stroke-width="3.2"/>
<circle clip-path="url(#clip292)" cx="358.972" cy="221.563" r="14" fill="#009af9" fill-rule="evenodd" fill-opacity="1" stroke="#000000" stroke-opacity="1" stroke-width="3.2"/>
<circle clip-path="url(#clip292)" cx="385.455" cy="241.999" r="14" fill="#009af9" fill-rule="evenodd" fill-opacity="1" stroke="#000000" stroke-opacity="1" stroke-width="3.2"/>
<circle clip-path="url(#clip292)" cx="416.075" cy="262.435" r="14" fill="#009af9" fill-rule="evenodd" fill-opacity="1" stroke="#000000" stroke-opacity="1" stroke-width="3.2"/>
<circle clip-path="url(#clip292)" cx="451.661" cy="282.87" r="14" fill="#009af9" fill-rule="evenodd" fill-opacity="1" stroke="#000000" stroke-opacity="1" stroke-width="3.2"/>
<circle clip-path="url(#clip292)" cx="482.281" cy="303.306" r="14" fill="#009af9" fill-rule="evenodd" fill-opacity="1" stroke="#000000" stroke-opacity="1" stroke-width="3.2"/>
<circle clip-path="url(#clip292)" cx="517.039" cy="323.742" r="14" fill="#009af9" fill-rule="evenodd" fill-opacity="1" stroke="#000000" stroke-opacity="1" stroke-width="3.2"/>
<circle clip-path="url(#clip292)" cx="548.487" cy="344.177" r="14" fill="#009af9" fill-rule="evenodd" fill-opacity="1" stroke="#000000" stroke-opacity="1" stroke-width="3.2"/>
<circle clip-path="url(#clip292)" cx="581.591" cy="364.613" r="14" fill="#009af9" fill-rule="evenodd" fill-opacity="1" stroke="#000000" stroke-opacity="1" stroke-width="3.2"/>
<circle clip-path="url(#clip292)" cx="633.728" cy="385.049" r="14" fill="#009af9" fill-rule="evenodd" fill-opacity="1" stroke="#000000" stroke-opacity="1" stroke-width="3.2"/>
<circle clip-path="url(#clip292)" cx="670.141" cy="405.484" r="14" fill="#009af9" fill-rule="evenodd" fill-opacity="1" stroke="#000000" stroke-opacity="1" stroke-width="3.2"/>
<circle clip-path="url(#clip292)" cx="702.417" cy="425.92" r="14" fill="#009af9" fill-rule="evenodd" fill-opacity="1" stroke="#000000" stroke-opacity="1" stroke-width="3.2"/>
<circle clip-path="url(#clip292)" cx="733.865" cy="446.355" r="14" fill="#009af9" fill-rule="evenodd" fill-opacity="1" stroke="#000000" stroke-opacity="1" stroke-width="3.2"/>
<circle clip-path="url(#clip292)" cx="769.451" cy="466.791" r="14" fill="#009af9" fill-rule="evenodd" fill-opacity="1" stroke="#000000" stroke-opacity="1" stroke-width="3.2"/>
<circle clip-path="url(#clip292)" cx="799.243" cy="487.227" r="14" fill="#009af9" fill-rule="evenodd" fill-opacity="1" stroke="#000000" stroke-opacity="1" stroke-width="3.2"/>
<circle clip-path="url(#clip292)" cx="837.312" cy="507.662" r="14" fill="#009af9" fill-rule="evenodd" fill-opacity="1" stroke="#000000" stroke-opacity="1" stroke-width="3.2"/>
<circle clip-path="url(#clip292)" cx="871.243" cy="528.098" r="14" fill="#009af9" fill-rule="evenodd" fill-opacity="1" stroke="#000000" stroke-opacity="1" stroke-width="3.2"/>
<circle clip-path="url(#clip292)" cx="902.691" cy="548.534" r="14" fill="#009af9" fill-rule="evenodd" fill-opacity="1" stroke="#000000" stroke-opacity="1" stroke-width="3.2"/>
<circle clip-path="url(#clip292)" cx="949.863" cy="568.969" r="14" fill="#009af9" fill-rule="evenodd" fill-opacity="1" stroke="#000000" stroke-opacity="1" stroke-width="3.2"/>
<circle clip-path="url(#clip292)" cx="980.483" cy="589.405" r="14" fill="#009af9" fill-rule="evenodd" fill-opacity="1" stroke="#000000" stroke-opacity="1" stroke-width="3.2"/>
<circle clip-path="url(#clip292)" cx="1014.41" cy="609.841" r="14" fill="#009af9" fill-rule="evenodd" fill-opacity="1" stroke="#000000" stroke-opacity="1" stroke-width="3.2"/>
<circle clip-path="url(#clip292)" cx="1045.03" cy="630.276" r="14" fill="#009af9" fill-rule="evenodd" fill-opacity="1" stroke="#000000" stroke-opacity="1" stroke-width="3.2"/>
<circle clip-path="url(#clip292)" cx="1074" cy="650.712" r="14" fill="#009af9" fill-rule="evenodd" fill-opacity="1" stroke="#000000" stroke-opacity="1" stroke-width="3.2"/>
<circle clip-path="url(#clip292)" cx="1110.41" cy="671.148" r="14" fill="#009af9" fill-rule="evenodd" fill-opacity="1" stroke="#000000" stroke-opacity="1" stroke-width="3.2"/>
<circle clip-path="url(#clip292)" cx="1138.55" cy="691.583" r="14" fill="#009af9" fill-rule="evenodd" fill-opacity="1" stroke="#000000" stroke-opacity="1" stroke-width="3.2"/>
<circle clip-path="url(#clip292)" cx="1176.62" cy="712.019" r="14" fill="#009af9" fill-rule="evenodd" fill-opacity="1" stroke="#000000" stroke-opacity="1" stroke-width="3.2"/>
<circle clip-path="url(#clip292)" cx="1211.38" cy="732.455" r="14" fill="#009af9" fill-rule="evenodd" fill-opacity="1" stroke="#000000" stroke-opacity="1" stroke-width="3.2"/>
<circle clip-path="url(#clip292)" cx="1242.83" cy="752.89" r="14" fill="#009af9" fill-rule="evenodd" fill-opacity="1" stroke="#000000" stroke-opacity="1" stroke-width="3.2"/>
<circle clip-path="url(#clip292)" cx="1292.48" cy="773.326" r="14" fill="#009af9" fill-rule="evenodd" fill-opacity="1" stroke="#000000" stroke-opacity="1" stroke-width="3.2"/>
<circle clip-path="url(#clip292)" cx="1323.93" cy="793.762" r="14" fill="#009af9" fill-rule="evenodd" fill-opacity="1" stroke="#000000" stroke-opacity="1" stroke-width="3.2"/>
<circle clip-path="url(#clip292)" cx="1362" cy="814.197" r="14" fill="#009af9" fill-rule="evenodd" fill-opacity="1" stroke="#000000" stroke-opacity="1" stroke-width="3.2"/>
<circle clip-path="url(#clip292)" cx="1396.75" cy="834.633" r="14" fill="#009af9" fill-rule="evenodd" fill-opacity="1" stroke="#000000" stroke-opacity="1" stroke-width="3.2"/>
<circle clip-path="url(#clip292)" cx="1433.17" cy="855.069" r="14" fill="#009af9" fill-rule="evenodd" fill-opacity="1" stroke="#000000" stroke-opacity="1" stroke-width="3.2"/>
<circle clip-path="url(#clip292)" cx="1474.55" cy="875.504" r="14" fill="#009af9" fill-rule="evenodd" fill-opacity="1" stroke="#000000" stroke-opacity="1" stroke-width="3.2"/>
<circle clip-path="url(#clip292)" cx="1521.72" cy="895.94" r="14" fill="#009af9" fill-rule="evenodd" fill-opacity="1" stroke="#000000" stroke-opacity="1" stroke-width="3.2"/>
<circle clip-path="url(#clip292)" cx="1564.75" cy="916.376" r="14" fill="#009af9" fill-rule="evenodd" fill-opacity="1" stroke="#000000" stroke-opacity="1" stroke-width="3.2"/>
<circle clip-path="url(#clip292)" cx="1616.89" cy="936.811" r="14" fill="#009af9" fill-rule="evenodd" fill-opacity="1" stroke="#000000" stroke-opacity="1" stroke-width="3.2"/>
<circle clip-path="url(#clip292)" cx="1669.03" cy="957.247" r="14" fill="#009af9" fill-rule="evenodd" fill-opacity="1" stroke="#000000" stroke-opacity="1" stroke-width="3.2"/>
<circle clip-path="url(#clip292)" cx="1753.44" cy="977.683" r="14" fill="#009af9" fill-rule="evenodd" fill-opacity="1" stroke="#000000" stroke-opacity="1" stroke-width="3.2"/>
<circle clip-path="url(#clip292)" cx="1793.99" cy="998.118" r="14" fill="#009af9" fill-rule="evenodd" fill-opacity="1" stroke="#000000" stroke-opacity="1" stroke-width="3.2"/>
<circle clip-path="url(#clip292)" cx="1835.37" cy="1018.55" r="14" fill="#009af9" fill-rule="evenodd" fill-opacity="1" stroke="#000000" stroke-opacity="1" stroke-width="3.2"/>
<circle clip-path="url(#clip292)" cx="1863.51" cy="1038.99" r="14" fill="#009af9" fill-rule="evenodd" fill-opacity="1" stroke="#000000" stroke-opacity="1" stroke-width="3.2"/>
<circle clip-path="url(#clip292)" cx="1887.51" cy="1059.43" r="14" fill="#009af9" fill-rule="evenodd" fill-opacity="1" stroke="#000000" stroke-opacity="1" stroke-width="3.2"/>
<circle clip-path="url(#clip292)" cx="1920.61" cy="1079.86" r="14" fill="#009af9" fill-rule="evenodd" fill-opacity="1" stroke="#000000" stroke-opacity="1" stroke-width="3.2"/>
<circle clip-path="url(#clip292)" cx="1942.96" cy="1100.3" r="14" fill="#009af9" fill-rule="evenodd" fill-opacity="1" stroke="#000000" stroke-opacity="1" stroke-width="3.2"/>
<circle clip-path="url(#clip292)" cx="1978.54" cy="1120.73" r="14" fill="#009af9" fill-rule="evenodd" fill-opacity="1" stroke="#000000" stroke-opacity="1" stroke-width="3.2"/>
<circle clip-path="url(#clip292)" cx="1994.27" cy="1141.17" r="14" fill="#009af9" fill-rule="evenodd" fill-opacity="1" stroke="#000000" stroke-opacity="1" stroke-width="3.2"/>
<circle clip-path="url(#clip292)" cx="2022.4" cy="1161.6" r="14" fill="#009af9" fill-rule="evenodd" fill-opacity="1" stroke="#000000" stroke-opacity="1" stroke-width="3.2"/>
<circle clip-path="url(#clip292)" cx="2046.4" cy="1182.04" r="14" fill="#009af9" fill-rule="evenodd" fill-opacity="1" stroke="#000000" stroke-opacity="1" stroke-width="3.2"/>
<circle clip-path="url(#clip292)" cx="2072.89" cy="1202.47" r="14" fill="#009af9" fill-rule="evenodd" fill-opacity="1" stroke="#000000" stroke-opacity="1" stroke-width="3.2"/>
<circle clip-path="url(#clip292)" cx="2097.71" cy="1222.91" r="14" fill="#009af9" fill-rule="evenodd" fill-opacity="1" stroke="#000000" stroke-opacity="1" stroke-width="3.2"/>
<circle clip-path="url(#clip292)" cx="2115.92" cy="1243.35" r="14" fill="#009af9" fill-rule="evenodd" fill-opacity="1" stroke="#000000" stroke-opacity="1" stroke-width="3.2"/>
<circle clip-path="url(#clip292)" cx="2134.13" cy="1263.78" r="14" fill="#009af9" fill-rule="evenodd" fill-opacity="1" stroke="#000000" stroke-opacity="1" stroke-width="3.2"/>
<circle clip-path="url(#clip292)" cx="2162.26" cy="1284.22" r="14" fill="#009af9" fill-rule="evenodd" fill-opacity="1" stroke="#000000" stroke-opacity="1" stroke-width="3.2"/>
<circle clip-path="url(#clip292)" cx="2181.3" cy="1304.65" r="14" fill="#009af9" fill-rule="evenodd" fill-opacity="1" stroke="#000000" stroke-opacity="1" stroke-width="3.2"/>
<circle clip-path="url(#clip292)" cx="2207.78" cy="1325.09" r="14" fill="#009af9" fill-rule="evenodd" fill-opacity="1" stroke="#000000" stroke-opacity="1" stroke-width="3.2"/>
<circle clip-path="url(#clip292)" cx="2232.61" cy="1345.52" r="14" fill="#009af9" fill-rule="evenodd" fill-opacity="1" stroke="#000000" stroke-opacity="1" stroke-width="3.2"/>
<circle clip-path="url(#clip292)" cx="2258.26" cy="1365.96" r="14" fill="#009af9" fill-rule="evenodd" fill-opacity="1" stroke="#000000" stroke-opacity="1" stroke-width="3.2"/>
<circle clip-path="url(#clip292)" cx="2293.02" cy="1386.4" r="14" fill="#009af9" fill-rule="evenodd" fill-opacity="1" stroke="#000000" stroke-opacity="1" stroke-width="3.2"/>
<polyline clip-path="url(#clip292)" style="stroke:#e26f46; stroke-linecap:butt; stroke-linejoin:round; stroke-width:4; stroke-opacity:1; fill:none" points="
  301.869,163.062 303.862,164.68 305.856,166.294 307.849,167.907 309.842,169.517 311.835,171.124 313.828,172.729 315.821,174.331 317.814,175.93 319.808,177.528 
  321.801,179.122 323.794,180.714 325.787,182.304 327.78,183.89 329.773,185.475 331.766,187.057 333.76,188.636 335.753,190.213 337.746,191.787 339.739,193.359 
  341.732,194.929 343.725,196.496 345.718,198.06 347.712,199.622 349.705,201.182 351.698,202.739 353.691,204.293 355.684,205.846 357.677,207.395 359.67,208.943 
  361.664,210.488 363.657,212.03 365.65,213.57 367.643,215.108 369.636,216.643 371.629,218.176 373.622,219.706 375.616,221.234 377.609,222.759 379.602,224.283 
  381.595,225.804 383.588,227.322 385.581,228.838 387.574,230.352 389.568,231.863 391.561,233.372 393.554,234.879 395.547,236.383 397.54,237.885 399.533,239.385 
  401.526,240.882 403.52,242.377 405.513,243.87 407.506,245.36 409.499,246.849 411.492,248.334 413.485,249.818 415.479,251.299 417.472,252.778 419.465,254.255 
  421.458,255.729 423.451,257.201 425.444,258.671 427.437,260.139 429.431,261.604 431.424,263.067 433.417,264.528 435.41,265.987 437.403,267.443 439.396,268.897 
  441.389,270.349 443.383,271.799 445.376,273.247 447.369,274.692 449.362,276.135 451.355,277.576 453.348,279.015 455.341,280.452 457.335,281.886 459.328,283.318 
  461.321,284.748 463.314,286.176 465.307,287.602 467.3,289.026 469.293,290.447 471.287,291.867 473.28,293.284 475.273,294.699 477.266,296.112 479.259,297.523 
  481.252,298.932 483.245,300.338 485.239,301.743 487.232,303.145 489.225,304.546 491.218,305.944 493.211,307.34 495.204,308.734 497.197,310.126 499.191,311.516 
  501.184,312.904 503.177,314.29 505.17,315.674 507.163,317.056 509.156,318.436 511.149,319.813 513.143,321.189 515.136,322.563 517.129,323.935 519.122,325.304 
  521.115,326.672 523.108,328.038 525.101,329.401 527.095,330.763 529.088,332.123 531.081,333.481 533.074,334.836 535.067,336.19 537.06,337.542 539.054,338.892 
  541.047,340.24 543.04,341.586 545.033,342.93 547.026,344.272 549.019,345.612 551.012,346.951 553.006,348.287 554.999,349.621 556.992,350.954 558.985,352.285 
  560.978,353.613 562.971,354.94 564.964,356.265 566.958,357.588 568.951,358.91 570.944,360.229 572.937,361.547 574.93,362.862 576.923,364.176 578.916,365.488 
  580.91,366.798 582.903,368.106 584.896,369.413 586.889,370.717 588.882,372.02 590.875,373.321 592.868,374.62 594.862,375.918 596.855,377.213 598.848,378.507 
  600.841,379.799 602.834,381.089 604.827,382.378 606.82,383.664 608.814,384.949 610.807,386.232 612.8,387.514 614.793,388.793 616.786,390.071 618.779,391.347 
  620.772,392.622 622.766,393.894 624.759,395.165 626.752,396.434 628.745,397.702 630.738,398.968 632.731,400.232 634.724,401.494 636.718,402.755 638.711,404.014 
  640.704,405.271 642.697,406.527 644.69,407.781 646.683,409.033 648.677,410.284 650.67,411.533 652.663,412.78 654.656,414.026 656.649,415.27 658.642,416.513 
  660.635,417.754 662.629,418.993 664.622,420.23 666.615,421.466 668.608,422.701 670.601,423.934 672.594,425.165 674.587,426.394 676.581,427.622 678.574,428.849 
  680.567,430.074 682.56,431.297 684.553,432.519 686.546,433.739 688.539,434.957 690.533,436.175 692.526,437.39 694.519,438.604 696.512,439.817 698.505,441.028 
  700.498,442.237 702.491,443.445 704.485,444.651 706.478,445.856 708.471,447.06 710.464,448.261 712.457,449.462 714.45,450.661 716.443,451.858 718.437,453.054 
  720.43,454.249 722.423,455.442 724.416,456.633 726.409,457.824 728.402,459.012 730.395,460.2 732.389,461.385 734.382,462.57 736.375,463.753 738.368,464.934 
  740.361,466.115 742.354,467.293 744.347,468.471 746.341,469.647 748.334,470.821 750.327,471.994 752.32,473.166 754.313,474.337 756.306,475.506 758.299,476.673 
  760.293,477.84 762.286,479.005 764.279,480.168 766.272,481.331 768.265,482.491 770.258,483.651 772.252,484.809 774.245,485.966 776.238,487.122 778.231,488.276 
  780.224,489.429 782.217,490.581 784.21,491.732 786.204,492.881 788.197,494.029 790.19,495.175 792.183,496.321 794.176,497.465 796.169,498.607 798.162,499.749 
  800.156,500.889 802.149,502.028 804.142,503.166 806.135,504.303 808.128,505.438 810.121,506.572 812.114,507.705 814.108,508.837 816.101,509.967 818.094,511.096 
  820.087,512.224 822.08,513.351 824.073,514.477 826.066,515.601 828.06,516.725 830.053,517.847 832.046,518.968 834.039,520.088 836.032,521.206 838.025,522.324 
  840.018,523.44 842.012,524.556 844.005,525.67 845.998,526.783 847.991,527.895 849.984,529.005 851.977,530.115 853.97,531.223 855.964,532.331 857.957,533.437 
  859.95,534.542 861.943,535.647 863.936,536.75 865.929,537.852 867.922,538.953 869.916,540.052 871.909,541.151 873.902,542.249 875.895,543.346 877.888,544.441 
  879.881,545.536 881.874,546.63 883.868,547.722 885.861,548.814 887.854,549.904 889.847,550.994 891.84,552.082 893.833,553.17 895.827,554.256 897.82,555.342 
  899.813,556.427 901.806,557.51 903.799,558.593 905.792,559.674 907.785,560.755 909.779,561.835 911.772,562.914 913.765,563.991 915.758,565.068 917.751,566.144 
  919.744,567.219 921.737,568.293 923.731,569.366 925.724,570.439 927.717,571.51 929.71,572.581 931.703,573.65 933.696,574.719 935.689,575.787 937.683,576.854 
  939.676,577.92 941.669,578.985 943.662,580.049 945.655,581.112 947.648,582.175 949.641,583.237 951.635,584.298 953.628,585.358 955.621,586.417 957.614,587.475 
  959.607,588.533 961.6,589.59 963.593,590.646 965.587,591.701 967.58,592.755 969.573,593.809 971.566,594.861 973.559,595.913 975.552,596.964 977.545,598.015 
  979.539,599.064 981.532,600.113 983.525,601.161 985.518,602.209 987.511,603.255 989.504,604.301 991.497,605.346 993.491,606.391 995.484,607.435 997.477,608.478 
  999.47,609.52 1001.46,610.561 1003.46,611.602 1005.45,612.642 1007.44,613.682 1009.44,614.72 1011.43,615.759 1013.42,616.796 1015.42,617.833 1017.41,618.869 
  1019.4,619.904 1021.39,620.939 1023.39,621.973 1025.38,623.006 1027.37,624.039 1029.37,625.071 1031.36,626.103 1033.35,627.134 1035.35,628.164 1037.34,629.194 
  1039.33,630.223 1041.33,631.251 1043.32,632.279 1045.31,633.307 1047.31,634.333 1049.3,635.36 1051.29,636.385 1053.28,637.41 1055.28,638.434 1057.27,639.458 
  1059.26,640.482 1061.26,641.504 1063.25,642.527 1065.24,643.548 1067.24,644.569 1069.23,645.59 1071.22,646.61 1073.22,647.63 1075.21,648.649 1077.2,649.667 
  1079.2,650.685 1081.19,651.703 1083.18,652.72 1085.18,653.737 1087.17,654.753 1089.16,655.768 1091.15,656.784 1093.15,657.798 1095.14,658.813 1097.13,659.826 
  1099.13,660.84 1101.12,661.853 1103.11,662.865 1105.11,663.877 1107.1,664.889 1109.09,665.9 1111.09,666.911 1113.08,667.921 1115.07,668.931 1117.07,669.941 
  1119.06,670.95 1121.05,671.959 1123.05,672.967 1125.04,673.975 1127.03,674.983 1129.02,675.99 1131.02,676.997 1133.01,678.004 1135,679.01 1137,680.016 
  1138.99,681.022 1140.98,682.027 1142.98,683.032 1144.97,684.036 1146.96,685.041 1148.96,686.045 1150.95,687.048 1152.94,688.051 1154.94,689.055 1156.93,690.057 
  1158.92,691.06 1160.91,692.062 1162.91,693.064 1164.9,694.066 1166.89,695.067 1168.89,696.068 1170.88,697.069 1172.87,698.069 1174.87,699.07 1176.86,700.07 
  1178.85,701.07 1180.85,702.07 1182.84,703.069 1184.83,704.068 1186.83,705.067 1188.82,706.066 1190.81,707.065 1192.81,708.063 1194.8,709.062 1196.79,710.06 
  1198.78,711.057 1200.78,712.055 1202.77,713.053 1204.76,714.05 1206.76,715.047 1208.75,716.044 1210.74,717.041 1212.74,718.038 1214.73,719.035 1216.72,720.031 
  1218.72,721.028 1220.71,722.024 1222.7,723.02 1224.7,724.016 1226.69,725.012 1228.68,726.008 1230.67,727.004 1232.67,728 1234.66,728.995 1236.65,729.991 
  1238.65,730.986 1240.64,731.982 1242.63,732.977 1244.63,733.972 1246.62,734.967 1248.61,735.963 1250.61,736.958 1252.6,737.953 1254.59,738.948 1256.59,739.943 
  1258.58,740.938 1260.57,741.933 1262.57,742.928 1264.56,743.923 1266.55,744.918 1268.54,745.913 1270.54,746.908 1272.53,747.903 1274.52,748.898 1276.52,749.894 
  1278.51,750.889 1280.5,751.884 1282.5,752.879 1284.49,753.874 1286.48,754.87 1288.48,755.865 1290.47,756.861 1292.46,757.856 1294.46,758.852 1296.45,759.848 
  1298.44,760.844 1300.44,761.84 1302.43,762.836 1304.42,763.832 1306.41,764.828 1308.41,765.824 1310.4,766.821 1312.39,767.817 1314.39,768.814 1316.38,769.811 
  1318.37,770.808 1320.37,771.805 1322.36,772.803 1324.35,773.8 1326.35,774.798 1328.34,775.796 1330.33,776.794 1332.33,777.792 1334.32,778.79 1336.31,779.789 
  1338.3,780.787 1340.3,781.786 1342.29,782.786 1344.28,783.785 1346.28,784.785 1348.27,785.784 1350.26,786.785 1352.26,787.785 1354.25,788.785 1356.24,789.786 
  1358.24,790.787 1360.23,791.788 1362.22,792.79 1364.22,793.792 1366.21,794.794 1368.2,795.796 1370.2,796.799 1372.19,797.802 1374.18,798.805 1376.17,799.809 
  1378.17,800.813 1380.16,801.817 1382.15,802.821 1384.15,803.826 1386.14,804.831 1388.13,805.837 1390.13,806.842 1392.12,807.849 1394.11,808.855 1396.11,809.862 
  1398.1,810.869 1400.09,811.877 1402.09,812.885 1404.08,813.893 1406.07,814.901 1408.06,815.911 1410.06,816.92 1412.05,817.93 1414.04,818.94 1416.04,819.951 
  1418.03,820.962 1420.02,821.973 1422.02,822.985 1424.01,823.998 1426,825.01 1428,826.024 1429.99,827.037 1431.98,828.051 1433.98,829.066 1435.97,830.081 
  1437.96,831.096 1439.96,832.112 1441.95,833.129 1443.94,834.146 1445.93,835.163 1447.93,836.181 1449.92,837.2 1451.91,838.218 1453.91,839.238 1455.9,840.258 
  1457.89,841.278 1459.89,842.299 1461.88,843.321 1463.87,844.343 1465.87,845.365 1467.86,846.388 1469.85,847.412 1471.85,848.436 1473.84,849.461 1475.83,850.487 
  1477.82,851.512 1479.82,852.539 1481.81,853.566 1483.8,854.594 1485.8,855.622 1487.79,856.651 1489.78,857.68 1491.78,858.711 1493.77,859.741 1495.76,860.773 
  1497.76,861.805 1499.75,862.837 1501.74,863.87 1503.74,864.904 1505.73,865.939 1507.72,866.974 1509.72,868.01 1511.71,869.046 1513.7,870.084 1515.69,871.121 
  1517.69,872.16 1519.68,873.199 1521.67,874.239 1523.67,875.28 1525.66,876.321 1527.65,877.363 1529.65,878.406 1531.64,879.449 1533.63,880.493 1535.63,881.538 
  1537.62,882.584 1539.61,883.63 1541.61,884.677 1543.6,885.725 1545.59,886.774 1547.59,887.823 1549.58,888.874 1551.57,889.924 1553.56,890.976 1555.56,892.029 
  1557.55,893.082 1559.54,894.136 1561.54,895.191 1563.53,896.247 1565.52,897.303 1567.52,898.36 1569.51,899.418 1571.5,900.477 1573.5,901.537 1575.49,902.598 
  1577.48,903.659 1579.48,904.722 1581.47,905.785 1583.46,906.849 1585.45,907.914 1587.45,908.979 1589.44,910.046 1591.43,911.113 1593.43,912.182 1595.42,913.251 
  1597.41,914.321 1599.41,915.392 1601.4,916.464 1603.39,917.537 1605.39,918.611 1607.38,919.686 1609.37,920.761 1611.37,921.838 1613.36,922.915 1615.35,923.994 
  1617.35,925.073 1619.34,926.154 1621.33,927.235 1623.32,928.317 1625.32,929.401 1627.31,930.485 1629.3,931.57 1631.3,932.656 1633.29,933.743 1635.28,934.832 
  1637.28,935.921 1639.27,937.011 1641.26,938.102 1643.26,939.194 1645.25,940.288 1647.24,941.382 1649.24,942.477 1651.23,943.574 1653.22,944.671 1655.21,945.77 
  1657.21,946.869 1659.2,947.97 1661.19,949.071 1663.19,950.174 1665.18,951.278 1667.17,952.383 1669.17,953.489 1671.16,954.596 1673.15,955.704 1675.15,956.813 
  1677.14,957.924 1679.13,959.035 1681.13,960.148 1683.12,961.261 1685.11,962.376 1687.11,963.492 1689.1,964.609 1691.09,965.728 1693.08,966.847 1695.08,967.968 
  1697.07,969.09 1699.06,970.213 1701.06,971.337 1703.05,972.462 1705.04,973.588 1707.04,974.716 1709.03,975.845 1711.02,976.975 1713.02,978.106 1715.01,979.239 
  1717,980.373 1719,981.508 1720.99,982.644 1722.98,983.781 1724.97,984.92 1726.97,986.06 1728.96,987.201 1730.95,988.343 1732.95,989.487 1734.94,990.632 
  1736.93,991.778 1738.93,992.925 1740.92,994.074 1742.91,995.224 1744.91,996.375 1746.9,997.528 1748.89,998.682 1750.89,999.837 1752.88,1000.99 1754.87,1002.15 
  1756.87,1003.31 1758.86,1004.47 1760.85,1005.63 1762.84,1006.8 1764.84,1007.96 1766.83,1009.13 1768.82,1010.29 1770.82,1011.46 1772.81,1012.63 1774.8,1013.8 
  1776.8,1014.98 1778.79,1016.15 1780.78,1017.33 1782.78,1018.5 1784.77,1019.68 1786.76,1020.86 1788.76,1022.04 1790.75,1023.22 1792.74,1024.41 1794.74,1025.59 
  1796.73,1026.78 1798.72,1027.97 1800.71,1029.16 1802.71,1030.35 1804.7,1031.54 1806.69,1032.74 1808.69,1033.93 1810.68,1035.13 1812.67,1036.33 1814.67,1037.53 
  1816.66,1038.73 1818.65,1039.93 1820.65,1041.14 1822.64,1042.34 1824.63,1043.55 1826.63,1044.76 1828.62,1045.97 1830.61,1047.18 1832.6,1048.39 1834.6,1049.61 
  1836.59,1050.83 1838.58,1052.04 1840.58,1053.26 1842.57,1054.48 1844.56,1055.71 1846.56,1056.93 1848.55,1058.16 1850.54,1059.39 1852.54,1060.61 1854.53,1061.85 
  1856.52,1063.08 1858.52,1064.31 1860.51,1065.55 1862.5,1066.78 1864.5,1068.02 1866.49,1069.26 1868.48,1070.5 1870.47,1071.75 1872.47,1072.99 1874.46,1074.24 
  1876.45,1075.49 1878.45,1076.74 1880.44,1077.99 1882.43,1079.24 1884.43,1080.5 1886.42,1081.76 1888.41,1083.01 1890.41,1084.27 1892.4,1085.54 1894.39,1086.8 
  1896.39,1088.07 1898.38,1089.33 1900.37,1090.6 1902.36,1091.87 1904.36,1093.14 1906.35,1094.42 1908.34,1095.69 1910.34,1096.97 1912.33,1098.25 1914.32,1099.53 
  1916.32,1100.81 1918.31,1102.1 1920.3,1103.38 1922.3,1104.67 1924.29,1105.96 1926.28,1107.25 1928.28,1108.55 1930.27,1109.84 1932.26,1111.14 1934.26,1112.44 
  1936.25,1113.74 1938.24,1115.04 1940.23,1116.34 1942.23,1117.65 1944.22,1118.96 1946.21,1120.26 1948.21,1121.58 1950.2,1122.89 1952.19,1124.2 1954.19,1125.52 
  1956.18,1126.84 1958.17,1128.16 1960.17,1129.48 1962.16,1130.81 1964.15,1132.13 1966.15,1133.46 1968.14,1134.79 1970.13,1136.12 1972.12,1137.46 1974.12,1138.79 
  1976.11,1140.13 1978.1,1141.47 1980.1,1142.81 1982.09,1144.16 1984.08,1145.5 1986.08,1146.85 1988.07,1148.2 1990.06,1149.55 1992.06,1150.9 1994.05,1152.26 
  1996.04,1153.61 1998.04,1154.97 2000.03,1156.33 2002.02,1157.7 2004.02,1159.06 2006.01,1160.43 2008,1161.8 2009.99,1163.17 2011.99,1164.54 2013.98,1165.92 
  2015.97,1167.3 2017.97,1168.67 2019.96,1170.06 2021.95,1171.44 2023.95,1172.82 2025.94,1174.21 2027.93,1175.6 2029.93,1176.99 2031.92,1178.39 2033.91,1179.78 
  2035.91,1181.18 2037.9,1182.58 2039.89,1183.98 2041.89,1185.38 2043.88,1186.79 2045.87,1188.2 2047.86,1189.61 2049.86,1191.02 2051.85,1192.43 2053.84,1193.85 
  2055.84,1195.27 2057.83,1196.69 2059.82,1198.11 2061.82,1199.54 2063.81,1200.97 2065.8,1202.4 2067.8,1203.83 2069.79,1205.26 2071.78,1206.7 2073.78,1208.13 
  2075.77,1209.57 2077.76,1211.02 2079.75,1212.46 2081.75,1213.91 2083.74,1215.36 2085.73,1216.81 2087.73,1218.26 2089.72,1219.72 2091.71,1221.18 2093.71,1222.64 
  2095.7,1224.1 2097.69,1225.56 2099.69,1227.03 2101.68,1228.5 2103.67,1229.97 2105.67,1231.44 2107.66,1232.92 2109.65,1234.4 2111.65,1235.88 2113.64,1237.36 
  2115.63,1238.85 2117.62,1240.33 2119.62,1241.82 2121.61,1243.32 2123.6,1244.81 2125.6,1246.31 2127.59,1247.81 2129.58,1249.31 2131.58,1250.81 2133.57,1252.32 
  2135.56,1253.82 2137.56,1255.34 2139.55,1256.85 2141.54,1258.36 2143.54,1259.88 2145.53,1261.4 2147.52,1262.92 2149.51,1264.45 2151.51,1265.98 2153.5,1267.51 
  2155.49,1269.04 2157.49,1270.57 2159.48,1272.11 2161.47,1273.65 2163.47,1275.19 2165.46,1276.73 2167.45,1278.28 2169.45,1279.83 2171.44,1281.38 2173.43,1282.93 
  2175.43,1284.49 2177.42,1286.05 2179.41,1287.61 2181.41,1289.17 2183.4,1290.74 2185.39,1292.31 2187.38,1293.88 2189.38,1295.45 2191.37,1297.03 2193.36,1298.61 
  2195.36,1300.19 2197.35,1301.77 2199.34,1303.36 2201.34,1304.95 2203.33,1306.54 2205.32,1308.13 2207.32,1309.73 2209.31,1311.33 2211.3,1312.93 2213.3,1314.53 
  2215.29,1316.14 2217.28,1317.75 2219.27,1319.36 2221.27,1320.97 2223.26,1322.59 2225.25,1324.21 2227.25,1325.83 2229.24,1327.46 2231.23,1329.08 2233.23,1330.71 
  2235.22,1332.35 2237.21,1333.98 2239.21,1335.62 2241.2,1337.26 2243.19,1338.9 2245.19,1340.55 2247.18,1342.19 2249.17,1343.84 2251.17,1345.5 2253.16,1347.15 
  2255.15,1348.81 2257.14,1350.47 2259.14,1352.14 2261.13,1353.81 2263.12,1355.47 2265.12,1357.15 2267.11,1358.82 2269.1,1360.5 2271.1,1362.18 2273.09,1363.86 
  2275.08,1365.55 2277.08,1367.24 2279.07,1368.93 2281.06,1370.62 2283.06,1372.32 2285.05,1374.02 2287.04,1375.72 2289.04,1377.42 2291.03,1379.13 2293.02,1380.84 
  
  "/>
<path clip-path="url(#clip290)" d="
M1385.04 322.316 L2282.4 322.316 L2282.4 166.796 L1385.04 166.796  Z
  " fill="#ffffff" fill-rule="evenodd" fill-opacity="1"/>
<polyline clip-path="url(#clip290)" style="stroke:#000000; stroke-linecap:butt; stroke-linejoin:round; stroke-width:4; stroke-opacity:1; fill:none" points="
  1385.04,322.316 2282.4,322.316 2282.4,166.796 1385.04,166.796 1385.04,322.316 
  "/>
<circle clip-path="url(#clip290)" cx="1478.85" cy="218.636" r="23" fill="#009af9" fill-rule="evenodd" fill-opacity="1" stroke="#000000" stroke-opacity="1" stroke-width="5.12"/>
<path clip-path="url(#clip290)" d="M1591.57 213.925 L1591.57 199.897 L1595.83 199.897 L1595.83 235.916 L1591.57 235.916 L1591.57 232.027 Q1590.22 234.342 1588.16 235.476 Q1586.13 236.587 1583.26 236.587 Q1578.56 236.587 1575.6 232.837 Q1572.66 229.087 1572.66 222.976 Q1572.66 216.865 1575.6 213.115 Q1578.56 209.365 1583.26 209.365 Q1586.13 209.365 1588.16 210.499 Q1590.22 211.61 1591.57 213.925 M1577.05 222.976 Q1577.05 227.675 1578.97 230.36 Q1580.92 233.022 1584.3 233.022 Q1587.68 233.022 1589.62 230.36 Q1591.57 227.675 1591.57 222.976 Q1591.57 218.277 1589.62 215.615 Q1587.68 212.93 1584.3 212.93 Q1580.92 212.93 1578.97 215.615 Q1577.05 218.277 1577.05 222.976 Z" fill="#000000" fill-rule="evenodd" fill-opacity="1" /><path clip-path="url(#clip290)" d="M1623.21 222.976 Q1623.21 218.277 1621.27 215.615 Q1619.35 212.93 1615.97 212.93 Q1612.59 212.93 1610.64 215.615 Q1608.72 218.277 1608.72 222.976 Q1608.72 227.675 1610.64 230.36 Q1612.59 233.022 1615.97 233.022 Q1619.35 233.022 1621.27 230.36 Q1623.21 227.675 1623.21 222.976 M1608.72 213.925 Q1610.06 211.61 1612.1 210.499 Q1614.16 209.365 1617.01 209.365 Q1621.73 209.365 1624.67 213.115 Q1627.63 216.865 1627.63 222.976 Q1627.63 229.087 1624.67 232.837 Q1621.73 236.587 1617.01 236.587 Q1614.16 236.587 1612.1 235.476 Q1610.06 234.342 1608.72 232.027 L1608.72 235.916 L1604.44 235.916 L1604.44 199.897 L1608.72 199.897 L1608.72 213.925 Z" fill="#000000" fill-rule="evenodd" fill-opacity="1" /><path clip-path="url(#clip290)" d="M1654.88 214.967 Q1656.47 212.096 1658.7 210.731 Q1660.92 209.365 1663.93 209.365 Q1667.98 209.365 1670.18 212.212 Q1672.38 215.036 1672.38 220.268 L1672.38 235.916 L1668.09 235.916 L1668.09 220.407 Q1668.09 216.68 1666.78 214.874 Q1665.46 213.069 1662.75 213.069 Q1659.44 213.069 1657.52 215.268 Q1655.59 217.467 1655.59 221.263 L1655.59 235.916 L1651.31 235.916 L1651.31 220.407 Q1651.31 216.657 1649.99 214.874 Q1648.67 213.069 1645.92 213.069 Q1642.66 213.069 1640.73 215.291 Q1638.81 217.49 1638.81 221.263 L1638.81 235.916 L1634.53 235.916 L1634.53 209.99 L1638.81 209.99 L1638.81 214.018 Q1640.27 211.633 1642.31 210.499 Q1644.34 209.365 1647.15 209.365 Q1649.97 209.365 1651.94 210.8 Q1653.93 212.235 1654.88 214.967 Z" fill="#000000" fill-rule="evenodd" fill-opacity="1" /><path clip-path="url(#clip290)" d="M1681.96 230.036 L1686.84 230.036 L1686.84 234.018 L1683.05 241.425 L1680.06 241.425 L1681.96 234.018 L1681.96 230.036 Z" fill="#000000" fill-rule="evenodd" fill-opacity="1" /><path clip-path="url(#clip290)" d="M1722.75 205.962 L1716.4 223.161 L1729.11 223.161 L1722.75 205.962 M1720.11 201.356 L1725.41 201.356 L1738.58 235.916 L1733.72 235.916 L1730.57 227.05 L1714.99 227.05 L1711.84 235.916 L1706.91 235.916 L1720.11 201.356 Z" fill="#000000" fill-rule="evenodd" fill-opacity="1" /><path clip-path="url(#clip290)" d="M1748.3 205.198 L1748.3 232.073 L1753.95 232.073 Q1761.1 232.073 1764.41 228.832 Q1767.75 225.592 1767.75 218.601 Q1767.75 211.657 1764.41 208.439 Q1761.1 205.198 1753.95 205.198 L1748.3 205.198 M1743.63 201.356 L1753.23 201.356 Q1763.28 201.356 1767.98 205.546 Q1772.68 209.712 1772.68 218.601 Q1772.68 227.536 1767.96 231.726 Q1763.23 235.916 1753.23 235.916 L1743.63 235.916 L1743.63 201.356 Z" fill="#000000" fill-rule="evenodd" fill-opacity="1" /><path clip-path="url(#clip290)" d="M1806.01 204.018 L1806.01 208.948 Q1803.65 206.749 1800.96 205.661 Q1798.3 204.573 1795.29 204.573 Q1789.37 204.573 1786.22 208.208 Q1783.07 211.819 1783.07 218.67 Q1783.07 225.499 1786.22 229.133 Q1789.37 232.744 1795.29 232.744 Q1798.3 232.744 1800.96 231.656 Q1803.65 230.569 1806.01 228.369 L1806.01 233.254 Q1803.56 234.92 1800.8 235.754 Q1798.07 236.587 1795.02 236.587 Q1787.17 236.587 1782.65 231.795 Q1778.14 226.981 1778.14 218.67 Q1778.14 210.337 1782.65 205.546 Q1787.17 200.731 1795.02 200.731 Q1798.12 200.731 1800.85 201.564 Q1803.6 202.374 1806.01 204.018 Z" fill="#000000" fill-rule="evenodd" fill-opacity="1" /><path clip-path="url(#clip290)" d="M1832.24 232.027 L1832.24 245.777 L1827.96 245.777 L1827.96 209.99 L1832.24 209.99 L1832.24 213.925 Q1833.58 211.61 1835.62 210.499 Q1837.68 209.365 1840.52 209.365 Q1845.25 209.365 1848.19 213.115 Q1851.15 216.865 1851.15 222.976 Q1851.15 229.087 1848.19 232.837 Q1845.25 236.587 1840.52 236.587 Q1837.68 236.587 1835.62 235.476 Q1833.58 234.342 1832.24 232.027 M1846.73 222.976 Q1846.73 218.277 1844.78 215.615 Q1842.86 212.93 1839.48 212.93 Q1836.1 212.93 1834.16 215.615 Q1832.24 218.277 1832.24 222.976 Q1832.24 227.675 1834.16 230.36 Q1836.1 233.022 1839.48 233.022 Q1842.86 233.022 1844.78 230.36 Q1846.73 227.675 1846.73 222.976 Z" fill="#000000" fill-rule="evenodd" fill-opacity="1" /><path clip-path="url(#clip290)" d="M1869.99 222.883 Q1864.83 222.883 1862.84 224.064 Q1860.85 225.244 1860.85 228.092 Q1860.85 230.36 1862.33 231.703 Q1863.83 233.022 1866.4 233.022 Q1869.95 233.022 1872.08 230.522 Q1874.23 227.999 1874.23 223.832 L1874.23 222.883 L1869.99 222.883 M1878.49 221.124 L1878.49 235.916 L1874.23 235.916 L1874.23 231.981 Q1872.77 234.342 1870.59 235.476 Q1868.42 236.587 1865.27 236.587 Q1861.29 236.587 1858.93 234.365 Q1856.59 232.119 1856.59 228.369 Q1856.59 223.994 1859.51 221.772 Q1862.45 219.55 1868.26 219.55 L1874.23 219.55 L1874.23 219.133 Q1874.23 216.194 1872.28 214.596 Q1870.36 212.976 1866.87 212.976 Q1864.64 212.976 1862.54 213.508 Q1860.43 214.041 1858.49 215.106 L1858.49 211.17 Q1860.83 210.268 1863.02 209.828 Q1865.22 209.365 1867.31 209.365 Q1872.93 209.365 1875.71 212.282 Q1878.49 215.198 1878.49 221.124 Z" fill="#000000" fill-rule="evenodd" fill-opacity="1" /><path clip-path="url(#clip290)" d="M1887.26 209.99 L1891.52 209.99 L1891.52 235.916 L1887.26 235.916 L1887.26 209.99 M1887.26 199.897 L1891.52 199.897 L1891.52 205.291 L1887.26 205.291 L1887.26 199.897 Z" fill="#000000" fill-rule="evenodd" fill-opacity="1" /><path clip-path="url(#clip290)" d="M1915.45 213.971 Q1914.74 213.555 1913.88 213.37 Q1913.05 213.161 1912.03 213.161 Q1908.42 213.161 1906.47 215.522 Q1904.55 217.86 1904.55 222.258 L1904.55 235.916 L1900.27 235.916 L1900.27 209.99 L1904.55 209.99 L1904.55 214.018 Q1905.89 211.657 1908.05 210.522 Q1910.2 209.365 1913.28 209.365 Q1913.72 209.365 1914.25 209.434 Q1914.78 209.481 1915.43 209.596 L1915.45 213.971 Z" fill="#000000" fill-rule="evenodd" fill-opacity="1" /><path clip-path="url(#clip290)" d="M1936.45 210.754 L1936.45 214.782 Q1934.64 213.856 1932.7 213.393 Q1930.76 212.93 1928.67 212.93 Q1925.5 212.93 1923.9 213.902 Q1922.33 214.874 1922.33 216.819 Q1922.33 218.3 1923.46 219.157 Q1924.6 219.99 1928.02 220.754 L1929.48 221.078 Q1934.02 222.05 1935.92 223.832 Q1937.84 225.592 1937.84 228.763 Q1937.84 232.374 1934.97 234.481 Q1932.12 236.587 1927.12 236.587 Q1925.04 236.587 1922.77 236.17 Q1920.52 235.777 1918.02 234.967 L1918.02 230.569 Q1920.39 231.795 1922.68 232.42 Q1924.97 233.022 1927.21 233.022 Q1930.22 233.022 1931.84 232.004 Q1933.46 230.962 1933.46 229.087 Q1933.46 227.351 1932.28 226.425 Q1931.13 225.499 1927.17 224.643 L1925.69 224.295 Q1921.73 223.462 1919.97 221.749 Q1918.21 220.013 1918.21 217.004 Q1918.21 213.346 1920.8 211.356 Q1923.39 209.365 1928.16 209.365 Q1930.52 209.365 1932.61 209.712 Q1934.69 210.059 1936.45 210.754 Z" fill="#000000" fill-rule="evenodd" fill-opacity="1" /><polyline clip-path="url(#clip290)" style="stroke:#e26f46; stroke-linecap:butt; stroke-linejoin:round; stroke-width:4; stroke-opacity:1; fill:none" points="
  1408.5,270.476 1549.2,270.476 
  "/>
<path clip-path="url(#clip290)" d="M1589.16 251.737 L1589.16 255.279 L1585.09 255.279 Q1582.79 255.279 1581.89 256.205 Q1581.01 257.131 1581.01 259.538 L1581.01 261.83 L1588.03 261.83 L1588.03 265.14 L1581.01 265.14 L1581.01 287.756 L1576.73 287.756 L1576.73 265.14 L1572.66 265.14 L1572.66 261.83 L1576.73 261.83 L1576.73 260.024 Q1576.73 255.696 1578.74 253.728 Q1580.76 251.737 1585.13 251.737 L1589.16 251.737 Z" fill="#000000" fill-rule="evenodd" fill-opacity="1" /><path clip-path="url(#clip290)" d="M1592.72 261.83 L1596.98 261.83 L1596.98 287.756 L1592.72 287.756 L1592.72 261.83 M1592.72 251.737 L1596.98 251.737 L1596.98 257.131 L1592.72 257.131 L1592.72 251.737 Z" fill="#000000" fill-rule="evenodd" fill-opacity="1" /><path clip-path="url(#clip290)" d="M1610.11 254.469 L1610.11 261.83 L1618.88 261.83 L1618.88 265.14 L1610.11 265.14 L1610.11 279.214 Q1610.11 282.385 1610.97 283.288 Q1611.85 284.191 1614.51 284.191 L1618.88 284.191 L1618.88 287.756 L1614.51 287.756 Q1609.58 287.756 1607.7 285.927 Q1605.83 284.075 1605.83 279.214 L1605.83 265.14 L1602.7 265.14 L1602.7 261.83 L1605.83 261.83 L1605.83 254.469 L1610.11 254.469 Z" fill="#000000" fill-rule="evenodd" fill-opacity="1" /><path clip-path="url(#clip290)" d="M1652.68 251.737 L1652.68 255.279 L1648.6 255.279 Q1646.31 255.279 1645.41 256.205 Q1644.53 257.131 1644.53 259.538 L1644.53 261.83 L1651.54 261.83 L1651.54 265.14 L1644.53 265.14 L1644.53 287.756 L1640.25 287.756 L1640.25 265.14 L1636.17 265.14 L1636.17 261.83 L1640.25 261.83 L1640.25 260.024 Q1640.25 255.696 1642.26 253.728 Q1644.28 251.737 1648.65 251.737 L1652.68 251.737 Z" fill="#000000" fill-rule="evenodd" fill-opacity="1" /><path clip-path="url(#clip290)" d="M1655.8 277.524 L1655.8 261.83 L1660.06 261.83 L1660.06 277.362 Q1660.06 281.043 1661.5 282.895 Q1662.93 284.723 1665.8 284.723 Q1669.25 284.723 1671.24 282.524 Q1673.26 280.325 1673.26 276.529 L1673.26 261.83 L1677.52 261.83 L1677.52 287.756 L1673.26 287.756 L1673.26 283.774 Q1671.71 286.135 1669.65 287.293 Q1667.61 288.427 1664.9 288.427 Q1660.43 288.427 1658.12 285.649 Q1655.8 282.871 1655.8 277.524 M1666.52 261.205 L1666.52 261.205 Z" fill="#000000" fill-rule="evenodd" fill-opacity="1" /><path clip-path="url(#clip290)" d="M1707.84 272.108 L1707.84 287.756 L1703.58 287.756 L1703.58 272.247 Q1703.58 268.566 1702.15 266.737 Q1700.71 264.909 1697.84 264.909 Q1694.39 264.909 1692.4 267.108 Q1690.41 269.307 1690.41 273.103 L1690.41 287.756 L1686.13 287.756 L1686.13 261.83 L1690.41 261.83 L1690.41 265.858 Q1691.94 263.52 1694 262.362 Q1696.08 261.205 1698.79 261.205 Q1703.26 261.205 1705.55 263.983 Q1707.84 266.737 1707.84 272.108 Z" fill="#000000" fill-rule="evenodd" fill-opacity="1" /><path clip-path="url(#clip290)" d="M1734.99 262.825 L1734.99 266.807 Q1733.19 265.811 1731.36 265.325 Q1729.55 264.816 1727.7 264.816 Q1723.56 264.816 1721.27 267.455 Q1718.97 270.071 1718.97 274.816 Q1718.97 279.561 1721.27 282.2 Q1723.56 284.816 1727.7 284.816 Q1729.55 284.816 1731.36 284.33 Q1733.19 283.821 1734.99 282.825 L1734.99 286.76 Q1733.21 287.594 1731.29 288.01 Q1729.39 288.427 1727.24 288.427 Q1721.38 288.427 1717.93 284.746 Q1714.48 281.066 1714.48 274.816 Q1714.48 268.473 1717.96 264.839 Q1721.45 261.205 1727.52 261.205 Q1729.48 261.205 1731.36 261.622 Q1733.23 262.015 1734.99 262.825 Z" fill="#000000" fill-rule="evenodd" fill-opacity="1" /><path clip-path="url(#clip290)" d="M1746.61 254.469 L1746.61 261.83 L1755.39 261.83 L1755.39 265.14 L1746.61 265.14 L1746.61 279.214 Q1746.61 282.385 1747.47 283.288 Q1748.35 284.191 1751.01 284.191 L1755.39 284.191 L1755.39 287.756 L1751.01 287.756 Q1746.08 287.756 1744.21 285.927 Q1742.33 284.075 1742.33 279.214 L1742.33 265.14 L1739.21 265.14 L1739.21 261.83 L1742.33 261.83 L1742.33 254.469 L1746.61 254.469 Z" fill="#000000" fill-rule="evenodd" fill-opacity="1" /><path clip-path="url(#clip290)" d="M1760.99 261.83 L1765.25 261.83 L1765.25 287.756 L1760.99 287.756 L1760.99 261.83 M1760.99 251.737 L1765.25 251.737 L1765.25 257.131 L1760.99 257.131 L1760.99 251.737 Z" fill="#000000" fill-rule="evenodd" fill-opacity="1" /><path clip-path="url(#clip290)" d="M1784.21 264.816 Q1780.78 264.816 1778.79 267.501 Q1776.8 270.163 1776.8 274.816 Q1776.8 279.469 1778.77 282.154 Q1780.76 284.816 1784.21 284.816 Q1787.61 284.816 1789.6 282.131 Q1791.59 279.446 1791.59 274.816 Q1791.59 270.21 1789.6 267.524 Q1787.61 264.816 1784.21 264.816 M1784.21 261.205 Q1789.76 261.205 1792.93 264.816 Q1796.1 268.427 1796.1 274.816 Q1796.1 281.182 1792.93 284.816 Q1789.76 288.427 1784.21 288.427 Q1778.63 288.427 1775.46 284.816 Q1772.31 281.182 1772.31 274.816 Q1772.31 268.427 1775.46 264.816 Q1778.63 261.205 1784.21 261.205 Z" fill="#000000" fill-rule="evenodd" fill-opacity="1" /><path clip-path="url(#clip290)" d="M1824.71 272.108 L1824.71 287.756 L1820.46 287.756 L1820.46 272.247 Q1820.46 268.566 1819.02 266.737 Q1817.58 264.909 1814.71 264.909 Q1811.27 264.909 1809.27 267.108 Q1807.28 269.307 1807.28 273.103 L1807.28 287.756 L1803 287.756 L1803 261.83 L1807.28 261.83 L1807.28 265.858 Q1808.81 263.52 1810.87 262.362 Q1812.96 261.205 1815.66 261.205 Q1820.13 261.205 1822.42 263.983 Q1824.71 266.737 1824.71 272.108 Z" fill="#000000" fill-rule="evenodd" fill-opacity="1" /><path clip-path="url(#clip290)" d="M1834.3 281.876 L1839.18 281.876 L1839.18 285.858 L1835.39 293.265 L1832.4 293.265 L1834.3 285.858 L1834.3 281.876 Z" fill="#000000" fill-rule="evenodd" fill-opacity="1" /><path clip-path="url(#clip290)" d="M1885.52 273.728 L1885.52 275.811 L1865.94 275.811 Q1866.22 280.209 1868.58 282.524 Q1870.96 284.816 1875.2 284.816 Q1877.65 284.816 1879.95 284.214 Q1882.26 283.612 1884.53 282.409 L1884.53 286.436 Q1882.24 287.408 1879.83 287.918 Q1877.42 288.427 1874.95 288.427 Q1868.74 288.427 1865.11 284.816 Q1861.5 281.205 1861.5 275.047 Q1861.5 268.682 1864.92 264.955 Q1868.37 261.205 1874.2 261.205 Q1879.44 261.205 1882.47 264.585 Q1885.52 267.941 1885.52 273.728 M1881.26 272.478 Q1881.22 268.983 1879.3 266.899 Q1877.4 264.816 1874.25 264.816 Q1870.69 264.816 1868.53 266.83 Q1866.4 268.844 1866.08 272.501 L1881.26 272.478 Z" fill="#000000" fill-rule="evenodd" fill-opacity="1" /><path clip-path="url(#clip290)" d="M1907.54 265.811 Q1906.82 265.395 1905.96 265.21 Q1905.13 265.001 1904.11 265.001 Q1900.5 265.001 1898.56 267.362 Q1896.64 269.7 1896.64 274.098 L1896.64 287.756 L1892.35 287.756 L1892.35 261.83 L1896.64 261.83 L1896.64 265.858 Q1897.98 263.497 1900.13 262.362 Q1902.28 261.205 1905.36 261.205 Q1905.8 261.205 1906.33 261.274 Q1906.87 261.321 1907.51 261.436 L1907.54 265.811 Z" fill="#000000" fill-rule="evenodd" fill-opacity="1" /><path clip-path="url(#clip290)" d="M1926.2 265.811 Q1925.48 265.395 1924.62 265.21 Q1923.79 265.001 1922.77 265.001 Q1919.16 265.001 1917.21 267.362 Q1915.29 269.7 1915.29 274.098 L1915.29 287.756 L1911.01 287.756 L1911.01 261.83 L1915.29 261.83 L1915.29 265.858 Q1916.64 263.497 1918.79 262.362 Q1920.94 261.205 1924.02 261.205 Q1924.46 261.205 1924.99 261.274 Q1925.52 261.321 1926.17 261.436 L1926.2 265.811 Z" fill="#000000" fill-rule="evenodd" fill-opacity="1" /><path clip-path="url(#clip290)" d="M1939.67 264.816 Q1936.24 264.816 1934.25 267.501 Q1932.26 270.163 1932.26 274.816 Q1932.26 279.469 1934.23 282.154 Q1936.22 284.816 1939.67 284.816 Q1943.07 284.816 1945.06 282.131 Q1947.05 279.446 1947.05 274.816 Q1947.05 270.21 1945.06 267.524 Q1943.07 264.816 1939.67 264.816 M1939.67 261.205 Q1945.22 261.205 1948.39 264.816 Q1951.57 268.427 1951.57 274.816 Q1951.57 281.182 1948.39 284.816 Q1945.22 288.427 1939.67 288.427 Q1934.09 288.427 1930.92 284.816 Q1927.77 281.182 1927.77 274.816 Q1927.77 268.427 1930.92 264.816 Q1934.09 261.205 1939.67 261.205 Z" fill="#000000" fill-rule="evenodd" fill-opacity="1" /><path clip-path="url(#clip290)" d="M1973.65 265.811 Q1972.93 265.395 1972.07 265.21 Q1971.24 265.001 1970.22 265.001 Q1966.61 265.001 1964.67 267.362 Q1962.75 269.7 1962.75 274.098 L1962.75 287.756 L1958.46 287.756 L1958.46 261.83 L1962.75 261.83 L1962.75 265.858 Q1964.09 263.497 1966.24 262.362 Q1968.39 261.205 1971.47 261.205 Q1971.91 261.205 1972.45 261.274 Q1972.98 261.321 1973.63 261.436 L1973.65 265.811 Z" fill="#000000" fill-rule="evenodd" fill-opacity="1" /><path clip-path="url(#clip290)" d="M1993.74 266.228 L2023.42 266.228 L2023.42 270.117 L1993.74 270.117 L1993.74 266.228 M1993.74 275.672 L2023.42 275.672 L2023.42 279.608 L1993.74 279.608 L1993.74 275.672 Z" fill="#000000" fill-rule="evenodd" fill-opacity="1" /><path clip-path="url(#clip290)" d="M2049.39 283.821 L2057.03 283.821 L2057.03 257.455 L2048.72 259.122 L2048.72 254.862 L2056.98 253.196 L2061.66 253.196 L2061.66 283.821 L2069.3 283.821 L2069.3 287.756 L2049.39 287.756 L2049.39 283.821 Z" fill="#000000" fill-rule="evenodd" fill-opacity="1" /><path clip-path="url(#clip290)" d="M2077.56 253.196 L2099.78 253.196 L2099.78 255.186 L2087.24 287.756 L2082.35 287.756 L2094.16 257.131 L2077.56 257.131 L2077.56 253.196 Z" fill="#000000" fill-rule="evenodd" fill-opacity="1" /><path clip-path="url(#clip290)" d="M2108.9 281.876 L2113.79 281.876 L2113.79 287.756 L2108.9 287.756 L2108.9 281.876 Z" fill="#000000" fill-rule="evenodd" fill-opacity="1" /><path clip-path="url(#clip290)" d="M2128 283.821 L2144.32 283.821 L2144.32 287.756 L2122.37 287.756 L2122.37 283.821 Q2125.04 281.066 2129.62 276.436 Q2134.23 271.784 2135.41 270.441 Q2137.65 267.918 2138.53 266.182 Q2139.43 264.423 2139.43 262.733 Q2139.43 259.978 2137.49 258.242 Q2135.57 256.506 2132.47 256.506 Q2130.27 256.506 2127.81 257.27 Q2125.38 258.034 2122.61 259.585 L2122.61 254.862 Q2125.43 253.728 2127.88 253.149 Q2130.34 252.571 2132.37 252.571 Q2137.75 252.571 2140.94 255.256 Q2144.13 257.941 2144.13 262.432 Q2144.13 264.561 2143.32 266.483 Q2142.54 268.381 2140.43 270.973 Q2139.85 271.645 2136.75 274.862 Q2133.65 278.057 2128 283.821 Z" fill="#000000" fill-rule="evenodd" fill-opacity="1" /><path clip-path="url(#clip290)" d="M2164.13 271.344 Q2160.8 271.344 2158.88 273.126 Q2156.98 274.909 2156.98 278.034 Q2156.98 281.159 2158.88 282.941 Q2160.8 284.723 2164.13 284.723 Q2167.47 284.723 2169.39 282.941 Q2171.31 281.135 2171.31 278.034 Q2171.31 274.909 2169.39 273.126 Q2167.49 271.344 2164.13 271.344 M2159.46 269.353 Q2156.45 268.612 2154.76 266.552 Q2153.09 264.492 2153.09 261.529 Q2153.09 257.386 2156.03 254.978 Q2158.99 252.571 2164.13 252.571 Q2169.3 252.571 2172.24 254.978 Q2175.18 257.386 2175.18 261.529 Q2175.18 264.492 2173.49 266.552 Q2171.82 268.612 2168.83 269.353 Q2172.21 270.14 2174.09 272.432 Q2175.99 274.723 2175.99 278.034 Q2175.99 283.057 2172.91 285.742 Q2169.85 288.427 2164.13 288.427 Q2158.42 288.427 2155.34 285.742 Q2152.28 283.057 2152.28 278.034 Q2152.28 274.723 2154.18 272.432 Q2156.08 270.14 2159.46 269.353 M2157.74 261.969 Q2157.74 264.654 2159.41 266.159 Q2161.1 267.663 2164.13 267.663 Q2167.14 267.663 2168.83 266.159 Q2170.55 264.654 2170.55 261.969 Q2170.55 259.284 2168.83 257.779 Q2167.14 256.274 2164.13 256.274 Q2161.1 256.274 2159.41 257.779 Q2157.74 259.284 2157.74 261.969 Z" fill="#000000" fill-rule="evenodd" fill-opacity="1" /><path clip-path="url(#clip290)" d="M2184.34 253.196 L2202.7 253.196 L2202.7 257.131 L2188.62 257.131 L2188.62 265.603 Q2189.64 265.256 2190.66 265.094 Q2191.68 264.909 2192.7 264.909 Q2198.49 264.909 2201.87 268.08 Q2205.24 271.251 2205.24 276.668 Q2205.24 282.246 2201.77 285.348 Q2198.3 288.427 2191.98 288.427 Q2189.8 288.427 2187.54 288.057 Q2185.29 287.686 2182.88 286.946 L2182.88 282.246 Q2184.97 283.381 2187.19 283.936 Q2189.41 284.492 2191.89 284.492 Q2195.89 284.492 2198.23 282.385 Q2200.57 280.279 2200.57 276.668 Q2200.57 273.057 2198.23 270.95 Q2195.89 268.844 2191.89 268.844 Q2190.01 268.844 2188.14 269.26 Q2186.29 269.677 2184.34 270.557 L2184.34 253.196 Z" fill="#000000" fill-rule="evenodd" fill-opacity="1" /><path clip-path="url(#clip290)" d="M2213.28 253.196 L2235.5 253.196 L2235.5 255.186 L2222.95 287.756 L2218.07 287.756 L2229.87 257.131 L2213.28 257.131 L2213.28 253.196 Z" fill="#000000" fill-rule="evenodd" fill-opacity="1" /></svg>
