<?xml version="1.0" encoding="utf-8"?>
<svg xmlns="http://www.w3.org/2000/svg" xmlns:xlink="http://www.w3.org/1999/xlink" width="600" height="400" viewBox="0 0 2400 1600">
<defs>
  <clipPath id="clip090">
    <rect x="0" y="0" width="2400" height="1600"/>
  </clipPath>
</defs>
<path clip-path="url(#clip090)" d="
M0 1600 L2400 1600 L2400 8.88178e-14 L0 8.88178e-14  Z
  " fill="#ffffff" fill-rule="evenodd" fill-opacity="1"/>
<defs>
  <clipPath id="clip091">
    <rect x="480" y="0" width="1681" height="1600"/>
  </clipPath>
</defs>
<path clip-path="url(#clip090)" d="
M242.135 1423.18 L2352.76 1423.18 L2352.76 123.472 L242.135 123.472  Z
  " fill="#ffffff" fill-rule="evenodd" fill-opacity="1"/>
<defs>
  <clipPath id="clip092">
    <rect x="242" y="123" width="2112" height="1301"/>
  </clipPath>
</defs>
<polyline clip-path="url(#clip092)" style="stroke:#000000; stroke-linecap:butt; stroke-linejoin:round; stroke-width:2; stroke-opacity:0.1; fill:none" points="
  467.385,1423.18 467.385,123.472 
  "/>
<polyline clip-path="url(#clip092)" style="stroke:#000000; stroke-linecap:butt; stroke-linejoin:round; stroke-width:2; stroke-opacity:0.1; fill:none" points="
  881.174,1423.18 881.174,123.472 
  "/>
<polyline clip-path="url(#clip092)" style="stroke:#000000; stroke-linecap:butt; stroke-linejoin:round; stroke-width:2; stroke-opacity:0.1; fill:none" points="
  1294.96,1423.18 1294.96,123.472 
  "/>
<polyline clip-path="url(#clip092)" style="stroke:#000000; stroke-linecap:butt; stroke-linejoin:round; stroke-width:2; stroke-opacity:0.1; fill:none" points="
  1708.75,1423.18 1708.75,123.472 
  "/>
<polyline clip-path="url(#clip092)" style="stroke:#000000; stroke-linecap:butt; stroke-linejoin:round; stroke-width:2; stroke-opacity:0.1; fill:none" points="
  2122.54,1423.18 2122.54,123.472 
  "/>
<polyline clip-path="url(#clip090)" style="stroke:#000000; stroke-linecap:butt; stroke-linejoin:round; stroke-width:4; stroke-opacity:1; fill:none" points="
  242.135,1423.18 2352.76,1423.18 
  "/>
<polyline clip-path="url(#clip090)" style="stroke:#000000; stroke-linecap:butt; stroke-linejoin:round; stroke-width:4; stroke-opacity:1; fill:none" points="
  467.385,1423.18 467.385,1404.28 
  "/>
<polyline clip-path="url(#clip090)" style="stroke:#000000; stroke-linecap:butt; stroke-linejoin:round; stroke-width:4; stroke-opacity:1; fill:none" points="
  881.174,1423.18 881.174,1404.28 
  "/>
<polyline clip-path="url(#clip090)" style="stroke:#000000; stroke-linecap:butt; stroke-linejoin:round; stroke-width:4; stroke-opacity:1; fill:none" points="
  1294.96,1423.18 1294.96,1404.28 
  "/>
<polyline clip-path="url(#clip090)" style="stroke:#000000; stroke-linecap:butt; stroke-linejoin:round; stroke-width:4; stroke-opacity:1; fill:none" points="
  1708.75,1423.18 1708.75,1404.28 
  "/>
<polyline clip-path="url(#clip090)" style="stroke:#000000; stroke-linecap:butt; stroke-linejoin:round; stroke-width:4; stroke-opacity:1; fill:none" points="
  2122.54,1423.18 2122.54,1404.28 
  "/>
<path clip-path="url(#clip090)" d="M411.911 1481.64 L419.549 1481.64 L419.549 1455.28 L411.239 1456.95 L411.239 1452.69 L419.503 1451.02 L424.179 1451.02 L424.179 1481.64 L431.818 1481.64 L431.818 1485.58 L411.911 1485.58 L411.911 1481.64 Z" fill="#000000" fill-rule="evenodd" fill-opacity="1" /><path clip-path="url(#clip090)" d="M451.262 1454.1 Q447.651 1454.1 445.822 1457.66 Q444.017 1461.2 444.017 1468.33 Q444.017 1475.44 445.822 1479.01 Q447.651 1482.55 451.262 1482.55 Q454.896 1482.55 456.702 1479.01 Q458.531 1475.44 458.531 1468.33 Q458.531 1461.2 456.702 1457.66 Q454.896 1454.1 451.262 1454.1 M451.262 1450.39 Q457.072 1450.39 460.128 1455 Q463.207 1459.58 463.207 1468.33 Q463.207 1477.06 460.128 1481.67 Q457.072 1486.25 451.262 1486.25 Q445.452 1486.25 442.373 1481.67 Q439.318 1477.06 439.318 1468.33 Q439.318 1459.58 442.373 1455 Q445.452 1450.39 451.262 1450.39 Z" fill="#000000" fill-rule="evenodd" fill-opacity="1" /><path clip-path="url(#clip090)" d="M481.424 1454.1 Q477.813 1454.1 475.984 1457.66 Q474.179 1461.2 474.179 1468.33 Q474.179 1475.44 475.984 1479.01 Q477.813 1482.55 481.424 1482.55 Q485.058 1482.55 486.864 1479.01 Q488.693 1475.44 488.693 1468.33 Q488.693 1461.2 486.864 1457.66 Q485.058 1454.1 481.424 1454.1 M481.424 1450.39 Q487.234 1450.39 490.29 1455 Q493.368 1459.58 493.368 1468.33 Q493.368 1477.06 490.29 1481.67 Q487.234 1486.25 481.424 1486.25 Q475.614 1486.25 472.535 1481.67 Q469.48 1477.06 469.48 1468.33 Q469.48 1459.58 472.535 1455 Q475.614 1450.39 481.424 1450.39 Z" fill="#000000" fill-rule="evenodd" fill-opacity="1" /><path clip-path="url(#clip090)" d="M511.586 1454.1 Q507.975 1454.1 506.146 1457.66 Q504.341 1461.2 504.341 1468.33 Q504.341 1475.44 506.146 1479.01 Q507.975 1482.55 511.586 1482.55 Q515.22 1482.55 517.026 1479.01 Q518.854 1475.44 518.854 1468.33 Q518.854 1461.2 517.026 1457.66 Q515.22 1454.1 511.586 1454.1 M511.586 1450.39 Q517.396 1450.39 520.452 1455 Q523.53 1459.58 523.53 1468.33 Q523.53 1477.06 520.452 1481.67 Q517.396 1486.25 511.586 1486.25 Q505.776 1486.25 502.697 1481.67 Q499.642 1477.06 499.642 1468.33 Q499.642 1459.58 502.697 1455 Q505.776 1450.39 511.586 1450.39 Z" fill="#000000" fill-rule="evenodd" fill-opacity="1" /><path clip-path="url(#clip090)" d="M825.699 1481.64 L833.338 1481.64 L833.338 1455.28 L825.028 1456.95 L825.028 1452.69 L833.292 1451.02 L837.968 1451.02 L837.968 1481.64 L845.607 1481.64 L845.607 1485.58 L825.699 1485.58 L825.699 1481.64 Z" fill="#000000" fill-rule="evenodd" fill-opacity="1" /><path clip-path="url(#clip090)" d="M855.097 1451.02 L873.454 1451.02 L873.454 1454.96 L859.38 1454.96 L859.38 1463.43 Q860.398 1463.08 861.417 1462.92 Q862.435 1462.73 863.454 1462.73 Q869.241 1462.73 872.62 1465.9 Q876 1469.08 876 1474.49 Q876 1480.07 872.528 1483.17 Q869.056 1486.25 862.736 1486.25 Q860.56 1486.25 858.292 1485.88 Q856.046 1485.51 853.639 1484.77 L853.639 1480.07 Q855.722 1481.2 857.945 1481.76 Q860.167 1482.32 862.644 1482.32 Q866.648 1482.32 868.986 1480.21 Q871.324 1478.1 871.324 1474.49 Q871.324 1470.88 868.986 1468.77 Q866.648 1466.67 862.644 1466.67 Q860.769 1466.67 858.894 1467.08 Q857.042 1467.5 855.097 1468.38 L855.097 1451.02 Z" fill="#000000" fill-rule="evenodd" fill-opacity="1" /><path clip-path="url(#clip090)" d="M895.213 1454.1 Q891.602 1454.1 889.773 1457.66 Q887.968 1461.2 887.968 1468.33 Q887.968 1475.44 889.773 1479.01 Q891.602 1482.55 895.213 1482.55 Q898.847 1482.55 900.653 1479.01 Q902.481 1475.44 902.481 1468.33 Q902.481 1461.2 900.653 1457.66 Q898.847 1454.1 895.213 1454.1 M895.213 1450.39 Q901.023 1450.39 904.079 1455 Q907.157 1459.58 907.157 1468.33 Q907.157 1477.06 904.079 1481.67 Q901.023 1486.25 895.213 1486.25 Q889.403 1486.25 886.324 1481.67 Q883.269 1477.06 883.269 1468.33 Q883.269 1459.58 886.324 1455 Q889.403 1450.39 895.213 1450.39 Z" fill="#000000" fill-rule="evenodd" fill-opacity="1" /><path clip-path="url(#clip090)" d="M925.375 1454.1 Q921.764 1454.1 919.935 1457.66 Q918.129 1461.2 918.129 1468.33 Q918.129 1475.44 919.935 1479.01 Q921.764 1482.55 925.375 1482.55 Q929.009 1482.55 930.815 1479.01 Q932.643 1475.44 932.643 1468.33 Q932.643 1461.2 930.815 1457.66 Q929.009 1454.1 925.375 1454.1 M925.375 1450.39 Q931.185 1450.39 934.241 1455 Q937.319 1459.58 937.319 1468.33 Q937.319 1477.06 934.241 1481.67 Q931.185 1486.25 925.375 1486.25 Q919.565 1486.25 916.486 1481.67 Q913.43 1477.06 913.43 1468.33 Q913.43 1459.58 916.486 1455 Q919.565 1450.39 925.375 1450.39 Z" fill="#000000" fill-rule="evenodd" fill-opacity="1" /><path clip-path="url(#clip090)" d="M1243.57 1481.64 L1259.89 1481.64 L1259.89 1485.58 L1237.95 1485.58 L1237.95 1481.64 Q1240.61 1478.89 1245.19 1474.26 Q1249.8 1469.61 1250.98 1468.27 Q1253.23 1465.74 1254.11 1464.01 Q1255.01 1462.25 1255.01 1460.56 Q1255.01 1457.8 1253.06 1456.07 Q1251.14 1454.33 1248.04 1454.33 Q1245.84 1454.33 1243.39 1455.09 Q1240.96 1455.86 1238.18 1457.41 L1238.18 1452.69 Q1241 1451.55 1243.46 1450.97 Q1245.91 1450.39 1247.95 1450.39 Q1253.32 1450.39 1256.51 1453.08 Q1259.71 1455.77 1259.71 1460.26 Q1259.71 1462.39 1258.9 1464.31 Q1258.11 1466.2 1256 1468.8 Q1255.43 1469.47 1252.32 1472.69 Q1249.22 1475.88 1243.57 1481.64 Z" fill="#000000" fill-rule="evenodd" fill-opacity="1" /><path clip-path="url(#clip090)" d="M1279.71 1454.1 Q1276.1 1454.1 1274.27 1457.66 Q1272.46 1461.2 1272.46 1468.33 Q1272.46 1475.44 1274.27 1479.01 Q1276.1 1482.55 1279.71 1482.55 Q1283.34 1482.55 1285.15 1479.01 Q1286.98 1475.44 1286.98 1468.33 Q1286.98 1461.2 1285.15 1457.66 Q1283.34 1454.1 1279.71 1454.1 M1279.71 1450.39 Q1285.52 1450.39 1288.57 1455 Q1291.65 1459.58 1291.65 1468.33 Q1291.65 1477.06 1288.57 1481.67 Q1285.52 1486.25 1279.71 1486.25 Q1273.9 1486.25 1270.82 1481.67 Q1267.76 1477.06 1267.76 1468.33 Q1267.76 1459.58 1270.82 1455 Q1273.9 1450.39 1279.71 1450.39 Z" fill="#000000" fill-rule="evenodd" fill-opacity="1" /><path clip-path="url(#clip090)" d="M1309.87 1454.1 Q1306.26 1454.1 1304.43 1457.66 Q1302.62 1461.2 1302.62 1468.33 Q1302.62 1475.44 1304.43 1479.01 Q1306.26 1482.55 1309.87 1482.55 Q1313.5 1482.55 1315.31 1479.01 Q1317.14 1475.44 1317.14 1468.33 Q1317.14 1461.2 1315.31 1457.66 Q1313.5 1454.1 1309.87 1454.1 M1309.87 1450.39 Q1315.68 1450.39 1318.74 1455 Q1321.81 1459.58 1321.81 1468.33 Q1321.81 1477.06 1318.74 1481.67 Q1315.68 1486.25 1309.87 1486.25 Q1304.06 1486.25 1300.98 1481.67 Q1297.93 1477.06 1297.93 1468.33 Q1297.93 1459.58 1300.98 1455 Q1304.06 1450.39 1309.87 1450.39 Z" fill="#000000" fill-rule="evenodd" fill-opacity="1" /><path clip-path="url(#clip090)" d="M1340.03 1454.1 Q1336.42 1454.1 1334.59 1457.66 Q1332.79 1461.2 1332.79 1468.33 Q1332.79 1475.44 1334.59 1479.01 Q1336.42 1482.55 1340.03 1482.55 Q1343.67 1482.55 1345.47 1479.01 Q1347.3 1475.44 1347.3 1468.33 Q1347.3 1461.2 1345.47 1457.66 Q1343.67 1454.1 1340.03 1454.1 M1340.03 1450.39 Q1345.84 1450.39 1348.9 1455 Q1351.98 1459.58 1351.98 1468.33 Q1351.98 1477.06 1348.9 1481.67 Q1345.84 1486.25 1340.03 1486.25 Q1334.22 1486.25 1331.14 1481.67 Q1328.09 1477.06 1328.09 1468.33 Q1328.09 1459.58 1331.14 1455 Q1334.22 1450.39 1340.03 1450.39 Z" fill="#000000" fill-rule="evenodd" fill-opacity="1" /><path clip-path="url(#clip090)" d="M1657.36 1481.64 L1673.68 1481.64 L1673.68 1485.58 L1651.74 1485.58 L1651.74 1481.64 Q1654.4 1478.89 1658.98 1474.26 Q1663.59 1469.61 1664.77 1468.27 Q1667.02 1465.74 1667.9 1464.01 Q1668.8 1462.25 1668.8 1460.56 Q1668.8 1457.8 1666.85 1456.07 Q1664.93 1454.33 1661.83 1454.33 Q1659.63 1454.33 1657.18 1455.09 Q1654.75 1455.86 1651.97 1457.41 L1651.97 1452.69 Q1654.79 1451.55 1657.25 1450.97 Q1659.7 1450.39 1661.74 1450.39 Q1667.11 1450.39 1670.3 1453.08 Q1673.5 1455.77 1673.5 1460.26 Q1673.5 1462.39 1672.69 1464.31 Q1671.9 1466.2 1669.79 1468.8 Q1669.21 1469.47 1666.11 1472.69 Q1663.01 1475.88 1657.36 1481.64 Z" fill="#000000" fill-rule="evenodd" fill-opacity="1" /><path clip-path="url(#clip090)" d="M1683.54 1451.02 L1701.9 1451.02 L1701.9 1454.96 L1687.83 1454.96 L1687.83 1463.43 Q1688.84 1463.08 1689.86 1462.92 Q1690.88 1462.73 1691.9 1462.73 Q1697.69 1462.73 1701.07 1465.9 Q1704.45 1469.08 1704.45 1474.49 Q1704.45 1480.07 1700.97 1483.17 Q1697.5 1486.25 1691.18 1486.25 Q1689.01 1486.25 1686.74 1485.88 Q1684.49 1485.51 1682.08 1484.77 L1682.08 1480.07 Q1684.17 1481.2 1686.39 1481.76 Q1688.61 1482.32 1691.09 1482.32 Q1695.09 1482.32 1697.43 1480.21 Q1699.77 1478.1 1699.77 1474.49 Q1699.77 1470.88 1697.43 1468.77 Q1695.09 1466.67 1691.09 1466.67 Q1689.21 1466.67 1687.34 1467.08 Q1685.49 1467.5 1683.54 1468.38 L1683.54 1451.02 Z" fill="#000000" fill-rule="evenodd" fill-opacity="1" /><path clip-path="url(#clip090)" d="M1723.66 1454.1 Q1720.05 1454.1 1718.22 1457.66 Q1716.41 1461.2 1716.41 1468.33 Q1716.41 1475.44 1718.22 1479.01 Q1720.05 1482.55 1723.66 1482.55 Q1727.29 1482.55 1729.1 1479.01 Q1730.93 1475.44 1730.93 1468.33 Q1730.93 1461.2 1729.1 1457.66 Q1727.29 1454.1 1723.66 1454.1 M1723.66 1450.39 Q1729.47 1450.39 1732.52 1455 Q1735.6 1459.58 1735.6 1468.33 Q1735.6 1477.06 1732.52 1481.67 Q1729.47 1486.25 1723.66 1486.25 Q1717.85 1486.25 1714.77 1481.67 Q1711.71 1477.06 1711.71 1468.33 Q1711.71 1459.58 1714.77 1455 Q1717.85 1450.39 1723.66 1450.39 Z" fill="#000000" fill-rule="evenodd" fill-opacity="1" /><path clip-path="url(#clip090)" d="M1753.82 1454.1 Q1750.21 1454.1 1748.38 1457.66 Q1746.58 1461.2 1746.58 1468.33 Q1746.58 1475.44 1748.38 1479.01 Q1750.21 1482.55 1753.82 1482.55 Q1757.45 1482.55 1759.26 1479.01 Q1761.09 1475.44 1761.09 1468.33 Q1761.09 1461.2 1759.26 1457.66 Q1757.45 1454.1 1753.82 1454.1 M1753.82 1450.39 Q1759.63 1450.39 1762.69 1455 Q1765.77 1459.58 1765.77 1468.33 Q1765.77 1477.06 1762.69 1481.67 Q1759.63 1486.25 1753.82 1486.25 Q1748.01 1486.25 1744.93 1481.67 Q1741.88 1477.06 1741.88 1468.33 Q1741.88 1459.58 1744.93 1455 Q1748.01 1450.39 1753.82 1450.39 Z" fill="#000000" fill-rule="evenodd" fill-opacity="1" /><path clip-path="url(#clip090)" d="M2081.22 1466.95 Q2084.58 1467.66 2086.45 1469.93 Q2088.35 1472.2 2088.35 1475.53 Q2088.35 1480.65 2084.83 1483.45 Q2081.31 1486.25 2074.83 1486.25 Q2072.66 1486.25 2070.34 1485.81 Q2068.05 1485.39 2065.6 1484.54 L2065.6 1480.02 Q2067.54 1481.16 2069.86 1481.74 Q2072.17 1482.32 2074.69 1482.32 Q2079.09 1482.32 2081.38 1480.58 Q2083.7 1478.84 2083.7 1475.53 Q2083.7 1472.48 2081.55 1470.77 Q2079.42 1469.03 2075.6 1469.03 L2071.57 1469.03 L2071.57 1465.19 L2075.78 1465.19 Q2079.23 1465.19 2081.06 1463.82 Q2082.89 1462.43 2082.89 1459.84 Q2082.89 1457.18 2080.99 1455.77 Q2079.11 1454.33 2075.6 1454.33 Q2073.67 1454.33 2071.48 1454.75 Q2069.28 1455.16 2066.64 1456.04 L2066.64 1451.88 Q2069.3 1451.14 2071.61 1450.77 Q2073.95 1450.39 2076.01 1450.39 Q2081.34 1450.39 2084.44 1452.83 Q2087.54 1455.23 2087.54 1459.35 Q2087.54 1462.22 2085.9 1464.21 Q2084.25 1466.18 2081.22 1466.95 Z" fill="#000000" fill-rule="evenodd" fill-opacity="1" /><path clip-path="url(#clip090)" d="M2107.22 1454.1 Q2103.61 1454.1 2101.78 1457.66 Q2099.97 1461.2 2099.97 1468.33 Q2099.97 1475.44 2101.78 1479.01 Q2103.61 1482.55 2107.22 1482.55 Q2110.85 1482.55 2112.66 1479.01 Q2114.48 1475.44 2114.48 1468.33 Q2114.48 1461.2 2112.66 1457.66 Q2110.85 1454.1 2107.22 1454.1 M2107.22 1450.39 Q2113.03 1450.39 2116.08 1455 Q2119.16 1459.58 2119.16 1468.33 Q2119.16 1477.06 2116.08 1481.67 Q2113.03 1486.25 2107.22 1486.25 Q2101.41 1486.25 2098.33 1481.67 Q2095.27 1477.06 2095.27 1468.33 Q2095.27 1459.58 2098.33 1455 Q2101.41 1450.39 2107.22 1450.39 Z" fill="#000000" fill-rule="evenodd" fill-opacity="1" /><path clip-path="url(#clip090)" d="M2137.38 1454.1 Q2133.77 1454.1 2131.94 1457.66 Q2130.13 1461.2 2130.13 1468.33 Q2130.13 1475.44 2131.94 1479.01 Q2133.77 1482.55 2137.38 1482.55 Q2141.01 1482.55 2142.82 1479.01 Q2144.65 1475.44 2144.65 1468.33 Q2144.65 1461.2 2142.82 1457.66 Q2141.01 1454.1 2137.38 1454.1 M2137.38 1450.39 Q2143.19 1450.39 2146.24 1455 Q2149.32 1459.58 2149.32 1468.33 Q2149.32 1477.06 2146.24 1481.67 Q2143.19 1486.25 2137.38 1486.25 Q2131.57 1486.25 2128.49 1481.67 Q2125.43 1477.06 2125.43 1468.33 Q2125.43 1459.58 2128.49 1455 Q2131.57 1450.39 2137.38 1450.39 Z" fill="#000000" fill-rule="evenodd" fill-opacity="1" /><path clip-path="url(#clip090)" d="M2167.54 1454.1 Q2163.93 1454.1 2162.1 1457.66 Q2160.29 1461.2 2160.29 1468.33 Q2160.29 1475.44 2162.1 1479.01 Q2163.93 1482.55 2167.54 1482.55 Q2171.17 1482.55 2172.98 1479.01 Q2174.81 1475.44 2174.81 1468.33 Q2174.81 1461.2 2172.98 1457.66 Q2171.17 1454.1 2167.54 1454.1 M2167.54 1450.39 Q2173.35 1450.39 2176.41 1455 Q2179.48 1459.58 2179.48 1468.33 Q2179.48 1477.06 2176.41 1481.67 Q2173.35 1486.25 2167.54 1486.25 Q2161.73 1486.25 2158.65 1481.67 Q2155.6 1477.06 2155.6 1468.33 Q2155.6 1459.58 2158.65 1455 Q2161.73 1450.39 2167.54 1450.39 Z" fill="#000000" fill-rule="evenodd" fill-opacity="1" /><path clip-path="url(#clip090)" d="M1251.09 1526.86 L1242.37 1550.51 L1259.84 1550.51 L1251.09 1526.86 M1247.46 1520.52 L1254.75 1520.52 L1272.86 1568.04 L1266.17 1568.04 L1261.85 1555.85 L1240.42 1555.85 L1236.1 1568.04 L1229.32 1568.04 L1247.46 1520.52 Z" fill="#000000" fill-rule="evenodd" fill-opacity="1" /><path clip-path="url(#clip090)" d="M1286.23 1525.81 L1286.23 1562.76 L1293.99 1562.76 Q1303.83 1562.76 1308.38 1558.3 Q1312.96 1553.85 1312.96 1544.24 Q1312.96 1534.69 1308.38 1530.26 Q1303.83 1525.81 1293.99 1525.81 L1286.23 1525.81 M1279.8 1520.52 L1293.01 1520.52 Q1306.82 1520.52 1313.28 1526.28 Q1319.74 1532.01 1319.74 1544.24 Q1319.74 1556.52 1313.25 1562.28 Q1306.76 1568.04 1293.01 1568.04 L1279.8 1568.04 L1279.8 1520.52 Z" fill="#000000" fill-rule="evenodd" fill-opacity="1" /><path clip-path="url(#clip090)" d="M1365.57 1524.18 L1365.57 1530.96 Q1362.33 1527.94 1358.64 1526.44 Q1354.98 1524.95 1350.84 1524.95 Q1342.69 1524.95 1338.36 1529.95 Q1334.03 1534.91 1334.03 1544.33 Q1334.03 1553.72 1338.36 1558.72 Q1342.69 1563.68 1350.84 1563.68 Q1354.98 1563.68 1358.64 1562.19 Q1362.33 1560.69 1365.57 1557.67 L1365.57 1564.38 Q1362.2 1566.68 1358.41 1567.82 Q1354.66 1568.97 1350.46 1568.97 Q1339.67 1568.97 1333.46 1562.38 Q1327.25 1555.76 1327.25 1544.33 Q1327.25 1532.87 1333.46 1526.28 Q1339.67 1519.66 1350.46 1519.66 Q1354.72 1519.66 1358.48 1520.81 Q1362.26 1521.92 1365.57 1524.18 Z" fill="#000000" fill-rule="evenodd" fill-opacity="1" /><polyline clip-path="url(#clip092)" style="stroke:#000000; stroke-linecap:butt; stroke-linejoin:round; stroke-width:2; stroke-opacity:0.1; fill:none" points="
  242.135,1386.4 2352.76,1386.4 
  "/>
<polyline clip-path="url(#clip092)" style="stroke:#000000; stroke-linecap:butt; stroke-linejoin:round; stroke-width:2; stroke-opacity:0.1; fill:none" points="
  242.135,1182.04 2352.76,1182.04 
  "/>
<polyline clip-path="url(#clip092)" style="stroke:#000000; stroke-linecap:butt; stroke-linejoin:round; stroke-width:2; stroke-opacity:0.1; fill:none" points="
  242.135,977.683 2352.76,977.683 
  "/>
<polyline clip-path="url(#clip092)" style="stroke:#000000; stroke-linecap:butt; stroke-linejoin:round; stroke-width:2; stroke-opacity:0.1; fill:none" points="
  242.135,773.326 2352.76,773.326 
  "/>
<polyline clip-path="url(#clip092)" style="stroke:#000000; stroke-linecap:butt; stroke-linejoin:round; stroke-width:2; stroke-opacity:0.1; fill:none" points="
  242.135,568.969 2352.76,568.969 
  "/>
<polyline clip-path="url(#clip092)" style="stroke:#000000; stroke-linecap:butt; stroke-linejoin:round; stroke-width:2; stroke-opacity:0.1; fill:none" points="
  242.135,364.613 2352.76,364.613 
  "/>
<polyline clip-path="url(#clip092)" style="stroke:#000000; stroke-linecap:butt; stroke-linejoin:round; stroke-width:2; stroke-opacity:0.1; fill:none" points="
  242.135,160.256 2352.76,160.256 
  "/>
<polyline clip-path="url(#clip090)" style="stroke:#000000; stroke-linecap:butt; stroke-linejoin:round; stroke-width:4; stroke-opacity:1; fill:none" points="
  242.135,1423.18 242.135,123.472 
  "/>
<polyline clip-path="url(#clip090)" style="stroke:#000000; stroke-linecap:butt; stroke-linejoin:round; stroke-width:4; stroke-opacity:1; fill:none" points="
  242.135,1386.4 261.032,1386.4 
  "/>
<polyline clip-path="url(#clip090)" style="stroke:#000000; stroke-linecap:butt; stroke-linejoin:round; stroke-width:4; stroke-opacity:1; fill:none" points="
  242.135,1182.04 261.032,1182.04 
  "/>
<polyline clip-path="url(#clip090)" style="stroke:#000000; stroke-linecap:butt; stroke-linejoin:round; stroke-width:4; stroke-opacity:1; fill:none" points="
  242.135,977.683 261.032,977.683 
  "/>
<polyline clip-path="url(#clip090)" style="stroke:#000000; stroke-linecap:butt; stroke-linejoin:round; stroke-width:4; stroke-opacity:1; fill:none" points="
  242.135,773.326 261.032,773.326 
  "/>
<polyline clip-path="url(#clip090)" style="stroke:#000000; stroke-linecap:butt; stroke-linejoin:round; stroke-width:4; stroke-opacity:1; fill:none" points="
  242.135,568.969 261.032,568.969 
  "/>
<polyline clip-path="url(#clip090)" style="stroke:#000000; stroke-linecap:butt; stroke-linejoin:round; stroke-width:4; stroke-opacity:1; fill:none" points="
  242.135,364.613 261.032,364.613 
  "/>
<polyline clip-path="url(#clip090)" style="stroke:#000000; stroke-linecap:butt; stroke-linejoin:round; stroke-width:4; stroke-opacity:1; fill:none" points="
  242.135,160.256 261.032,160.256 
  "/>
<path clip-path="url(#clip090)" d="M114.26 1386.85 L143.936 1386.85 L143.936 1390.78 L114.26 1390.78 L114.26 1386.85 Z" fill="#000000" fill-rule="evenodd" fill-opacity="1" /><path clip-path="url(#clip090)" d="M164.607 1384.53 Q161.459 1384.53 159.607 1386.69 Q157.778 1388.84 157.778 1392.59 Q157.778 1396.31 159.607 1398.49 Q161.459 1400.64 164.607 1400.64 Q167.755 1400.64 169.584 1398.49 Q171.436 1396.31 171.436 1392.59 Q171.436 1388.84 169.584 1386.69 Q167.755 1384.53 164.607 1384.53 M173.889 1369.88 L173.889 1374.14 Q172.13 1373.31 170.325 1372.87 Q168.542 1372.43 166.783 1372.43 Q162.153 1372.43 159.7 1375.55 Q157.269 1378.68 156.922 1385 Q158.288 1382.98 160.348 1381.92 Q162.408 1380.83 164.885 1380.83 Q170.093 1380.83 173.102 1384 Q176.135 1387.15 176.135 1392.59 Q176.135 1397.91 172.987 1401.13 Q169.839 1404.35 164.607 1404.35 Q158.612 1404.35 155.44 1399.76 Q152.269 1395.16 152.269 1386.43 Q152.269 1378.24 156.158 1373.37 Q160.047 1368.49 166.598 1368.49 Q168.357 1368.49 170.139 1368.84 Q171.945 1369.19 173.889 1369.88 Z" fill="#000000" fill-rule="evenodd" fill-opacity="1" /><path clip-path="url(#clip090)" d="M194.19 1372.19 Q190.579 1372.19 188.75 1375.76 Q186.945 1379.3 186.945 1386.43 Q186.945 1393.54 188.75 1397.1 Q190.579 1400.64 194.19 1400.64 Q197.825 1400.64 199.63 1397.1 Q201.459 1393.54 201.459 1386.43 Q201.459 1379.3 199.63 1375.76 Q197.825 1372.19 194.19 1372.19 M194.19 1368.49 Q200 1368.49 203.056 1373.1 Q206.135 1377.68 206.135 1386.43 Q206.135 1395.16 203.056 1399.76 Q200 1404.35 194.19 1404.35 Q188.38 1404.35 185.301 1399.76 Q182.246 1395.16 182.246 1386.43 Q182.246 1377.68 185.301 1373.1 Q188.38 1368.49 194.19 1368.49 Z" fill="#000000" fill-rule="evenodd" fill-opacity="1" /><path clip-path="url(#clip090)" d="M114.26 1182.49 L143.936 1182.49 L143.936 1186.43 L114.26 1186.43 L114.26 1182.49 Z" fill="#000000" fill-rule="evenodd" fill-opacity="1" /><path clip-path="url(#clip090)" d="M154.075 1164.76 L172.431 1164.76 L172.431 1168.69 L158.357 1168.69 L158.357 1177.17 Q159.376 1176.82 160.394 1176.66 Q161.413 1176.47 162.431 1176.47 Q168.218 1176.47 171.598 1179.64 Q174.977 1182.81 174.977 1188.23 Q174.977 1193.81 171.505 1196.91 Q168.033 1199.99 161.714 1199.99 Q159.538 1199.99 157.269 1199.62 Q155.024 1199.25 152.616 1198.51 L152.616 1193.81 Q154.7 1194.94 156.922 1195.5 Q159.144 1196.06 161.621 1196.06 Q165.626 1196.06 167.964 1193.95 Q170.302 1191.84 170.302 1188.23 Q170.302 1184.62 167.964 1182.51 Q165.626 1180.41 161.621 1180.41 Q159.746 1180.41 157.871 1180.82 Q156.019 1181.24 154.075 1182.12 L154.075 1164.76 Z" fill="#000000" fill-rule="evenodd" fill-opacity="1" /><path clip-path="url(#clip090)" d="M194.19 1167.84 Q190.579 1167.84 188.75 1171.4 Q186.945 1174.94 186.945 1182.07 Q186.945 1189.18 188.75 1192.75 Q190.579 1196.29 194.19 1196.29 Q197.825 1196.29 199.63 1192.75 Q201.459 1189.18 201.459 1182.07 Q201.459 1174.94 199.63 1171.4 Q197.825 1167.84 194.19 1167.84 M194.19 1164.13 Q200 1164.13 203.056 1168.74 Q206.135 1173.32 206.135 1182.07 Q206.135 1190.8 203.056 1195.41 Q200 1199.99 194.19 1199.99 Q188.38 1199.99 185.301 1195.41 Q182.246 1190.8 182.246 1182.07 Q182.246 1173.32 185.301 1168.74 Q188.38 1164.13 194.19 1164.13 Z" fill="#000000" fill-rule="evenodd" fill-opacity="1" /><path clip-path="url(#clip090)" d="M114.26 978.134 L143.936 978.134 L143.936 982.069 L114.26 982.069 L114.26 978.134 Z" fill="#000000" fill-rule="evenodd" fill-opacity="1" /><path clip-path="url(#clip090)" d="M166.876 964.477 L155.07 982.926 L166.876 982.926 L166.876 964.477 M165.649 960.403 L171.528 960.403 L171.528 982.926 L176.459 982.926 L176.459 986.814 L171.528 986.814 L171.528 994.963 L166.876 994.963 L166.876 986.814 L151.274 986.814 L151.274 982.301 L165.649 960.403 Z" fill="#000000" fill-rule="evenodd" fill-opacity="1" /><path clip-path="url(#clip090)" d="M194.19 963.481 Q190.579 963.481 188.75 967.046 Q186.945 970.588 186.945 977.717 Q186.945 984.824 188.75 988.389 Q190.579 991.93 194.19 991.93 Q197.825 991.93 199.63 988.389 Q201.459 984.824 201.459 977.717 Q201.459 970.588 199.63 967.046 Q197.825 963.481 194.19 963.481 M194.19 959.778 Q200 959.778 203.056 964.384 Q206.135 968.967 206.135 977.717 Q206.135 986.444 203.056 991.051 Q200 995.634 194.19 995.634 Q188.38 995.634 185.301 991.051 Q182.246 986.444 182.246 977.717 Q182.246 968.967 185.301 964.384 Q188.38 959.778 194.19 959.778 Z" fill="#000000" fill-rule="evenodd" fill-opacity="1" /><path clip-path="url(#clip090)" d="M114.26 773.777 L143.936 773.777 L143.936 777.713 L114.26 777.713 L114.26 773.777 Z" fill="#000000" fill-rule="evenodd" fill-opacity="1" /><path clip-path="url(#clip090)" d="M168.195 771.972 Q171.552 772.689 173.427 774.958 Q175.325 777.226 175.325 780.56 Q175.325 785.675 171.806 788.476 Q168.288 791.277 161.806 791.277 Q159.63 791.277 157.315 790.837 Q155.024 790.421 152.57 789.564 L152.57 785.05 Q154.515 786.185 156.829 786.763 Q159.144 787.342 161.667 787.342 Q166.065 787.342 168.357 785.606 Q170.672 783.87 170.672 780.56 Q170.672 777.504 168.519 775.791 Q166.39 774.055 162.57 774.055 L158.542 774.055 L158.542 770.213 L162.755 770.213 Q166.204 770.213 168.033 768.847 Q169.862 767.458 169.862 764.865 Q169.862 762.203 167.964 760.791 Q166.089 759.356 162.57 759.356 Q160.649 759.356 158.45 759.773 Q156.251 760.189 153.612 761.069 L153.612 756.902 Q156.274 756.162 158.589 755.791 Q160.927 755.421 162.987 755.421 Q168.311 755.421 171.413 757.852 Q174.514 760.259 174.514 764.379 Q174.514 767.25 172.871 769.24 Q171.227 771.208 168.195 771.972 Z" fill="#000000" fill-rule="evenodd" fill-opacity="1" /><path clip-path="url(#clip090)" d="M194.19 759.125 Q190.579 759.125 188.75 762.689 Q186.945 766.231 186.945 773.361 Q186.945 780.467 188.75 784.032 Q190.579 787.574 194.19 787.574 Q197.825 787.574 199.63 784.032 Q201.459 780.467 201.459 773.361 Q201.459 766.231 199.63 762.689 Q197.825 759.125 194.19 759.125 M194.19 755.421 Q200 755.421 203.056 760.027 Q206.135 764.611 206.135 773.361 Q206.135 782.088 203.056 786.694 Q200 791.277 194.19 791.277 Q188.38 791.277 185.301 786.694 Q182.246 782.088 182.246 773.361 Q182.246 764.611 185.301 760.027 Q188.38 755.421 194.19 755.421 Z" fill="#000000" fill-rule="evenodd" fill-opacity="1" /><path clip-path="url(#clip090)" d="M114.26 569.421 L143.936 569.421 L143.936 573.356 L114.26 573.356 L114.26 569.421 Z" fill="#000000" fill-rule="evenodd" fill-opacity="1" /><path clip-path="url(#clip090)" d="M158.056 582.314 L174.376 582.314 L174.376 586.249 L152.431 586.249 L152.431 582.314 Q155.093 579.56 159.677 574.93 Q164.283 570.277 165.464 568.935 Q167.709 566.412 168.589 564.675 Q169.491 562.916 169.491 561.226 Q169.491 558.472 167.547 556.736 Q165.626 555 162.524 555 Q160.325 555 157.871 555.763 Q155.44 556.527 152.663 558.078 L152.663 553.356 Q155.487 552.222 157.94 551.643 Q160.394 551.064 162.431 551.064 Q167.802 551.064 170.996 553.75 Q174.19 556.435 174.19 560.925 Q174.19 563.055 173.38 564.976 Q172.593 566.875 170.487 569.467 Q169.908 570.138 166.806 573.356 Q163.704 576.55 158.056 582.314 Z" fill="#000000" fill-rule="evenodd" fill-opacity="1" /><path clip-path="url(#clip090)" d="M194.19 554.768 Q190.579 554.768 188.75 558.333 Q186.945 561.875 186.945 569.004 Q186.945 576.111 188.75 579.675 Q190.579 583.217 194.19 583.217 Q197.825 583.217 199.63 579.675 Q201.459 576.111 201.459 569.004 Q201.459 561.875 199.63 558.333 Q197.825 554.768 194.19 554.768 M194.19 551.064 Q200 551.064 203.056 555.671 Q206.135 560.254 206.135 569.004 Q206.135 577.731 203.056 582.337 Q200 586.921 194.19 586.921 Q188.38 586.921 185.301 582.337 Q182.246 577.731 182.246 569.004 Q182.246 560.254 185.301 555.671 Q188.38 551.064 194.19 551.064 Z" fill="#000000" fill-rule="evenodd" fill-opacity="1" /><path clip-path="url(#clip090)" d="M114.26 365.064 L143.936 365.064 L143.936 368.999 L114.26 368.999 L114.26 365.064 Z" fill="#000000" fill-rule="evenodd" fill-opacity="1" /><path clip-path="url(#clip090)" d="M154.839 377.958 L162.477 377.958 L162.477 351.592 L154.167 353.259 L154.167 349 L162.431 347.333 L167.107 347.333 L167.107 377.958 L174.746 377.958 L174.746 381.893 L154.839 381.893 L154.839 377.958 Z" fill="#000000" fill-rule="evenodd" fill-opacity="1" /><path clip-path="url(#clip090)" d="M194.19 350.412 Q190.579 350.412 188.75 353.976 Q186.945 357.518 186.945 364.648 Q186.945 371.754 188.75 375.319 Q190.579 378.86 194.19 378.86 Q197.825 378.86 199.63 375.319 Q201.459 371.754 201.459 364.648 Q201.459 357.518 199.63 353.976 Q197.825 350.412 194.19 350.412 M194.19 346.708 Q200 346.708 203.056 351.314 Q206.135 355.898 206.135 364.648 Q206.135 373.374 203.056 377.981 Q200 382.564 194.19 382.564 Q188.38 382.564 185.301 377.981 Q182.246 373.374 182.246 364.648 Q182.246 355.898 185.301 351.314 Q188.38 346.708 194.19 346.708 Z" fill="#000000" fill-rule="evenodd" fill-opacity="1" /><path clip-path="url(#clip090)" d="M194.19 146.055 Q190.579 146.055 188.75 149.62 Q186.945 153.161 186.945 160.291 Q186.945 167.397 188.75 170.962 Q190.579 174.504 194.19 174.504 Q197.825 174.504 199.63 170.962 Q201.459 167.397 201.459 160.291 Q201.459 153.161 199.63 149.62 Q197.825 146.055 194.19 146.055 M194.19 142.351 Q200 142.351 203.056 146.958 Q206.135 151.541 206.135 160.291 Q206.135 169.018 203.056 173.624 Q200 178.208 194.19 178.208 Q188.38 178.208 185.301 173.624 Q182.246 169.018 182.246 160.291 Q182.246 151.541 185.301 146.958 Q188.38 142.351 194.19 142.351 Z" fill="#000000" fill-rule="evenodd" fill-opacity="1" /><path clip-path="url(#clip090)" d="M33.7671 817.552 L14.479 817.552 L14.479 811.695 L64.0042 811.695 L64.0042 817.552 L58.657 817.552 Q61.8398 819.398 63.3994 822.231 Q64.9272 825.031 64.9272 828.978 Q64.9272 835.439 59.771 839.513 Q54.6147 843.556 46.212 843.556 Q37.8093 843.556 32.6531 839.513 Q27.4968 835.439 27.4968 828.978 Q27.4968 825.031 29.0564 822.231 Q30.5842 819.398 33.7671 817.552 M46.212 837.508 Q52.6732 837.508 56.3653 834.866 Q60.0256 832.193 60.0256 827.546 Q60.0256 822.899 56.3653 820.225 Q52.6732 817.552 46.212 817.552 Q39.7508 817.552 36.0905 820.225 Q32.3984 822.899 32.3984 827.546 Q32.3984 832.193 36.0905 834.866 Q39.7508 837.508 46.212 837.508 Z" fill="#000000" fill-rule="evenodd" fill-opacity="1" /><path clip-path="url(#clip090)" d="M41.3104 792.948 L58.7206 792.948 L58.7206 782.636 Q58.7206 777.448 56.5881 774.965 Q54.4238 772.451 49.9996 772.451 Q45.5436 772.451 43.4429 774.965 Q41.3104 777.448 41.3104 782.636 L41.3104 792.948 M21.7677 792.948 L36.0905 792.948 L36.0905 783.432 Q36.0905 778.721 34.34 776.429 Q32.5576 774.106 28.9291 774.106 Q25.3325 774.106 23.5501 776.429 Q21.7677 778.721 21.7677 783.432 L21.7677 792.948 M16.4842 799.378 L16.4842 782.954 Q16.4842 775.602 19.5397 771.623 Q22.5952 767.645 28.2289 767.645 Q32.5894 767.645 35.1675 769.682 Q37.7456 771.719 38.3822 775.665 Q39.4007 770.923 42.6472 768.313 Q45.8619 765.671 50.6998 765.671 Q57.0655 765.671 60.5348 770 Q64.0042 774.329 64.0042 782.318 L64.0042 799.378 L16.4842 799.378 Z" fill="#000000" fill-rule="evenodd" fill-opacity="1" /><path clip-path="url(#clip090)" d="M35.1993 727.159 Q31.2526 724.963 29.3747 721.907 Q27.4968 718.851 27.4968 714.714 Q27.4968 709.144 31.4117 706.12 Q35.2948 703.096 42.4881 703.096 L64.0042 703.096 L64.0042 708.985 L42.679 708.985 Q37.5546 708.985 35.072 710.799 Q32.5894 712.613 32.5894 716.337 Q32.5894 720.888 35.6131 723.53 Q38.6368 726.172 43.8567 726.172 L64.0042 726.172 L64.0042 732.06 L42.679 732.06 Q37.5228 732.06 35.072 733.875 Q32.5894 735.689 32.5894 739.476 Q32.5894 743.964 35.6449 746.606 Q38.6686 749.248 43.8567 749.248 L64.0042 749.248 L64.0042 755.136 L28.3562 755.136 L28.3562 749.248 L33.8944 749.248 Q30.616 747.243 29.0564 744.442 Q27.4968 741.641 27.4968 737.789 Q27.4968 733.906 29.4702 731.201 Q31.4436 728.464 35.1993 727.159 Z" fill="#000000" fill-rule="evenodd" fill-opacity="1" /><path clip-path="url(#clip090)" d="M1107.52 65.6895 L1136.08 65.6895 L1136.08 72.576 L1097.67 72.576 L1097.67 65.6895 Q1102.33 60.8689 1110.35 52.7671 Q1118.42 44.6248 1120.48 42.2752 Q1124.41 37.8598 1125.95 34.8216 Q1127.53 31.7429 1127.53 28.7857 Q1127.53 23.9651 1124.13 20.927 Q1120.77 17.8888 1115.34 17.8888 Q1111.49 17.8888 1107.19 19.2256 Q1102.94 20.5624 1098.08 23.2765 L1098.08 15.0127 Q1103.02 13.0277 1107.32 12.015 Q1111.61 11.0023 1115.17 11.0023 Q1124.57 11.0023 1130.16 15.7013 Q1135.75 20.4004 1135.75 28.2591 Q1135.75 31.9859 1134.34 35.3482 Q1132.96 38.6699 1129.27 43.2069 Q1128.26 44.3817 1122.83 50.0125 Q1117.4 55.6027 1107.52 65.6895 Z" fill="#000000" fill-rule="evenodd" fill-opacity="1" /><path clip-path="url(#clip090)" d="M1189.91 45.1919 L1189.91 72.576 L1182.46 72.576 L1182.46 45.4349 Q1182.46 38.994 1179.95 35.7938 Q1177.44 32.5936 1172.41 32.5936 Q1166.38 32.5936 1162.89 36.4419 Q1159.41 40.2903 1159.41 46.9338 L1159.41 72.576 L1151.92 72.576 L1151.92 27.2059 L1159.41 27.2059 L1159.41 34.2544 Q1162.08 30.163 1165.69 28.1376 Q1169.34 26.1121 1174.07 26.1121 Q1181.89 26.1121 1185.9 30.9732 Q1189.91 35.7938 1189.91 45.1919 Z" fill="#000000" fill-rule="evenodd" fill-opacity="1" /><path clip-path="url(#clip090)" d="M1234.64 34.0924 L1234.64 9.54393 L1242.09 9.54393 L1242.09 72.576 L1234.64 72.576 L1234.64 65.7705 Q1232.29 69.8214 1228.68 71.8063 Q1225.12 73.7508 1220.09 73.7508 Q1211.87 73.7508 1206.68 67.1883 Q1201.54 60.6258 1201.54 49.9314 Q1201.54 39.2371 1206.68 32.6746 Q1211.87 26.1121 1220.09 26.1121 Q1225.12 26.1121 1228.68 28.0971 Q1232.29 30.0415 1234.64 34.0924 M1209.24 49.9314 Q1209.24 58.1548 1212.6 62.8538 Q1216 67.5124 1221.92 67.5124 Q1227.83 67.5124 1231.23 62.8538 Q1234.64 58.1548 1234.64 49.9314 Q1234.64 41.7081 1231.23 37.0496 Q1227.83 32.3505 1221.92 32.3505 Q1216 32.3505 1212.6 37.0496 Q1209.24 41.7081 1209.24 49.9314 Z" fill="#000000" fill-rule="evenodd" fill-opacity="1" /><path clip-path="url(#clip090)" d="M1301.39 32.4315 Q1295.4 32.4315 1291.92 37.1306 Q1288.43 41.7891 1288.43 49.9314 Q1288.43 58.0738 1291.88 62.7728 Q1295.36 67.4314 1301.39 67.4314 Q1307.35 67.4314 1310.83 62.7323 Q1314.32 58.0333 1314.32 49.9314 Q1314.32 41.8701 1310.83 37.1711 Q1307.35 32.4315 1301.39 32.4315 M1301.39 26.1121 Q1311.12 26.1121 1316.67 32.4315 Q1322.22 38.7509 1322.22 49.9314 Q1322.22 61.0714 1316.67 67.4314 Q1311.12 73.7508 1301.39 73.7508 Q1291.63 73.7508 1286.08 67.4314 Q1280.57 61.0714 1280.57 49.9314 Q1280.57 38.7509 1286.08 32.4315 Q1291.63 26.1121 1301.39 26.1121 Z" fill="#000000" fill-rule="evenodd" fill-opacity="1" /><path clip-path="url(#clip090)" d="M1360.86 34.1734 Q1359.61 33.4443 1358.11 33.1202 Q1356.65 32.7556 1354.87 32.7556 Q1348.55 32.7556 1345.14 36.8875 Q1341.78 40.9789 1341.78 48.6757 L1341.78 72.576 L1334.29 72.576 L1334.29 27.2059 L1341.78 27.2059 L1341.78 34.2544 Q1344.13 30.1225 1347.9 28.1376 Q1351.67 26.1121 1357.05 26.1121 Q1357.82 26.1121 1358.76 26.2337 Q1359.69 26.3147 1360.82 26.5172 L1360.86 34.1734 Z" fill="#000000" fill-rule="evenodd" fill-opacity="1" /><path clip-path="url(#clip090)" d="M1397.08 34.0924 L1397.08 9.54393 L1404.53 9.54393 L1404.53 72.576 L1397.08 72.576 L1397.08 65.7705 Q1394.73 69.8214 1391.12 71.8063 Q1387.56 73.7508 1382.53 73.7508 Q1374.31 73.7508 1369.13 67.1883 Q1363.98 60.6258 1363.98 49.9314 Q1363.98 39.2371 1369.13 32.6746 Q1374.31 26.1121 1382.53 26.1121 Q1387.56 26.1121 1391.12 28.0971 Q1394.73 30.0415 1397.08 34.0924 M1371.68 49.9314 Q1371.68 58.1548 1375.04 62.8538 Q1378.44 67.5124 1384.36 67.5124 Q1390.27 67.5124 1393.67 62.8538 Q1397.08 58.1548 1397.08 49.9314 Q1397.08 41.7081 1393.67 37.0496 Q1390.27 32.3505 1384.36 32.3505 Q1378.44 32.3505 1375.04 37.0496 Q1371.68 41.7081 1371.68 49.9314 Z" fill="#000000" fill-rule="evenodd" fill-opacity="1" /><path clip-path="url(#clip090)" d="M1458.69 48.0275 L1458.69 51.6733 L1424.42 51.6733 Q1424.91 59.3701 1429.04 63.421 Q1433.21 67.4314 1440.62 67.4314 Q1444.92 67.4314 1448.93 66.3781 Q1452.98 65.3249 1456.95 63.2184 L1456.95 70.267 Q1452.94 71.9684 1448.73 72.8596 Q1444.51 73.7508 1440.18 73.7508 Q1429.32 73.7508 1422.96 67.4314 Q1416.64 61.1119 1416.64 50.3365 Q1416.64 39.1965 1422.64 32.6746 Q1428.67 26.1121 1438.88 26.1121 Q1448.04 26.1121 1453.34 32.0264 Q1458.69 37.9003 1458.69 48.0275 M1451.24 45.84 Q1451.16 39.7232 1447.79 36.0774 Q1444.47 32.4315 1438.96 32.4315 Q1432.73 32.4315 1428.96 35.9558 Q1425.23 39.4801 1424.66 45.8805 L1451.24 45.84 Z" fill="#000000" fill-rule="evenodd" fill-opacity="1" /><path clip-path="url(#clip090)" d="M1497.22 34.1734 Q1495.96 33.4443 1494.46 33.1202 Q1493 32.7556 1491.22 32.7556 Q1484.9 32.7556 1481.5 36.8875 Q1478.14 40.9789 1478.14 48.6757 L1478.14 72.576 L1470.64 72.576 L1470.64 27.2059 L1478.14 27.2059 L1478.14 34.2544 Q1480.49 30.1225 1484.25 28.1376 Q1488.02 26.1121 1493.41 26.1121 Q1494.18 26.1121 1495.11 26.2337 Q1496.04 26.3147 1497.18 26.5172 L1497.22 34.1734 Z" fill="#000000" fill-rule="evenodd" fill-opacity="1" /><circle clip-path="url(#clip092)" cx="301.869" cy="160.256" r="14" fill="#009af9" fill-rule="evenodd" fill-opacity="1" stroke="#000000" stroke-opacity="1" stroke-width="3.2"/>
<circle clip-path="url(#clip092)" cx="315.938" cy="180.692" r="14" fill="#009af9" fill-rule="evenodd" fill-opacity="1" stroke="#000000" stroke-opacity="1" stroke-width="3.2"/>
<circle clip-path="url(#clip092)" cx="339.938" cy="201.128" r="14" fill="#009af9" fill-rule="evenodd" fill-opacity="1" stroke="#000000" stroke-opacity="1" stroke-width="3.2"/>
<circle clip-path="url(#clip092)" cx="358.972" cy="221.563" r="14" fill="#009af9" fill-rule="evenodd" fill-opacity="1" stroke="#000000" stroke-opacity="1" stroke-width="3.2"/>
<circle clip-path="url(#clip092)" cx="385.455" cy="241.999" r="14" fill="#009af9" fill-rule="evenodd" fill-opacity="1" stroke="#000000" stroke-opacity="1" stroke-width="3.2"/>
<circle clip-path="url(#clip092)" cx="416.075" cy="262.435" r="14" fill="#009af9" fill-rule="evenodd" fill-opacity="1" stroke="#000000" stroke-opacity="1" stroke-width="3.2"/>
<circle clip-path="url(#clip092)" cx="451.661" cy="282.87" r="14" fill="#009af9" fill-rule="evenodd" fill-opacity="1" stroke="#000000" stroke-opacity="1" stroke-width="3.2"/>
<circle clip-path="url(#clip092)" cx="482.281" cy="303.306" r="14" fill="#009af9" fill-rule="evenodd" fill-opacity="1" stroke="#000000" stroke-opacity="1" stroke-width="3.2"/>
<circle clip-path="url(#clip092)" cx="517.039" cy="323.742" r="14" fill="#009af9" fill-rule="evenodd" fill-opacity="1" stroke="#000000" stroke-opacity="1" stroke-width="3.2"/>
<circle clip-path="url(#clip092)" cx="548.487" cy="344.177" r="14" fill="#009af9" fill-rule="evenodd" fill-opacity="1" stroke="#000000" stroke-opacity="1" stroke-width="3.2"/>
<circle clip-path="url(#clip092)" cx="581.591" cy="364.613" r="14" fill="#009af9" fill-rule="evenodd" fill-opacity="1" stroke="#000000" stroke-opacity="1" stroke-width="3.2"/>
<circle clip-path="url(#clip092)" cx="633.728" cy="385.049" r="14" fill="#009af9" fill-rule="evenodd" fill-opacity="1" stroke="#000000" stroke-opacity="1" stroke-width="3.2"/>
<circle clip-path="url(#clip092)" cx="670.141" cy="405.484" r="14" fill="#009af9" fill-rule="evenodd" fill-opacity="1" stroke="#000000" stroke-opacity="1" stroke-width="3.2"/>
<circle clip-path="url(#clip092)" cx="702.417" cy="425.92" r="14" fill="#009af9" fill-rule="evenodd" fill-opacity="1" stroke="#000000" stroke-opacity="1" stroke-width="3.2"/>
<circle clip-path="url(#clip092)" cx="733.865" cy="446.355" r="14" fill="#009af9" fill-rule="evenodd" fill-opacity="1" stroke="#000000" stroke-opacity="1" stroke-width="3.2"/>
<circle clip-path="url(#clip092)" cx="769.451" cy="466.791" r="14" fill="#009af9" fill-rule="evenodd" fill-opacity="1" stroke="#000000" stroke-opacity="1" stroke-width="3.2"/>
<circle clip-path="url(#clip092)" cx="799.243" cy="487.227" r="14" fill="#009af9" fill-rule="evenodd" fill-opacity="1" stroke="#000000" stroke-opacity="1" stroke-width="3.2"/>
<circle clip-path="url(#clip092)" cx="837.312" cy="507.662" r="14" fill="#009af9" fill-rule="evenodd" fill-opacity="1" stroke="#000000" stroke-opacity="1" stroke-width="3.2"/>
<circle clip-path="url(#clip092)" cx="871.243" cy="528.098" r="14" fill="#009af9" fill-rule="evenodd" fill-opacity="1" stroke="#000000" stroke-opacity="1" stroke-width="3.2"/>
<circle clip-path="url(#clip092)" cx="902.691" cy="548.534" r="14" fill="#009af9" fill-rule="evenodd" fill-opacity="1" stroke="#000000" stroke-opacity="1" stroke-width="3.2"/>
<circle clip-path="url(#clip092)" cx="949.863" cy="568.969" r="14" fill="#009af9" fill-rule="evenodd" fill-opacity="1" stroke="#000000" stroke-opacity="1" stroke-width="3.2"/>
<circle clip-path="url(#clip092)" cx="980.483" cy="589.405" r="14" fill="#009af9" fill-rule="evenodd" fill-opacity="1" stroke="#000000" stroke-opacity="1" stroke-width="3.2"/>
<circle clip-path="url(#clip092)" cx="1014.41" cy="609.841" r="14" fill="#009af9" fill-rule="evenodd" fill-opacity="1" stroke="#000000" stroke-opacity="1" stroke-width="3.2"/>
<circle clip-path="url(#clip092)" cx="1045.03" cy="630.276" r="14" fill="#009af9" fill-rule="evenodd" fill-opacity="1" stroke="#000000" stroke-opacity="1" stroke-width="3.2"/>
<circle clip-path="url(#clip092)" cx="1074" cy="650.712" r="14" fill="#009af9" fill-rule="evenodd" fill-opacity="1" stroke="#000000" stroke-opacity="1" stroke-width="3.2"/>
<circle clip-path="url(#clip092)" cx="1110.41" cy="671.148" r="14" fill="#009af9" fill-rule="evenodd" fill-opacity="1" stroke="#000000" stroke-opacity="1" stroke-width="3.2"/>
<circle clip-path="url(#clip092)" cx="1138.55" cy="691.583" r="14" fill="#009af9" fill-rule="evenodd" fill-opacity="1" stroke="#000000" stroke-opacity="1" stroke-width="3.2"/>
<circle clip-path="url(#clip092)" cx="1176.62" cy="712.019" r="14" fill="#009af9" fill-rule="evenodd" fill-opacity="1" stroke="#000000" stroke-opacity="1" stroke-width="3.2"/>
<circle clip-path="url(#clip092)" cx="1211.38" cy="732.455" r="14" fill="#009af9" fill-rule="evenodd" fill-opacity="1" stroke="#000000" stroke-opacity="1" stroke-width="3.2"/>
<circle clip-path="url(#clip092)" cx="1242.83" cy="752.89" r="14" fill="#009af9" fill-rule="evenodd" fill-opacity="1" stroke="#000000" stroke-opacity="1" stroke-width="3.2"/>
<circle clip-path="url(#clip092)" cx="1292.48" cy="773.326" r="14" fill="#009af9" fill-rule="evenodd" fill-opacity="1" stroke="#000000" stroke-opacity="1" stroke-width="3.2"/>
<circle clip-path="url(#clip092)" cx="1323.93" cy="793.762" r="14" fill="#009af9" fill-rule="evenodd" fill-opacity="1" stroke="#000000" stroke-opacity="1" stroke-width="3.2"/>
<circle clip-path="url(#clip092)" cx="1362" cy="814.197" r="14" fill="#009af9" fill-rule="evenodd" fill-opacity="1" stroke="#000000" stroke-opacity="1" stroke-width="3.2"/>
<circle clip-path="url(#clip092)" cx="1396.75" cy="834.633" r="14" fill="#009af9" fill-rule="evenodd" fill-opacity="1" stroke="#000000" stroke-opacity="1" stroke-width="3.2"/>
<circle clip-path="url(#clip092)" cx="1433.17" cy="855.069" r="14" fill="#009af9" fill-rule="evenodd" fill-opacity="1" stroke="#000000" stroke-opacity="1" stroke-width="3.2"/>
<circle clip-path="url(#clip092)" cx="1474.55" cy="875.504" r="14" fill="#009af9" fill-rule="evenodd" fill-opacity="1" stroke="#000000" stroke-opacity="1" stroke-width="3.2"/>
<circle clip-path="url(#clip092)" cx="1521.72" cy="895.94" r="14" fill="#009af9" fill-rule="evenodd" fill-opacity="1" stroke="#000000" stroke-opacity="1" stroke-width="3.2"/>
<circle clip-path="url(#clip092)" cx="1564.75" cy="916.376" r="14" fill="#009af9" fill-rule="evenodd" fill-opacity="1" stroke="#000000" stroke-opacity="1" stroke-width="3.2"/>
<circle clip-path="url(#clip092)" cx="1616.89" cy="936.811" r="14" fill="#009af9" fill-rule="evenodd" fill-opacity="1" stroke="#000000" stroke-opacity="1" stroke-width="3.2"/>
<circle clip-path="url(#clip092)" cx="1669.03" cy="957.247" r="14" fill="#009af9" fill-rule="evenodd" fill-opacity="1" stroke="#000000" stroke-opacity="1" stroke-width="3.2"/>
<circle clip-path="url(#clip092)" cx="1726.96" cy="977.683" r="14" fill="#009af9" fill-rule="evenodd" fill-opacity="1" stroke="#000000" stroke-opacity="1" stroke-width="3.2"/>
<circle clip-path="url(#clip092)" cx="1793.99" cy="998.118" r="14" fill="#009af9" fill-rule="evenodd" fill-opacity="1" stroke="#000000" stroke-opacity="1" stroke-width="3.2"/>
<circle clip-path="url(#clip092)" cx="1835.37" cy="1018.55" r="14" fill="#009af9" fill-rule="evenodd" fill-opacity="1" stroke="#000000" stroke-opacity="1" stroke-width="3.2"/>
<circle clip-path="url(#clip092)" cx="1863.51" cy="1038.99" r="14" fill="#009af9" fill-rule="evenodd" fill-opacity="1" stroke="#000000" stroke-opacity="1" stroke-width="3.2"/>
<circle clip-path="url(#clip092)" cx="1887.51" cy="1059.43" r="14" fill="#009af9" fill-rule="evenodd" fill-opacity="1" stroke="#000000" stroke-opacity="1" stroke-width="3.2"/>
<circle clip-path="url(#clip092)" cx="1920.61" cy="1079.86" r="14" fill="#009af9" fill-rule="evenodd" fill-opacity="1" stroke="#000000" stroke-opacity="1" stroke-width="3.2"/>
<circle clip-path="url(#clip092)" cx="1942.96" cy="1100.3" r="14" fill="#009af9" fill-rule="evenodd" fill-opacity="1" stroke="#000000" stroke-opacity="1" stroke-width="3.2"/>
<circle clip-path="url(#clip092)" cx="1978.54" cy="1120.73" r="14" fill="#009af9" fill-rule="evenodd" fill-opacity="1" stroke="#000000" stroke-opacity="1" stroke-width="3.2"/>
<circle clip-path="url(#clip092)" cx="1994.27" cy="1141.17" r="14" fill="#009af9" fill-rule="evenodd" fill-opacity="1" stroke="#000000" stroke-opacity="1" stroke-width="3.2"/>
<circle clip-path="url(#clip092)" cx="2022.4" cy="1161.6" r="14" fill="#009af9" fill-rule="evenodd" fill-opacity="1" stroke="#000000" stroke-opacity="1" stroke-width="3.2"/>
<circle clip-path="url(#clip092)" cx="2046.4" cy="1182.04" r="14" fill="#009af9" fill-rule="evenodd" fill-opacity="1" stroke="#000000" stroke-opacity="1" stroke-width="3.2"/>
<circle clip-path="url(#clip092)" cx="2072.89" cy="1202.47" r="14" fill="#009af9" fill-rule="evenodd" fill-opacity="1" stroke="#000000" stroke-opacity="1" stroke-width="3.2"/>
<circle clip-path="url(#clip092)" cx="2097.71" cy="1222.91" r="14" fill="#009af9" fill-rule="evenodd" fill-opacity="1" stroke="#000000" stroke-opacity="1" stroke-width="3.2"/>
<circle clip-path="url(#clip092)" cx="2115.92" cy="1243.35" r="14" fill="#009af9" fill-rule="evenodd" fill-opacity="1" stroke="#000000" stroke-opacity="1" stroke-width="3.2"/>
<circle clip-path="url(#clip092)" cx="2134.13" cy="1263.78" r="14" fill="#009af9" fill-rule="evenodd" fill-opacity="1" stroke="#000000" stroke-opacity="1" stroke-width="3.2"/>
<circle clip-path="url(#clip092)" cx="2162.26" cy="1284.22" r="14" fill="#009af9" fill-rule="evenodd" fill-opacity="1" stroke="#000000" stroke-opacity="1" stroke-width="3.2"/>
<circle clip-path="url(#clip092)" cx="2181.3" cy="1304.65" r="14" fill="#009af9" fill-rule="evenodd" fill-opacity="1" stroke="#000000" stroke-opacity="1" stroke-width="3.2"/>
<circle clip-path="url(#clip092)" cx="2207.78" cy="1325.09" r="14" fill="#009af9" fill-rule="evenodd" fill-opacity="1" stroke="#000000" stroke-opacity="1" stroke-width="3.2"/>
<circle clip-path="url(#clip092)" cx="2232.61" cy="1345.52" r="14" fill="#009af9" fill-rule="evenodd" fill-opacity="1" stroke="#000000" stroke-opacity="1" stroke-width="3.2"/>
<circle clip-path="url(#clip092)" cx="2258.26" cy="1365.96" r="14" fill="#009af9" fill-rule="evenodd" fill-opacity="1" stroke="#000000" stroke-opacity="1" stroke-width="3.2"/>
<circle clip-path="url(#clip092)" cx="2293.02" cy="1386.4" r="14" fill="#009af9" fill-rule="evenodd" fill-opacity="1" stroke="#000000" stroke-opacity="1" stroke-width="3.2"/>
<polyline clip-path="url(#clip092)" style="stroke:#e26f46; stroke-linecap:butt; stroke-linejoin:round; stroke-width:4; stroke-opacity:1; fill:none" points="
  301.869,197.657 303.862,198.779 305.856,199.901 307.849,201.024 309.842,202.146 311.835,203.268 313.828,204.39 315.821,205.512 317.814,206.635 319.808,207.757 
  321.801,208.879 323.794,210.002 325.787,211.124 327.78,212.247 329.773,213.369 331.766,214.492 333.76,215.614 335.753,216.737 337.746,217.86 339.739,218.982 
  341.732,220.105 343.725,221.228 345.718,222.351 347.712,223.474 349.705,224.597 351.698,225.72 353.691,226.843 355.684,227.966 357.677,229.089 359.67,230.212 
  361.664,231.336 363.657,232.459 365.65,233.582 367.643,234.705 369.636,235.829 371.629,236.952 373.622,238.076 375.616,239.199 377.609,240.323 379.602,241.446 
  381.595,242.57 383.588,243.694 385.581,244.817 387.574,245.941 389.568,247.065 391.561,248.189 393.554,249.313 395.547,250.437 397.54,251.561 399.533,252.685 
  401.526,253.809 403.52,254.933 405.513,256.057 407.506,257.181 409.499,258.305 411.492,259.43 413.485,260.554 415.479,261.678 417.472,262.803 419.465,263.927 
  421.458,265.052 423.451,266.176 425.444,267.301 427.437,268.425 429.431,269.55 431.424,270.675 433.417,271.799 435.41,272.924 437.403,274.049 439.396,275.174 
  441.389,276.299 443.383,277.424 445.376,278.549 447.369,279.674 449.362,280.799 451.355,281.924 453.348,283.049 455.341,284.174 457.335,285.299 459.328,286.425 
  461.321,287.55 463.314,288.675 465.307,289.801 467.3,290.926 469.293,292.052 471.287,293.177 473.28,294.303 475.273,295.428 477.266,296.554 479.259,297.68 
  481.252,298.805 483.245,299.931 485.239,301.057 487.232,302.183 489.225,303.309 491.218,304.435 493.211,305.561 495.204,306.687 497.197,307.813 499.191,308.939 
  501.184,310.065 503.177,311.191 505.17,312.318 507.163,313.444 509.156,314.57 511.149,315.696 513.143,316.823 515.136,317.949 517.129,319.076 519.122,320.202 
  521.115,321.329 523.108,322.456 525.101,323.582 527.095,324.709 529.088,325.836 531.081,326.962 533.074,328.089 535.067,329.216 537.06,330.343 539.054,331.47 
  541.047,332.597 543.04,333.724 545.033,334.851 547.026,335.978 549.019,337.105 551.012,338.233 553.006,339.36 554.999,340.487 556.992,341.615 558.985,342.742 
  560.978,343.869 562.971,344.997 564.964,346.124 566.958,347.252 568.951,348.379 570.944,349.507 572.937,350.635 574.93,351.763 576.923,352.89 578.916,354.018 
  580.91,355.146 582.903,356.274 584.896,357.402 586.889,358.53 588.882,359.658 590.875,360.786 592.868,361.914 594.862,363.042 596.855,364.17 598.848,365.298 
  600.841,366.427 602.834,367.555 604.827,368.683 606.82,369.812 608.814,370.94 610.807,372.069 612.8,373.197 614.793,374.326 616.786,375.454 618.779,376.583 
  620.772,377.712 622.766,378.84 624.759,379.969 626.752,381.098 628.745,382.227 630.738,383.356 632.731,384.485 634.724,385.614 636.718,386.743 638.711,387.872 
  640.704,389.001 642.697,390.13 644.69,391.259 646.683,392.388 648.677,393.518 650.67,394.647 652.663,395.776 654.656,396.906 656.649,398.035 658.642,399.165 
  660.635,400.294 662.629,401.424 664.622,402.553 666.615,403.683 668.608,404.813 670.601,405.942 672.594,407.072 674.587,408.202 676.581,409.332 678.574,410.462 
  680.567,411.592 682.56,412.722 684.553,413.852 686.546,414.982 688.539,416.112 690.533,417.242 692.526,418.372 694.519,419.502 696.512,420.633 698.505,421.763 
  700.498,422.893 702.491,424.024 704.485,425.154 706.478,426.285 708.471,427.415 710.464,428.546 712.457,429.676 714.45,430.807 716.443,431.938 718.437,433.069 
  720.43,434.199 722.423,435.33 724.416,436.461 726.409,437.592 728.402,438.723 730.395,439.854 732.389,440.985 734.382,442.116 736.375,443.247 738.368,444.378 
  740.361,445.509 742.354,446.641 744.347,447.772 746.341,448.903 748.334,450.035 750.327,451.166 752.32,452.298 754.313,453.429 756.306,454.561 758.299,455.692 
  760.293,456.824 762.286,457.955 764.279,459.087 766.272,460.219 768.265,461.351 770.258,462.483 772.252,463.614 774.245,464.746 776.238,465.878 778.231,467.01 
  780.224,468.142 782.217,469.274 784.21,470.407 786.204,471.539 788.197,472.671 790.19,473.803 792.183,474.936 794.176,476.068 796.169,477.2 798.162,478.333 
  800.156,479.465 802.149,480.598 804.142,481.73 806.135,482.863 808.128,483.995 810.121,485.128 812.114,486.261 814.108,487.394 816.101,488.526 818.094,489.659 
  820.087,490.792 822.08,491.925 824.073,493.058 826.066,494.191 828.06,495.324 830.053,496.457 832.046,497.59 834.039,498.724 836.032,499.857 838.025,500.99 
  840.018,502.123 842.012,503.257 844.005,504.39 845.998,505.524 847.991,506.657 849.984,507.791 851.977,508.924 853.97,510.058 855.964,511.191 857.957,512.325 
  859.95,513.459 861.943,514.593 863.936,515.726 865.929,516.86 867.922,517.994 869.916,519.128 871.909,520.262 873.902,521.396 875.895,522.53 877.888,523.664 
  879.881,524.798 881.874,525.933 883.868,527.067 885.861,528.201 887.854,529.335 889.847,530.47 891.84,531.604 893.833,532.739 895.827,533.873 897.82,535.008 
  899.813,536.142 901.806,537.277 903.799,538.411 905.792,539.546 907.785,540.681 909.779,541.816 911.772,542.95 913.765,544.085 915.758,545.22 917.751,546.355 
  919.744,547.49 921.737,548.625 923.731,549.76 925.724,550.895 927.717,552.031 929.71,553.166 931.703,554.301 933.696,555.436 935.689,556.572 937.683,557.707 
  939.676,558.842 941.669,559.978 943.662,561.113 945.655,562.249 947.648,563.384 949.641,564.52 951.635,565.656 953.628,566.791 955.621,567.927 957.614,569.063 
  959.607,570.199 961.6,571.335 963.593,572.471 965.587,573.607 967.58,574.743 969.573,575.879 971.566,577.015 973.559,578.151 975.552,579.287 977.545,580.423 
  979.539,581.559 981.532,582.696 983.525,583.832 985.518,584.969 987.511,586.105 989.504,587.241 991.497,588.378 993.491,589.514 995.484,590.651 997.477,591.788 
  999.47,592.924 1001.46,594.061 1003.46,595.198 1005.45,596.335 1007.44,597.471 1009.44,598.608 1011.43,599.745 1013.42,600.882 1015.42,602.019 1017.41,603.156 
  1019.4,604.293 1021.39,605.431 1023.39,606.568 1025.38,607.705 1027.37,608.842 1029.37,609.979 1031.36,611.117 1033.35,612.254 1035.35,613.392 1037.34,614.529 
  1039.33,615.667 1041.33,616.804 1043.32,617.942 1045.31,619.079 1047.31,620.217 1049.3,621.355 1051.29,622.493 1053.28,623.63 1055.28,624.768 1057.27,625.906 
  1059.26,627.044 1061.26,628.182 1063.25,629.32 1065.24,630.458 1067.24,631.596 1069.23,632.734 1071.22,633.873 1073.22,635.011 1075.21,636.149 1077.2,637.287 
  1079.2,638.426 1081.19,639.564 1083.18,640.703 1085.18,641.841 1087.17,642.98 1089.16,644.118 1091.15,645.257 1093.15,646.395 1095.14,647.534 1097.13,648.673 
  1099.13,649.812 1101.12,650.95 1103.11,652.089 1105.11,653.228 1107.1,654.367 1109.09,655.506 1111.09,656.645 1113.08,657.784 1115.07,658.923 1117.07,660.063 
  1119.06,661.202 1121.05,662.341 1123.05,663.48 1125.04,664.62 1127.03,665.759 1129.02,666.898 1131.02,668.038 1133.01,669.177 1135,670.317 1137,671.456 
  1138.99,672.596 1140.98,673.736 1142.98,674.875 1144.97,676.015 1146.96,677.155 1148.96,678.295 1150.95,679.435 1152.94,680.574 1154.94,681.714 1156.93,682.854 
  1158.92,683.994 1160.91,685.135 1162.91,686.275 1164.9,687.415 1166.89,688.555 1168.89,689.695 1170.88,690.836 1172.87,691.976 1174.87,693.116 1176.86,694.257 
  1178.85,695.397 1180.85,696.538 1182.84,697.678 1184.83,698.819 1186.83,699.959 1188.82,701.1 1190.81,702.241 1192.81,703.382 1194.8,704.522 1196.79,705.663 
  1198.78,706.804 1200.78,707.945 1202.77,709.086 1204.76,710.227 1206.76,711.368 1208.75,712.509 1210.74,713.65 1212.74,714.791 1214.73,715.933 1216.72,717.074 
  1218.72,718.215 1220.71,719.357 1222.7,720.498 1224.7,721.639 1226.69,722.781 1228.68,723.922 1230.67,725.064 1232.67,726.205 1234.66,727.347 1236.65,728.489 
  1238.65,729.63 1240.64,730.772 1242.63,731.914 1244.63,733.056 1246.62,734.198 1248.61,735.34 1250.61,736.482 1252.6,737.624 1254.59,738.766 1256.59,739.908 
  1258.58,741.05 1260.57,742.192 1262.57,743.334 1264.56,744.477 1266.55,745.619 1268.54,746.761 1270.54,747.904 1272.53,749.046 1274.52,750.189 1276.52,751.331 
  1278.51,752.474 1280.5,753.616 1282.5,754.759 1284.49,755.902 1286.48,757.044 1288.48,758.187 1290.47,759.33 1292.46,760.473 1294.46,761.616 1296.45,762.759 
  1298.44,763.902 1300.44,765.045 1302.43,766.188 1304.42,767.331 1306.41,768.474 1308.41,769.617 1310.4,770.76 1312.39,771.904 1314.39,773.047 1316.38,774.19 
  1318.37,775.334 1320.37,776.477 1322.36,777.621 1324.35,778.764 1326.35,779.908 1328.34,781.051 1330.33,782.195 1332.33,783.339 1334.32,784.483 1336.31,785.626 
  1338.3,786.77 1340.3,787.914 1342.29,789.058 1344.28,790.202 1346.28,791.346 1348.27,792.49 1350.26,793.634 1352.26,794.778 1354.25,795.922 1356.24,797.066 
  1358.24,798.211 1360.23,799.355 1362.22,800.499 1364.22,801.644 1366.21,802.788 1368.2,803.933 1370.2,805.077 1372.19,806.222 1374.18,807.366 1376.17,808.511 
  1378.17,809.655 1380.16,810.8 1382.15,811.945 1384.15,813.09 1386.14,814.235 1388.13,815.379 1390.13,816.524 1392.12,817.669 1394.11,818.814 1396.11,819.959 
  1398.1,821.104 1400.09,822.25 1402.09,823.395 1404.08,824.54 1406.07,825.685 1408.06,826.83 1410.06,827.976 1412.05,829.121 1414.04,830.267 1416.04,831.412 
  1418.03,832.558 1420.02,833.703 1422.02,834.849 1424.01,835.994 1426,837.14 1428,838.286 1429.99,839.431 1431.98,840.577 1433.98,841.723 1435.97,842.869 
  1437.96,844.015 1439.96,845.161 1441.95,846.307 1443.94,847.453 1445.93,848.599 1447.93,849.745 1449.92,850.891 1451.91,852.038 1453.91,853.184 1455.9,854.33 
  1457.89,855.477 1459.89,856.623 1461.88,857.769 1463.87,858.916 1465.87,860.062 1467.86,861.209 1469.85,862.355 1471.85,863.502 1473.84,864.649 1475.83,865.796 
  1477.82,866.942 1479.82,868.089 1481.81,869.236 1483.8,870.383 1485.8,871.53 1487.79,872.677 1489.78,873.824 1491.78,874.971 1493.77,876.118 1495.76,877.265 
  1497.76,878.412 1499.75,879.56 1501.74,880.707 1503.74,881.854 1505.73,883.001 1507.72,884.149 1509.72,885.296 1511.71,886.444 1513.7,887.591 1515.69,888.739 
  1517.69,889.886 1519.68,891.034 1521.67,892.182 1523.67,893.33 1525.66,894.477 1527.65,895.625 1529.65,896.773 1531.64,897.921 1533.63,899.069 1535.63,900.217 
  1537.62,901.365 1539.61,902.513 1541.61,903.661 1543.6,904.809 1545.59,905.957 1547.59,907.106 1549.58,908.254 1551.57,909.402 1553.56,910.551 1555.56,911.699 
  1557.55,912.848 1559.54,913.996 1561.54,915.145 1563.53,916.293 1565.52,917.442 1567.52,918.59 1569.51,919.739 1571.5,920.888 1573.5,922.037 1575.49,923.185 
  1577.48,924.334 1579.48,925.483 1581.47,926.632 1583.46,927.781 1585.45,928.93 1587.45,930.079 1589.44,931.228 1591.43,932.378 1593.43,933.527 1595.42,934.676 
  1597.41,935.825 1599.41,936.975 1601.4,938.124 1603.39,939.273 1605.39,940.423 1607.38,941.572 1609.37,942.722 1611.37,943.872 1613.36,945.021 1615.35,946.171 
  1617.35,947.321 1619.34,948.47 1621.33,949.62 1623.32,950.77 1625.32,951.92 1627.31,953.07 1629.3,954.22 1631.3,955.37 1633.29,956.52 1635.28,957.67 
  1637.28,958.82 1639.27,959.97 1641.26,961.12 1643.26,962.271 1645.25,963.421 1647.24,964.571 1649.24,965.722 1651.23,966.872 1653.22,968.023 1655.21,969.173 
  1657.21,970.324 1659.2,971.474 1661.19,972.625 1663.19,973.776 1665.18,974.926 1667.17,976.077 1669.17,977.228 1671.16,978.379 1673.15,979.53 1675.15,980.68 
  1677.14,981.831 1679.13,982.982 1681.13,984.134 1683.12,985.285 1685.11,986.436 1687.11,987.587 1689.1,988.738 1691.09,989.889 1693.08,991.041 1695.08,992.192 
  1697.07,993.344 1699.06,994.495 1701.06,995.646 1703.05,996.798 1705.04,997.95 1707.04,999.101 1709.03,1000.25 1711.02,1001.4 1713.02,1002.56 1715.01,1003.71 
  1717,1004.86 1719,1006.01 1720.99,1007.16 1722.98,1008.32 1724.97,1009.47 1726.97,1010.62 1728.96,1011.77 1730.95,1012.92 1732.95,1014.08 1734.94,1015.23 
  1736.93,1016.38 1738.93,1017.53 1740.92,1018.68 1742.91,1019.84 1744.91,1020.99 1746.9,1022.14 1748.89,1023.29 1750.89,1024.45 1752.88,1025.6 1754.87,1026.75 
  1756.87,1027.9 1758.86,1029.06 1760.85,1030.21 1762.84,1031.36 1764.84,1032.52 1766.83,1033.67 1768.82,1034.82 1770.82,1035.97 1772.81,1037.13 1774.8,1038.28 
  1776.8,1039.43 1778.79,1040.59 1780.78,1041.74 1782.78,1042.89 1784.77,1044.05 1786.76,1045.2 1788.76,1046.35 1790.75,1047.51 1792.74,1048.66 1794.74,1049.81 
  1796.73,1050.97 1798.72,1052.12 1800.71,1053.27 1802.71,1054.43 1804.7,1055.58 1806.69,1056.73 1808.69,1057.89 1810.68,1059.04 1812.67,1060.2 1814.67,1061.35 
  1816.66,1062.5 1818.65,1063.66 1820.65,1064.81 1822.64,1065.97 1824.63,1067.12 1826.63,1068.27 1828.62,1069.43 1830.61,1070.58 1832.6,1071.74 1834.6,1072.89 
  1836.59,1074.05 1838.58,1075.2 1840.58,1076.35 1842.57,1077.51 1844.56,1078.66 1846.56,1079.82 1848.55,1080.97 1850.54,1082.13 1852.54,1083.28 1854.53,1084.44 
  1856.52,1085.59 1858.52,1086.75 1860.51,1087.9 1862.5,1089.06 1864.5,1090.21 1866.49,1091.37 1868.48,1092.52 1870.47,1093.68 1872.47,1094.83 1874.46,1095.99 
  1876.45,1097.14 1878.45,1098.3 1880.44,1099.45 1882.43,1100.61 1884.43,1101.76 1886.42,1102.92 1888.41,1104.07 1890.41,1105.23 1892.4,1106.38 1894.39,1107.54 
  1896.39,1108.7 1898.38,1109.85 1900.37,1111.01 1902.36,1112.16 1904.36,1113.32 1906.35,1114.47 1908.34,1115.63 1910.34,1116.79 1912.33,1117.94 1914.32,1119.1 
  1916.32,1120.25 1918.31,1121.41 1920.3,1122.57 1922.3,1123.72 1924.29,1124.88 1926.28,1126.03 1928.28,1127.19 1930.27,1128.35 1932.26,1129.5 1934.26,1130.66 
  1936.25,1131.82 1938.24,1132.97 1940.23,1134.13 1942.23,1135.29 1944.22,1136.44 1946.21,1137.6 1948.21,1138.76 1950.2,1139.91 1952.19,1141.07 1954.19,1142.23 
  1956.18,1143.38 1958.17,1144.54 1960.17,1145.7 1962.16,1146.85 1964.15,1148.01 1966.15,1149.17 1968.14,1150.32 1970.13,1151.48 1972.12,1152.64 1974.12,1153.8 
  1976.11,1154.95 1978.1,1156.11 1980.1,1157.27 1982.09,1158.43 1984.08,1159.58 1986.08,1160.74 1988.07,1161.9 1990.06,1163.06 1992.06,1164.21 1994.05,1165.37 
  1996.04,1166.53 1998.04,1167.69 2000.03,1168.84 2002.02,1170 2004.02,1171.16 2006.01,1172.32 2008,1173.48 2009.99,1174.63 2011.99,1175.79 2013.98,1176.95 
  2015.97,1178.11 2017.97,1179.27 2019.96,1180.42 2021.95,1181.58 2023.95,1182.74 2025.94,1183.9 2027.93,1185.06 2029.93,1186.22 2031.92,1187.37 2033.91,1188.53 
  2035.91,1189.69 2037.9,1190.85 2039.89,1192.01 2041.89,1193.17 2043.88,1194.33 2045.87,1195.49 2047.86,1196.64 2049.86,1197.8 2051.85,1198.96 2053.84,1200.12 
  2055.84,1201.28 2057.83,1202.44 2059.82,1203.6 2061.82,1204.76 2063.81,1205.92 2065.8,1207.08 2067.8,1208.23 2069.79,1209.39 2071.78,1210.55 2073.78,1211.71 
  2075.77,1212.87 2077.76,1214.03 2079.75,1215.19 2081.75,1216.35 2083.74,1217.51 2085.73,1218.67 2087.73,1219.83 2089.72,1220.99 2091.71,1222.15 2093.71,1223.31 
  2095.7,1224.47 2097.69,1225.63 2099.69,1226.79 2101.68,1227.95 2103.67,1229.11 2105.67,1230.27 2107.66,1231.43 2109.65,1232.59 2111.65,1233.75 2113.64,1234.91 
  2115.63,1236.07 2117.62,1237.23 2119.62,1238.39 2121.61,1239.55 2123.6,1240.71 2125.6,1241.87 2127.59,1243.03 2129.58,1244.19 2131.58,1245.35 2133.57,1246.51 
  2135.56,1247.67 2137.56,1248.83 2139.55,1249.99 2141.54,1251.15 2143.54,1252.32 2145.53,1253.48 2147.52,1254.64 2149.51,1255.8 2151.51,1256.96 2153.5,1258.12 
  2155.49,1259.28 2157.49,1260.44 2159.48,1261.6 2161.47,1262.76 2163.47,1263.93 2165.46,1265.09 2167.45,1266.25 2169.45,1267.41 2171.44,1268.57 2173.43,1269.73 
  2175.43,1270.89 2177.42,1272.06 2179.41,1273.22 2181.41,1274.38 2183.4,1275.54 2185.39,1276.7 2187.38,1277.86 2189.38,1279.03 2191.37,1280.19 2193.36,1281.35 
  2195.36,1282.51 2197.35,1283.67 2199.34,1284.84 2201.34,1286 2203.33,1287.16 2205.32,1288.32 2207.32,1289.48 2209.31,1290.65 2211.3,1291.81 2213.3,1292.97 
  2215.29,1294.13 2217.28,1295.3 2219.27,1296.46 2221.27,1297.62 2223.26,1298.78 2225.25,1299.95 2227.25,1301.11 2229.24,1302.27 2231.23,1303.43 2233.23,1304.6 
  2235.22,1305.76 2237.21,1306.92 2239.21,1308.08 2241.2,1309.25 2243.19,1310.41 2245.19,1311.57 2247.18,1312.74 2249.17,1313.9 2251.17,1315.06 2253.16,1316.23 
  2255.15,1317.39 2257.14,1318.55 2259.14,1319.71 2261.13,1320.88 2263.12,1322.04 2265.12,1323.2 2267.11,1324.37 2269.1,1325.53 2271.1,1326.7 2273.09,1327.86 
  2275.08,1329.02 2277.08,1330.19 2279.07,1331.35 2281.06,1332.51 2283.06,1333.68 2285.05,1334.84 2287.04,1336 2289.04,1337.17 2291.03,1338.33 2293.02,1339.5 
  
  "/>
<path clip-path="url(#clip090)" d="
M1384.23 322.316 L2282.4 322.316 L2282.4 166.796 L1384.23 166.796  Z
  " fill="#ffffff" fill-rule="evenodd" fill-opacity="1"/>
<polyline clip-path="url(#clip090)" style="stroke:#000000; stroke-linecap:butt; stroke-linejoin:round; stroke-width:4; stroke-opacity:1; fill:none" points="
  1384.23,322.316 2282.4,322.316 2282.4,166.796 1384.23,166.796 1384.23,322.316 
  "/>
<circle clip-path="url(#clip090)" cx="1478.04" cy="218.636" r="23" fill="#009af9" fill-rule="evenodd" fill-opacity="1" stroke="#000000" stroke-opacity="1" stroke-width="5.12"/>
<path clip-path="url(#clip090)" d="M1590.76 213.925 L1590.76 199.897 L1595.02 199.897 L1595.02 235.916 L1590.76 235.916 L1590.76 232.027 Q1589.41 234.342 1587.35 235.476 Q1585.32 236.587 1582.45 236.587 Q1577.75 236.587 1574.79 232.837 Q1571.85 229.087 1571.85 222.976 Q1571.85 216.865 1574.79 213.115 Q1577.75 209.365 1582.45 209.365 Q1585.32 209.365 1587.35 210.499 Q1589.41 211.61 1590.76 213.925 M1576.24 222.976 Q1576.24 227.675 1578.16 230.36 Q1580.11 233.022 1583.49 233.022 Q1586.87 233.022 1588.81 230.36 Q1590.76 227.675 1590.76 222.976 Q1590.76 218.277 1588.81 215.615 Q1586.87 212.93 1583.49 212.93 Q1580.11 212.93 1578.16 215.615 Q1576.24 218.277 1576.24 222.976 Z" fill="#000000" fill-rule="evenodd" fill-opacity="1" /><path clip-path="url(#clip090)" d="M1622.4 222.976 Q1622.4 218.277 1620.46 215.615 Q1618.53 212.93 1615.16 212.93 Q1611.78 212.93 1609.83 215.615 Q1607.91 218.277 1607.91 222.976 Q1607.91 227.675 1609.83 230.36 Q1611.78 233.022 1615.16 233.022 Q1618.53 233.022 1620.46 230.36 Q1622.4 227.675 1622.4 222.976 M1607.91 213.925 Q1609.25 211.61 1611.29 210.499 Q1613.35 209.365 1616.2 209.365 Q1620.92 209.365 1623.86 213.115 Q1626.82 216.865 1626.82 222.976 Q1626.82 229.087 1623.86 232.837 Q1620.92 236.587 1616.2 236.587 Q1613.35 236.587 1611.29 235.476 Q1609.25 234.342 1607.91 232.027 L1607.91 235.916 L1603.63 235.916 L1603.63 199.897 L1607.91 199.897 L1607.91 213.925 Z" fill="#000000" fill-rule="evenodd" fill-opacity="1" /><path clip-path="url(#clip090)" d="M1654.07 214.967 Q1655.66 212.096 1657.89 210.731 Q1660.11 209.365 1663.12 209.365 Q1667.17 209.365 1669.37 212.212 Q1671.57 215.036 1671.57 220.268 L1671.57 235.916 L1667.28 235.916 L1667.28 220.407 Q1667.28 216.68 1665.97 214.874 Q1664.65 213.069 1661.94 213.069 Q1658.63 213.069 1656.71 215.268 Q1654.78 217.467 1654.78 221.263 L1654.78 235.916 L1650.5 235.916 L1650.5 220.407 Q1650.5 216.657 1649.18 214.874 Q1647.86 213.069 1645.11 213.069 Q1641.84 213.069 1639.92 215.291 Q1638 217.49 1638 221.263 L1638 235.916 L1633.72 235.916 L1633.72 209.99 L1638 209.99 L1638 214.018 Q1639.46 211.633 1641.5 210.499 Q1643.53 209.365 1646.34 209.365 Q1649.16 209.365 1651.13 210.8 Q1653.12 212.235 1654.07 214.967 Z" fill="#000000" fill-rule="evenodd" fill-opacity="1" /><path clip-path="url(#clip090)" d="M1681.15 230.036 L1686.03 230.036 L1686.03 234.018 L1682.24 241.425 L1679.25 241.425 L1681.15 234.018 L1681.15 230.036 Z" fill="#000000" fill-rule="evenodd" fill-opacity="1" /><path clip-path="url(#clip090)" d="M1721.94 205.962 L1715.59 223.161 L1728.3 223.161 L1721.94 205.962 M1719.3 201.356 L1724.6 201.356 L1737.77 235.916 L1732.91 235.916 L1729.76 227.05 L1714.18 227.05 L1711.03 235.916 L1706.1 235.916 L1719.3 201.356 Z" fill="#000000" fill-rule="evenodd" fill-opacity="1" /><path clip-path="url(#clip090)" d="M1747.49 205.198 L1747.49 232.073 L1753.14 232.073 Q1760.29 232.073 1763.6 228.832 Q1766.94 225.592 1766.94 218.601 Q1766.94 211.657 1763.6 208.439 Q1760.29 205.198 1753.14 205.198 L1747.49 205.198 M1742.82 201.356 L1752.42 201.356 Q1762.47 201.356 1767.17 205.546 Q1771.87 209.712 1771.87 218.601 Q1771.87 227.536 1767.15 231.726 Q1762.42 235.916 1752.42 235.916 L1742.82 235.916 L1742.82 201.356 Z" fill="#000000" fill-rule="evenodd" fill-opacity="1" /><path clip-path="url(#clip090)" d="M1805.2 204.018 L1805.2 208.948 Q1802.84 206.749 1800.15 205.661 Q1797.49 204.573 1794.48 204.573 Q1788.56 204.573 1785.41 208.208 Q1782.26 211.819 1782.26 218.67 Q1782.26 225.499 1785.41 229.133 Q1788.56 232.744 1794.48 232.744 Q1797.49 232.744 1800.15 231.656 Q1802.84 230.569 1805.2 228.369 L1805.2 233.254 Q1802.75 234.92 1799.99 235.754 Q1797.26 236.587 1794.21 236.587 Q1786.36 236.587 1781.84 231.795 Q1777.33 226.981 1777.33 218.67 Q1777.33 210.337 1781.84 205.546 Q1786.36 200.731 1794.21 200.731 Q1797.31 200.731 1800.04 201.564 Q1802.79 202.374 1805.2 204.018 Z" fill="#000000" fill-rule="evenodd" fill-opacity="1" /><path clip-path="url(#clip090)" d="M1831.43 232.027 L1831.43 245.777 L1827.14 245.777 L1827.14 209.99 L1831.43 209.99 L1831.43 213.925 Q1832.77 211.61 1834.81 210.499 Q1836.87 209.365 1839.71 209.365 Q1844.44 209.365 1847.38 213.115 Q1850.34 216.865 1850.34 222.976 Q1850.34 229.087 1847.38 232.837 Q1844.44 236.587 1839.71 236.587 Q1836.87 236.587 1834.81 235.476 Q1832.77 234.342 1831.43 232.027 M1845.92 222.976 Q1845.92 218.277 1843.97 215.615 Q1842.05 212.93 1838.67 212.93 Q1835.29 212.93 1833.35 215.615 Q1831.43 218.277 1831.43 222.976 Q1831.43 227.675 1833.35 230.36 Q1835.29 233.022 1838.67 233.022 Q1842.05 233.022 1843.97 230.36 Q1845.92 227.675 1845.92 222.976 Z" fill="#000000" fill-rule="evenodd" fill-opacity="1" /><path clip-path="url(#clip090)" d="M1869.18 222.883 Q1864.02 222.883 1862.03 224.064 Q1860.04 225.244 1860.04 228.092 Q1860.04 230.36 1861.52 231.703 Q1863.02 233.022 1865.59 233.022 Q1869.14 233.022 1871.27 230.522 Q1873.42 227.999 1873.42 223.832 L1873.42 222.883 L1869.18 222.883 M1877.68 221.124 L1877.68 235.916 L1873.42 235.916 L1873.42 231.981 Q1871.96 234.342 1869.78 235.476 Q1867.61 236.587 1864.46 236.587 Q1860.48 236.587 1858.12 234.365 Q1855.78 232.119 1855.78 228.369 Q1855.78 223.994 1858.7 221.772 Q1861.64 219.55 1867.45 219.55 L1873.42 219.55 L1873.42 219.133 Q1873.42 216.194 1871.47 214.596 Q1869.55 212.976 1866.06 212.976 Q1863.83 212.976 1861.73 213.508 Q1859.62 214.041 1857.68 215.106 L1857.68 211.17 Q1860.02 210.268 1862.21 209.828 Q1864.41 209.365 1866.5 209.365 Q1872.12 209.365 1874.9 212.282 Q1877.68 215.198 1877.68 221.124 Z" fill="#000000" fill-rule="evenodd" fill-opacity="1" /><path clip-path="url(#clip090)" d="M1886.45 209.99 L1890.71 209.99 L1890.71 235.916 L1886.45 235.916 L1886.45 209.99 M1886.45 199.897 L1890.71 199.897 L1890.71 205.291 L1886.45 205.291 L1886.45 199.897 Z" fill="#000000" fill-rule="evenodd" fill-opacity="1" /><path clip-path="url(#clip090)" d="M1914.64 213.971 Q1913.93 213.555 1913.07 213.37 Q1912.24 213.161 1911.22 213.161 Q1907.61 213.161 1905.66 215.522 Q1903.74 217.86 1903.74 222.258 L1903.74 235.916 L1899.46 235.916 L1899.46 209.99 L1903.74 209.99 L1903.74 214.018 Q1905.08 211.657 1907.24 210.522 Q1909.39 209.365 1912.47 209.365 Q1912.91 209.365 1913.44 209.434 Q1913.97 209.481 1914.62 209.596 L1914.64 213.971 Z" fill="#000000" fill-rule="evenodd" fill-opacity="1" /><path clip-path="url(#clip090)" d="M1935.64 210.754 L1935.64 214.782 Q1933.83 213.856 1931.89 213.393 Q1929.95 212.93 1927.86 212.93 Q1924.69 212.93 1923.09 213.902 Q1921.52 214.874 1921.52 216.819 Q1921.52 218.3 1922.65 219.157 Q1923.79 219.99 1927.21 220.754 L1928.67 221.078 Q1933.21 222.05 1935.11 223.832 Q1937.03 225.592 1937.03 228.763 Q1937.03 232.374 1934.16 234.481 Q1931.31 236.587 1926.31 236.587 Q1924.23 236.587 1921.96 236.17 Q1919.71 235.777 1917.21 234.967 L1917.21 230.569 Q1919.57 231.795 1921.87 232.42 Q1924.16 233.022 1926.4 233.022 Q1929.41 233.022 1931.03 232.004 Q1932.65 230.962 1932.65 229.087 Q1932.65 227.351 1931.47 226.425 Q1930.32 225.499 1926.36 224.643 L1924.88 224.295 Q1920.92 223.462 1919.16 221.749 Q1917.4 220.013 1917.4 217.004 Q1917.4 213.346 1919.99 211.356 Q1922.58 209.365 1927.35 209.365 Q1929.71 209.365 1931.8 209.712 Q1933.88 210.059 1935.64 210.754 Z" fill="#000000" fill-rule="evenodd" fill-opacity="1" /><polyline clip-path="url(#clip090)" style="stroke:#e26f46; stroke-linecap:butt; stroke-linejoin:round; stroke-width:4; stroke-opacity:1; fill:none" points="
  1407.69,270.476 1548.39,270.476 
  "/>
<path clip-path="url(#clip090)" d="M1588.35 251.737 L1588.35 255.279 L1584.28 255.279 Q1581.98 255.279 1581.08 256.205 Q1580.2 257.131 1580.2 259.538 L1580.2 261.83 L1587.22 261.83 L1587.22 265.14 L1580.2 265.14 L1580.2 287.756 L1575.92 287.756 L1575.92 265.14 L1571.85 265.14 L1571.85 261.83 L1575.92 261.83 L1575.92 260.024 Q1575.92 255.696 1577.93 253.728 Q1579.95 251.737 1584.32 251.737 L1588.35 251.737 Z" fill="#000000" fill-rule="evenodd" fill-opacity="1" /><path clip-path="url(#clip090)" d="M1591.91 261.83 L1596.17 261.83 L1596.17 287.756 L1591.91 287.756 L1591.91 261.83 M1591.91 251.737 L1596.17 251.737 L1596.17 257.131 L1591.91 257.131 L1591.91 251.737 Z" fill="#000000" fill-rule="evenodd" fill-opacity="1" /><path clip-path="url(#clip090)" d="M1609.3 254.469 L1609.3 261.83 L1618.07 261.83 L1618.07 265.14 L1609.3 265.14 L1609.3 279.214 Q1609.3 282.385 1610.16 283.288 Q1611.03 284.191 1613.7 284.191 L1618.07 284.191 L1618.07 287.756 L1613.7 287.756 Q1608.77 287.756 1606.89 285.927 Q1605.02 284.075 1605.02 279.214 L1605.02 265.14 L1601.89 265.14 L1601.89 261.83 L1605.02 261.83 L1605.02 254.469 L1609.3 254.469 Z" fill="#000000" fill-rule="evenodd" fill-opacity="1" /><path clip-path="url(#clip090)" d="M1651.87 251.737 L1651.87 255.279 L1647.79 255.279 Q1645.5 255.279 1644.6 256.205 Q1643.72 257.131 1643.72 259.538 L1643.72 261.83 L1650.73 261.83 L1650.73 265.14 L1643.72 265.14 L1643.72 287.756 L1639.44 287.756 L1639.44 265.14 L1635.36 265.14 L1635.36 261.83 L1639.44 261.83 L1639.44 260.024 Q1639.44 255.696 1641.45 253.728 Q1643.47 251.737 1647.84 251.737 L1651.87 251.737 Z" fill="#000000" fill-rule="evenodd" fill-opacity="1" /><path clip-path="url(#clip090)" d="M1654.99 277.524 L1654.99 261.83 L1659.25 261.83 L1659.25 277.362 Q1659.25 281.043 1660.69 282.895 Q1662.12 284.723 1664.99 284.723 Q1668.44 284.723 1670.43 282.524 Q1672.45 280.325 1672.45 276.529 L1672.45 261.83 L1676.71 261.83 L1676.71 287.756 L1672.45 287.756 L1672.45 283.774 Q1670.9 286.135 1668.84 287.293 Q1666.8 288.427 1664.09 288.427 Q1659.62 288.427 1657.31 285.649 Q1654.99 282.871 1654.99 277.524 M1665.71 261.205 L1665.71 261.205 Z" fill="#000000" fill-rule="evenodd" fill-opacity="1" /><path clip-path="url(#clip090)" d="M1707.03 272.108 L1707.03 287.756 L1702.77 287.756 L1702.77 272.247 Q1702.77 268.566 1701.34 266.737 Q1699.9 264.909 1697.03 264.909 Q1693.58 264.909 1691.59 267.108 Q1689.6 269.307 1689.6 273.103 L1689.6 287.756 L1685.32 287.756 L1685.32 261.83 L1689.6 261.83 L1689.6 265.858 Q1691.13 263.52 1693.19 262.362 Q1695.27 261.205 1697.98 261.205 Q1702.45 261.205 1704.74 263.983 Q1707.03 266.737 1707.03 272.108 Z" fill="#000000" fill-rule="evenodd" fill-opacity="1" /><path clip-path="url(#clip090)" d="M1734.18 262.825 L1734.18 266.807 Q1732.38 265.811 1730.55 265.325 Q1728.74 264.816 1726.89 264.816 Q1722.75 264.816 1720.46 267.455 Q1718.16 270.071 1718.16 274.816 Q1718.16 279.561 1720.46 282.2 Q1722.75 284.816 1726.89 284.816 Q1728.74 284.816 1730.55 284.33 Q1732.38 283.821 1734.18 282.825 L1734.18 286.76 Q1732.4 287.594 1730.48 288.01 Q1728.58 288.427 1726.43 288.427 Q1720.57 288.427 1717.12 284.746 Q1713.67 281.066 1713.67 274.816 Q1713.67 268.473 1717.15 264.839 Q1720.64 261.205 1726.71 261.205 Q1728.67 261.205 1730.55 261.622 Q1732.42 262.015 1734.18 262.825 Z" fill="#000000" fill-rule="evenodd" fill-opacity="1" /><path clip-path="url(#clip090)" d="M1745.8 254.469 L1745.8 261.83 L1754.58 261.83 L1754.58 265.14 L1745.8 265.14 L1745.8 279.214 Q1745.8 282.385 1746.66 283.288 Q1747.54 284.191 1750.2 284.191 L1754.58 284.191 L1754.58 287.756 L1750.2 287.756 Q1745.27 287.756 1743.4 285.927 Q1741.52 284.075 1741.52 279.214 L1741.52 265.14 L1738.4 265.14 L1738.4 261.83 L1741.52 261.83 L1741.52 254.469 L1745.8 254.469 Z" fill="#000000" fill-rule="evenodd" fill-opacity="1" /><path clip-path="url(#clip090)" d="M1760.18 261.83 L1764.44 261.83 L1764.44 287.756 L1760.18 287.756 L1760.18 261.83 M1760.18 251.737 L1764.44 251.737 L1764.44 257.131 L1760.18 257.131 L1760.18 251.737 Z" fill="#000000" fill-rule="evenodd" fill-opacity="1" /><path clip-path="url(#clip090)" d="M1783.4 264.816 Q1779.97 264.816 1777.98 267.501 Q1775.99 270.163 1775.99 274.816 Q1775.99 279.469 1777.96 282.154 Q1779.95 284.816 1783.4 284.816 Q1786.8 284.816 1788.79 282.131 Q1790.78 279.446 1790.78 274.816 Q1790.78 270.21 1788.79 267.524 Q1786.8 264.816 1783.4 264.816 M1783.4 261.205 Q1788.95 261.205 1792.12 264.816 Q1795.29 268.427 1795.29 274.816 Q1795.29 281.182 1792.12 284.816 Q1788.95 288.427 1783.4 288.427 Q1777.82 288.427 1774.65 284.816 Q1771.5 281.182 1771.5 274.816 Q1771.5 268.427 1774.65 264.816 Q1777.82 261.205 1783.4 261.205 Z" fill="#000000" fill-rule="evenodd" fill-opacity="1" /><path clip-path="url(#clip090)" d="M1823.9 272.108 L1823.9 287.756 L1819.64 287.756 L1819.64 272.247 Q1819.64 268.566 1818.21 266.737 Q1816.77 264.909 1813.9 264.909 Q1810.46 264.909 1808.46 267.108 Q1806.47 269.307 1806.47 273.103 L1806.47 287.756 L1802.19 287.756 L1802.19 261.83 L1806.47 261.83 L1806.47 265.858 Q1808 263.52 1810.06 262.362 Q1812.14 261.205 1814.85 261.205 Q1819.32 261.205 1821.61 263.983 Q1823.9 266.737 1823.9 272.108 Z" fill="#000000" fill-rule="evenodd" fill-opacity="1" /><path clip-path="url(#clip090)" d="M1833.49 281.876 L1838.37 281.876 L1838.37 285.858 L1834.58 293.265 L1831.59 293.265 L1833.49 285.858 L1833.49 281.876 Z" fill="#000000" fill-rule="evenodd" fill-opacity="1" /><path clip-path="url(#clip090)" d="M1884.71 273.728 L1884.71 275.811 L1865.13 275.811 Q1865.41 280.209 1867.77 282.524 Q1870.15 284.816 1874.39 284.816 Q1876.84 284.816 1879.14 284.214 Q1881.45 283.612 1883.72 282.409 L1883.72 286.436 Q1881.43 287.408 1879.02 287.918 Q1876.61 288.427 1874.14 288.427 Q1867.93 288.427 1864.3 284.816 Q1860.69 281.205 1860.69 275.047 Q1860.69 268.682 1864.11 264.955 Q1867.56 261.205 1873.39 261.205 Q1878.63 261.205 1881.66 264.585 Q1884.71 267.941 1884.71 273.728 M1880.45 272.478 Q1880.41 268.983 1878.49 266.899 Q1876.59 264.816 1873.44 264.816 Q1869.88 264.816 1867.72 266.83 Q1865.59 268.844 1865.27 272.501 L1880.45 272.478 Z" fill="#000000" fill-rule="evenodd" fill-opacity="1" /><path clip-path="url(#clip090)" d="M1906.73 265.811 Q1906.01 265.395 1905.15 265.21 Q1904.32 265.001 1903.3 265.001 Q1899.69 265.001 1897.75 267.362 Q1895.83 269.7 1895.83 274.098 L1895.83 287.756 L1891.54 287.756 L1891.54 261.83 L1895.83 261.83 L1895.83 265.858 Q1897.17 263.497 1899.32 262.362 Q1901.47 261.205 1904.55 261.205 Q1904.99 261.205 1905.52 261.274 Q1906.06 261.321 1906.7 261.436 L1906.73 265.811 Z" fill="#000000" fill-rule="evenodd" fill-opacity="1" /><path clip-path="url(#clip090)" d="M1925.39 265.811 Q1924.67 265.395 1923.81 265.21 Q1922.98 265.001 1921.96 265.001 Q1918.35 265.001 1916.4 267.362 Q1914.48 269.7 1914.48 274.098 L1914.48 287.756 L1910.2 287.756 L1910.2 261.83 L1914.48 261.83 L1914.48 265.858 Q1915.82 263.497 1917.98 262.362 Q1920.13 261.205 1923.21 261.205 Q1923.65 261.205 1924.18 261.274 Q1924.71 261.321 1925.36 261.436 L1925.39 265.811 Z" fill="#000000" fill-rule="evenodd" fill-opacity="1" /><path clip-path="url(#clip090)" d="M1938.86 264.816 Q1935.43 264.816 1933.44 267.501 Q1931.45 270.163 1931.45 274.816 Q1931.45 279.469 1933.42 282.154 Q1935.41 284.816 1938.86 284.816 Q1942.26 284.816 1944.25 282.131 Q1946.24 279.446 1946.24 274.816 Q1946.24 270.21 1944.25 267.524 Q1942.26 264.816 1938.86 264.816 M1938.86 261.205 Q1944.41 261.205 1947.58 264.816 Q1950.76 268.427 1950.76 274.816 Q1950.76 281.182 1947.58 284.816 Q1944.41 288.427 1938.86 288.427 Q1933.28 288.427 1930.11 284.816 Q1926.96 281.182 1926.96 274.816 Q1926.96 268.427 1930.11 264.816 Q1933.28 261.205 1938.86 261.205 Z" fill="#000000" fill-rule="evenodd" fill-opacity="1" /><path clip-path="url(#clip090)" d="M1972.84 265.811 Q1972.12 265.395 1971.26 265.21 Q1970.43 265.001 1969.41 265.001 Q1965.8 265.001 1963.86 267.362 Q1961.94 269.7 1961.94 274.098 L1961.94 287.756 L1957.65 287.756 L1957.65 261.83 L1961.94 261.83 L1961.94 265.858 Q1963.28 263.497 1965.43 262.362 Q1967.58 261.205 1970.66 261.205 Q1971.1 261.205 1971.63 261.274 Q1972.17 261.321 1972.82 261.436 L1972.84 265.811 Z" fill="#000000" fill-rule="evenodd" fill-opacity="1" /><path clip-path="url(#clip090)" d="M1992.93 266.228 L2022.61 266.228 L2022.61 270.117 L1992.93 270.117 L1992.93 266.228 M1992.93 275.672 L2022.61 275.672 L2022.61 279.608 L1992.93 279.608 L1992.93 275.672 Z" fill="#000000" fill-rule="evenodd" fill-opacity="1" /><path clip-path="url(#clip090)" d="M2061.94 269.122 Q2065.29 269.839 2067.17 272.108 Q2069.06 274.376 2069.06 277.709 Q2069.06 282.825 2065.55 285.626 Q2062.03 288.427 2055.55 288.427 Q2053.37 288.427 2051.06 287.987 Q2048.76 287.571 2046.31 286.714 L2046.31 282.2 Q2048.25 283.334 2050.57 283.913 Q2052.88 284.492 2055.41 284.492 Q2059.81 284.492 2062.1 282.756 Q2064.41 281.02 2064.41 277.709 Q2064.41 274.654 2062.26 272.941 Q2060.13 271.205 2056.31 271.205 L2052.28 271.205 L2052.28 267.362 L2056.5 267.362 Q2059.94 267.362 2061.77 265.997 Q2063.6 264.608 2063.6 262.015 Q2063.6 259.353 2061.7 257.941 Q2059.83 256.506 2056.31 256.506 Q2054.39 256.506 2052.19 256.923 Q2049.99 257.339 2047.35 258.219 L2047.35 254.052 Q2050.01 253.311 2052.33 252.941 Q2054.67 252.571 2056.73 252.571 Q2062.05 252.571 2065.15 255.001 Q2068.25 257.409 2068.25 261.529 Q2068.25 264.399 2066.61 266.39 Q2064.97 268.358 2061.94 269.122 Z" fill="#000000" fill-rule="evenodd" fill-opacity="1" /><path clip-path="url(#clip090)" d="M2078.07 287.038 L2078.07 282.779 Q2079.83 283.612 2081.63 284.052 Q2083.44 284.492 2085.18 284.492 Q2089.81 284.492 2092.24 281.39 Q2094.69 278.265 2095.04 271.922 Q2093.69 273.913 2091.63 274.978 Q2089.57 276.043 2087.07 276.043 Q2081.89 276.043 2078.86 272.918 Q2075.85 269.77 2075.85 264.33 Q2075.85 259.006 2079 255.788 Q2082.14 252.571 2087.37 252.571 Q2093.37 252.571 2096.52 257.177 Q2099.69 261.76 2099.69 270.51 Q2099.69 278.682 2095.8 283.566 Q2091.94 288.427 2085.38 288.427 Q2083.62 288.427 2081.82 288.08 Q2080.01 287.733 2078.07 287.038 M2087.37 272.385 Q2090.52 272.385 2092.35 270.233 Q2094.2 268.08 2094.2 264.33 Q2094.2 260.603 2092.35 258.45 Q2090.52 256.274 2087.37 256.274 Q2084.23 256.274 2082.37 258.45 Q2080.55 260.603 2080.55 264.33 Q2080.55 268.08 2082.37 270.233 Q2084.23 272.385 2087.37 272.385 Z" fill="#000000" fill-rule="evenodd" fill-opacity="1" /><path clip-path="url(#clip090)" d="M2108.09 281.876 L2112.98 281.876 L2112.98 287.756 L2108.09 287.756 L2108.09 281.876 Z" fill="#000000" fill-rule="evenodd" fill-opacity="1" /><path clip-path="url(#clip090)" d="M2133.16 256.274 Q2129.55 256.274 2127.72 259.839 Q2125.92 263.381 2125.92 270.51 Q2125.92 277.617 2127.72 281.182 Q2129.55 284.723 2133.16 284.723 Q2136.8 284.723 2138.6 281.182 Q2140.43 277.617 2140.43 270.51 Q2140.43 263.381 2138.6 259.839 Q2136.8 256.274 2133.16 256.274 M2133.16 252.571 Q2138.97 252.571 2142.03 257.177 Q2145.11 261.76 2145.11 270.51 Q2145.11 279.237 2142.03 283.844 Q2138.97 288.427 2133.16 288.427 Q2127.35 288.427 2124.27 283.844 Q2121.22 279.237 2121.22 270.51 Q2121.22 261.76 2124.27 257.177 Q2127.35 252.571 2133.16 252.571 Z" fill="#000000" fill-rule="evenodd" fill-opacity="1" /><path clip-path="url(#clip090)" d="M2163.32 271.344 Q2159.99 271.344 2158.07 273.126 Q2156.17 274.909 2156.17 278.034 Q2156.17 281.159 2158.07 282.941 Q2159.99 284.723 2163.32 284.723 Q2166.66 284.723 2168.58 282.941 Q2170.5 281.135 2170.5 278.034 Q2170.5 274.909 2168.58 273.126 Q2166.68 271.344 2163.32 271.344 M2158.65 269.353 Q2155.64 268.612 2153.95 266.552 Q2152.28 264.492 2152.28 261.529 Q2152.28 257.386 2155.22 254.978 Q2158.18 252.571 2163.32 252.571 Q2168.49 252.571 2171.43 254.978 Q2174.37 257.386 2174.37 261.529 Q2174.37 264.492 2172.68 266.552 Q2171.01 268.612 2168.02 269.353 Q2171.4 270.14 2173.28 272.432 Q2175.18 274.723 2175.18 278.034 Q2175.18 283.057 2172.1 285.742 Q2169.04 288.427 2163.32 288.427 Q2157.61 288.427 2154.53 285.742 Q2151.47 283.057 2151.47 278.034 Q2151.47 274.723 2153.37 272.432 Q2155.27 270.14 2158.65 269.353 M2156.93 261.969 Q2156.93 264.654 2158.6 266.159 Q2160.29 267.663 2163.32 267.663 Q2166.33 267.663 2168.02 266.159 Q2169.74 264.654 2169.74 261.969 Q2169.74 259.284 2168.02 257.779 Q2166.33 256.274 2163.32 256.274 Q2160.29 256.274 2158.6 257.779 Q2156.93 259.284 2156.93 261.969 Z" fill="#000000" fill-rule="evenodd" fill-opacity="1" /><path clip-path="url(#clip090)" d="M2193.49 256.274 Q2189.87 256.274 2188.05 259.839 Q2186.24 263.381 2186.24 270.51 Q2186.24 277.617 2188.05 281.182 Q2189.87 284.723 2193.49 284.723 Q2197.12 284.723 2198.93 281.182 Q2200.75 277.617 2200.75 270.51 Q2200.75 263.381 2198.93 259.839 Q2197.12 256.274 2193.49 256.274 M2193.49 252.571 Q2199.3 252.571 2202.35 257.177 Q2205.43 261.76 2205.43 270.51 Q2205.43 279.237 2202.35 283.844 Q2199.3 288.427 2193.49 288.427 Q2187.68 288.427 2184.6 283.844 Q2181.54 279.237 2181.54 270.51 Q2181.54 261.76 2184.6 257.177 Q2187.68 252.571 2193.49 252.571 Z" fill="#000000" fill-rule="evenodd" fill-opacity="1" /><path clip-path="url(#clip090)" d="M2223.65 271.344 Q2220.31 271.344 2218.39 273.126 Q2216.49 274.909 2216.49 278.034 Q2216.49 281.159 2218.39 282.941 Q2220.31 284.723 2223.65 284.723 Q2226.98 284.723 2228.9 282.941 Q2230.82 281.135 2230.82 278.034 Q2230.82 274.909 2228.9 273.126 Q2227 271.344 2223.65 271.344 M2218.97 269.353 Q2215.96 268.612 2214.27 266.552 Q2212.61 264.492 2212.61 261.529 Q2212.61 257.386 2215.55 254.978 Q2218.51 252.571 2223.65 252.571 Q2228.81 252.571 2231.75 254.978 Q2234.69 257.386 2234.69 261.529 Q2234.69 264.492 2233 266.552 Q2231.33 268.612 2228.35 269.353 Q2231.73 270.14 2233.6 272.432 Q2235.5 274.723 2235.5 278.034 Q2235.5 283.057 2232.42 285.742 Q2229.36 288.427 2223.65 288.427 Q2217.93 288.427 2214.85 285.742 Q2211.8 283.057 2211.8 278.034 Q2211.8 274.723 2213.69 272.432 Q2215.59 270.14 2218.97 269.353 M2217.26 261.969 Q2217.26 264.654 2218.93 266.159 Q2220.61 267.663 2223.65 267.663 Q2226.66 267.663 2228.35 266.159 Q2230.06 264.654 2230.06 261.969 Q2230.06 259.284 2228.35 257.779 Q2226.66 256.274 2223.65 256.274 Q2220.61 256.274 2218.93 257.779 Q2217.26 259.284 2217.26 261.969 Z" fill="#000000" fill-rule="evenodd" fill-opacity="1" /></svg>
