<?xml version="1.0" encoding="utf-8"?>
<svg xmlns="http://www.w3.org/2000/svg" xmlns:xlink="http://www.w3.org/1999/xlink" width="600" height="400" viewBox="0 0 2400 1600">
<defs>
  <clipPath id="clip050">
    <rect x="0" y="0" width="2400" height="1600"/>
  </clipPath>
</defs>
<path clip-path="url(#clip050)" d="M0 1600 L2400 1600 L2400 0 L0 0  Z" fill="#ffffff" fill-rule="evenodd" fill-opacity="1"/>
<defs>
  <clipPath id="clip051">
    <rect x="480" y="0" width="1681" height="1600"/>
  </clipPath>
</defs>
<path clip-path="url(#clip050)" d="M242.135 1423.18 L2352.76 1423.18 L2352.76 123.472 L242.135 123.472  Z" fill="#ffffff" fill-rule="evenodd" fill-opacity="1"/>
<defs>
  <clipPath id="clip052">
    <rect x="242" y="123" width="2112" height="1301"/>
  </clipPath>
</defs>
<polyline clip-path="url(#clip052)" style="stroke:#000000; stroke-linecap:round; stroke-linejoin:round; stroke-width:2; stroke-opacity:0.1; fill:none" points="467.385,1423.18 467.385,123.472 "/>
<polyline clip-path="url(#clip052)" style="stroke:#000000; stroke-linecap:round; stroke-linejoin:round; stroke-width:2; stroke-opacity:0.1; fill:none" points="881.174,1423.18 881.174,123.472 "/>
<polyline clip-path="url(#clip052)" style="stroke:#000000; stroke-linecap:round; stroke-linejoin:round; stroke-width:2; stroke-opacity:0.1; fill:none" points="1294.96,1423.18 1294.96,123.472 "/>
<polyline clip-path="url(#clip052)" style="stroke:#000000; stroke-linecap:round; stroke-linejoin:round; stroke-width:2; stroke-opacity:0.1; fill:none" points="1708.75,1423.18 1708.75,123.472 "/>
<polyline clip-path="url(#clip052)" style="stroke:#000000; stroke-linecap:round; stroke-linejoin:round; stroke-width:2; stroke-opacity:0.1; fill:none" points="2122.54,1423.18 2122.54,123.472 "/>
<polyline clip-path="url(#clip050)" style="stroke:#000000; stroke-linecap:round; stroke-linejoin:round; stroke-width:4; stroke-opacity:1; fill:none" points="242.135,1423.18 2352.76,1423.18 "/>
<polyline clip-path="url(#clip050)" style="stroke:#000000; stroke-linecap:round; stroke-linejoin:round; stroke-width:4; stroke-opacity:1; fill:none" points="467.385,1423.18 467.385,1404.28 "/>
<polyline clip-path="url(#clip050)" style="stroke:#000000; stroke-linecap:round; stroke-linejoin:round; stroke-width:4; stroke-opacity:1; fill:none" points="881.174,1423.18 881.174,1404.28 "/>
<polyline clip-path="url(#clip050)" style="stroke:#000000; stroke-linecap:round; stroke-linejoin:round; stroke-width:4; stroke-opacity:1; fill:none" points="1294.96,1423.18 1294.96,1404.28 "/>
<polyline clip-path="url(#clip050)" style="stroke:#000000; stroke-linecap:round; stroke-linejoin:round; stroke-width:4; stroke-opacity:1; fill:none" points="1708.75,1423.18 1708.75,1404.28 "/>
<polyline clip-path="url(#clip050)" style="stroke:#000000; stroke-linecap:round; stroke-linejoin:round; stroke-width:4; stroke-opacity:1; fill:none" points="2122.54,1423.18 2122.54,1404.28 "/>
<path clip-path="url(#clip050)" d="M411.911 1481.64 L419.549 1481.64 L419.549 1455.28 L411.239 1456.95 L411.239 1452.69 L419.503 1451.02 L424.179 1451.02 L424.179 1481.64 L431.818 1481.64 L431.818 1485.58 L411.911 1485.58 L411.911 1481.64 Z" fill="#000000" fill-rule="evenodd" fill-opacity="1" /><path clip-path="url(#clip050)" d="M451.262 1454.1 Q447.651 1454.1 445.822 1457.66 Q444.017 1461.2 444.017 1468.33 Q444.017 1475.44 445.822 1479.01 Q447.651 1482.55 451.262 1482.55 Q454.896 1482.55 456.702 1479.01 Q458.531 1475.44 458.531 1468.33 Q458.531 1461.2 456.702 1457.66 Q454.896 1454.1 451.262 1454.1 M451.262 1450.39 Q457.072 1450.39 460.128 1455 Q463.207 1459.58 463.207 1468.33 Q463.207 1477.06 460.128 1481.67 Q457.072 1486.25 451.262 1486.25 Q445.452 1486.25 442.373 1481.67 Q439.318 1477.06 439.318 1468.33 Q439.318 1459.58 442.373 1455 Q445.452 1450.39 451.262 1450.39 Z" fill="#000000" fill-rule="evenodd" fill-opacity="1" /><path clip-path="url(#clip050)" d="M481.424 1454.1 Q477.813 1454.1 475.984 1457.66 Q474.179 1461.2 474.179 1468.33 Q474.179 1475.44 475.984 1479.01 Q477.813 1482.55 481.424 1482.55 Q485.058 1482.55 486.864 1479.01 Q488.693 1475.44 488.693 1468.33 Q488.693 1461.2 486.864 1457.66 Q485.058 1454.1 481.424 1454.1 M481.424 1450.39 Q487.234 1450.39 490.29 1455 Q493.368 1459.58 493.368 1468.33 Q493.368 1477.06 490.29 1481.67 Q487.234 1486.25 481.424 1486.25 Q475.614 1486.25 472.535 1481.67 Q469.48 1477.06 469.48 1468.33 Q469.48 1459.58 472.535 1455 Q475.614 1450.39 481.424 1450.39 Z" fill="#000000" fill-rule="evenodd" fill-opacity="1" /><path clip-path="url(#clip050)" d="M511.586 1454.1 Q507.975 1454.1 506.146 1457.66 Q504.341 1461.2 504.341 1468.33 Q504.341 1475.44 506.146 1479.01 Q507.975 1482.55 511.586 1482.55 Q515.22 1482.55 517.026 1479.01 Q518.854 1475.44 518.854 1468.33 Q518.854 1461.2 517.026 1457.66 Q515.22 1454.1 511.586 1454.1 M511.586 1450.39 Q517.396 1450.39 520.452 1455 Q523.53 1459.58 523.53 1468.33 Q523.53 1477.06 520.452 1481.67 Q517.396 1486.25 511.586 1486.25 Q505.776 1486.25 502.697 1481.67 Q499.642 1477.06 499.642 1468.33 Q499.642 1459.58 502.697 1455 Q505.776 1450.39 511.586 1450.39 Z" fill="#000000" fill-rule="evenodd" fill-opacity="1" /><path clip-path="url(#clip050)" d="M825.699 1481.64 L833.338 1481.64 L833.338 1455.28 L825.028 1456.95 L825.028 1452.69 L833.292 1451.02 L837.968 1451.02 L837.968 1481.64 L845.607 1481.64 L845.607 1485.58 L825.699 1485.58 L825.699 1481.64 Z" fill="#000000" fill-rule="evenodd" fill-opacity="1" /><path clip-path="url(#clip050)" d="M855.097 1451.02 L873.454 1451.02 L873.454 1454.96 L859.38 1454.96 L859.38 1463.43 Q860.398 1463.08 861.417 1462.92 Q862.435 1462.73 863.454 1462.73 Q869.241 1462.73 872.62 1465.9 Q876 1469.08 876 1474.49 Q876 1480.07 872.528 1483.17 Q869.056 1486.25 862.736 1486.25 Q860.56 1486.25 858.292 1485.88 Q856.046 1485.51 853.639 1484.77 L853.639 1480.07 Q855.722 1481.2 857.945 1481.76 Q860.167 1482.32 862.644 1482.32 Q866.648 1482.32 868.986 1480.21 Q871.324 1478.1 871.324 1474.49 Q871.324 1470.88 868.986 1468.77 Q866.648 1466.67 862.644 1466.67 Q860.769 1466.67 858.894 1467.08 Q857.042 1467.5 855.097 1468.38 L855.097 1451.02 Z" fill="#000000" fill-rule="evenodd" fill-opacity="1" /><path clip-path="url(#clip050)" d="M895.213 1454.1 Q891.602 1454.1 889.773 1457.66 Q887.968 1461.2 887.968 1468.33 Q887.968 1475.44 889.773 1479.01 Q891.602 1482.55 895.213 1482.55 Q898.847 1482.55 900.653 1479.01 Q902.481 1475.44 902.481 1468.33 Q902.481 1461.2 900.653 1457.66 Q898.847 1454.1 895.213 1454.1 M895.213 1450.39 Q901.023 1450.39 904.079 1455 Q907.157 1459.58 907.157 1468.33 Q907.157 1477.06 904.079 1481.67 Q901.023 1486.25 895.213 1486.25 Q889.403 1486.25 886.324 1481.67 Q883.269 1477.06 883.269 1468.33 Q883.269 1459.58 886.324 1455 Q889.403 1450.39 895.213 1450.39 Z" fill="#000000" fill-rule="evenodd" fill-opacity="1" /><path clip-path="url(#clip050)" d="M925.375 1454.1 Q921.764 1454.1 919.935 1457.66 Q918.129 1461.2 918.129 1468.33 Q918.129 1475.44 919.935 1479.01 Q921.764 1482.55 925.375 1482.55 Q929.009 1482.55 930.815 1479.01 Q932.643 1475.44 932.643 1468.33 Q932.643 1461.2 930.815 1457.66 Q929.009 1454.1 925.375 1454.1 M925.375 1450.39 Q931.185 1450.39 934.241 1455 Q937.319 1459.58 937.319 1468.33 Q937.319 1477.06 934.241 1481.67 Q931.185 1486.25 925.375 1486.25 Q919.565 1486.25 916.486 1481.67 Q913.43 1477.06 913.43 1468.33 Q913.43 1459.58 916.486 1455 Q919.565 1450.39 925.375 1450.39 Z" fill="#000000" fill-rule="evenodd" fill-opacity="1" /><path clip-path="url(#clip050)" d="M1243.57 1481.64 L1259.89 1481.64 L1259.89 1485.58 L1237.95 1485.58 L1237.95 1481.64 Q1240.61 1478.89 1245.19 1474.26 Q1249.8 1469.61 1250.98 1468.27 Q1253.23 1465.74 1254.11 1464.01 Q1255.01 1462.25 1255.01 1460.56 Q1255.01 1457.8 1253.06 1456.07 Q1251.14 1454.33 1248.04 1454.33 Q1245.84 1454.33 1243.39 1455.09 Q1240.96 1455.86 1238.18 1457.41 L1238.18 1452.69 Q1241 1451.55 1243.46 1450.97 Q1245.91 1450.39 1247.95 1450.39 Q1253.32 1450.39 1256.51 1453.08 Q1259.71 1455.77 1259.71 1460.26 Q1259.71 1462.39 1258.9 1464.31 Q1258.11 1466.2 1256 1468.8 Q1255.43 1469.47 1252.32 1472.69 Q1249.22 1475.88 1243.57 1481.64 Z" fill="#000000" fill-rule="evenodd" fill-opacity="1" /><path clip-path="url(#clip050)" d="M1279.71 1454.1 Q1276.1 1454.1 1274.27 1457.66 Q1272.46 1461.2 1272.46 1468.33 Q1272.46 1475.44 1274.27 1479.01 Q1276.1 1482.55 1279.71 1482.55 Q1283.34 1482.55 1285.15 1479.01 Q1286.98 1475.44 1286.98 1468.33 Q1286.98 1461.2 1285.15 1457.66 Q1283.34 1454.1 1279.71 1454.1 M1279.71 1450.39 Q1285.52 1450.39 1288.57 1455 Q1291.65 1459.58 1291.65 1468.33 Q1291.65 1477.06 1288.57 1481.67 Q1285.52 1486.25 1279.71 1486.25 Q1273.9 1486.25 1270.82 1481.67 Q1267.76 1477.06 1267.76 1468.33 Q1267.76 1459.58 1270.82 1455 Q1273.9 1450.39 1279.71 1450.39 Z" fill="#000000" fill-rule="evenodd" fill-opacity="1" /><path clip-path="url(#clip050)" d="M1309.87 1454.1 Q1306.26 1454.1 1304.43 1457.66 Q1302.62 1461.2 1302.62 1468.33 Q1302.62 1475.44 1304.43 1479.01 Q1306.26 1482.55 1309.87 1482.55 Q1313.5 1482.55 1315.31 1479.01 Q1317.14 1475.44 1317.14 1468.33 Q1317.14 1461.2 1315.31 1457.66 Q1313.5 1454.1 1309.87 1454.1 M1309.87 1450.39 Q1315.68 1450.39 1318.74 1455 Q1321.81 1459.58 1321.81 1468.33 Q1321.81 1477.06 1318.74 1481.67 Q1315.68 1486.25 1309.87 1486.25 Q1304.06 1486.25 1300.98 1481.67 Q1297.93 1477.06 1297.93 1468.33 Q1297.93 1459.58 1300.98 1455 Q1304.06 1450.39 1309.87 1450.39 Z" fill="#000000" fill-rule="evenodd" fill-opacity="1" /><path clip-path="url(#clip050)" d="M1340.03 1454.1 Q1336.42 1454.1 1334.59 1457.66 Q1332.79 1461.2 1332.79 1468.33 Q1332.79 1475.44 1334.59 1479.01 Q1336.42 1482.55 1340.03 1482.55 Q1343.67 1482.55 1345.47 1479.01 Q1347.3 1475.44 1347.3 1468.33 Q1347.3 1461.2 1345.47 1457.66 Q1343.67 1454.1 1340.03 1454.1 M1340.03 1450.39 Q1345.84 1450.39 1348.9 1455 Q1351.98 1459.58 1351.98 1468.33 Q1351.98 1477.06 1348.9 1481.67 Q1345.84 1486.25 1340.03 1486.25 Q1334.22 1486.25 1331.14 1481.67 Q1328.09 1477.06 1328.09 1468.33 Q1328.09 1459.58 1331.14 1455 Q1334.22 1450.39 1340.03 1450.39 Z" fill="#000000" fill-rule="evenodd" fill-opacity="1" /><path clip-path="url(#clip050)" d="M1657.36 1481.64 L1673.68 1481.64 L1673.68 1485.58 L1651.74 1485.58 L1651.74 1481.64 Q1654.4 1478.89 1658.98 1474.26 Q1663.59 1469.61 1664.77 1468.27 Q1667.02 1465.74 1667.9 1464.01 Q1668.8 1462.25 1668.8 1460.56 Q1668.8 1457.8 1666.85 1456.07 Q1664.93 1454.33 1661.83 1454.33 Q1659.63 1454.33 1657.18 1455.09 Q1654.75 1455.86 1651.97 1457.41 L1651.97 1452.69 Q1654.79 1451.55 1657.25 1450.97 Q1659.7 1450.39 1661.74 1450.39 Q1667.11 1450.39 1670.3 1453.08 Q1673.5 1455.77 1673.5 1460.26 Q1673.5 1462.39 1672.69 1464.31 Q1671.9 1466.2 1669.79 1468.8 Q1669.21 1469.47 1666.11 1472.69 Q1663.01 1475.88 1657.36 1481.64 Z" fill="#000000" fill-rule="evenodd" fill-opacity="1" /><path clip-path="url(#clip050)" d="M1683.54 1451.02 L1701.9 1451.02 L1701.9 1454.96 L1687.83 1454.96 L1687.83 1463.43 Q1688.84 1463.08 1689.86 1462.92 Q1690.88 1462.73 1691.9 1462.73 Q1697.69 1462.73 1701.07 1465.9 Q1704.45 1469.08 1704.45 1474.49 Q1704.45 1480.07 1700.97 1483.17 Q1697.5 1486.25 1691.18 1486.25 Q1689.01 1486.25 1686.74 1485.88 Q1684.49 1485.51 1682.08 1484.77 L1682.08 1480.07 Q1684.17 1481.2 1686.39 1481.76 Q1688.61 1482.32 1691.09 1482.32 Q1695.09 1482.32 1697.43 1480.21 Q1699.77 1478.1 1699.77 1474.49 Q1699.77 1470.88 1697.43 1468.77 Q1695.09 1466.67 1691.09 1466.67 Q1689.21 1466.67 1687.34 1467.08 Q1685.49 1467.5 1683.54 1468.38 L1683.54 1451.02 Z" fill="#000000" fill-rule="evenodd" fill-opacity="1" /><path clip-path="url(#clip050)" d="M1723.66 1454.1 Q1720.05 1454.1 1718.22 1457.66 Q1716.41 1461.2 1716.41 1468.33 Q1716.41 1475.44 1718.22 1479.01 Q1720.05 1482.55 1723.66 1482.55 Q1727.29 1482.55 1729.1 1479.01 Q1730.93 1475.44 1730.93 1468.33 Q1730.93 1461.2 1729.1 1457.66 Q1727.29 1454.1 1723.66 1454.1 M1723.66 1450.39 Q1729.47 1450.39 1732.52 1455 Q1735.6 1459.58 1735.6 1468.33 Q1735.6 1477.06 1732.52 1481.67 Q1729.47 1486.25 1723.66 1486.25 Q1717.85 1486.25 1714.77 1481.67 Q1711.71 1477.06 1711.71 1468.33 Q1711.71 1459.58 1714.77 1455 Q1717.85 1450.39 1723.66 1450.39 Z" fill="#000000" fill-rule="evenodd" fill-opacity="1" /><path clip-path="url(#clip050)" d="M1753.82 1454.1 Q1750.21 1454.1 1748.38 1457.66 Q1746.58 1461.2 1746.58 1468.33 Q1746.58 1475.44 1748.38 1479.01 Q1750.21 1482.55 1753.82 1482.55 Q1757.45 1482.55 1759.26 1479.01 Q1761.09 1475.44 1761.09 1468.33 Q1761.09 1461.2 1759.26 1457.66 Q1757.45 1454.1 1753.82 1454.1 M1753.82 1450.39 Q1759.63 1450.39 1762.69 1455 Q1765.77 1459.58 1765.77 1468.33 Q1765.77 1477.06 1762.69 1481.67 Q1759.63 1486.25 1753.82 1486.25 Q1748.01 1486.25 1744.93 1481.67 Q1741.88 1477.06 1741.88 1468.33 Q1741.88 1459.58 1744.93 1455 Q1748.01 1450.39 1753.82 1450.39 Z" fill="#000000" fill-rule="evenodd" fill-opacity="1" /><path clip-path="url(#clip050)" d="M2081.22 1466.95 Q2084.58 1467.66 2086.45 1469.93 Q2088.35 1472.2 2088.35 1475.53 Q2088.35 1480.65 2084.83 1483.45 Q2081.31 1486.25 2074.83 1486.25 Q2072.66 1486.25 2070.34 1485.81 Q2068.05 1485.39 2065.6 1484.54 L2065.6 1480.02 Q2067.54 1481.16 2069.86 1481.74 Q2072.17 1482.32 2074.69 1482.32 Q2079.09 1482.32 2081.38 1480.58 Q2083.7 1478.84 2083.7 1475.53 Q2083.7 1472.48 2081.55 1470.77 Q2079.42 1469.03 2075.6 1469.03 L2071.57 1469.03 L2071.57 1465.19 L2075.78 1465.19 Q2079.23 1465.19 2081.06 1463.82 Q2082.89 1462.43 2082.89 1459.84 Q2082.89 1457.18 2080.99 1455.77 Q2079.11 1454.33 2075.6 1454.33 Q2073.67 1454.33 2071.48 1454.75 Q2069.28 1455.16 2066.64 1456.04 L2066.64 1451.88 Q2069.3 1451.14 2071.61 1450.77 Q2073.95 1450.39 2076.01 1450.39 Q2081.34 1450.39 2084.44 1452.83 Q2087.54 1455.23 2087.54 1459.35 Q2087.54 1462.22 2085.9 1464.21 Q2084.25 1466.18 2081.22 1466.95 Z" fill="#000000" fill-rule="evenodd" fill-opacity="1" /><path clip-path="url(#clip050)" d="M2107.22 1454.1 Q2103.61 1454.1 2101.78 1457.66 Q2099.97 1461.2 2099.97 1468.33 Q2099.97 1475.44 2101.78 1479.01 Q2103.61 1482.55 2107.22 1482.55 Q2110.85 1482.55 2112.66 1479.01 Q2114.48 1475.44 2114.48 1468.33 Q2114.48 1461.2 2112.66 1457.66 Q2110.85 1454.1 2107.22 1454.1 M2107.22 1450.39 Q2113.03 1450.39 2116.08 1455 Q2119.16 1459.58 2119.16 1468.33 Q2119.16 1477.06 2116.08 1481.67 Q2113.03 1486.25 2107.22 1486.25 Q2101.41 1486.25 2098.33 1481.67 Q2095.27 1477.06 2095.27 1468.33 Q2095.27 1459.58 2098.33 1455 Q2101.41 1450.39 2107.22 1450.39 Z" fill="#000000" fill-rule="evenodd" fill-opacity="1" /><path clip-path="url(#clip050)" d="M2137.38 1454.1 Q2133.77 1454.1 2131.94 1457.66 Q2130.13 1461.2 2130.13 1468.33 Q2130.13 1475.44 2131.94 1479.01 Q2133.77 1482.55 2137.38 1482.55 Q2141.01 1482.55 2142.82 1479.01 Q2144.65 1475.44 2144.65 1468.33 Q2144.65 1461.2 2142.82 1457.66 Q2141.01 1454.1 2137.38 1454.1 M2137.38 1450.39 Q2143.19 1450.39 2146.24 1455 Q2149.32 1459.58 2149.32 1468.33 Q2149.32 1477.06 2146.24 1481.67 Q2143.19 1486.25 2137.38 1486.25 Q2131.57 1486.25 2128.49 1481.67 Q2125.43 1477.06 2125.43 1468.33 Q2125.43 1459.58 2128.49 1455 Q2131.57 1450.39 2137.38 1450.39 Z" fill="#000000" fill-rule="evenodd" fill-opacity="1" /><path clip-path="url(#clip050)" d="M2167.54 1454.1 Q2163.93 1454.1 2162.1 1457.66 Q2160.29 1461.2 2160.29 1468.33 Q2160.29 1475.44 2162.1 1479.01 Q2163.93 1482.55 2167.54 1482.55 Q2171.17 1482.55 2172.98 1479.01 Q2174.81 1475.44 2174.81 1468.33 Q2174.81 1461.2 2172.98 1457.66 Q2171.17 1454.1 2167.54 1454.1 M2167.54 1450.39 Q2173.35 1450.39 2176.41 1455 Q2179.48 1459.58 2179.48 1468.33 Q2179.48 1477.06 2176.41 1481.67 Q2173.35 1486.25 2167.54 1486.25 Q2161.73 1486.25 2158.65 1481.67 Q2155.6 1477.06 2155.6 1468.33 Q2155.6 1459.58 2158.65 1455 Q2161.73 1450.39 2167.54 1450.39 Z" fill="#000000" fill-rule="evenodd" fill-opacity="1" /><path clip-path="url(#clip050)" d="M1251.09 1526.86 L1242.37 1550.51 L1259.84 1550.51 L1251.09 1526.86 M1247.46 1520.52 L1254.75 1520.52 L1272.86 1568.04 L1266.17 1568.04 L1261.85 1555.85 L1240.42 1555.85 L1236.1 1568.04 L1229.32 1568.04 L1247.46 1520.52 Z" fill="#000000" fill-rule="evenodd" fill-opacity="1" /><path clip-path="url(#clip050)" d="M1286.23 1525.81 L1286.23 1562.76 L1293.99 1562.76 Q1303.83 1562.76 1308.38 1558.3 Q1312.96 1553.85 1312.96 1544.24 Q1312.96 1534.69 1308.38 1530.26 Q1303.83 1525.81 1293.99 1525.81 L1286.23 1525.81 M1279.8 1520.52 L1293.01 1520.52 Q1306.82 1520.52 1313.28 1526.28 Q1319.74 1532.01 1319.74 1544.24 Q1319.74 1556.52 1313.25 1562.28 Q1306.76 1568.04 1293.01 1568.04 L1279.8 1568.04 L1279.8 1520.52 Z" fill="#000000" fill-rule="evenodd" fill-opacity="1" /><path clip-path="url(#clip050)" d="M1365.57 1524.18 L1365.57 1530.96 Q1362.33 1527.94 1358.64 1526.44 Q1354.98 1524.95 1350.84 1524.95 Q1342.69 1524.95 1338.36 1529.95 Q1334.03 1534.91 1334.03 1544.33 Q1334.03 1553.72 1338.36 1558.72 Q1342.69 1563.68 1350.84 1563.68 Q1354.98 1563.68 1358.64 1562.19 Q1362.33 1560.69 1365.57 1557.67 L1365.57 1564.38 Q1362.2 1566.68 1358.41 1567.82 Q1354.66 1568.97 1350.46 1568.97 Q1339.67 1568.97 1333.46 1562.38 Q1327.25 1555.76 1327.25 1544.33 Q1327.25 1532.87 1333.46 1526.28 Q1339.67 1519.66 1350.46 1519.66 Q1354.72 1519.66 1358.48 1520.81 Q1362.26 1521.92 1365.57 1524.18 Z" fill="#000000" fill-rule="evenodd" fill-opacity="1" /><polyline clip-path="url(#clip052)" style="stroke:#000000; stroke-linecap:round; stroke-linejoin:round; stroke-width:2; stroke-opacity:0.1; fill:none" points="242.135,1385.02 2352.76,1385.02 "/>
<polyline clip-path="url(#clip052)" style="stroke:#000000; stroke-linecap:round; stroke-linejoin:round; stroke-width:2; stroke-opacity:0.1; fill:none" points="242.135,1180.89 2352.76,1180.89 "/>
<polyline clip-path="url(#clip052)" style="stroke:#000000; stroke-linecap:round; stroke-linejoin:round; stroke-width:2; stroke-opacity:0.1; fill:none" points="242.135,976.763 2352.76,976.763 "/>
<polyline clip-path="url(#clip052)" style="stroke:#000000; stroke-linecap:round; stroke-linejoin:round; stroke-width:2; stroke-opacity:0.1; fill:none" points="242.135,772.637 2352.76,772.637 "/>
<polyline clip-path="url(#clip052)" style="stroke:#000000; stroke-linecap:round; stroke-linejoin:round; stroke-width:2; stroke-opacity:0.1; fill:none" points="242.135,568.51 2352.76,568.51 "/>
<polyline clip-path="url(#clip052)" style="stroke:#000000; stroke-linecap:round; stroke-linejoin:round; stroke-width:2; stroke-opacity:0.1; fill:none" points="242.135,364.383 2352.76,364.383 "/>
<polyline clip-path="url(#clip052)" style="stroke:#000000; stroke-linecap:round; stroke-linejoin:round; stroke-width:2; stroke-opacity:0.1; fill:none" points="242.135,160.256 2352.76,160.256 "/>
<polyline clip-path="url(#clip050)" style="stroke:#000000; stroke-linecap:round; stroke-linejoin:round; stroke-width:4; stroke-opacity:1; fill:none" points="242.135,1423.18 242.135,123.472 "/>
<polyline clip-path="url(#clip050)" style="stroke:#000000; stroke-linecap:round; stroke-linejoin:round; stroke-width:4; stroke-opacity:1; fill:none" points="242.135,1385.02 261.032,1385.02 "/>
<polyline clip-path="url(#clip050)" style="stroke:#000000; stroke-linecap:round; stroke-linejoin:round; stroke-width:4; stroke-opacity:1; fill:none" points="242.135,1180.89 261.032,1180.89 "/>
<polyline clip-path="url(#clip050)" style="stroke:#000000; stroke-linecap:round; stroke-linejoin:round; stroke-width:4; stroke-opacity:1; fill:none" points="242.135,976.763 261.032,976.763 "/>
<polyline clip-path="url(#clip050)" style="stroke:#000000; stroke-linecap:round; stroke-linejoin:round; stroke-width:4; stroke-opacity:1; fill:none" points="242.135,772.637 261.032,772.637 "/>
<polyline clip-path="url(#clip050)" style="stroke:#000000; stroke-linecap:round; stroke-linejoin:round; stroke-width:4; stroke-opacity:1; fill:none" points="242.135,568.51 261.032,568.51 "/>
<polyline clip-path="url(#clip050)" style="stroke:#000000; stroke-linecap:round; stroke-linejoin:round; stroke-width:4; stroke-opacity:1; fill:none" points="242.135,364.383 261.032,364.383 "/>
<polyline clip-path="url(#clip050)" style="stroke:#000000; stroke-linecap:round; stroke-linejoin:round; stroke-width:4; stroke-opacity:1; fill:none" points="242.135,160.256 261.032,160.256 "/>
<path clip-path="url(#clip050)" d="M114.26 1385.47 L143.936 1385.47 L143.936 1389.4 L114.26 1389.4 L114.26 1385.47 Z" fill="#000000" fill-rule="evenodd" fill-opacity="1" /><path clip-path="url(#clip050)" d="M164.607 1383.15 Q161.459 1383.15 159.607 1385.31 Q157.778 1387.46 157.778 1391.21 Q157.778 1394.94 159.607 1397.11 Q161.459 1399.26 164.607 1399.26 Q167.755 1399.26 169.584 1397.11 Q171.436 1394.94 171.436 1391.21 Q171.436 1387.46 169.584 1385.31 Q167.755 1383.15 164.607 1383.15 M173.889 1368.5 L173.889 1372.76 Q172.13 1371.93 170.325 1371.49 Q168.542 1371.05 166.783 1371.05 Q162.153 1371.05 159.7 1374.17 Q157.269 1377.3 156.922 1383.62 Q158.288 1381.6 160.348 1380.54 Q162.408 1379.45 164.885 1379.45 Q170.093 1379.45 173.102 1382.62 Q176.135 1385.77 176.135 1391.21 Q176.135 1396.53 172.987 1399.75 Q169.839 1402.97 164.607 1402.97 Q158.612 1402.97 155.44 1398.39 Q152.269 1393.78 152.269 1385.05 Q152.269 1376.86 156.158 1372 Q160.047 1367.11 166.598 1367.11 Q168.357 1367.11 170.139 1367.46 Q171.945 1367.81 173.889 1368.5 Z" fill="#000000" fill-rule="evenodd" fill-opacity="1" /><path clip-path="url(#clip050)" d="M194.19 1370.82 Q190.579 1370.82 188.75 1374.38 Q186.945 1377.92 186.945 1385.05 Q186.945 1392.16 188.75 1395.72 Q190.579 1399.26 194.19 1399.26 Q197.825 1399.26 199.63 1395.72 Q201.459 1392.16 201.459 1385.05 Q201.459 1377.92 199.63 1374.38 Q197.825 1370.82 194.19 1370.82 M194.19 1367.11 Q200 1367.11 203.056 1371.72 Q206.135 1376.3 206.135 1385.05 Q206.135 1393.78 203.056 1398.39 Q200 1402.97 194.19 1402.97 Q188.38 1402.97 185.301 1398.39 Q182.246 1393.78 182.246 1385.05 Q182.246 1376.3 185.301 1371.72 Q188.38 1367.11 194.19 1367.11 Z" fill="#000000" fill-rule="evenodd" fill-opacity="1" /><path clip-path="url(#clip050)" d="M114.26 1181.34 L143.936 1181.34 L143.936 1185.28 L114.26 1185.28 L114.26 1181.34 Z" fill="#000000" fill-rule="evenodd" fill-opacity="1" /><path clip-path="url(#clip050)" d="M154.075 1163.61 L172.431 1163.61 L172.431 1167.55 L158.357 1167.55 L158.357 1176.02 Q159.376 1175.67 160.394 1175.51 Q161.413 1175.32 162.431 1175.32 Q168.218 1175.32 171.598 1178.49 Q174.977 1181.67 174.977 1187.08 Q174.977 1192.66 171.505 1195.76 Q168.033 1198.84 161.714 1198.84 Q159.538 1198.84 157.269 1198.47 Q155.024 1198.1 152.616 1197.36 L152.616 1192.66 Q154.7 1193.8 156.922 1194.35 Q159.144 1194.91 161.621 1194.91 Q165.626 1194.91 167.964 1192.8 Q170.302 1190.69 170.302 1187.08 Q170.302 1183.47 167.964 1181.36 Q165.626 1179.26 161.621 1179.26 Q159.746 1179.26 157.871 1179.67 Q156.019 1180.09 154.075 1180.97 L154.075 1163.61 Z" fill="#000000" fill-rule="evenodd" fill-opacity="1" /><path clip-path="url(#clip050)" d="M194.19 1166.69 Q190.579 1166.69 188.75 1170.25 Q186.945 1173.8 186.945 1180.92 Q186.945 1188.03 188.75 1191.6 Q190.579 1195.14 194.19 1195.14 Q197.825 1195.14 199.63 1191.6 Q201.459 1188.03 201.459 1180.92 Q201.459 1173.8 199.63 1170.25 Q197.825 1166.69 194.19 1166.69 M194.19 1162.99 Q200 1162.99 203.056 1167.59 Q206.135 1172.18 206.135 1180.92 Q206.135 1189.65 203.056 1194.26 Q200 1198.84 194.19 1198.84 Q188.38 1198.84 185.301 1194.26 Q182.246 1189.65 182.246 1180.92 Q182.246 1172.18 185.301 1167.59 Q188.38 1162.99 194.19 1162.99 Z" fill="#000000" fill-rule="evenodd" fill-opacity="1" /><path clip-path="url(#clip050)" d="M114.26 977.215 L143.936 977.215 L143.936 981.15 L114.26 981.15 L114.26 977.215 Z" fill="#000000" fill-rule="evenodd" fill-opacity="1" /><path clip-path="url(#clip050)" d="M166.876 963.558 L155.07 982.007 L166.876 982.007 L166.876 963.558 M165.649 959.483 L171.528 959.483 L171.528 982.007 L176.459 982.007 L176.459 985.895 L171.528 985.895 L171.528 994.043 L166.876 994.043 L166.876 985.895 L151.274 985.895 L151.274 981.382 L165.649 959.483 Z" fill="#000000" fill-rule="evenodd" fill-opacity="1" /><path clip-path="url(#clip050)" d="M194.19 962.562 Q190.579 962.562 188.75 966.127 Q186.945 969.669 186.945 976.798 Q186.945 983.905 188.75 987.469 Q190.579 991.011 194.19 991.011 Q197.825 991.011 199.63 987.469 Q201.459 983.905 201.459 976.798 Q201.459 969.669 199.63 966.127 Q197.825 962.562 194.19 962.562 M194.19 958.858 Q200 958.858 203.056 963.465 Q206.135 968.048 206.135 976.798 Q206.135 985.525 203.056 990.131 Q200 994.715 194.19 994.715 Q188.38 994.715 185.301 990.131 Q182.246 985.525 182.246 976.798 Q182.246 968.048 185.301 963.465 Q188.38 958.858 194.19 958.858 Z" fill="#000000" fill-rule="evenodd" fill-opacity="1" /><path clip-path="url(#clip050)" d="M114.26 773.088 L143.936 773.088 L143.936 777.023 L114.26 777.023 L114.26 773.088 Z" fill="#000000" fill-rule="evenodd" fill-opacity="1" /><path clip-path="url(#clip050)" d="M168.195 771.283 Q171.552 772 173.427 774.269 Q175.325 776.537 175.325 779.87 Q175.325 784.986 171.806 787.787 Q168.288 790.588 161.806 790.588 Q159.63 790.588 157.315 790.148 Q155.024 789.731 152.57 788.875 L152.57 784.361 Q154.515 785.495 156.829 786.074 Q159.144 786.653 161.667 786.653 Q166.065 786.653 168.357 784.917 Q170.672 783.181 170.672 779.87 Q170.672 776.815 168.519 775.102 Q166.39 773.366 162.57 773.366 L158.542 773.366 L158.542 769.523 L162.755 769.523 Q166.204 769.523 168.033 768.158 Q169.862 766.769 169.862 764.176 Q169.862 761.514 167.964 760.102 Q166.089 758.667 162.57 758.667 Q160.649 758.667 158.45 759.084 Q156.251 759.5 153.612 760.38 L153.612 756.213 Q156.274 755.472 158.589 755.102 Q160.927 754.732 162.987 754.732 Q168.311 754.732 171.413 757.162 Q174.514 759.57 174.514 763.69 Q174.514 766.56 172.871 768.551 Q171.227 770.519 168.195 771.283 Z" fill="#000000" fill-rule="evenodd" fill-opacity="1" /><path clip-path="url(#clip050)" d="M194.19 758.435 Q190.579 758.435 188.75 762 Q186.945 765.542 186.945 772.671 Q186.945 779.778 188.75 783.343 Q190.579 786.884 194.19 786.884 Q197.825 786.884 199.63 783.343 Q201.459 779.778 201.459 772.671 Q201.459 765.542 199.63 762 Q197.825 758.435 194.19 758.435 M194.19 754.732 Q200 754.732 203.056 759.338 Q206.135 763.921 206.135 772.671 Q206.135 781.398 203.056 786.005 Q200 790.588 194.19 790.588 Q188.38 790.588 185.301 786.005 Q182.246 781.398 182.246 772.671 Q182.246 763.921 185.301 759.338 Q188.38 754.732 194.19 754.732 Z" fill="#000000" fill-rule="evenodd" fill-opacity="1" /><path clip-path="url(#clip050)" d="M114.26 568.961 L143.936 568.961 L143.936 572.896 L114.26 572.896 L114.26 568.961 Z" fill="#000000" fill-rule="evenodd" fill-opacity="1" /><path clip-path="url(#clip050)" d="M158.056 581.855 L174.376 581.855 L174.376 585.79 L152.431 585.79 L152.431 581.855 Q155.093 579.1 159.677 574.471 Q164.283 569.818 165.464 568.475 Q167.709 565.952 168.589 564.216 Q169.491 562.457 169.491 560.767 Q169.491 558.012 167.547 556.276 Q165.626 554.54 162.524 554.54 Q160.325 554.54 157.871 555.304 Q155.44 556.068 152.663 557.619 L152.663 552.897 Q155.487 551.762 157.94 551.184 Q160.394 550.605 162.431 550.605 Q167.802 550.605 170.996 553.29 Q174.19 555.975 174.19 560.466 Q174.19 562.596 173.38 564.517 Q172.593 566.415 170.487 569.008 Q169.908 569.679 166.806 572.896 Q163.704 576.091 158.056 581.855 Z" fill="#000000" fill-rule="evenodd" fill-opacity="1" /><path clip-path="url(#clip050)" d="M194.19 554.309 Q190.579 554.309 188.75 557.873 Q186.945 561.415 186.945 568.545 Q186.945 575.651 188.75 579.216 Q190.579 582.757 194.19 582.757 Q197.825 582.757 199.63 579.216 Q201.459 575.651 201.459 568.545 Q201.459 561.415 199.63 557.873 Q197.825 554.309 194.19 554.309 M194.19 550.605 Q200 550.605 203.056 555.211 Q206.135 559.795 206.135 568.545 Q206.135 577.271 203.056 581.878 Q200 586.461 194.19 586.461 Q188.38 586.461 185.301 581.878 Q182.246 577.271 182.246 568.545 Q182.246 559.795 185.301 555.211 Q188.38 550.605 194.19 550.605 Z" fill="#000000" fill-rule="evenodd" fill-opacity="1" /><path clip-path="url(#clip050)" d="M114.26 364.834 L143.936 364.834 L143.936 368.77 L114.26 368.77 L114.26 364.834 Z" fill="#000000" fill-rule="evenodd" fill-opacity="1" /><path clip-path="url(#clip050)" d="M154.839 377.728 L162.477 377.728 L162.477 351.362 L154.167 353.029 L154.167 348.77 L162.431 347.103 L167.107 347.103 L167.107 377.728 L174.746 377.728 L174.746 381.663 L154.839 381.663 L154.839 377.728 Z" fill="#000000" fill-rule="evenodd" fill-opacity="1" /><path clip-path="url(#clip050)" d="M194.19 350.182 Q190.579 350.182 188.75 353.747 Q186.945 357.288 186.945 364.418 Q186.945 371.524 188.75 375.089 Q190.579 378.631 194.19 378.631 Q197.825 378.631 199.63 375.089 Q201.459 371.524 201.459 364.418 Q201.459 357.288 199.63 353.747 Q197.825 350.182 194.19 350.182 M194.19 346.478 Q200 346.478 203.056 351.085 Q206.135 355.668 206.135 364.418 Q206.135 373.145 203.056 377.751 Q200 382.334 194.19 382.334 Q188.38 382.334 185.301 377.751 Q182.246 373.145 182.246 364.418 Q182.246 355.668 185.301 351.085 Q188.38 346.478 194.19 346.478 Z" fill="#000000" fill-rule="evenodd" fill-opacity="1" /><path clip-path="url(#clip050)" d="M194.19 146.055 Q190.579 146.055 188.75 149.62 Q186.945 153.161 186.945 160.291 Q186.945 167.397 188.75 170.962 Q190.579 174.504 194.19 174.504 Q197.825 174.504 199.63 170.962 Q201.459 167.397 201.459 160.291 Q201.459 153.161 199.63 149.62 Q197.825 146.055 194.19 146.055 M194.19 142.351 Q200 142.351 203.056 146.958 Q206.135 151.541 206.135 160.291 Q206.135 169.018 203.056 173.624 Q200 178.208 194.19 178.208 Q188.38 178.208 185.301 173.624 Q182.246 169.018 182.246 160.291 Q182.246 151.541 185.301 146.958 Q188.38 142.351 194.19 142.351 Z" fill="#000000" fill-rule="evenodd" fill-opacity="1" /><path clip-path="url(#clip050)" d="M33.7671 817.552 L14.479 817.552 L14.479 811.695 L64.0042 811.695 L64.0042 817.552 L58.657 817.552 Q61.8398 819.398 63.3994 822.231 Q64.9272 825.031 64.9272 828.978 Q64.9272 835.439 59.771 839.513 Q54.6147 843.556 46.212 843.556 Q37.8093 843.556 32.6531 839.513 Q27.4968 835.439 27.4968 828.978 Q27.4968 825.031 29.0564 822.231 Q30.5842 819.398 33.7671 817.552 M46.212 837.508 Q52.6732 837.508 56.3653 834.866 Q60.0256 832.193 60.0256 827.546 Q60.0256 822.899 56.3653 820.225 Q52.6732 817.552 46.212 817.552 Q39.7508 817.552 36.0905 820.225 Q32.3984 822.899 32.3984 827.546 Q32.3984 832.193 36.0905 834.866 Q39.7508 837.508 46.212 837.508 Z" fill="#000000" fill-rule="evenodd" fill-opacity="1" /><path clip-path="url(#clip050)" d="M41.3104 792.948 L58.7206 792.948 L58.7206 782.636 Q58.7206 777.448 56.5881 774.965 Q54.4238 772.451 49.9996 772.451 Q45.5436 772.451 43.4429 774.965 Q41.3104 777.448 41.3104 782.636 L41.3104 792.948 M21.7677 792.948 L36.0905 792.948 L36.0905 783.432 Q36.0905 778.721 34.34 776.429 Q32.5576 774.106 28.9291 774.106 Q25.3325 774.106 23.5501 776.429 Q21.7677 778.721 21.7677 783.432 L21.7677 792.948 M16.4842 799.378 L16.4842 782.954 Q16.4842 775.602 19.5397 771.623 Q22.5952 767.645 28.2289 767.645 Q32.5894 767.645 35.1675 769.682 Q37.7456 771.719 38.3822 775.665 Q39.4007 770.923 42.6472 768.313 Q45.8619 765.671 50.6998 765.671 Q57.0655 765.671 60.5348 770 Q64.0042 774.329 64.0042 782.318 L64.0042 799.378 L16.4842 799.378 Z" fill="#000000" fill-rule="evenodd" fill-opacity="1" /><path clip-path="url(#clip050)" d="M35.1993 727.159 Q31.2526 724.963 29.3747 721.907 Q27.4968 718.851 27.4968 714.714 Q27.4968 709.144 31.4117 706.12 Q35.2948 703.096 42.4881 703.096 L64.0042 703.096 L64.0042 708.985 L42.679 708.985 Q37.5546 708.985 35.072 710.799 Q32.5894 712.613 32.5894 716.337 Q32.5894 720.888 35.6131 723.53 Q38.6368 726.172 43.8567 726.172 L64.0042 726.172 L64.0042 732.06 L42.679 732.06 Q37.5228 732.06 35.072 733.875 Q32.5894 735.689 32.5894 739.476 Q32.5894 743.964 35.6449 746.606 Q38.6686 749.248 43.8567 749.248 L64.0042 749.248 L64.0042 755.136 L28.3562 755.136 L28.3562 749.248 L33.8944 749.248 Q30.616 747.243 29.0564 744.442 Q27.4968 741.641 27.4968 737.789 Q27.4968 733.906 29.4702 731.201 Q31.4436 728.464 35.1993 727.159 Z" fill="#000000" fill-rule="evenodd" fill-opacity="1" /><path clip-path="url(#clip050)" d="M1135.11 39.9662 Q1140.98 41.222 1144.26 45.1919 Q1147.58 49.1618 1147.58 54.9951 Q1147.58 63.9476 1141.42 68.8492 Q1135.27 73.7508 1123.92 73.7508 Q1120.12 73.7508 1116.07 72.9811 Q1112.06 72.2519 1107.76 70.7531 L1107.76 62.8538 Q1111.16 64.8388 1115.22 65.8515 Q1119.27 66.8642 1123.68 66.8642 Q1131.38 66.8642 1135.39 63.826 Q1139.44 60.7879 1139.44 54.9951 Q1139.44 49.6479 1135.67 46.6502 Q1131.95 43.612 1125.26 43.612 L1118.21 43.612 L1118.21 36.8875 L1125.59 36.8875 Q1131.62 36.8875 1134.82 34.4975 Q1138.02 32.067 1138.02 27.5299 Q1138.02 22.8714 1134.7 20.4004 Q1131.42 17.8888 1125.26 17.8888 Q1121.9 17.8888 1118.05 18.618 Q1114.2 19.3471 1109.58 20.8865 L1109.58 13.5948 Q1114.24 12.2985 1118.29 11.6504 Q1122.39 11.0023 1125.99 11.0023 Q1135.31 11.0023 1140.74 15.2557 Q1146.16 19.4686 1146.16 26.6793 Q1146.16 31.7024 1143.29 35.1862 Q1140.41 38.6294 1135.11 39.9662 Z" fill="#000000" fill-rule="evenodd" fill-opacity="1" /><path clip-path="url(#clip050)" d="M1188.33 34.1734 Q1187.08 33.4443 1185.58 33.1202 Q1184.12 32.7556 1182.34 32.7556 Q1176.02 32.7556 1172.62 36.8875 Q1169.25 40.9789 1169.25 48.6757 L1169.25 72.576 L1161.76 72.576 L1161.76 27.2059 L1169.25 27.2059 L1169.25 34.2544 Q1171.6 30.1225 1175.37 28.1376 Q1179.14 26.1121 1184.53 26.1121 Q1185.3 26.1121 1186.23 26.2337 Q1187.16 26.3147 1188.29 26.5172 L1188.33 34.1734 Z" fill="#000000" fill-rule="evenodd" fill-opacity="1" /><path clip-path="url(#clip050)" d="M1224.55 34.0924 L1224.55 9.54393 L1232 9.54393 L1232 72.576 L1224.55 72.576 L1224.55 65.7705 Q1222.2 69.8214 1218.59 71.8063 Q1215.03 73.7508 1210.01 73.7508 Q1201.78 73.7508 1196.6 67.1883 Q1191.45 60.6258 1191.45 49.9314 Q1191.45 39.2371 1196.6 32.6746 Q1201.78 26.1121 1210.01 26.1121 Q1215.03 26.1121 1218.59 28.0971 Q1222.2 30.0415 1224.55 34.0924 M1199.15 49.9314 Q1199.15 58.1548 1202.51 62.8538 Q1205.92 67.5124 1211.83 67.5124 Q1217.74 67.5124 1221.15 62.8538 Q1224.55 58.1548 1224.55 49.9314 Q1224.55 41.7081 1221.15 37.0496 Q1217.74 32.3505 1211.83 32.3505 Q1205.92 32.3505 1202.51 37.0496 Q1199.15 41.7081 1199.15 49.9314 Z" fill="#000000" fill-rule="evenodd" fill-opacity="1" /><path clip-path="url(#clip050)" d="M1291.31 32.4315 Q1285.31 32.4315 1281.83 37.1306 Q1278.35 41.7891 1278.35 49.9314 Q1278.35 58.0738 1281.79 62.7728 Q1285.27 67.4314 1291.31 67.4314 Q1297.26 67.4314 1300.75 62.7323 Q1304.23 58.0333 1304.23 49.9314 Q1304.23 41.8701 1300.75 37.1711 Q1297.26 32.4315 1291.31 32.4315 M1291.31 26.1121 Q1301.03 26.1121 1306.58 32.4315 Q1312.13 38.7509 1312.13 49.9314 Q1312.13 61.0714 1306.58 67.4314 Q1301.03 73.7508 1291.31 73.7508 Q1281.55 73.7508 1276 67.4314 Q1270.49 61.0714 1270.49 49.9314 Q1270.49 38.7509 1276 32.4315 Q1281.55 26.1121 1291.31 26.1121 Z" fill="#000000" fill-rule="evenodd" fill-opacity="1" /><path clip-path="url(#clip050)" d="M1350.78 34.1734 Q1349.52 33.4443 1348.02 33.1202 Q1346.56 32.7556 1344.78 32.7556 Q1338.46 32.7556 1335.06 36.8875 Q1331.7 40.9789 1331.7 48.6757 L1331.7 72.576 L1324.2 72.576 L1324.2 27.2059 L1331.7 27.2059 L1331.7 34.2544 Q1334.05 30.1225 1337.81 28.1376 Q1341.58 26.1121 1346.97 26.1121 Q1347.74 26.1121 1348.67 26.2337 Q1349.6 26.3147 1350.73 26.5172 L1350.78 34.1734 Z" fill="#000000" fill-rule="evenodd" fill-opacity="1" /><path clip-path="url(#clip050)" d="M1386.99 34.0924 L1386.99 9.54393 L1394.44 9.54393 L1394.44 72.576 L1386.99 72.576 L1386.99 65.7705 Q1384.64 69.8214 1381.04 71.8063 Q1377.47 73.7508 1372.45 73.7508 Q1364.22 73.7508 1359.04 67.1883 Q1353.89 60.6258 1353.89 49.9314 Q1353.89 39.2371 1359.04 32.6746 Q1364.22 26.1121 1372.45 26.1121 Q1377.47 26.1121 1381.04 28.0971 Q1384.64 30.0415 1386.99 34.0924 M1361.59 49.9314 Q1361.59 58.1548 1364.95 62.8538 Q1368.36 67.5124 1374.27 67.5124 Q1380.19 67.5124 1383.59 62.8538 Q1386.99 58.1548 1386.99 49.9314 Q1386.99 41.7081 1383.59 37.0496 Q1380.19 32.3505 1374.27 32.3505 Q1368.36 32.3505 1364.95 37.0496 Q1361.59 41.7081 1361.59 49.9314 Z" fill="#000000" fill-rule="evenodd" fill-opacity="1" /><path clip-path="url(#clip050)" d="M1448.6 48.0275 L1448.6 51.6733 L1414.33 51.6733 Q1414.82 59.3701 1418.95 63.421 Q1423.12 67.4314 1430.54 67.4314 Q1434.83 67.4314 1438.84 66.3781 Q1442.89 65.3249 1446.86 63.2184 L1446.86 70.267 Q1442.85 71.9684 1438.64 72.8596 Q1434.43 73.7508 1430.09 73.7508 Q1419.24 73.7508 1412.88 67.4314 Q1406.56 61.1119 1406.56 50.3365 Q1406.56 39.1965 1412.55 32.6746 Q1418.59 26.1121 1428.8 26.1121 Q1437.95 26.1121 1443.26 32.0264 Q1448.6 37.9003 1448.6 48.0275 M1441.15 45.84 Q1441.07 39.7232 1437.71 36.0774 Q1434.39 32.4315 1428.88 32.4315 Q1422.64 32.4315 1418.87 35.9558 Q1415.14 39.4801 1414.58 45.8805 L1441.15 45.84 Z" fill="#000000" fill-rule="evenodd" fill-opacity="1" /><path clip-path="url(#clip050)" d="M1487.13 34.1734 Q1485.87 33.4443 1484.37 33.1202 Q1482.92 32.7556 1481.13 32.7556 Q1474.81 32.7556 1471.41 36.8875 Q1468.05 40.9789 1468.05 48.6757 L1468.05 72.576 L1460.55 72.576 L1460.55 27.2059 L1468.05 27.2059 L1468.05 34.2544 Q1470.4 30.1225 1474.17 28.1376 Q1477.93 26.1121 1483.32 26.1121 Q1484.09 26.1121 1485.02 26.2337 Q1485.95 26.3147 1487.09 26.5172 L1487.13 34.1734 Z" fill="#000000" fill-rule="evenodd" fill-opacity="1" /><circle clip-path="url(#clip052)" cx="301.869" cy="160.256" r="14.4" fill="#009af9" fill-rule="evenodd" fill-opacity="1" stroke="#000000" stroke-opacity="1" stroke-width="3.2"/>
<circle clip-path="url(#clip052)" cx="315.938" cy="180.669" r="14.4" fill="#009af9" fill-rule="evenodd" fill-opacity="1" stroke="#000000" stroke-opacity="1" stroke-width="3.2"/>
<circle clip-path="url(#clip052)" cx="339.938" cy="201.082" r="14.4" fill="#009af9" fill-rule="evenodd" fill-opacity="1" stroke="#000000" stroke-opacity="1" stroke-width="3.2"/>
<circle clip-path="url(#clip052)" cx="358.972" cy="221.494" r="14.4" fill="#009af9" fill-rule="evenodd" fill-opacity="1" stroke="#000000" stroke-opacity="1" stroke-width="3.2"/>
<circle clip-path="url(#clip052)" cx="385.455" cy="241.907" r="14.4" fill="#009af9" fill-rule="evenodd" fill-opacity="1" stroke="#000000" stroke-opacity="1" stroke-width="3.2"/>
<circle clip-path="url(#clip052)" cx="416.075" cy="262.32" r="14.4" fill="#009af9" fill-rule="evenodd" fill-opacity="1" stroke="#000000" stroke-opacity="1" stroke-width="3.2"/>
<circle clip-path="url(#clip052)" cx="451.661" cy="282.732" r="14.4" fill="#009af9" fill-rule="evenodd" fill-opacity="1" stroke="#000000" stroke-opacity="1" stroke-width="3.2"/>
<circle clip-path="url(#clip052)" cx="482.281" cy="303.145" r="14.4" fill="#009af9" fill-rule="evenodd" fill-opacity="1" stroke="#000000" stroke-opacity="1" stroke-width="3.2"/>
<circle clip-path="url(#clip052)" cx="517.039" cy="323.558" r="14.4" fill="#009af9" fill-rule="evenodd" fill-opacity="1" stroke="#000000" stroke-opacity="1" stroke-width="3.2"/>
<circle clip-path="url(#clip052)" cx="548.487" cy="343.97" r="14.4" fill="#009af9" fill-rule="evenodd" fill-opacity="1" stroke="#000000" stroke-opacity="1" stroke-width="3.2"/>
<circle clip-path="url(#clip052)" cx="581.591" cy="364.383" r="14.4" fill="#009af9" fill-rule="evenodd" fill-opacity="1" stroke="#000000" stroke-opacity="1" stroke-width="3.2"/>
<circle clip-path="url(#clip052)" cx="733.865" cy="446.034" r="14.4" fill="#009af9" fill-rule="evenodd" fill-opacity="1" stroke="#000000" stroke-opacity="1" stroke-width="3.2"/>
<circle clip-path="url(#clip052)" cx="799.243" cy="486.859" r="14.4" fill="#009af9" fill-rule="evenodd" fill-opacity="1" stroke="#000000" stroke-opacity="1" stroke-width="3.2"/>
<circle clip-path="url(#clip052)" cx="871.243" cy="527.685" r="14.4" fill="#009af9" fill-rule="evenodd" fill-opacity="1" stroke="#000000" stroke-opacity="1" stroke-width="3.2"/>
<circle clip-path="url(#clip052)" cx="949.863" cy="568.51" r="14.4" fill="#009af9" fill-rule="evenodd" fill-opacity="1" stroke="#000000" stroke-opacity="1" stroke-width="3.2"/>
<circle clip-path="url(#clip052)" cx="1014.41" cy="609.335" r="14.4" fill="#009af9" fill-rule="evenodd" fill-opacity="1" stroke="#000000" stroke-opacity="1" stroke-width="3.2"/>
<circle clip-path="url(#clip052)" cx="1110.41" cy="670.573" r="14.4" fill="#009af9" fill-rule="evenodd" fill-opacity="1" stroke="#000000" stroke-opacity="1" stroke-width="3.2"/>
<circle clip-path="url(#clip052)" cx="1292.48" cy="772.637" r="14.4" fill="#009af9" fill-rule="evenodd" fill-opacity="1" stroke="#000000" stroke-opacity="1" stroke-width="3.2"/>
<circle clip-path="url(#clip052)" cx="1474.55" cy="874.7" r="14.4" fill="#009af9" fill-rule="evenodd" fill-opacity="1" stroke="#000000" stroke-opacity="1" stroke-width="3.2"/>
<circle clip-path="url(#clip052)" cx="1616.89" cy="935.938" r="14.4" fill="#009af9" fill-rule="evenodd" fill-opacity="1" stroke="#000000" stroke-opacity="1" stroke-width="3.2"/>
<circle clip-path="url(#clip052)" cx="1753.44" cy="976.763" r="14.4" fill="#009af9" fill-rule="evenodd" fill-opacity="1" stroke="#000000" stroke-opacity="1" stroke-width="3.2"/>
<circle clip-path="url(#clip052)" cx="1835.37" cy="1017.59" r="14.4" fill="#009af9" fill-rule="evenodd" fill-opacity="1" stroke="#000000" stroke-opacity="1" stroke-width="3.2"/>
<circle clip-path="url(#clip052)" cx="1887.51" cy="1058.41" r="14.4" fill="#009af9" fill-rule="evenodd" fill-opacity="1" stroke="#000000" stroke-opacity="1" stroke-width="3.2"/>
<circle clip-path="url(#clip052)" cx="1942.96" cy="1099.24" r="14.4" fill="#009af9" fill-rule="evenodd" fill-opacity="1" stroke="#000000" stroke-opacity="1" stroke-width="3.2"/>
<circle clip-path="url(#clip052)" cx="1994.27" cy="1140.06" r="14.4" fill="#009af9" fill-rule="evenodd" fill-opacity="1" stroke="#000000" stroke-opacity="1" stroke-width="3.2"/>
<circle clip-path="url(#clip052)" cx="2046.4" cy="1180.89" r="14.4" fill="#009af9" fill-rule="evenodd" fill-opacity="1" stroke="#000000" stroke-opacity="1" stroke-width="3.2"/>
<circle clip-path="url(#clip052)" cx="2097.71" cy="1221.72" r="14.4" fill="#009af9" fill-rule="evenodd" fill-opacity="1" stroke="#000000" stroke-opacity="1" stroke-width="3.2"/>
<circle clip-path="url(#clip052)" cx="2134.13" cy="1262.54" r="14.4" fill="#009af9" fill-rule="evenodd" fill-opacity="1" stroke="#000000" stroke-opacity="1" stroke-width="3.2"/>
<circle clip-path="url(#clip052)" cx="2181.3" cy="1303.37" r="14.4" fill="#009af9" fill-rule="evenodd" fill-opacity="1" stroke="#000000" stroke-opacity="1" stroke-width="3.2"/>
<circle clip-path="url(#clip052)" cx="2232.61" cy="1344.19" r="14.4" fill="#009af9" fill-rule="evenodd" fill-opacity="1" stroke="#000000" stroke-opacity="1" stroke-width="3.2"/>
<circle clip-path="url(#clip052)" cx="2293.02" cy="1385.02" r="14.4" fill="#009af9" fill-rule="evenodd" fill-opacity="1" stroke="#000000" stroke-opacity="1" stroke-width="3.2"/>
<polyline clip-path="url(#clip052)" style="stroke:#e26f46; stroke-linecap:round; stroke-linejoin:round; stroke-width:4; stroke-opacity:1; fill:none" points="301.869,168.552 303.862,170.143 305.856,171.731 307.849,173.317 309.842,174.899 311.835,176.48 313.828,178.057 315.821,179.632 317.814,181.204 319.808,182.774 321.801,184.341 323.794,185.906 325.787,187.468 327.78,189.027 329.773,190.584 331.766,192.138 333.76,193.689 335.753,195.238 337.746,196.785 339.739,198.329 341.732,199.87 343.725,201.409 345.718,202.945 347.712,204.479 349.705,206.01 351.698,207.539 353.691,209.065 355.684,210.589 357.677,212.11 359.67,213.629 361.664,215.145 363.657,216.659 365.65,218.17 367.643,219.679 369.636,221.185 371.629,222.689 373.622,224.19 375.616,225.689 377.609,227.186 379.602,228.68 381.595,230.171 383.588,231.66 385.581,233.147 387.574,234.632 389.568,236.114 391.561,237.593 393.554,239.07 395.547,240.545 397.54,242.017 399.533,243.487 401.526,244.955 403.52,246.42 405.513,247.883 407.506,249.344 409.499,250.802 411.492,252.258 413.485,253.711 415.479,255.162 417.472,256.611 419.465,258.058 421.458,259.502 423.451,260.944 425.444,262.383 427.437,263.821 429.431,265.256 431.424,266.688 433.417,268.119 435.41,269.547 437.403,270.973 439.396,272.396 441.389,273.818 443.383,275.237 445.376,276.654 447.369,278.068 449.362,279.481 451.355,280.891 453.348,282.299 455.341,283.704 457.335,285.108 459.328,286.509 461.321,287.908 463.314,289.305 465.307,290.7 467.3,292.092 469.293,293.482 471.287,294.87 473.28,296.256 475.273,297.64 477.266,299.022 479.259,300.401 481.252,301.779 483.245,303.154 485.239,304.527 487.232,305.898 489.225,307.267 491.218,308.633 493.211,309.998 495.204,311.36 497.197,312.721 499.191,314.079 501.184,315.435 503.177,316.789 505.17,318.141 507.163,319.491 509.156,320.839 511.149,322.185 513.143,323.529 515.136,324.871 517.129,326.21 519.122,327.548 521.115,328.884 523.108,330.217 525.101,331.549 527.095,332.879 529.088,334.206 531.081,335.532 533.074,336.855 535.067,338.177 537.06,339.496 539.054,340.814 541.047,342.13 543.04,343.443 545.033,344.755 547.026,346.065 549.019,347.373 551.012,348.678 553.006,349.982 554.999,351.284 556.992,352.584 558.985,353.883 560.978,355.179 562.971,356.473 564.964,357.765 566.958,359.056 568.951,360.345 570.944,361.631 572.937,362.916 574.93,364.199 576.923,365.48 578.916,366.759 580.91,368.037 582.903,369.312 584.896,370.586 586.889,371.858 588.882,373.128 590.875,374.396 592.868,375.662 594.862,376.927 596.855,378.19 598.848,379.451 600.841,380.71 602.834,381.967 604.827,383.222 606.82,384.476 608.814,385.728 610.807,386.978 612.8,388.227 614.793,389.473 616.786,390.718 618.779,391.961 620.772,393.203 622.766,394.443 624.759,395.68 626.752,396.917 628.745,398.151 630.738,399.384 632.731,400.615 634.724,401.844 636.718,403.072 638.711,404.298 640.704,405.522 642.697,406.745 644.69,407.966 646.683,409.185 648.677,410.403 650.67,411.619 652.663,412.833 654.656,414.045 656.649,415.256 658.642,416.466 660.635,417.673 662.629,418.88 664.622,420.084 666.615,421.287 668.608,422.488 670.601,423.688 672.594,424.886 674.587,426.082 676.581,427.277 678.574,428.471 680.567,429.662 682.56,430.853 684.553,432.041 686.546,433.228 688.539,434.414 690.533,435.598 692.526,436.78 694.519,437.961 696.512,439.14 698.505,440.318 700.498,441.495 702.491,442.669 704.485,443.843 706.478,445.015 708.471,446.185 710.464,447.354 712.457,448.521 714.45,449.687 716.443,450.851 718.437,452.014 720.43,453.176 722.423,454.336 724.416,455.495 726.409,456.652 728.402,457.807 730.395,458.962 732.389,460.115 734.382,461.266 736.375,462.416 738.368,463.565 740.361,464.712 742.354,465.858 744.347,467.002 746.341,468.145 748.334,469.287 750.327,470.427 752.32,471.566 754.313,472.704 756.306,473.84 758.299,474.975 760.293,476.109 762.286,477.241 764.279,478.372 766.272,479.501 768.265,480.63 770.258,481.757 772.252,482.882 774.245,484.007 776.238,485.13 778.231,486.251 780.224,487.372 782.217,488.491 784.21,489.609 786.204,490.725 788.197,491.841 790.19,492.955 792.183,494.068 794.176,495.179 796.169,496.29 798.162,497.399 800.156,498.507 802.149,499.613 804.142,500.719 806.135,501.823 808.128,502.926 810.121,504.028 812.114,505.129 814.108,506.228 816.101,507.326 818.094,508.423 820.087,509.519 822.08,510.614 824.073,511.708 826.066,512.8 828.06,513.892 830.053,514.982 832.046,516.071 834.039,517.159 836.032,518.245 838.025,519.331 840.018,520.416 842.012,521.499 844.005,522.581 845.998,523.663 847.991,524.743 849.984,525.822 851.977,526.9 853.97,527.977 855.964,529.053 857.957,530.127 859.95,531.201 861.943,532.274 863.936,533.345 865.929,534.416 867.922,535.485 869.916,536.554 871.909,537.622 873.902,538.688 875.895,539.753 877.888,540.818 879.881,541.881 881.874,542.944 883.868,544.005 885.861,545.066 887.854,546.125 889.847,547.184 891.84,548.242 893.833,549.298 895.827,550.354 897.82,551.409 899.813,552.462 901.806,553.515 903.799,554.567 905.792,555.618 907.785,556.668 909.779,557.718 911.772,558.766 913.765,559.813 915.758,560.86 917.751,561.905 919.744,562.95 921.737,563.994 923.731,565.037 925.724,566.079 927.717,567.12 929.71,568.16 931.703,569.2 933.696,570.239 935.689,571.276 937.683,572.313 939.676,573.35 941.669,574.385 943.662,575.419 945.655,576.453 947.648,577.486 949.641,578.518 951.635,579.55 953.628,580.58 955.621,581.61 957.614,582.639 959.607,583.667 961.6,584.694 963.593,585.721 965.587,586.747 967.58,587.772 969.573,588.797 971.566,589.82 973.559,590.843 975.552,591.866 977.545,592.887 979.539,593.908 981.532,594.928 983.525,595.948 985.518,596.966 987.511,597.984 989.504,599.002 991.497,600.018 993.491,601.034 995.484,602.05 997.477,603.065 999.47,604.079 1001.46,605.092 1003.46,606.105 1005.45,607.117 1007.44,608.128 1009.44,609.139 1011.43,610.149 1013.42,611.159 1015.42,612.168 1017.41,613.176 1019.4,614.184 1021.39,615.191 1023.39,616.198 1025.38,617.204 1027.37,618.209 1029.37,619.214 1031.36,620.219 1033.35,621.222 1035.35,622.226 1037.34,623.228 1039.33,624.23 1041.33,625.232 1043.32,626.233 1045.31,627.234 1047.31,628.234 1049.3,629.233 1051.29,630.232 1053.28,631.231 1055.28,632.229 1057.27,633.226 1059.26,634.223 1061.26,635.22 1063.25,636.216 1065.24,637.211 1067.24,638.207 1069.23,639.201 1071.22,640.196 1073.22,641.189 1075.21,642.183 1077.2,643.176 1079.2,644.168 1081.19,645.16 1083.18,646.152 1085.18,647.143 1087.17,648.134 1089.16,649.125 1091.15,650.115 1093.15,651.105 1095.14,652.094 1097.13,653.083 1099.13,654.071 1101.12,655.06 1103.11,656.047 1105.11,657.035 1107.1,658.022 1109.09,659.009 1111.09,659.995 1113.08,660.982 1115.07,661.967 1117.07,662.953 1119.06,663.938 1121.05,664.923 1123.05,665.908 1125.04,666.892 1127.03,667.876 1129.02,668.86 1131.02,669.843 1133.01,670.826 1135,671.809 1137,672.792 1138.99,673.775 1140.98,674.757 1142.98,675.739 1144.97,676.72 1146.96,677.702 1148.96,678.683 1150.95,679.664 1152.94,680.645 1154.94,681.625 1156.93,682.606 1158.92,683.586 1160.91,684.566 1162.91,685.546 1164.9,686.525 1166.89,687.505 1168.89,688.484 1170.88,689.463 1172.87,690.442 1174.87,691.421 1176.86,692.4 1178.85,693.378 1180.85,694.357 1182.84,695.335 1184.83,696.313 1186.83,697.291 1188.82,698.269 1190.81,699.247 1192.81,700.225 1194.8,701.203 1196.79,702.18 1198.78,703.158 1200.78,704.135 1202.77,705.112 1204.76,706.09 1206.76,707.067 1208.75,708.044 1210.74,709.021 1212.74,709.998 1214.73,710.975 1216.72,711.952 1218.72,712.929 1220.71,713.906 1222.7,714.883 1224.7,715.86 1226.69,716.837 1228.68,717.814 1230.67,718.791 1232.67,719.768 1234.66,720.745 1236.65,721.722 1238.65,722.699 1240.64,723.676 1242.63,724.653 1244.63,725.63 1246.62,726.607 1248.61,727.585 1250.61,728.562 1252.6,729.539 1254.59,730.517 1256.59,731.494 1258.58,732.472 1260.57,733.45 1262.57,734.428 1264.56,735.406 1266.55,736.384 1268.54,737.362 1270.54,738.34 1272.53,739.319 1274.52,740.298 1276.52,741.276 1278.51,742.255 1280.5,743.234 1282.5,744.213 1284.49,745.193 1286.48,746.172 1288.48,747.152 1290.47,748.132 1292.46,749.112 1294.46,750.092 1296.45,751.073 1298.44,752.054 1300.44,753.034 1302.43,754.016 1304.42,754.997 1306.41,755.979 1308.41,756.96 1310.4,757.942 1312.39,758.925 1314.39,759.907 1316.38,760.89 1318.37,761.873 1320.37,762.856 1322.36,763.84 1324.35,764.824 1326.35,765.808 1328.34,766.792 1330.33,767.777 1332.33,768.762 1334.32,769.748 1336.31,770.733 1338.3,771.719 1340.3,772.706 1342.29,773.692 1344.28,774.679 1346.28,775.667 1348.27,776.654 1350.26,777.642 1352.26,778.631 1354.25,779.619 1356.24,780.609 1358.24,781.598 1360.23,782.588 1362.22,783.578 1364.22,784.569 1366.21,785.56 1368.2,786.551 1370.2,787.543 1372.19,788.536 1374.18,789.528 1376.17,790.521 1378.17,791.515 1380.16,792.509 1382.15,793.504 1384.15,794.498 1386.14,795.494 1388.13,796.49 1390.13,797.486 1392.12,798.483 1394.11,799.48 1396.11,800.478 1398.1,801.476 1400.09,802.475 1402.09,803.474 1404.08,804.474 1406.07,805.474 1408.06,806.475 1410.06,807.476 1412.05,808.478 1414.04,809.48 1416.04,810.483 1418.03,811.487 1420.02,812.491 1422.02,813.495 1424.01,814.501 1426,815.506 1428,816.513 1429.99,817.519 1431.98,818.527 1433.98,819.535 1435.97,820.544 1437.96,821.553 1439.96,822.563 1441.95,823.573 1443.94,824.584 1445.93,825.596 1447.93,826.609 1449.92,827.622 1451.91,828.635 1453.91,829.65 1455.9,830.665 1457.89,831.68 1459.89,832.697 1461.88,833.714 1463.87,834.731 1465.87,835.75 1467.86,836.769 1469.85,837.788 1471.85,838.809 1473.84,839.83 1475.83,840.852 1477.82,841.875 1479.82,842.898 1481.81,843.922 1483.8,844.947 1485.8,845.972 1487.79,846.999 1489.78,848.026 1491.78,849.053 1493.77,850.082 1495.76,851.111 1497.76,852.141 1499.75,853.172 1501.74,854.204 1503.74,855.237 1505.73,856.27 1507.72,857.304 1509.72,858.339 1511.71,859.375 1513.7,860.411 1515.69,861.449 1517.69,862.487 1519.68,863.526 1521.67,864.566 1523.67,865.607 1525.66,866.648 1527.65,867.691 1529.65,868.734 1531.64,869.778 1533.63,870.823 1535.63,871.869 1537.62,872.916 1539.61,873.964 1541.61,875.013 1543.6,876.062 1545.59,877.113 1547.59,878.164 1549.58,879.217 1551.57,880.27 1553.56,881.324 1555.56,882.379 1557.55,883.435 1559.54,884.493 1561.54,885.551 1563.53,886.61 1565.52,887.67 1567.52,888.731 1569.51,889.793 1571.5,890.855 1573.5,891.919 1575.49,892.984 1577.48,894.05 1579.48,895.117 1581.47,896.185 1583.46,897.254 1585.45,898.324 1587.45,899.395 1589.44,900.467 1591.43,901.541 1593.43,902.615 1595.42,903.69 1597.41,904.766 1599.41,905.844 1601.4,906.922 1603.39,908.002 1605.39,909.083 1607.38,910.164 1609.37,911.247 1611.37,912.331 1613.36,913.416 1615.35,914.502 1617.35,915.59 1619.34,916.678 1621.33,917.768 1623.32,918.858 1625.32,919.95 1627.31,921.043 1629.3,922.137 1631.3,923.233 1633.29,924.329 1635.28,925.427 1637.28,926.526 1639.27,927.626 1641.26,928.727 1643.26,929.829 1645.25,930.933 1647.24,932.038 1649.24,933.144 1651.23,934.251 1653.22,935.359 1655.21,936.469 1657.21,937.58 1659.2,938.692 1661.19,939.806 1663.19,940.92 1665.18,942.036 1667.17,943.153 1669.17,944.272 1671.16,945.392 1673.15,946.513 1675.15,947.635 1677.14,948.759 1679.13,949.884 1681.13,951.01 1683.12,952.137 1685.11,953.266 1687.11,954.396 1689.1,955.528 1691.09,956.661 1693.08,957.795 1695.08,958.931 1697.07,960.067 1699.06,961.206 1701.06,962.345 1703.05,963.486 1705.04,964.629 1707.04,965.772 1709.03,966.917 1711.02,968.064 1713.02,969.212 1715.01,970.361 1717,971.512 1719,972.664 1720.99,973.817 1722.98,974.972 1724.97,976.129 1726.97,977.287 1728.96,978.446 1730.95,979.607 1732.95,980.769 1734.94,981.932 1736.93,983.098 1738.93,984.264 1740.92,985.432 1742.91,986.602 1744.91,987.773 1746.9,988.945 1748.89,990.119 1750.89,991.295 1752.88,992.472 1754.87,993.65 1756.87,994.831 1758.86,996.012 1760.85,997.195 1762.84,998.38 1764.84,999.566 1766.83,1000.75 1768.82,1001.94 1770.82,1003.13 1772.81,1004.33 1774.8,1005.52 1776.8,1006.72 1778.79,1007.91 1780.78,1009.11 1782.78,1010.31 1784.77,1011.51 1786.76,1012.72 1788.76,1013.92 1790.75,1015.13 1792.74,1016.34 1794.74,1017.55 1796.73,1018.76 1798.72,1019.97 1800.71,1021.19 1802.71,1022.41 1804.7,1023.62 1806.69,1024.84 1808.69,1026.07 1810.68,1027.29 1812.67,1028.51 1814.67,1029.74 1816.66,1030.97 1818.65,1032.2 1820.65,1033.43 1822.64,1034.67 1824.63,1035.9 1826.63,1037.14 1828.62,1038.38 1830.61,1039.62 1832.6,1040.86 1834.6,1042.1 1836.59,1043.35 1838.58,1044.6 1840.58,1045.85 1842.57,1047.1 1844.56,1048.35 1846.56,1049.6 1848.55,1050.86 1850.54,1052.12 1852.54,1053.38 1854.53,1054.64 1856.52,1055.9 1858.52,1057.17 1860.51,1058.44 1862.5,1059.71 1864.5,1060.98 1866.49,1062.25 1868.48,1063.52 1870.47,1064.8 1872.47,1066.08 1874.46,1067.36 1876.45,1068.64 1878.45,1069.92 1880.44,1071.21 1882.43,1072.5 1884.43,1073.79 1886.42,1075.08 1888.41,1076.37 1890.41,1077.67 1892.4,1078.96 1894.39,1080.26 1896.39,1081.56 1898.38,1082.87 1900.37,1084.17 1902.36,1085.48 1904.36,1086.79 1906.35,1088.1 1908.34,1089.41 1910.34,1090.72 1912.33,1092.04 1914.32,1093.36 1916.32,1094.68 1918.31,1096 1920.3,1097.33 1922.3,1098.65 1924.29,1099.98 1926.28,1101.31 1928.28,1102.65 1930.27,1103.98 1932.26,1105.32 1934.26,1106.66 1936.25,1108 1938.24,1109.34 1940.23,1110.68 1942.23,1112.03 1944.22,1113.38 1946.21,1114.73 1948.21,1116.08 1950.2,1117.44 1952.19,1118.8 1954.19,1120.15 1956.18,1121.52 1958.17,1122.88 1960.17,1124.24 1962.16,1125.61 1964.15,1126.98 1966.15,1128.35 1968.14,1129.73 1970.13,1131.1 1972.12,1132.48 1974.12,1133.86 1976.11,1135.25 1978.1,1136.63 1980.1,1138.02 1982.09,1139.41 1984.08,1140.8 1986.08,1142.19 1988.07,1143.59 1990.06,1144.99 1992.06,1146.39 1994.05,1147.79 1996.04,1149.19 1998.04,1150.6 2000.03,1152.01 2002.02,1153.42 2004.02,1154.83 2006.01,1156.25 2008,1157.67 2009.99,1159.09 2011.99,1160.51 2013.98,1161.93 2015.97,1163.36 2017.97,1164.79 2019.96,1166.22 2021.95,1167.65 2023.95,1169.09 2025.94,1170.53 2027.93,1171.97 2029.93,1173.41 2031.92,1174.86 2033.91,1176.31 2035.91,1177.76 2037.9,1179.21 2039.89,1180.66 2041.89,1182.12 2043.88,1183.58 2045.87,1185.04 2047.86,1186.5 2049.86,1187.97 2051.85,1189.44 2053.84,1190.91 2055.84,1192.38 2057.83,1193.86 2059.82,1195.34 2061.82,1196.82 2063.81,1198.3 2065.8,1199.79 2067.8,1201.27 2069.79,1202.77 2071.78,1204.26 2073.78,1205.75 2075.77,1207.25 2077.76,1208.75 2079.75,1210.25 2081.75,1211.76 2083.74,1213.27 2085.73,1214.78 2087.73,1216.29 2089.72,1217.8 2091.71,1219.32 2093.71,1220.84 2095.7,1222.36 2097.69,1223.89 2099.69,1225.41 2101.68,1226.94 2103.67,1228.48 2105.67,1230.01 2107.66,1231.55 2109.65,1233.09 2111.65,1234.63 2113.64,1236.18 2115.63,1237.72 2117.62,1239.28 2119.62,1240.83 2121.61,1242.38 2123.6,1243.94 2125.6,1245.5 2127.59,1247.06 2129.58,1248.63 2131.58,1250.2 2133.57,1251.77 2135.56,1253.34 2137.56,1254.92 2139.55,1256.5 2141.54,1258.08 2143.54,1259.66 2145.53,1261.25 2147.52,1262.84 2149.51,1264.43 2151.51,1266.03 2153.5,1267.62 2155.49,1269.22 2157.49,1270.83 2159.48,1272.43 2161.47,1274.04 2163.47,1275.65 2165.46,1277.26 2167.45,1278.88 2169.45,1280.5 2171.44,1282.12 2173.43,1283.74 2175.43,1285.37 2177.42,1287 2179.41,1288.63 2181.41,1290.27 2183.4,1291.91 2185.39,1293.55 2187.38,1295.19 2189.38,1296.84 2191.37,1298.49 2193.36,1300.14 2195.36,1301.79 2197.35,1303.45 2199.34,1305.11 2201.34,1306.77 2203.33,1308.44 2205.32,1310.11 2207.32,1311.78 2209.31,1313.45 2211.3,1315.13 2213.3,1316.81 2215.29,1318.49 2217.28,1320.18 2219.27,1321.87 2221.27,1323.56 2223.26,1325.25 2225.25,1326.95 2227.25,1328.65 2229.24,1330.35 2231.23,1332.06 2233.23,1333.77 2235.22,1335.48 2237.21,1337.19 2239.21,1338.91 2241.2,1340.63 2243.19,1342.35 2245.19,1344.08 2247.18,1345.81 2249.17,1347.54 2251.17,1349.27 2253.16,1351.01 2255.15,1352.75 2257.14,1354.5 2259.14,1356.24 2261.13,1357.99 2263.12,1359.74 2265.12,1361.5 2267.11,1363.26 2269.1,1365.02 2271.1,1366.79 2273.09,1368.55 2275.08,1370.32 2277.08,1372.1 2279.07,1373.87 2281.06,1375.65 2283.06,1377.44 2285.05,1379.22 2287.04,1381.01 2289.04,1382.8 2291.03,1384.6 2293.02,1386.4 "/>
<path clip-path="url(#clip050)" d="M1438.66 322.316 L2282.4 322.316 L2282.4 166.796 L1438.66 166.796  Z" fill="#ffffff" fill-rule="evenodd" fill-opacity="1"/>
<polyline clip-path="url(#clip050)" style="stroke:#000000; stroke-linecap:round; stroke-linejoin:round; stroke-width:4; stroke-opacity:1; fill:none" points="1438.66,322.316 2282.4,322.316 2282.4,166.796 1438.66,166.796 1438.66,322.316 "/>
<circle clip-path="url(#clip050)" cx="1532.46" cy="218.636" r="23.04" fill="#009af9" fill-rule="evenodd" fill-opacity="1" stroke="#000000" stroke-opacity="1" stroke-width="5.12"/>
<path clip-path="url(#clip050)" d="M1645.18 213.925 L1645.18 199.897 L1649.44 199.897 L1649.44 235.916 L1645.18 235.916 L1645.18 232.027 Q1643.84 234.342 1641.78 235.476 Q1639.74 236.587 1636.87 236.587 Q1632.17 236.587 1629.21 232.837 Q1626.27 229.087 1626.27 222.976 Q1626.27 216.865 1629.21 213.115 Q1632.17 209.365 1636.87 209.365 Q1639.74 209.365 1641.78 210.499 Q1643.84 211.61 1645.18 213.925 M1630.67 222.976 Q1630.67 227.675 1632.59 230.36 Q1634.53 233.022 1637.91 233.022 Q1641.29 233.022 1643.24 230.36 Q1645.18 227.675 1645.18 222.976 Q1645.18 218.277 1643.24 215.615 Q1641.29 212.93 1637.91 212.93 Q1634.53 212.93 1632.59 215.615 Q1630.67 218.277 1630.67 222.976 Z" fill="#000000" fill-rule="evenodd" fill-opacity="1" /><path clip-path="url(#clip050)" d="M1676.82 222.976 Q1676.82 218.277 1674.88 215.615 Q1672.96 212.93 1669.58 212.93 Q1666.2 212.93 1664.25 215.615 Q1662.33 218.277 1662.33 222.976 Q1662.33 227.675 1664.25 230.36 Q1666.2 233.022 1669.58 233.022 Q1672.96 233.022 1674.88 230.36 Q1676.82 227.675 1676.82 222.976 M1662.33 213.925 Q1663.68 211.61 1665.71 210.499 Q1667.77 209.365 1670.62 209.365 Q1675.34 209.365 1678.28 213.115 Q1681.25 216.865 1681.25 222.976 Q1681.25 229.087 1678.28 232.837 Q1675.34 236.587 1670.62 236.587 Q1667.77 236.587 1665.71 235.476 Q1663.68 234.342 1662.33 232.027 L1662.33 235.916 L1658.05 235.916 L1658.05 199.897 L1662.33 199.897 L1662.33 213.925 Z" fill="#000000" fill-rule="evenodd" fill-opacity="1" /><path clip-path="url(#clip050)" d="M1708.49 214.967 Q1710.09 212.096 1712.31 210.731 Q1714.53 209.365 1717.54 209.365 Q1721.59 209.365 1723.79 212.212 Q1725.99 215.036 1725.99 220.268 L1725.99 235.916 L1721.71 235.916 L1721.71 220.407 Q1721.71 216.68 1720.39 214.874 Q1719.07 213.069 1716.36 213.069 Q1713.05 213.069 1711.13 215.268 Q1709.21 217.467 1709.21 221.263 L1709.21 235.916 L1704.93 235.916 L1704.93 220.407 Q1704.93 216.657 1703.61 214.874 Q1702.29 213.069 1699.53 213.069 Q1696.27 213.069 1694.35 215.291 Q1692.43 217.49 1692.43 221.263 L1692.43 235.916 L1688.14 235.916 L1688.14 209.99 L1692.43 209.99 L1692.43 214.018 Q1693.88 211.633 1695.92 210.499 Q1697.96 209.365 1700.76 209.365 Q1703.58 209.365 1705.55 210.8 Q1707.54 212.235 1708.49 214.967 Z" fill="#000000" fill-rule="evenodd" fill-opacity="1" /><path clip-path="url(#clip050)" d="M1735.57 230.036 L1740.46 230.036 L1740.46 234.018 L1736.66 241.425 L1733.68 241.425 L1735.57 234.018 L1735.57 230.036 Z" fill="#000000" fill-rule="evenodd" fill-opacity="1" /><path clip-path="url(#clip050)" d="M1776.36 205.962 L1770.02 223.161 L1782.73 223.161 L1776.36 205.962 M1773.72 201.356 L1779.02 201.356 L1792.19 235.916 L1787.33 235.916 L1784.18 227.05 L1768.61 227.05 L1765.46 235.916 L1760.53 235.916 L1773.72 201.356 Z" fill="#000000" fill-rule="evenodd" fill-opacity="1" /><path clip-path="url(#clip050)" d="M1801.92 205.198 L1801.92 232.073 L1807.56 232.073 Q1814.72 232.073 1818.03 228.832 Q1821.36 225.592 1821.36 218.601 Q1821.36 211.657 1818.03 208.439 Q1814.72 205.198 1807.56 205.198 L1801.92 205.198 M1797.24 201.356 L1806.85 201.356 Q1816.89 201.356 1821.59 205.546 Q1826.29 209.712 1826.29 218.601 Q1826.29 227.536 1821.57 231.726 Q1816.85 235.916 1806.85 235.916 L1797.24 235.916 L1797.24 201.356 Z" fill="#000000" fill-rule="evenodd" fill-opacity="1" /><path clip-path="url(#clip050)" d="M1859.62 204.018 L1859.62 208.948 Q1857.26 206.749 1854.58 205.661 Q1851.92 204.573 1848.91 204.573 Q1842.98 204.573 1839.83 208.208 Q1836.68 211.819 1836.68 218.67 Q1836.68 225.499 1839.83 229.133 Q1842.98 232.744 1848.91 232.744 Q1851.92 232.744 1854.58 231.656 Q1857.26 230.569 1859.62 228.369 L1859.62 233.254 Q1857.17 234.92 1854.42 235.754 Q1851.68 236.587 1848.63 236.587 Q1840.78 236.587 1836.27 231.795 Q1831.75 226.981 1831.75 218.67 Q1831.75 210.337 1836.27 205.546 Q1840.78 200.731 1848.63 200.731 Q1851.73 200.731 1854.46 201.564 Q1857.22 202.374 1859.62 204.018 Z" fill="#000000" fill-rule="evenodd" fill-opacity="1" /><path clip-path="url(#clip050)" d="M1885.85 232.027 L1885.85 245.777 L1881.57 245.777 L1881.57 209.99 L1885.85 209.99 L1885.85 213.925 Q1887.19 211.61 1889.23 210.499 Q1891.29 209.365 1894.14 209.365 Q1898.86 209.365 1901.8 213.115 Q1904.76 216.865 1904.76 222.976 Q1904.76 229.087 1901.8 232.837 Q1898.86 236.587 1894.14 236.587 Q1891.29 236.587 1889.23 235.476 Q1887.19 234.342 1885.85 232.027 M1900.34 222.976 Q1900.34 218.277 1898.4 215.615 Q1896.48 212.93 1893.1 212.93 Q1889.72 212.93 1887.77 215.615 Q1885.85 218.277 1885.85 222.976 Q1885.85 227.675 1887.77 230.36 Q1889.72 233.022 1893.1 233.022 Q1896.48 233.022 1898.4 230.36 Q1900.34 227.675 1900.34 222.976 Z" fill="#000000" fill-rule="evenodd" fill-opacity="1" /><path clip-path="url(#clip050)" d="M1923.61 222.883 Q1918.44 222.883 1916.45 224.064 Q1914.46 225.244 1914.46 228.092 Q1914.46 230.36 1915.94 231.703 Q1917.45 233.022 1920.02 233.022 Q1923.56 233.022 1925.69 230.522 Q1927.84 227.999 1927.84 223.832 L1927.84 222.883 L1923.61 222.883 M1932.1 221.124 L1932.1 235.916 L1927.84 235.916 L1927.84 231.981 Q1926.38 234.342 1924.21 235.476 Q1922.03 236.587 1918.88 236.587 Q1914.9 236.587 1912.54 234.365 Q1910.2 232.119 1910.2 228.369 Q1910.2 223.994 1913.12 221.772 Q1916.06 219.55 1921.87 219.55 L1927.84 219.55 L1927.84 219.133 Q1927.84 216.194 1925.9 214.596 Q1923.98 212.976 1920.48 212.976 Q1918.26 212.976 1916.15 213.508 Q1914.04 214.041 1912.1 215.106 L1912.1 211.17 Q1914.44 210.268 1916.64 209.828 Q1918.84 209.365 1920.92 209.365 Q1926.54 209.365 1929.32 212.282 Q1932.1 215.198 1932.1 221.124 Z" fill="#000000" fill-rule="evenodd" fill-opacity="1" /><path clip-path="url(#clip050)" d="M1940.87 209.99 L1945.13 209.99 L1945.13 235.916 L1940.87 235.916 L1940.87 209.99 M1940.87 199.897 L1945.13 199.897 L1945.13 205.291 L1940.87 205.291 L1940.87 199.897 Z" fill="#000000" fill-rule="evenodd" fill-opacity="1" /><path clip-path="url(#clip050)" d="M1969.07 213.971 Q1968.35 213.555 1967.49 213.37 Q1966.66 213.161 1965.64 213.161 Q1962.03 213.161 1960.09 215.522 Q1958.17 217.86 1958.17 222.258 L1958.17 235.916 L1953.88 235.916 L1953.88 209.99 L1958.17 209.99 L1958.17 214.018 Q1959.51 211.657 1961.66 210.522 Q1963.81 209.365 1966.89 209.365 Q1967.33 209.365 1967.86 209.434 Q1968.4 209.481 1969.04 209.596 L1969.07 213.971 Z" fill="#000000" fill-rule="evenodd" fill-opacity="1" /><path clip-path="url(#clip050)" d="M1990.06 210.754 L1990.06 214.782 Q1988.26 213.856 1986.31 213.393 Q1984.37 212.93 1982.29 212.93 Q1979.11 212.93 1977.52 213.902 Q1975.94 214.874 1975.94 216.819 Q1975.94 218.3 1977.08 219.157 Q1978.21 219.99 1981.64 220.754 L1983.1 221.078 Q1987.63 222.05 1989.53 223.832 Q1991.45 225.592 1991.45 228.763 Q1991.45 232.374 1988.58 234.481 Q1985.73 236.587 1980.73 236.587 Q1978.65 236.587 1976.38 236.17 Q1974.14 235.777 1971.64 234.967 L1971.64 230.569 Q1974 231.795 1976.29 232.42 Q1978.58 233.022 1980.83 233.022 Q1983.84 233.022 1985.46 232.004 Q1987.08 230.962 1987.08 229.087 Q1987.08 227.351 1985.9 226.425 Q1984.74 225.499 1980.78 224.643 L1979.3 224.295 Q1975.34 223.462 1973.58 221.749 Q1971.82 220.013 1971.82 217.004 Q1971.82 213.346 1974.42 211.356 Q1977.01 209.365 1981.78 209.365 Q1984.14 209.365 1986.22 209.712 Q1988.3 210.059 1990.06 210.754 Z" fill="#000000" fill-rule="evenodd" fill-opacity="1" /><polyline clip-path="url(#clip050)" style="stroke:#e26f46; stroke-linecap:round; stroke-linejoin:round; stroke-width:4; stroke-opacity:1; fill:none" points="1462.11,270.476 1602.82,270.476 "/>
<path clip-path="url(#clip050)" d="M1642.77 251.737 L1642.77 255.279 L1638.7 255.279 Q1636.41 255.279 1635.5 256.205 Q1634.63 257.131 1634.63 259.538 L1634.63 261.83 L1641.64 261.83 L1641.64 265.14 L1634.63 265.14 L1634.63 287.756 L1630.34 287.756 L1630.34 265.14 L1626.27 265.14 L1626.27 261.83 L1630.34 261.83 L1630.34 260.024 Q1630.34 255.696 1632.36 253.728 Q1634.37 251.737 1638.75 251.737 L1642.77 251.737 Z" fill="#000000" fill-rule="evenodd" fill-opacity="1" /><path clip-path="url(#clip050)" d="M1646.34 261.83 L1650.6 261.83 L1650.6 287.756 L1646.34 287.756 L1646.34 261.83 M1646.34 251.737 L1650.6 251.737 L1650.6 257.131 L1646.34 257.131 L1646.34 251.737 Z" fill="#000000" fill-rule="evenodd" fill-opacity="1" /><path clip-path="url(#clip050)" d="M1663.72 254.469 L1663.72 261.83 L1672.5 261.83 L1672.5 265.14 L1663.72 265.14 L1663.72 279.214 Q1663.72 282.385 1664.58 283.288 Q1665.46 284.191 1668.12 284.191 L1672.5 284.191 L1672.5 287.756 L1668.12 287.756 Q1663.19 287.756 1661.31 285.927 Q1659.44 284.075 1659.44 279.214 L1659.44 265.14 L1656.31 265.14 L1656.31 261.83 L1659.44 261.83 L1659.44 254.469 L1663.72 254.469 Z" fill="#000000" fill-rule="evenodd" fill-opacity="1" /><path clip-path="url(#clip050)" d="M1706.29 251.737 L1706.29 255.279 L1702.22 255.279 Q1699.93 255.279 1699.02 256.205 Q1698.14 257.131 1698.14 259.538 L1698.14 261.83 L1705.16 261.83 L1705.16 265.14 L1698.14 265.14 L1698.14 287.756 L1693.86 287.756 L1693.86 265.14 L1689.79 265.14 L1689.79 261.83 L1693.86 261.83 L1693.86 260.024 Q1693.86 255.696 1695.87 253.728 Q1697.89 251.737 1702.26 251.737 L1706.29 251.737 Z" fill="#000000" fill-rule="evenodd" fill-opacity="1" /><path clip-path="url(#clip050)" d="M1709.42 277.524 L1709.42 261.83 L1713.68 261.83 L1713.68 277.362 Q1713.68 281.043 1715.11 282.895 Q1716.55 284.723 1719.42 284.723 Q1722.87 284.723 1724.86 282.524 Q1726.87 280.325 1726.87 276.529 L1726.87 261.83 L1731.13 261.83 L1731.13 287.756 L1726.87 287.756 L1726.87 283.774 Q1725.32 286.135 1723.26 287.293 Q1721.22 288.427 1718.51 288.427 Q1714.05 288.427 1711.73 285.649 Q1709.42 282.871 1709.42 277.524 M1720.13 261.205 L1720.13 261.205 Z" fill="#000000" fill-rule="evenodd" fill-opacity="1" /><path clip-path="url(#clip050)" d="M1761.45 272.108 L1761.45 287.756 L1757.19 287.756 L1757.19 272.247 Q1757.19 268.566 1755.76 266.737 Q1754.32 264.909 1751.45 264.909 Q1748 264.909 1746.01 267.108 Q1744.02 269.307 1744.02 273.103 L1744.02 287.756 L1739.74 287.756 L1739.74 261.83 L1744.02 261.83 L1744.02 265.858 Q1745.55 263.52 1747.61 262.362 Q1749.69 261.205 1752.4 261.205 Q1756.87 261.205 1759.16 263.983 Q1761.45 266.737 1761.45 272.108 Z" fill="#000000" fill-rule="evenodd" fill-opacity="1" /><path clip-path="url(#clip050)" d="M1788.61 262.825 L1788.61 266.807 Q1786.8 265.811 1784.97 265.325 Q1783.17 264.816 1781.31 264.816 Q1777.17 264.816 1774.88 267.455 Q1772.59 270.071 1772.59 274.816 Q1772.59 279.561 1774.88 282.2 Q1777.17 284.816 1781.31 284.816 Q1783.17 284.816 1784.97 284.33 Q1786.8 283.821 1788.61 282.825 L1788.61 286.76 Q1786.82 287.594 1784.9 288.01 Q1783 288.427 1780.85 288.427 Q1774.99 288.427 1771.55 284.746 Q1768.1 281.066 1768.1 274.816 Q1768.1 268.473 1771.57 264.839 Q1775.06 261.205 1781.13 261.205 Q1783.1 261.205 1784.97 261.622 Q1786.85 262.015 1788.61 262.825 Z" fill="#000000" fill-rule="evenodd" fill-opacity="1" /><path clip-path="url(#clip050)" d="M1800.23 254.469 L1800.23 261.83 L1809 261.83 L1809 265.14 L1800.23 265.14 L1800.23 279.214 Q1800.23 282.385 1801.08 283.288 Q1801.96 284.191 1804.62 284.191 L1809 284.191 L1809 287.756 L1804.62 287.756 Q1799.69 287.756 1797.82 285.927 Q1795.94 284.075 1795.94 279.214 L1795.94 265.14 L1792.82 265.14 L1792.82 261.83 L1795.94 261.83 L1795.94 254.469 L1800.23 254.469 Z" fill="#000000" fill-rule="evenodd" fill-opacity="1" /><path clip-path="url(#clip050)" d="M1814.6 261.83 L1818.86 261.83 L1818.86 287.756 L1814.6 287.756 L1814.6 261.83 M1814.6 251.737 L1818.86 251.737 L1818.86 257.131 L1814.6 257.131 L1814.6 251.737 Z" fill="#000000" fill-rule="evenodd" fill-opacity="1" /><path clip-path="url(#clip050)" d="M1837.82 264.816 Q1834.39 264.816 1832.4 267.501 Q1830.41 270.163 1830.41 274.816 Q1830.41 279.469 1832.38 282.154 Q1834.37 284.816 1837.82 284.816 Q1841.22 284.816 1843.21 282.131 Q1845.2 279.446 1845.2 274.816 Q1845.2 270.21 1843.21 267.524 Q1841.22 264.816 1837.82 264.816 M1837.82 261.205 Q1843.37 261.205 1846.55 264.816 Q1849.72 268.427 1849.72 274.816 Q1849.72 281.182 1846.55 284.816 Q1843.37 288.427 1837.82 288.427 Q1832.24 288.427 1829.07 284.816 Q1825.92 281.182 1825.92 274.816 Q1825.92 268.427 1829.07 264.816 Q1832.24 261.205 1837.82 261.205 Z" fill="#000000" fill-rule="evenodd" fill-opacity="1" /><path clip-path="url(#clip050)" d="M1878.33 272.108 L1878.33 287.756 L1874.07 287.756 L1874.07 272.247 Q1874.07 268.566 1872.63 266.737 Q1871.2 264.909 1868.33 264.909 Q1864.88 264.909 1862.89 267.108 Q1860.9 269.307 1860.9 273.103 L1860.9 287.756 L1856.61 287.756 L1856.61 261.83 L1860.9 261.83 L1860.9 265.858 Q1862.42 263.52 1864.49 262.362 Q1866.57 261.205 1869.28 261.205 Q1873.74 261.205 1876.04 263.983 Q1878.33 266.737 1878.33 272.108 Z" fill="#000000" fill-rule="evenodd" fill-opacity="1" /><path clip-path="url(#clip050)" d="M1887.91 281.876 L1892.8 281.876 L1892.8 285.858 L1889 293.265 L1886.01 293.265 L1887.91 285.858 L1887.91 281.876 Z" fill="#000000" fill-rule="evenodd" fill-opacity="1" /><path clip-path="url(#clip050)" d="M1939.14 273.728 L1939.14 275.811 L1919.55 275.811 Q1919.83 280.209 1922.19 282.524 Q1924.58 284.816 1928.81 284.816 Q1931.27 284.816 1933.56 284.214 Q1935.87 283.612 1938.14 282.409 L1938.14 286.436 Q1935.85 287.408 1933.44 287.918 Q1931.04 288.427 1928.56 288.427 Q1922.36 288.427 1918.72 284.816 Q1915.11 281.205 1915.11 275.047 Q1915.11 268.682 1918.54 264.955 Q1921.98 261.205 1927.82 261.205 Q1933.05 261.205 1936.08 264.585 Q1939.14 267.941 1939.14 273.728 M1934.88 272.478 Q1934.83 268.983 1932.91 266.899 Q1931.01 264.816 1927.86 264.816 Q1924.3 264.816 1922.15 266.83 Q1920.02 268.844 1919.69 272.501 L1934.88 272.478 Z" fill="#000000" fill-rule="evenodd" fill-opacity="1" /><path clip-path="url(#clip050)" d="M1961.15 265.811 Q1960.43 265.395 1959.58 265.21 Q1958.74 265.001 1957.73 265.001 Q1954.11 265.001 1952.17 267.362 Q1950.25 269.7 1950.25 274.098 L1950.25 287.756 L1945.97 287.756 L1945.97 261.83 L1950.25 261.83 L1950.25 265.858 Q1951.59 263.497 1953.74 262.362 Q1955.9 261.205 1958.98 261.205 Q1959.42 261.205 1959.95 261.274 Q1960.48 261.321 1961.13 261.436 L1961.15 265.811 Z" fill="#000000" fill-rule="evenodd" fill-opacity="1" /><path clip-path="url(#clip050)" d="M1979.81 265.811 Q1979.09 265.395 1978.23 265.21 Q1977.4 265.001 1976.38 265.001 Q1972.77 265.001 1970.83 267.362 Q1968.91 269.7 1968.91 274.098 L1968.91 287.756 L1964.62 287.756 L1964.62 261.83 L1968.91 261.83 L1968.91 265.858 Q1970.25 263.497 1972.4 262.362 Q1974.55 261.205 1977.63 261.205 Q1978.07 261.205 1978.6 261.274 Q1979.14 261.321 1979.79 261.436 L1979.81 265.811 Z" fill="#000000" fill-rule="evenodd" fill-opacity="1" /><path clip-path="url(#clip050)" d="M1993.28 264.816 Q1989.85 264.816 1987.86 267.501 Q1985.87 270.163 1985.87 274.816 Q1985.87 279.469 1987.84 282.154 Q1989.83 284.816 1993.28 284.816 Q1996.68 284.816 1998.67 282.131 Q2000.66 279.446 2000.66 274.816 Q2000.66 270.21 1998.67 267.524 Q1996.68 264.816 1993.28 264.816 M1993.28 261.205 Q1998.84 261.205 2002.01 264.816 Q2005.18 268.427 2005.18 274.816 Q2005.18 281.182 2002.01 284.816 Q1998.84 288.427 1993.28 288.427 Q1987.7 288.427 1984.53 284.816 Q1981.38 281.182 1981.38 274.816 Q1981.38 268.427 1984.53 264.816 Q1987.7 261.205 1993.28 261.205 Z" fill="#000000" fill-rule="evenodd" fill-opacity="1" /><path clip-path="url(#clip050)" d="M2027.26 265.811 Q2026.54 265.395 2025.69 265.21 Q2024.85 265.001 2023.84 265.001 Q2020.22 265.001 2018.28 267.362 Q2016.36 269.7 2016.36 274.098 L2016.36 287.756 L2012.08 287.756 L2012.08 261.83 L2016.36 261.83 L2016.36 265.858 Q2017.7 263.497 2019.85 262.362 Q2022.01 261.205 2025.09 261.205 Q2025.53 261.205 2026.06 261.274 Q2026.59 261.321 2027.24 261.436 L2027.26 265.811 Z" fill="#000000" fill-rule="evenodd" fill-opacity="1" /><path clip-path="url(#clip050)" d="M2047.35 266.228 L2077.03 266.228 L2077.03 270.117 L2047.35 270.117 L2047.35 266.228 M2047.35 275.672 L2077.03 275.672 L2077.03 279.608 L2047.35 279.608 L2047.35 275.672 Z" fill="#000000" fill-rule="evenodd" fill-opacity="1" /><path clip-path="url(#clip050)" d="M2103 283.821 L2110.64 283.821 L2110.64 257.455 L2102.33 259.122 L2102.33 254.862 L2110.59 253.196 L2115.27 253.196 L2115.27 283.821 L2122.91 283.821 L2122.91 287.756 L2103 287.756 L2103 283.821 Z" fill="#000000" fill-rule="evenodd" fill-opacity="1" /><path clip-path="url(#clip050)" d="M2133.16 283.821 L2140.8 283.821 L2140.8 257.455 L2132.49 259.122 L2132.49 254.862 L2140.76 253.196 L2145.43 253.196 L2145.43 283.821 L2153.07 283.821 L2153.07 287.756 L2133.16 287.756 L2133.16 283.821 Z" fill="#000000" fill-rule="evenodd" fill-opacity="1" /><path clip-path="url(#clip050)" d="M2162.52 281.876 L2167.4 281.876 L2167.4 287.756 L2162.52 287.756 L2162.52 281.876 Z" fill="#000000" fill-rule="evenodd" fill-opacity="1" /><path clip-path="url(#clip050)" d="M2177.72 287.038 L2177.72 282.779 Q2179.48 283.612 2181.29 284.052 Q2183.09 284.492 2184.83 284.492 Q2189.46 284.492 2191.89 281.39 Q2194.34 278.265 2194.69 271.922 Q2193.35 273.913 2191.29 274.978 Q2189.23 276.043 2186.73 276.043 Q2181.54 276.043 2178.51 272.918 Q2175.5 269.77 2175.5 264.33 Q2175.5 259.006 2178.65 255.788 Q2181.8 252.571 2187.03 252.571 Q2193.02 252.571 2196.17 257.177 Q2199.34 261.76 2199.34 270.51 Q2199.34 278.682 2195.46 283.566 Q2191.59 288.427 2185.04 288.427 Q2183.28 288.427 2181.47 288.08 Q2179.67 287.733 2177.72 287.038 M2187.03 272.385 Q2190.18 272.385 2192.01 270.233 Q2193.86 268.08 2193.86 264.33 Q2193.86 260.603 2192.01 258.45 Q2190.18 256.274 2187.03 256.274 Q2183.88 256.274 2182.03 258.45 Q2180.2 260.603 2180.2 264.33 Q2180.2 268.08 2182.03 270.233 Q2183.88 272.385 2187.03 272.385 Z" fill="#000000" fill-rule="evenodd" fill-opacity="1" /><path clip-path="url(#clip050)" d="M2206.57 253.196 L2228.79 253.196 L2228.79 255.186 L2216.24 287.756 L2211.36 287.756 L2223.16 257.131 L2206.57 257.131 L2206.57 253.196 Z" fill="#000000" fill-rule="evenodd" fill-opacity="1" /><path clip-path="url(#clip050)" d="M2236.73 253.196 L2258.95 253.196 L2258.95 255.186 L2246.4 287.756 L2241.52 287.756 L2253.33 257.131 L2236.73 257.131 L2236.73 253.196 Z" fill="#000000" fill-rule="evenodd" fill-opacity="1" /></svg>
