<?xml version="1.0" encoding="utf-8"?>
<svg xmlns="http://www.w3.org/2000/svg" xmlns:xlink="http://www.w3.org/1999/xlink" width="600" height="400" viewBox="0 0 2400 1600">
<defs>
  <clipPath id="clip130">
    <rect x="0" y="0" width="2400" height="1600"/>
  </clipPath>
</defs>
<path clip-path="url(#clip130)" d="
M0 1600 L2400 1600 L2400 8.88178e-14 L0 8.88178e-14  Z
  " fill="#ffffff" fill-rule="evenodd" fill-opacity="1"/>
<defs>
  <clipPath id="clip131">
    <rect x="480" y="0" width="1681" height="1600"/>
  </clipPath>
</defs>
<path clip-path="url(#clip130)" d="
M242.135 1423.18 L2352.76 1423.18 L2352.76 123.472 L242.135 123.472  Z
  " fill="#ffffff" fill-rule="evenodd" fill-opacity="1"/>
<defs>
  <clipPath id="clip132">
    <rect x="242" y="123" width="2112" height="1301"/>
  </clipPath>
</defs>
<polyline clip-path="url(#clip132)" style="stroke:#000000; stroke-linecap:butt; stroke-linejoin:round; stroke-width:2; stroke-opacity:0.1; fill:none" points="
  467.385,1423.18 467.385,123.472 
  "/>
<polyline clip-path="url(#clip132)" style="stroke:#000000; stroke-linecap:butt; stroke-linejoin:round; stroke-width:2; stroke-opacity:0.1; fill:none" points="
  881.174,1423.18 881.174,123.472 
  "/>
<polyline clip-path="url(#clip132)" style="stroke:#000000; stroke-linecap:butt; stroke-linejoin:round; stroke-width:2; stroke-opacity:0.1; fill:none" points="
  1294.96,1423.18 1294.96,123.472 
  "/>
<polyline clip-path="url(#clip132)" style="stroke:#000000; stroke-linecap:butt; stroke-linejoin:round; stroke-width:2; stroke-opacity:0.1; fill:none" points="
  1708.75,1423.18 1708.75,123.472 
  "/>
<polyline clip-path="url(#clip132)" style="stroke:#000000; stroke-linecap:butt; stroke-linejoin:round; stroke-width:2; stroke-opacity:0.1; fill:none" points="
  2122.54,1423.18 2122.54,123.472 
  "/>
<polyline clip-path="url(#clip130)" style="stroke:#000000; stroke-linecap:butt; stroke-linejoin:round; stroke-width:4; stroke-opacity:1; fill:none" points="
  242.135,1423.18 2352.76,1423.18 
  "/>
<polyline clip-path="url(#clip130)" style="stroke:#000000; stroke-linecap:butt; stroke-linejoin:round; stroke-width:4; stroke-opacity:1; fill:none" points="
  467.385,1423.18 467.385,1404.28 
  "/>
<polyline clip-path="url(#clip130)" style="stroke:#000000; stroke-linecap:butt; stroke-linejoin:round; stroke-width:4; stroke-opacity:1; fill:none" points="
  881.174,1423.18 881.174,1404.28 
  "/>
<polyline clip-path="url(#clip130)" style="stroke:#000000; stroke-linecap:butt; stroke-linejoin:round; stroke-width:4; stroke-opacity:1; fill:none" points="
  1294.96,1423.18 1294.96,1404.28 
  "/>
<polyline clip-path="url(#clip130)" style="stroke:#000000; stroke-linecap:butt; stroke-linejoin:round; stroke-width:4; stroke-opacity:1; fill:none" points="
  1708.75,1423.18 1708.75,1404.28 
  "/>
<polyline clip-path="url(#clip130)" style="stroke:#000000; stroke-linecap:butt; stroke-linejoin:round; stroke-width:4; stroke-opacity:1; fill:none" points="
  2122.54,1423.18 2122.54,1404.28 
  "/>
<path clip-path="url(#clip130)" d="M411.911 1481.64 L419.549 1481.64 L419.549 1455.28 L411.239 1456.95 L411.239 1452.69 L419.503 1451.02 L424.179 1451.02 L424.179 1481.64 L431.818 1481.64 L431.818 1485.58 L411.911 1485.58 L411.911 1481.64 Z" fill="#000000" fill-rule="evenodd" fill-opacity="1" /><path clip-path="url(#clip130)" d="M451.262 1454.1 Q447.651 1454.1 445.822 1457.66 Q444.017 1461.2 444.017 1468.33 Q444.017 1475.44 445.822 1479.01 Q447.651 1482.55 451.262 1482.55 Q454.896 1482.55 456.702 1479.01 Q458.531 1475.44 458.531 1468.33 Q458.531 1461.2 456.702 1457.66 Q454.896 1454.1 451.262 1454.1 M451.262 1450.39 Q457.072 1450.39 460.128 1455 Q463.207 1459.58 463.207 1468.33 Q463.207 1477.06 460.128 1481.67 Q457.072 1486.25 451.262 1486.25 Q445.452 1486.25 442.373 1481.67 Q439.318 1477.06 439.318 1468.33 Q439.318 1459.58 442.373 1455 Q445.452 1450.39 451.262 1450.39 Z" fill="#000000" fill-rule="evenodd" fill-opacity="1" /><path clip-path="url(#clip130)" d="M481.424 1454.1 Q477.813 1454.1 475.984 1457.66 Q474.179 1461.2 474.179 1468.33 Q474.179 1475.44 475.984 1479.01 Q477.813 1482.55 481.424 1482.55 Q485.058 1482.55 486.864 1479.01 Q488.693 1475.44 488.693 1468.33 Q488.693 1461.2 486.864 1457.66 Q485.058 1454.1 481.424 1454.1 M481.424 1450.39 Q487.234 1450.39 490.29 1455 Q493.368 1459.58 493.368 1468.33 Q493.368 1477.06 490.29 1481.67 Q487.234 1486.25 481.424 1486.25 Q475.614 1486.25 472.535 1481.67 Q469.48 1477.06 469.48 1468.33 Q469.48 1459.58 472.535 1455 Q475.614 1450.39 481.424 1450.39 Z" fill="#000000" fill-rule="evenodd" fill-opacity="1" /><path clip-path="url(#clip130)" d="M511.586 1454.1 Q507.975 1454.1 506.146 1457.66 Q504.341 1461.2 504.341 1468.33 Q504.341 1475.44 506.146 1479.01 Q507.975 1482.55 511.586 1482.55 Q515.22 1482.55 517.026 1479.01 Q518.854 1475.44 518.854 1468.33 Q518.854 1461.2 517.026 1457.66 Q515.22 1454.1 511.586 1454.1 M511.586 1450.39 Q517.396 1450.39 520.452 1455 Q523.53 1459.58 523.53 1468.33 Q523.53 1477.06 520.452 1481.67 Q517.396 1486.25 511.586 1486.25 Q505.776 1486.25 502.697 1481.67 Q499.642 1477.06 499.642 1468.33 Q499.642 1459.58 502.697 1455 Q505.776 1450.39 511.586 1450.39 Z" fill="#000000" fill-rule="evenodd" fill-opacity="1" /><path clip-path="url(#clip130)" d="M825.699 1481.64 L833.338 1481.64 L833.338 1455.28 L825.028 1456.95 L825.028 1452.69 L833.292 1451.02 L837.968 1451.02 L837.968 1481.64 L845.607 1481.64 L845.607 1485.58 L825.699 1485.58 L825.699 1481.64 Z" fill="#000000" fill-rule="evenodd" fill-opacity="1" /><path clip-path="url(#clip130)" d="M855.097 1451.02 L873.454 1451.02 L873.454 1454.96 L859.38 1454.96 L859.38 1463.43 Q860.398 1463.08 861.417 1462.92 Q862.435 1462.73 863.454 1462.73 Q869.241 1462.73 872.62 1465.9 Q876 1469.08 876 1474.49 Q876 1480.07 872.528 1483.17 Q869.056 1486.25 862.736 1486.25 Q860.56 1486.25 858.292 1485.88 Q856.046 1485.51 853.639 1484.77 L853.639 1480.07 Q855.722 1481.2 857.945 1481.76 Q860.167 1482.32 862.644 1482.32 Q866.648 1482.32 868.986 1480.21 Q871.324 1478.1 871.324 1474.49 Q871.324 1470.88 868.986 1468.77 Q866.648 1466.67 862.644 1466.67 Q860.769 1466.67 858.894 1467.08 Q857.042 1467.5 855.097 1468.38 L855.097 1451.02 Z" fill="#000000" fill-rule="evenodd" fill-opacity="1" /><path clip-path="url(#clip130)" d="M895.213 1454.1 Q891.602 1454.1 889.773 1457.66 Q887.968 1461.2 887.968 1468.33 Q887.968 1475.44 889.773 1479.01 Q891.602 1482.55 895.213 1482.55 Q898.847 1482.55 900.653 1479.01 Q902.481 1475.44 902.481 1468.33 Q902.481 1461.2 900.653 1457.66 Q898.847 1454.1 895.213 1454.1 M895.213 1450.39 Q901.023 1450.39 904.079 1455 Q907.157 1459.58 907.157 1468.33 Q907.157 1477.06 904.079 1481.67 Q901.023 1486.25 895.213 1486.25 Q889.403 1486.25 886.324 1481.67 Q883.269 1477.06 883.269 1468.33 Q883.269 1459.58 886.324 1455 Q889.403 1450.39 895.213 1450.39 Z" fill="#000000" fill-rule="evenodd" fill-opacity="1" /><path clip-path="url(#clip130)" d="M925.375 1454.1 Q921.764 1454.1 919.935 1457.66 Q918.129 1461.2 918.129 1468.33 Q918.129 1475.44 919.935 1479.01 Q921.764 1482.55 925.375 1482.55 Q929.009 1482.55 930.815 1479.01 Q932.643 1475.44 932.643 1468.33 Q932.643 1461.2 930.815 1457.66 Q929.009 1454.1 925.375 1454.1 M925.375 1450.39 Q931.185 1450.39 934.241 1455 Q937.319 1459.58 937.319 1468.33 Q937.319 1477.06 934.241 1481.67 Q931.185 1486.25 925.375 1486.25 Q919.565 1486.25 916.486 1481.67 Q913.43 1477.06 913.43 1468.33 Q913.43 1459.58 916.486 1455 Q919.565 1450.39 925.375 1450.39 Z" fill="#000000" fill-rule="evenodd" fill-opacity="1" /><path clip-path="url(#clip130)" d="M1243.57 1481.64 L1259.89 1481.64 L1259.89 1485.58 L1237.95 1485.58 L1237.95 1481.64 Q1240.61 1478.89 1245.19 1474.26 Q1249.8 1469.61 1250.98 1468.27 Q1253.23 1465.74 1254.11 1464.01 Q1255.01 1462.25 1255.01 1460.56 Q1255.01 1457.8 1253.06 1456.07 Q1251.14 1454.33 1248.04 1454.33 Q1245.84 1454.33 1243.39 1455.09 Q1240.96 1455.86 1238.18 1457.41 L1238.18 1452.69 Q1241 1451.55 1243.46 1450.97 Q1245.91 1450.39 1247.95 1450.39 Q1253.32 1450.39 1256.51 1453.08 Q1259.71 1455.77 1259.71 1460.26 Q1259.71 1462.39 1258.9 1464.31 Q1258.11 1466.2 1256 1468.8 Q1255.43 1469.47 1252.32 1472.69 Q1249.22 1475.88 1243.57 1481.64 Z" fill="#000000" fill-rule="evenodd" fill-opacity="1" /><path clip-path="url(#clip130)" d="M1279.71 1454.1 Q1276.1 1454.1 1274.27 1457.66 Q1272.46 1461.2 1272.46 1468.33 Q1272.46 1475.44 1274.27 1479.01 Q1276.1 1482.55 1279.71 1482.55 Q1283.34 1482.55 1285.15 1479.01 Q1286.98 1475.44 1286.98 1468.33 Q1286.98 1461.2 1285.15 1457.66 Q1283.34 1454.1 1279.71 1454.1 M1279.71 1450.39 Q1285.52 1450.39 1288.57 1455 Q1291.65 1459.58 1291.65 1468.33 Q1291.65 1477.06 1288.57 1481.67 Q1285.52 1486.25 1279.71 1486.25 Q1273.9 1486.25 1270.82 1481.67 Q1267.76 1477.06 1267.76 1468.33 Q1267.76 1459.58 1270.82 1455 Q1273.9 1450.39 1279.71 1450.39 Z" fill="#000000" fill-rule="evenodd" fill-opacity="1" /><path clip-path="url(#clip130)" d="M1309.87 1454.1 Q1306.26 1454.1 1304.43 1457.66 Q1302.62 1461.2 1302.62 1468.33 Q1302.62 1475.44 1304.43 1479.01 Q1306.26 1482.55 1309.87 1482.55 Q1313.5 1482.55 1315.31 1479.01 Q1317.14 1475.44 1317.14 1468.33 Q1317.14 1461.2 1315.31 1457.66 Q1313.5 1454.1 1309.87 1454.1 M1309.87 1450.39 Q1315.68 1450.39 1318.74 1455 Q1321.81 1459.58 1321.81 1468.33 Q1321.81 1477.06 1318.74 1481.67 Q1315.68 1486.25 1309.87 1486.25 Q1304.06 1486.25 1300.98 1481.67 Q1297.93 1477.06 1297.93 1468.33 Q1297.93 1459.58 1300.98 1455 Q1304.06 1450.39 1309.87 1450.39 Z" fill="#000000" fill-rule="evenodd" fill-opacity="1" /><path clip-path="url(#clip130)" d="M1340.03 1454.1 Q1336.42 1454.1 1334.59 1457.66 Q1332.79 1461.2 1332.79 1468.33 Q1332.79 1475.44 1334.59 1479.01 Q1336.42 1482.55 1340.03 1482.55 Q1343.67 1482.55 1345.47 1479.01 Q1347.3 1475.44 1347.3 1468.33 Q1347.3 1461.2 1345.47 1457.66 Q1343.67 1454.1 1340.03 1454.1 M1340.03 1450.39 Q1345.84 1450.39 1348.9 1455 Q1351.98 1459.58 1351.98 1468.33 Q1351.98 1477.06 1348.9 1481.67 Q1345.84 1486.25 1340.03 1486.25 Q1334.22 1486.25 1331.14 1481.67 Q1328.09 1477.06 1328.09 1468.33 Q1328.09 1459.58 1331.14 1455 Q1334.22 1450.39 1340.03 1450.39 Z" fill="#000000" fill-rule="evenodd" fill-opacity="1" /><path clip-path="url(#clip130)" d="M1657.36 1481.64 L1673.68 1481.64 L1673.68 1485.58 L1651.74 1485.58 L1651.74 1481.64 Q1654.4 1478.89 1658.98 1474.26 Q1663.59 1469.61 1664.77 1468.27 Q1667.02 1465.74 1667.9 1464.01 Q1668.8 1462.25 1668.8 1460.56 Q1668.8 1457.8 1666.85 1456.07 Q1664.93 1454.33 1661.83 1454.33 Q1659.63 1454.33 1657.18 1455.09 Q1654.75 1455.86 1651.97 1457.41 L1651.97 1452.69 Q1654.79 1451.55 1657.25 1450.97 Q1659.7 1450.39 1661.74 1450.39 Q1667.11 1450.39 1670.3 1453.08 Q1673.5 1455.77 1673.5 1460.26 Q1673.5 1462.39 1672.69 1464.31 Q1671.9 1466.2 1669.79 1468.8 Q1669.21 1469.47 1666.11 1472.69 Q1663.01 1475.88 1657.36 1481.64 Z" fill="#000000" fill-rule="evenodd" fill-opacity="1" /><path clip-path="url(#clip130)" d="M1683.54 1451.02 L1701.9 1451.02 L1701.9 1454.96 L1687.83 1454.96 L1687.83 1463.43 Q1688.84 1463.08 1689.86 1462.92 Q1690.88 1462.73 1691.9 1462.73 Q1697.69 1462.73 1701.07 1465.9 Q1704.45 1469.08 1704.45 1474.49 Q1704.45 1480.07 1700.97 1483.17 Q1697.5 1486.25 1691.18 1486.25 Q1689.01 1486.25 1686.74 1485.88 Q1684.49 1485.51 1682.08 1484.77 L1682.08 1480.07 Q1684.17 1481.2 1686.39 1481.76 Q1688.61 1482.32 1691.09 1482.32 Q1695.09 1482.32 1697.43 1480.21 Q1699.77 1478.1 1699.77 1474.49 Q1699.77 1470.88 1697.43 1468.77 Q1695.09 1466.67 1691.09 1466.67 Q1689.21 1466.67 1687.34 1467.08 Q1685.49 1467.5 1683.54 1468.38 L1683.54 1451.02 Z" fill="#000000" fill-rule="evenodd" fill-opacity="1" /><path clip-path="url(#clip130)" d="M1723.66 1454.1 Q1720.05 1454.1 1718.22 1457.66 Q1716.41 1461.2 1716.41 1468.33 Q1716.41 1475.44 1718.22 1479.01 Q1720.05 1482.55 1723.66 1482.55 Q1727.29 1482.55 1729.1 1479.01 Q1730.93 1475.44 1730.93 1468.33 Q1730.93 1461.2 1729.1 1457.66 Q1727.29 1454.1 1723.66 1454.1 M1723.66 1450.39 Q1729.47 1450.39 1732.52 1455 Q1735.6 1459.58 1735.6 1468.33 Q1735.6 1477.06 1732.52 1481.67 Q1729.47 1486.25 1723.66 1486.25 Q1717.85 1486.25 1714.77 1481.67 Q1711.71 1477.06 1711.71 1468.33 Q1711.71 1459.58 1714.77 1455 Q1717.85 1450.39 1723.66 1450.39 Z" fill="#000000" fill-rule="evenodd" fill-opacity="1" /><path clip-path="url(#clip130)" d="M1753.82 1454.1 Q1750.21 1454.1 1748.38 1457.66 Q1746.58 1461.2 1746.58 1468.33 Q1746.58 1475.44 1748.38 1479.01 Q1750.21 1482.55 1753.82 1482.55 Q1757.45 1482.55 1759.26 1479.01 Q1761.09 1475.44 1761.09 1468.33 Q1761.09 1461.2 1759.26 1457.66 Q1757.45 1454.1 1753.82 1454.1 M1753.82 1450.39 Q1759.63 1450.39 1762.69 1455 Q1765.77 1459.58 1765.77 1468.33 Q1765.77 1477.06 1762.69 1481.67 Q1759.63 1486.25 1753.82 1486.25 Q1748.01 1486.25 1744.93 1481.67 Q1741.88 1477.06 1741.88 1468.33 Q1741.88 1459.58 1744.93 1455 Q1748.01 1450.39 1753.82 1450.39 Z" fill="#000000" fill-rule="evenodd" fill-opacity="1" /><path clip-path="url(#clip130)" d="M2081.22 1466.95 Q2084.58 1467.66 2086.45 1469.93 Q2088.35 1472.2 2088.35 1475.53 Q2088.35 1480.65 2084.83 1483.45 Q2081.31 1486.25 2074.83 1486.25 Q2072.66 1486.25 2070.34 1485.81 Q2068.05 1485.39 2065.6 1484.54 L2065.6 1480.02 Q2067.54 1481.16 2069.86 1481.74 Q2072.17 1482.32 2074.69 1482.32 Q2079.09 1482.32 2081.38 1480.58 Q2083.7 1478.84 2083.7 1475.53 Q2083.7 1472.48 2081.55 1470.77 Q2079.42 1469.03 2075.6 1469.03 L2071.57 1469.03 L2071.57 1465.19 L2075.78 1465.19 Q2079.23 1465.19 2081.06 1463.82 Q2082.89 1462.43 2082.89 1459.84 Q2082.89 1457.18 2080.99 1455.77 Q2079.11 1454.33 2075.6 1454.33 Q2073.67 1454.33 2071.48 1454.75 Q2069.28 1455.16 2066.64 1456.04 L2066.64 1451.88 Q2069.3 1451.14 2071.61 1450.77 Q2073.95 1450.39 2076.01 1450.39 Q2081.34 1450.39 2084.44 1452.83 Q2087.54 1455.23 2087.54 1459.35 Q2087.54 1462.22 2085.9 1464.21 Q2084.25 1466.18 2081.22 1466.95 Z" fill="#000000" fill-rule="evenodd" fill-opacity="1" /><path clip-path="url(#clip130)" d="M2107.22 1454.1 Q2103.61 1454.1 2101.78 1457.66 Q2099.97 1461.2 2099.97 1468.33 Q2099.97 1475.44 2101.78 1479.01 Q2103.61 1482.55 2107.22 1482.55 Q2110.85 1482.55 2112.66 1479.01 Q2114.48 1475.44 2114.48 1468.33 Q2114.48 1461.2 2112.66 1457.66 Q2110.85 1454.1 2107.22 1454.1 M2107.22 1450.39 Q2113.03 1450.39 2116.08 1455 Q2119.16 1459.58 2119.16 1468.33 Q2119.16 1477.06 2116.08 1481.67 Q2113.03 1486.25 2107.22 1486.25 Q2101.41 1486.25 2098.33 1481.67 Q2095.27 1477.06 2095.27 1468.33 Q2095.27 1459.58 2098.33 1455 Q2101.41 1450.39 2107.22 1450.39 Z" fill="#000000" fill-rule="evenodd" fill-opacity="1" /><path clip-path="url(#clip130)" d="M2137.38 1454.1 Q2133.77 1454.1 2131.94 1457.66 Q2130.13 1461.2 2130.13 1468.33 Q2130.13 1475.44 2131.94 1479.01 Q2133.77 1482.55 2137.38 1482.55 Q2141.01 1482.55 2142.82 1479.01 Q2144.65 1475.44 2144.65 1468.33 Q2144.65 1461.2 2142.82 1457.66 Q2141.01 1454.1 2137.38 1454.1 M2137.38 1450.39 Q2143.19 1450.39 2146.24 1455 Q2149.32 1459.58 2149.32 1468.33 Q2149.32 1477.06 2146.24 1481.67 Q2143.19 1486.25 2137.38 1486.25 Q2131.57 1486.25 2128.49 1481.67 Q2125.43 1477.06 2125.43 1468.33 Q2125.43 1459.58 2128.49 1455 Q2131.57 1450.39 2137.38 1450.39 Z" fill="#000000" fill-rule="evenodd" fill-opacity="1" /><path clip-path="url(#clip130)" d="M2167.54 1454.1 Q2163.93 1454.1 2162.1 1457.66 Q2160.29 1461.2 2160.29 1468.33 Q2160.29 1475.44 2162.1 1479.01 Q2163.93 1482.55 2167.54 1482.55 Q2171.17 1482.55 2172.98 1479.01 Q2174.81 1475.44 2174.81 1468.33 Q2174.81 1461.2 2172.98 1457.66 Q2171.17 1454.1 2167.54 1454.1 M2167.54 1450.39 Q2173.35 1450.39 2176.41 1455 Q2179.48 1459.58 2179.48 1468.33 Q2179.48 1477.06 2176.41 1481.67 Q2173.35 1486.25 2167.54 1486.25 Q2161.73 1486.25 2158.65 1481.67 Q2155.6 1477.06 2155.6 1468.33 Q2155.6 1459.58 2158.65 1455 Q2161.73 1450.39 2167.54 1450.39 Z" fill="#000000" fill-rule="evenodd" fill-opacity="1" /><path clip-path="url(#clip130)" d="M1251.09 1526.86 L1242.37 1550.51 L1259.84 1550.51 L1251.09 1526.86 M1247.46 1520.52 L1254.75 1520.52 L1272.86 1568.04 L1266.17 1568.04 L1261.85 1555.85 L1240.42 1555.85 L1236.1 1568.04 L1229.32 1568.04 L1247.46 1520.52 Z" fill="#000000" fill-rule="evenodd" fill-opacity="1" /><path clip-path="url(#clip130)" d="M1286.23 1525.81 L1286.23 1562.76 L1293.99 1562.76 Q1303.83 1562.76 1308.38 1558.3 Q1312.96 1553.85 1312.96 1544.24 Q1312.96 1534.69 1308.38 1530.26 Q1303.83 1525.81 1293.99 1525.81 L1286.23 1525.81 M1279.8 1520.52 L1293.01 1520.52 Q1306.82 1520.52 1313.28 1526.28 Q1319.74 1532.01 1319.74 1544.24 Q1319.74 1556.52 1313.25 1562.28 Q1306.76 1568.04 1293.01 1568.04 L1279.8 1568.04 L1279.8 1520.52 Z" fill="#000000" fill-rule="evenodd" fill-opacity="1" /><path clip-path="url(#clip130)" d="M1365.57 1524.18 L1365.57 1530.96 Q1362.33 1527.94 1358.64 1526.44 Q1354.98 1524.95 1350.84 1524.95 Q1342.69 1524.95 1338.36 1529.95 Q1334.03 1534.91 1334.03 1544.33 Q1334.03 1553.72 1338.36 1558.72 Q1342.69 1563.68 1350.84 1563.68 Q1354.98 1563.68 1358.64 1562.19 Q1362.33 1560.69 1365.57 1557.67 L1365.57 1564.38 Q1362.2 1566.68 1358.41 1567.82 Q1354.66 1568.97 1350.46 1568.97 Q1339.67 1568.97 1333.46 1562.38 Q1327.25 1555.76 1327.25 1544.33 Q1327.25 1532.87 1333.46 1526.28 Q1339.67 1519.66 1350.46 1519.66 Q1354.72 1519.66 1358.48 1520.81 Q1362.26 1521.92 1365.57 1524.18 Z" fill="#000000" fill-rule="evenodd" fill-opacity="1" /><polyline clip-path="url(#clip132)" style="stroke:#000000; stroke-linecap:butt; stroke-linejoin:round; stroke-width:2; stroke-opacity:0.1; fill:none" points="
  242.135,1386.4 2352.76,1386.4 
  "/>
<polyline clip-path="url(#clip132)" style="stroke:#000000; stroke-linecap:butt; stroke-linejoin:round; stroke-width:2; stroke-opacity:0.1; fill:none" points="
  242.135,1182.04 2352.76,1182.04 
  "/>
<polyline clip-path="url(#clip132)" style="stroke:#000000; stroke-linecap:butt; stroke-linejoin:round; stroke-width:2; stroke-opacity:0.1; fill:none" points="
  242.135,977.683 2352.76,977.683 
  "/>
<polyline clip-path="url(#clip132)" style="stroke:#000000; stroke-linecap:butt; stroke-linejoin:round; stroke-width:2; stroke-opacity:0.1; fill:none" points="
  242.135,773.326 2352.76,773.326 
  "/>
<polyline clip-path="url(#clip132)" style="stroke:#000000; stroke-linecap:butt; stroke-linejoin:round; stroke-width:2; stroke-opacity:0.1; fill:none" points="
  242.135,568.969 2352.76,568.969 
  "/>
<polyline clip-path="url(#clip132)" style="stroke:#000000; stroke-linecap:butt; stroke-linejoin:round; stroke-width:2; stroke-opacity:0.1; fill:none" points="
  242.135,364.613 2352.76,364.613 
  "/>
<polyline clip-path="url(#clip132)" style="stroke:#000000; stroke-linecap:butt; stroke-linejoin:round; stroke-width:2; stroke-opacity:0.1; fill:none" points="
  242.135,160.256 2352.76,160.256 
  "/>
<polyline clip-path="url(#clip130)" style="stroke:#000000; stroke-linecap:butt; stroke-linejoin:round; stroke-width:4; stroke-opacity:1; fill:none" points="
  242.135,1423.18 242.135,123.472 
  "/>
<polyline clip-path="url(#clip130)" style="stroke:#000000; stroke-linecap:butt; stroke-linejoin:round; stroke-width:4; stroke-opacity:1; fill:none" points="
  242.135,1386.4 261.032,1386.4 
  "/>
<polyline clip-path="url(#clip130)" style="stroke:#000000; stroke-linecap:butt; stroke-linejoin:round; stroke-width:4; stroke-opacity:1; fill:none" points="
  242.135,1182.04 261.032,1182.04 
  "/>
<polyline clip-path="url(#clip130)" style="stroke:#000000; stroke-linecap:butt; stroke-linejoin:round; stroke-width:4; stroke-opacity:1; fill:none" points="
  242.135,977.683 261.032,977.683 
  "/>
<polyline clip-path="url(#clip130)" style="stroke:#000000; stroke-linecap:butt; stroke-linejoin:round; stroke-width:4; stroke-opacity:1; fill:none" points="
  242.135,773.326 261.032,773.326 
  "/>
<polyline clip-path="url(#clip130)" style="stroke:#000000; stroke-linecap:butt; stroke-linejoin:round; stroke-width:4; stroke-opacity:1; fill:none" points="
  242.135,568.969 261.032,568.969 
  "/>
<polyline clip-path="url(#clip130)" style="stroke:#000000; stroke-linecap:butt; stroke-linejoin:round; stroke-width:4; stroke-opacity:1; fill:none" points="
  242.135,364.613 261.032,364.613 
  "/>
<polyline clip-path="url(#clip130)" style="stroke:#000000; stroke-linecap:butt; stroke-linejoin:round; stroke-width:4; stroke-opacity:1; fill:none" points="
  242.135,160.256 261.032,160.256 
  "/>
<path clip-path="url(#clip130)" d="M114.26 1386.85 L143.936 1386.85 L143.936 1390.78 L114.26 1390.78 L114.26 1386.85 Z" fill="#000000" fill-rule="evenodd" fill-opacity="1" /><path clip-path="url(#clip130)" d="M164.607 1384.53 Q161.459 1384.53 159.607 1386.69 Q157.778 1388.84 157.778 1392.59 Q157.778 1396.31 159.607 1398.49 Q161.459 1400.64 164.607 1400.64 Q167.755 1400.64 169.584 1398.49 Q171.436 1396.31 171.436 1392.59 Q171.436 1388.84 169.584 1386.69 Q167.755 1384.53 164.607 1384.53 M173.889 1369.88 L173.889 1374.14 Q172.13 1373.31 170.325 1372.87 Q168.542 1372.43 166.783 1372.43 Q162.153 1372.43 159.7 1375.55 Q157.269 1378.68 156.922 1385 Q158.288 1382.98 160.348 1381.92 Q162.408 1380.83 164.885 1380.83 Q170.093 1380.83 173.102 1384 Q176.135 1387.15 176.135 1392.59 Q176.135 1397.91 172.987 1401.13 Q169.839 1404.35 164.607 1404.35 Q158.612 1404.35 155.44 1399.76 Q152.269 1395.16 152.269 1386.43 Q152.269 1378.24 156.158 1373.37 Q160.047 1368.49 166.598 1368.49 Q168.357 1368.49 170.139 1368.84 Q171.945 1369.19 173.889 1369.88 Z" fill="#000000" fill-rule="evenodd" fill-opacity="1" /><path clip-path="url(#clip130)" d="M194.19 1372.19 Q190.579 1372.19 188.75 1375.76 Q186.945 1379.3 186.945 1386.43 Q186.945 1393.54 188.75 1397.1 Q190.579 1400.64 194.19 1400.64 Q197.825 1400.64 199.63 1397.1 Q201.459 1393.54 201.459 1386.43 Q201.459 1379.3 199.63 1375.76 Q197.825 1372.19 194.19 1372.19 M194.19 1368.49 Q200 1368.49 203.056 1373.1 Q206.135 1377.68 206.135 1386.43 Q206.135 1395.16 203.056 1399.76 Q200 1404.35 194.19 1404.35 Q188.38 1404.35 185.301 1399.76 Q182.246 1395.16 182.246 1386.43 Q182.246 1377.68 185.301 1373.1 Q188.38 1368.49 194.19 1368.49 Z" fill="#000000" fill-rule="evenodd" fill-opacity="1" /><path clip-path="url(#clip130)" d="M114.26 1182.49 L143.936 1182.49 L143.936 1186.43 L114.26 1186.43 L114.26 1182.49 Z" fill="#000000" fill-rule="evenodd" fill-opacity="1" /><path clip-path="url(#clip130)" d="M154.075 1164.76 L172.431 1164.76 L172.431 1168.69 L158.357 1168.69 L158.357 1177.17 Q159.376 1176.82 160.394 1176.66 Q161.413 1176.47 162.431 1176.47 Q168.218 1176.47 171.598 1179.64 Q174.977 1182.81 174.977 1188.23 Q174.977 1193.81 171.505 1196.91 Q168.033 1199.99 161.714 1199.99 Q159.538 1199.99 157.269 1199.62 Q155.024 1199.25 152.616 1198.51 L152.616 1193.81 Q154.7 1194.94 156.922 1195.5 Q159.144 1196.06 161.621 1196.06 Q165.626 1196.06 167.964 1193.95 Q170.302 1191.84 170.302 1188.23 Q170.302 1184.62 167.964 1182.51 Q165.626 1180.41 161.621 1180.41 Q159.746 1180.41 157.871 1180.82 Q156.019 1181.24 154.075 1182.12 L154.075 1164.76 Z" fill="#000000" fill-rule="evenodd" fill-opacity="1" /><path clip-path="url(#clip130)" d="M194.19 1167.84 Q190.579 1167.84 188.75 1171.4 Q186.945 1174.94 186.945 1182.07 Q186.945 1189.18 188.75 1192.75 Q190.579 1196.29 194.19 1196.29 Q197.825 1196.29 199.63 1192.75 Q201.459 1189.18 201.459 1182.07 Q201.459 1174.94 199.63 1171.4 Q197.825 1167.84 194.19 1167.84 M194.19 1164.13 Q200 1164.13 203.056 1168.74 Q206.135 1173.32 206.135 1182.07 Q206.135 1190.8 203.056 1195.41 Q200 1199.99 194.19 1199.99 Q188.38 1199.99 185.301 1195.41 Q182.246 1190.8 182.246 1182.07 Q182.246 1173.32 185.301 1168.74 Q188.38 1164.13 194.19 1164.13 Z" fill="#000000" fill-rule="evenodd" fill-opacity="1" /><path clip-path="url(#clip130)" d="M114.26 978.134 L143.936 978.134 L143.936 982.069 L114.26 982.069 L114.26 978.134 Z" fill="#000000" fill-rule="evenodd" fill-opacity="1" /><path clip-path="url(#clip130)" d="M166.876 964.477 L155.07 982.926 L166.876 982.926 L166.876 964.477 M165.649 960.403 L171.528 960.403 L171.528 982.926 L176.459 982.926 L176.459 986.814 L171.528 986.814 L171.528 994.963 L166.876 994.963 L166.876 986.814 L151.274 986.814 L151.274 982.301 L165.649 960.403 Z" fill="#000000" fill-rule="evenodd" fill-opacity="1" /><path clip-path="url(#clip130)" d="M194.19 963.481 Q190.579 963.481 188.75 967.046 Q186.945 970.588 186.945 977.717 Q186.945 984.824 188.75 988.389 Q190.579 991.93 194.19 991.93 Q197.825 991.93 199.63 988.389 Q201.459 984.824 201.459 977.717 Q201.459 970.588 199.63 967.046 Q197.825 963.481 194.19 963.481 M194.19 959.778 Q200 959.778 203.056 964.384 Q206.135 968.967 206.135 977.717 Q206.135 986.444 203.056 991.051 Q200 995.634 194.19 995.634 Q188.38 995.634 185.301 991.051 Q182.246 986.444 182.246 977.717 Q182.246 968.967 185.301 964.384 Q188.38 959.778 194.19 959.778 Z" fill="#000000" fill-rule="evenodd" fill-opacity="1" /><path clip-path="url(#clip130)" d="M114.26 773.777 L143.936 773.777 L143.936 777.713 L114.26 777.713 L114.26 773.777 Z" fill="#000000" fill-rule="evenodd" fill-opacity="1" /><path clip-path="url(#clip130)" d="M168.195 771.972 Q171.552 772.689 173.427 774.958 Q175.325 777.226 175.325 780.56 Q175.325 785.675 171.806 788.476 Q168.288 791.277 161.806 791.277 Q159.63 791.277 157.315 790.837 Q155.024 790.421 152.57 789.564 L152.57 785.05 Q154.515 786.185 156.829 786.763 Q159.144 787.342 161.667 787.342 Q166.065 787.342 168.357 785.606 Q170.672 783.87 170.672 780.56 Q170.672 777.504 168.519 775.791 Q166.39 774.055 162.57 774.055 L158.542 774.055 L158.542 770.213 L162.755 770.213 Q166.204 770.213 168.033 768.847 Q169.862 767.458 169.862 764.865 Q169.862 762.203 167.964 760.791 Q166.089 759.356 162.57 759.356 Q160.649 759.356 158.45 759.773 Q156.251 760.189 153.612 761.069 L153.612 756.902 Q156.274 756.162 158.589 755.791 Q160.927 755.421 162.987 755.421 Q168.311 755.421 171.413 757.852 Q174.514 760.259 174.514 764.379 Q174.514 767.25 172.871 769.24 Q171.227 771.208 168.195 771.972 Z" fill="#000000" fill-rule="evenodd" fill-opacity="1" /><path clip-path="url(#clip130)" d="M194.19 759.125 Q190.579 759.125 188.75 762.689 Q186.945 766.231 186.945 773.361 Q186.945 780.467 188.75 784.032 Q190.579 787.574 194.19 787.574 Q197.825 787.574 199.63 784.032 Q201.459 780.467 201.459 773.361 Q201.459 766.231 199.63 762.689 Q197.825 759.125 194.19 759.125 M194.19 755.421 Q200 755.421 203.056 760.027 Q206.135 764.611 206.135 773.361 Q206.135 782.088 203.056 786.694 Q200 791.277 194.19 791.277 Q188.38 791.277 185.301 786.694 Q182.246 782.088 182.246 773.361 Q182.246 764.611 185.301 760.027 Q188.38 755.421 194.19 755.421 Z" fill="#000000" fill-rule="evenodd" fill-opacity="1" /><path clip-path="url(#clip130)" d="M114.26 569.421 L143.936 569.421 L143.936 573.356 L114.26 573.356 L114.26 569.421 Z" fill="#000000" fill-rule="evenodd" fill-opacity="1" /><path clip-path="url(#clip130)" d="M158.056 582.314 L174.376 582.314 L174.376 586.249 L152.431 586.249 L152.431 582.314 Q155.093 579.56 159.677 574.93 Q164.283 570.277 165.464 568.935 Q167.709 566.412 168.589 564.675 Q169.491 562.916 169.491 561.226 Q169.491 558.472 167.547 556.736 Q165.626 555 162.524 555 Q160.325 555 157.871 555.763 Q155.44 556.527 152.663 558.078 L152.663 553.356 Q155.487 552.222 157.94 551.643 Q160.394 551.064 162.431 551.064 Q167.802 551.064 170.996 553.75 Q174.19 556.435 174.19 560.925 Q174.19 563.055 173.38 564.976 Q172.593 566.875 170.487 569.467 Q169.908 570.138 166.806 573.356 Q163.704 576.55 158.056 582.314 Z" fill="#000000" fill-rule="evenodd" fill-opacity="1" /><path clip-path="url(#clip130)" d="M194.19 554.768 Q190.579 554.768 188.75 558.333 Q186.945 561.875 186.945 569.004 Q186.945 576.111 188.75 579.675 Q190.579 583.217 194.19 583.217 Q197.825 583.217 199.63 579.675 Q201.459 576.111 201.459 569.004 Q201.459 561.875 199.63 558.333 Q197.825 554.768 194.19 554.768 M194.19 551.064 Q200 551.064 203.056 555.671 Q206.135 560.254 206.135 569.004 Q206.135 577.731 203.056 582.337 Q200 586.921 194.19 586.921 Q188.38 586.921 185.301 582.337 Q182.246 577.731 182.246 569.004 Q182.246 560.254 185.301 555.671 Q188.38 551.064 194.19 551.064 Z" fill="#000000" fill-rule="evenodd" fill-opacity="1" /><path clip-path="url(#clip130)" d="M114.26 365.064 L143.936 365.064 L143.936 368.999 L114.26 368.999 L114.26 365.064 Z" fill="#000000" fill-rule="evenodd" fill-opacity="1" /><path clip-path="url(#clip130)" d="M154.839 377.958 L162.477 377.958 L162.477 351.592 L154.167 353.259 L154.167 349 L162.431 347.333 L167.107 347.333 L167.107 377.958 L174.746 377.958 L174.746 381.893 L154.839 381.893 L154.839 377.958 Z" fill="#000000" fill-rule="evenodd" fill-opacity="1" /><path clip-path="url(#clip130)" d="M194.19 350.412 Q190.579 350.412 188.75 353.976 Q186.945 357.518 186.945 364.648 Q186.945 371.754 188.75 375.319 Q190.579 378.86 194.19 378.86 Q197.825 378.86 199.63 375.319 Q201.459 371.754 201.459 364.648 Q201.459 357.518 199.63 353.976 Q197.825 350.412 194.19 350.412 M194.19 346.708 Q200 346.708 203.056 351.314 Q206.135 355.898 206.135 364.648 Q206.135 373.374 203.056 377.981 Q200 382.564 194.19 382.564 Q188.38 382.564 185.301 377.981 Q182.246 373.374 182.246 364.648 Q182.246 355.898 185.301 351.314 Q188.38 346.708 194.19 346.708 Z" fill="#000000" fill-rule="evenodd" fill-opacity="1" /><path clip-path="url(#clip130)" d="M194.19 146.055 Q190.579 146.055 188.75 149.62 Q186.945 153.161 186.945 160.291 Q186.945 167.397 188.75 170.962 Q190.579 174.504 194.19 174.504 Q197.825 174.504 199.63 170.962 Q201.459 167.397 201.459 160.291 Q201.459 153.161 199.63 149.62 Q197.825 146.055 194.19 146.055 M194.19 142.351 Q200 142.351 203.056 146.958 Q206.135 151.541 206.135 160.291 Q206.135 169.018 203.056 173.624 Q200 178.208 194.19 178.208 Q188.38 178.208 185.301 173.624 Q182.246 169.018 182.246 160.291 Q182.246 151.541 185.301 146.958 Q188.38 142.351 194.19 142.351 Z" fill="#000000" fill-rule="evenodd" fill-opacity="1" /><path clip-path="url(#clip130)" d="M33.7671 817.552 L14.479 817.552 L14.479 811.695 L64.0042 811.695 L64.0042 817.552 L58.657 817.552 Q61.8398 819.398 63.3994 822.231 Q64.9272 825.031 64.9272 828.978 Q64.9272 835.439 59.771 839.513 Q54.6147 843.556 46.212 843.556 Q37.8093 843.556 32.6531 839.513 Q27.4968 835.439 27.4968 828.978 Q27.4968 825.031 29.0564 822.231 Q30.5842 819.398 33.7671 817.552 M46.212 837.508 Q52.6732 837.508 56.3653 834.866 Q60.0256 832.193 60.0256 827.546 Q60.0256 822.899 56.3653 820.225 Q52.6732 817.552 46.212 817.552 Q39.7508 817.552 36.0905 820.225 Q32.3984 822.899 32.3984 827.546 Q32.3984 832.193 36.0905 834.866 Q39.7508 837.508 46.212 837.508 Z" fill="#000000" fill-rule="evenodd" fill-opacity="1" /><path clip-path="url(#clip130)" d="M41.3104 792.948 L58.7206 792.948 L58.7206 782.636 Q58.7206 777.448 56.5881 774.965 Q54.4238 772.451 49.9996 772.451 Q45.5436 772.451 43.4429 774.965 Q41.3104 777.448 41.3104 782.636 L41.3104 792.948 M21.7677 792.948 L36.0905 792.948 L36.0905 783.432 Q36.0905 778.721 34.34 776.429 Q32.5576 774.106 28.9291 774.106 Q25.3325 774.106 23.5501 776.429 Q21.7677 778.721 21.7677 783.432 L21.7677 792.948 M16.4842 799.378 L16.4842 782.954 Q16.4842 775.602 19.5397 771.623 Q22.5952 767.645 28.2289 767.645 Q32.5894 767.645 35.1675 769.682 Q37.7456 771.719 38.3822 775.665 Q39.4007 770.923 42.6472 768.313 Q45.8619 765.671 50.6998 765.671 Q57.0655 765.671 60.5348 770 Q64.0042 774.329 64.0042 782.318 L64.0042 799.378 L16.4842 799.378 Z" fill="#000000" fill-rule="evenodd" fill-opacity="1" /><path clip-path="url(#clip130)" d="M35.1993 727.159 Q31.2526 724.963 29.3747 721.907 Q27.4968 718.851 27.4968 714.714 Q27.4968 709.144 31.4117 706.12 Q35.2948 703.096 42.4881 703.096 L64.0042 703.096 L64.0042 708.985 L42.679 708.985 Q37.5546 708.985 35.072 710.799 Q32.5894 712.613 32.5894 716.337 Q32.5894 720.888 35.6131 723.53 Q38.6368 726.172 43.8567 726.172 L64.0042 726.172 L64.0042 732.06 L42.679 732.06 Q37.5228 732.06 35.072 733.875 Q32.5894 735.689 32.5894 739.476 Q32.5894 743.964 35.6449 746.606 Q38.6686 749.248 43.8567 749.248 L64.0042 749.248 L64.0042 755.136 L28.3562 755.136 L28.3562 749.248 L33.8944 749.248 Q30.616 747.243 29.0564 744.442 Q27.4968 741.641 27.4968 737.789 Q27.4968 733.906 29.4702 731.201 Q31.4436 728.464 35.1993 727.159 Z" fill="#000000" fill-rule="evenodd" fill-opacity="1" /><path clip-path="url(#clip130)" d="M1135.11 39.9662 Q1140.98 41.222 1144.26 45.1919 Q1147.58 49.1618 1147.58 54.9951 Q1147.58 63.9476 1141.42 68.8492 Q1135.27 73.7508 1123.92 73.7508 Q1120.12 73.7508 1116.07 72.9811 Q1112.06 72.2519 1107.76 70.7531 L1107.76 62.8538 Q1111.16 64.8388 1115.22 65.8515 Q1119.27 66.8642 1123.68 66.8642 Q1131.38 66.8642 1135.39 63.826 Q1139.44 60.7879 1139.44 54.9951 Q1139.44 49.6479 1135.67 46.6502 Q1131.95 43.612 1125.26 43.612 L1118.21 43.612 L1118.21 36.8875 L1125.59 36.8875 Q1131.62 36.8875 1134.82 34.4975 Q1138.02 32.067 1138.02 27.5299 Q1138.02 22.8714 1134.7 20.4004 Q1131.42 17.8888 1125.26 17.8888 Q1121.9 17.8888 1118.05 18.618 Q1114.2 19.3471 1109.58 20.8865 L1109.58 13.5948 Q1114.24 12.2985 1118.29 11.6504 Q1122.39 11.0023 1125.99 11.0023 Q1135.31 11.0023 1140.74 15.2557 Q1146.16 19.4686 1146.16 26.6793 Q1146.16 31.7024 1143.29 35.1862 Q1140.41 38.6294 1135.11 39.9662 Z" fill="#000000" fill-rule="evenodd" fill-opacity="1" /><path clip-path="url(#clip130)" d="M1188.33 34.1734 Q1187.08 33.4443 1185.58 33.1202 Q1184.12 32.7556 1182.34 32.7556 Q1176.02 32.7556 1172.62 36.8875 Q1169.25 40.9789 1169.25 48.6757 L1169.25 72.576 L1161.76 72.576 L1161.76 27.2059 L1169.25 27.2059 L1169.25 34.2544 Q1171.6 30.1225 1175.37 28.1376 Q1179.14 26.1121 1184.53 26.1121 Q1185.3 26.1121 1186.23 26.2337 Q1187.16 26.3147 1188.29 26.5172 L1188.33 34.1734 Z" fill="#000000" fill-rule="evenodd" fill-opacity="1" /><path clip-path="url(#clip130)" d="M1224.55 34.0924 L1224.55 9.54393 L1232 9.54393 L1232 72.576 L1224.55 72.576 L1224.55 65.7705 Q1222.2 69.8214 1218.59 71.8063 Q1215.03 73.7508 1210.01 73.7508 Q1201.78 73.7508 1196.6 67.1883 Q1191.45 60.6258 1191.45 49.9314 Q1191.45 39.2371 1196.6 32.6746 Q1201.78 26.1121 1210.01 26.1121 Q1215.03 26.1121 1218.59 28.0971 Q1222.2 30.0415 1224.55 34.0924 M1199.15 49.9314 Q1199.15 58.1548 1202.51 62.8538 Q1205.92 67.5124 1211.83 67.5124 Q1217.74 67.5124 1221.15 62.8538 Q1224.55 58.1548 1224.55 49.9314 Q1224.55 41.7081 1221.15 37.0496 Q1217.74 32.3505 1211.83 32.3505 Q1205.92 32.3505 1202.51 37.0496 Q1199.15 41.7081 1199.15 49.9314 Z" fill="#000000" fill-rule="evenodd" fill-opacity="1" /><path clip-path="url(#clip130)" d="M1291.31 32.4315 Q1285.31 32.4315 1281.83 37.1306 Q1278.35 41.7891 1278.35 49.9314 Q1278.35 58.0738 1281.79 62.7728 Q1285.27 67.4314 1291.31 67.4314 Q1297.26 67.4314 1300.75 62.7323 Q1304.23 58.0333 1304.23 49.9314 Q1304.23 41.8701 1300.75 37.1711 Q1297.26 32.4315 1291.31 32.4315 M1291.31 26.1121 Q1301.03 26.1121 1306.58 32.4315 Q1312.13 38.7509 1312.13 49.9314 Q1312.13 61.0714 1306.58 67.4314 Q1301.03 73.7508 1291.31 73.7508 Q1281.55 73.7508 1276 67.4314 Q1270.49 61.0714 1270.49 49.9314 Q1270.49 38.7509 1276 32.4315 Q1281.55 26.1121 1291.31 26.1121 Z" fill="#000000" fill-rule="evenodd" fill-opacity="1" /><path clip-path="url(#clip130)" d="M1350.78 34.1734 Q1349.52 33.4443 1348.02 33.1202 Q1346.56 32.7556 1344.78 32.7556 Q1338.46 32.7556 1335.06 36.8875 Q1331.7 40.9789 1331.7 48.6757 L1331.7 72.576 L1324.2 72.576 L1324.2 27.2059 L1331.7 27.2059 L1331.7 34.2544 Q1334.05 30.1225 1337.81 28.1376 Q1341.58 26.1121 1346.97 26.1121 Q1347.74 26.1121 1348.67 26.2337 Q1349.6 26.3147 1350.73 26.5172 L1350.78 34.1734 Z" fill="#000000" fill-rule="evenodd" fill-opacity="1" /><path clip-path="url(#clip130)" d="M1386.99 34.0924 L1386.99 9.54393 L1394.44 9.54393 L1394.44 72.576 L1386.99 72.576 L1386.99 65.7705 Q1384.64 69.8214 1381.04 71.8063 Q1377.47 73.7508 1372.45 73.7508 Q1364.22 73.7508 1359.04 67.1883 Q1353.89 60.6258 1353.89 49.9314 Q1353.89 39.2371 1359.04 32.6746 Q1364.22 26.1121 1372.45 26.1121 Q1377.47 26.1121 1381.04 28.0971 Q1384.64 30.0415 1386.99 34.0924 M1361.59 49.9314 Q1361.59 58.1548 1364.95 62.8538 Q1368.36 67.5124 1374.27 67.5124 Q1380.19 67.5124 1383.59 62.8538 Q1386.99 58.1548 1386.99 49.9314 Q1386.99 41.7081 1383.59 37.0496 Q1380.19 32.3505 1374.27 32.3505 Q1368.36 32.3505 1364.95 37.0496 Q1361.59 41.7081 1361.59 49.9314 Z" fill="#000000" fill-rule="evenodd" fill-opacity="1" /><path clip-path="url(#clip130)" d="M1448.6 48.0275 L1448.6 51.6733 L1414.33 51.6733 Q1414.82 59.3701 1418.95 63.421 Q1423.12 67.4314 1430.54 67.4314 Q1434.83 67.4314 1438.84 66.3781 Q1442.89 65.3249 1446.86 63.2184 L1446.86 70.267 Q1442.85 71.9684 1438.64 72.8596 Q1434.43 73.7508 1430.09 73.7508 Q1419.24 73.7508 1412.88 67.4314 Q1406.56 61.1119 1406.56 50.3365 Q1406.56 39.1965 1412.55 32.6746 Q1418.59 26.1121 1428.8 26.1121 Q1437.95 26.1121 1443.26 32.0264 Q1448.6 37.9003 1448.6 48.0275 M1441.15 45.84 Q1441.07 39.7232 1437.71 36.0774 Q1434.39 32.4315 1428.88 32.4315 Q1422.64 32.4315 1418.87 35.9558 Q1415.14 39.4801 1414.58 45.8805 L1441.15 45.84 Z" fill="#000000" fill-rule="evenodd" fill-opacity="1" /><path clip-path="url(#clip130)" d="M1487.13 34.1734 Q1485.87 33.4443 1484.37 33.1202 Q1482.92 32.7556 1481.13 32.7556 Q1474.81 32.7556 1471.41 36.8875 Q1468.05 40.9789 1468.05 48.6757 L1468.05 72.576 L1460.55 72.576 L1460.55 27.2059 L1468.05 27.2059 L1468.05 34.2544 Q1470.4 30.1225 1474.17 28.1376 Q1477.93 26.1121 1483.32 26.1121 Q1484.09 26.1121 1485.02 26.2337 Q1485.95 26.3147 1487.09 26.5172 L1487.13 34.1734 Z" fill="#000000" fill-rule="evenodd" fill-opacity="1" /><circle clip-path="url(#clip132)" cx="301.869" cy="160.256" r="14" fill="#009af9" fill-rule="evenodd" fill-opacity="1" stroke="#000000" stroke-opacity="1" stroke-width="3.2"/>
<circle clip-path="url(#clip132)" cx="315.938" cy="180.692" r="14" fill="#009af9" fill-rule="evenodd" fill-opacity="1" stroke="#000000" stroke-opacity="1" stroke-width="3.2"/>
<circle clip-path="url(#clip132)" cx="339.938" cy="201.128" r="14" fill="#009af9" fill-rule="evenodd" fill-opacity="1" stroke="#000000" stroke-opacity="1" stroke-width="3.2"/>
<circle clip-path="url(#clip132)" cx="358.972" cy="221.563" r="14" fill="#009af9" fill-rule="evenodd" fill-opacity="1" stroke="#000000" stroke-opacity="1" stroke-width="3.2"/>
<circle clip-path="url(#clip132)" cx="385.455" cy="241.999" r="14" fill="#009af9" fill-rule="evenodd" fill-opacity="1" stroke="#000000" stroke-opacity="1" stroke-width="3.2"/>
<circle clip-path="url(#clip132)" cx="416.075" cy="262.435" r="14" fill="#009af9" fill-rule="evenodd" fill-opacity="1" stroke="#000000" stroke-opacity="1" stroke-width="3.2"/>
<circle clip-path="url(#clip132)" cx="451.661" cy="282.87" r="14" fill="#009af9" fill-rule="evenodd" fill-opacity="1" stroke="#000000" stroke-opacity="1" stroke-width="3.2"/>
<circle clip-path="url(#clip132)" cx="482.281" cy="303.306" r="14" fill="#009af9" fill-rule="evenodd" fill-opacity="1" stroke="#000000" stroke-opacity="1" stroke-width="3.2"/>
<circle clip-path="url(#clip132)" cx="517.039" cy="323.742" r="14" fill="#009af9" fill-rule="evenodd" fill-opacity="1" stroke="#000000" stroke-opacity="1" stroke-width="3.2"/>
<circle clip-path="url(#clip132)" cx="548.487" cy="344.177" r="14" fill="#009af9" fill-rule="evenodd" fill-opacity="1" stroke="#000000" stroke-opacity="1" stroke-width="3.2"/>
<circle clip-path="url(#clip132)" cx="581.591" cy="364.613" r="14" fill="#009af9" fill-rule="evenodd" fill-opacity="1" stroke="#000000" stroke-opacity="1" stroke-width="3.2"/>
<circle clip-path="url(#clip132)" cx="633.728" cy="385.049" r="14" fill="#009af9" fill-rule="evenodd" fill-opacity="1" stroke="#000000" stroke-opacity="1" stroke-width="3.2"/>
<circle clip-path="url(#clip132)" cx="670.141" cy="405.484" r="14" fill="#009af9" fill-rule="evenodd" fill-opacity="1" stroke="#000000" stroke-opacity="1" stroke-width="3.2"/>
<circle clip-path="url(#clip132)" cx="702.417" cy="425.92" r="14" fill="#009af9" fill-rule="evenodd" fill-opacity="1" stroke="#000000" stroke-opacity="1" stroke-width="3.2"/>
<circle clip-path="url(#clip132)" cx="733.865" cy="446.355" r="14" fill="#009af9" fill-rule="evenodd" fill-opacity="1" stroke="#000000" stroke-opacity="1" stroke-width="3.2"/>
<circle clip-path="url(#clip132)" cx="769.451" cy="466.791" r="14" fill="#009af9" fill-rule="evenodd" fill-opacity="1" stroke="#000000" stroke-opacity="1" stroke-width="3.2"/>
<circle clip-path="url(#clip132)" cx="799.243" cy="487.227" r="14" fill="#009af9" fill-rule="evenodd" fill-opacity="1" stroke="#000000" stroke-opacity="1" stroke-width="3.2"/>
<circle clip-path="url(#clip132)" cx="837.312" cy="507.662" r="14" fill="#009af9" fill-rule="evenodd" fill-opacity="1" stroke="#000000" stroke-opacity="1" stroke-width="3.2"/>
<circle clip-path="url(#clip132)" cx="871.243" cy="528.098" r="14" fill="#009af9" fill-rule="evenodd" fill-opacity="1" stroke="#000000" stroke-opacity="1" stroke-width="3.2"/>
<circle clip-path="url(#clip132)" cx="902.691" cy="548.534" r="14" fill="#009af9" fill-rule="evenodd" fill-opacity="1" stroke="#000000" stroke-opacity="1" stroke-width="3.2"/>
<circle clip-path="url(#clip132)" cx="949.863" cy="568.969" r="14" fill="#009af9" fill-rule="evenodd" fill-opacity="1" stroke="#000000" stroke-opacity="1" stroke-width="3.2"/>
<circle clip-path="url(#clip132)" cx="980.483" cy="589.405" r="14" fill="#009af9" fill-rule="evenodd" fill-opacity="1" stroke="#000000" stroke-opacity="1" stroke-width="3.2"/>
<circle clip-path="url(#clip132)" cx="1014.41" cy="609.841" r="14" fill="#009af9" fill-rule="evenodd" fill-opacity="1" stroke="#000000" stroke-opacity="1" stroke-width="3.2"/>
<circle clip-path="url(#clip132)" cx="1045.03" cy="630.276" r="14" fill="#009af9" fill-rule="evenodd" fill-opacity="1" stroke="#000000" stroke-opacity="1" stroke-width="3.2"/>
<circle clip-path="url(#clip132)" cx="1074" cy="650.712" r="14" fill="#009af9" fill-rule="evenodd" fill-opacity="1" stroke="#000000" stroke-opacity="1" stroke-width="3.2"/>
<circle clip-path="url(#clip132)" cx="1110.41" cy="671.148" r="14" fill="#009af9" fill-rule="evenodd" fill-opacity="1" stroke="#000000" stroke-opacity="1" stroke-width="3.2"/>
<circle clip-path="url(#clip132)" cx="1138.55" cy="691.583" r="14" fill="#009af9" fill-rule="evenodd" fill-opacity="1" stroke="#000000" stroke-opacity="1" stroke-width="3.2"/>
<circle clip-path="url(#clip132)" cx="1176.62" cy="712.019" r="14" fill="#009af9" fill-rule="evenodd" fill-opacity="1" stroke="#000000" stroke-opacity="1" stroke-width="3.2"/>
<circle clip-path="url(#clip132)" cx="1211.38" cy="732.455" r="14" fill="#009af9" fill-rule="evenodd" fill-opacity="1" stroke="#000000" stroke-opacity="1" stroke-width="3.2"/>
<circle clip-path="url(#clip132)" cx="1242.83" cy="752.89" r="14" fill="#009af9" fill-rule="evenodd" fill-opacity="1" stroke="#000000" stroke-opacity="1" stroke-width="3.2"/>
<circle clip-path="url(#clip132)" cx="1292.48" cy="773.326" r="14" fill="#009af9" fill-rule="evenodd" fill-opacity="1" stroke="#000000" stroke-opacity="1" stroke-width="3.2"/>
<circle clip-path="url(#clip132)" cx="1323.93" cy="793.762" r="14" fill="#009af9" fill-rule="evenodd" fill-opacity="1" stroke="#000000" stroke-opacity="1" stroke-width="3.2"/>
<circle clip-path="url(#clip132)" cx="1362" cy="814.197" r="14" fill="#009af9" fill-rule="evenodd" fill-opacity="1" stroke="#000000" stroke-opacity="1" stroke-width="3.2"/>
<circle clip-path="url(#clip132)" cx="1396.75" cy="834.633" r="14" fill="#009af9" fill-rule="evenodd" fill-opacity="1" stroke="#000000" stroke-opacity="1" stroke-width="3.2"/>
<circle clip-path="url(#clip132)" cx="1433.17" cy="855.069" r="14" fill="#009af9" fill-rule="evenodd" fill-opacity="1" stroke="#000000" stroke-opacity="1" stroke-width="3.2"/>
<circle clip-path="url(#clip132)" cx="1474.55" cy="875.504" r="14" fill="#009af9" fill-rule="evenodd" fill-opacity="1" stroke="#000000" stroke-opacity="1" stroke-width="3.2"/>
<circle clip-path="url(#clip132)" cx="1521.72" cy="895.94" r="14" fill="#009af9" fill-rule="evenodd" fill-opacity="1" stroke="#000000" stroke-opacity="1" stroke-width="3.2"/>
<circle clip-path="url(#clip132)" cx="1564.75" cy="916.376" r="14" fill="#009af9" fill-rule="evenodd" fill-opacity="1" stroke="#000000" stroke-opacity="1" stroke-width="3.2"/>
<circle clip-path="url(#clip132)" cx="1616.89" cy="936.811" r="14" fill="#009af9" fill-rule="evenodd" fill-opacity="1" stroke="#000000" stroke-opacity="1" stroke-width="3.2"/>
<circle clip-path="url(#clip132)" cx="1669.03" cy="957.247" r="14" fill="#009af9" fill-rule="evenodd" fill-opacity="1" stroke="#000000" stroke-opacity="1" stroke-width="3.2"/>
<circle clip-path="url(#clip132)" cx="1726.96" cy="977.683" r="14" fill="#009af9" fill-rule="evenodd" fill-opacity="1" stroke="#000000" stroke-opacity="1" stroke-width="3.2"/>
<circle clip-path="url(#clip132)" cx="1793.99" cy="998.118" r="14" fill="#009af9" fill-rule="evenodd" fill-opacity="1" stroke="#000000" stroke-opacity="1" stroke-width="3.2"/>
<circle clip-path="url(#clip132)" cx="1835.37" cy="1018.55" r="14" fill="#009af9" fill-rule="evenodd" fill-opacity="1" stroke="#000000" stroke-opacity="1" stroke-width="3.2"/>
<circle clip-path="url(#clip132)" cx="1863.51" cy="1038.99" r="14" fill="#009af9" fill-rule="evenodd" fill-opacity="1" stroke="#000000" stroke-opacity="1" stroke-width="3.2"/>
<circle clip-path="url(#clip132)" cx="1887.51" cy="1059.43" r="14" fill="#009af9" fill-rule="evenodd" fill-opacity="1" stroke="#000000" stroke-opacity="1" stroke-width="3.2"/>
<circle clip-path="url(#clip132)" cx="1920.61" cy="1079.86" r="14" fill="#009af9" fill-rule="evenodd" fill-opacity="1" stroke="#000000" stroke-opacity="1" stroke-width="3.2"/>
<circle clip-path="url(#clip132)" cx="1942.96" cy="1100.3" r="14" fill="#009af9" fill-rule="evenodd" fill-opacity="1" stroke="#000000" stroke-opacity="1" stroke-width="3.2"/>
<circle clip-path="url(#clip132)" cx="1978.54" cy="1120.73" r="14" fill="#009af9" fill-rule="evenodd" fill-opacity="1" stroke="#000000" stroke-opacity="1" stroke-width="3.2"/>
<circle clip-path="url(#clip132)" cx="1994.27" cy="1141.17" r="14" fill="#009af9" fill-rule="evenodd" fill-opacity="1" stroke="#000000" stroke-opacity="1" stroke-width="3.2"/>
<circle clip-path="url(#clip132)" cx="2022.4" cy="1161.6" r="14" fill="#009af9" fill-rule="evenodd" fill-opacity="1" stroke="#000000" stroke-opacity="1" stroke-width="3.2"/>
<circle clip-path="url(#clip132)" cx="2046.4" cy="1182.04" r="14" fill="#009af9" fill-rule="evenodd" fill-opacity="1" stroke="#000000" stroke-opacity="1" stroke-width="3.2"/>
<circle clip-path="url(#clip132)" cx="2072.89" cy="1202.47" r="14" fill="#009af9" fill-rule="evenodd" fill-opacity="1" stroke="#000000" stroke-opacity="1" stroke-width="3.2"/>
<circle clip-path="url(#clip132)" cx="2097.71" cy="1222.91" r="14" fill="#009af9" fill-rule="evenodd" fill-opacity="1" stroke="#000000" stroke-opacity="1" stroke-width="3.2"/>
<circle clip-path="url(#clip132)" cx="2115.92" cy="1243.35" r="14" fill="#009af9" fill-rule="evenodd" fill-opacity="1" stroke="#000000" stroke-opacity="1" stroke-width="3.2"/>
<circle clip-path="url(#clip132)" cx="2134.13" cy="1263.78" r="14" fill="#009af9" fill-rule="evenodd" fill-opacity="1" stroke="#000000" stroke-opacity="1" stroke-width="3.2"/>
<circle clip-path="url(#clip132)" cx="2162.26" cy="1284.22" r="14" fill="#009af9" fill-rule="evenodd" fill-opacity="1" stroke="#000000" stroke-opacity="1" stroke-width="3.2"/>
<circle clip-path="url(#clip132)" cx="2181.3" cy="1304.65" r="14" fill="#009af9" fill-rule="evenodd" fill-opacity="1" stroke="#000000" stroke-opacity="1" stroke-width="3.2"/>
<circle clip-path="url(#clip132)" cx="2207.78" cy="1325.09" r="14" fill="#009af9" fill-rule="evenodd" fill-opacity="1" stroke="#000000" stroke-opacity="1" stroke-width="3.2"/>
<circle clip-path="url(#clip132)" cx="2232.61" cy="1345.52" r="14" fill="#009af9" fill-rule="evenodd" fill-opacity="1" stroke="#000000" stroke-opacity="1" stroke-width="3.2"/>
<circle clip-path="url(#clip132)" cx="2258.26" cy="1365.96" r="14" fill="#009af9" fill-rule="evenodd" fill-opacity="1" stroke="#000000" stroke-opacity="1" stroke-width="3.2"/>
<circle clip-path="url(#clip132)" cx="2293.02" cy="1386.4" r="14" fill="#009af9" fill-rule="evenodd" fill-opacity="1" stroke="#000000" stroke-opacity="1" stroke-width="3.2"/>
<polyline clip-path="url(#clip132)" style="stroke:#e26f46; stroke-linecap:butt; stroke-linejoin:round; stroke-width:4; stroke-opacity:1; fill:none" points="
  301.869,163.411 303.862,165.021 305.856,166.629 307.849,168.234 309.842,169.837 311.835,171.438 313.828,173.035 315.821,174.631 317.814,176.224 319.808,177.814 
  321.801,179.402 323.794,180.987 325.787,182.57 327.78,184.15 329.773,185.728 331.766,187.304 333.76,188.877 335.753,190.447 337.746,192.015 339.739,193.581 
  341.732,195.144 343.725,196.705 345.718,198.263 347.712,199.819 349.705,201.372 351.698,202.923 353.691,204.472 355.684,206.018 357.677,207.562 359.67,209.104 
  361.664,210.643 363.657,212.179 365.65,213.714 367.643,215.245 369.636,216.775 371.629,218.302 373.622,219.827 375.616,221.349 377.609,222.87 379.602,224.387 
  381.595,225.903 383.588,227.416 385.581,228.927 387.574,230.435 389.568,231.941 391.561,233.445 393.554,234.947 395.547,236.446 397.54,237.943 399.533,239.438 
  401.526,240.93 403.52,242.42 405.513,243.908 407.506,245.394 409.499,246.877 411.492,248.358 413.485,249.837 415.479,251.313 417.472,252.788 419.465,254.26 
  421.458,255.73 423.451,257.197 425.444,258.663 427.437,260.126 429.431,261.587 431.424,263.046 433.417,264.502 435.41,265.957 437.403,267.409 439.396,268.859 
  441.389,270.307 443.383,271.752 445.376,273.196 447.369,274.637 449.362,276.076 451.355,277.513 453.348,278.948 455.341,280.381 457.335,281.811 459.328,283.24 
  461.321,284.666 463.314,286.09 465.307,287.513 467.3,288.933 469.293,290.35 471.287,291.766 473.28,293.18 475.273,294.592 477.266,296.001 479.259,297.409 
  481.252,298.814 483.245,300.217 485.239,301.618 487.232,303.018 489.225,304.415 491.218,305.81 493.211,307.203 495.204,308.594 497.197,309.983 499.191,311.37 
  501.184,312.755 503.177,314.138 505.17,315.519 507.163,316.898 509.156,318.275 511.149,319.649 513.143,321.022 515.136,322.393 517.129,323.762 519.122,325.129 
  521.115,326.494 523.108,327.857 525.101,329.219 527.095,330.578 529.088,331.935 531.081,333.29 533.074,334.643 535.067,335.995 537.06,337.344 539.054,338.692 
  541.047,340.038 543.04,341.381 545.033,342.723 547.026,344.063 549.019,345.401 551.012,346.737 553.006,348.072 554.999,349.404 556.992,350.734 558.985,352.063 
  560.978,353.39 562.971,354.715 564.964,356.038 566.958,357.359 568.951,358.679 570.944,359.996 572.937,361.312 574.93,362.626 576.923,363.938 578.916,365.248 
  580.91,366.557 582.903,367.863 584.896,369.168 586.889,370.471 588.882,371.772 590.875,373.072 592.868,374.37 594.862,375.666 596.855,376.96 598.848,378.252 
  600.841,379.543 602.834,380.832 604.827,382.119 606.82,383.404 608.814,384.688 610.807,385.97 612.8,387.25 614.793,388.529 616.786,389.806 618.779,391.081 
  620.772,392.354 622.766,393.626 624.759,394.896 626.752,396.164 628.745,397.431 630.738,398.695 632.731,399.959 634.724,401.22 636.718,402.48 638.711,403.739 
  640.704,404.995 642.697,406.25 644.69,407.504 646.683,408.755 648.677,410.005 650.67,411.254 652.663,412.501 654.656,413.746 656.649,414.989 658.642,416.231 
  660.635,417.472 662.629,418.711 664.622,419.948 666.615,421.183 668.608,422.418 670.601,423.65 672.594,424.881 674.587,426.11 676.581,427.338 678.574,428.564 
  680.567,429.789 682.56,431.012 684.553,432.234 686.546,433.454 688.539,434.673 690.533,435.89 692.526,437.105 694.519,438.319 696.512,439.532 698.505,440.743 
  700.498,441.952 702.491,443.16 704.485,444.367 706.478,445.572 708.471,446.776 710.464,447.978 712.457,449.178 714.45,450.378 716.443,451.575 718.437,452.772 
  720.43,453.967 722.423,455.16 724.416,456.352 726.409,457.543 728.402,458.732 730.395,459.92 732.389,461.106 734.382,462.291 736.375,463.475 738.368,464.657 
  740.361,465.837 742.354,467.017 744.347,468.195 746.341,469.371 748.334,470.547 750.327,471.721 752.32,472.893 754.313,474.064 756.306,475.234 758.299,476.403 
  760.293,477.57 762.286,478.736 764.279,479.9 766.272,481.064 768.265,482.225 770.258,483.386 772.252,484.545 774.245,485.703 776.238,486.86 778.231,488.015 
  780.224,489.169 782.217,490.322 784.21,491.474 786.204,492.624 788.197,493.773 790.19,494.921 792.183,496.068 794.176,497.213 796.169,498.357 798.162,499.5 
  800.156,500.641 802.149,501.782 804.142,502.921 806.135,504.059 808.128,505.195 810.121,506.331 812.114,507.465 814.108,508.598 816.101,509.73 818.094,510.861 
  820.087,511.99 822.08,513.119 824.073,514.246 826.066,515.372 828.06,516.497 830.053,517.621 832.046,518.743 834.039,519.865 836.032,520.985 838.025,522.104 
  840.018,523.222 842.012,524.339 844.005,525.455 845.998,526.57 847.991,527.684 849.984,528.796 851.977,529.908 853.97,531.018 855.964,532.127 857.957,533.235 
  859.95,534.343 861.943,535.449 863.936,536.554 865.929,537.657 867.922,538.76 869.916,539.862 871.909,540.963 873.902,542.063 875.895,543.161 877.888,544.259 
  879.881,545.356 881.874,546.452 883.868,547.546 885.861,548.64 887.854,549.733 889.847,550.824 891.84,551.915 893.833,553.005 895.827,554.093 897.82,555.181 
  899.813,556.268 901.806,557.354 903.799,558.438 905.792,559.522 907.785,560.605 909.779,561.687 911.772,562.768 913.765,563.849 915.758,564.928 917.751,566.006 
  919.744,567.084 921.737,568.16 923.731,569.236 925.724,570.31 927.717,571.384 929.71,572.457 931.703,573.529 933.696,574.6 935.689,575.67 937.683,576.74 
  939.676,577.808 941.669,578.876 943.662,579.943 945.655,581.009 947.648,582.074 949.641,583.138 951.635,584.202 953.628,585.264 955.621,586.326 957.614,587.387 
  959.607,588.448 961.6,589.507 963.593,590.566 965.587,591.623 967.58,592.68 969.573,593.737 971.566,594.792 973.559,595.847 975.552,596.901 977.545,597.954 
  979.539,599.006 981.532,600.058 983.525,601.109 985.518,602.159 987.511,603.209 989.504,604.257 991.497,605.305 993.491,606.353 995.484,607.399 997.477,608.445 
  999.47,609.49 1001.46,610.535 1003.46,611.578 1005.45,612.621 1007.44,613.664 1009.44,614.705 1011.43,615.746 1013.42,616.787 1015.42,617.827 1017.41,618.866 
  1019.4,619.904 1021.39,620.942 1023.39,621.979 1025.38,623.015 1027.37,624.051 1029.37,625.086 1031.36,626.121 1033.35,627.155 1035.35,628.188 1037.34,629.221 
  1039.33,630.253 1041.33,631.285 1043.32,632.316 1045.31,633.346 1047.31,634.376 1049.3,635.405 1051.29,636.434 1053.28,637.462 1055.28,638.49 1057.27,639.517 
  1059.26,640.543 1061.26,641.569 1063.25,642.595 1065.24,643.619 1067.24,644.644 1069.23,645.668 1071.22,646.691 1073.22,647.714 1075.21,648.736 1077.2,649.758 
  1079.2,650.779 1081.19,651.8 1083.18,652.82 1085.18,653.84 1087.17,654.86 1089.16,655.878 1091.15,656.897 1093.15,657.915 1095.14,658.933 1097.13,659.95 
  1099.13,660.966 1101.12,661.983 1103.11,662.998 1105.11,664.014 1107.1,665.029 1109.09,666.043 1111.09,667.057 1113.08,668.071 1115.07,669.084 1117.07,670.097 
  1119.06,671.11 1121.05,672.122 1123.05,673.134 1125.04,674.145 1127.03,675.156 1129.02,676.167 1131.02,677.177 1133.01,678.187 1135,679.197 1137,680.206 
  1138.99,681.215 1140.98,682.224 1142.98,683.232 1144.97,684.24 1146.96,685.248 1148.96,686.255 1150.95,687.262 1152.94,688.269 1154.94,689.276 1156.93,690.282 
  1158.92,691.288 1160.91,692.293 1162.91,693.299 1164.9,694.304 1166.89,695.309 1168.89,696.313 1170.88,697.317 1172.87,698.321 1174.87,699.325 1176.86,700.329 
  1178.85,701.332 1180.85,702.335 1182.84,703.338 1184.83,704.341 1186.83,705.344 1188.82,706.346 1190.81,707.348 1192.81,708.35 1194.8,709.352 1196.79,710.353 
  1198.78,711.354 1200.78,712.356 1202.77,713.357 1204.76,714.357 1206.76,715.358 1208.75,716.359 1210.74,717.359 1212.74,718.359 1214.73,719.36 1216.72,720.36 
  1218.72,721.359 1220.71,722.359 1222.7,723.359 1224.7,724.358 1226.69,725.358 1228.68,726.357 1230.67,727.356 1232.67,728.355 1234.66,729.355 1236.65,730.354 
  1238.65,731.352 1240.64,732.351 1242.63,733.35 1244.63,734.349 1246.62,735.348 1248.61,736.346 1250.61,737.345 1252.6,738.343 1254.59,739.342 1256.59,740.34 
  1258.58,741.339 1260.57,742.337 1262.57,743.336 1264.56,744.334 1266.55,745.333 1268.54,746.331 1270.54,747.33 1272.53,748.328 1274.52,749.327 1276.52,750.325 
  1278.51,751.324 1280.5,752.322 1282.5,753.321 1284.49,754.32 1286.48,755.319 1288.48,756.317 1290.47,757.316 1292.46,758.315 1294.46,759.314 1296.45,760.313 
  1298.44,761.313 1300.44,762.312 1302.43,763.311 1304.42,764.311 1306.41,765.31 1308.41,766.31 1310.4,767.31 1312.39,768.31 1314.39,769.31 1316.38,770.31 
  1318.37,771.311 1320.37,772.311 1322.36,773.312 1324.35,774.313 1326.35,775.314 1328.34,776.315 1330.33,777.316 1332.33,778.317 1334.32,779.319 1336.31,780.321 
  1338.3,781.323 1340.3,782.325 1342.29,783.328 1344.28,784.33 1346.28,785.333 1348.27,786.336 1350.26,787.339 1352.26,788.343 1354.25,789.347 1356.24,790.351 
  1358.24,791.355 1360.23,792.359 1362.22,793.364 1364.22,794.369 1366.21,795.374 1368.2,796.38 1370.2,797.386 1372.19,798.392 1374.18,799.398 1376.17,800.405 
  1378.17,801.412 1380.16,802.419 1382.15,803.427 1384.15,804.435 1386.14,805.443 1388.13,806.451 1390.13,807.46 1392.12,808.469 1394.11,809.479 1396.11,810.489 
  1398.1,811.499 1400.09,812.51 1402.09,813.521 1404.08,814.532 1406.07,815.544 1408.06,816.556 1410.06,817.568 1412.05,818.581 1414.04,819.594 1416.04,820.608 
  1418.03,821.622 1420.02,822.636 1422.02,823.651 1424.01,824.666 1426,825.682 1428,826.698 1429.99,827.714 1431.98,828.731 1433.98,829.749 1435.97,830.767 
  1437.96,831.785 1439.96,832.804 1441.95,833.823 1443.94,834.843 1445.93,835.863 1447.93,836.883 1449.92,837.905 1451.91,838.926 1453.91,839.948 1455.9,840.971 
  1457.89,841.994 1459.89,843.018 1461.88,844.042 1463.87,845.067 1465.87,846.092 1467.86,847.118 1469.85,848.144 1471.85,849.171 1473.84,850.198 1475.83,851.226 
  1477.82,852.255 1479.82,853.284 1481.81,854.313 1483.8,855.344 1485.8,856.374 1487.79,857.406 1489.78,858.438 1491.78,859.47 1493.77,860.504 1495.76,861.537 
  1497.76,862.572 1499.75,863.607 1501.74,864.642 1503.74,865.679 1505.73,866.716 1507.72,867.753 1509.72,868.791 1511.71,869.83 1513.7,870.87 1515.69,871.91 
  1517.69,872.951 1519.68,873.992 1521.67,875.034 1523.67,876.077 1525.66,877.121 1527.65,878.165 1529.65,879.21 1531.64,880.255 1533.63,881.302 1535.63,882.349 
  1537.62,883.396 1539.61,884.445 1541.61,885.494 1543.6,886.544 1545.59,887.595 1547.59,888.646 1549.58,889.698 1551.57,890.751 1553.56,891.805 1555.56,892.859 
  1557.55,893.915 1559.54,894.971 1561.54,896.027 1563.53,897.085 1565.52,898.143 1567.52,899.202 1569.51,900.262 1571.5,901.323 1573.5,902.385 1575.49,903.447 
  1577.48,904.51 1579.48,905.574 1581.47,906.639 1583.46,907.705 1585.45,908.772 1587.45,909.839 1589.44,910.907 1591.43,911.976 1593.43,913.046 1595.42,914.117 
  1597.41,915.189 1599.41,916.262 1601.4,917.335 1603.39,918.409 1605.39,919.485 1607.38,920.561 1609.37,921.638 1611.37,922.716 1613.36,923.795 1615.35,924.875 
  1617.35,925.956 1619.34,927.037 1621.33,928.12 1623.32,929.204 1625.32,930.288 1627.31,931.374 1629.3,932.46 1631.3,933.547 1633.29,934.636 1635.28,935.725 
  1637.28,936.816 1639.27,937.907 1641.26,938.999 1643.26,940.093 1645.25,941.187 1647.24,942.282 1649.24,943.379 1651.23,944.476 1653.22,945.574 1655.21,946.674 
  1657.21,947.774 1659.2,948.876 1661.19,949.978 1663.19,951.082 1665.18,952.187 1667.17,953.292 1669.17,954.399 1671.16,955.507 1673.15,956.616 1675.15,957.726 
  1677.14,958.837 1679.13,959.949 1681.13,961.062 1683.12,962.177 1685.11,963.292 1687.11,964.409 1689.1,965.526 1691.09,966.645 1693.08,967.765 1695.08,968.886 
  1697.07,970.009 1699.06,971.132 1701.06,972.256 1703.05,973.382 1705.04,974.509 1707.04,975.637 1709.03,976.766 1711.02,977.897 1713.02,979.028 1715.01,980.161 
  1717,981.295 1719,982.43 1720.99,983.566 1722.98,984.704 1724.97,985.842 1726.97,986.982 1728.96,988.124 1730.95,989.266 1732.95,990.41 1734.94,991.554 
  1736.93,992.701 1738.93,993.848 1740.92,994.997 1742.91,996.146 1744.91,997.298 1746.9,998.45 1748.89,999.604 1750.89,1000.76 1752.88,1001.91 1754.87,1003.07 
  1756.87,1004.23 1758.86,1005.39 1760.85,1006.55 1762.84,1007.72 1764.84,1008.88 1766.83,1010.05 1768.82,1011.21 1770.82,1012.38 1772.81,1013.55 1774.8,1014.72 
  1776.8,1015.89 1778.79,1017.07 1780.78,1018.24 1782.78,1019.42 1784.77,1020.59 1786.76,1021.77 1788.76,1022.95 1790.75,1024.14 1792.74,1025.32 1794.74,1026.5 
  1796.73,1027.69 1798.72,1028.88 1800.71,1030.06 1802.71,1031.25 1804.7,1032.45 1806.69,1033.64 1808.69,1034.83 1810.68,1036.03 1812.67,1037.23 1814.67,1038.43 
  1816.66,1039.63 1818.65,1040.83 1820.65,1042.03 1822.64,1043.24 1824.63,1044.44 1826.63,1045.65 1828.62,1046.86 1830.61,1048.07 1832.6,1049.28 1834.6,1050.49 
  1836.59,1051.71 1838.58,1052.93 1840.58,1054.14 1842.57,1055.36 1844.56,1056.58 1846.56,1057.81 1848.55,1059.03 1850.54,1060.26 1852.54,1061.48 1854.53,1062.71 
  1856.52,1063.94 1858.52,1065.18 1860.51,1066.41 1862.5,1067.64 1864.5,1068.88 1866.49,1070.12 1868.48,1071.36 1870.47,1072.6 1872.47,1073.84 1874.46,1075.09 
  1876.45,1076.33 1878.45,1077.58 1880.44,1078.83 1882.43,1080.08 1884.43,1081.34 1886.42,1082.59 1888.41,1083.85 1890.41,1085.1 1892.4,1086.36 1894.39,1087.63 
  1896.39,1088.89 1898.38,1090.15 1900.37,1091.42 1902.36,1092.69 1904.36,1093.96 1906.35,1095.23 1908.34,1096.5 1910.34,1097.77 1912.33,1099.05 1914.32,1100.33 
  1916.32,1101.61 1918.31,1102.89 1920.3,1104.17 1922.3,1105.46 1924.29,1106.74 1926.28,1108.03 1928.28,1109.32 1930.27,1110.61 1932.26,1111.91 1934.26,1113.2 
  1936.25,1114.5 1938.24,1115.8 1940.23,1117.1 1942.23,1118.4 1944.22,1119.71 1946.21,1121.01 1948.21,1122.32 1950.2,1123.63 1952.19,1124.94 1954.19,1126.25 
  1956.18,1127.57 1958.17,1128.89 1960.17,1130.21 1962.16,1131.53 1964.15,1132.85 1966.15,1134.17 1968.14,1135.5 1970.13,1136.83 1972.12,1138.16 1974.12,1139.49 
  1976.11,1140.82 1978.1,1142.16 1980.1,1143.5 1982.09,1144.84 1984.08,1146.18 1986.08,1147.52 1988.07,1148.86 1990.06,1150.21 1992.06,1151.56 1994.05,1152.91 
  1996.04,1154.26 1998.04,1155.62 2000.03,1156.97 2002.02,1158.33 2004.02,1159.69 2006.01,1161.06 2008,1162.42 2009.99,1163.79 2011.99,1165.16 2013.98,1166.53 
  2015.97,1167.9 2017.97,1169.27 2019.96,1170.65 2021.95,1172.03 2023.95,1173.41 2025.94,1174.79 2027.93,1176.17 2029.93,1177.56 2031.92,1178.95 2033.91,1180.34 
  2035.91,1181.73 2037.9,1183.13 2039.89,1184.52 2041.89,1185.92 2043.88,1187.32 2045.87,1188.72 2047.86,1190.13 2049.86,1191.54 2051.85,1192.94 2053.84,1194.35 
  2055.84,1195.77 2057.83,1197.18 2059.82,1198.6 2061.82,1200.02 2063.81,1201.44 2065.8,1202.86 2067.8,1204.29 2069.79,1205.72 2071.78,1207.15 2073.78,1208.58 
  2075.77,1210.01 2077.76,1211.45 2079.75,1212.89 2081.75,1214.33 2083.74,1215.77 2085.73,1217.22 2087.73,1218.66 2089.72,1220.11 2091.71,1221.57 2093.71,1223.02 
  2095.7,1224.47 2097.69,1225.93 2099.69,1227.39 2101.68,1228.86 2103.67,1230.32 2105.67,1231.79 2107.66,1233.26 2109.65,1234.73 2111.65,1236.2 2113.64,1237.68 
  2115.63,1239.15 2117.62,1240.64 2119.62,1242.12 2121.61,1243.6 2123.6,1245.09 2125.6,1246.58 2127.59,1248.07 2129.58,1249.56 2131.58,1251.06 2133.57,1252.56 
  2135.56,1254.06 2137.56,1255.56 2139.55,1257.07 2141.54,1258.58 2143.54,1260.09 2145.53,1261.6 2147.52,1263.11 2149.51,1264.63 2151.51,1266.15 2153.5,1267.67 
  2155.49,1269.2 2157.49,1270.72 2159.48,1272.25 2161.47,1273.78 2163.47,1275.32 2165.46,1276.85 2167.45,1278.39 2169.45,1279.93 2171.44,1281.47 2173.43,1283.02 
  2175.43,1284.57 2177.42,1286.12 2179.41,1287.67 2181.41,1289.22 2183.4,1290.78 2185.39,1292.34 2187.38,1293.9 2189.38,1295.47 2191.37,1297.04 2193.36,1298.61 
  2195.36,1300.18 2197.35,1301.75 2199.34,1303.33 2201.34,1304.91 2203.33,1306.49 2205.32,1308.08 2207.32,1309.66 2209.31,1311.25 2211.3,1312.84 2213.3,1314.44 
  2215.29,1316.04 2217.28,1317.64 2219.27,1319.24 2221.27,1320.84 2223.26,1322.45 2225.25,1324.06 2227.25,1325.67 2229.24,1327.29 2231.23,1328.9 2233.23,1330.52 
  2235.22,1332.15 2237.21,1333.77 2239.21,1335.4 2241.2,1337.03 2243.19,1338.66 2245.19,1340.3 2247.18,1341.93 2249.17,1343.57 2251.17,1345.22 2253.16,1346.86 
  2255.15,1348.51 2257.14,1350.16 2259.14,1351.82 2261.13,1353.47 2263.12,1355.13 2265.12,1356.79 2267.11,1358.46 2269.1,1360.12 2271.1,1361.79 2273.09,1363.46 
  2275.08,1365.14 2277.08,1366.82 2279.07,1368.5 2281.06,1370.18 2283.06,1371.86 2285.05,1373.55 2287.04,1375.24 2289.04,1376.94 2291.03,1378.63 2293.02,1380.33 
  
  "/>
<path clip-path="url(#clip130)" d="
M1384.33 322.316 L2282.4 322.316 L2282.4 166.796 L1384.33 166.796  Z
  " fill="#ffffff" fill-rule="evenodd" fill-opacity="1"/>
<polyline clip-path="url(#clip130)" style="stroke:#000000; stroke-linecap:butt; stroke-linejoin:round; stroke-width:4; stroke-opacity:1; fill:none" points="
  1384.33,322.316 2282.4,322.316 2282.4,166.796 1384.33,166.796 1384.33,322.316 
  "/>
<circle clip-path="url(#clip130)" cx="1478.13" cy="218.636" r="23" fill="#009af9" fill-rule="evenodd" fill-opacity="1" stroke="#000000" stroke-opacity="1" stroke-width="5.12"/>
<path clip-path="url(#clip130)" d="M1590.85 213.925 L1590.85 199.897 L1595.11 199.897 L1595.11 235.916 L1590.85 235.916 L1590.85 232.027 Q1589.51 234.342 1587.45 235.476 Q1585.41 236.587 1582.54 236.587 Q1577.84 236.587 1574.88 232.837 Q1571.94 229.087 1571.94 222.976 Q1571.94 216.865 1574.88 213.115 Q1577.84 209.365 1582.54 209.365 Q1585.41 209.365 1587.45 210.499 Q1589.51 211.61 1590.85 213.925 M1576.34 222.976 Q1576.34 227.675 1578.26 230.36 Q1580.2 233.022 1583.58 233.022 Q1586.96 233.022 1588.91 230.36 Q1590.85 227.675 1590.85 222.976 Q1590.85 218.277 1588.91 215.615 Q1586.96 212.93 1583.58 212.93 Q1580.2 212.93 1578.26 215.615 Q1576.34 218.277 1576.34 222.976 Z" fill="#000000" fill-rule="evenodd" fill-opacity="1" /><path clip-path="url(#clip130)" d="M1622.49 222.976 Q1622.49 218.277 1620.55 215.615 Q1618.63 212.93 1615.25 212.93 Q1611.87 212.93 1609.92 215.615 Q1608 218.277 1608 222.976 Q1608 227.675 1609.92 230.36 Q1611.87 233.022 1615.25 233.022 Q1618.63 233.022 1620.55 230.36 Q1622.49 227.675 1622.49 222.976 M1608 213.925 Q1609.35 211.61 1611.38 210.499 Q1613.44 209.365 1616.29 209.365 Q1621.01 209.365 1623.95 213.115 Q1626.91 216.865 1626.91 222.976 Q1626.91 229.087 1623.95 232.837 Q1621.01 236.587 1616.29 236.587 Q1613.44 236.587 1611.38 235.476 Q1609.35 234.342 1608 232.027 L1608 235.916 L1603.72 235.916 L1603.72 199.897 L1608 199.897 L1608 213.925 Z" fill="#000000" fill-rule="evenodd" fill-opacity="1" /><path clip-path="url(#clip130)" d="M1654.16 214.967 Q1655.76 212.096 1657.98 210.731 Q1660.2 209.365 1663.21 209.365 Q1667.26 209.365 1669.46 212.212 Q1671.66 215.036 1671.66 220.268 L1671.66 235.916 L1667.38 235.916 L1667.38 220.407 Q1667.38 216.68 1666.06 214.874 Q1664.74 213.069 1662.03 213.069 Q1658.72 213.069 1656.8 215.268 Q1654.88 217.467 1654.88 221.263 L1654.88 235.916 L1650.59 235.916 L1650.59 220.407 Q1650.59 216.657 1649.28 214.874 Q1647.96 213.069 1645.2 213.069 Q1641.94 213.069 1640.02 215.291 Q1638.09 217.49 1638.09 221.263 L1638.09 235.916 L1633.81 235.916 L1633.81 209.99 L1638.09 209.99 L1638.09 214.018 Q1639.55 211.633 1641.59 210.499 Q1643.63 209.365 1646.43 209.365 Q1649.25 209.365 1651.22 210.8 Q1653.21 212.235 1654.16 214.967 Z" fill="#000000" fill-rule="evenodd" fill-opacity="1" /><path clip-path="url(#clip130)" d="M1681.24 230.036 L1686.13 230.036 L1686.13 234.018 L1682.33 241.425 L1679.34 241.425 L1681.24 234.018 L1681.24 230.036 Z" fill="#000000" fill-rule="evenodd" fill-opacity="1" /><path clip-path="url(#clip130)" d="M1722.03 205.962 L1715.69 223.161 L1728.4 223.161 L1722.03 205.962 M1719.39 201.356 L1724.69 201.356 L1737.86 235.916 L1733 235.916 L1729.85 227.05 L1714.28 227.05 L1711.13 235.916 L1706.2 235.916 L1719.39 201.356 Z" fill="#000000" fill-rule="evenodd" fill-opacity="1" /><path clip-path="url(#clip130)" d="M1747.59 205.198 L1747.59 232.073 L1753.23 232.073 Q1760.39 232.073 1763.7 228.832 Q1767.03 225.592 1767.03 218.601 Q1767.03 211.657 1763.7 208.439 Q1760.39 205.198 1753.23 205.198 L1747.59 205.198 M1742.91 201.356 L1752.52 201.356 Q1762.56 201.356 1767.26 205.546 Q1771.96 209.712 1771.96 218.601 Q1771.96 227.536 1767.24 231.726 Q1762.52 235.916 1752.52 235.916 L1742.91 235.916 L1742.91 201.356 Z" fill="#000000" fill-rule="evenodd" fill-opacity="1" /><path clip-path="url(#clip130)" d="M1805.29 204.018 L1805.29 208.948 Q1802.93 206.749 1800.25 205.661 Q1797.58 204.573 1794.58 204.573 Q1788.65 204.573 1785.5 208.208 Q1782.35 211.819 1782.35 218.67 Q1782.35 225.499 1785.5 229.133 Q1788.65 232.744 1794.58 232.744 Q1797.58 232.744 1800.25 231.656 Q1802.93 230.569 1805.29 228.369 L1805.29 233.254 Q1802.84 234.92 1800.08 235.754 Q1797.35 236.587 1794.3 236.587 Q1786.45 236.587 1781.94 231.795 Q1777.42 226.981 1777.42 218.67 Q1777.42 210.337 1781.94 205.546 Q1786.45 200.731 1794.3 200.731 Q1797.4 200.731 1800.13 201.564 Q1802.89 202.374 1805.29 204.018 Z" fill="#000000" fill-rule="evenodd" fill-opacity="1" /><path clip-path="url(#clip130)" d="M1831.52 232.027 L1831.52 245.777 L1827.24 245.777 L1827.24 209.99 L1831.52 209.99 L1831.52 213.925 Q1832.86 211.61 1834.9 210.499 Q1836.96 209.365 1839.81 209.365 Q1844.53 209.365 1847.47 213.115 Q1850.43 216.865 1850.43 222.976 Q1850.43 229.087 1847.47 232.837 Q1844.53 236.587 1839.81 236.587 Q1836.96 236.587 1834.9 235.476 Q1832.86 234.342 1831.52 232.027 M1846.01 222.976 Q1846.01 218.277 1844.07 215.615 Q1842.14 212.93 1838.77 212.93 Q1835.39 212.93 1833.44 215.615 Q1831.52 218.277 1831.52 222.976 Q1831.52 227.675 1833.44 230.36 Q1835.39 233.022 1838.77 233.022 Q1842.14 233.022 1844.07 230.36 Q1846.01 227.675 1846.01 222.976 Z" fill="#000000" fill-rule="evenodd" fill-opacity="1" /><path clip-path="url(#clip130)" d="M1869.27 222.883 Q1864.11 222.883 1862.12 224.064 Q1860.13 225.244 1860.13 228.092 Q1860.13 230.36 1861.61 231.703 Q1863.12 233.022 1865.69 233.022 Q1869.23 233.022 1871.36 230.522 Q1873.51 227.999 1873.51 223.832 L1873.51 222.883 L1869.27 222.883 M1877.77 221.124 L1877.77 235.916 L1873.51 235.916 L1873.51 231.981 Q1872.05 234.342 1869.88 235.476 Q1867.7 236.587 1864.55 236.587 Q1860.57 236.587 1858.21 234.365 Q1855.87 232.119 1855.87 228.369 Q1855.87 223.994 1858.79 221.772 Q1861.73 219.55 1867.54 219.55 L1873.51 219.55 L1873.51 219.133 Q1873.51 216.194 1871.57 214.596 Q1869.64 212.976 1866.15 212.976 Q1863.93 212.976 1861.82 213.508 Q1859.71 214.041 1857.77 215.106 L1857.77 211.17 Q1860.11 210.268 1862.31 209.828 Q1864.51 209.365 1866.59 209.365 Q1872.21 209.365 1874.99 212.282 Q1877.77 215.198 1877.77 221.124 Z" fill="#000000" fill-rule="evenodd" fill-opacity="1" /><path clip-path="url(#clip130)" d="M1886.54 209.99 L1890.8 209.99 L1890.8 235.916 L1886.54 235.916 L1886.54 209.99 M1886.54 199.897 L1890.8 199.897 L1890.8 205.291 L1886.54 205.291 L1886.54 199.897 Z" fill="#000000" fill-rule="evenodd" fill-opacity="1" /><path clip-path="url(#clip130)" d="M1914.74 213.971 Q1914.02 213.555 1913.16 213.37 Q1912.33 213.161 1911.31 213.161 Q1907.7 213.161 1905.76 215.522 Q1903.83 217.86 1903.83 222.258 L1903.83 235.916 L1899.55 235.916 L1899.55 209.99 L1903.83 209.99 L1903.83 214.018 Q1905.18 211.657 1907.33 210.522 Q1909.48 209.365 1912.56 209.365 Q1913 209.365 1913.53 209.434 Q1914.07 209.481 1914.71 209.596 L1914.74 213.971 Z" fill="#000000" fill-rule="evenodd" fill-opacity="1" /><path clip-path="url(#clip130)" d="M1935.73 210.754 L1935.73 214.782 Q1933.93 213.856 1931.98 213.393 Q1930.04 212.93 1927.95 212.93 Q1924.78 212.93 1923.19 213.902 Q1921.61 214.874 1921.61 216.819 Q1921.61 218.3 1922.75 219.157 Q1923.88 219.99 1927.31 220.754 L1928.76 221.078 Q1933.3 222.05 1935.2 223.832 Q1937.12 225.592 1937.12 228.763 Q1937.12 232.374 1934.25 234.481 Q1931.4 236.587 1926.4 236.587 Q1924.32 236.587 1922.05 236.17 Q1919.81 235.777 1917.31 234.967 L1917.31 230.569 Q1919.67 231.795 1921.96 232.42 Q1924.25 233.022 1926.5 233.022 Q1929.51 233.022 1931.13 232.004 Q1932.75 230.962 1932.75 229.087 Q1932.75 227.351 1931.57 226.425 Q1930.41 225.499 1926.45 224.643 L1924.97 224.295 Q1921.01 223.462 1919.25 221.749 Q1917.49 220.013 1917.49 217.004 Q1917.49 213.346 1920.08 211.356 Q1922.68 209.365 1927.45 209.365 Q1929.81 209.365 1931.89 209.712 Q1933.97 210.059 1935.73 210.754 Z" fill="#000000" fill-rule="evenodd" fill-opacity="1" /><polyline clip-path="url(#clip130)" style="stroke:#e26f46; stroke-linecap:butt; stroke-linejoin:round; stroke-width:4; stroke-opacity:1; fill:none" points="
  1407.78,270.476 1548.49,270.476 
  "/>
<path clip-path="url(#clip130)" d="M1588.44 251.737 L1588.44 255.279 L1584.37 255.279 Q1582.08 255.279 1581.17 256.205 Q1580.29 257.131 1580.29 259.538 L1580.29 261.83 L1587.31 261.83 L1587.31 265.14 L1580.29 265.14 L1580.29 287.756 L1576.01 287.756 L1576.01 265.14 L1571.94 265.14 L1571.94 261.83 L1576.01 261.83 L1576.01 260.024 Q1576.01 255.696 1578.03 253.728 Q1580.04 251.737 1584.41 251.737 L1588.44 251.737 Z" fill="#000000" fill-rule="evenodd" fill-opacity="1" /><path clip-path="url(#clip130)" d="M1592.01 261.83 L1596.27 261.83 L1596.27 287.756 L1592.01 287.756 L1592.01 261.83 M1592.01 251.737 L1596.27 251.737 L1596.27 257.131 L1592.01 257.131 L1592.01 251.737 Z" fill="#000000" fill-rule="evenodd" fill-opacity="1" /><path clip-path="url(#clip130)" d="M1609.39 254.469 L1609.39 261.83 L1618.16 261.83 L1618.16 265.14 L1609.39 265.14 L1609.39 279.214 Q1609.39 282.385 1610.25 283.288 Q1611.13 284.191 1613.79 284.191 L1618.16 284.191 L1618.16 287.756 L1613.79 287.756 Q1608.86 287.756 1606.98 285.927 Q1605.11 284.075 1605.11 279.214 L1605.11 265.14 L1601.98 265.14 L1601.98 261.83 L1605.11 261.83 L1605.11 254.469 L1609.39 254.469 Z" fill="#000000" fill-rule="evenodd" fill-opacity="1" /><path clip-path="url(#clip130)" d="M1651.96 251.737 L1651.96 255.279 L1647.89 255.279 Q1645.59 255.279 1644.69 256.205 Q1643.81 257.131 1643.81 259.538 L1643.81 261.83 L1650.83 261.83 L1650.83 265.14 L1643.81 265.14 L1643.81 287.756 L1639.53 287.756 L1639.53 265.14 L1635.46 265.14 L1635.46 261.83 L1639.53 261.83 L1639.53 260.024 Q1639.53 255.696 1641.54 253.728 Q1643.56 251.737 1647.93 251.737 L1651.96 251.737 Z" fill="#000000" fill-rule="evenodd" fill-opacity="1" /><path clip-path="url(#clip130)" d="M1655.09 277.524 L1655.09 261.83 L1659.34 261.83 L1659.34 277.362 Q1659.34 281.043 1660.78 282.895 Q1662.22 284.723 1665.09 284.723 Q1668.53 284.723 1670.53 282.524 Q1672.54 280.325 1672.54 276.529 L1672.54 261.83 L1676.8 261.83 L1676.8 287.756 L1672.54 287.756 L1672.54 283.774 Q1670.99 286.135 1668.93 287.293 Q1666.89 288.427 1664.18 288.427 Q1659.72 288.427 1657.4 285.649 Q1655.09 282.871 1655.09 277.524 M1665.8 261.205 L1665.8 261.205 Z" fill="#000000" fill-rule="evenodd" fill-opacity="1" /><path clip-path="url(#clip130)" d="M1707.12 272.108 L1707.12 287.756 L1702.86 287.756 L1702.86 272.247 Q1702.86 268.566 1701.43 266.737 Q1699.99 264.909 1697.12 264.909 Q1693.67 264.909 1691.68 267.108 Q1689.69 269.307 1689.69 273.103 L1689.69 287.756 L1685.41 287.756 L1685.41 261.83 L1689.69 261.83 L1689.69 265.858 Q1691.22 263.52 1693.28 262.362 Q1695.36 261.205 1698.07 261.205 Q1702.54 261.205 1704.83 263.983 Q1707.12 266.737 1707.12 272.108 Z" fill="#000000" fill-rule="evenodd" fill-opacity="1" /><path clip-path="url(#clip130)" d="M1734.28 262.825 L1734.28 266.807 Q1732.47 265.811 1730.64 265.325 Q1728.84 264.816 1726.98 264.816 Q1722.84 264.816 1720.55 267.455 Q1718.26 270.071 1718.26 274.816 Q1718.26 279.561 1720.55 282.2 Q1722.84 284.816 1726.98 284.816 Q1728.84 284.816 1730.64 284.33 Q1732.47 283.821 1734.28 282.825 L1734.28 286.76 Q1732.49 287.594 1730.57 288.01 Q1728.67 288.427 1726.52 288.427 Q1720.66 288.427 1717.21 284.746 Q1713.77 281.066 1713.77 274.816 Q1713.77 268.473 1717.24 264.839 Q1720.73 261.205 1726.8 261.205 Q1728.77 261.205 1730.64 261.622 Q1732.52 262.015 1734.28 262.825 Z" fill="#000000" fill-rule="evenodd" fill-opacity="1" /><path clip-path="url(#clip130)" d="M1745.9 254.469 L1745.9 261.83 L1754.67 261.83 L1754.67 265.14 L1745.9 265.14 L1745.9 279.214 Q1745.9 282.385 1746.75 283.288 Q1747.63 284.191 1750.29 284.191 L1754.67 284.191 L1754.67 287.756 L1750.29 287.756 Q1745.36 287.756 1743.49 285.927 Q1741.61 284.075 1741.61 279.214 L1741.61 265.14 L1738.49 265.14 L1738.49 261.83 L1741.61 261.83 L1741.61 254.469 L1745.9 254.469 Z" fill="#000000" fill-rule="evenodd" fill-opacity="1" /><path clip-path="url(#clip130)" d="M1760.27 261.83 L1764.53 261.83 L1764.53 287.756 L1760.27 287.756 L1760.27 261.83 M1760.27 251.737 L1764.53 251.737 L1764.53 257.131 L1760.27 257.131 L1760.27 251.737 Z" fill="#000000" fill-rule="evenodd" fill-opacity="1" /><path clip-path="url(#clip130)" d="M1783.49 264.816 Q1780.06 264.816 1778.07 267.501 Q1776.08 270.163 1776.08 274.816 Q1776.08 279.469 1778.05 282.154 Q1780.04 284.816 1783.49 284.816 Q1786.89 284.816 1788.88 282.131 Q1790.87 279.446 1790.87 274.816 Q1790.87 270.21 1788.88 267.524 Q1786.89 264.816 1783.49 264.816 M1783.49 261.205 Q1789.04 261.205 1792.21 264.816 Q1795.39 268.427 1795.39 274.816 Q1795.39 281.182 1792.21 284.816 Q1789.04 288.427 1783.49 288.427 Q1777.91 288.427 1774.74 284.816 Q1771.59 281.182 1771.59 274.816 Q1771.59 268.427 1774.74 264.816 Q1777.91 261.205 1783.49 261.205 Z" fill="#000000" fill-rule="evenodd" fill-opacity="1" /><path clip-path="url(#clip130)" d="M1824 272.108 L1824 287.756 L1819.74 287.756 L1819.74 272.247 Q1819.74 268.566 1818.3 266.737 Q1816.87 264.909 1814 264.909 Q1810.55 264.909 1808.56 267.108 Q1806.57 269.307 1806.57 273.103 L1806.57 287.756 L1802.28 287.756 L1802.28 261.83 L1806.57 261.83 L1806.57 265.858 Q1808.09 263.52 1810.15 262.362 Q1812.24 261.205 1814.95 261.205 Q1819.41 261.205 1821.71 263.983 Q1824 266.737 1824 272.108 Z" fill="#000000" fill-rule="evenodd" fill-opacity="1" /><path clip-path="url(#clip130)" d="M1833.58 281.876 L1838.46 281.876 L1838.46 285.858 L1834.67 293.265 L1831.68 293.265 L1833.58 285.858 L1833.58 281.876 Z" fill="#000000" fill-rule="evenodd" fill-opacity="1" /><path clip-path="url(#clip130)" d="M1884.81 273.728 L1884.81 275.811 L1865.22 275.811 Q1865.5 280.209 1867.86 282.524 Q1870.25 284.816 1874.48 284.816 Q1876.94 284.816 1879.23 284.214 Q1881.54 283.612 1883.81 282.409 L1883.81 286.436 Q1881.52 287.408 1879.11 287.918 Q1876.7 288.427 1874.23 288.427 Q1868.02 288.427 1864.39 284.816 Q1860.78 281.205 1860.78 275.047 Q1860.78 268.682 1864.2 264.955 Q1867.65 261.205 1873.49 261.205 Q1878.72 261.205 1881.75 264.585 Q1884.81 267.941 1884.81 273.728 M1880.55 272.478 Q1880.5 268.983 1878.58 266.899 Q1876.68 264.816 1873.53 264.816 Q1869.97 264.816 1867.82 266.83 Q1865.69 268.844 1865.36 272.501 L1880.55 272.478 Z" fill="#000000" fill-rule="evenodd" fill-opacity="1" /><path clip-path="url(#clip130)" d="M1906.82 265.811 Q1906.1 265.395 1905.25 265.21 Q1904.41 265.001 1903.39 265.001 Q1899.78 265.001 1897.84 267.362 Q1895.92 269.7 1895.92 274.098 L1895.92 287.756 L1891.64 287.756 L1891.64 261.83 L1895.92 261.83 L1895.92 265.858 Q1897.26 263.497 1899.41 262.362 Q1901.57 261.205 1904.64 261.205 Q1905.08 261.205 1905.62 261.274 Q1906.15 261.321 1906.8 261.436 L1906.82 265.811 Z" fill="#000000" fill-rule="evenodd" fill-opacity="1" /><path clip-path="url(#clip130)" d="M1925.48 265.811 Q1924.76 265.395 1923.9 265.21 Q1923.07 265.001 1922.05 265.001 Q1918.44 265.001 1916.5 267.362 Q1914.57 269.7 1914.57 274.098 L1914.57 287.756 L1910.29 287.756 L1910.29 261.83 L1914.57 261.83 L1914.57 265.858 Q1915.92 263.497 1918.07 262.362 Q1920.22 261.205 1923.3 261.205 Q1923.74 261.205 1924.27 261.274 Q1924.81 261.321 1925.45 261.436 L1925.48 265.811 Z" fill="#000000" fill-rule="evenodd" fill-opacity="1" /><path clip-path="url(#clip130)" d="M1938.95 264.816 Q1935.52 264.816 1933.53 267.501 Q1931.54 270.163 1931.54 274.816 Q1931.54 279.469 1933.51 282.154 Q1935.5 284.816 1938.95 284.816 Q1942.35 284.816 1944.34 282.131 Q1946.33 279.446 1946.33 274.816 Q1946.33 270.21 1944.34 267.524 Q1942.35 264.816 1938.95 264.816 M1938.95 261.205 Q1944.51 261.205 1947.68 264.816 Q1950.85 268.427 1950.85 274.816 Q1950.85 281.182 1947.68 284.816 Q1944.51 288.427 1938.95 288.427 Q1933.37 288.427 1930.2 284.816 Q1927.05 281.182 1927.05 274.816 Q1927.05 268.427 1930.2 264.816 Q1933.37 261.205 1938.95 261.205 Z" fill="#000000" fill-rule="evenodd" fill-opacity="1" /><path clip-path="url(#clip130)" d="M1972.93 265.811 Q1972.21 265.395 1971.36 265.21 Q1970.52 265.001 1969.51 265.001 Q1965.89 265.001 1963.95 267.362 Q1962.03 269.7 1962.03 274.098 L1962.03 287.756 L1957.75 287.756 L1957.75 261.83 L1962.03 261.83 L1962.03 265.858 Q1963.37 263.497 1965.52 262.362 Q1967.68 261.205 1970.76 261.205 Q1971.2 261.205 1971.73 261.274 Q1972.26 261.321 1972.91 261.436 L1972.93 265.811 Z" fill="#000000" fill-rule="evenodd" fill-opacity="1" /><path clip-path="url(#clip130)" d="M1993.02 266.228 L2022.7 266.228 L2022.7 270.117 L1993.02 270.117 L1993.02 266.228 M1993.02 275.672 L2022.7 275.672 L2022.7 279.608 L1993.02 279.608 L1993.02 275.672 Z" fill="#000000" fill-rule="evenodd" fill-opacity="1" /><path clip-path="url(#clip130)" d="M2048.67 283.821 L2056.31 283.821 L2056.31 257.455 L2048 259.122 L2048 254.862 L2056.26 253.196 L2060.94 253.196 L2060.94 283.821 L2068.58 283.821 L2068.58 287.756 L2048.67 287.756 L2048.67 283.821 Z" fill="#000000" fill-rule="evenodd" fill-opacity="1" /><path clip-path="url(#clip130)" d="M2088.6 268.612 Q2085.45 268.612 2083.6 270.765 Q2081.77 272.918 2081.77 276.668 Q2081.77 280.395 2083.6 282.571 Q2085.45 284.723 2088.6 284.723 Q2091.75 284.723 2093.58 282.571 Q2095.43 280.395 2095.43 276.668 Q2095.43 272.918 2093.58 270.765 Q2091.75 268.612 2088.6 268.612 M2097.88 253.96 L2097.88 258.219 Q2096.12 257.386 2094.32 256.946 Q2092.54 256.506 2090.78 256.506 Q2086.15 256.506 2083.69 259.631 Q2081.26 262.756 2080.92 269.075 Q2082.28 267.061 2084.34 265.997 Q2086.4 264.909 2088.88 264.909 Q2094.09 264.909 2097.1 268.08 Q2100.13 271.228 2100.13 276.668 Q2100.13 281.992 2096.98 285.209 Q2093.83 288.427 2088.6 288.427 Q2082.61 288.427 2079.44 283.844 Q2076.26 279.237 2076.26 270.51 Q2076.26 262.316 2080.15 257.455 Q2084.04 252.571 2090.59 252.571 Q2092.35 252.571 2094.13 252.918 Q2095.94 253.265 2097.88 253.96 Z" fill="#000000" fill-rule="evenodd" fill-opacity="1" /><path clip-path="url(#clip130)" d="M2108.19 281.876 L2113.07 281.876 L2113.07 287.756 L2108.19 287.756 L2108.19 281.876 Z" fill="#000000" fill-rule="evenodd" fill-opacity="1" /><path clip-path="url(#clip130)" d="M2133.83 268.612 Q2130.68 268.612 2128.83 270.765 Q2127 272.918 2127 276.668 Q2127 280.395 2128.83 282.571 Q2130.68 284.723 2133.83 284.723 Q2136.98 284.723 2138.81 282.571 Q2140.66 280.395 2140.66 276.668 Q2140.66 272.918 2138.81 270.765 Q2136.98 268.612 2133.83 268.612 M2143.12 253.96 L2143.12 258.219 Q2141.36 257.386 2139.55 256.946 Q2137.77 256.506 2136.01 256.506 Q2131.38 256.506 2128.93 259.631 Q2126.5 262.756 2126.15 269.075 Q2127.51 267.061 2129.57 265.997 Q2131.63 264.909 2134.11 264.909 Q2139.32 264.909 2142.33 268.08 Q2145.36 271.228 2145.36 276.668 Q2145.36 281.992 2142.21 285.209 Q2139.06 288.427 2133.83 288.427 Q2127.84 288.427 2124.67 283.844 Q2121.5 279.237 2121.5 270.51 Q2121.5 262.316 2125.38 257.455 Q2129.27 252.571 2135.82 252.571 Q2137.58 252.571 2139.37 252.918 Q2141.17 253.265 2143.12 253.96 Z" fill="#000000" fill-rule="evenodd" fill-opacity="1" /><path clip-path="url(#clip130)" d="M2163.42 271.344 Q2160.08 271.344 2158.16 273.126 Q2156.26 274.909 2156.26 278.034 Q2156.26 281.159 2158.16 282.941 Q2160.08 284.723 2163.42 284.723 Q2166.75 284.723 2168.67 282.941 Q2170.59 281.135 2170.59 278.034 Q2170.59 274.909 2168.67 273.126 Q2166.77 271.344 2163.42 271.344 M2158.74 269.353 Q2155.73 268.612 2154.04 266.552 Q2152.37 264.492 2152.37 261.529 Q2152.37 257.386 2155.31 254.978 Q2158.28 252.571 2163.42 252.571 Q2168.58 252.571 2171.52 254.978 Q2174.46 257.386 2174.46 261.529 Q2174.46 264.492 2172.77 266.552 Q2171.1 268.612 2168.12 269.353 Q2171.49 270.14 2173.37 272.432 Q2175.27 274.723 2175.27 278.034 Q2175.27 283.057 2172.19 285.742 Q2169.13 288.427 2163.42 288.427 Q2157.7 288.427 2154.62 285.742 Q2151.56 283.057 2151.56 278.034 Q2151.56 274.723 2153.46 272.432 Q2155.36 270.14 2158.74 269.353 M2157.03 261.969 Q2157.03 264.654 2158.69 266.159 Q2160.38 267.663 2163.42 267.663 Q2166.43 267.663 2168.12 266.159 Q2169.83 264.654 2169.83 261.969 Q2169.83 259.284 2168.12 257.779 Q2166.43 256.274 2163.42 256.274 Q2160.38 256.274 2158.69 257.779 Q2157.03 259.284 2157.03 261.969 Z" fill="#000000" fill-rule="evenodd" fill-opacity="1" /><path clip-path="url(#clip130)" d="M2197.74 269.122 Q2201.1 269.839 2202.98 272.108 Q2204.87 274.376 2204.87 277.709 Q2204.87 282.825 2201.36 285.626 Q2197.84 288.427 2191.36 288.427 Q2189.18 288.427 2186.87 287.987 Q2184.57 287.571 2182.12 286.714 L2182.12 282.2 Q2184.06 283.334 2186.38 283.913 Q2188.69 284.492 2191.22 284.492 Q2195.62 284.492 2197.91 282.756 Q2200.22 281.02 2200.22 277.709 Q2200.22 274.654 2198.07 272.941 Q2195.94 271.205 2192.12 271.205 L2188.09 271.205 L2188.09 267.362 L2192.3 267.362 Q2195.75 267.362 2197.58 265.997 Q2199.41 264.608 2199.41 262.015 Q2199.41 259.353 2197.51 257.941 Q2195.64 256.506 2192.12 256.506 Q2190.2 256.506 2188 256.923 Q2185.8 257.339 2183.16 258.219 L2183.16 254.052 Q2185.82 253.311 2188.14 252.941 Q2190.48 252.571 2192.54 252.571 Q2197.86 252.571 2200.96 255.001 Q2204.06 257.409 2204.06 261.529 Q2204.06 264.399 2202.42 266.39 Q2200.78 268.358 2197.74 269.122 Z" fill="#000000" fill-rule="evenodd" fill-opacity="1" /><path clip-path="url(#clip130)" d="M2213.88 287.038 L2213.88 282.779 Q2215.64 283.612 2217.44 284.052 Q2219.25 284.492 2220.99 284.492 Q2225.61 284.492 2228.05 281.39 Q2230.5 278.265 2230.85 271.922 Q2229.5 273.913 2227.44 274.978 Q2225.38 276.043 2222.88 276.043 Q2217.7 276.043 2214.67 272.918 Q2211.66 269.77 2211.66 264.33 Q2211.66 259.006 2214.8 255.788 Q2217.95 252.571 2223.18 252.571 Q2229.18 252.571 2232.33 257.177 Q2235.5 261.76 2235.5 270.51 Q2235.5 278.682 2231.61 283.566 Q2227.74 288.427 2221.19 288.427 Q2219.43 288.427 2217.63 288.08 Q2215.82 287.733 2213.88 287.038 M2223.18 272.385 Q2226.33 272.385 2228.16 270.233 Q2230.01 268.08 2230.01 264.33 Q2230.01 260.603 2228.16 258.45 Q2226.33 256.274 2223.18 256.274 Q2220.04 256.274 2218.18 258.45 Q2216.36 260.603 2216.36 264.33 Q2216.36 268.08 2218.18 270.233 Q2220.04 272.385 2223.18 272.385 Z" fill="#000000" fill-rule="evenodd" fill-opacity="1" /></svg>
