<?xml version="1.0" encoding="utf-8"?>
<svg xmlns="http://www.w3.org/2000/svg" xmlns:xlink="http://www.w3.org/1999/xlink" width="600" height="400" viewBox="0 0 2400 1600">
<defs>
  <clipPath id="clip210">
    <rect x="0" y="0" width="2400" height="1600"/>
  </clipPath>
</defs>
<path clip-path="url(#clip210)" d="
M0 1600 L2400 1600 L2400 8.88178e-14 L0 8.88178e-14  Z
  " fill="#ffffff" fill-rule="evenodd" fill-opacity="1"/>
<defs>
  <clipPath id="clip211">
    <rect x="480" y="0" width="1681" height="1600"/>
  </clipPath>
</defs>
<path clip-path="url(#clip210)" d="
M242.135 1423.18 L2352.76 1423.18 L2352.76 123.472 L242.135 123.472  Z
  " fill="#ffffff" fill-rule="evenodd" fill-opacity="1"/>
<defs>
  <clipPath id="clip212">
    <rect x="242" y="123" width="2112" height="1301"/>
  </clipPath>
</defs>
<polyline clip-path="url(#clip212)" style="stroke:#000000; stroke-linecap:butt; stroke-linejoin:round; stroke-width:2; stroke-opacity:0.1; fill:none" points="
  467.385,1423.18 467.385,123.472 
  "/>
<polyline clip-path="url(#clip212)" style="stroke:#000000; stroke-linecap:butt; stroke-linejoin:round; stroke-width:2; stroke-opacity:0.1; fill:none" points="
  881.174,1423.18 881.174,123.472 
  "/>
<polyline clip-path="url(#clip212)" style="stroke:#000000; stroke-linecap:butt; stroke-linejoin:round; stroke-width:2; stroke-opacity:0.1; fill:none" points="
  1294.96,1423.18 1294.96,123.472 
  "/>
<polyline clip-path="url(#clip212)" style="stroke:#000000; stroke-linecap:butt; stroke-linejoin:round; stroke-width:2; stroke-opacity:0.1; fill:none" points="
  1708.75,1423.18 1708.75,123.472 
  "/>
<polyline clip-path="url(#clip212)" style="stroke:#000000; stroke-linecap:butt; stroke-linejoin:round; stroke-width:2; stroke-opacity:0.1; fill:none" points="
  2122.54,1423.18 2122.54,123.472 
  "/>
<polyline clip-path="url(#clip210)" style="stroke:#000000; stroke-linecap:butt; stroke-linejoin:round; stroke-width:4; stroke-opacity:1; fill:none" points="
  242.135,1423.18 2352.76,1423.18 
  "/>
<polyline clip-path="url(#clip210)" style="stroke:#000000; stroke-linecap:butt; stroke-linejoin:round; stroke-width:4; stroke-opacity:1; fill:none" points="
  467.385,1423.18 467.385,1404.28 
  "/>
<polyline clip-path="url(#clip210)" style="stroke:#000000; stroke-linecap:butt; stroke-linejoin:round; stroke-width:4; stroke-opacity:1; fill:none" points="
  881.174,1423.18 881.174,1404.28 
  "/>
<polyline clip-path="url(#clip210)" style="stroke:#000000; stroke-linecap:butt; stroke-linejoin:round; stroke-width:4; stroke-opacity:1; fill:none" points="
  1294.96,1423.18 1294.96,1404.28 
  "/>
<polyline clip-path="url(#clip210)" style="stroke:#000000; stroke-linecap:butt; stroke-linejoin:round; stroke-width:4; stroke-opacity:1; fill:none" points="
  1708.75,1423.18 1708.75,1404.28 
  "/>
<polyline clip-path="url(#clip210)" style="stroke:#000000; stroke-linecap:butt; stroke-linejoin:round; stroke-width:4; stroke-opacity:1; fill:none" points="
  2122.54,1423.18 2122.54,1404.28 
  "/>
<path clip-path="url(#clip210)" d="M411.911 1481.64 L419.549 1481.64 L419.549 1455.28 L411.239 1456.95 L411.239 1452.69 L419.503 1451.02 L424.179 1451.02 L424.179 1481.64 L431.818 1481.64 L431.818 1485.58 L411.911 1485.58 L411.911 1481.64 Z" fill="#000000" fill-rule="evenodd" fill-opacity="1" /><path clip-path="url(#clip210)" d="M451.262 1454.1 Q447.651 1454.1 445.822 1457.66 Q444.017 1461.2 444.017 1468.33 Q444.017 1475.44 445.822 1479.01 Q447.651 1482.55 451.262 1482.55 Q454.896 1482.55 456.702 1479.01 Q458.531 1475.44 458.531 1468.33 Q458.531 1461.2 456.702 1457.66 Q454.896 1454.1 451.262 1454.1 M451.262 1450.39 Q457.072 1450.39 460.128 1455 Q463.207 1459.58 463.207 1468.33 Q463.207 1477.06 460.128 1481.67 Q457.072 1486.25 451.262 1486.25 Q445.452 1486.25 442.373 1481.67 Q439.318 1477.06 439.318 1468.33 Q439.318 1459.58 442.373 1455 Q445.452 1450.39 451.262 1450.39 Z" fill="#000000" fill-rule="evenodd" fill-opacity="1" /><path clip-path="url(#clip210)" d="M481.424 1454.1 Q477.813 1454.1 475.984 1457.66 Q474.179 1461.2 474.179 1468.33 Q474.179 1475.44 475.984 1479.01 Q477.813 1482.55 481.424 1482.55 Q485.058 1482.55 486.864 1479.01 Q488.693 1475.44 488.693 1468.33 Q488.693 1461.2 486.864 1457.66 Q485.058 1454.1 481.424 1454.1 M481.424 1450.39 Q487.234 1450.39 490.29 1455 Q493.368 1459.58 493.368 1468.33 Q493.368 1477.06 490.29 1481.67 Q487.234 1486.25 481.424 1486.25 Q475.614 1486.25 472.535 1481.67 Q469.48 1477.06 469.48 1468.33 Q469.48 1459.58 472.535 1455 Q475.614 1450.39 481.424 1450.39 Z" fill="#000000" fill-rule="evenodd" fill-opacity="1" /><path clip-path="url(#clip210)" d="M511.586 1454.1 Q507.975 1454.1 506.146 1457.66 Q504.341 1461.2 504.341 1468.33 Q504.341 1475.44 506.146 1479.01 Q507.975 1482.55 511.586 1482.55 Q515.22 1482.55 517.026 1479.01 Q518.854 1475.44 518.854 1468.33 Q518.854 1461.2 517.026 1457.66 Q515.22 1454.1 511.586 1454.1 M511.586 1450.39 Q517.396 1450.39 520.452 1455 Q523.53 1459.58 523.53 1468.33 Q523.53 1477.06 520.452 1481.67 Q517.396 1486.25 511.586 1486.25 Q505.776 1486.25 502.697 1481.67 Q499.642 1477.06 499.642 1468.33 Q499.642 1459.58 502.697 1455 Q505.776 1450.39 511.586 1450.39 Z" fill="#000000" fill-rule="evenodd" fill-opacity="1" /><path clip-path="url(#clip210)" d="M825.699 1481.64 L833.338 1481.64 L833.338 1455.28 L825.028 1456.95 L825.028 1452.69 L833.292 1451.02 L837.968 1451.02 L837.968 1481.64 L845.607 1481.64 L845.607 1485.58 L825.699 1485.58 L825.699 1481.64 Z" fill="#000000" fill-rule="evenodd" fill-opacity="1" /><path clip-path="url(#clip210)" d="M855.097 1451.02 L873.454 1451.02 L873.454 1454.96 L859.38 1454.96 L859.38 1463.43 Q860.398 1463.08 861.417 1462.92 Q862.435 1462.73 863.454 1462.73 Q869.241 1462.73 872.62 1465.9 Q876 1469.08 876 1474.49 Q876 1480.07 872.528 1483.17 Q869.056 1486.25 862.736 1486.25 Q860.56 1486.25 858.292 1485.88 Q856.046 1485.51 853.639 1484.77 L853.639 1480.07 Q855.722 1481.2 857.945 1481.76 Q860.167 1482.32 862.644 1482.32 Q866.648 1482.32 868.986 1480.21 Q871.324 1478.1 871.324 1474.49 Q871.324 1470.88 868.986 1468.77 Q866.648 1466.67 862.644 1466.67 Q860.769 1466.67 858.894 1467.08 Q857.042 1467.5 855.097 1468.38 L855.097 1451.02 Z" fill="#000000" fill-rule="evenodd" fill-opacity="1" /><path clip-path="url(#clip210)" d="M895.213 1454.1 Q891.602 1454.1 889.773 1457.66 Q887.968 1461.2 887.968 1468.33 Q887.968 1475.44 889.773 1479.01 Q891.602 1482.55 895.213 1482.55 Q898.847 1482.55 900.653 1479.01 Q902.481 1475.44 902.481 1468.33 Q902.481 1461.2 900.653 1457.66 Q898.847 1454.1 895.213 1454.1 M895.213 1450.39 Q901.023 1450.39 904.079 1455 Q907.157 1459.58 907.157 1468.33 Q907.157 1477.06 904.079 1481.67 Q901.023 1486.25 895.213 1486.25 Q889.403 1486.25 886.324 1481.67 Q883.269 1477.06 883.269 1468.33 Q883.269 1459.58 886.324 1455 Q889.403 1450.39 895.213 1450.39 Z" fill="#000000" fill-rule="evenodd" fill-opacity="1" /><path clip-path="url(#clip210)" d="M925.375 1454.1 Q921.764 1454.1 919.935 1457.66 Q918.129 1461.2 918.129 1468.33 Q918.129 1475.44 919.935 1479.01 Q921.764 1482.55 925.375 1482.55 Q929.009 1482.55 930.815 1479.01 Q932.643 1475.44 932.643 1468.33 Q932.643 1461.2 930.815 1457.66 Q929.009 1454.1 925.375 1454.1 M925.375 1450.39 Q931.185 1450.39 934.241 1455 Q937.319 1459.58 937.319 1468.33 Q937.319 1477.06 934.241 1481.67 Q931.185 1486.25 925.375 1486.25 Q919.565 1486.25 916.486 1481.67 Q913.43 1477.06 913.43 1468.33 Q913.43 1459.58 916.486 1455 Q919.565 1450.39 925.375 1450.39 Z" fill="#000000" fill-rule="evenodd" fill-opacity="1" /><path clip-path="url(#clip210)" d="M1243.57 1481.64 L1259.89 1481.64 L1259.89 1485.58 L1237.95 1485.58 L1237.95 1481.64 Q1240.61 1478.89 1245.19 1474.26 Q1249.8 1469.61 1250.98 1468.27 Q1253.23 1465.74 1254.11 1464.01 Q1255.01 1462.25 1255.01 1460.56 Q1255.01 1457.8 1253.06 1456.07 Q1251.14 1454.33 1248.04 1454.33 Q1245.84 1454.33 1243.39 1455.09 Q1240.96 1455.86 1238.18 1457.41 L1238.18 1452.69 Q1241 1451.55 1243.46 1450.97 Q1245.91 1450.39 1247.95 1450.39 Q1253.32 1450.39 1256.51 1453.08 Q1259.71 1455.77 1259.71 1460.26 Q1259.71 1462.39 1258.9 1464.31 Q1258.11 1466.2 1256 1468.8 Q1255.43 1469.47 1252.32 1472.69 Q1249.22 1475.88 1243.57 1481.64 Z" fill="#000000" fill-rule="evenodd" fill-opacity="1" /><path clip-path="url(#clip210)" d="M1279.71 1454.1 Q1276.1 1454.1 1274.27 1457.66 Q1272.46 1461.2 1272.46 1468.33 Q1272.46 1475.44 1274.27 1479.01 Q1276.1 1482.55 1279.71 1482.55 Q1283.34 1482.55 1285.15 1479.01 Q1286.98 1475.44 1286.98 1468.33 Q1286.98 1461.2 1285.15 1457.66 Q1283.34 1454.1 1279.71 1454.1 M1279.71 1450.39 Q1285.52 1450.39 1288.57 1455 Q1291.65 1459.58 1291.65 1468.33 Q1291.65 1477.06 1288.57 1481.67 Q1285.52 1486.25 1279.71 1486.25 Q1273.9 1486.25 1270.82 1481.67 Q1267.76 1477.06 1267.76 1468.33 Q1267.76 1459.58 1270.82 1455 Q1273.9 1450.39 1279.71 1450.39 Z" fill="#000000" fill-rule="evenodd" fill-opacity="1" /><path clip-path="url(#clip210)" d="M1309.87 1454.1 Q1306.26 1454.1 1304.43 1457.66 Q1302.62 1461.2 1302.62 1468.33 Q1302.62 1475.44 1304.43 1479.01 Q1306.26 1482.55 1309.87 1482.55 Q1313.5 1482.55 1315.31 1479.01 Q1317.14 1475.44 1317.14 1468.33 Q1317.14 1461.2 1315.31 1457.66 Q1313.5 1454.1 1309.87 1454.1 M1309.87 1450.39 Q1315.68 1450.39 1318.74 1455 Q1321.81 1459.58 1321.81 1468.33 Q1321.81 1477.06 1318.74 1481.67 Q1315.68 1486.25 1309.87 1486.25 Q1304.06 1486.25 1300.98 1481.67 Q1297.93 1477.06 1297.93 1468.33 Q1297.93 1459.58 1300.98 1455 Q1304.06 1450.39 1309.87 1450.39 Z" fill="#000000" fill-rule="evenodd" fill-opacity="1" /><path clip-path="url(#clip210)" d="M1340.03 1454.1 Q1336.42 1454.1 1334.59 1457.66 Q1332.79 1461.2 1332.79 1468.33 Q1332.79 1475.44 1334.59 1479.01 Q1336.42 1482.55 1340.03 1482.55 Q1343.67 1482.55 1345.47 1479.01 Q1347.3 1475.44 1347.3 1468.33 Q1347.3 1461.2 1345.47 1457.66 Q1343.67 1454.1 1340.03 1454.1 M1340.03 1450.39 Q1345.84 1450.39 1348.9 1455 Q1351.98 1459.58 1351.98 1468.33 Q1351.98 1477.06 1348.9 1481.67 Q1345.84 1486.25 1340.03 1486.25 Q1334.22 1486.25 1331.14 1481.67 Q1328.09 1477.06 1328.09 1468.33 Q1328.09 1459.58 1331.14 1455 Q1334.22 1450.39 1340.03 1450.39 Z" fill="#000000" fill-rule="evenodd" fill-opacity="1" /><path clip-path="url(#clip210)" d="M1657.36 1481.64 L1673.68 1481.64 L1673.68 1485.58 L1651.74 1485.58 L1651.74 1481.64 Q1654.4 1478.89 1658.98 1474.26 Q1663.59 1469.61 1664.77 1468.27 Q1667.02 1465.74 1667.9 1464.01 Q1668.8 1462.25 1668.8 1460.56 Q1668.8 1457.8 1666.85 1456.07 Q1664.93 1454.33 1661.83 1454.33 Q1659.63 1454.33 1657.18 1455.09 Q1654.75 1455.86 1651.97 1457.41 L1651.97 1452.69 Q1654.79 1451.55 1657.25 1450.97 Q1659.7 1450.39 1661.74 1450.39 Q1667.11 1450.39 1670.3 1453.08 Q1673.5 1455.77 1673.5 1460.26 Q1673.5 1462.39 1672.69 1464.31 Q1671.9 1466.2 1669.79 1468.8 Q1669.21 1469.47 1666.11 1472.69 Q1663.01 1475.88 1657.36 1481.64 Z" fill="#000000" fill-rule="evenodd" fill-opacity="1" /><path clip-path="url(#clip210)" d="M1683.54 1451.02 L1701.9 1451.02 L1701.9 1454.96 L1687.83 1454.96 L1687.83 1463.43 Q1688.84 1463.08 1689.86 1462.92 Q1690.88 1462.73 1691.9 1462.73 Q1697.69 1462.73 1701.07 1465.9 Q1704.45 1469.08 1704.45 1474.49 Q1704.45 1480.07 1700.97 1483.17 Q1697.5 1486.25 1691.18 1486.25 Q1689.01 1486.25 1686.74 1485.88 Q1684.49 1485.51 1682.08 1484.77 L1682.08 1480.07 Q1684.17 1481.2 1686.39 1481.76 Q1688.61 1482.32 1691.09 1482.32 Q1695.09 1482.32 1697.43 1480.21 Q1699.77 1478.1 1699.77 1474.49 Q1699.77 1470.88 1697.43 1468.77 Q1695.09 1466.67 1691.09 1466.67 Q1689.21 1466.67 1687.34 1467.08 Q1685.49 1467.5 1683.54 1468.38 L1683.54 1451.02 Z" fill="#000000" fill-rule="evenodd" fill-opacity="1" /><path clip-path="url(#clip210)" d="M1723.66 1454.1 Q1720.05 1454.1 1718.22 1457.66 Q1716.41 1461.2 1716.41 1468.33 Q1716.41 1475.44 1718.22 1479.01 Q1720.05 1482.55 1723.66 1482.55 Q1727.29 1482.55 1729.1 1479.01 Q1730.93 1475.44 1730.93 1468.33 Q1730.93 1461.2 1729.1 1457.66 Q1727.29 1454.1 1723.66 1454.1 M1723.66 1450.39 Q1729.47 1450.39 1732.52 1455 Q1735.6 1459.58 1735.6 1468.33 Q1735.6 1477.06 1732.52 1481.67 Q1729.47 1486.25 1723.66 1486.25 Q1717.85 1486.25 1714.77 1481.67 Q1711.71 1477.06 1711.71 1468.33 Q1711.71 1459.58 1714.77 1455 Q1717.85 1450.39 1723.66 1450.39 Z" fill="#000000" fill-rule="evenodd" fill-opacity="1" /><path clip-path="url(#clip210)" d="M1753.82 1454.1 Q1750.21 1454.1 1748.38 1457.66 Q1746.58 1461.2 1746.58 1468.33 Q1746.58 1475.44 1748.38 1479.01 Q1750.21 1482.55 1753.82 1482.55 Q1757.45 1482.55 1759.26 1479.01 Q1761.09 1475.44 1761.09 1468.33 Q1761.09 1461.2 1759.26 1457.66 Q1757.45 1454.1 1753.82 1454.1 M1753.82 1450.39 Q1759.63 1450.39 1762.69 1455 Q1765.77 1459.58 1765.77 1468.33 Q1765.77 1477.06 1762.69 1481.67 Q1759.63 1486.25 1753.82 1486.25 Q1748.01 1486.25 1744.93 1481.67 Q1741.88 1477.06 1741.88 1468.33 Q1741.88 1459.58 1744.93 1455 Q1748.01 1450.39 1753.82 1450.39 Z" fill="#000000" fill-rule="evenodd" fill-opacity="1" /><path clip-path="url(#clip210)" d="M2081.22 1466.95 Q2084.58 1467.66 2086.45 1469.93 Q2088.35 1472.2 2088.35 1475.53 Q2088.35 1480.65 2084.83 1483.45 Q2081.31 1486.25 2074.83 1486.25 Q2072.66 1486.25 2070.34 1485.81 Q2068.05 1485.39 2065.6 1484.54 L2065.6 1480.02 Q2067.54 1481.16 2069.86 1481.74 Q2072.17 1482.32 2074.69 1482.32 Q2079.09 1482.32 2081.38 1480.58 Q2083.7 1478.84 2083.7 1475.53 Q2083.7 1472.48 2081.55 1470.77 Q2079.42 1469.03 2075.6 1469.03 L2071.57 1469.03 L2071.57 1465.19 L2075.78 1465.19 Q2079.23 1465.19 2081.06 1463.82 Q2082.89 1462.43 2082.89 1459.84 Q2082.89 1457.18 2080.99 1455.77 Q2079.11 1454.33 2075.6 1454.33 Q2073.67 1454.33 2071.48 1454.75 Q2069.28 1455.16 2066.64 1456.04 L2066.64 1451.88 Q2069.3 1451.14 2071.61 1450.77 Q2073.95 1450.39 2076.01 1450.39 Q2081.34 1450.39 2084.44 1452.83 Q2087.54 1455.23 2087.54 1459.35 Q2087.54 1462.22 2085.9 1464.21 Q2084.25 1466.18 2081.22 1466.95 Z" fill="#000000" fill-rule="evenodd" fill-opacity="1" /><path clip-path="url(#clip210)" d="M2107.22 1454.1 Q2103.61 1454.1 2101.78 1457.66 Q2099.97 1461.2 2099.97 1468.33 Q2099.97 1475.44 2101.78 1479.01 Q2103.61 1482.55 2107.22 1482.55 Q2110.85 1482.55 2112.66 1479.01 Q2114.48 1475.44 2114.48 1468.33 Q2114.48 1461.2 2112.66 1457.66 Q2110.85 1454.1 2107.22 1454.1 M2107.22 1450.39 Q2113.03 1450.39 2116.08 1455 Q2119.16 1459.58 2119.16 1468.33 Q2119.16 1477.06 2116.08 1481.67 Q2113.03 1486.25 2107.22 1486.25 Q2101.41 1486.25 2098.33 1481.67 Q2095.27 1477.06 2095.27 1468.33 Q2095.27 1459.58 2098.33 1455 Q2101.41 1450.39 2107.22 1450.39 Z" fill="#000000" fill-rule="evenodd" fill-opacity="1" /><path clip-path="url(#clip210)" d="M2137.38 1454.1 Q2133.77 1454.1 2131.94 1457.66 Q2130.13 1461.2 2130.13 1468.33 Q2130.13 1475.44 2131.94 1479.01 Q2133.77 1482.55 2137.38 1482.55 Q2141.01 1482.55 2142.82 1479.01 Q2144.65 1475.44 2144.65 1468.33 Q2144.65 1461.2 2142.82 1457.66 Q2141.01 1454.1 2137.38 1454.1 M2137.38 1450.39 Q2143.19 1450.39 2146.24 1455 Q2149.32 1459.58 2149.32 1468.33 Q2149.32 1477.06 2146.24 1481.67 Q2143.19 1486.25 2137.38 1486.25 Q2131.57 1486.25 2128.49 1481.67 Q2125.43 1477.06 2125.43 1468.33 Q2125.43 1459.58 2128.49 1455 Q2131.57 1450.39 2137.38 1450.39 Z" fill="#000000" fill-rule="evenodd" fill-opacity="1" /><path clip-path="url(#clip210)" d="M2167.54 1454.1 Q2163.93 1454.1 2162.1 1457.66 Q2160.29 1461.2 2160.29 1468.33 Q2160.29 1475.44 2162.1 1479.01 Q2163.93 1482.55 2167.54 1482.55 Q2171.17 1482.55 2172.98 1479.01 Q2174.81 1475.44 2174.81 1468.33 Q2174.81 1461.2 2172.98 1457.66 Q2171.17 1454.1 2167.54 1454.1 M2167.54 1450.39 Q2173.35 1450.39 2176.41 1455 Q2179.48 1459.58 2179.48 1468.33 Q2179.48 1477.06 2176.41 1481.67 Q2173.35 1486.25 2167.54 1486.25 Q2161.73 1486.25 2158.65 1481.67 Q2155.6 1477.06 2155.6 1468.33 Q2155.6 1459.58 2158.65 1455 Q2161.73 1450.39 2167.54 1450.39 Z" fill="#000000" fill-rule="evenodd" fill-opacity="1" /><path clip-path="url(#clip210)" d="M1251.09 1526.86 L1242.37 1550.51 L1259.84 1550.51 L1251.09 1526.86 M1247.46 1520.52 L1254.75 1520.52 L1272.86 1568.04 L1266.17 1568.04 L1261.85 1555.85 L1240.42 1555.85 L1236.1 1568.04 L1229.32 1568.04 L1247.46 1520.52 Z" fill="#000000" fill-rule="evenodd" fill-opacity="1" /><path clip-path="url(#clip210)" d="M1286.23 1525.81 L1286.23 1562.76 L1293.99 1562.76 Q1303.83 1562.76 1308.38 1558.3 Q1312.96 1553.85 1312.96 1544.24 Q1312.96 1534.69 1308.38 1530.26 Q1303.83 1525.81 1293.99 1525.81 L1286.23 1525.81 M1279.8 1520.52 L1293.01 1520.52 Q1306.82 1520.52 1313.28 1526.28 Q1319.74 1532.01 1319.74 1544.24 Q1319.74 1556.52 1313.25 1562.28 Q1306.76 1568.04 1293.01 1568.04 L1279.8 1568.04 L1279.8 1520.52 Z" fill="#000000" fill-rule="evenodd" fill-opacity="1" /><path clip-path="url(#clip210)" d="M1365.57 1524.18 L1365.57 1530.96 Q1362.33 1527.94 1358.64 1526.44 Q1354.98 1524.95 1350.84 1524.95 Q1342.69 1524.95 1338.36 1529.95 Q1334.03 1534.91 1334.03 1544.33 Q1334.03 1553.72 1338.36 1558.72 Q1342.69 1563.68 1350.84 1563.68 Q1354.98 1563.68 1358.64 1562.19 Q1362.33 1560.69 1365.57 1557.67 L1365.57 1564.38 Q1362.2 1566.68 1358.41 1567.82 Q1354.66 1568.97 1350.46 1568.97 Q1339.67 1568.97 1333.46 1562.38 Q1327.25 1555.76 1327.25 1544.33 Q1327.25 1532.87 1333.46 1526.28 Q1339.67 1519.66 1350.46 1519.66 Q1354.72 1519.66 1358.48 1520.81 Q1362.26 1521.92 1365.57 1524.18 Z" fill="#000000" fill-rule="evenodd" fill-opacity="1" /><polyline clip-path="url(#clip212)" style="stroke:#000000; stroke-linecap:butt; stroke-linejoin:round; stroke-width:2; stroke-opacity:0.1; fill:none" points="
  242.135,1386.4 2352.76,1386.4 
  "/>
<polyline clip-path="url(#clip212)" style="stroke:#000000; stroke-linecap:butt; stroke-linejoin:round; stroke-width:2; stroke-opacity:0.1; fill:none" points="
  242.135,1182.04 2352.76,1182.04 
  "/>
<polyline clip-path="url(#clip212)" style="stroke:#000000; stroke-linecap:butt; stroke-linejoin:round; stroke-width:2; stroke-opacity:0.1; fill:none" points="
  242.135,977.683 2352.76,977.683 
  "/>
<polyline clip-path="url(#clip212)" style="stroke:#000000; stroke-linecap:butt; stroke-linejoin:round; stroke-width:2; stroke-opacity:0.1; fill:none" points="
  242.135,773.326 2352.76,773.326 
  "/>
<polyline clip-path="url(#clip212)" style="stroke:#000000; stroke-linecap:butt; stroke-linejoin:round; stroke-width:2; stroke-opacity:0.1; fill:none" points="
  242.135,568.969 2352.76,568.969 
  "/>
<polyline clip-path="url(#clip212)" style="stroke:#000000; stroke-linecap:butt; stroke-linejoin:round; stroke-width:2; stroke-opacity:0.1; fill:none" points="
  242.135,364.613 2352.76,364.613 
  "/>
<polyline clip-path="url(#clip212)" style="stroke:#000000; stroke-linecap:butt; stroke-linejoin:round; stroke-width:2; stroke-opacity:0.1; fill:none" points="
  242.135,160.256 2352.76,160.256 
  "/>
<polyline clip-path="url(#clip210)" style="stroke:#000000; stroke-linecap:butt; stroke-linejoin:round; stroke-width:4; stroke-opacity:1; fill:none" points="
  242.135,1423.18 242.135,123.472 
  "/>
<polyline clip-path="url(#clip210)" style="stroke:#000000; stroke-linecap:butt; stroke-linejoin:round; stroke-width:4; stroke-opacity:1; fill:none" points="
  242.135,1386.4 261.032,1386.4 
  "/>
<polyline clip-path="url(#clip210)" style="stroke:#000000; stroke-linecap:butt; stroke-linejoin:round; stroke-width:4; stroke-opacity:1; fill:none" points="
  242.135,1182.04 261.032,1182.04 
  "/>
<polyline clip-path="url(#clip210)" style="stroke:#000000; stroke-linecap:butt; stroke-linejoin:round; stroke-width:4; stroke-opacity:1; fill:none" points="
  242.135,977.683 261.032,977.683 
  "/>
<polyline clip-path="url(#clip210)" style="stroke:#000000; stroke-linecap:butt; stroke-linejoin:round; stroke-width:4; stroke-opacity:1; fill:none" points="
  242.135,773.326 261.032,773.326 
  "/>
<polyline clip-path="url(#clip210)" style="stroke:#000000; stroke-linecap:butt; stroke-linejoin:round; stroke-width:4; stroke-opacity:1; fill:none" points="
  242.135,568.969 261.032,568.969 
  "/>
<polyline clip-path="url(#clip210)" style="stroke:#000000; stroke-linecap:butt; stroke-linejoin:round; stroke-width:4; stroke-opacity:1; fill:none" points="
  242.135,364.613 261.032,364.613 
  "/>
<polyline clip-path="url(#clip210)" style="stroke:#000000; stroke-linecap:butt; stroke-linejoin:round; stroke-width:4; stroke-opacity:1; fill:none" points="
  242.135,160.256 261.032,160.256 
  "/>
<path clip-path="url(#clip210)" d="M114.26 1386.85 L143.936 1386.85 L143.936 1390.78 L114.26 1390.78 L114.26 1386.85 Z" fill="#000000" fill-rule="evenodd" fill-opacity="1" /><path clip-path="url(#clip210)" d="M164.607 1384.53 Q161.459 1384.53 159.607 1386.69 Q157.778 1388.84 157.778 1392.59 Q157.778 1396.31 159.607 1398.49 Q161.459 1400.64 164.607 1400.64 Q167.755 1400.64 169.584 1398.49 Q171.436 1396.31 171.436 1392.59 Q171.436 1388.84 169.584 1386.69 Q167.755 1384.53 164.607 1384.53 M173.889 1369.88 L173.889 1374.14 Q172.13 1373.31 170.325 1372.87 Q168.542 1372.43 166.783 1372.43 Q162.153 1372.43 159.7 1375.55 Q157.269 1378.68 156.922 1385 Q158.288 1382.98 160.348 1381.92 Q162.408 1380.83 164.885 1380.83 Q170.093 1380.83 173.102 1384 Q176.135 1387.15 176.135 1392.59 Q176.135 1397.91 172.987 1401.13 Q169.839 1404.35 164.607 1404.35 Q158.612 1404.35 155.44 1399.76 Q152.269 1395.16 152.269 1386.43 Q152.269 1378.24 156.158 1373.37 Q160.047 1368.49 166.598 1368.49 Q168.357 1368.49 170.139 1368.84 Q171.945 1369.19 173.889 1369.88 Z" fill="#000000" fill-rule="evenodd" fill-opacity="1" /><path clip-path="url(#clip210)" d="M194.19 1372.19 Q190.579 1372.19 188.75 1375.76 Q186.945 1379.3 186.945 1386.43 Q186.945 1393.54 188.75 1397.1 Q190.579 1400.64 194.19 1400.64 Q197.825 1400.64 199.63 1397.1 Q201.459 1393.54 201.459 1386.43 Q201.459 1379.3 199.63 1375.76 Q197.825 1372.19 194.19 1372.19 M194.19 1368.49 Q200 1368.49 203.056 1373.1 Q206.135 1377.68 206.135 1386.43 Q206.135 1395.16 203.056 1399.76 Q200 1404.35 194.19 1404.35 Q188.38 1404.35 185.301 1399.76 Q182.246 1395.16 182.246 1386.43 Q182.246 1377.68 185.301 1373.1 Q188.38 1368.49 194.19 1368.49 Z" fill="#000000" fill-rule="evenodd" fill-opacity="1" /><path clip-path="url(#clip210)" d="M114.26 1182.49 L143.936 1182.49 L143.936 1186.43 L114.26 1186.43 L114.26 1182.49 Z" fill="#000000" fill-rule="evenodd" fill-opacity="1" /><path clip-path="url(#clip210)" d="M154.075 1164.76 L172.431 1164.76 L172.431 1168.69 L158.357 1168.69 L158.357 1177.17 Q159.376 1176.82 160.394 1176.66 Q161.413 1176.47 162.431 1176.47 Q168.218 1176.47 171.598 1179.64 Q174.977 1182.81 174.977 1188.23 Q174.977 1193.81 171.505 1196.91 Q168.033 1199.99 161.714 1199.99 Q159.538 1199.99 157.269 1199.62 Q155.024 1199.25 152.616 1198.51 L152.616 1193.81 Q154.7 1194.94 156.922 1195.5 Q159.144 1196.06 161.621 1196.06 Q165.626 1196.06 167.964 1193.95 Q170.302 1191.84 170.302 1188.23 Q170.302 1184.62 167.964 1182.51 Q165.626 1180.41 161.621 1180.41 Q159.746 1180.41 157.871 1180.82 Q156.019 1181.24 154.075 1182.12 L154.075 1164.76 Z" fill="#000000" fill-rule="evenodd" fill-opacity="1" /><path clip-path="url(#clip210)" d="M194.19 1167.84 Q190.579 1167.84 188.75 1171.4 Q186.945 1174.94 186.945 1182.07 Q186.945 1189.18 188.75 1192.75 Q190.579 1196.29 194.19 1196.29 Q197.825 1196.29 199.63 1192.75 Q201.459 1189.18 201.459 1182.07 Q201.459 1174.94 199.63 1171.4 Q197.825 1167.84 194.19 1167.84 M194.19 1164.13 Q200 1164.13 203.056 1168.74 Q206.135 1173.32 206.135 1182.07 Q206.135 1190.8 203.056 1195.41 Q200 1199.99 194.19 1199.99 Q188.38 1199.99 185.301 1195.41 Q182.246 1190.8 182.246 1182.07 Q182.246 1173.32 185.301 1168.74 Q188.38 1164.13 194.19 1164.13 Z" fill="#000000" fill-rule="evenodd" fill-opacity="1" /><path clip-path="url(#clip210)" d="M114.26 978.134 L143.936 978.134 L143.936 982.069 L114.26 982.069 L114.26 978.134 Z" fill="#000000" fill-rule="evenodd" fill-opacity="1" /><path clip-path="url(#clip210)" d="M166.876 964.477 L155.07 982.926 L166.876 982.926 L166.876 964.477 M165.649 960.403 L171.528 960.403 L171.528 982.926 L176.459 982.926 L176.459 986.814 L171.528 986.814 L171.528 994.963 L166.876 994.963 L166.876 986.814 L151.274 986.814 L151.274 982.301 L165.649 960.403 Z" fill="#000000" fill-rule="evenodd" fill-opacity="1" /><path clip-path="url(#clip210)" d="M194.19 963.481 Q190.579 963.481 188.75 967.046 Q186.945 970.588 186.945 977.717 Q186.945 984.824 188.75 988.389 Q190.579 991.93 194.19 991.93 Q197.825 991.93 199.63 988.389 Q201.459 984.824 201.459 977.717 Q201.459 970.588 199.63 967.046 Q197.825 963.481 194.19 963.481 M194.19 959.778 Q200 959.778 203.056 964.384 Q206.135 968.967 206.135 977.717 Q206.135 986.444 203.056 991.051 Q200 995.634 194.19 995.634 Q188.38 995.634 185.301 991.051 Q182.246 986.444 182.246 977.717 Q182.246 968.967 185.301 964.384 Q188.38 959.778 194.19 959.778 Z" fill="#000000" fill-rule="evenodd" fill-opacity="1" /><path clip-path="url(#clip210)" d="M114.26 773.777 L143.936 773.777 L143.936 777.713 L114.26 777.713 L114.26 773.777 Z" fill="#000000" fill-rule="evenodd" fill-opacity="1" /><path clip-path="url(#clip210)" d="M168.195 771.972 Q171.552 772.689 173.427 774.958 Q175.325 777.226 175.325 780.56 Q175.325 785.675 171.806 788.476 Q168.288 791.277 161.806 791.277 Q159.63 791.277 157.315 790.837 Q155.024 790.421 152.57 789.564 L152.57 785.05 Q154.515 786.185 156.829 786.763 Q159.144 787.342 161.667 787.342 Q166.065 787.342 168.357 785.606 Q170.672 783.87 170.672 780.56 Q170.672 777.504 168.519 775.791 Q166.39 774.055 162.57 774.055 L158.542 774.055 L158.542 770.213 L162.755 770.213 Q166.204 770.213 168.033 768.847 Q169.862 767.458 169.862 764.865 Q169.862 762.203 167.964 760.791 Q166.089 759.356 162.57 759.356 Q160.649 759.356 158.45 759.773 Q156.251 760.189 153.612 761.069 L153.612 756.902 Q156.274 756.162 158.589 755.791 Q160.927 755.421 162.987 755.421 Q168.311 755.421 171.413 757.852 Q174.514 760.259 174.514 764.379 Q174.514 767.25 172.871 769.24 Q171.227 771.208 168.195 771.972 Z" fill="#000000" fill-rule="evenodd" fill-opacity="1" /><path clip-path="url(#clip210)" d="M194.19 759.125 Q190.579 759.125 188.75 762.689 Q186.945 766.231 186.945 773.361 Q186.945 780.467 188.75 784.032 Q190.579 787.574 194.19 787.574 Q197.825 787.574 199.63 784.032 Q201.459 780.467 201.459 773.361 Q201.459 766.231 199.63 762.689 Q197.825 759.125 194.19 759.125 M194.19 755.421 Q200 755.421 203.056 760.027 Q206.135 764.611 206.135 773.361 Q206.135 782.088 203.056 786.694 Q200 791.277 194.19 791.277 Q188.38 791.277 185.301 786.694 Q182.246 782.088 182.246 773.361 Q182.246 764.611 185.301 760.027 Q188.38 755.421 194.19 755.421 Z" fill="#000000" fill-rule="evenodd" fill-opacity="1" /><path clip-path="url(#clip210)" d="M114.26 569.421 L143.936 569.421 L143.936 573.356 L114.26 573.356 L114.26 569.421 Z" fill="#000000" fill-rule="evenodd" fill-opacity="1" /><path clip-path="url(#clip210)" d="M158.056 582.314 L174.376 582.314 L174.376 586.249 L152.431 586.249 L152.431 582.314 Q155.093 579.56 159.677 574.93 Q164.283 570.277 165.464 568.935 Q167.709 566.412 168.589 564.675 Q169.491 562.916 169.491 561.226 Q169.491 558.472 167.547 556.736 Q165.626 555 162.524 555 Q160.325 555 157.871 555.763 Q155.44 556.527 152.663 558.078 L152.663 553.356 Q155.487 552.222 157.94 551.643 Q160.394 551.064 162.431 551.064 Q167.802 551.064 170.996 553.75 Q174.19 556.435 174.19 560.925 Q174.19 563.055 173.38 564.976 Q172.593 566.875 170.487 569.467 Q169.908 570.138 166.806 573.356 Q163.704 576.55 158.056 582.314 Z" fill="#000000" fill-rule="evenodd" fill-opacity="1" /><path clip-path="url(#clip210)" d="M194.19 554.768 Q190.579 554.768 188.75 558.333 Q186.945 561.875 186.945 569.004 Q186.945 576.111 188.75 579.675 Q190.579 583.217 194.19 583.217 Q197.825 583.217 199.63 579.675 Q201.459 576.111 201.459 569.004 Q201.459 561.875 199.63 558.333 Q197.825 554.768 194.19 554.768 M194.19 551.064 Q200 551.064 203.056 555.671 Q206.135 560.254 206.135 569.004 Q206.135 577.731 203.056 582.337 Q200 586.921 194.19 586.921 Q188.38 586.921 185.301 582.337 Q182.246 577.731 182.246 569.004 Q182.246 560.254 185.301 555.671 Q188.38 551.064 194.19 551.064 Z" fill="#000000" fill-rule="evenodd" fill-opacity="1" /><path clip-path="url(#clip210)" d="M114.26 365.064 L143.936 365.064 L143.936 368.999 L114.26 368.999 L114.26 365.064 Z" fill="#000000" fill-rule="evenodd" fill-opacity="1" /><path clip-path="url(#clip210)" d="M154.839 377.958 L162.477 377.958 L162.477 351.592 L154.167 353.259 L154.167 349 L162.431 347.333 L167.107 347.333 L167.107 377.958 L174.746 377.958 L174.746 381.893 L154.839 381.893 L154.839 377.958 Z" fill="#000000" fill-rule="evenodd" fill-opacity="1" /><path clip-path="url(#clip210)" d="M194.19 350.412 Q190.579 350.412 188.75 353.976 Q186.945 357.518 186.945 364.648 Q186.945 371.754 188.75 375.319 Q190.579 378.86 194.19 378.86 Q197.825 378.86 199.63 375.319 Q201.459 371.754 201.459 364.648 Q201.459 357.518 199.63 353.976 Q197.825 350.412 194.19 350.412 M194.19 346.708 Q200 346.708 203.056 351.314 Q206.135 355.898 206.135 364.648 Q206.135 373.374 203.056 377.981 Q200 382.564 194.19 382.564 Q188.38 382.564 185.301 377.981 Q182.246 373.374 182.246 364.648 Q182.246 355.898 185.301 351.314 Q188.38 346.708 194.19 346.708 Z" fill="#000000" fill-rule="evenodd" fill-opacity="1" /><path clip-path="url(#clip210)" d="M194.19 146.055 Q190.579 146.055 188.75 149.62 Q186.945 153.161 186.945 160.291 Q186.945 167.397 188.75 170.962 Q190.579 174.504 194.19 174.504 Q197.825 174.504 199.63 170.962 Q201.459 167.397 201.459 160.291 Q201.459 153.161 199.63 149.62 Q197.825 146.055 194.19 146.055 M194.19 142.351 Q200 142.351 203.056 146.958 Q206.135 151.541 206.135 160.291 Q206.135 169.018 203.056 173.624 Q200 178.208 194.19 178.208 Q188.38 178.208 185.301 173.624 Q182.246 169.018 182.246 160.291 Q182.246 151.541 185.301 146.958 Q188.38 142.351 194.19 142.351 Z" fill="#000000" fill-rule="evenodd" fill-opacity="1" /><path clip-path="url(#clip210)" d="M33.7671 817.552 L14.479 817.552 L14.479 811.695 L64.0042 811.695 L64.0042 817.552 L58.657 817.552 Q61.8398 819.398 63.3994 822.231 Q64.9272 825.031 64.9272 828.978 Q64.9272 835.439 59.771 839.513 Q54.6147 843.556 46.212 843.556 Q37.8093 843.556 32.6531 839.513 Q27.4968 835.439 27.4968 828.978 Q27.4968 825.031 29.0564 822.231 Q30.5842 819.398 33.7671 817.552 M46.212 837.508 Q52.6732 837.508 56.3653 834.866 Q60.0256 832.193 60.0256 827.546 Q60.0256 822.899 56.3653 820.225 Q52.6732 817.552 46.212 817.552 Q39.7508 817.552 36.0905 820.225 Q32.3984 822.899 32.3984 827.546 Q32.3984 832.193 36.0905 834.866 Q39.7508 837.508 46.212 837.508 Z" fill="#000000" fill-rule="evenodd" fill-opacity="1" /><path clip-path="url(#clip210)" d="M41.3104 792.948 L58.7206 792.948 L58.7206 782.636 Q58.7206 777.448 56.5881 774.965 Q54.4238 772.451 49.9996 772.451 Q45.5436 772.451 43.4429 774.965 Q41.3104 777.448 41.3104 782.636 L41.3104 792.948 M21.7677 792.948 L36.0905 792.948 L36.0905 783.432 Q36.0905 778.721 34.34 776.429 Q32.5576 774.106 28.9291 774.106 Q25.3325 774.106 23.5501 776.429 Q21.7677 778.721 21.7677 783.432 L21.7677 792.948 M16.4842 799.378 L16.4842 782.954 Q16.4842 775.602 19.5397 771.623 Q22.5952 767.645 28.2289 767.645 Q32.5894 767.645 35.1675 769.682 Q37.7456 771.719 38.3822 775.665 Q39.4007 770.923 42.6472 768.313 Q45.8619 765.671 50.6998 765.671 Q57.0655 765.671 60.5348 770 Q64.0042 774.329 64.0042 782.318 L64.0042 799.378 L16.4842 799.378 Z" fill="#000000" fill-rule="evenodd" fill-opacity="1" /><path clip-path="url(#clip210)" d="M35.1993 727.159 Q31.2526 724.963 29.3747 721.907 Q27.4968 718.851 27.4968 714.714 Q27.4968 709.144 31.4117 706.12 Q35.2948 703.096 42.4881 703.096 L64.0042 703.096 L64.0042 708.985 L42.679 708.985 Q37.5546 708.985 35.072 710.799 Q32.5894 712.613 32.5894 716.337 Q32.5894 720.888 35.6131 723.53 Q38.6368 726.172 43.8567 726.172 L64.0042 726.172 L64.0042 732.06 L42.679 732.06 Q37.5228 732.06 35.072 733.875 Q32.5894 735.689 32.5894 739.476 Q32.5894 743.964 35.6449 746.606 Q38.6686 749.248 43.8567 749.248 L64.0042 749.248 L64.0042 755.136 L28.3562 755.136 L28.3562 749.248 L33.8944 749.248 Q30.616 747.243 29.0564 744.442 Q27.4968 741.641 27.4968 737.789 Q27.4968 733.906 29.4702 731.201 Q31.4436 728.464 35.1993 727.159 Z" fill="#000000" fill-rule="evenodd" fill-opacity="1" /><path clip-path="url(#clip210)" d="M1115.11 65.6895 L1128.48 65.6895 L1128.48 19.5497 L1113.94 22.4663 L1113.94 15.0127 L1128.4 12.096 L1136.58 12.096 L1136.58 65.6895 L1149.95 65.6895 L1149.95 72.576 L1115.11 72.576 L1115.11 65.6895 Z" fill="#000000" fill-rule="evenodd" fill-opacity="1" /><path clip-path="url(#clip210)" d="M1194.35 28.5427 L1194.35 35.5912 Q1191.19 33.9709 1187.79 33.1607 Q1184.38 32.3505 1180.74 32.3505 Q1175.19 32.3505 1172.39 34.0519 Q1169.64 35.7533 1169.64 39.156 Q1169.64 41.7486 1171.62 43.2475 Q1173.61 44.7058 1179.6 46.0426 L1182.16 46.6097 Q1190.1 48.3111 1193.42 51.4303 Q1196.78 54.509 1196.78 60.0587 Q1196.78 66.3781 1191.76 70.0644 Q1186.77 73.7508 1178.02 73.7508 Q1174.38 73.7508 1170.41 73.0216 Q1166.48 72.3329 1162.1 70.9151 L1162.1 63.2184 Q1166.24 65.3654 1170.25 66.4591 Q1174.26 67.5124 1178.19 67.5124 Q1183.45 67.5124 1186.29 65.73 Q1189.12 63.9071 1189.12 60.6258 Q1189.12 57.5877 1187.06 55.9673 Q1185.03 54.3469 1178.11 52.8481 L1175.51 52.2405 Q1168.59 50.7821 1165.51 47.7845 Q1162.43 44.7463 1162.43 39.4801 Q1162.43 33.0797 1166.97 29.5959 Q1171.5 26.1121 1179.85 26.1121 Q1183.98 26.1121 1187.63 26.7198 Q1191.27 27.3274 1194.35 28.5427 Z" fill="#000000" fill-rule="evenodd" fill-opacity="1" /><path clip-path="url(#clip210)" d="M1216.02 14.324 L1216.02 27.2059 L1231.38 27.2059 L1231.38 32.9987 L1216.02 32.9987 L1216.02 57.6282 Q1216.02 63.1779 1217.52 64.7578 Q1219.06 66.3376 1223.72 66.3376 L1231.38 66.3376 L1231.38 72.576 L1223.72 72.576 Q1215.09 72.576 1211.81 69.3758 Q1208.53 66.1351 1208.53 57.6282 L1208.53 32.9987 L1203.06 32.9987 L1203.06 27.2059 L1208.53 27.2059 L1208.53 14.324 L1216.02 14.324 Z" fill="#000000" fill-rule="evenodd" fill-opacity="1" /><path clip-path="url(#clip210)" d="M1285.13 32.4315 Q1279.14 32.4315 1275.65 37.1306 Q1272.17 41.7891 1272.17 49.9314 Q1272.17 58.0738 1275.61 62.7728 Q1279.09 67.4314 1285.13 67.4314 Q1291.09 67.4314 1294.57 62.7323 Q1298.05 58.0333 1298.05 49.9314 Q1298.05 41.8701 1294.57 37.1711 Q1291.09 32.4315 1285.13 32.4315 M1285.13 26.1121 Q1294.85 26.1121 1300.4 32.4315 Q1305.95 38.7509 1305.95 49.9314 Q1305.95 61.0714 1300.4 67.4314 Q1294.85 73.7508 1285.13 73.7508 Q1275.37 73.7508 1269.82 67.4314 Q1264.31 61.0714 1264.31 49.9314 Q1264.31 38.7509 1269.82 32.4315 Q1275.37 26.1121 1285.13 26.1121 Z" fill="#000000" fill-rule="evenodd" fill-opacity="1" /><path clip-path="url(#clip210)" d="M1344.6 34.1734 Q1343.34 33.4443 1341.84 33.1202 Q1340.38 32.7556 1338.6 32.7556 Q1332.28 32.7556 1328.88 36.8875 Q1325.52 40.9789 1325.52 48.6757 L1325.52 72.576 L1318.02 72.576 L1318.02 27.2059 L1325.52 27.2059 L1325.52 34.2544 Q1327.87 30.1225 1331.63 28.1376 Q1335.4 26.1121 1340.79 26.1121 Q1341.56 26.1121 1342.49 26.2337 Q1343.42 26.3147 1344.56 26.5172 L1344.6 34.1734 Z" fill="#000000" fill-rule="evenodd" fill-opacity="1" /><path clip-path="url(#clip210)" d="M1380.81 34.0924 L1380.81 9.54393 L1388.27 9.54393 L1388.27 72.576 L1380.81 72.576 L1380.81 65.7705 Q1378.46 69.8214 1374.86 71.8063 Q1371.29 73.7508 1366.27 73.7508 Q1358.05 73.7508 1352.86 67.1883 Q1347.72 60.6258 1347.72 49.9314 Q1347.72 39.2371 1352.86 32.6746 Q1358.05 26.1121 1366.27 26.1121 Q1371.29 26.1121 1374.86 28.0971 Q1378.46 30.0415 1380.81 34.0924 M1355.41 49.9314 Q1355.41 58.1548 1358.78 62.8538 Q1362.18 67.5124 1368.09 67.5124 Q1374.01 67.5124 1377.41 62.8538 Q1380.81 58.1548 1380.81 49.9314 Q1380.81 41.7081 1377.41 37.0496 Q1374.01 32.3505 1368.09 32.3505 Q1362.18 32.3505 1358.78 37.0496 Q1355.41 41.7081 1355.41 49.9314 Z" fill="#000000" fill-rule="evenodd" fill-opacity="1" /><path clip-path="url(#clip210)" d="M1442.43 48.0275 L1442.43 51.6733 L1408.16 51.6733 Q1408.64 59.3701 1412.77 63.421 Q1416.95 67.4314 1424.36 67.4314 Q1428.65 67.4314 1432.66 66.3781 Q1436.72 65.3249 1440.69 63.2184 L1440.69 70.267 Q1436.67 71.9684 1432.46 72.8596 Q1428.25 73.7508 1423.91 73.7508 Q1413.06 73.7508 1406.7 67.4314 Q1400.38 61.1119 1400.38 50.3365 Q1400.38 39.1965 1406.37 32.6746 Q1412.41 26.1121 1422.62 26.1121 Q1431.77 26.1121 1437.08 32.0264 Q1442.43 37.9003 1442.43 48.0275 M1434.97 45.84 Q1434.89 39.7232 1431.53 36.0774 Q1428.21 32.4315 1422.7 32.4315 Q1416.46 32.4315 1412.69 35.9558 Q1408.97 39.4801 1408.4 45.8805 L1434.97 45.84 Z" fill="#000000" fill-rule="evenodd" fill-opacity="1" /><path clip-path="url(#clip210)" d="M1480.95 34.1734 Q1479.7 33.4443 1478.2 33.1202 Q1476.74 32.7556 1474.96 32.7556 Q1468.64 32.7556 1465.23 36.8875 Q1461.87 40.9789 1461.87 48.6757 L1461.87 72.576 L1454.38 72.576 L1454.38 27.2059 L1461.87 27.2059 L1461.87 34.2544 Q1464.22 30.1225 1467.99 28.1376 Q1471.76 26.1121 1477.14 26.1121 Q1477.91 26.1121 1478.84 26.2337 Q1479.78 26.3147 1480.91 26.5172 L1480.95 34.1734 Z" fill="#000000" fill-rule="evenodd" fill-opacity="1" /><circle clip-path="url(#clip212)" cx="301.869" cy="160.256" r="14" fill="#009af9" fill-rule="evenodd" fill-opacity="1" stroke="#000000" stroke-opacity="1" stroke-width="3.2"/>
<circle clip-path="url(#clip212)" cx="315.938" cy="180.692" r="14" fill="#009af9" fill-rule="evenodd" fill-opacity="1" stroke="#000000" stroke-opacity="1" stroke-width="3.2"/>
<circle clip-path="url(#clip212)" cx="339.938" cy="201.128" r="14" fill="#009af9" fill-rule="evenodd" fill-opacity="1" stroke="#000000" stroke-opacity="1" stroke-width="3.2"/>
<circle clip-path="url(#clip212)" cx="358.972" cy="221.563" r="14" fill="#009af9" fill-rule="evenodd" fill-opacity="1" stroke="#000000" stroke-opacity="1" stroke-width="3.2"/>
<circle clip-path="url(#clip212)" cx="385.455" cy="241.999" r="14" fill="#009af9" fill-rule="evenodd" fill-opacity="1" stroke="#000000" stroke-opacity="1" stroke-width="3.2"/>
<circle clip-path="url(#clip212)" cx="416.075" cy="262.435" r="14" fill="#009af9" fill-rule="evenodd" fill-opacity="1" stroke="#000000" stroke-opacity="1" stroke-width="3.2"/>
<circle clip-path="url(#clip212)" cx="451.661" cy="282.87" r="14" fill="#009af9" fill-rule="evenodd" fill-opacity="1" stroke="#000000" stroke-opacity="1" stroke-width="3.2"/>
<circle clip-path="url(#clip212)" cx="482.281" cy="303.306" r="14" fill="#009af9" fill-rule="evenodd" fill-opacity="1" stroke="#000000" stroke-opacity="1" stroke-width="3.2"/>
<circle clip-path="url(#clip212)" cx="517.039" cy="323.742" r="14" fill="#009af9" fill-rule="evenodd" fill-opacity="1" stroke="#000000" stroke-opacity="1" stroke-width="3.2"/>
<circle clip-path="url(#clip212)" cx="548.487" cy="344.177" r="14" fill="#009af9" fill-rule="evenodd" fill-opacity="1" stroke="#000000" stroke-opacity="1" stroke-width="3.2"/>
<circle clip-path="url(#clip212)" cx="581.591" cy="364.613" r="14" fill="#009af9" fill-rule="evenodd" fill-opacity="1" stroke="#000000" stroke-opacity="1" stroke-width="3.2"/>
<circle clip-path="url(#clip212)" cx="633.728" cy="385.049" r="14" fill="#009af9" fill-rule="evenodd" fill-opacity="1" stroke="#000000" stroke-opacity="1" stroke-width="3.2"/>
<circle clip-path="url(#clip212)" cx="670.141" cy="405.484" r="14" fill="#009af9" fill-rule="evenodd" fill-opacity="1" stroke="#000000" stroke-opacity="1" stroke-width="3.2"/>
<circle clip-path="url(#clip212)" cx="702.417" cy="425.92" r="14" fill="#009af9" fill-rule="evenodd" fill-opacity="1" stroke="#000000" stroke-opacity="1" stroke-width="3.2"/>
<circle clip-path="url(#clip212)" cx="733.865" cy="446.355" r="14" fill="#009af9" fill-rule="evenodd" fill-opacity="1" stroke="#000000" stroke-opacity="1" stroke-width="3.2"/>
<circle clip-path="url(#clip212)" cx="769.451" cy="466.791" r="14" fill="#009af9" fill-rule="evenodd" fill-opacity="1" stroke="#000000" stroke-opacity="1" stroke-width="3.2"/>
<circle clip-path="url(#clip212)" cx="799.243" cy="487.227" r="14" fill="#009af9" fill-rule="evenodd" fill-opacity="1" stroke="#000000" stroke-opacity="1" stroke-width="3.2"/>
<circle clip-path="url(#clip212)" cx="837.312" cy="507.662" r="14" fill="#009af9" fill-rule="evenodd" fill-opacity="1" stroke="#000000" stroke-opacity="1" stroke-width="3.2"/>
<circle clip-path="url(#clip212)" cx="871.243" cy="528.098" r="14" fill="#009af9" fill-rule="evenodd" fill-opacity="1" stroke="#000000" stroke-opacity="1" stroke-width="3.2"/>
<circle clip-path="url(#clip212)" cx="902.691" cy="548.534" r="14" fill="#009af9" fill-rule="evenodd" fill-opacity="1" stroke="#000000" stroke-opacity="1" stroke-width="3.2"/>
<circle clip-path="url(#clip212)" cx="949.863" cy="568.969" r="14" fill="#009af9" fill-rule="evenodd" fill-opacity="1" stroke="#000000" stroke-opacity="1" stroke-width="3.2"/>
<circle clip-path="url(#clip212)" cx="980.483" cy="589.405" r="14" fill="#009af9" fill-rule="evenodd" fill-opacity="1" stroke="#000000" stroke-opacity="1" stroke-width="3.2"/>
<circle clip-path="url(#clip212)" cx="1014.41" cy="609.841" r="14" fill="#009af9" fill-rule="evenodd" fill-opacity="1" stroke="#000000" stroke-opacity="1" stroke-width="3.2"/>
<circle clip-path="url(#clip212)" cx="1045.03" cy="630.276" r="14" fill="#009af9" fill-rule="evenodd" fill-opacity="1" stroke="#000000" stroke-opacity="1" stroke-width="3.2"/>
<circle clip-path="url(#clip212)" cx="1074" cy="650.712" r="14" fill="#009af9" fill-rule="evenodd" fill-opacity="1" stroke="#000000" stroke-opacity="1" stroke-width="3.2"/>
<circle clip-path="url(#clip212)" cx="1110.41" cy="671.148" r="14" fill="#009af9" fill-rule="evenodd" fill-opacity="1" stroke="#000000" stroke-opacity="1" stroke-width="3.2"/>
<circle clip-path="url(#clip212)" cx="1138.55" cy="691.583" r="14" fill="#009af9" fill-rule="evenodd" fill-opacity="1" stroke="#000000" stroke-opacity="1" stroke-width="3.2"/>
<circle clip-path="url(#clip212)" cx="1176.62" cy="712.019" r="14" fill="#009af9" fill-rule="evenodd" fill-opacity="1" stroke="#000000" stroke-opacity="1" stroke-width="3.2"/>
<circle clip-path="url(#clip212)" cx="1211.38" cy="732.455" r="14" fill="#009af9" fill-rule="evenodd" fill-opacity="1" stroke="#000000" stroke-opacity="1" stroke-width="3.2"/>
<circle clip-path="url(#clip212)" cx="1242.83" cy="752.89" r="14" fill="#009af9" fill-rule="evenodd" fill-opacity="1" stroke="#000000" stroke-opacity="1" stroke-width="3.2"/>
<circle clip-path="url(#clip212)" cx="1292.48" cy="773.326" r="14" fill="#009af9" fill-rule="evenodd" fill-opacity="1" stroke="#000000" stroke-opacity="1" stroke-width="3.2"/>
<circle clip-path="url(#clip212)" cx="1323.93" cy="793.762" r="14" fill="#009af9" fill-rule="evenodd" fill-opacity="1" stroke="#000000" stroke-opacity="1" stroke-width="3.2"/>
<circle clip-path="url(#clip212)" cx="1362" cy="814.197" r="14" fill="#009af9" fill-rule="evenodd" fill-opacity="1" stroke="#000000" stroke-opacity="1" stroke-width="3.2"/>
<circle clip-path="url(#clip212)" cx="1396.75" cy="834.633" r="14" fill="#009af9" fill-rule="evenodd" fill-opacity="1" stroke="#000000" stroke-opacity="1" stroke-width="3.2"/>
<circle clip-path="url(#clip212)" cx="1433.17" cy="855.069" r="14" fill="#009af9" fill-rule="evenodd" fill-opacity="1" stroke="#000000" stroke-opacity="1" stroke-width="3.2"/>
<circle clip-path="url(#clip212)" cx="1474.55" cy="875.504" r="14" fill="#009af9" fill-rule="evenodd" fill-opacity="1" stroke="#000000" stroke-opacity="1" stroke-width="3.2"/>
<circle clip-path="url(#clip212)" cx="1521.72" cy="895.94" r="14" fill="#009af9" fill-rule="evenodd" fill-opacity="1" stroke="#000000" stroke-opacity="1" stroke-width="3.2"/>
<circle clip-path="url(#clip212)" cx="1564.75" cy="916.376" r="14" fill="#009af9" fill-rule="evenodd" fill-opacity="1" stroke="#000000" stroke-opacity="1" stroke-width="3.2"/>
<circle clip-path="url(#clip212)" cx="1616.89" cy="936.811" r="14" fill="#009af9" fill-rule="evenodd" fill-opacity="1" stroke="#000000" stroke-opacity="1" stroke-width="3.2"/>
<circle clip-path="url(#clip212)" cx="1669.03" cy="957.247" r="14" fill="#009af9" fill-rule="evenodd" fill-opacity="1" stroke="#000000" stroke-opacity="1" stroke-width="3.2"/>
<circle clip-path="url(#clip212)" cx="1753.44" cy="977.683" r="14" fill="#009af9" fill-rule="evenodd" fill-opacity="1" stroke="#000000" stroke-opacity="1" stroke-width="3.2"/>
<circle clip-path="url(#clip212)" cx="1793.99" cy="998.118" r="14" fill="#009af9" fill-rule="evenodd" fill-opacity="1" stroke="#000000" stroke-opacity="1" stroke-width="3.2"/>
<circle clip-path="url(#clip212)" cx="1835.37" cy="1018.55" r="14" fill="#009af9" fill-rule="evenodd" fill-opacity="1" stroke="#000000" stroke-opacity="1" stroke-width="3.2"/>
<circle clip-path="url(#clip212)" cx="1863.51" cy="1038.99" r="14" fill="#009af9" fill-rule="evenodd" fill-opacity="1" stroke="#000000" stroke-opacity="1" stroke-width="3.2"/>
<circle clip-path="url(#clip212)" cx="1887.51" cy="1059.43" r="14" fill="#009af9" fill-rule="evenodd" fill-opacity="1" stroke="#000000" stroke-opacity="1" stroke-width="3.2"/>
<circle clip-path="url(#clip212)" cx="1920.61" cy="1079.86" r="14" fill="#009af9" fill-rule="evenodd" fill-opacity="1" stroke="#000000" stroke-opacity="1" stroke-width="3.2"/>
<circle clip-path="url(#clip212)" cx="1942.96" cy="1100.3" r="14" fill="#009af9" fill-rule="evenodd" fill-opacity="1" stroke="#000000" stroke-opacity="1" stroke-width="3.2"/>
<circle clip-path="url(#clip212)" cx="1978.54" cy="1120.73" r="14" fill="#009af9" fill-rule="evenodd" fill-opacity="1" stroke="#000000" stroke-opacity="1" stroke-width="3.2"/>
<circle clip-path="url(#clip212)" cx="1994.27" cy="1141.17" r="14" fill="#009af9" fill-rule="evenodd" fill-opacity="1" stroke="#000000" stroke-opacity="1" stroke-width="3.2"/>
<circle clip-path="url(#clip212)" cx="2022.4" cy="1161.6" r="14" fill="#009af9" fill-rule="evenodd" fill-opacity="1" stroke="#000000" stroke-opacity="1" stroke-width="3.2"/>
<circle clip-path="url(#clip212)" cx="2046.4" cy="1182.04" r="14" fill="#009af9" fill-rule="evenodd" fill-opacity="1" stroke="#000000" stroke-opacity="1" stroke-width="3.2"/>
<circle clip-path="url(#clip212)" cx="2072.89" cy="1202.47" r="14" fill="#009af9" fill-rule="evenodd" fill-opacity="1" stroke="#000000" stroke-opacity="1" stroke-width="3.2"/>
<circle clip-path="url(#clip212)" cx="2097.71" cy="1222.91" r="14" fill="#009af9" fill-rule="evenodd" fill-opacity="1" stroke="#000000" stroke-opacity="1" stroke-width="3.2"/>
<circle clip-path="url(#clip212)" cx="2115.92" cy="1243.35" r="14" fill="#009af9" fill-rule="evenodd" fill-opacity="1" stroke="#000000" stroke-opacity="1" stroke-width="3.2"/>
<circle clip-path="url(#clip212)" cx="2134.13" cy="1263.78" r="14" fill="#009af9" fill-rule="evenodd" fill-opacity="1" stroke="#000000" stroke-opacity="1" stroke-width="3.2"/>
<circle clip-path="url(#clip212)" cx="2162.26" cy="1284.22" r="14" fill="#009af9" fill-rule="evenodd" fill-opacity="1" stroke="#000000" stroke-opacity="1" stroke-width="3.2"/>
<circle clip-path="url(#clip212)" cx="2181.3" cy="1304.65" r="14" fill="#009af9" fill-rule="evenodd" fill-opacity="1" stroke="#000000" stroke-opacity="1" stroke-width="3.2"/>
<circle clip-path="url(#clip212)" cx="2207.78" cy="1325.09" r="14" fill="#009af9" fill-rule="evenodd" fill-opacity="1" stroke="#000000" stroke-opacity="1" stroke-width="3.2"/>
<circle clip-path="url(#clip212)" cx="2232.61" cy="1345.52" r="14" fill="#009af9" fill-rule="evenodd" fill-opacity="1" stroke="#000000" stroke-opacity="1" stroke-width="3.2"/>
<circle clip-path="url(#clip212)" cx="2258.26" cy="1365.96" r="14" fill="#009af9" fill-rule="evenodd" fill-opacity="1" stroke="#000000" stroke-opacity="1" stroke-width="3.2"/>
<circle clip-path="url(#clip212)" cx="2293.02" cy="1386.4" r="14" fill="#009af9" fill-rule="evenodd" fill-opacity="1" stroke="#000000" stroke-opacity="1" stroke-width="3.2"/>
<polyline clip-path="url(#clip212)" style="stroke:#e26f46; stroke-linecap:butt; stroke-linejoin:round; stroke-width:4; stroke-opacity:1; fill:none" points="
  301.869,194.483 303.862,195.625 305.856,196.768 307.849,197.91 309.842,199.053 311.835,200.195 313.828,201.338 315.821,202.48 317.814,203.623 319.808,204.765 
  321.801,205.908 323.794,207.05 325.787,208.193 327.78,209.335 329.773,210.478 331.766,211.62 333.76,212.763 335.753,213.905 337.746,215.048 339.739,216.19 
  341.732,217.333 343.725,218.475 345.718,219.618 347.712,220.76 349.705,221.903 351.698,223.045 353.691,224.188 355.684,225.33 357.677,226.473 359.67,227.615 
  361.664,228.758 363.657,229.9 365.65,231.043 367.643,232.185 369.636,233.328 371.629,234.47 373.622,235.613 375.616,236.755 377.609,237.898 379.602,239.04 
  381.595,240.183 383.588,241.325 385.581,242.468 387.574,243.61 389.568,244.753 391.561,245.895 393.554,247.038 395.547,248.18 397.54,249.323 399.533,250.465 
  401.526,251.608 403.52,252.75 405.513,253.893 407.506,255.035 409.499,256.178 411.492,257.32 413.485,258.463 415.479,259.605 417.472,260.748 419.465,261.89 
  421.458,263.033 423.451,264.175 425.444,265.318 427.437,266.46 429.431,267.603 431.424,268.745 433.417,269.888 435.41,271.03 437.403,272.173 439.396,273.315 
  441.389,274.458 443.383,275.6 445.376,276.743 447.369,277.885 449.362,279.028 451.355,280.17 453.348,281.313 455.341,282.455 457.335,283.598 459.328,284.74 
  461.321,285.883 463.314,287.025 465.307,288.168 467.3,289.31 469.293,290.453 471.287,291.595 473.28,292.738 475.273,293.88 477.266,295.023 479.259,296.165 
  481.252,297.308 483.245,298.45 485.239,299.593 487.232,300.735 489.225,301.878 491.218,303.02 493.211,304.163 495.204,305.305 497.197,306.448 499.191,307.59 
  501.184,308.733 503.177,309.875 505.17,311.018 507.163,312.16 509.156,313.303 511.149,314.445 513.143,315.588 515.136,316.73 517.129,317.873 519.122,319.015 
  521.115,320.158 523.108,321.3 525.101,322.443 527.095,323.585 529.088,324.728 531.081,325.87 533.074,327.013 535.067,328.155 537.06,329.298 539.054,330.44 
  541.047,331.583 543.04,332.725 545.033,333.868 547.026,335.01 549.019,336.153 551.012,337.295 553.006,338.438 554.999,339.58 556.992,340.723 558.985,341.865 
  560.978,343.008 562.971,344.15 564.964,345.293 566.958,346.435 568.951,347.578 570.944,348.72 572.937,349.863 574.93,351.005 576.923,352.148 578.916,353.29 
  580.91,354.433 582.903,355.575 584.896,356.718 586.889,357.86 588.882,359.003 590.875,360.145 592.868,361.288 594.862,362.43 596.855,363.573 598.848,364.715 
  600.841,365.858 602.834,367 604.827,368.143 606.82,369.285 608.814,370.428 610.807,371.57 612.8,372.713 614.793,373.855 616.786,374.998 618.779,376.14 
  620.772,377.283 622.766,378.425 624.759,379.568 626.752,380.71 628.745,381.853 630.738,382.995 632.731,384.138 634.724,385.28 636.718,386.423 638.711,387.565 
  640.704,388.708 642.697,389.85 644.69,390.993 646.683,392.135 648.677,393.278 650.67,394.42 652.663,395.563 654.656,396.705 656.649,397.847 658.642,398.99 
  660.635,400.132 662.629,401.275 664.622,402.417 666.615,403.56 668.608,404.702 670.601,405.845 672.594,406.987 674.587,408.13 676.581,409.272 678.574,410.415 
  680.567,411.557 682.56,412.7 684.553,413.842 686.546,414.985 688.539,416.127 690.533,417.27 692.526,418.412 694.519,419.555 696.512,420.697 698.505,421.84 
  700.498,422.982 702.491,424.125 704.485,425.267 706.478,426.41 708.471,427.552 710.464,428.695 712.457,429.837 714.45,430.98 716.443,432.122 718.437,433.265 
  720.43,434.407 722.423,435.55 724.416,436.692 726.409,437.835 728.402,438.977 730.395,440.12 732.389,441.262 734.382,442.405 736.375,443.547 738.368,444.69 
  740.361,445.832 742.354,446.975 744.347,448.117 746.341,449.26 748.334,450.402 750.327,451.545 752.32,452.687 754.313,453.83 756.306,454.972 758.299,456.115 
  760.293,457.257 762.286,458.4 764.279,459.542 766.272,460.685 768.265,461.827 770.258,462.97 772.252,464.112 774.245,465.255 776.238,466.397 778.231,467.54 
  780.224,468.682 782.217,469.825 784.21,470.967 786.204,472.11 788.197,473.252 790.19,474.395 792.183,475.537 794.176,476.68 796.169,477.822 798.162,478.965 
  800.156,480.107 802.149,481.25 804.142,482.392 806.135,483.535 808.128,484.677 810.121,485.82 812.114,486.962 814.108,488.105 816.101,489.247 818.094,490.39 
  820.087,491.532 822.08,492.675 824.073,493.817 826.066,494.96 828.06,496.102 830.053,497.245 832.046,498.387 834.039,499.53 836.032,500.672 838.025,501.815 
  840.018,502.957 842.012,504.1 844.005,505.242 845.998,506.385 847.991,507.527 849.984,508.67 851.977,509.812 853.97,510.955 855.964,512.097 857.957,513.24 
  859.95,514.382 861.943,515.525 863.936,516.667 865.929,517.81 867.922,518.952 869.916,520.095 871.909,521.237 873.902,522.38 875.895,523.522 877.888,524.665 
  879.881,525.807 881.874,526.95 883.868,528.092 885.861,529.235 887.854,530.377 889.847,531.52 891.84,532.662 893.833,533.805 895.827,534.947 897.82,536.09 
  899.813,537.232 901.806,538.375 903.799,539.517 905.792,540.66 907.785,541.802 909.779,542.945 911.772,544.087 913.765,545.23 915.758,546.372 917.751,547.515 
  919.744,548.657 921.737,549.8 923.731,550.942 925.724,552.085 927.717,553.227 929.71,554.37 931.703,555.512 933.696,556.655 935.689,557.797 937.683,558.94 
  939.676,560.082 941.669,561.225 943.662,562.367 945.655,563.51 947.648,564.652 949.641,565.795 951.635,566.937 953.628,568.08 955.621,569.222 957.614,570.365 
  959.607,571.507 961.6,572.65 963.593,573.792 965.587,574.935 967.58,576.077 969.573,577.22 971.566,578.362 973.559,579.505 975.552,580.647 977.545,581.79 
  979.539,582.932 981.532,584.075 983.525,585.217 985.518,586.36 987.511,587.502 989.504,588.645 991.497,589.787 993.491,590.93 995.484,592.072 997.477,593.215 
  999.47,594.357 1001.46,595.5 1003.46,596.642 1005.45,597.785 1007.44,598.927 1009.44,600.07 1011.43,601.212 1013.42,602.355 1015.42,603.497 1017.41,604.64 
  1019.4,605.782 1021.39,606.925 1023.39,608.067 1025.38,609.21 1027.37,610.352 1029.37,611.495 1031.36,612.637 1033.35,613.78 1035.35,614.922 1037.34,616.065 
  1039.33,617.207 1041.33,618.35 1043.32,619.492 1045.31,620.635 1047.31,621.777 1049.3,622.92 1051.29,624.062 1053.28,625.205 1055.28,626.347 1057.27,627.489 
  1059.26,628.632 1061.26,629.774 1063.25,630.917 1065.24,632.059 1067.24,633.202 1069.23,634.344 1071.22,635.487 1073.22,636.629 1075.21,637.772 1077.2,638.914 
  1079.2,640.057 1081.19,641.199 1083.18,642.342 1085.18,643.484 1087.17,644.627 1089.16,645.769 1091.15,646.912 1093.15,648.054 1095.14,649.197 1097.13,650.339 
  1099.13,651.482 1101.12,652.624 1103.11,653.767 1105.11,654.909 1107.1,656.052 1109.09,657.194 1111.09,658.337 1113.08,659.479 1115.07,660.622 1117.07,661.764 
  1119.06,662.907 1121.05,664.049 1123.05,665.192 1125.04,666.334 1127.03,667.477 1129.02,668.619 1131.02,669.762 1133.01,670.904 1135,672.047 1137,673.189 
  1138.99,674.332 1140.98,675.474 1142.98,676.617 1144.97,677.759 1146.96,678.902 1148.96,680.044 1150.95,681.187 1152.94,682.329 1154.94,683.472 1156.93,684.614 
  1158.92,685.757 1160.91,686.899 1162.91,688.042 1164.9,689.184 1166.89,690.327 1168.89,691.469 1170.88,692.612 1172.87,693.754 1174.87,694.897 1176.86,696.039 
  1178.85,697.182 1180.85,698.324 1182.84,699.467 1184.83,700.609 1186.83,701.752 1188.82,702.894 1190.81,704.037 1192.81,705.179 1194.8,706.322 1196.79,707.464 
  1198.78,708.607 1200.78,709.749 1202.77,710.892 1204.76,712.034 1206.76,713.177 1208.75,714.319 1210.74,715.462 1212.74,716.604 1214.73,717.747 1216.72,718.889 
  1218.72,720.032 1220.71,721.174 1222.7,722.317 1224.7,723.459 1226.69,724.602 1228.68,725.744 1230.67,726.887 1232.67,728.029 1234.66,729.172 1236.65,730.314 
  1238.65,731.457 1240.64,732.599 1242.63,733.742 1244.63,734.884 1246.62,736.027 1248.61,737.169 1250.61,738.312 1252.6,739.454 1254.59,740.597 1256.59,741.739 
  1258.58,742.882 1260.57,744.024 1262.57,745.167 1264.56,746.309 1266.55,747.452 1268.54,748.594 1270.54,749.737 1272.53,750.879 1274.52,752.022 1276.52,753.164 
  1278.51,754.307 1280.5,755.449 1282.5,756.592 1284.49,757.734 1286.48,758.877 1288.48,760.019 1290.47,761.162 1292.46,762.304 1294.46,763.447 1296.45,764.589 
  1298.44,765.732 1300.44,766.874 1302.43,768.017 1304.42,769.159 1306.41,770.302 1308.41,771.444 1310.4,772.587 1312.39,773.729 1314.39,774.872 1316.38,776.014 
  1318.37,777.157 1320.37,778.299 1322.36,779.442 1324.35,780.584 1326.35,781.727 1328.34,782.869 1330.33,784.012 1332.33,785.154 1334.32,786.297 1336.31,787.439 
  1338.3,788.582 1340.3,789.724 1342.29,790.867 1344.28,792.009 1346.28,793.152 1348.27,794.294 1350.26,795.437 1352.26,796.579 1354.25,797.722 1356.24,798.864 
  1358.24,800.007 1360.23,801.149 1362.22,802.292 1364.22,803.434 1366.21,804.577 1368.2,805.719 1370.2,806.862 1372.19,808.004 1374.18,809.147 1376.17,810.289 
  1378.17,811.432 1380.16,812.574 1382.15,813.717 1384.15,814.859 1386.14,816.002 1388.13,817.144 1390.13,818.287 1392.12,819.429 1394.11,820.572 1396.11,821.714 
  1398.1,822.857 1400.09,823.999 1402.09,825.142 1404.08,826.284 1406.07,827.427 1408.06,828.569 1410.06,829.712 1412.05,830.854 1414.04,831.997 1416.04,833.139 
  1418.03,834.282 1420.02,835.424 1422.02,836.567 1424.01,837.709 1426,838.852 1428,839.994 1429.99,841.137 1431.98,842.279 1433.98,843.422 1435.97,844.564 
  1437.96,845.707 1439.96,846.849 1441.95,847.992 1443.94,849.134 1445.93,850.277 1447.93,851.419 1449.92,852.562 1451.91,853.704 1453.91,854.847 1455.9,855.989 
  1457.89,857.132 1459.89,858.274 1461.88,859.416 1463.87,860.559 1465.87,861.701 1467.86,862.844 1469.85,863.986 1471.85,865.129 1473.84,866.271 1475.83,867.414 
  1477.82,868.556 1479.82,869.699 1481.81,870.841 1483.8,871.984 1485.8,873.126 1487.79,874.269 1489.78,875.411 1491.78,876.554 1493.77,877.696 1495.76,878.839 
  1497.76,879.981 1499.75,881.124 1501.74,882.266 1503.74,883.409 1505.73,884.551 1507.72,885.694 1509.72,886.836 1511.71,887.979 1513.7,889.121 1515.69,890.264 
  1517.69,891.406 1519.68,892.549 1521.67,893.691 1523.67,894.834 1525.66,895.976 1527.65,897.119 1529.65,898.261 1531.64,899.404 1533.63,900.546 1535.63,901.689 
  1537.62,902.831 1539.61,903.974 1541.61,905.116 1543.6,906.259 1545.59,907.401 1547.59,908.544 1549.58,909.686 1551.57,910.829 1553.56,911.971 1555.56,913.114 
  1557.55,914.256 1559.54,915.399 1561.54,916.541 1563.53,917.684 1565.52,918.826 1567.52,919.969 1569.51,921.111 1571.5,922.254 1573.5,923.396 1575.49,924.539 
  1577.48,925.681 1579.48,926.824 1581.47,927.966 1583.46,929.109 1585.45,930.251 1587.45,931.394 1589.44,932.536 1591.43,933.679 1593.43,934.821 1595.42,935.964 
  1597.41,937.106 1599.41,938.249 1601.4,939.391 1603.39,940.534 1605.39,941.676 1607.38,942.819 1609.37,943.961 1611.37,945.104 1613.36,946.246 1615.35,947.389 
  1617.35,948.531 1619.34,949.674 1621.33,950.816 1623.32,951.959 1625.32,953.101 1627.31,954.244 1629.3,955.386 1631.3,956.529 1633.29,957.671 1635.28,958.814 
  1637.28,959.956 1639.27,961.099 1641.26,962.241 1643.26,963.384 1645.25,964.526 1647.24,965.669 1649.24,966.811 1651.23,967.954 1653.22,969.096 1655.21,970.239 
  1657.21,971.381 1659.2,972.524 1661.19,973.666 1663.19,974.809 1665.18,975.951 1667.17,977.094 1669.17,978.236 1671.16,979.379 1673.15,980.521 1675.15,981.664 
  1677.14,982.806 1679.13,983.949 1681.13,985.091 1683.12,986.234 1685.11,987.376 1687.11,988.519 1689.1,989.661 1691.09,990.804 1693.08,991.946 1695.08,993.089 
  1697.07,994.231 1699.06,995.374 1701.06,996.516 1703.05,997.659 1705.04,998.801 1707.04,999.944 1709.03,1001.09 1711.02,1002.23 1713.02,1003.37 1715.01,1004.51 
  1717,1005.66 1719,1006.8 1720.99,1007.94 1722.98,1009.08 1724.97,1010.23 1726.97,1011.37 1728.96,1012.51 1730.95,1013.65 1732.95,1014.8 1734.94,1015.94 
  1736.93,1017.08 1738.93,1018.22 1740.92,1019.37 1742.91,1020.51 1744.91,1021.65 1746.9,1022.79 1748.89,1023.94 1750.89,1025.08 1752.88,1026.22 1754.87,1027.36 
  1756.87,1028.51 1758.86,1029.65 1760.85,1030.79 1762.84,1031.93 1764.84,1033.08 1766.83,1034.22 1768.82,1035.36 1770.82,1036.5 1772.81,1037.65 1774.8,1038.79 
  1776.8,1039.93 1778.79,1041.07 1780.78,1042.22 1782.78,1043.36 1784.77,1044.5 1786.76,1045.64 1788.76,1046.79 1790.75,1047.93 1792.74,1049.07 1794.74,1050.21 
  1796.73,1051.36 1798.72,1052.5 1800.71,1053.64 1802.71,1054.78 1804.7,1055.93 1806.69,1057.07 1808.69,1058.21 1810.68,1059.35 1812.67,1060.5 1814.67,1061.64 
  1816.66,1062.78 1818.65,1063.92 1820.65,1065.07 1822.64,1066.21 1824.63,1067.35 1826.63,1068.49 1828.62,1069.64 1830.61,1070.78 1832.6,1071.92 1834.6,1073.06 
  1836.59,1074.21 1838.58,1075.35 1840.58,1076.49 1842.57,1077.63 1844.56,1078.78 1846.56,1079.92 1848.55,1081.06 1850.54,1082.2 1852.54,1083.35 1854.53,1084.49 
  1856.52,1085.63 1858.52,1086.77 1860.51,1087.92 1862.5,1089.06 1864.5,1090.2 1866.49,1091.34 1868.48,1092.49 1870.47,1093.63 1872.47,1094.77 1874.46,1095.91 
  1876.45,1097.06 1878.45,1098.2 1880.44,1099.34 1882.43,1100.48 1884.43,1101.63 1886.42,1102.77 1888.41,1103.91 1890.41,1105.05 1892.4,1106.2 1894.39,1107.34 
  1896.39,1108.48 1898.38,1109.62 1900.37,1110.77 1902.36,1111.91 1904.36,1113.05 1906.35,1114.19 1908.34,1115.34 1910.34,1116.48 1912.33,1117.62 1914.32,1118.76 
  1916.32,1119.91 1918.31,1121.05 1920.3,1122.19 1922.3,1123.33 1924.29,1124.48 1926.28,1125.62 1928.28,1126.76 1930.27,1127.9 1932.26,1129.05 1934.26,1130.19 
  1936.25,1131.33 1938.24,1132.47 1940.23,1133.62 1942.23,1134.76 1944.22,1135.9 1946.21,1137.04 1948.21,1138.19 1950.2,1139.33 1952.19,1140.47 1954.19,1141.61 
  1956.18,1142.76 1958.17,1143.9 1960.17,1145.04 1962.16,1146.18 1964.15,1147.33 1966.15,1148.47 1968.14,1149.61 1970.13,1150.75 1972.12,1151.9 1974.12,1153.04 
  1976.11,1154.18 1978.1,1155.32 1980.1,1156.47 1982.09,1157.61 1984.08,1158.75 1986.08,1159.89 1988.07,1161.04 1990.06,1162.18 1992.06,1163.32 1994.05,1164.46 
  1996.04,1165.61 1998.04,1166.75 2000.03,1167.89 2002.02,1169.03 2004.02,1170.18 2006.01,1171.32 2008,1172.46 2009.99,1173.6 2011.99,1174.75 2013.98,1175.89 
  2015.97,1177.03 2017.97,1178.17 2019.96,1179.32 2021.95,1180.46 2023.95,1181.6 2025.94,1182.74 2027.93,1183.89 2029.93,1185.03 2031.92,1186.17 2033.91,1187.31 
  2035.91,1188.46 2037.9,1189.6 2039.89,1190.74 2041.89,1191.88 2043.88,1193.03 2045.87,1194.17 2047.86,1195.31 2049.86,1196.45 2051.85,1197.6 2053.84,1198.74 
  2055.84,1199.88 2057.83,1201.02 2059.82,1202.17 2061.82,1203.31 2063.81,1204.45 2065.8,1205.59 2067.8,1206.74 2069.79,1207.88 2071.78,1209.02 2073.78,1210.16 
  2075.77,1211.31 2077.76,1212.45 2079.75,1213.59 2081.75,1214.73 2083.74,1215.88 2085.73,1217.02 2087.73,1218.16 2089.72,1219.3 2091.71,1220.45 2093.71,1221.59 
  2095.7,1222.73 2097.69,1223.87 2099.69,1225.02 2101.68,1226.16 2103.67,1227.3 2105.67,1228.44 2107.66,1229.59 2109.65,1230.73 2111.65,1231.87 2113.64,1233.01 
  2115.63,1234.16 2117.62,1235.3 2119.62,1236.44 2121.61,1237.58 2123.6,1238.73 2125.6,1239.87 2127.59,1241.01 2129.58,1242.15 2131.58,1243.3 2133.57,1244.44 
  2135.56,1245.58 2137.56,1246.72 2139.55,1247.87 2141.54,1249.01 2143.54,1250.15 2145.53,1251.29 2147.52,1252.44 2149.51,1253.58 2151.51,1254.72 2153.5,1255.86 
  2155.49,1257.01 2157.49,1258.15 2159.48,1259.29 2161.47,1260.43 2163.47,1261.58 2165.46,1262.72 2167.45,1263.86 2169.45,1265 2171.44,1266.15 2173.43,1267.29 
  2175.43,1268.43 2177.42,1269.57 2179.41,1270.72 2181.41,1271.86 2183.4,1273 2185.39,1274.14 2187.38,1275.29 2189.38,1276.43 2191.37,1277.57 2193.36,1278.71 
  2195.36,1279.86 2197.35,1281 2199.34,1282.14 2201.34,1283.28 2203.33,1284.43 2205.32,1285.57 2207.32,1286.71 2209.31,1287.85 2211.3,1289 2213.3,1290.14 
  2215.29,1291.28 2217.28,1292.42 2219.27,1293.57 2221.27,1294.71 2223.26,1295.85 2225.25,1296.99 2227.25,1298.14 2229.24,1299.28 2231.23,1300.42 2233.23,1301.56 
  2235.22,1302.71 2237.21,1303.85 2239.21,1304.99 2241.2,1306.13 2243.19,1307.28 2245.19,1308.42 2247.18,1309.56 2249.17,1310.7 2251.17,1311.85 2253.16,1312.99 
  2255.15,1314.13 2257.14,1315.27 2259.14,1316.42 2261.13,1317.56 2263.12,1318.7 2265.12,1319.84 2267.11,1320.99 2269.1,1322.13 2271.1,1323.27 2273.09,1324.41 
  2275.08,1325.56 2277.08,1326.7 2279.07,1327.84 2281.06,1328.98 2283.06,1330.13 2285.05,1331.27 2287.04,1332.41 2289.04,1333.55 2291.03,1334.7 2293.02,1335.84 
  
  "/>
<path clip-path="url(#clip210)" d="
M1383.66 322.316 L2282.4 322.316 L2282.4 166.796 L1383.66 166.796  Z
  " fill="#ffffff" fill-rule="evenodd" fill-opacity="1"/>
<polyline clip-path="url(#clip210)" style="stroke:#000000; stroke-linecap:butt; stroke-linejoin:round; stroke-width:4; stroke-opacity:1; fill:none" points="
  1383.66,322.316 2282.4,322.316 2282.4,166.796 1383.66,166.796 1383.66,322.316 
  "/>
<circle clip-path="url(#clip210)" cx="1477.46" cy="218.636" r="23" fill="#009af9" fill-rule="evenodd" fill-opacity="1" stroke="#000000" stroke-opacity="1" stroke-width="5.12"/>
<path clip-path="url(#clip210)" d="M1590.18 213.925 L1590.18 199.897 L1594.44 199.897 L1594.44 235.916 L1590.18 235.916 L1590.18 232.027 Q1588.84 234.342 1586.78 235.476 Q1584.74 236.587 1581.87 236.587 Q1577.17 236.587 1574.21 232.837 Q1571.27 229.087 1571.27 222.976 Q1571.27 216.865 1574.21 213.115 Q1577.17 209.365 1581.87 209.365 Q1584.74 209.365 1586.78 210.499 Q1588.84 211.61 1590.18 213.925 M1575.66 222.976 Q1575.66 227.675 1577.59 230.36 Q1579.53 233.022 1582.91 233.022 Q1586.29 233.022 1588.23 230.36 Q1590.18 227.675 1590.18 222.976 Q1590.18 218.277 1588.23 215.615 Q1586.29 212.93 1582.91 212.93 Q1579.53 212.93 1577.59 215.615 Q1575.66 218.277 1575.66 222.976 Z" fill="#000000" fill-rule="evenodd" fill-opacity="1" /><path clip-path="url(#clip210)" d="M1608.07 219.411 L1608.07 232.073 L1615.57 232.073 Q1619.35 232.073 1621.15 230.522 Q1622.98 228.948 1622.98 225.731 Q1622.98 222.49 1621.15 220.962 Q1619.35 219.411 1615.57 219.411 L1608.07 219.411 M1608.07 205.198 L1608.07 215.615 L1614.99 215.615 Q1618.42 215.615 1620.09 214.342 Q1621.78 213.045 1621.78 210.407 Q1621.78 207.791 1620.09 206.495 Q1618.42 205.198 1614.99 205.198 L1608.07 205.198 M1603.4 201.356 L1615.34 201.356 Q1620.69 201.356 1623.58 203.578 Q1626.47 205.8 1626.47 209.897 Q1626.47 213.069 1624.99 214.944 Q1623.51 216.819 1620.64 217.282 Q1624.09 218.022 1625.99 220.383 Q1627.91 222.721 1627.91 226.24 Q1627.91 230.869 1624.76 233.393 Q1621.61 235.916 1615.8 235.916 L1603.4 235.916 L1603.4 201.356 Z" fill="#000000" fill-rule="evenodd" fill-opacity="1" /><path clip-path="url(#clip210)" d="M1655.92 214.967 Q1657.52 212.096 1659.74 210.731 Q1661.96 209.365 1664.97 209.365 Q1669.02 209.365 1671.22 212.212 Q1673.42 215.036 1673.42 220.268 L1673.42 235.916 L1669.14 235.916 L1669.14 220.407 Q1669.14 216.68 1667.82 214.874 Q1666.5 213.069 1663.79 213.069 Q1660.48 213.069 1658.56 215.268 Q1656.64 217.467 1656.64 221.263 L1656.64 235.916 L1652.35 235.916 L1652.35 220.407 Q1652.35 216.657 1651.03 214.874 Q1649.72 213.069 1646.96 213.069 Q1643.7 213.069 1641.78 215.291 Q1639.85 217.49 1639.85 221.263 L1639.85 235.916 L1635.57 235.916 L1635.57 209.99 L1639.85 209.99 L1639.85 214.018 Q1641.31 211.633 1643.35 210.499 Q1645.39 209.365 1648.19 209.365 Q1651.01 209.365 1652.98 210.8 Q1654.97 212.235 1655.92 214.967 Z" fill="#000000" fill-rule="evenodd" fill-opacity="1" /><path clip-path="url(#clip210)" d="M1683 230.036 L1687.89 230.036 L1687.89 234.018 L1684.09 241.425 L1681.1 241.425 L1683 234.018 L1683 230.036 Z" fill="#000000" fill-rule="evenodd" fill-opacity="1" /><path clip-path="url(#clip210)" d="M1723.79 205.962 L1717.45 223.161 L1730.15 223.161 L1723.79 205.962 M1721.15 201.356 L1726.45 201.356 L1739.62 235.916 L1734.76 235.916 L1731.61 227.05 L1716.03 227.05 L1712.89 235.916 L1707.96 235.916 L1721.15 201.356 Z" fill="#000000" fill-rule="evenodd" fill-opacity="1" /><path clip-path="url(#clip210)" d="M1749.34 205.198 L1749.34 232.073 L1754.99 232.073 Q1762.15 232.073 1765.46 228.832 Q1768.79 225.592 1768.79 218.601 Q1768.79 211.657 1765.46 208.439 Q1762.15 205.198 1754.99 205.198 L1749.34 205.198 M1744.67 201.356 L1754.27 201.356 Q1764.32 201.356 1769.02 205.546 Q1773.72 209.712 1773.72 218.601 Q1773.72 227.536 1769 231.726 Q1764.27 235.916 1754.27 235.916 L1744.67 235.916 L1744.67 201.356 Z" fill="#000000" fill-rule="evenodd" fill-opacity="1" /><path clip-path="url(#clip210)" d="M1807.05 204.018 L1807.05 208.948 Q1804.69 206.749 1802.01 205.661 Q1799.34 204.573 1796.33 204.573 Q1790.41 204.573 1787.26 208.208 Q1784.11 211.819 1784.11 218.67 Q1784.11 225.499 1787.26 229.133 Q1790.41 232.744 1796.33 232.744 Q1799.34 232.744 1802.01 231.656 Q1804.69 230.569 1807.05 228.369 L1807.05 233.254 Q1804.6 234.92 1801.84 235.754 Q1799.11 236.587 1796.06 236.587 Q1788.21 236.587 1783.7 231.795 Q1779.18 226.981 1779.18 218.67 Q1779.18 210.337 1783.7 205.546 Q1788.21 200.731 1796.06 200.731 Q1799.16 200.731 1801.89 201.564 Q1804.64 202.374 1807.05 204.018 Z" fill="#000000" fill-rule="evenodd" fill-opacity="1" /><path clip-path="url(#clip210)" d="M1833.28 232.027 L1833.28 245.777 L1829 245.777 L1829 209.99 L1833.28 209.99 L1833.28 213.925 Q1834.62 211.61 1836.66 210.499 Q1838.72 209.365 1841.57 209.365 Q1846.29 209.365 1849.23 213.115 Q1852.19 216.865 1852.19 222.976 Q1852.19 229.087 1849.23 232.837 Q1846.29 236.587 1841.57 236.587 Q1838.72 236.587 1836.66 235.476 Q1834.62 234.342 1833.28 232.027 M1847.77 222.976 Q1847.77 218.277 1845.83 215.615 Q1843.9 212.93 1840.52 212.93 Q1837.14 212.93 1835.2 215.615 Q1833.28 218.277 1833.28 222.976 Q1833.28 227.675 1835.2 230.36 Q1837.14 233.022 1840.52 233.022 Q1843.9 233.022 1845.83 230.36 Q1847.77 227.675 1847.77 222.976 Z" fill="#000000" fill-rule="evenodd" fill-opacity="1" /><path clip-path="url(#clip210)" d="M1871.03 222.883 Q1865.87 222.883 1863.88 224.064 Q1861.89 225.244 1861.89 228.092 Q1861.89 230.36 1863.37 231.703 Q1864.88 233.022 1867.45 233.022 Q1870.99 233.022 1873.12 230.522 Q1875.27 227.999 1875.27 223.832 L1875.27 222.883 L1871.03 222.883 M1879.53 221.124 L1879.53 235.916 L1875.27 235.916 L1875.27 231.981 Q1873.81 234.342 1871.64 235.476 Q1869.46 236.587 1866.31 236.587 Q1862.33 236.587 1859.97 234.365 Q1857.63 232.119 1857.63 228.369 Q1857.63 223.994 1860.55 221.772 Q1863.49 219.55 1869.3 219.55 L1875.27 219.55 L1875.27 219.133 Q1875.27 216.194 1873.33 214.596 Q1871.4 212.976 1867.91 212.976 Q1865.69 212.976 1863.58 213.508 Q1861.47 214.041 1859.53 215.106 L1859.53 211.17 Q1861.87 210.268 1864.07 209.828 Q1866.27 209.365 1868.35 209.365 Q1873.97 209.365 1876.75 212.282 Q1879.53 215.198 1879.53 221.124 Z" fill="#000000" fill-rule="evenodd" fill-opacity="1" /><path clip-path="url(#clip210)" d="M1888.3 209.99 L1892.56 209.99 L1892.56 235.916 L1888.3 235.916 L1888.3 209.99 M1888.3 199.897 L1892.56 199.897 L1892.56 205.291 L1888.3 205.291 L1888.3 199.897 Z" fill="#000000" fill-rule="evenodd" fill-opacity="1" /><path clip-path="url(#clip210)" d="M1916.5 213.971 Q1915.78 213.555 1914.92 213.37 Q1914.09 213.161 1913.07 213.161 Q1909.46 213.161 1907.51 215.522 Q1905.59 217.86 1905.59 222.258 L1905.59 235.916 L1901.31 235.916 L1901.31 209.99 L1905.59 209.99 L1905.59 214.018 Q1906.94 211.657 1909.09 210.522 Q1911.24 209.365 1914.32 209.365 Q1914.76 209.365 1915.29 209.434 Q1915.82 209.481 1916.47 209.596 L1916.5 213.971 Z" fill="#000000" fill-rule="evenodd" fill-opacity="1" /><path clip-path="url(#clip210)" d="M1937.49 210.754 L1937.49 214.782 Q1935.69 213.856 1933.74 213.393 Q1931.8 212.93 1929.71 212.93 Q1926.54 212.93 1924.95 213.902 Q1923.37 214.874 1923.37 216.819 Q1923.37 218.3 1924.51 219.157 Q1925.64 219.99 1929.07 220.754 L1930.52 221.078 Q1935.06 222.05 1936.96 223.832 Q1938.88 225.592 1938.88 228.763 Q1938.88 232.374 1936.01 234.481 Q1933.16 236.587 1928.16 236.587 Q1926.08 236.587 1923.81 236.17 Q1921.57 235.777 1919.07 234.967 L1919.07 230.569 Q1921.43 231.795 1923.72 232.42 Q1926.01 233.022 1928.26 233.022 Q1931.26 233.022 1932.89 232.004 Q1934.51 230.962 1934.51 229.087 Q1934.51 227.351 1933.32 226.425 Q1932.17 225.499 1928.21 224.643 L1926.73 224.295 Q1922.77 223.462 1921.01 221.749 Q1919.25 220.013 1919.25 217.004 Q1919.25 213.346 1921.84 211.356 Q1924.44 209.365 1929.2 209.365 Q1931.57 209.365 1933.65 209.712 Q1935.73 210.059 1937.49 210.754 Z" fill="#000000" fill-rule="evenodd" fill-opacity="1" /><polyline clip-path="url(#clip210)" style="stroke:#e26f46; stroke-linecap:butt; stroke-linejoin:round; stroke-width:4; stroke-opacity:1; fill:none" points="
  1407.11,270.476 1547.82,270.476 
  "/>
<path clip-path="url(#clip210)" d="M1587.77 251.737 L1587.77 255.279 L1583.7 255.279 Q1581.41 255.279 1580.5 256.205 Q1579.62 257.131 1579.62 259.538 L1579.62 261.83 L1586.64 261.83 L1586.64 265.14 L1579.62 265.14 L1579.62 287.756 L1575.34 287.756 L1575.34 265.14 L1571.27 265.14 L1571.27 261.83 L1575.34 261.83 L1575.34 260.024 Q1575.34 255.696 1577.35 253.728 Q1579.37 251.737 1583.74 251.737 L1587.77 251.737 Z" fill="#000000" fill-rule="evenodd" fill-opacity="1" /><path clip-path="url(#clip210)" d="M1591.34 261.83 L1595.6 261.83 L1595.6 287.756 L1591.34 287.756 L1591.34 261.83 M1591.34 251.737 L1595.6 251.737 L1595.6 257.131 L1591.34 257.131 L1591.34 251.737 Z" fill="#000000" fill-rule="evenodd" fill-opacity="1" /><path clip-path="url(#clip210)" d="M1608.72 254.469 L1608.72 261.83 L1617.49 261.83 L1617.49 265.14 L1608.72 265.14 L1608.72 279.214 Q1608.72 282.385 1609.58 283.288 Q1610.46 284.191 1613.12 284.191 L1617.49 284.191 L1617.49 287.756 L1613.12 287.756 Q1608.19 287.756 1606.31 285.927 Q1604.44 284.075 1604.44 279.214 L1604.44 265.14 L1601.31 265.14 L1601.31 261.83 L1604.44 261.83 L1604.44 254.469 L1608.72 254.469 Z" fill="#000000" fill-rule="evenodd" fill-opacity="1" /><path clip-path="url(#clip210)" d="M1651.29 251.737 L1651.29 255.279 L1647.22 255.279 Q1644.92 255.279 1644.02 256.205 Q1643.14 257.131 1643.14 259.538 L1643.14 261.83 L1650.16 261.83 L1650.16 265.14 L1643.14 265.14 L1643.14 287.756 L1638.86 287.756 L1638.86 265.14 L1634.78 265.14 L1634.78 261.83 L1638.86 261.83 L1638.86 260.024 Q1638.86 255.696 1640.87 253.728 Q1642.89 251.737 1647.26 251.737 L1651.29 251.737 Z" fill="#000000" fill-rule="evenodd" fill-opacity="1" /><path clip-path="url(#clip210)" d="M1654.41 277.524 L1654.41 261.83 L1658.67 261.83 L1658.67 277.362 Q1658.67 281.043 1660.11 282.895 Q1661.54 284.723 1664.41 284.723 Q1667.86 284.723 1669.85 282.524 Q1671.87 280.325 1671.87 276.529 L1671.87 261.83 L1676.13 261.83 L1676.13 287.756 L1671.87 287.756 L1671.87 283.774 Q1670.32 286.135 1668.26 287.293 Q1666.22 288.427 1663.51 288.427 Q1659.04 288.427 1656.73 285.649 Q1654.41 282.871 1654.41 277.524 M1665.13 261.205 L1665.13 261.205 Z" fill="#000000" fill-rule="evenodd" fill-opacity="1" /><path clip-path="url(#clip210)" d="M1706.45 272.108 L1706.45 287.756 L1702.19 287.756 L1702.19 272.247 Q1702.19 268.566 1700.76 266.737 Q1699.32 264.909 1696.45 264.909 Q1693 264.909 1691.01 267.108 Q1689.02 269.307 1689.02 273.103 L1689.02 287.756 L1684.74 287.756 L1684.74 261.83 L1689.02 261.83 L1689.02 265.858 Q1690.55 263.52 1692.61 262.362 Q1694.69 261.205 1697.4 261.205 Q1701.87 261.205 1704.16 263.983 Q1706.45 266.737 1706.45 272.108 Z" fill="#000000" fill-rule="evenodd" fill-opacity="1" /><path clip-path="url(#clip210)" d="M1733.6 262.825 L1733.6 266.807 Q1731.8 265.811 1729.97 265.325 Q1728.16 264.816 1726.31 264.816 Q1722.17 264.816 1719.88 267.455 Q1717.59 270.071 1717.59 274.816 Q1717.59 279.561 1719.88 282.2 Q1722.17 284.816 1726.31 284.816 Q1728.16 284.816 1729.97 284.33 Q1731.8 283.821 1733.6 282.825 L1733.6 286.76 Q1731.82 287.594 1729.9 288.01 Q1728 288.427 1725.85 288.427 Q1719.99 288.427 1716.54 284.746 Q1713.09 281.066 1713.09 274.816 Q1713.09 268.473 1716.57 264.839 Q1720.06 261.205 1726.13 261.205 Q1728.09 261.205 1729.97 261.622 Q1731.84 262.015 1733.6 262.825 Z" fill="#000000" fill-rule="evenodd" fill-opacity="1" /><path clip-path="url(#clip210)" d="M1745.22 254.469 L1745.22 261.83 L1754 261.83 L1754 265.14 L1745.22 265.14 L1745.22 279.214 Q1745.22 282.385 1746.08 283.288 Q1746.96 284.191 1749.62 284.191 L1754 284.191 L1754 287.756 L1749.62 287.756 Q1744.69 287.756 1742.82 285.927 Q1740.94 284.075 1740.94 279.214 L1740.94 265.14 L1737.82 265.14 L1737.82 261.83 L1740.94 261.83 L1740.94 254.469 L1745.22 254.469 Z" fill="#000000" fill-rule="evenodd" fill-opacity="1" /><path clip-path="url(#clip210)" d="M1759.6 261.83 L1763.86 261.83 L1763.86 287.756 L1759.6 287.756 L1759.6 261.83 M1759.6 251.737 L1763.86 251.737 L1763.86 257.131 L1759.6 257.131 L1759.6 251.737 Z" fill="#000000" fill-rule="evenodd" fill-opacity="1" /><path clip-path="url(#clip210)" d="M1782.82 264.816 Q1779.39 264.816 1777.4 267.501 Q1775.41 270.163 1775.41 274.816 Q1775.41 279.469 1777.38 282.154 Q1779.37 284.816 1782.82 284.816 Q1786.22 284.816 1788.21 282.131 Q1790.2 279.446 1790.2 274.816 Q1790.2 270.21 1788.21 267.524 Q1786.22 264.816 1782.82 264.816 M1782.82 261.205 Q1788.37 261.205 1791.54 264.816 Q1794.71 268.427 1794.71 274.816 Q1794.71 281.182 1791.54 284.816 Q1788.37 288.427 1782.82 288.427 Q1777.24 288.427 1774.07 284.816 Q1770.92 281.182 1770.92 274.816 Q1770.92 268.427 1774.07 264.816 Q1777.24 261.205 1782.82 261.205 Z" fill="#000000" fill-rule="evenodd" fill-opacity="1" /><path clip-path="url(#clip210)" d="M1823.33 272.108 L1823.33 287.756 L1819.07 287.756 L1819.07 272.247 Q1819.07 268.566 1817.63 266.737 Q1816.2 264.909 1813.33 264.909 Q1809.88 264.909 1807.89 267.108 Q1805.89 269.307 1805.89 273.103 L1805.89 287.756 L1801.61 287.756 L1801.61 261.83 L1805.89 261.83 L1805.89 265.858 Q1807.42 263.52 1809.48 262.362 Q1811.57 261.205 1814.27 261.205 Q1818.74 261.205 1821.03 263.983 Q1823.33 266.737 1823.33 272.108 Z" fill="#000000" fill-rule="evenodd" fill-opacity="1" /><path clip-path="url(#clip210)" d="M1832.91 281.876 L1837.79 281.876 L1837.79 285.858 L1834 293.265 L1831.01 293.265 L1832.91 285.858 L1832.91 281.876 Z" fill="#000000" fill-rule="evenodd" fill-opacity="1" /><path clip-path="url(#clip210)" d="M1884.14 273.728 L1884.14 275.811 L1864.55 275.811 Q1864.83 280.209 1867.19 282.524 Q1869.58 284.816 1873.81 284.816 Q1876.26 284.816 1878.56 284.214 Q1880.87 283.612 1883.14 282.409 L1883.14 286.436 Q1880.85 287.408 1878.44 287.918 Q1876.03 288.427 1873.56 288.427 Q1867.35 288.427 1863.72 284.816 Q1860.11 281.205 1860.11 275.047 Q1860.11 268.682 1863.53 264.955 Q1866.98 261.205 1872.82 261.205 Q1878.05 261.205 1881.08 264.585 Q1884.14 267.941 1884.14 273.728 M1879.88 272.478 Q1879.83 268.983 1877.91 266.899 Q1876.01 264.816 1872.86 264.816 Q1869.3 264.816 1867.14 266.83 Q1865.02 268.844 1864.69 272.501 L1879.88 272.478 Z" fill="#000000" fill-rule="evenodd" fill-opacity="1" /><path clip-path="url(#clip210)" d="M1906.15 265.811 Q1905.43 265.395 1904.58 265.21 Q1903.74 265.001 1902.72 265.001 Q1899.11 265.001 1897.17 267.362 Q1895.25 269.7 1895.25 274.098 L1895.25 287.756 L1890.96 287.756 L1890.96 261.83 L1895.25 261.83 L1895.25 265.858 Q1896.59 263.497 1898.74 262.362 Q1900.89 261.205 1903.97 261.205 Q1904.41 261.205 1904.95 261.274 Q1905.48 261.321 1906.13 261.436 L1906.15 265.811 Z" fill="#000000" fill-rule="evenodd" fill-opacity="1" /><path clip-path="url(#clip210)" d="M1924.81 265.811 Q1924.09 265.395 1923.23 265.21 Q1922.4 265.001 1921.38 265.001 Q1917.77 265.001 1915.82 267.362 Q1913.9 269.7 1913.9 274.098 L1913.9 287.756 L1909.62 287.756 L1909.62 261.83 L1913.9 261.83 L1913.9 265.858 Q1915.25 263.497 1917.4 262.362 Q1919.55 261.205 1922.63 261.205 Q1923.07 261.205 1923.6 261.274 Q1924.14 261.321 1924.78 261.436 L1924.81 265.811 Z" fill="#000000" fill-rule="evenodd" fill-opacity="1" /><path clip-path="url(#clip210)" d="M1938.28 264.816 Q1934.85 264.816 1932.86 267.501 Q1930.87 270.163 1930.87 274.816 Q1930.87 279.469 1932.84 282.154 Q1934.83 284.816 1938.28 284.816 Q1941.68 284.816 1943.67 282.131 Q1945.66 279.446 1945.66 274.816 Q1945.66 270.21 1943.67 267.524 Q1941.68 264.816 1938.28 264.816 M1938.28 261.205 Q1943.83 261.205 1947.01 264.816 Q1950.18 268.427 1950.18 274.816 Q1950.18 281.182 1947.01 284.816 Q1943.83 288.427 1938.28 288.427 Q1932.7 288.427 1929.53 284.816 Q1926.38 281.182 1926.38 274.816 Q1926.38 268.427 1929.53 264.816 Q1932.7 261.205 1938.28 261.205 Z" fill="#000000" fill-rule="evenodd" fill-opacity="1" /><path clip-path="url(#clip210)" d="M1972.26 265.811 Q1971.54 265.395 1970.69 265.21 Q1969.85 265.001 1968.83 265.001 Q1965.22 265.001 1963.28 267.362 Q1961.36 269.7 1961.36 274.098 L1961.36 287.756 L1957.07 287.756 L1957.07 261.83 L1961.36 261.83 L1961.36 265.858 Q1962.7 263.497 1964.85 262.362 Q1967.01 261.205 1970.08 261.205 Q1970.52 261.205 1971.06 261.274 Q1971.59 261.321 1972.24 261.436 L1972.26 265.811 Z" fill="#000000" fill-rule="evenodd" fill-opacity="1" /><path clip-path="url(#clip210)" d="M1992.35 266.228 L2022.03 266.228 L2022.03 270.117 L1992.35 270.117 L1992.35 266.228 M1992.35 275.672 L2022.03 275.672 L2022.03 279.608 L1992.35 279.608 L1992.35 275.672 Z" fill="#000000" fill-rule="evenodd" fill-opacity="1" /><path clip-path="url(#clip210)" d="M2060.04 257.27 L2048.23 275.719 L2060.04 275.719 L2060.04 257.27 M2058.81 253.196 L2064.69 253.196 L2064.69 275.719 L2069.62 275.719 L2069.62 279.608 L2064.69 279.608 L2064.69 287.756 L2060.04 287.756 L2060.04 279.608 L2044.44 279.608 L2044.44 275.094 L2058.81 253.196 Z" fill="#000000" fill-rule="evenodd" fill-opacity="1" /><path clip-path="url(#clip210)" d="M2087.35 256.274 Q2083.74 256.274 2081.91 259.839 Q2080.11 263.381 2080.11 270.51 Q2080.11 277.617 2081.91 281.182 Q2083.74 284.723 2087.35 284.723 Q2090.99 284.723 2092.79 281.182 Q2094.62 277.617 2094.62 270.51 Q2094.62 263.381 2092.79 259.839 Q2090.99 256.274 2087.35 256.274 M2087.35 252.571 Q2093.16 252.571 2096.22 257.177 Q2099.3 261.76 2099.3 270.51 Q2099.3 279.237 2096.22 283.844 Q2093.16 288.427 2087.35 288.427 Q2081.54 288.427 2078.46 283.844 Q2075.41 279.237 2075.41 270.51 Q2075.41 261.76 2078.46 257.177 Q2081.54 252.571 2087.35 252.571 Z" fill="#000000" fill-rule="evenodd" fill-opacity="1" /><path clip-path="url(#clip210)" d="M2107.51 281.876 L2112.4 281.876 L2112.4 287.756 L2107.51 287.756 L2107.51 281.876 Z" fill="#000000" fill-rule="evenodd" fill-opacity="1" /><path clip-path="url(#clip210)" d="M2121.4 253.196 L2143.62 253.196 L2143.62 255.186 L2131.08 287.756 L2126.19 287.756 L2138 257.131 L2121.4 257.131 L2121.4 253.196 Z" fill="#000000" fill-rule="evenodd" fill-opacity="1" /><path clip-path="url(#clip210)" d="M2152.88 287.038 L2152.88 282.779 Q2154.64 283.612 2156.45 284.052 Q2158.25 284.492 2159.99 284.492 Q2164.62 284.492 2167.05 281.39 Q2169.5 278.265 2169.85 271.922 Q2168.51 273.913 2166.45 274.978 Q2164.39 276.043 2161.89 276.043 Q2156.7 276.043 2153.67 272.918 Q2150.66 269.77 2150.66 264.33 Q2150.66 259.006 2153.81 255.788 Q2156.96 252.571 2162.19 252.571 Q2168.18 252.571 2171.33 257.177 Q2174.5 261.76 2174.5 270.51 Q2174.5 278.682 2170.62 283.566 Q2166.75 288.427 2160.2 288.427 Q2158.44 288.427 2156.63 288.08 Q2154.83 287.733 2152.88 287.038 M2162.19 272.385 Q2165.34 272.385 2167.17 270.233 Q2169.02 268.08 2169.02 264.33 Q2169.02 260.603 2167.17 258.45 Q2165.34 256.274 2162.19 256.274 Q2159.04 256.274 2157.19 258.45 Q2155.36 260.603 2155.36 264.33 Q2155.36 268.08 2157.19 270.233 Q2159.04 272.385 2162.19 272.385 Z" fill="#000000" fill-rule="evenodd" fill-opacity="1" /><path clip-path="url(#clip210)" d="M2182.95 253.196 L2201.31 253.196 L2201.31 257.131 L2187.24 257.131 L2187.24 265.603 Q2188.25 265.256 2189.27 265.094 Q2190.29 264.909 2191.31 264.909 Q2197.1 264.909 2200.48 268.08 Q2203.86 271.251 2203.86 276.668 Q2203.86 282.246 2200.38 285.348 Q2196.91 288.427 2190.59 288.427 Q2188.42 288.427 2186.15 288.057 Q2183.9 287.686 2181.49 286.946 L2181.49 282.246 Q2183.58 283.381 2185.8 283.936 Q2188.02 284.492 2190.5 284.492 Q2194.5 284.492 2196.84 282.385 Q2199.18 280.279 2199.18 276.668 Q2199.18 273.057 2196.84 270.95 Q2194.5 268.844 2190.5 268.844 Q2188.62 268.844 2186.75 269.26 Q2184.9 269.677 2182.95 270.557 L2182.95 253.196 Z" fill="#000000" fill-rule="evenodd" fill-opacity="1" /><path clip-path="url(#clip210)" d="M2225.92 257.27 L2214.11 275.719 L2225.92 275.719 L2225.92 257.27 M2224.69 253.196 L2230.57 253.196 L2230.57 275.719 L2235.5 275.719 L2235.5 279.608 L2230.57 279.608 L2230.57 287.756 L2225.92 287.756 L2225.92 279.608 L2210.31 279.608 L2210.31 275.094 L2224.69 253.196 Z" fill="#000000" fill-rule="evenodd" fill-opacity="1" /></svg>
