<?xml version="1.0" encoding="utf-8"?>
<svg xmlns="http://www.w3.org/2000/svg" xmlns:xlink="http://www.w3.org/1999/xlink" width="600" height="400" viewBox="0 0 2400 1600">
<defs>
  <clipPath id="clip990">
    <rect x="0" y="0" width="2400" height="1600"/>
  </clipPath>
</defs>
<path clip-path="url(#clip990)" d="M0 1600 L2400 1600 L2400 0 L0 0  Z" fill="#ffffff" fill-rule="evenodd" fill-opacity="1"/>
<defs>
  <clipPath id="clip991">
    <rect x="480" y="0" width="1681" height="1600"/>
  </clipPath>
</defs>
<path clip-path="url(#clip990)" d="M242.135 1423.18 L2352.76 1423.18 L2352.76 123.472 L242.135 123.472  Z" fill="#ffffff" fill-rule="evenodd" fill-opacity="1"/>
<defs>
  <clipPath id="clip992">
    <rect x="242" y="123" width="2112" height="1301"/>
  </clipPath>
</defs>
<polyline clip-path="url(#clip992)" style="stroke:#000000; stroke-linecap:round; stroke-linejoin:round; stroke-width:2; stroke-opacity:0.1; fill:none" points="467.385,1423.18 467.385,123.472 "/>
<polyline clip-path="url(#clip992)" style="stroke:#000000; stroke-linecap:round; stroke-linejoin:round; stroke-width:2; stroke-opacity:0.1; fill:none" points="881.174,1423.18 881.174,123.472 "/>
<polyline clip-path="url(#clip992)" style="stroke:#000000; stroke-linecap:round; stroke-linejoin:round; stroke-width:2; stroke-opacity:0.1; fill:none" points="1294.96,1423.18 1294.96,123.472 "/>
<polyline clip-path="url(#clip992)" style="stroke:#000000; stroke-linecap:round; stroke-linejoin:round; stroke-width:2; stroke-opacity:0.1; fill:none" points="1708.75,1423.18 1708.75,123.472 "/>
<polyline clip-path="url(#clip992)" style="stroke:#000000; stroke-linecap:round; stroke-linejoin:round; stroke-width:2; stroke-opacity:0.1; fill:none" points="2122.54,1423.18 2122.54,123.472 "/>
<polyline clip-path="url(#clip990)" style="stroke:#000000; stroke-linecap:round; stroke-linejoin:round; stroke-width:4; stroke-opacity:1; fill:none" points="242.135,1423.18 2352.76,1423.18 "/>
<polyline clip-path="url(#clip990)" style="stroke:#000000; stroke-linecap:round; stroke-linejoin:round; stroke-width:4; stroke-opacity:1; fill:none" points="467.385,1423.18 467.385,1404.28 "/>
<polyline clip-path="url(#clip990)" style="stroke:#000000; stroke-linecap:round; stroke-linejoin:round; stroke-width:4; stroke-opacity:1; fill:none" points="881.174,1423.18 881.174,1404.28 "/>
<polyline clip-path="url(#clip990)" style="stroke:#000000; stroke-linecap:round; stroke-linejoin:round; stroke-width:4; stroke-opacity:1; fill:none" points="1294.96,1423.18 1294.96,1404.28 "/>
<polyline clip-path="url(#clip990)" style="stroke:#000000; stroke-linecap:round; stroke-linejoin:round; stroke-width:4; stroke-opacity:1; fill:none" points="1708.75,1423.18 1708.75,1404.28 "/>
<polyline clip-path="url(#clip990)" style="stroke:#000000; stroke-linecap:round; stroke-linejoin:round; stroke-width:4; stroke-opacity:1; fill:none" points="2122.54,1423.18 2122.54,1404.28 "/>
<path clip-path="url(#clip990)" d="M411.911 1481.64 L419.549 1481.64 L419.549 1455.28 L411.239 1456.95 L411.239 1452.69 L419.503 1451.02 L424.179 1451.02 L424.179 1481.64 L431.818 1481.64 L431.818 1485.58 L411.911 1485.58 L411.911 1481.64 Z" fill="#000000" fill-rule="evenodd" fill-opacity="1" /><path clip-path="url(#clip990)" d="M451.262 1454.1 Q447.651 1454.1 445.822 1457.66 Q444.017 1461.2 444.017 1468.33 Q444.017 1475.44 445.822 1479.01 Q447.651 1482.55 451.262 1482.55 Q454.896 1482.55 456.702 1479.01 Q458.531 1475.44 458.531 1468.33 Q458.531 1461.2 456.702 1457.66 Q454.896 1454.1 451.262 1454.1 M451.262 1450.39 Q457.072 1450.39 460.128 1455 Q463.207 1459.58 463.207 1468.33 Q463.207 1477.06 460.128 1481.67 Q457.072 1486.25 451.262 1486.25 Q445.452 1486.25 442.373 1481.67 Q439.318 1477.06 439.318 1468.33 Q439.318 1459.58 442.373 1455 Q445.452 1450.39 451.262 1450.39 Z" fill="#000000" fill-rule="evenodd" fill-opacity="1" /><path clip-path="url(#clip990)" d="M481.424 1454.1 Q477.813 1454.1 475.984 1457.66 Q474.179 1461.2 474.179 1468.33 Q474.179 1475.44 475.984 1479.01 Q477.813 1482.55 481.424 1482.55 Q485.058 1482.55 486.864 1479.01 Q488.693 1475.44 488.693 1468.33 Q488.693 1461.2 486.864 1457.66 Q485.058 1454.1 481.424 1454.1 M481.424 1450.39 Q487.234 1450.39 490.29 1455 Q493.368 1459.58 493.368 1468.33 Q493.368 1477.06 490.29 1481.67 Q487.234 1486.25 481.424 1486.25 Q475.614 1486.25 472.535 1481.67 Q469.48 1477.06 469.48 1468.33 Q469.48 1459.58 472.535 1455 Q475.614 1450.39 481.424 1450.39 Z" fill="#000000" fill-rule="evenodd" fill-opacity="1" /><path clip-path="url(#clip990)" d="M511.586 1454.1 Q507.975 1454.1 506.146 1457.66 Q504.341 1461.2 504.341 1468.33 Q504.341 1475.44 506.146 1479.01 Q507.975 1482.55 511.586 1482.55 Q515.22 1482.55 517.026 1479.01 Q518.854 1475.44 518.854 1468.33 Q518.854 1461.2 517.026 1457.66 Q515.22 1454.1 511.586 1454.1 M511.586 1450.39 Q517.396 1450.39 520.452 1455 Q523.53 1459.58 523.53 1468.33 Q523.53 1477.06 520.452 1481.67 Q517.396 1486.25 511.586 1486.25 Q505.776 1486.25 502.697 1481.67 Q499.642 1477.06 499.642 1468.33 Q499.642 1459.58 502.697 1455 Q505.776 1450.39 511.586 1450.39 Z" fill="#000000" fill-rule="evenodd" fill-opacity="1" /><path clip-path="url(#clip990)" d="M825.699 1481.64 L833.338 1481.64 L833.338 1455.28 L825.028 1456.95 L825.028 1452.69 L833.292 1451.02 L837.968 1451.02 L837.968 1481.64 L845.607 1481.64 L845.607 1485.58 L825.699 1485.58 L825.699 1481.64 Z" fill="#000000" fill-rule="evenodd" fill-opacity="1" /><path clip-path="url(#clip990)" d="M855.097 1451.02 L873.454 1451.02 L873.454 1454.96 L859.38 1454.96 L859.38 1463.43 Q860.398 1463.08 861.417 1462.92 Q862.435 1462.73 863.454 1462.73 Q869.241 1462.73 872.62 1465.9 Q876 1469.08 876 1474.49 Q876 1480.07 872.528 1483.17 Q869.056 1486.25 862.736 1486.25 Q860.56 1486.25 858.292 1485.88 Q856.046 1485.51 853.639 1484.77 L853.639 1480.07 Q855.722 1481.2 857.945 1481.76 Q860.167 1482.32 862.644 1482.32 Q866.648 1482.32 868.986 1480.21 Q871.324 1478.1 871.324 1474.49 Q871.324 1470.88 868.986 1468.77 Q866.648 1466.67 862.644 1466.67 Q860.769 1466.67 858.894 1467.08 Q857.042 1467.5 855.097 1468.38 L855.097 1451.02 Z" fill="#000000" fill-rule="evenodd" fill-opacity="1" /><path clip-path="url(#clip990)" d="M895.213 1454.1 Q891.602 1454.1 889.773 1457.66 Q887.968 1461.2 887.968 1468.33 Q887.968 1475.44 889.773 1479.01 Q891.602 1482.55 895.213 1482.55 Q898.847 1482.55 900.653 1479.01 Q902.481 1475.44 902.481 1468.33 Q902.481 1461.2 900.653 1457.66 Q898.847 1454.1 895.213 1454.1 M895.213 1450.39 Q901.023 1450.39 904.079 1455 Q907.157 1459.58 907.157 1468.33 Q907.157 1477.06 904.079 1481.67 Q901.023 1486.25 895.213 1486.25 Q889.403 1486.25 886.324 1481.67 Q883.269 1477.06 883.269 1468.33 Q883.269 1459.58 886.324 1455 Q889.403 1450.39 895.213 1450.39 Z" fill="#000000" fill-rule="evenodd" fill-opacity="1" /><path clip-path="url(#clip990)" d="M925.375 1454.1 Q921.764 1454.1 919.935 1457.66 Q918.129 1461.2 918.129 1468.33 Q918.129 1475.44 919.935 1479.01 Q921.764 1482.55 925.375 1482.55 Q929.009 1482.55 930.815 1479.01 Q932.643 1475.44 932.643 1468.33 Q932.643 1461.2 930.815 1457.66 Q929.009 1454.1 925.375 1454.1 M925.375 1450.39 Q931.185 1450.39 934.241 1455 Q937.319 1459.58 937.319 1468.33 Q937.319 1477.06 934.241 1481.67 Q931.185 1486.25 925.375 1486.25 Q919.565 1486.25 916.486 1481.67 Q913.43 1477.06 913.43 1468.33 Q913.43 1459.58 916.486 1455 Q919.565 1450.39 925.375 1450.39 Z" fill="#000000" fill-rule="evenodd" fill-opacity="1" /><path clip-path="url(#clip990)" d="M1243.57 1481.64 L1259.89 1481.64 L1259.89 1485.58 L1237.95 1485.58 L1237.95 1481.64 Q1240.61 1478.89 1245.19 1474.26 Q1249.8 1469.61 1250.98 1468.27 Q1253.23 1465.74 1254.11 1464.01 Q1255.01 1462.25 1255.01 1460.56 Q1255.01 1457.8 1253.06 1456.07 Q1251.14 1454.33 1248.04 1454.33 Q1245.84 1454.33 1243.39 1455.09 Q1240.96 1455.86 1238.18 1457.41 L1238.18 1452.69 Q1241 1451.55 1243.46 1450.97 Q1245.91 1450.39 1247.95 1450.39 Q1253.32 1450.39 1256.51 1453.08 Q1259.71 1455.77 1259.71 1460.26 Q1259.71 1462.39 1258.9 1464.31 Q1258.11 1466.2 1256 1468.8 Q1255.43 1469.47 1252.32 1472.69 Q1249.22 1475.88 1243.57 1481.64 Z" fill="#000000" fill-rule="evenodd" fill-opacity="1" /><path clip-path="url(#clip990)" d="M1279.71 1454.1 Q1276.1 1454.1 1274.27 1457.66 Q1272.46 1461.2 1272.46 1468.33 Q1272.46 1475.44 1274.27 1479.01 Q1276.1 1482.55 1279.71 1482.55 Q1283.34 1482.55 1285.15 1479.01 Q1286.98 1475.44 1286.98 1468.33 Q1286.98 1461.2 1285.15 1457.66 Q1283.34 1454.1 1279.71 1454.1 M1279.71 1450.39 Q1285.52 1450.39 1288.57 1455 Q1291.65 1459.58 1291.65 1468.33 Q1291.65 1477.06 1288.57 1481.67 Q1285.52 1486.25 1279.71 1486.25 Q1273.9 1486.25 1270.82 1481.67 Q1267.76 1477.06 1267.76 1468.33 Q1267.76 1459.58 1270.82 1455 Q1273.9 1450.39 1279.71 1450.39 Z" fill="#000000" fill-rule="evenodd" fill-opacity="1" /><path clip-path="url(#clip990)" d="M1309.87 1454.1 Q1306.26 1454.1 1304.43 1457.66 Q1302.62 1461.2 1302.62 1468.33 Q1302.62 1475.44 1304.43 1479.01 Q1306.26 1482.55 1309.87 1482.55 Q1313.5 1482.55 1315.31 1479.01 Q1317.14 1475.44 1317.14 1468.33 Q1317.14 1461.2 1315.31 1457.66 Q1313.5 1454.1 1309.87 1454.1 M1309.87 1450.39 Q1315.68 1450.39 1318.74 1455 Q1321.81 1459.58 1321.81 1468.33 Q1321.81 1477.06 1318.74 1481.67 Q1315.68 1486.25 1309.87 1486.25 Q1304.06 1486.25 1300.98 1481.67 Q1297.93 1477.06 1297.93 1468.33 Q1297.93 1459.58 1300.98 1455 Q1304.06 1450.39 1309.87 1450.39 Z" fill="#000000" fill-rule="evenodd" fill-opacity="1" /><path clip-path="url(#clip990)" d="M1340.03 1454.1 Q1336.42 1454.1 1334.59 1457.66 Q1332.79 1461.2 1332.79 1468.33 Q1332.79 1475.44 1334.59 1479.01 Q1336.42 1482.55 1340.03 1482.55 Q1343.67 1482.55 1345.47 1479.01 Q1347.3 1475.44 1347.3 1468.33 Q1347.3 1461.2 1345.47 1457.66 Q1343.67 1454.1 1340.03 1454.1 M1340.03 1450.39 Q1345.84 1450.39 1348.9 1455 Q1351.98 1459.58 1351.98 1468.33 Q1351.98 1477.06 1348.9 1481.67 Q1345.84 1486.25 1340.03 1486.25 Q1334.22 1486.25 1331.14 1481.67 Q1328.09 1477.06 1328.09 1468.33 Q1328.09 1459.58 1331.14 1455 Q1334.22 1450.39 1340.03 1450.39 Z" fill="#000000" fill-rule="evenodd" fill-opacity="1" /><path clip-path="url(#clip990)" d="M1657.36 1481.64 L1673.68 1481.64 L1673.68 1485.58 L1651.74 1485.58 L1651.74 1481.64 Q1654.4 1478.89 1658.98 1474.26 Q1663.59 1469.61 1664.77 1468.27 Q1667.02 1465.74 1667.9 1464.01 Q1668.8 1462.25 1668.8 1460.56 Q1668.8 1457.8 1666.85 1456.07 Q1664.93 1454.33 1661.83 1454.33 Q1659.63 1454.33 1657.18 1455.09 Q1654.75 1455.86 1651.97 1457.41 L1651.97 1452.69 Q1654.79 1451.55 1657.25 1450.97 Q1659.7 1450.39 1661.74 1450.39 Q1667.11 1450.39 1670.3 1453.08 Q1673.5 1455.77 1673.5 1460.26 Q1673.5 1462.39 1672.69 1464.31 Q1671.9 1466.2 1669.79 1468.8 Q1669.21 1469.47 1666.11 1472.69 Q1663.01 1475.88 1657.36 1481.64 Z" fill="#000000" fill-rule="evenodd" fill-opacity="1" /><path clip-path="url(#clip990)" d="M1683.54 1451.02 L1701.9 1451.02 L1701.9 1454.96 L1687.83 1454.96 L1687.83 1463.43 Q1688.84 1463.08 1689.86 1462.92 Q1690.88 1462.73 1691.9 1462.73 Q1697.69 1462.73 1701.07 1465.9 Q1704.45 1469.08 1704.45 1474.49 Q1704.45 1480.07 1700.97 1483.17 Q1697.5 1486.25 1691.18 1486.25 Q1689.01 1486.25 1686.74 1485.88 Q1684.49 1485.51 1682.08 1484.77 L1682.08 1480.07 Q1684.17 1481.2 1686.39 1481.76 Q1688.61 1482.32 1691.09 1482.32 Q1695.09 1482.32 1697.43 1480.21 Q1699.77 1478.1 1699.77 1474.49 Q1699.77 1470.88 1697.43 1468.77 Q1695.09 1466.67 1691.09 1466.67 Q1689.21 1466.67 1687.34 1467.08 Q1685.49 1467.5 1683.54 1468.38 L1683.54 1451.02 Z" fill="#000000" fill-rule="evenodd" fill-opacity="1" /><path clip-path="url(#clip990)" d="M1723.66 1454.1 Q1720.05 1454.1 1718.22 1457.66 Q1716.41 1461.2 1716.41 1468.33 Q1716.41 1475.44 1718.22 1479.01 Q1720.05 1482.55 1723.66 1482.55 Q1727.29 1482.55 1729.1 1479.01 Q1730.93 1475.44 1730.93 1468.33 Q1730.93 1461.2 1729.1 1457.66 Q1727.29 1454.1 1723.66 1454.1 M1723.66 1450.39 Q1729.47 1450.39 1732.52 1455 Q1735.6 1459.58 1735.6 1468.33 Q1735.6 1477.06 1732.52 1481.67 Q1729.47 1486.25 1723.66 1486.25 Q1717.85 1486.25 1714.77 1481.67 Q1711.71 1477.06 1711.71 1468.33 Q1711.71 1459.58 1714.77 1455 Q1717.85 1450.39 1723.66 1450.39 Z" fill="#000000" fill-rule="evenodd" fill-opacity="1" /><path clip-path="url(#clip990)" d="M1753.82 1454.1 Q1750.21 1454.1 1748.38 1457.66 Q1746.58 1461.2 1746.58 1468.33 Q1746.58 1475.44 1748.38 1479.01 Q1750.21 1482.55 1753.82 1482.55 Q1757.45 1482.55 1759.26 1479.01 Q1761.09 1475.44 1761.09 1468.33 Q1761.09 1461.2 1759.26 1457.66 Q1757.45 1454.1 1753.82 1454.1 M1753.82 1450.39 Q1759.63 1450.39 1762.69 1455 Q1765.77 1459.58 1765.77 1468.33 Q1765.77 1477.06 1762.69 1481.67 Q1759.63 1486.25 1753.82 1486.25 Q1748.01 1486.25 1744.93 1481.67 Q1741.88 1477.06 1741.88 1468.33 Q1741.88 1459.58 1744.93 1455 Q1748.01 1450.39 1753.82 1450.39 Z" fill="#000000" fill-rule="evenodd" fill-opacity="1" /><path clip-path="url(#clip990)" d="M2081.22 1466.95 Q2084.58 1467.66 2086.45 1469.93 Q2088.35 1472.2 2088.35 1475.53 Q2088.35 1480.65 2084.83 1483.45 Q2081.31 1486.25 2074.83 1486.25 Q2072.66 1486.25 2070.34 1485.81 Q2068.05 1485.39 2065.6 1484.54 L2065.6 1480.02 Q2067.54 1481.16 2069.86 1481.74 Q2072.17 1482.32 2074.69 1482.32 Q2079.09 1482.32 2081.38 1480.58 Q2083.7 1478.84 2083.7 1475.53 Q2083.7 1472.48 2081.55 1470.77 Q2079.42 1469.03 2075.6 1469.03 L2071.57 1469.03 L2071.57 1465.19 L2075.78 1465.19 Q2079.23 1465.19 2081.06 1463.82 Q2082.89 1462.43 2082.89 1459.84 Q2082.89 1457.18 2080.99 1455.77 Q2079.11 1454.33 2075.6 1454.33 Q2073.67 1454.33 2071.48 1454.75 Q2069.28 1455.16 2066.64 1456.04 L2066.64 1451.88 Q2069.3 1451.14 2071.61 1450.77 Q2073.95 1450.39 2076.01 1450.39 Q2081.34 1450.39 2084.44 1452.83 Q2087.54 1455.23 2087.54 1459.35 Q2087.54 1462.22 2085.9 1464.21 Q2084.25 1466.18 2081.22 1466.95 Z" fill="#000000" fill-rule="evenodd" fill-opacity="1" /><path clip-path="url(#clip990)" d="M2107.22 1454.1 Q2103.61 1454.1 2101.78 1457.66 Q2099.97 1461.2 2099.97 1468.33 Q2099.97 1475.44 2101.78 1479.01 Q2103.61 1482.55 2107.22 1482.55 Q2110.85 1482.55 2112.66 1479.01 Q2114.48 1475.44 2114.48 1468.33 Q2114.48 1461.2 2112.66 1457.66 Q2110.85 1454.1 2107.22 1454.1 M2107.22 1450.39 Q2113.03 1450.39 2116.08 1455 Q2119.16 1459.58 2119.16 1468.33 Q2119.16 1477.06 2116.08 1481.67 Q2113.03 1486.25 2107.22 1486.25 Q2101.41 1486.25 2098.33 1481.67 Q2095.27 1477.06 2095.27 1468.33 Q2095.27 1459.58 2098.33 1455 Q2101.41 1450.39 2107.22 1450.39 Z" fill="#000000" fill-rule="evenodd" fill-opacity="1" /><path clip-path="url(#clip990)" d="M2137.38 1454.1 Q2133.77 1454.1 2131.94 1457.66 Q2130.13 1461.2 2130.13 1468.33 Q2130.13 1475.44 2131.94 1479.01 Q2133.77 1482.55 2137.38 1482.55 Q2141.01 1482.55 2142.82 1479.01 Q2144.65 1475.44 2144.65 1468.33 Q2144.65 1461.2 2142.82 1457.66 Q2141.01 1454.1 2137.38 1454.1 M2137.38 1450.39 Q2143.19 1450.39 2146.24 1455 Q2149.32 1459.58 2149.32 1468.33 Q2149.32 1477.06 2146.24 1481.67 Q2143.19 1486.25 2137.38 1486.25 Q2131.57 1486.25 2128.49 1481.67 Q2125.43 1477.06 2125.43 1468.33 Q2125.43 1459.58 2128.49 1455 Q2131.57 1450.39 2137.38 1450.39 Z" fill="#000000" fill-rule="evenodd" fill-opacity="1" /><path clip-path="url(#clip990)" d="M2167.54 1454.1 Q2163.93 1454.1 2162.1 1457.66 Q2160.29 1461.2 2160.29 1468.33 Q2160.29 1475.44 2162.1 1479.01 Q2163.93 1482.55 2167.54 1482.55 Q2171.17 1482.55 2172.98 1479.01 Q2174.81 1475.44 2174.81 1468.33 Q2174.81 1461.2 2172.98 1457.66 Q2171.17 1454.1 2167.54 1454.1 M2167.54 1450.39 Q2173.35 1450.39 2176.41 1455 Q2179.48 1459.58 2179.48 1468.33 Q2179.48 1477.06 2176.41 1481.67 Q2173.35 1486.25 2167.54 1486.25 Q2161.73 1486.25 2158.65 1481.67 Q2155.6 1477.06 2155.6 1468.33 Q2155.6 1459.58 2158.65 1455 Q2161.73 1450.39 2167.54 1450.39 Z" fill="#000000" fill-rule="evenodd" fill-opacity="1" /><path clip-path="url(#clip990)" d="M1251.09 1526.86 L1242.37 1550.51 L1259.84 1550.51 L1251.09 1526.86 M1247.46 1520.52 L1254.75 1520.52 L1272.86 1568.04 L1266.17 1568.04 L1261.85 1555.85 L1240.42 1555.85 L1236.1 1568.04 L1229.32 1568.04 L1247.46 1520.52 Z" fill="#000000" fill-rule="evenodd" fill-opacity="1" /><path clip-path="url(#clip990)" d="M1286.23 1525.81 L1286.23 1562.76 L1293.99 1562.76 Q1303.83 1562.76 1308.38 1558.3 Q1312.96 1553.85 1312.96 1544.24 Q1312.96 1534.69 1308.38 1530.26 Q1303.83 1525.81 1293.99 1525.81 L1286.23 1525.81 M1279.8 1520.52 L1293.01 1520.52 Q1306.82 1520.52 1313.28 1526.28 Q1319.74 1532.01 1319.74 1544.24 Q1319.74 1556.52 1313.25 1562.28 Q1306.76 1568.04 1293.01 1568.04 L1279.8 1568.04 L1279.8 1520.52 Z" fill="#000000" fill-rule="evenodd" fill-opacity="1" /><path clip-path="url(#clip990)" d="M1365.57 1524.18 L1365.57 1530.96 Q1362.33 1527.94 1358.64 1526.44 Q1354.98 1524.95 1350.84 1524.95 Q1342.69 1524.95 1338.36 1529.95 Q1334.03 1534.91 1334.03 1544.33 Q1334.03 1553.72 1338.36 1558.72 Q1342.69 1563.68 1350.84 1563.68 Q1354.98 1563.68 1358.64 1562.19 Q1362.33 1560.69 1365.57 1557.67 L1365.57 1564.38 Q1362.2 1566.68 1358.41 1567.82 Q1354.66 1568.97 1350.46 1568.97 Q1339.67 1568.97 1333.46 1562.38 Q1327.25 1555.76 1327.25 1544.33 Q1327.25 1532.87 1333.46 1526.28 Q1339.67 1519.66 1350.46 1519.66 Q1354.72 1519.66 1358.48 1520.81 Q1362.26 1521.92 1365.57 1524.18 Z" fill="#000000" fill-rule="evenodd" fill-opacity="1" /><polyline clip-path="url(#clip992)" style="stroke:#000000; stroke-linecap:round; stroke-linejoin:round; stroke-width:2; stroke-opacity:0.1; fill:none" points="242.135,1386.4 2352.76,1386.4 "/>
<polyline clip-path="url(#clip992)" style="stroke:#000000; stroke-linecap:round; stroke-linejoin:round; stroke-width:2; stroke-opacity:0.1; fill:none" points="242.135,1182.04 2352.76,1182.04 "/>
<polyline clip-path="url(#clip992)" style="stroke:#000000; stroke-linecap:round; stroke-linejoin:round; stroke-width:2; stroke-opacity:0.1; fill:none" points="242.135,977.683 2352.76,977.683 "/>
<polyline clip-path="url(#clip992)" style="stroke:#000000; stroke-linecap:round; stroke-linejoin:round; stroke-width:2; stroke-opacity:0.1; fill:none" points="242.135,773.326 2352.76,773.326 "/>
<polyline clip-path="url(#clip992)" style="stroke:#000000; stroke-linecap:round; stroke-linejoin:round; stroke-width:2; stroke-opacity:0.1; fill:none" points="242.135,568.969 2352.76,568.969 "/>
<polyline clip-path="url(#clip992)" style="stroke:#000000; stroke-linecap:round; stroke-linejoin:round; stroke-width:2; stroke-opacity:0.1; fill:none" points="242.135,364.613 2352.76,364.613 "/>
<polyline clip-path="url(#clip992)" style="stroke:#000000; stroke-linecap:round; stroke-linejoin:round; stroke-width:2; stroke-opacity:0.1; fill:none" points="242.135,160.256 2352.76,160.256 "/>
<polyline clip-path="url(#clip990)" style="stroke:#000000; stroke-linecap:round; stroke-linejoin:round; stroke-width:4; stroke-opacity:1; fill:none" points="242.135,1423.18 242.135,123.472 "/>
<polyline clip-path="url(#clip990)" style="stroke:#000000; stroke-linecap:round; stroke-linejoin:round; stroke-width:4; stroke-opacity:1; fill:none" points="242.135,1386.4 261.032,1386.4 "/>
<polyline clip-path="url(#clip990)" style="stroke:#000000; stroke-linecap:round; stroke-linejoin:round; stroke-width:4; stroke-opacity:1; fill:none" points="242.135,1182.04 261.032,1182.04 "/>
<polyline clip-path="url(#clip990)" style="stroke:#000000; stroke-linecap:round; stroke-linejoin:round; stroke-width:4; stroke-opacity:1; fill:none" points="242.135,977.683 261.032,977.683 "/>
<polyline clip-path="url(#clip990)" style="stroke:#000000; stroke-linecap:round; stroke-linejoin:round; stroke-width:4; stroke-opacity:1; fill:none" points="242.135,773.326 261.032,773.326 "/>
<polyline clip-path="url(#clip990)" style="stroke:#000000; stroke-linecap:round; stroke-linejoin:round; stroke-width:4; stroke-opacity:1; fill:none" points="242.135,568.969 261.032,568.969 "/>
<polyline clip-path="url(#clip990)" style="stroke:#000000; stroke-linecap:round; stroke-linejoin:round; stroke-width:4; stroke-opacity:1; fill:none" points="242.135,364.613 261.032,364.613 "/>
<polyline clip-path="url(#clip990)" style="stroke:#000000; stroke-linecap:round; stroke-linejoin:round; stroke-width:4; stroke-opacity:1; fill:none" points="242.135,160.256 261.032,160.256 "/>
<path clip-path="url(#clip990)" d="M114.26 1386.85 L143.936 1386.85 L143.936 1390.78 L114.26 1390.78 L114.26 1386.85 Z" fill="#000000" fill-rule="evenodd" fill-opacity="1" /><path clip-path="url(#clip990)" d="M164.607 1384.53 Q161.459 1384.53 159.607 1386.69 Q157.778 1388.84 157.778 1392.59 Q157.778 1396.31 159.607 1398.49 Q161.459 1400.64 164.607 1400.64 Q167.755 1400.64 169.584 1398.49 Q171.436 1396.31 171.436 1392.59 Q171.436 1388.84 169.584 1386.69 Q167.755 1384.53 164.607 1384.53 M173.889 1369.88 L173.889 1374.14 Q172.13 1373.31 170.325 1372.87 Q168.542 1372.43 166.783 1372.43 Q162.153 1372.43 159.7 1375.55 Q157.269 1378.68 156.922 1385 Q158.288 1382.98 160.348 1381.92 Q162.408 1380.83 164.885 1380.83 Q170.093 1380.83 173.102 1384 Q176.135 1387.15 176.135 1392.59 Q176.135 1397.91 172.987 1401.13 Q169.839 1404.35 164.607 1404.35 Q158.612 1404.35 155.44 1399.76 Q152.269 1395.16 152.269 1386.43 Q152.269 1378.24 156.158 1373.37 Q160.047 1368.49 166.598 1368.49 Q168.357 1368.49 170.139 1368.84 Q171.945 1369.19 173.889 1369.88 Z" fill="#000000" fill-rule="evenodd" fill-opacity="1" /><path clip-path="url(#clip990)" d="M194.19 1372.19 Q190.579 1372.19 188.75 1375.76 Q186.945 1379.3 186.945 1386.43 Q186.945 1393.54 188.75 1397.1 Q190.579 1400.64 194.19 1400.64 Q197.825 1400.64 199.63 1397.1 Q201.459 1393.54 201.459 1386.43 Q201.459 1379.3 199.63 1375.76 Q197.825 1372.19 194.19 1372.19 M194.19 1368.49 Q200 1368.49 203.056 1373.1 Q206.135 1377.68 206.135 1386.43 Q206.135 1395.16 203.056 1399.76 Q200 1404.35 194.19 1404.35 Q188.38 1404.35 185.301 1399.76 Q182.246 1395.16 182.246 1386.43 Q182.246 1377.68 185.301 1373.1 Q188.38 1368.49 194.19 1368.49 Z" fill="#000000" fill-rule="evenodd" fill-opacity="1" /><path clip-path="url(#clip990)" d="M114.26 1182.49 L143.936 1182.49 L143.936 1186.43 L114.26 1186.43 L114.26 1182.49 Z" fill="#000000" fill-rule="evenodd" fill-opacity="1" /><path clip-path="url(#clip990)" d="M154.075 1164.76 L172.431 1164.76 L172.431 1168.69 L158.357 1168.69 L158.357 1177.17 Q159.376 1176.82 160.394 1176.66 Q161.413 1176.47 162.431 1176.47 Q168.218 1176.47 171.598 1179.64 Q174.977 1182.81 174.977 1188.23 Q174.977 1193.81 171.505 1196.91 Q168.033 1199.99 161.714 1199.99 Q159.538 1199.99 157.269 1199.62 Q155.024 1199.25 152.616 1198.51 L152.616 1193.81 Q154.7 1194.94 156.922 1195.5 Q159.144 1196.06 161.621 1196.06 Q165.626 1196.06 167.964 1193.95 Q170.302 1191.84 170.302 1188.23 Q170.302 1184.62 167.964 1182.51 Q165.626 1180.41 161.621 1180.41 Q159.746 1180.41 157.871 1180.82 Q156.019 1181.24 154.075 1182.12 L154.075 1164.76 Z" fill="#000000" fill-rule="evenodd" fill-opacity="1" /><path clip-path="url(#clip990)" d="M194.19 1167.84 Q190.579 1167.84 188.75 1171.4 Q186.945 1174.94 186.945 1182.07 Q186.945 1189.18 188.75 1192.75 Q190.579 1196.29 194.19 1196.29 Q197.825 1196.29 199.63 1192.75 Q201.459 1189.18 201.459 1182.07 Q201.459 1174.94 199.63 1171.4 Q197.825 1167.84 194.19 1167.84 M194.19 1164.13 Q200 1164.13 203.056 1168.74 Q206.135 1173.32 206.135 1182.07 Q206.135 1190.8 203.056 1195.41 Q200 1199.99 194.19 1199.99 Q188.38 1199.99 185.301 1195.41 Q182.246 1190.8 182.246 1182.07 Q182.246 1173.32 185.301 1168.74 Q188.38 1164.13 194.19 1164.13 Z" fill="#000000" fill-rule="evenodd" fill-opacity="1" /><path clip-path="url(#clip990)" d="M114.26 978.134 L143.936 978.134 L143.936 982.069 L114.26 982.069 L114.26 978.134 Z" fill="#000000" fill-rule="evenodd" fill-opacity="1" /><path clip-path="url(#clip990)" d="M166.876 964.477 L155.07 982.926 L166.876 982.926 L166.876 964.477 M165.649 960.403 L171.528 960.403 L171.528 982.926 L176.459 982.926 L176.459 986.814 L171.528 986.814 L171.528 994.963 L166.876 994.963 L166.876 986.814 L151.274 986.814 L151.274 982.301 L165.649 960.403 Z" fill="#000000" fill-rule="evenodd" fill-opacity="1" /><path clip-path="url(#clip990)" d="M194.19 963.481 Q190.579 963.481 188.75 967.046 Q186.945 970.588 186.945 977.717 Q186.945 984.824 188.75 988.389 Q190.579 991.93 194.19 991.93 Q197.825 991.93 199.63 988.389 Q201.459 984.824 201.459 977.717 Q201.459 970.588 199.63 967.046 Q197.825 963.481 194.19 963.481 M194.19 959.778 Q200 959.778 203.056 964.384 Q206.135 968.967 206.135 977.717 Q206.135 986.444 203.056 991.051 Q200 995.634 194.19 995.634 Q188.38 995.634 185.301 991.051 Q182.246 986.444 182.246 977.717 Q182.246 968.967 185.301 964.384 Q188.38 959.778 194.19 959.778 Z" fill="#000000" fill-rule="evenodd" fill-opacity="1" /><path clip-path="url(#clip990)" d="M114.26 773.777 L143.936 773.777 L143.936 777.713 L114.26 777.713 L114.26 773.777 Z" fill="#000000" fill-rule="evenodd" fill-opacity="1" /><path clip-path="url(#clip990)" d="M168.195 771.972 Q171.552 772.689 173.427 774.958 Q175.325 777.226 175.325 780.56 Q175.325 785.675 171.806 788.476 Q168.288 791.277 161.806 791.277 Q159.63 791.277 157.315 790.837 Q155.024 790.421 152.57 789.564 L152.57 785.05 Q154.515 786.185 156.829 786.763 Q159.144 787.342 161.667 787.342 Q166.065 787.342 168.357 785.606 Q170.672 783.87 170.672 780.56 Q170.672 777.504 168.519 775.791 Q166.39 774.055 162.57 774.055 L158.542 774.055 L158.542 770.213 L162.755 770.213 Q166.204 770.213 168.033 768.847 Q169.862 767.458 169.862 764.865 Q169.862 762.203 167.964 760.791 Q166.089 759.356 162.57 759.356 Q160.649 759.356 158.45 759.773 Q156.251 760.189 153.612 761.069 L153.612 756.902 Q156.274 756.162 158.589 755.791 Q160.927 755.421 162.987 755.421 Q168.311 755.421 171.413 757.852 Q174.514 760.259 174.514 764.379 Q174.514 767.25 172.871 769.24 Q171.227 771.208 168.195 771.972 Z" fill="#000000" fill-rule="evenodd" fill-opacity="1" /><path clip-path="url(#clip990)" d="M194.19 759.125 Q190.579 759.125 188.75 762.689 Q186.945 766.231 186.945 773.361 Q186.945 780.467 188.75 784.032 Q190.579 787.574 194.19 787.574 Q197.825 787.574 199.63 784.032 Q201.459 780.467 201.459 773.361 Q201.459 766.231 199.63 762.689 Q197.825 759.125 194.19 759.125 M194.19 755.421 Q200 755.421 203.056 760.027 Q206.135 764.611 206.135 773.361 Q206.135 782.088 203.056 786.694 Q200 791.277 194.19 791.277 Q188.38 791.277 185.301 786.694 Q182.246 782.088 182.246 773.361 Q182.246 764.611 185.301 760.027 Q188.38 755.421 194.19 755.421 Z" fill="#000000" fill-rule="evenodd" fill-opacity="1" /><path clip-path="url(#clip990)" d="M114.26 569.421 L143.936 569.421 L143.936 573.356 L114.26 573.356 L114.26 569.421 Z" fill="#000000" fill-rule="evenodd" fill-opacity="1" /><path clip-path="url(#clip990)" d="M158.056 582.314 L174.376 582.314 L174.376 586.249 L152.431 586.249 L152.431 582.314 Q155.093 579.56 159.677 574.93 Q164.283 570.277 165.464 568.935 Q167.709 566.412 168.589 564.675 Q169.491 562.916 169.491 561.226 Q169.491 558.472 167.547 556.736 Q165.626 555 162.524 555 Q160.325 555 157.871 555.763 Q155.44 556.527 152.663 558.078 L152.663 553.356 Q155.487 552.222 157.94 551.643 Q160.394 551.064 162.431 551.064 Q167.802 551.064 170.996 553.75 Q174.19 556.435 174.19 560.925 Q174.19 563.055 173.38 564.976 Q172.593 566.875 170.487 569.467 Q169.908 570.138 166.806 573.356 Q163.704 576.55 158.056 582.314 Z" fill="#000000" fill-rule="evenodd" fill-opacity="1" /><path clip-path="url(#clip990)" d="M194.19 554.768 Q190.579 554.768 188.75 558.333 Q186.945 561.875 186.945 569.004 Q186.945 576.111 188.75 579.675 Q190.579 583.217 194.19 583.217 Q197.825 583.217 199.63 579.675 Q201.459 576.111 201.459 569.004 Q201.459 561.875 199.63 558.333 Q197.825 554.768 194.19 554.768 M194.19 551.064 Q200 551.064 203.056 555.671 Q206.135 560.254 206.135 569.004 Q206.135 577.731 203.056 582.337 Q200 586.921 194.19 586.921 Q188.38 586.921 185.301 582.337 Q182.246 577.731 182.246 569.004 Q182.246 560.254 185.301 555.671 Q188.38 551.064 194.19 551.064 Z" fill="#000000" fill-rule="evenodd" fill-opacity="1" /><path clip-path="url(#clip990)" d="M114.26 365.064 L143.936 365.064 L143.936 368.999 L114.26 368.999 L114.26 365.064 Z" fill="#000000" fill-rule="evenodd" fill-opacity="1" /><path clip-path="url(#clip990)" d="M154.839 377.958 L162.477 377.958 L162.477 351.592 L154.167 353.259 L154.167 349 L162.431 347.333 L167.107 347.333 L167.107 377.958 L174.746 377.958 L174.746 381.893 L154.839 381.893 L154.839 377.958 Z" fill="#000000" fill-rule="evenodd" fill-opacity="1" /><path clip-path="url(#clip990)" d="M194.19 350.412 Q190.579 350.412 188.75 353.976 Q186.945 357.518 186.945 364.648 Q186.945 371.754 188.75 375.319 Q190.579 378.86 194.19 378.86 Q197.825 378.86 199.63 375.319 Q201.459 371.754 201.459 364.648 Q201.459 357.518 199.63 353.976 Q197.825 350.412 194.19 350.412 M194.19 346.708 Q200 346.708 203.056 351.314 Q206.135 355.898 206.135 364.648 Q206.135 373.374 203.056 377.981 Q200 382.564 194.19 382.564 Q188.38 382.564 185.301 377.981 Q182.246 373.374 182.246 364.648 Q182.246 355.898 185.301 351.314 Q188.38 346.708 194.19 346.708 Z" fill="#000000" fill-rule="evenodd" fill-opacity="1" /><path clip-path="url(#clip990)" d="M194.19 146.055 Q190.579 146.055 188.75 149.62 Q186.945 153.161 186.945 160.291 Q186.945 167.397 188.75 170.962 Q190.579 174.504 194.19 174.504 Q197.825 174.504 199.63 170.962 Q201.459 167.397 201.459 160.291 Q201.459 153.161 199.63 149.62 Q197.825 146.055 194.19 146.055 M194.19 142.351 Q200 142.351 203.056 146.958 Q206.135 151.541 206.135 160.291 Q206.135 169.018 203.056 173.624 Q200 178.208 194.19 178.208 Q188.38 178.208 185.301 173.624 Q182.246 169.018 182.246 160.291 Q182.246 151.541 185.301 146.958 Q188.38 142.351 194.19 142.351 Z" fill="#000000" fill-rule="evenodd" fill-opacity="1" /><path clip-path="url(#clip990)" d="M33.7671 817.552 L14.479 817.552 L14.479 811.695 L64.0042 811.695 L64.0042 817.552 L58.657 817.552 Q61.8398 819.398 63.3994 822.231 Q64.9272 825.031 64.9272 828.978 Q64.9272 835.439 59.771 839.513 Q54.6147 843.556 46.212 843.556 Q37.8093 843.556 32.6531 839.513 Q27.4968 835.439 27.4968 828.978 Q27.4968 825.031 29.0564 822.231 Q30.5842 819.398 33.7671 817.552 M46.212 837.508 Q52.6732 837.508 56.3653 834.866 Q60.0256 832.193 60.0256 827.546 Q60.0256 822.899 56.3653 820.225 Q52.6732 817.552 46.212 817.552 Q39.7508 817.552 36.0905 820.225 Q32.3984 822.899 32.3984 827.546 Q32.3984 832.193 36.0905 834.866 Q39.7508 837.508 46.212 837.508 Z" fill="#000000" fill-rule="evenodd" fill-opacity="1" /><path clip-path="url(#clip990)" d="M41.3104 792.948 L58.7206 792.948 L58.7206 782.636 Q58.7206 777.448 56.5881 774.965 Q54.4238 772.451 49.9996 772.451 Q45.5436 772.451 43.4429 774.965 Q41.3104 777.448 41.3104 782.636 L41.3104 792.948 M21.7677 792.948 L36.0905 792.948 L36.0905 783.432 Q36.0905 778.721 34.34 776.429 Q32.5576 774.106 28.9291 774.106 Q25.3325 774.106 23.5501 776.429 Q21.7677 778.721 21.7677 783.432 L21.7677 792.948 M16.4842 799.378 L16.4842 782.954 Q16.4842 775.602 19.5397 771.623 Q22.5952 767.645 28.2289 767.645 Q32.5894 767.645 35.1675 769.682 Q37.7456 771.719 38.3822 775.665 Q39.4007 770.923 42.6472 768.313 Q45.8619 765.671 50.6998 765.671 Q57.0655 765.671 60.5348 770 Q64.0042 774.329 64.0042 782.318 L64.0042 799.378 L16.4842 799.378 Z" fill="#000000" fill-rule="evenodd" fill-opacity="1" /><path clip-path="url(#clip990)" d="M35.1993 727.159 Q31.2526 724.963 29.3747 721.907 Q27.4968 718.851 27.4968 714.714 Q27.4968 709.144 31.4117 706.12 Q35.2948 703.096 42.4881 703.096 L64.0042 703.096 L64.0042 708.985 L42.679 708.985 Q37.5546 708.985 35.072 710.799 Q32.5894 712.613 32.5894 716.337 Q32.5894 720.888 35.6131 723.53 Q38.6368 726.172 43.8567 726.172 L64.0042 726.172 L64.0042 732.06 L42.679 732.06 Q37.5228 732.06 35.072 733.875 Q32.5894 735.689 32.5894 739.476 Q32.5894 743.964 35.6449 746.606 Q38.6686 749.248 43.8567 749.248 L64.0042 749.248 L64.0042 755.136 L28.3562 755.136 L28.3562 749.248 L33.8944 749.248 Q30.616 747.243 29.0564 744.442 Q27.4968 741.641 27.4968 737.789 Q27.4968 733.906 29.4702 731.201 Q31.4436 728.464 35.1993 727.159 Z" fill="#000000" fill-rule="evenodd" fill-opacity="1" /><path clip-path="url(#clip990)" d="M1115.11 65.6895 L1128.48 65.6895 L1128.48 19.5497 L1113.94 22.4663 L1113.94 15.0127 L1128.4 12.096 L1136.58 12.096 L1136.58 65.6895 L1149.95 65.6895 L1149.95 72.576 L1115.11 72.576 L1115.11 65.6895 Z" fill="#000000" fill-rule="evenodd" fill-opacity="1" /><path clip-path="url(#clip990)" d="M1194.35 28.5427 L1194.35 35.5912 Q1191.19 33.9709 1187.79 33.1607 Q1184.38 32.3505 1180.74 32.3505 Q1175.19 32.3505 1172.39 34.0519 Q1169.64 35.7533 1169.64 39.156 Q1169.64 41.7486 1171.62 43.2475 Q1173.61 44.7058 1179.6 46.0426 L1182.16 46.6097 Q1190.1 48.3111 1193.42 51.4303 Q1196.78 54.509 1196.78 60.0587 Q1196.78 66.3781 1191.76 70.0644 Q1186.77 73.7508 1178.02 73.7508 Q1174.38 73.7508 1170.41 73.0216 Q1166.48 72.3329 1162.1 70.9151 L1162.1 63.2184 Q1166.24 65.3654 1170.25 66.4591 Q1174.26 67.5124 1178.19 67.5124 Q1183.45 67.5124 1186.29 65.73 Q1189.12 63.9071 1189.12 60.6258 Q1189.12 57.5877 1187.06 55.9673 Q1185.03 54.3469 1178.11 52.8481 L1175.51 52.2405 Q1168.59 50.7821 1165.51 47.7845 Q1162.43 44.7463 1162.43 39.4801 Q1162.43 33.0797 1166.97 29.5959 Q1171.5 26.1121 1179.85 26.1121 Q1183.98 26.1121 1187.63 26.7198 Q1191.27 27.3274 1194.35 28.5427 Z" fill="#000000" fill-rule="evenodd" fill-opacity="1" /><path clip-path="url(#clip990)" d="M1216.02 14.324 L1216.02 27.2059 L1231.38 27.2059 L1231.38 32.9987 L1216.02 32.9987 L1216.02 57.6282 Q1216.02 63.1779 1217.52 64.7578 Q1219.06 66.3376 1223.72 66.3376 L1231.38 66.3376 L1231.38 72.576 L1223.72 72.576 Q1215.09 72.576 1211.81 69.3758 Q1208.53 66.1351 1208.53 57.6282 L1208.53 32.9987 L1203.06 32.9987 L1203.06 27.2059 L1208.53 27.2059 L1208.53 14.324 L1216.02 14.324 Z" fill="#000000" fill-rule="evenodd" fill-opacity="1" /><path clip-path="url(#clip990)" d="M1285.13 32.4315 Q1279.14 32.4315 1275.65 37.1306 Q1272.17 41.7891 1272.17 49.9314 Q1272.17 58.0738 1275.61 62.7728 Q1279.09 67.4314 1285.13 67.4314 Q1291.09 67.4314 1294.57 62.7323 Q1298.05 58.0333 1298.05 49.9314 Q1298.05 41.8701 1294.57 37.1711 Q1291.09 32.4315 1285.13 32.4315 M1285.13 26.1121 Q1294.85 26.1121 1300.4 32.4315 Q1305.95 38.7509 1305.95 49.9314 Q1305.95 61.0714 1300.4 67.4314 Q1294.85 73.7508 1285.13 73.7508 Q1275.37 73.7508 1269.82 67.4314 Q1264.31 61.0714 1264.31 49.9314 Q1264.31 38.7509 1269.82 32.4315 Q1275.37 26.1121 1285.13 26.1121 Z" fill="#000000" fill-rule="evenodd" fill-opacity="1" /><path clip-path="url(#clip990)" d="M1344.6 34.1734 Q1343.34 33.4443 1341.84 33.1202 Q1340.38 32.7556 1338.6 32.7556 Q1332.28 32.7556 1328.88 36.8875 Q1325.52 40.9789 1325.52 48.6757 L1325.52 72.576 L1318.02 72.576 L1318.02 27.2059 L1325.52 27.2059 L1325.52 34.2544 Q1327.87 30.1225 1331.63 28.1376 Q1335.4 26.1121 1340.79 26.1121 Q1341.56 26.1121 1342.49 26.2337 Q1343.42 26.3147 1344.56 26.5172 L1344.6 34.1734 Z" fill="#000000" fill-rule="evenodd" fill-opacity="1" /><path clip-path="url(#clip990)" d="M1380.81 34.0924 L1380.81 9.54393 L1388.27 9.54393 L1388.27 72.576 L1380.81 72.576 L1380.81 65.7705 Q1378.46 69.8214 1374.86 71.8063 Q1371.29 73.7508 1366.27 73.7508 Q1358.05 73.7508 1352.86 67.1883 Q1347.72 60.6258 1347.72 49.9314 Q1347.72 39.2371 1352.86 32.6746 Q1358.05 26.1121 1366.27 26.1121 Q1371.29 26.1121 1374.86 28.0971 Q1378.46 30.0415 1380.81 34.0924 M1355.41 49.9314 Q1355.41 58.1548 1358.78 62.8538 Q1362.18 67.5124 1368.09 67.5124 Q1374.01 67.5124 1377.41 62.8538 Q1380.81 58.1548 1380.81 49.9314 Q1380.81 41.7081 1377.41 37.0496 Q1374.01 32.3505 1368.09 32.3505 Q1362.18 32.3505 1358.78 37.0496 Q1355.41 41.7081 1355.41 49.9314 Z" fill="#000000" fill-rule="evenodd" fill-opacity="1" /><path clip-path="url(#clip990)" d="M1442.43 48.0275 L1442.43 51.6733 L1408.16 51.6733 Q1408.64 59.3701 1412.77 63.421 Q1416.95 67.4314 1424.36 67.4314 Q1428.65 67.4314 1432.66 66.3781 Q1436.72 65.3249 1440.69 63.2184 L1440.69 70.267 Q1436.67 71.9684 1432.46 72.8596 Q1428.25 73.7508 1423.91 73.7508 Q1413.06 73.7508 1406.7 67.4314 Q1400.38 61.1119 1400.38 50.3365 Q1400.38 39.1965 1406.37 32.6746 Q1412.41 26.1121 1422.62 26.1121 Q1431.77 26.1121 1437.08 32.0264 Q1442.43 37.9003 1442.43 48.0275 M1434.97 45.84 Q1434.89 39.7232 1431.53 36.0774 Q1428.21 32.4315 1422.7 32.4315 Q1416.46 32.4315 1412.69 35.9558 Q1408.97 39.4801 1408.4 45.8805 L1434.97 45.84 Z" fill="#000000" fill-rule="evenodd" fill-opacity="1" /><path clip-path="url(#clip990)" d="M1480.95 34.1734 Q1479.7 33.4443 1478.2 33.1202 Q1476.74 32.7556 1474.96 32.7556 Q1468.64 32.7556 1465.23 36.8875 Q1461.87 40.9789 1461.87 48.6757 L1461.87 72.576 L1454.38 72.576 L1454.38 27.2059 L1461.87 27.2059 L1461.87 34.2544 Q1464.22 30.1225 1467.99 28.1376 Q1471.76 26.1121 1477.14 26.1121 Q1477.91 26.1121 1478.84 26.2337 Q1479.78 26.3147 1480.91 26.5172 L1480.95 34.1734 Z" fill="#000000" fill-rule="evenodd" fill-opacity="1" /><circle clip-path="url(#clip992)" cx="301.869" cy="160.256" r="14.4" fill="#009af9" fill-rule="evenodd" fill-opacity="1" stroke="#000000" stroke-opacity="1" stroke-width="3.2"/>
<circle clip-path="url(#clip992)" cx="315.938" cy="180.692" r="14.4" fill="#009af9" fill-rule="evenodd" fill-opacity="1" stroke="#000000" stroke-opacity="1" stroke-width="3.2"/>
<circle clip-path="url(#clip992)" cx="339.938" cy="201.128" r="14.4" fill="#009af9" fill-rule="evenodd" fill-opacity="1" stroke="#000000" stroke-opacity="1" stroke-width="3.2"/>
<circle clip-path="url(#clip992)" cx="358.972" cy="221.563" r="14.4" fill="#009af9" fill-rule="evenodd" fill-opacity="1" stroke="#000000" stroke-opacity="1" stroke-width="3.2"/>
<circle clip-path="url(#clip992)" cx="385.455" cy="241.999" r="14.4" fill="#009af9" fill-rule="evenodd" fill-opacity="1" stroke="#000000" stroke-opacity="1" stroke-width="3.2"/>
<circle clip-path="url(#clip992)" cx="416.075" cy="262.435" r="14.4" fill="#009af9" fill-rule="evenodd" fill-opacity="1" stroke="#000000" stroke-opacity="1" stroke-width="3.2"/>
<circle clip-path="url(#clip992)" cx="451.661" cy="282.87" r="14.4" fill="#009af9" fill-rule="evenodd" fill-opacity="1" stroke="#000000" stroke-opacity="1" stroke-width="3.2"/>
<circle clip-path="url(#clip992)" cx="482.281" cy="303.306" r="14.4" fill="#009af9" fill-rule="evenodd" fill-opacity="1" stroke="#000000" stroke-opacity="1" stroke-width="3.2"/>
<circle clip-path="url(#clip992)" cx="517.039" cy="323.742" r="14.4" fill="#009af9" fill-rule="evenodd" fill-opacity="1" stroke="#000000" stroke-opacity="1" stroke-width="3.2"/>
<circle clip-path="url(#clip992)" cx="548.487" cy="344.177" r="14.4" fill="#009af9" fill-rule="evenodd" fill-opacity="1" stroke="#000000" stroke-opacity="1" stroke-width="3.2"/>
<circle clip-path="url(#clip992)" cx="581.591" cy="364.613" r="14.4" fill="#009af9" fill-rule="evenodd" fill-opacity="1" stroke="#000000" stroke-opacity="1" stroke-width="3.2"/>
<circle clip-path="url(#clip992)" cx="733.865" cy="446.355" r="14.4" fill="#009af9" fill-rule="evenodd" fill-opacity="1" stroke="#000000" stroke-opacity="1" stroke-width="3.2"/>
<circle clip-path="url(#clip992)" cx="799.243" cy="487.227" r="14.4" fill="#009af9" fill-rule="evenodd" fill-opacity="1" stroke="#000000" stroke-opacity="1" stroke-width="3.2"/>
<circle clip-path="url(#clip992)" cx="871.243" cy="528.098" r="14.4" fill="#009af9" fill-rule="evenodd" fill-opacity="1" stroke="#000000" stroke-opacity="1" stroke-width="3.2"/>
<circle clip-path="url(#clip992)" cx="949.863" cy="568.969" r="14.4" fill="#009af9" fill-rule="evenodd" fill-opacity="1" stroke="#000000" stroke-opacity="1" stroke-width="3.2"/>
<circle clip-path="url(#clip992)" cx="1014.41" cy="609.841" r="14.4" fill="#009af9" fill-rule="evenodd" fill-opacity="1" stroke="#000000" stroke-opacity="1" stroke-width="3.2"/>
<circle clip-path="url(#clip992)" cx="1110.41" cy="671.148" r="14.4" fill="#009af9" fill-rule="evenodd" fill-opacity="1" stroke="#000000" stroke-opacity="1" stroke-width="3.2"/>
<circle clip-path="url(#clip992)" cx="1292.48" cy="773.326" r="14.4" fill="#009af9" fill-rule="evenodd" fill-opacity="1" stroke="#000000" stroke-opacity="1" stroke-width="3.2"/>
<circle clip-path="url(#clip992)" cx="1474.55" cy="875.504" r="14.4" fill="#009af9" fill-rule="evenodd" fill-opacity="1" stroke="#000000" stroke-opacity="1" stroke-width="3.2"/>
<circle clip-path="url(#clip992)" cx="1616.89" cy="936.811" r="14.4" fill="#009af9" fill-rule="evenodd" fill-opacity="1" stroke="#000000" stroke-opacity="1" stroke-width="3.2"/>
<circle clip-path="url(#clip992)" cx="1753.44" cy="977.683" r="14.4" fill="#009af9" fill-rule="evenodd" fill-opacity="1" stroke="#000000" stroke-opacity="1" stroke-width="3.2"/>
<circle clip-path="url(#clip992)" cx="1835.37" cy="1018.55" r="14.4" fill="#009af9" fill-rule="evenodd" fill-opacity="1" stroke="#000000" stroke-opacity="1" stroke-width="3.2"/>
<circle clip-path="url(#clip992)" cx="1887.51" cy="1059.43" r="14.4" fill="#009af9" fill-rule="evenodd" fill-opacity="1" stroke="#000000" stroke-opacity="1" stroke-width="3.2"/>
<circle clip-path="url(#clip992)" cx="1942.96" cy="1100.3" r="14.4" fill="#009af9" fill-rule="evenodd" fill-opacity="1" stroke="#000000" stroke-opacity="1" stroke-width="3.2"/>
<circle clip-path="url(#clip992)" cx="1994.27" cy="1141.17" r="14.4" fill="#009af9" fill-rule="evenodd" fill-opacity="1" stroke="#000000" stroke-opacity="1" stroke-width="3.2"/>
<circle clip-path="url(#clip992)" cx="2046.4" cy="1182.04" r="14.4" fill="#009af9" fill-rule="evenodd" fill-opacity="1" stroke="#000000" stroke-opacity="1" stroke-width="3.2"/>
<circle clip-path="url(#clip992)" cx="2097.71" cy="1222.91" r="14.4" fill="#009af9" fill-rule="evenodd" fill-opacity="1" stroke="#000000" stroke-opacity="1" stroke-width="3.2"/>
<circle clip-path="url(#clip992)" cx="2134.13" cy="1263.78" r="14.4" fill="#009af9" fill-rule="evenodd" fill-opacity="1" stroke="#000000" stroke-opacity="1" stroke-width="3.2"/>
<circle clip-path="url(#clip992)" cx="2181.3" cy="1304.65" r="14.4" fill="#009af9" fill-rule="evenodd" fill-opacity="1" stroke="#000000" stroke-opacity="1" stroke-width="3.2"/>
<circle clip-path="url(#clip992)" cx="2232.61" cy="1345.52" r="14.4" fill="#009af9" fill-rule="evenodd" fill-opacity="1" stroke="#000000" stroke-opacity="1" stroke-width="3.2"/>
<circle clip-path="url(#clip992)" cx="2293.02" cy="1386.4" r="14.4" fill="#009af9" fill-rule="evenodd" fill-opacity="1" stroke="#000000" stroke-opacity="1" stroke-width="3.2"/>
<polyline clip-path="url(#clip992)" style="stroke:#e26f46; stroke-linecap:round; stroke-linejoin:round; stroke-width:4; stroke-opacity:1; fill:none" points="301.869,190.355 303.862,191.502 305.856,192.649 307.849,193.796 309.842,194.943 311.835,196.09 313.828,197.237 315.821,198.384 317.814,199.531 319.808,200.678 321.801,201.826 323.794,202.973 325.787,204.12 327.78,205.267 329.773,206.414 331.766,207.561 333.76,208.708 335.753,209.855 337.746,211.002 339.739,212.149 341.732,213.296 343.725,214.443 345.718,215.59 347.712,216.737 349.705,217.884 351.698,219.031 353.691,220.178 355.684,221.325 357.677,222.472 359.67,223.619 361.664,224.767 363.657,225.914 365.65,227.061 367.643,228.208 369.636,229.355 371.629,230.502 373.622,231.649 375.616,232.796 377.609,233.943 379.602,235.09 381.595,236.237 383.588,237.384 385.581,238.531 387.574,239.678 389.568,240.825 391.561,241.972 393.554,243.119 395.547,244.266 397.54,245.413 399.533,246.561 401.526,247.708 403.52,248.855 405.513,250.002 407.506,251.149 409.499,252.296 411.492,253.443 413.485,254.59 415.479,255.737 417.472,256.884 419.465,258.031 421.458,259.178 423.451,260.325 425.444,261.472 427.437,262.619 429.431,263.766 431.424,264.913 433.417,266.06 435.41,267.207 437.403,268.354 439.396,269.502 441.389,270.649 443.383,271.796 445.376,272.943 447.369,274.09 449.362,275.237 451.355,276.384 453.348,277.531 455.341,278.678 457.335,279.825 459.328,280.972 461.321,282.119 463.314,283.266 465.307,284.413 467.3,285.56 469.293,286.707 471.287,287.854 473.28,289.001 475.273,290.148 477.266,291.295 479.259,292.443 481.252,293.59 483.245,294.737 485.239,295.884 487.232,297.031 489.225,298.178 491.218,299.325 493.211,300.472 495.204,301.619 497.197,302.766 499.191,303.913 501.184,305.06 503.177,306.207 505.17,307.354 507.163,308.501 509.156,309.648 511.149,310.795 513.143,311.942 515.136,313.089 517.129,314.237 519.122,315.384 521.115,316.531 523.108,317.678 525.101,318.825 527.095,319.972 529.088,321.119 531.081,322.266 533.074,323.413 535.067,324.56 537.06,325.707 539.054,326.854 541.047,328.001 543.04,329.148 545.033,330.295 547.026,331.442 549.019,332.589 551.012,333.736 553.006,334.883 554.999,336.03 556.992,337.178 558.985,338.325 560.978,339.472 562.971,340.619 564.964,341.766 566.958,342.913 568.951,344.06 570.944,345.207 572.937,346.354 574.93,347.501 576.923,348.648 578.916,349.795 580.91,350.942 582.903,352.089 584.896,353.236 586.889,354.383 588.882,355.53 590.875,356.677 592.868,357.824 594.862,358.972 596.855,360.119 598.848,361.266 600.841,362.413 602.834,363.56 604.827,364.707 606.82,365.854 608.814,367.001 610.807,368.148 612.8,369.295 614.793,370.442 616.786,371.589 618.779,372.736 620.772,373.883 622.766,375.03 624.759,376.177 626.752,377.324 628.745,378.471 630.738,379.618 632.731,380.765 634.724,381.913 636.718,383.06 638.711,384.207 640.704,385.354 642.697,386.501 644.69,387.648 646.683,388.795 648.677,389.942 650.67,391.089 652.663,392.236 654.656,393.383 656.649,394.53 658.642,395.677 660.635,396.824 662.629,397.971 664.622,399.118 666.615,400.265 668.608,401.412 670.601,402.559 672.594,403.706 674.587,404.854 676.581,406.001 678.574,407.148 680.567,408.295 682.56,409.442 684.553,410.589 686.546,411.736 688.539,412.883 690.533,414.03 692.526,415.177 694.519,416.324 696.512,417.471 698.505,418.618 700.498,419.765 702.491,420.912 704.485,422.059 706.478,423.206 708.471,424.353 710.464,425.5 712.457,426.648 714.45,427.795 716.443,428.942 718.437,430.089 720.43,431.236 722.423,432.383 724.416,433.53 726.409,434.677 728.402,435.824 730.395,436.971 732.389,438.118 734.382,439.265 736.375,440.412 738.368,441.559 740.361,442.706 742.354,443.853 744.347,445 746.341,446.147 748.334,447.294 750.327,448.441 752.32,449.589 754.313,450.736 756.306,451.883 758.299,453.03 760.293,454.177 762.286,455.324 764.279,456.471 766.272,457.618 768.265,458.765 770.258,459.912 772.252,461.059 774.245,462.206 776.238,463.353 778.231,464.5 780.224,465.647 782.217,466.794 784.21,467.941 786.204,469.088 788.197,470.235 790.19,471.382 792.183,472.53 794.176,473.677 796.169,474.824 798.162,475.971 800.156,477.118 802.149,478.265 804.142,479.412 806.135,480.559 808.128,481.706 810.121,482.853 812.114,484 814.108,485.147 816.101,486.294 818.094,487.441 820.087,488.588 822.08,489.735 824.073,490.882 826.066,492.029 828.06,493.176 830.053,494.324 832.046,495.471 834.039,496.618 836.032,497.765 838.025,498.912 840.018,500.059 842.012,501.206 844.005,502.353 845.998,503.5 847.991,504.647 849.984,505.794 851.977,506.941 853.97,508.088 855.964,509.235 857.957,510.382 859.95,511.529 861.943,512.676 863.936,513.823 865.929,514.97 867.922,516.117 869.916,517.265 871.909,518.412 873.902,519.559 875.895,520.706 877.888,521.853 879.881,523 881.874,524.147 883.868,525.294 885.861,526.441 887.854,527.588 889.847,528.735 891.84,529.882 893.833,531.029 895.827,532.176 897.82,533.323 899.813,534.47 901.806,535.617 903.799,536.764 905.792,537.911 907.785,539.058 909.779,540.206 911.772,541.353 913.765,542.5 915.758,543.647 917.751,544.794 919.744,545.941 921.737,547.088 923.731,548.235 925.724,549.382 927.717,550.529 929.71,551.676 931.703,552.823 933.696,553.97 935.689,555.117 937.683,556.264 939.676,557.411 941.669,558.558 943.662,559.705 945.655,560.852 947.648,562 949.641,563.147 951.635,564.294 953.628,565.441 955.621,566.588 957.614,567.735 959.607,568.882 961.6,570.029 963.593,571.176 965.587,572.323 967.58,573.47 969.573,574.617 971.566,575.764 973.559,576.911 975.552,578.058 977.545,579.205 979.539,580.352 981.532,581.499 983.525,582.646 985.518,583.793 987.511,584.941 989.504,586.088 991.497,587.235 993.491,588.382 995.484,589.529 997.477,590.676 999.47,591.823 1001.46,592.97 1003.46,594.117 1005.45,595.264 1007.44,596.411 1009.44,597.558 1011.43,598.705 1013.42,599.852 1015.42,600.999 1017.41,602.146 1019.4,603.293 1021.39,604.44 1023.39,605.587 1025.38,606.734 1027.37,607.882 1029.37,609.029 1031.36,610.176 1033.35,611.323 1035.35,612.47 1037.34,613.617 1039.33,614.764 1041.33,615.911 1043.32,617.058 1045.31,618.205 1047.31,619.352 1049.3,620.499 1051.29,621.646 1053.28,622.793 1055.28,623.94 1057.27,625.087 1059.26,626.234 1061.26,627.381 1063.25,628.528 1065.24,629.676 1067.24,630.823 1069.23,631.97 1071.22,633.117 1073.22,634.264 1075.21,635.411 1077.2,636.558 1079.2,637.705 1081.19,638.852 1083.18,639.999 1085.18,641.146 1087.17,642.293 1089.16,643.44 1091.15,644.587 1093.15,645.734 1095.14,646.881 1097.13,648.028 1099.13,649.175 1101.12,650.322 1103.11,651.469 1105.11,652.617 1107.1,653.764 1109.09,654.911 1111.09,656.058 1113.08,657.205 1115.07,658.352 1117.07,659.499 1119.06,660.646 1121.05,661.793 1123.05,662.94 1125.04,664.087 1127.03,665.234 1129.02,666.381 1131.02,667.528 1133.01,668.675 1135,669.822 1137,670.969 1138.99,672.116 1140.98,673.263 1142.98,674.41 1144.97,675.558 1146.96,676.705 1148.96,677.852 1150.95,678.999 1152.94,680.146 1154.94,681.293 1156.93,682.44 1158.92,683.587 1160.91,684.734 1162.91,685.881 1164.9,687.028 1166.89,688.175 1168.89,689.322 1170.88,690.469 1172.87,691.616 1174.87,692.763 1176.86,693.91 1178.85,695.057 1180.85,696.204 1182.84,697.352 1184.83,698.499 1186.83,699.646 1188.82,700.793 1190.81,701.94 1192.81,703.087 1194.8,704.234 1196.79,705.381 1198.78,706.528 1200.78,707.675 1202.77,708.822 1204.76,709.969 1206.76,711.116 1208.75,712.263 1210.74,713.41 1212.74,714.557 1214.73,715.704 1216.72,716.851 1218.72,717.998 1220.71,719.145 1222.7,720.293 1224.7,721.44 1226.69,722.587 1228.68,723.734 1230.67,724.881 1232.67,726.028 1234.66,727.175 1236.65,728.322 1238.65,729.469 1240.64,730.616 1242.63,731.763 1244.63,732.91 1246.62,734.057 1248.61,735.204 1250.61,736.351 1252.6,737.498 1254.59,738.645 1256.59,739.792 1258.58,740.939 1260.57,742.086 1262.57,743.234 1264.56,744.381 1266.55,745.528 1268.54,746.675 1270.54,747.822 1272.53,748.969 1274.52,750.116 1276.52,751.263 1278.51,752.41 1280.5,753.557 1282.5,754.704 1284.49,755.851 1286.48,756.998 1288.48,758.145 1290.47,759.292 1292.46,760.439 1294.46,761.586 1296.45,762.733 1298.44,763.88 1300.44,765.028 1302.43,766.175 1304.42,767.322 1306.41,768.469 1308.41,769.616 1310.4,770.763 1312.39,771.91 1314.39,773.057 1316.38,774.204 1318.37,775.351 1320.37,776.498 1322.36,777.645 1324.35,778.792 1326.35,779.939 1328.34,781.086 1330.33,782.233 1332.33,783.38 1334.32,784.527 1336.31,785.674 1338.3,786.821 1340.3,787.969 1342.29,789.116 1344.28,790.263 1346.28,791.41 1348.27,792.557 1350.26,793.704 1352.26,794.851 1354.25,795.998 1356.24,797.145 1358.24,798.292 1360.23,799.439 1362.22,800.586 1364.22,801.733 1366.21,802.88 1368.2,804.027 1370.2,805.174 1372.19,806.321 1374.18,807.468 1376.17,808.615 1378.17,809.762 1380.16,810.91 1382.15,812.057 1384.15,813.204 1386.14,814.351 1388.13,815.498 1390.13,816.645 1392.12,817.792 1394.11,818.939 1396.11,820.086 1398.1,821.233 1400.09,822.38 1402.09,823.527 1404.08,824.674 1406.07,825.821 1408.06,826.968 1410.06,828.115 1412.05,829.262 1414.04,830.409 1416.04,831.556 1418.03,832.704 1420.02,833.851 1422.02,834.998 1424.01,836.145 1426,837.292 1428,838.439 1429.99,839.586 1431.98,840.733 1433.98,841.88 1435.97,843.027 1437.96,844.174 1439.96,845.321 1441.95,846.468 1443.94,847.615 1445.93,848.762 1447.93,849.909 1449.92,851.056 1451.91,852.203 1453.91,853.35 1455.9,854.497 1457.89,855.645 1459.89,856.792 1461.88,857.939 1463.87,859.086 1465.87,860.233 1467.86,861.38 1469.85,862.527 1471.85,863.674 1473.84,864.821 1475.83,865.968 1477.82,867.115 1479.82,868.262 1481.81,869.409 1483.8,870.556 1485.8,871.703 1487.79,872.85 1489.78,873.997 1491.78,875.144 1493.77,876.291 1495.76,877.438 1497.76,878.586 1499.75,879.733 1501.74,880.88 1503.74,882.027 1505.73,883.174 1507.72,884.321 1509.72,885.468 1511.71,886.615 1513.7,887.762 1515.69,888.909 1517.69,890.056 1519.68,891.203 1521.67,892.35 1523.67,893.497 1525.66,894.644 1527.65,895.791 1529.65,896.938 1531.64,898.085 1533.63,899.232 1535.63,900.38 1537.62,901.527 1539.61,902.674 1541.61,903.821 1543.6,904.968 1545.59,906.115 1547.59,907.262 1549.58,908.409 1551.57,909.556 1553.56,910.703 1555.56,911.85 1557.55,912.997 1559.54,914.144 1561.54,915.291 1563.53,916.438 1565.52,917.585 1567.52,918.732 1569.51,919.879 1571.5,921.026 1573.5,922.173 1575.49,923.321 1577.48,924.468 1579.48,925.615 1581.47,926.762 1583.46,927.909 1585.45,929.056 1587.45,930.203 1589.44,931.35 1591.43,932.497 1593.43,933.644 1595.42,934.791 1597.41,935.938 1599.41,937.085 1601.4,938.232 1603.39,939.379 1605.39,940.526 1607.38,941.673 1609.37,942.82 1611.37,943.967 1613.36,945.114 1615.35,946.262 1617.35,947.409 1619.34,948.556 1621.33,949.703 1623.32,950.85 1625.32,951.997 1627.31,953.144 1629.3,954.291 1631.3,955.438 1633.29,956.585 1635.28,957.732 1637.28,958.879 1639.27,960.026 1641.26,961.173 1643.26,962.32 1645.25,963.467 1647.24,964.614 1649.24,965.761 1651.23,966.908 1653.22,968.056 1655.21,969.203 1657.21,970.35 1659.2,971.497 1661.19,972.644 1663.19,973.791 1665.18,974.938 1667.17,976.085 1669.17,977.232 1671.16,978.379 1673.15,979.526 1675.15,980.673 1677.14,981.82 1679.13,982.967 1681.13,984.114 1683.12,985.261 1685.11,986.408 1687.11,987.555 1689.1,988.702 1691.09,989.849 1693.08,990.997 1695.08,992.144 1697.07,993.291 1699.06,994.438 1701.06,995.585 1703.05,996.732 1705.04,997.879 1707.04,999.026 1709.03,1000.17 1711.02,1001.32 1713.02,1002.47 1715.01,1003.61 1717,1004.76 1719,1005.91 1720.99,1007.06 1722.98,1008.2 1724.97,1009.35 1726.97,1010.5 1728.96,1011.64 1730.95,1012.79 1732.95,1013.94 1734.94,1015.08 1736.93,1016.23 1738.93,1017.38 1740.92,1018.53 1742.91,1019.67 1744.91,1020.82 1746.9,1021.97 1748.89,1023.11 1750.89,1024.26 1752.88,1025.41 1754.87,1026.56 1756.87,1027.7 1758.86,1028.85 1760.85,1030 1762.84,1031.14 1764.84,1032.29 1766.83,1033.44 1768.82,1034.58 1770.82,1035.73 1772.81,1036.88 1774.8,1038.03 1776.8,1039.17 1778.79,1040.32 1780.78,1041.47 1782.78,1042.61 1784.77,1043.76 1786.76,1044.91 1788.76,1046.05 1790.75,1047.2 1792.74,1048.35 1794.74,1049.5 1796.73,1050.64 1798.72,1051.79 1800.71,1052.94 1802.71,1054.08 1804.7,1055.23 1806.69,1056.38 1808.69,1057.53 1810.68,1058.67 1812.67,1059.82 1814.67,1060.97 1816.66,1062.11 1818.65,1063.26 1820.65,1064.41 1822.64,1065.55 1824.63,1066.7 1826.63,1067.85 1828.62,1069 1830.61,1070.14 1832.6,1071.29 1834.6,1072.44 1836.59,1073.58 1838.58,1074.73 1840.58,1075.88 1842.57,1077.03 1844.56,1078.17 1846.56,1079.32 1848.55,1080.47 1850.54,1081.61 1852.54,1082.76 1854.53,1083.91 1856.52,1085.05 1858.52,1086.2 1860.51,1087.35 1862.5,1088.5 1864.5,1089.64 1866.49,1090.79 1868.48,1091.94 1870.47,1093.08 1872.47,1094.23 1874.46,1095.38 1876.45,1096.53 1878.45,1097.67 1880.44,1098.82 1882.43,1099.97 1884.43,1101.11 1886.42,1102.26 1888.41,1103.41 1890.41,1104.55 1892.4,1105.7 1894.39,1106.85 1896.39,1108 1898.38,1109.14 1900.37,1110.29 1902.36,1111.44 1904.36,1112.58 1906.35,1113.73 1908.34,1114.88 1910.34,1116.03 1912.33,1117.17 1914.32,1118.32 1916.32,1119.47 1918.31,1120.61 1920.3,1121.76 1922.3,1122.91 1924.29,1124.05 1926.28,1125.2 1928.28,1126.35 1930.27,1127.5 1932.26,1128.64 1934.26,1129.79 1936.25,1130.94 1938.24,1132.08 1940.23,1133.23 1942.23,1134.38 1944.22,1135.52 1946.21,1136.67 1948.21,1137.82 1950.2,1138.97 1952.19,1140.11 1954.19,1141.26 1956.18,1142.41 1958.17,1143.55 1960.17,1144.7 1962.16,1145.85 1964.15,1147 1966.15,1148.14 1968.14,1149.29 1970.13,1150.44 1972.12,1151.58 1974.12,1152.73 1976.11,1153.88 1978.1,1155.02 1980.1,1156.17 1982.09,1157.32 1984.08,1158.47 1986.08,1159.61 1988.07,1160.76 1990.06,1161.91 1992.06,1163.05 1994.05,1164.2 1996.04,1165.35 1998.04,1166.5 2000.03,1167.64 2002.02,1168.79 2004.02,1169.94 2006.01,1171.08 2008,1172.23 2009.99,1173.38 2011.99,1174.52 2013.98,1175.67 2015.97,1176.82 2017.97,1177.97 2019.96,1179.11 2021.95,1180.26 2023.95,1181.41 2025.94,1182.55 2027.93,1183.7 2029.93,1184.85 2031.92,1186 2033.91,1187.14 2035.91,1188.29 2037.9,1189.44 2039.89,1190.58 2041.89,1191.73 2043.88,1192.88 2045.87,1194.02 2047.86,1195.17 2049.86,1196.32 2051.85,1197.47 2053.84,1198.61 2055.84,1199.76 2057.83,1200.91 2059.82,1202.05 2061.82,1203.2 2063.81,1204.35 2065.8,1205.5 2067.8,1206.64 2069.79,1207.79 2071.78,1208.94 2073.78,1210.08 2075.77,1211.23 2077.76,1212.38 2079.75,1213.52 2081.75,1214.67 2083.74,1215.82 2085.73,1216.97 2087.73,1218.11 2089.72,1219.26 2091.71,1220.41 2093.71,1221.55 2095.7,1222.7 2097.69,1223.85 2099.69,1224.99 2101.68,1226.14 2103.67,1227.29 2105.67,1228.44 2107.66,1229.58 2109.65,1230.73 2111.65,1231.88 2113.64,1233.02 2115.63,1234.17 2117.62,1235.32 2119.62,1236.47 2121.61,1237.61 2123.6,1238.76 2125.6,1239.91 2127.59,1241.05 2129.58,1242.2 2131.58,1243.35 2133.57,1244.49 2135.56,1245.64 2137.56,1246.79 2139.55,1247.94 2141.54,1249.08 2143.54,1250.23 2145.53,1251.38 2147.52,1252.52 2149.51,1253.67 2151.51,1254.82 2153.5,1255.97 2155.49,1257.11 2157.49,1258.26 2159.48,1259.41 2161.47,1260.55 2163.47,1261.7 2165.46,1262.85 2167.45,1263.99 2169.45,1265.14 2171.44,1266.29 2173.43,1267.44 2175.43,1268.58 2177.42,1269.73 2179.41,1270.88 2181.41,1272.02 2183.4,1273.17 2185.39,1274.32 2187.38,1275.47 2189.38,1276.61 2191.37,1277.76 2193.36,1278.91 2195.36,1280.05 2197.35,1281.2 2199.34,1282.35 2201.34,1283.49 2203.33,1284.64 2205.32,1285.79 2207.32,1286.94 2209.31,1288.08 2211.3,1289.23 2213.3,1290.38 2215.29,1291.52 2217.28,1292.67 2219.27,1293.82 2221.27,1294.97 2223.26,1296.11 2225.25,1297.26 2227.25,1298.41 2229.24,1299.55 2231.23,1300.7 2233.23,1301.85 2235.22,1302.99 2237.21,1304.14 2239.21,1305.29 2241.2,1306.44 2243.19,1307.58 2245.19,1308.73 2247.18,1309.88 2249.17,1311.02 2251.17,1312.17 2253.16,1313.32 2255.15,1314.46 2257.14,1315.61 2259.14,1316.76 2261.13,1317.91 2263.12,1319.05 2265.12,1320.2 2267.11,1321.35 2269.1,1322.49 2271.1,1323.64 2273.09,1324.79 2275.08,1325.94 2277.08,1327.08 2279.07,1328.23 2281.06,1329.38 2283.06,1330.52 2285.05,1331.67 2287.04,1332.82 2289.04,1333.96 2291.03,1335.11 2293.02,1336.26 "/>
<path clip-path="url(#clip990)" d="M1408.24 322.316 L2282.4 322.316 L2282.4 166.796 L1408.24 166.796  Z" fill="#ffffff" fill-rule="evenodd" fill-opacity="1"/>
<polyline clip-path="url(#clip990)" style="stroke:#000000; stroke-linecap:round; stroke-linejoin:round; stroke-width:4; stroke-opacity:1; fill:none" points="1408.24,322.316 2282.4,322.316 2282.4,166.796 1408.24,166.796 1408.24,322.316 "/>
<circle clip-path="url(#clip990)" cx="1502.05" cy="218.636" r="23.04" fill="#009af9" fill-rule="evenodd" fill-opacity="1" stroke="#000000" stroke-opacity="1" stroke-width="5.12"/>
<path clip-path="url(#clip990)" d="M1614.76 213.925 L1614.76 199.897 L1619.02 199.897 L1619.02 235.916 L1614.76 235.916 L1614.76 232.027 Q1613.42 234.342 1611.36 235.476 Q1609.32 236.587 1606.45 236.587 Q1601.75 236.587 1598.79 232.837 Q1595.85 229.087 1595.85 222.976 Q1595.85 216.865 1598.79 213.115 Q1601.75 209.365 1606.45 209.365 Q1609.32 209.365 1611.36 210.499 Q1613.42 211.61 1614.76 213.925 M1600.25 222.976 Q1600.25 227.675 1602.17 230.36 Q1604.12 233.022 1607.5 233.022 Q1610.88 233.022 1612.82 230.36 Q1614.76 227.675 1614.76 222.976 Q1614.76 218.277 1612.82 215.615 Q1610.88 212.93 1607.5 212.93 Q1604.12 212.93 1602.17 215.615 Q1600.25 218.277 1600.25 222.976 Z" fill="#000000" fill-rule="evenodd" fill-opacity="1" /><path clip-path="url(#clip990)" d="M1632.66 219.411 L1632.66 232.073 L1640.16 232.073 Q1643.93 232.073 1645.74 230.522 Q1647.56 228.948 1647.56 225.731 Q1647.56 222.49 1645.74 220.962 Q1643.93 219.411 1640.16 219.411 L1632.66 219.411 M1632.66 205.198 L1632.66 215.615 L1639.58 215.615 Q1643 215.615 1644.67 214.342 Q1646.36 213.045 1646.36 210.407 Q1646.36 207.791 1644.67 206.495 Q1643 205.198 1639.58 205.198 L1632.66 205.198 M1627.98 201.356 L1639.93 201.356 Q1645.27 201.356 1648.17 203.578 Q1651.06 205.8 1651.06 209.897 Q1651.06 213.069 1649.58 214.944 Q1648.1 216.819 1645.23 217.282 Q1648.68 218.022 1650.57 220.383 Q1652.5 222.721 1652.5 226.24 Q1652.5 230.869 1649.35 233.393 Q1646.2 235.916 1640.39 235.916 L1627.98 235.916 L1627.98 201.356 Z" fill="#000000" fill-rule="evenodd" fill-opacity="1" /><path clip-path="url(#clip990)" d="M1680.5 214.967 Q1682.1 212.096 1684.32 210.731 Q1686.55 209.365 1689.56 209.365 Q1693.61 209.365 1695.81 212.212 Q1698 215.036 1698 220.268 L1698 235.916 L1693.72 235.916 L1693.72 220.407 Q1693.72 216.68 1692.4 214.874 Q1691.08 213.069 1688.37 213.069 Q1685.06 213.069 1683.14 215.268 Q1681.22 217.467 1681.22 221.263 L1681.22 235.916 L1676.94 235.916 L1676.94 220.407 Q1676.94 216.657 1675.62 214.874 Q1674.3 213.069 1671.55 213.069 Q1668.28 213.069 1666.36 215.291 Q1664.44 217.49 1664.44 221.263 L1664.44 235.916 L1660.16 235.916 L1660.16 209.99 L1664.44 209.99 L1664.44 214.018 Q1665.9 211.633 1667.94 210.499 Q1669.97 209.365 1672.77 209.365 Q1675.6 209.365 1677.56 210.8 Q1679.56 212.235 1680.5 214.967 Z" fill="#000000" fill-rule="evenodd" fill-opacity="1" /><path clip-path="url(#clip990)" d="M1707.59 230.036 L1712.47 230.036 L1712.47 234.018 L1708.68 241.425 L1705.69 241.425 L1707.59 234.018 L1707.59 230.036 Z" fill="#000000" fill-rule="evenodd" fill-opacity="1" /><path clip-path="url(#clip990)" d="M1748.37 205.962 L1742.03 223.161 L1754.74 223.161 L1748.37 205.962 M1745.74 201.356 L1751.04 201.356 L1764.21 235.916 L1759.35 235.916 L1756.2 227.05 L1740.62 227.05 L1737.47 235.916 L1732.54 235.916 L1745.74 201.356 Z" fill="#000000" fill-rule="evenodd" fill-opacity="1" /><path clip-path="url(#clip990)" d="M1773.93 205.198 L1773.93 232.073 L1779.58 232.073 Q1786.73 232.073 1790.04 228.832 Q1793.37 225.592 1793.37 218.601 Q1793.37 211.657 1790.04 208.439 Q1786.73 205.198 1779.58 205.198 L1773.93 205.198 M1769.25 201.356 L1778.86 201.356 Q1788.91 201.356 1793.61 205.546 Q1798.3 209.712 1798.3 218.601 Q1798.3 227.536 1793.58 231.726 Q1788.86 235.916 1778.86 235.916 L1769.25 235.916 L1769.25 201.356 Z" fill="#000000" fill-rule="evenodd" fill-opacity="1" /><path clip-path="url(#clip990)" d="M1831.64 204.018 L1831.64 208.948 Q1829.28 206.749 1826.59 205.661 Q1823.93 204.573 1820.92 204.573 Q1814.99 204.573 1811.85 208.208 Q1808.7 211.819 1808.7 218.67 Q1808.7 225.499 1811.85 229.133 Q1814.99 232.744 1820.92 232.744 Q1823.93 232.744 1826.59 231.656 Q1829.28 230.569 1831.64 228.369 L1831.64 233.254 Q1829.18 234.92 1826.43 235.754 Q1823.7 236.587 1820.64 236.587 Q1812.8 236.587 1808.28 231.795 Q1803.77 226.981 1803.77 218.67 Q1803.77 210.337 1808.28 205.546 Q1812.8 200.731 1820.64 200.731 Q1823.74 200.731 1826.48 201.564 Q1829.23 202.374 1831.64 204.018 Z" fill="#000000" fill-rule="evenodd" fill-opacity="1" /><path clip-path="url(#clip990)" d="M1857.86 232.027 L1857.86 245.777 L1853.58 245.777 L1853.58 209.99 L1857.86 209.99 L1857.86 213.925 Q1859.21 211.61 1861.24 210.499 Q1863.3 209.365 1866.15 209.365 Q1870.87 209.365 1873.81 213.115 Q1876.78 216.865 1876.78 222.976 Q1876.78 229.087 1873.81 232.837 Q1870.87 236.587 1866.15 236.587 Q1863.3 236.587 1861.24 235.476 Q1859.21 234.342 1857.86 232.027 M1872.36 222.976 Q1872.36 218.277 1870.41 215.615 Q1868.49 212.93 1865.11 212.93 Q1861.73 212.93 1859.79 215.615 Q1857.86 218.277 1857.86 222.976 Q1857.86 227.675 1859.79 230.36 Q1861.73 233.022 1865.11 233.022 Q1868.49 233.022 1870.41 230.36 Q1872.36 227.675 1872.36 222.976 Z" fill="#000000" fill-rule="evenodd" fill-opacity="1" /><path clip-path="url(#clip990)" d="M1895.62 222.883 Q1890.46 222.883 1888.47 224.064 Q1886.48 225.244 1886.48 228.092 Q1886.48 230.36 1887.96 231.703 Q1889.46 233.022 1892.03 233.022 Q1895.57 233.022 1897.7 230.522 Q1899.86 227.999 1899.86 223.832 L1899.86 222.883 L1895.62 222.883 M1904.11 221.124 L1904.11 235.916 L1899.86 235.916 L1899.86 231.981 Q1898.4 234.342 1896.22 235.476 Q1894.05 236.587 1890.9 236.587 Q1886.92 236.587 1884.55 234.365 Q1882.22 232.119 1882.22 228.369 Q1882.22 223.994 1885.13 221.772 Q1888.07 219.55 1893.88 219.55 L1899.86 219.55 L1899.86 219.133 Q1899.86 216.194 1897.91 214.596 Q1895.99 212.976 1892.49 212.976 Q1890.27 212.976 1888.17 213.508 Q1886.06 214.041 1884.11 215.106 L1884.11 211.17 Q1886.45 210.268 1888.65 209.828 Q1890.85 209.365 1892.93 209.365 Q1898.56 209.365 1901.34 212.282 Q1904.11 215.198 1904.11 221.124 Z" fill="#000000" fill-rule="evenodd" fill-opacity="1" /><path clip-path="url(#clip990)" d="M1912.89 209.99 L1917.15 209.99 L1917.15 235.916 L1912.89 235.916 L1912.89 209.99 M1912.89 199.897 L1917.15 199.897 L1917.15 205.291 L1912.89 205.291 L1912.89 199.897 Z" fill="#000000" fill-rule="evenodd" fill-opacity="1" /><path clip-path="url(#clip990)" d="M1941.08 213.971 Q1940.36 213.555 1939.51 213.37 Q1938.67 213.161 1937.66 213.161 Q1934.04 213.161 1932.1 215.522 Q1930.18 217.86 1930.18 222.258 L1930.18 235.916 L1925.9 235.916 L1925.9 209.99 L1930.18 209.99 L1930.18 214.018 Q1931.52 211.657 1933.67 210.522 Q1935.83 209.365 1938.91 209.365 Q1939.35 209.365 1939.88 209.434 Q1940.41 209.481 1941.06 209.596 L1941.08 213.971 Z" fill="#000000" fill-rule="evenodd" fill-opacity="1" /><path clip-path="url(#clip990)" d="M1962.08 210.754 L1962.08 214.782 Q1960.27 213.856 1958.33 213.393 Q1956.38 212.93 1954.3 212.93 Q1951.13 212.93 1949.53 213.902 Q1947.96 214.874 1947.96 216.819 Q1947.96 218.3 1949.09 219.157 Q1950.23 219.99 1953.65 220.754 L1955.11 221.078 Q1959.65 222.05 1961.54 223.832 Q1963.47 225.592 1963.47 228.763 Q1963.47 232.374 1960.6 234.481 Q1957.75 236.587 1952.75 236.587 Q1950.67 236.587 1948.4 236.17 Q1946.15 235.777 1943.65 234.967 L1943.65 230.569 Q1946.01 231.795 1948.3 232.42 Q1950.6 233.022 1952.84 233.022 Q1955.85 233.022 1957.47 232.004 Q1959.09 230.962 1959.09 229.087 Q1959.09 227.351 1957.91 226.425 Q1956.75 225.499 1952.79 224.643 L1951.31 224.295 Q1947.35 223.462 1945.6 221.749 Q1943.84 220.013 1943.84 217.004 Q1943.84 213.346 1946.43 211.356 Q1949.02 209.365 1953.79 209.365 Q1956.15 209.365 1958.23 209.712 Q1960.32 210.059 1962.08 210.754 Z" fill="#000000" fill-rule="evenodd" fill-opacity="1" /><polyline clip-path="url(#clip990)" style="stroke:#e26f46; stroke-linecap:round; stroke-linejoin:round; stroke-width:4; stroke-opacity:1; fill:none" points="1431.69,270.476 1572.4,270.476 "/>
<path clip-path="url(#clip990)" d="M1612.36 251.737 L1612.36 255.279 L1608.28 255.279 Q1605.99 255.279 1605.09 256.205 Q1604.21 257.131 1604.21 259.538 L1604.21 261.83 L1611.22 261.83 L1611.22 265.14 L1604.21 265.14 L1604.21 287.756 L1599.93 287.756 L1599.93 265.14 L1595.85 265.14 L1595.85 261.83 L1599.93 261.83 L1599.93 260.024 Q1599.93 255.696 1601.94 253.728 Q1603.95 251.737 1608.33 251.737 L1612.36 251.737 Z" fill="#000000" fill-rule="evenodd" fill-opacity="1" /><path clip-path="url(#clip990)" d="M1615.92 261.83 L1620.18 261.83 L1620.18 287.756 L1615.92 287.756 L1615.92 261.83 M1615.92 251.737 L1620.18 251.737 L1620.18 257.131 L1615.92 257.131 L1615.92 251.737 Z" fill="#000000" fill-rule="evenodd" fill-opacity="1" /><path clip-path="url(#clip990)" d="M1633.31 254.469 L1633.31 261.83 L1642.08 261.83 L1642.08 265.14 L1633.31 265.14 L1633.31 279.214 Q1633.31 282.385 1634.16 283.288 Q1635.04 284.191 1637.7 284.191 L1642.08 284.191 L1642.08 287.756 L1637.7 287.756 Q1632.77 287.756 1630.9 285.927 Q1629.02 284.075 1629.02 279.214 L1629.02 265.14 L1625.9 265.14 L1625.9 261.83 L1629.02 261.83 L1629.02 254.469 L1633.31 254.469 Z" fill="#000000" fill-rule="evenodd" fill-opacity="1" /><path clip-path="url(#clip990)" d="M1675.87 251.737 L1675.87 255.279 L1671.8 255.279 Q1669.51 255.279 1668.61 256.205 Q1667.73 257.131 1667.73 259.538 L1667.73 261.83 L1674.74 261.83 L1674.74 265.14 L1667.73 265.14 L1667.73 287.756 L1663.44 287.756 L1663.44 265.14 L1659.37 265.14 L1659.37 261.83 L1663.44 261.83 L1663.44 260.024 Q1663.44 255.696 1665.46 253.728 Q1667.47 251.737 1671.85 251.737 L1675.87 251.737 Z" fill="#000000" fill-rule="evenodd" fill-opacity="1" /><path clip-path="url(#clip990)" d="M1679 277.524 L1679 261.83 L1683.26 261.83 L1683.26 277.362 Q1683.26 281.043 1684.69 282.895 Q1686.13 284.723 1689 284.723 Q1692.45 284.723 1694.44 282.524 Q1696.45 280.325 1696.45 276.529 L1696.45 261.83 L1700.71 261.83 L1700.71 287.756 L1696.45 287.756 L1696.45 283.774 Q1694.9 286.135 1692.84 287.293 Q1690.81 288.427 1688.1 288.427 Q1683.63 288.427 1681.31 285.649 Q1679 282.871 1679 277.524 M1689.72 261.205 L1689.72 261.205 Z" fill="#000000" fill-rule="evenodd" fill-opacity="1" /><path clip-path="url(#clip990)" d="M1731.04 272.108 L1731.04 287.756 L1726.78 287.756 L1726.78 272.247 Q1726.78 268.566 1725.34 266.737 Q1723.91 264.909 1721.04 264.909 Q1717.59 264.909 1715.6 267.108 Q1713.61 269.307 1713.61 273.103 L1713.61 287.756 L1709.32 287.756 L1709.32 261.83 L1713.61 261.83 L1713.61 265.858 Q1715.13 263.52 1717.19 262.362 Q1719.28 261.205 1721.99 261.205 Q1726.45 261.205 1728.75 263.983 Q1731.04 266.737 1731.04 272.108 Z" fill="#000000" fill-rule="evenodd" fill-opacity="1" /><path clip-path="url(#clip990)" d="M1758.19 262.825 L1758.19 266.807 Q1756.38 265.811 1754.56 265.325 Q1752.75 264.816 1750.9 264.816 Q1746.75 264.816 1744.46 267.455 Q1742.17 270.071 1742.17 274.816 Q1742.17 279.561 1744.46 282.2 Q1746.75 284.816 1750.9 284.816 Q1752.75 284.816 1754.56 284.33 Q1756.38 283.821 1758.19 282.825 L1758.19 286.76 Q1756.41 287.594 1754.49 288.01 Q1752.59 288.427 1750.43 288.427 Q1744.58 288.427 1741.13 284.746 Q1737.68 281.066 1737.68 274.816 Q1737.68 268.473 1741.15 264.839 Q1744.65 261.205 1750.71 261.205 Q1752.68 261.205 1754.56 261.622 Q1756.43 262.015 1758.19 262.825 Z" fill="#000000" fill-rule="evenodd" fill-opacity="1" /><path clip-path="url(#clip990)" d="M1769.81 254.469 L1769.81 261.83 L1778.58 261.83 L1778.58 265.14 L1769.81 265.14 L1769.81 279.214 Q1769.81 282.385 1770.67 283.288 Q1771.55 284.191 1774.21 284.191 L1778.58 284.191 L1778.58 287.756 L1774.21 287.756 Q1769.28 287.756 1767.4 285.927 Q1765.53 284.075 1765.53 279.214 L1765.53 265.14 L1762.4 265.14 L1762.4 261.83 L1765.53 261.83 L1765.53 254.469 L1769.81 254.469 Z" fill="#000000" fill-rule="evenodd" fill-opacity="1" /><path clip-path="url(#clip990)" d="M1784.18 261.83 L1788.44 261.83 L1788.44 287.756 L1784.18 287.756 L1784.18 261.83 M1784.18 251.737 L1788.44 251.737 L1788.44 257.131 L1784.18 257.131 L1784.18 251.737 Z" fill="#000000" fill-rule="evenodd" fill-opacity="1" /><path clip-path="url(#clip990)" d="M1807.4 264.816 Q1803.98 264.816 1801.99 267.501 Q1799.99 270.163 1799.99 274.816 Q1799.99 279.469 1801.96 282.154 Q1803.95 284.816 1807.4 284.816 Q1810.8 284.816 1812.8 282.131 Q1814.79 279.446 1814.79 274.816 Q1814.79 270.21 1812.8 267.524 Q1810.8 264.816 1807.4 264.816 M1807.4 261.205 Q1812.96 261.205 1816.13 264.816 Q1819.3 268.427 1819.3 274.816 Q1819.3 281.182 1816.13 284.816 Q1812.96 288.427 1807.4 288.427 Q1801.82 288.427 1798.65 284.816 Q1795.5 281.182 1795.5 274.816 Q1795.5 268.427 1798.65 264.816 Q1801.82 261.205 1807.4 261.205 Z" fill="#000000" fill-rule="evenodd" fill-opacity="1" /><path clip-path="url(#clip990)" d="M1847.91 272.108 L1847.91 287.756 L1843.65 287.756 L1843.65 272.247 Q1843.65 268.566 1842.22 266.737 Q1840.78 264.909 1837.91 264.909 Q1834.46 264.909 1832.47 267.108 Q1830.48 269.307 1830.48 273.103 L1830.48 287.756 L1826.2 287.756 L1826.2 261.83 L1830.48 261.83 L1830.48 265.858 Q1832.01 263.52 1834.07 262.362 Q1836.15 261.205 1838.86 261.205 Q1843.33 261.205 1845.62 263.983 Q1847.91 266.737 1847.91 272.108 Z" fill="#000000" fill-rule="evenodd" fill-opacity="1" /><path clip-path="url(#clip990)" d="M1857.49 281.876 L1862.38 281.876 L1862.38 285.858 L1858.58 293.265 L1855.6 293.265 L1857.49 285.858 L1857.49 281.876 Z" fill="#000000" fill-rule="evenodd" fill-opacity="1" /><path clip-path="url(#clip990)" d="M1908.72 273.728 L1908.72 275.811 L1889.14 275.811 Q1889.42 280.209 1891.78 282.524 Q1894.16 284.816 1898.4 284.816 Q1900.85 284.816 1903.14 284.214 Q1905.46 283.612 1907.73 282.409 L1907.73 286.436 Q1905.43 287.408 1903.03 287.918 Q1900.62 288.427 1898.14 288.427 Q1891.94 288.427 1888.3 284.816 Q1884.69 281.205 1884.69 275.047 Q1884.69 268.682 1888.12 264.955 Q1891.57 261.205 1897.4 261.205 Q1902.63 261.205 1905.67 264.585 Q1908.72 267.941 1908.72 273.728 M1904.46 272.478 Q1904.42 268.983 1902.49 266.899 Q1900.6 264.816 1897.45 264.816 Q1893.88 264.816 1891.73 266.83 Q1889.6 268.844 1889.28 272.501 L1904.46 272.478 Z" fill="#000000" fill-rule="evenodd" fill-opacity="1" /><path clip-path="url(#clip990)" d="M1930.73 265.811 Q1930.02 265.395 1929.16 265.21 Q1928.33 265.001 1927.31 265.001 Q1923.7 265.001 1921.75 267.362 Q1919.83 269.7 1919.83 274.098 L1919.83 287.756 L1915.55 287.756 L1915.55 261.83 L1919.83 261.83 L1919.83 265.858 Q1921.17 263.497 1923.33 262.362 Q1925.48 261.205 1928.56 261.205 Q1929 261.205 1929.53 261.274 Q1930.06 261.321 1930.71 261.436 L1930.73 265.811 Z" fill="#000000" fill-rule="evenodd" fill-opacity="1" /><path clip-path="url(#clip990)" d="M1949.39 265.811 Q1948.67 265.395 1947.82 265.21 Q1946.98 265.001 1945.97 265.001 Q1942.35 265.001 1940.41 267.362 Q1938.49 269.7 1938.49 274.098 L1938.49 287.756 L1934.21 287.756 L1934.21 261.83 L1938.49 261.83 L1938.49 265.858 Q1939.83 263.497 1941.98 262.362 Q1944.14 261.205 1947.22 261.205 Q1947.66 261.205 1948.19 261.274 Q1948.72 261.321 1949.37 261.436 L1949.39 265.811 Z" fill="#000000" fill-rule="evenodd" fill-opacity="1" /><path clip-path="url(#clip990)" d="M1962.86 264.816 Q1959.44 264.816 1957.45 267.501 Q1955.46 270.163 1955.46 274.816 Q1955.46 279.469 1957.42 282.154 Q1959.42 284.816 1962.86 284.816 Q1966.27 284.816 1968.26 282.131 Q1970.25 279.446 1970.25 274.816 Q1970.25 270.21 1968.26 267.524 Q1966.27 264.816 1962.86 264.816 M1962.86 261.205 Q1968.42 261.205 1971.59 264.816 Q1974.76 268.427 1974.76 274.816 Q1974.76 281.182 1971.59 284.816 Q1968.42 288.427 1962.86 288.427 Q1957.29 288.427 1954.11 284.816 Q1950.97 281.182 1950.97 274.816 Q1950.97 268.427 1954.11 264.816 Q1957.29 261.205 1962.86 261.205 Z" fill="#000000" fill-rule="evenodd" fill-opacity="1" /><path clip-path="url(#clip990)" d="M1996.85 265.811 Q1996.13 265.395 1995.27 265.21 Q1994.44 265.001 1993.42 265.001 Q1989.81 265.001 1987.86 267.362 Q1985.94 269.7 1985.94 274.098 L1985.94 287.756 L1981.66 287.756 L1981.66 261.83 L1985.94 261.83 L1985.94 265.858 Q1987.29 263.497 1989.44 262.362 Q1991.59 261.205 1994.67 261.205 Q1995.11 261.205 1995.64 261.274 Q1996.17 261.321 1996.82 261.436 L1996.85 265.811 Z" fill="#000000" fill-rule="evenodd" fill-opacity="1" /><path clip-path="url(#clip990)" d="M2016.94 266.228 L2046.61 266.228 L2046.61 270.117 L2016.94 270.117 L2016.94 266.228 M2016.94 275.672 L2046.61 275.672 L2046.61 279.608 L2016.94 279.608 L2016.94 275.672 Z" fill="#000000" fill-rule="evenodd" fill-opacity="1" /><path clip-path="url(#clip990)" d="M2084.62 257.27 L2072.82 275.719 L2084.62 275.719 L2084.62 257.27 M2083.4 253.196 L2089.28 253.196 L2089.28 275.719 L2094.21 275.719 L2094.21 279.608 L2089.28 279.608 L2089.28 287.756 L2084.62 287.756 L2084.62 279.608 L2069.02 279.608 L2069.02 275.094 L2083.4 253.196 Z" fill="#000000" fill-rule="evenodd" fill-opacity="1" /><path clip-path="url(#clip990)" d="M2105.97 283.821 L2122.28 283.821 L2122.28 287.756 L2100.34 287.756 L2100.34 283.821 Q2103 281.066 2107.59 276.436 Q2112.19 271.784 2113.37 270.441 Q2115.62 267.918 2116.5 266.182 Q2117.4 264.423 2117.4 262.733 Q2117.4 259.978 2115.46 258.242 Q2113.53 256.506 2110.43 256.506 Q2108.23 256.506 2105.78 257.27 Q2103.35 258.034 2100.57 259.585 L2100.57 254.862 Q2103.4 253.728 2105.85 253.149 Q2108.3 252.571 2110.34 252.571 Q2115.71 252.571 2118.9 255.256 Q2122.1 257.941 2122.1 262.432 Q2122.1 264.561 2121.29 266.483 Q2120.5 268.381 2118.4 270.973 Q2117.82 271.645 2114.72 274.862 Q2111.61 278.057 2105.97 283.821 Z" fill="#000000" fill-rule="evenodd" fill-opacity="1" /><path clip-path="url(#clip990)" d="M2132.1 281.876 L2136.98 281.876 L2136.98 287.756 L2132.1 287.756 L2132.1 281.876 Z" fill="#000000" fill-rule="evenodd" fill-opacity="1" /><path clip-path="url(#clip990)" d="M2145.99 253.196 L2168.21 253.196 L2168.21 255.186 L2155.66 287.756 L2150.78 287.756 L2162.59 257.131 L2145.99 257.131 L2145.99 253.196 Z" fill="#000000" fill-rule="evenodd" fill-opacity="1" /><path clip-path="url(#clip990)" d="M2190.18 257.27 L2178.37 275.719 L2190.18 275.719 L2190.18 257.27 M2188.95 253.196 L2194.83 253.196 L2194.83 275.719 L2199.76 275.719 L2199.76 279.608 L2194.83 279.608 L2194.83 287.756 L2190.18 287.756 L2190.18 279.608 L2174.58 279.608 L2174.58 275.094 L2188.95 253.196 Z" fill="#000000" fill-rule="evenodd" fill-opacity="1" /><path clip-path="url(#clip990)" d="M2211.52 283.821 L2227.84 283.821 L2227.84 287.756 L2205.9 287.756 L2205.9 283.821 Q2208.56 281.066 2213.14 276.436 Q2217.75 271.784 2218.93 270.441 Q2221.17 267.918 2222.05 266.182 Q2222.96 264.423 2222.96 262.733 Q2222.96 259.978 2221.01 258.242 Q2219.09 256.506 2215.99 256.506 Q2213.79 256.506 2211.34 257.27 Q2208.9 258.034 2206.13 259.585 L2206.13 254.862 Q2208.95 253.728 2211.4 253.149 Q2213.86 252.571 2215.9 252.571 Q2221.27 252.571 2224.46 255.256 Q2227.65 257.941 2227.65 262.432 Q2227.65 264.561 2226.84 266.483 Q2226.06 268.381 2223.95 270.973 Q2223.37 271.645 2220.27 274.862 Q2217.17 278.057 2211.52 283.821 Z" fill="#000000" fill-rule="evenodd" fill-opacity="1" /><path clip-path="url(#clip990)" d="M2251.82 269.122 Q2255.18 269.839 2257.05 272.108 Q2258.95 274.376 2258.95 277.709 Q2258.95 282.825 2255.43 285.626 Q2251.91 288.427 2245.43 288.427 Q2243.26 288.427 2240.94 287.987 Q2238.65 287.571 2236.2 286.714 L2236.2 282.2 Q2238.14 283.334 2240.46 283.913 Q2242.77 284.492 2245.29 284.492 Q2249.69 284.492 2251.98 282.756 Q2254.3 281.02 2254.3 277.709 Q2254.3 274.654 2252.14 272.941 Q2250.02 271.205 2246.2 271.205 L2242.17 271.205 L2242.17 267.362 L2246.38 267.362 Q2249.83 267.362 2251.66 265.997 Q2253.49 264.608 2253.49 262.015 Q2253.49 259.353 2251.59 257.941 Q2249.71 256.506 2246.2 256.506 Q2244.27 256.506 2242.08 256.923 Q2239.88 257.339 2237.24 258.219 L2237.24 254.052 Q2239.9 253.311 2242.21 252.941 Q2244.55 252.571 2246.61 252.571 Q2251.94 252.571 2255.04 255.001 Q2258.14 257.409 2258.14 261.529 Q2258.14 264.399 2256.5 266.39 Q2254.85 268.358 2251.82 269.122 Z" fill="#000000" fill-rule="evenodd" fill-opacity="1" /></svg>
