<?xml version="1.0" encoding="utf-8"?>
<svg xmlns="http://www.w3.org/2000/svg" xmlns:xlink="http://www.w3.org/1999/xlink" width="600" height="400" viewBox="0 0 2400 1600">
<defs>
  <clipPath id="clip170">
    <rect x="0" y="0" width="2400" height="1600"/>
  </clipPath>
</defs>
<path clip-path="url(#clip170)" d="
M0 1600 L2400 1600 L2400 8.88178e-14 L0 8.88178e-14  Z
  " fill="#ffffff" fill-rule="evenodd" fill-opacity="1"/>
<defs>
  <clipPath id="clip171">
    <rect x="480" y="0" width="1681" height="1600"/>
  </clipPath>
</defs>
<path clip-path="url(#clip170)" d="
M242.135 1423.18 L2352.76 1423.18 L2352.76 123.472 L242.135 123.472  Z
  " fill="#ffffff" fill-rule="evenodd" fill-opacity="1"/>
<defs>
  <clipPath id="clip172">
    <rect x="242" y="123" width="2112" height="1301"/>
  </clipPath>
</defs>
<polyline clip-path="url(#clip172)" style="stroke:#000000; stroke-linecap:butt; stroke-linejoin:round; stroke-width:2; stroke-opacity:0.1; fill:none" points="
  467.385,1423.18 467.385,123.472 
  "/>
<polyline clip-path="url(#clip172)" style="stroke:#000000; stroke-linecap:butt; stroke-linejoin:round; stroke-width:2; stroke-opacity:0.1; fill:none" points="
  881.174,1423.18 881.174,123.472 
  "/>
<polyline clip-path="url(#clip172)" style="stroke:#000000; stroke-linecap:butt; stroke-linejoin:round; stroke-width:2; stroke-opacity:0.1; fill:none" points="
  1294.96,1423.18 1294.96,123.472 
  "/>
<polyline clip-path="url(#clip172)" style="stroke:#000000; stroke-linecap:butt; stroke-linejoin:round; stroke-width:2; stroke-opacity:0.1; fill:none" points="
  1708.75,1423.18 1708.75,123.472 
  "/>
<polyline clip-path="url(#clip172)" style="stroke:#000000; stroke-linecap:butt; stroke-linejoin:round; stroke-width:2; stroke-opacity:0.1; fill:none" points="
  2122.54,1423.18 2122.54,123.472 
  "/>
<polyline clip-path="url(#clip170)" style="stroke:#000000; stroke-linecap:butt; stroke-linejoin:round; stroke-width:4; stroke-opacity:1; fill:none" points="
  242.135,1423.18 2352.76,1423.18 
  "/>
<polyline clip-path="url(#clip170)" style="stroke:#000000; stroke-linecap:butt; stroke-linejoin:round; stroke-width:4; stroke-opacity:1; fill:none" points="
  467.385,1423.18 467.385,1404.28 
  "/>
<polyline clip-path="url(#clip170)" style="stroke:#000000; stroke-linecap:butt; stroke-linejoin:round; stroke-width:4; stroke-opacity:1; fill:none" points="
  881.174,1423.18 881.174,1404.28 
  "/>
<polyline clip-path="url(#clip170)" style="stroke:#000000; stroke-linecap:butt; stroke-linejoin:round; stroke-width:4; stroke-opacity:1; fill:none" points="
  1294.96,1423.18 1294.96,1404.28 
  "/>
<polyline clip-path="url(#clip170)" style="stroke:#000000; stroke-linecap:butt; stroke-linejoin:round; stroke-width:4; stroke-opacity:1; fill:none" points="
  1708.75,1423.18 1708.75,1404.28 
  "/>
<polyline clip-path="url(#clip170)" style="stroke:#000000; stroke-linecap:butt; stroke-linejoin:round; stroke-width:4; stroke-opacity:1; fill:none" points="
  2122.54,1423.18 2122.54,1404.28 
  "/>
<path clip-path="url(#clip170)" d="M411.911 1481.64 L419.549 1481.64 L419.549 1455.28 L411.239 1456.95 L411.239 1452.69 L419.503 1451.02 L424.179 1451.02 L424.179 1481.64 L431.818 1481.64 L431.818 1485.58 L411.911 1485.58 L411.911 1481.64 Z" fill="#000000" fill-rule="evenodd" fill-opacity="1" /><path clip-path="url(#clip170)" d="M451.262 1454.1 Q447.651 1454.1 445.822 1457.66 Q444.017 1461.2 444.017 1468.33 Q444.017 1475.44 445.822 1479.01 Q447.651 1482.55 451.262 1482.55 Q454.896 1482.55 456.702 1479.01 Q458.531 1475.44 458.531 1468.33 Q458.531 1461.2 456.702 1457.66 Q454.896 1454.1 451.262 1454.1 M451.262 1450.39 Q457.072 1450.39 460.128 1455 Q463.207 1459.58 463.207 1468.33 Q463.207 1477.06 460.128 1481.67 Q457.072 1486.25 451.262 1486.25 Q445.452 1486.25 442.373 1481.67 Q439.318 1477.06 439.318 1468.33 Q439.318 1459.58 442.373 1455 Q445.452 1450.39 451.262 1450.39 Z" fill="#000000" fill-rule="evenodd" fill-opacity="1" /><path clip-path="url(#clip170)" d="M481.424 1454.1 Q477.813 1454.1 475.984 1457.66 Q474.179 1461.2 474.179 1468.33 Q474.179 1475.44 475.984 1479.01 Q477.813 1482.55 481.424 1482.55 Q485.058 1482.55 486.864 1479.01 Q488.693 1475.44 488.693 1468.33 Q488.693 1461.2 486.864 1457.66 Q485.058 1454.1 481.424 1454.1 M481.424 1450.39 Q487.234 1450.39 490.29 1455 Q493.368 1459.58 493.368 1468.33 Q493.368 1477.06 490.29 1481.67 Q487.234 1486.25 481.424 1486.25 Q475.614 1486.25 472.535 1481.67 Q469.48 1477.06 469.48 1468.33 Q469.48 1459.58 472.535 1455 Q475.614 1450.39 481.424 1450.39 Z" fill="#000000" fill-rule="evenodd" fill-opacity="1" /><path clip-path="url(#clip170)" d="M511.586 1454.1 Q507.975 1454.1 506.146 1457.66 Q504.341 1461.2 504.341 1468.33 Q504.341 1475.44 506.146 1479.01 Q507.975 1482.55 511.586 1482.55 Q515.22 1482.55 517.026 1479.01 Q518.854 1475.44 518.854 1468.33 Q518.854 1461.2 517.026 1457.66 Q515.22 1454.1 511.586 1454.1 M511.586 1450.39 Q517.396 1450.39 520.452 1455 Q523.53 1459.58 523.53 1468.33 Q523.53 1477.06 520.452 1481.67 Q517.396 1486.25 511.586 1486.25 Q505.776 1486.25 502.697 1481.67 Q499.642 1477.06 499.642 1468.33 Q499.642 1459.58 502.697 1455 Q505.776 1450.39 511.586 1450.39 Z" fill="#000000" fill-rule="evenodd" fill-opacity="1" /><path clip-path="url(#clip170)" d="M825.699 1481.64 L833.338 1481.64 L833.338 1455.28 L825.028 1456.95 L825.028 1452.69 L833.292 1451.02 L837.968 1451.02 L837.968 1481.64 L845.607 1481.64 L845.607 1485.58 L825.699 1485.58 L825.699 1481.64 Z" fill="#000000" fill-rule="evenodd" fill-opacity="1" /><path clip-path="url(#clip170)" d="M855.097 1451.02 L873.454 1451.02 L873.454 1454.96 L859.38 1454.96 L859.38 1463.43 Q860.398 1463.08 861.417 1462.92 Q862.435 1462.73 863.454 1462.73 Q869.241 1462.73 872.62 1465.9 Q876 1469.08 876 1474.49 Q876 1480.07 872.528 1483.17 Q869.056 1486.25 862.736 1486.25 Q860.56 1486.25 858.292 1485.88 Q856.046 1485.51 853.639 1484.77 L853.639 1480.07 Q855.722 1481.2 857.945 1481.76 Q860.167 1482.32 862.644 1482.32 Q866.648 1482.32 868.986 1480.21 Q871.324 1478.1 871.324 1474.49 Q871.324 1470.88 868.986 1468.77 Q866.648 1466.67 862.644 1466.67 Q860.769 1466.67 858.894 1467.08 Q857.042 1467.5 855.097 1468.38 L855.097 1451.02 Z" fill="#000000" fill-rule="evenodd" fill-opacity="1" /><path clip-path="url(#clip170)" d="M895.213 1454.1 Q891.602 1454.1 889.773 1457.66 Q887.968 1461.2 887.968 1468.33 Q887.968 1475.44 889.773 1479.01 Q891.602 1482.55 895.213 1482.55 Q898.847 1482.55 900.653 1479.01 Q902.481 1475.44 902.481 1468.33 Q902.481 1461.2 900.653 1457.66 Q898.847 1454.1 895.213 1454.1 M895.213 1450.39 Q901.023 1450.39 904.079 1455 Q907.157 1459.58 907.157 1468.33 Q907.157 1477.06 904.079 1481.67 Q901.023 1486.25 895.213 1486.25 Q889.403 1486.25 886.324 1481.67 Q883.269 1477.06 883.269 1468.33 Q883.269 1459.58 886.324 1455 Q889.403 1450.39 895.213 1450.39 Z" fill="#000000" fill-rule="evenodd" fill-opacity="1" /><path clip-path="url(#clip170)" d="M925.375 1454.1 Q921.764 1454.1 919.935 1457.66 Q918.129 1461.2 918.129 1468.33 Q918.129 1475.44 919.935 1479.01 Q921.764 1482.55 925.375 1482.55 Q929.009 1482.55 930.815 1479.01 Q932.643 1475.44 932.643 1468.33 Q932.643 1461.2 930.815 1457.66 Q929.009 1454.1 925.375 1454.1 M925.375 1450.39 Q931.185 1450.39 934.241 1455 Q937.319 1459.58 937.319 1468.33 Q937.319 1477.06 934.241 1481.67 Q931.185 1486.25 925.375 1486.25 Q919.565 1486.25 916.486 1481.67 Q913.43 1477.06 913.43 1468.33 Q913.43 1459.58 916.486 1455 Q919.565 1450.39 925.375 1450.39 Z" fill="#000000" fill-rule="evenodd" fill-opacity="1" /><path clip-path="url(#clip170)" d="M1243.57 1481.64 L1259.89 1481.64 L1259.89 1485.58 L1237.95 1485.58 L1237.95 1481.64 Q1240.61 1478.89 1245.19 1474.26 Q1249.8 1469.61 1250.98 1468.27 Q1253.23 1465.74 1254.11 1464.01 Q1255.01 1462.25 1255.01 1460.56 Q1255.01 1457.8 1253.06 1456.07 Q1251.14 1454.33 1248.04 1454.33 Q1245.84 1454.33 1243.39 1455.09 Q1240.96 1455.86 1238.18 1457.41 L1238.18 1452.69 Q1241 1451.55 1243.46 1450.97 Q1245.91 1450.39 1247.95 1450.39 Q1253.32 1450.39 1256.51 1453.08 Q1259.71 1455.77 1259.71 1460.26 Q1259.71 1462.39 1258.9 1464.31 Q1258.11 1466.2 1256 1468.8 Q1255.43 1469.47 1252.32 1472.69 Q1249.22 1475.88 1243.57 1481.64 Z" fill="#000000" fill-rule="evenodd" fill-opacity="1" /><path clip-path="url(#clip170)" d="M1279.71 1454.1 Q1276.1 1454.1 1274.27 1457.66 Q1272.46 1461.2 1272.46 1468.33 Q1272.46 1475.44 1274.27 1479.01 Q1276.1 1482.55 1279.71 1482.55 Q1283.34 1482.55 1285.15 1479.01 Q1286.98 1475.44 1286.98 1468.33 Q1286.98 1461.2 1285.15 1457.66 Q1283.34 1454.1 1279.71 1454.1 M1279.71 1450.39 Q1285.52 1450.39 1288.57 1455 Q1291.65 1459.58 1291.65 1468.33 Q1291.65 1477.06 1288.57 1481.67 Q1285.52 1486.25 1279.71 1486.25 Q1273.9 1486.25 1270.82 1481.67 Q1267.76 1477.06 1267.76 1468.33 Q1267.76 1459.58 1270.82 1455 Q1273.9 1450.39 1279.71 1450.39 Z" fill="#000000" fill-rule="evenodd" fill-opacity="1" /><path clip-path="url(#clip170)" d="M1309.87 1454.1 Q1306.26 1454.1 1304.43 1457.66 Q1302.62 1461.2 1302.62 1468.33 Q1302.62 1475.44 1304.43 1479.01 Q1306.26 1482.55 1309.87 1482.55 Q1313.5 1482.55 1315.31 1479.01 Q1317.14 1475.44 1317.14 1468.33 Q1317.14 1461.2 1315.31 1457.66 Q1313.5 1454.1 1309.87 1454.1 M1309.87 1450.39 Q1315.68 1450.39 1318.74 1455 Q1321.81 1459.58 1321.81 1468.33 Q1321.81 1477.06 1318.74 1481.67 Q1315.68 1486.25 1309.87 1486.25 Q1304.06 1486.25 1300.98 1481.67 Q1297.93 1477.06 1297.93 1468.33 Q1297.93 1459.58 1300.98 1455 Q1304.06 1450.39 1309.87 1450.39 Z" fill="#000000" fill-rule="evenodd" fill-opacity="1" /><path clip-path="url(#clip170)" d="M1340.03 1454.1 Q1336.42 1454.1 1334.59 1457.66 Q1332.79 1461.2 1332.79 1468.33 Q1332.79 1475.44 1334.59 1479.01 Q1336.42 1482.55 1340.03 1482.55 Q1343.67 1482.55 1345.47 1479.01 Q1347.3 1475.44 1347.3 1468.33 Q1347.3 1461.2 1345.47 1457.66 Q1343.67 1454.1 1340.03 1454.1 M1340.03 1450.39 Q1345.84 1450.39 1348.9 1455 Q1351.98 1459.58 1351.98 1468.33 Q1351.98 1477.06 1348.9 1481.67 Q1345.84 1486.25 1340.03 1486.25 Q1334.22 1486.25 1331.14 1481.67 Q1328.09 1477.06 1328.09 1468.33 Q1328.09 1459.58 1331.14 1455 Q1334.22 1450.39 1340.03 1450.39 Z" fill="#000000" fill-rule="evenodd" fill-opacity="1" /><path clip-path="url(#clip170)" d="M1657.36 1481.64 L1673.68 1481.64 L1673.68 1485.58 L1651.74 1485.58 L1651.74 1481.64 Q1654.4 1478.89 1658.98 1474.26 Q1663.59 1469.61 1664.77 1468.27 Q1667.02 1465.74 1667.9 1464.01 Q1668.8 1462.25 1668.8 1460.56 Q1668.8 1457.8 1666.85 1456.07 Q1664.93 1454.33 1661.83 1454.33 Q1659.63 1454.33 1657.18 1455.09 Q1654.75 1455.86 1651.97 1457.41 L1651.97 1452.69 Q1654.79 1451.55 1657.25 1450.97 Q1659.7 1450.39 1661.74 1450.39 Q1667.11 1450.39 1670.3 1453.08 Q1673.5 1455.77 1673.5 1460.26 Q1673.5 1462.39 1672.69 1464.31 Q1671.9 1466.2 1669.79 1468.8 Q1669.21 1469.47 1666.11 1472.69 Q1663.01 1475.88 1657.36 1481.64 Z" fill="#000000" fill-rule="evenodd" fill-opacity="1" /><path clip-path="url(#clip170)" d="M1683.54 1451.02 L1701.9 1451.02 L1701.9 1454.96 L1687.83 1454.96 L1687.83 1463.43 Q1688.84 1463.08 1689.86 1462.92 Q1690.88 1462.73 1691.9 1462.73 Q1697.69 1462.73 1701.07 1465.9 Q1704.45 1469.08 1704.45 1474.49 Q1704.45 1480.07 1700.97 1483.17 Q1697.5 1486.25 1691.18 1486.25 Q1689.01 1486.25 1686.74 1485.88 Q1684.49 1485.51 1682.08 1484.77 L1682.08 1480.07 Q1684.17 1481.2 1686.39 1481.76 Q1688.61 1482.32 1691.09 1482.32 Q1695.09 1482.32 1697.43 1480.21 Q1699.77 1478.1 1699.77 1474.49 Q1699.77 1470.88 1697.43 1468.77 Q1695.09 1466.67 1691.09 1466.67 Q1689.21 1466.67 1687.34 1467.08 Q1685.49 1467.5 1683.54 1468.38 L1683.54 1451.02 Z" fill="#000000" fill-rule="evenodd" fill-opacity="1" /><path clip-path="url(#clip170)" d="M1723.66 1454.1 Q1720.05 1454.1 1718.22 1457.66 Q1716.41 1461.2 1716.41 1468.33 Q1716.41 1475.44 1718.22 1479.01 Q1720.05 1482.55 1723.66 1482.55 Q1727.29 1482.55 1729.1 1479.01 Q1730.93 1475.44 1730.93 1468.33 Q1730.93 1461.2 1729.1 1457.66 Q1727.29 1454.1 1723.66 1454.1 M1723.66 1450.39 Q1729.47 1450.39 1732.52 1455 Q1735.6 1459.58 1735.6 1468.33 Q1735.6 1477.06 1732.52 1481.67 Q1729.47 1486.25 1723.66 1486.25 Q1717.85 1486.25 1714.77 1481.67 Q1711.71 1477.06 1711.71 1468.33 Q1711.71 1459.58 1714.77 1455 Q1717.85 1450.39 1723.66 1450.39 Z" fill="#000000" fill-rule="evenodd" fill-opacity="1" /><path clip-path="url(#clip170)" d="M1753.82 1454.1 Q1750.21 1454.1 1748.38 1457.66 Q1746.58 1461.2 1746.58 1468.33 Q1746.58 1475.44 1748.38 1479.01 Q1750.21 1482.55 1753.82 1482.55 Q1757.45 1482.55 1759.26 1479.01 Q1761.09 1475.44 1761.09 1468.33 Q1761.09 1461.2 1759.26 1457.66 Q1757.45 1454.1 1753.82 1454.1 M1753.82 1450.39 Q1759.63 1450.39 1762.69 1455 Q1765.77 1459.58 1765.77 1468.33 Q1765.77 1477.06 1762.69 1481.67 Q1759.63 1486.25 1753.82 1486.25 Q1748.01 1486.25 1744.93 1481.67 Q1741.88 1477.06 1741.88 1468.33 Q1741.88 1459.58 1744.93 1455 Q1748.01 1450.39 1753.82 1450.39 Z" fill="#000000" fill-rule="evenodd" fill-opacity="1" /><path clip-path="url(#clip170)" d="M2081.22 1466.95 Q2084.58 1467.66 2086.45 1469.93 Q2088.35 1472.2 2088.35 1475.53 Q2088.35 1480.65 2084.83 1483.45 Q2081.31 1486.25 2074.83 1486.25 Q2072.66 1486.25 2070.34 1485.81 Q2068.05 1485.39 2065.6 1484.54 L2065.6 1480.02 Q2067.54 1481.16 2069.86 1481.74 Q2072.17 1482.32 2074.69 1482.32 Q2079.09 1482.32 2081.38 1480.58 Q2083.7 1478.84 2083.7 1475.53 Q2083.7 1472.48 2081.55 1470.77 Q2079.42 1469.03 2075.6 1469.03 L2071.57 1469.03 L2071.57 1465.19 L2075.78 1465.19 Q2079.23 1465.19 2081.06 1463.82 Q2082.89 1462.43 2082.89 1459.84 Q2082.89 1457.18 2080.99 1455.77 Q2079.11 1454.33 2075.6 1454.33 Q2073.67 1454.33 2071.48 1454.75 Q2069.28 1455.16 2066.64 1456.04 L2066.64 1451.88 Q2069.3 1451.14 2071.61 1450.77 Q2073.95 1450.39 2076.01 1450.39 Q2081.34 1450.39 2084.44 1452.83 Q2087.54 1455.23 2087.54 1459.35 Q2087.54 1462.22 2085.9 1464.21 Q2084.25 1466.18 2081.22 1466.95 Z" fill="#000000" fill-rule="evenodd" fill-opacity="1" /><path clip-path="url(#clip170)" d="M2107.22 1454.1 Q2103.61 1454.1 2101.78 1457.66 Q2099.97 1461.2 2099.97 1468.33 Q2099.97 1475.44 2101.78 1479.01 Q2103.61 1482.55 2107.22 1482.55 Q2110.85 1482.55 2112.66 1479.01 Q2114.48 1475.44 2114.48 1468.33 Q2114.48 1461.2 2112.66 1457.66 Q2110.85 1454.1 2107.22 1454.1 M2107.22 1450.39 Q2113.03 1450.39 2116.08 1455 Q2119.16 1459.58 2119.16 1468.33 Q2119.16 1477.06 2116.08 1481.67 Q2113.03 1486.25 2107.22 1486.25 Q2101.41 1486.25 2098.33 1481.67 Q2095.27 1477.06 2095.27 1468.33 Q2095.27 1459.58 2098.33 1455 Q2101.41 1450.39 2107.22 1450.39 Z" fill="#000000" fill-rule="evenodd" fill-opacity="1" /><path clip-path="url(#clip170)" d="M2137.38 1454.1 Q2133.77 1454.1 2131.94 1457.66 Q2130.13 1461.2 2130.13 1468.33 Q2130.13 1475.44 2131.94 1479.01 Q2133.77 1482.55 2137.38 1482.55 Q2141.01 1482.55 2142.82 1479.01 Q2144.65 1475.44 2144.65 1468.33 Q2144.65 1461.2 2142.82 1457.66 Q2141.01 1454.1 2137.38 1454.1 M2137.38 1450.39 Q2143.19 1450.39 2146.24 1455 Q2149.32 1459.58 2149.32 1468.33 Q2149.32 1477.06 2146.24 1481.67 Q2143.19 1486.25 2137.38 1486.25 Q2131.57 1486.25 2128.49 1481.67 Q2125.43 1477.06 2125.43 1468.33 Q2125.43 1459.58 2128.49 1455 Q2131.57 1450.39 2137.38 1450.39 Z" fill="#000000" fill-rule="evenodd" fill-opacity="1" /><path clip-path="url(#clip170)" d="M2167.54 1454.1 Q2163.93 1454.1 2162.1 1457.66 Q2160.29 1461.2 2160.29 1468.33 Q2160.29 1475.44 2162.1 1479.01 Q2163.93 1482.55 2167.54 1482.55 Q2171.17 1482.55 2172.98 1479.01 Q2174.81 1475.44 2174.81 1468.33 Q2174.81 1461.2 2172.98 1457.66 Q2171.17 1454.1 2167.54 1454.1 M2167.54 1450.39 Q2173.35 1450.39 2176.41 1455 Q2179.48 1459.58 2179.48 1468.33 Q2179.48 1477.06 2176.41 1481.67 Q2173.35 1486.25 2167.54 1486.25 Q2161.73 1486.25 2158.65 1481.67 Q2155.6 1477.06 2155.6 1468.33 Q2155.6 1459.58 2158.65 1455 Q2161.73 1450.39 2167.54 1450.39 Z" fill="#000000" fill-rule="evenodd" fill-opacity="1" /><path clip-path="url(#clip170)" d="M1251.09 1526.86 L1242.37 1550.51 L1259.84 1550.51 L1251.09 1526.86 M1247.46 1520.52 L1254.75 1520.52 L1272.86 1568.04 L1266.17 1568.04 L1261.85 1555.85 L1240.42 1555.85 L1236.1 1568.04 L1229.32 1568.04 L1247.46 1520.52 Z" fill="#000000" fill-rule="evenodd" fill-opacity="1" /><path clip-path="url(#clip170)" d="M1286.23 1525.81 L1286.23 1562.76 L1293.99 1562.76 Q1303.83 1562.76 1308.38 1558.3 Q1312.96 1553.85 1312.96 1544.24 Q1312.96 1534.69 1308.38 1530.26 Q1303.83 1525.81 1293.99 1525.81 L1286.23 1525.81 M1279.8 1520.52 L1293.01 1520.52 Q1306.82 1520.52 1313.28 1526.28 Q1319.74 1532.01 1319.74 1544.24 Q1319.74 1556.52 1313.25 1562.28 Q1306.76 1568.04 1293.01 1568.04 L1279.8 1568.04 L1279.8 1520.52 Z" fill="#000000" fill-rule="evenodd" fill-opacity="1" /><path clip-path="url(#clip170)" d="M1365.57 1524.18 L1365.57 1530.96 Q1362.33 1527.94 1358.64 1526.44 Q1354.98 1524.95 1350.84 1524.95 Q1342.69 1524.95 1338.36 1529.95 Q1334.03 1534.91 1334.03 1544.33 Q1334.03 1553.72 1338.36 1558.72 Q1342.69 1563.68 1350.84 1563.68 Q1354.98 1563.68 1358.64 1562.19 Q1362.33 1560.69 1365.57 1557.67 L1365.57 1564.38 Q1362.2 1566.68 1358.41 1567.82 Q1354.66 1568.97 1350.46 1568.97 Q1339.67 1568.97 1333.46 1562.38 Q1327.25 1555.76 1327.25 1544.33 Q1327.25 1532.87 1333.46 1526.28 Q1339.67 1519.66 1350.46 1519.66 Q1354.72 1519.66 1358.48 1520.81 Q1362.26 1521.92 1365.57 1524.18 Z" fill="#000000" fill-rule="evenodd" fill-opacity="1" /><polyline clip-path="url(#clip172)" style="stroke:#000000; stroke-linecap:butt; stroke-linejoin:round; stroke-width:2; stroke-opacity:0.1; fill:none" points="
  242.135,1364.52 2352.76,1364.52 
  "/>
<polyline clip-path="url(#clip172)" style="stroke:#000000; stroke-linecap:butt; stroke-linejoin:round; stroke-width:2; stroke-opacity:0.1; fill:none" points="
  242.135,1163.81 2352.76,1163.81 
  "/>
<polyline clip-path="url(#clip172)" style="stroke:#000000; stroke-linecap:butt; stroke-linejoin:round; stroke-width:2; stroke-opacity:0.1; fill:none" points="
  242.135,963.096 2352.76,963.096 
  "/>
<polyline clip-path="url(#clip172)" style="stroke:#000000; stroke-linecap:butt; stroke-linejoin:round; stroke-width:2; stroke-opacity:0.1; fill:none" points="
  242.135,762.386 2352.76,762.386 
  "/>
<polyline clip-path="url(#clip172)" style="stroke:#000000; stroke-linecap:butt; stroke-linejoin:round; stroke-width:2; stroke-opacity:0.1; fill:none" points="
  242.135,561.676 2352.76,561.676 
  "/>
<polyline clip-path="url(#clip172)" style="stroke:#000000; stroke-linecap:butt; stroke-linejoin:round; stroke-width:2; stroke-opacity:0.1; fill:none" points="
  242.135,360.966 2352.76,360.966 
  "/>
<polyline clip-path="url(#clip172)" style="stroke:#000000; stroke-linecap:butt; stroke-linejoin:round; stroke-width:2; stroke-opacity:0.1; fill:none" points="
  242.135,160.256 2352.76,160.256 
  "/>
<polyline clip-path="url(#clip170)" style="stroke:#000000; stroke-linecap:butt; stroke-linejoin:round; stroke-width:4; stroke-opacity:1; fill:none" points="
  242.135,1423.18 242.135,123.472 
  "/>
<polyline clip-path="url(#clip170)" style="stroke:#000000; stroke-linecap:butt; stroke-linejoin:round; stroke-width:4; stroke-opacity:1; fill:none" points="
  242.135,1364.52 261.032,1364.52 
  "/>
<polyline clip-path="url(#clip170)" style="stroke:#000000; stroke-linecap:butt; stroke-linejoin:round; stroke-width:4; stroke-opacity:1; fill:none" points="
  242.135,1163.81 261.032,1163.81 
  "/>
<polyline clip-path="url(#clip170)" style="stroke:#000000; stroke-linecap:butt; stroke-linejoin:round; stroke-width:4; stroke-opacity:1; fill:none" points="
  242.135,963.096 261.032,963.096 
  "/>
<polyline clip-path="url(#clip170)" style="stroke:#000000; stroke-linecap:butt; stroke-linejoin:round; stroke-width:4; stroke-opacity:1; fill:none" points="
  242.135,762.386 261.032,762.386 
  "/>
<polyline clip-path="url(#clip170)" style="stroke:#000000; stroke-linecap:butt; stroke-linejoin:round; stroke-width:4; stroke-opacity:1; fill:none" points="
  242.135,561.676 261.032,561.676 
  "/>
<polyline clip-path="url(#clip170)" style="stroke:#000000; stroke-linecap:butt; stroke-linejoin:round; stroke-width:4; stroke-opacity:1; fill:none" points="
  242.135,360.966 261.032,360.966 
  "/>
<polyline clip-path="url(#clip170)" style="stroke:#000000; stroke-linecap:butt; stroke-linejoin:round; stroke-width:4; stroke-opacity:1; fill:none" points="
  242.135,160.256 261.032,160.256 
  "/>
<path clip-path="url(#clip170)" d="M114.26 1364.97 L143.936 1364.97 L143.936 1368.9 L114.26 1368.9 L114.26 1364.97 Z" fill="#000000" fill-rule="evenodd" fill-opacity="1" /><path clip-path="url(#clip170)" d="M164.607 1362.65 Q161.459 1362.65 159.607 1364.81 Q157.778 1366.96 157.778 1370.71 Q157.778 1374.43 159.607 1376.61 Q161.459 1378.76 164.607 1378.76 Q167.755 1378.76 169.584 1376.61 Q171.436 1374.43 171.436 1370.71 Q171.436 1366.96 169.584 1364.81 Q167.755 1362.65 164.607 1362.65 M173.889 1348 L173.889 1352.26 Q172.13 1351.43 170.325 1350.99 Q168.542 1350.55 166.783 1350.55 Q162.153 1350.55 159.7 1353.67 Q157.269 1356.8 156.922 1363.12 Q158.288 1361.1 160.348 1360.04 Q162.408 1358.95 164.885 1358.95 Q170.093 1358.95 173.102 1362.12 Q176.135 1365.27 176.135 1370.71 Q176.135 1376.03 172.987 1379.25 Q169.839 1382.47 164.607 1382.47 Q158.612 1382.47 155.44 1377.88 Q152.269 1373.28 152.269 1364.55 Q152.269 1356.36 156.158 1351.5 Q160.047 1346.61 166.598 1346.61 Q168.357 1346.61 170.139 1346.96 Q171.945 1347.31 173.889 1348 Z" fill="#000000" fill-rule="evenodd" fill-opacity="1" /><path clip-path="url(#clip170)" d="M194.19 1350.31 Q190.579 1350.31 188.75 1353.88 Q186.945 1357.42 186.945 1364.55 Q186.945 1371.66 188.75 1375.22 Q190.579 1378.76 194.19 1378.76 Q197.825 1378.76 199.63 1375.22 Q201.459 1371.66 201.459 1364.55 Q201.459 1357.42 199.63 1353.88 Q197.825 1350.31 194.19 1350.31 M194.19 1346.61 Q200 1346.61 203.056 1351.22 Q206.135 1355.8 206.135 1364.55 Q206.135 1373.28 203.056 1377.88 Q200 1382.47 194.19 1382.47 Q188.38 1382.47 185.301 1377.88 Q182.246 1373.28 182.246 1364.55 Q182.246 1355.8 185.301 1351.22 Q188.38 1346.61 194.19 1346.61 Z" fill="#000000" fill-rule="evenodd" fill-opacity="1" /><path clip-path="url(#clip170)" d="M114.26 1164.26 L143.936 1164.26 L143.936 1168.19 L114.26 1168.19 L114.26 1164.26 Z" fill="#000000" fill-rule="evenodd" fill-opacity="1" /><path clip-path="url(#clip170)" d="M154.075 1146.53 L172.431 1146.53 L172.431 1150.46 L158.357 1150.46 L158.357 1158.93 Q159.376 1158.59 160.394 1158.42 Q161.413 1158.24 162.431 1158.24 Q168.218 1158.24 171.598 1161.41 Q174.977 1164.58 174.977 1170 Q174.977 1175.58 171.505 1178.68 Q168.033 1181.76 161.714 1181.76 Q159.538 1181.76 157.269 1181.39 Q155.024 1181.02 152.616 1180.28 L152.616 1175.58 Q154.7 1176.71 156.922 1177.27 Q159.144 1177.82 161.621 1177.82 Q165.626 1177.82 167.964 1175.72 Q170.302 1173.61 170.302 1170 Q170.302 1166.39 167.964 1164.28 Q165.626 1162.17 161.621 1162.17 Q159.746 1162.17 157.871 1162.59 Q156.019 1163.01 154.075 1163.89 L154.075 1146.53 Z" fill="#000000" fill-rule="evenodd" fill-opacity="1" /><path clip-path="url(#clip170)" d="M194.19 1149.6 Q190.579 1149.6 188.75 1153.17 Q186.945 1156.71 186.945 1163.84 Q186.945 1170.95 188.75 1174.51 Q190.579 1178.05 194.19 1178.05 Q197.825 1178.05 199.63 1174.51 Q201.459 1170.95 201.459 1163.84 Q201.459 1156.71 199.63 1153.17 Q197.825 1149.6 194.19 1149.6 M194.19 1145.9 Q200 1145.9 203.056 1150.51 Q206.135 1155.09 206.135 1163.84 Q206.135 1172.57 203.056 1177.17 Q200 1181.76 194.19 1181.76 Q188.38 1181.76 185.301 1177.17 Q182.246 1172.57 182.246 1163.84 Q182.246 1155.09 185.301 1150.51 Q188.38 1145.9 194.19 1145.9 Z" fill="#000000" fill-rule="evenodd" fill-opacity="1" /><path clip-path="url(#clip170)" d="M114.26 963.547 L143.936 963.547 L143.936 967.483 L114.26 967.483 L114.26 963.547 Z" fill="#000000" fill-rule="evenodd" fill-opacity="1" /><path clip-path="url(#clip170)" d="M166.876 949.89 L155.07 968.339 L166.876 968.339 L166.876 949.89 M165.649 945.816 L171.528 945.816 L171.528 968.339 L176.459 968.339 L176.459 972.228 L171.528 972.228 L171.528 980.376 L166.876 980.376 L166.876 972.228 L151.274 972.228 L151.274 967.714 L165.649 945.816 Z" fill="#000000" fill-rule="evenodd" fill-opacity="1" /><path clip-path="url(#clip170)" d="M194.19 948.895 Q190.579 948.895 188.75 952.46 Q186.945 956.001 186.945 963.131 Q186.945 970.237 188.75 973.802 Q190.579 977.344 194.19 977.344 Q197.825 977.344 199.63 973.802 Q201.459 970.237 201.459 963.131 Q201.459 956.001 199.63 952.46 Q197.825 948.895 194.19 948.895 M194.19 945.191 Q200 945.191 203.056 949.798 Q206.135 954.381 206.135 963.131 Q206.135 971.858 203.056 976.464 Q200 981.047 194.19 981.047 Q188.38 981.047 185.301 976.464 Q182.246 971.858 182.246 963.131 Q182.246 954.381 185.301 949.798 Q188.38 945.191 194.19 945.191 Z" fill="#000000" fill-rule="evenodd" fill-opacity="1" /><path clip-path="url(#clip170)" d="M114.26 762.837 L143.936 762.837 L143.936 766.773 L114.26 766.773 L114.26 762.837 Z" fill="#000000" fill-rule="evenodd" fill-opacity="1" /><path clip-path="url(#clip170)" d="M168.195 761.032 Q171.552 761.75 173.427 764.018 Q175.325 766.287 175.325 769.62 Q175.325 774.736 171.806 777.536 Q168.288 780.337 161.806 780.337 Q159.63 780.337 157.315 779.898 Q155.024 779.481 152.57 778.624 L152.57 774.111 Q154.515 775.245 156.829 775.824 Q159.144 776.402 161.667 776.402 Q166.065 776.402 168.357 774.666 Q170.672 772.93 170.672 769.62 Q170.672 766.564 168.519 764.851 Q166.39 763.115 162.57 763.115 L158.542 763.115 L158.542 759.273 L162.755 759.273 Q166.204 759.273 168.033 757.907 Q169.862 756.518 169.862 753.926 Q169.862 751.263 167.964 749.851 Q166.089 748.416 162.57 748.416 Q160.649 748.416 158.45 748.833 Q156.251 749.25 153.612 750.129 L153.612 745.963 Q156.274 745.222 158.589 744.851 Q160.927 744.481 162.987 744.481 Q168.311 744.481 171.413 746.912 Q174.514 749.319 174.514 753.439 Q174.514 756.31 172.871 758.3 Q171.227 760.268 168.195 761.032 Z" fill="#000000" fill-rule="evenodd" fill-opacity="1" /><path clip-path="url(#clip170)" d="M194.19 748.185 Q190.579 748.185 188.75 751.75 Q186.945 755.291 186.945 762.421 Q186.945 769.527 188.75 773.092 Q190.579 776.634 194.19 776.634 Q197.825 776.634 199.63 773.092 Q201.459 769.527 201.459 762.421 Q201.459 755.291 199.63 751.75 Q197.825 748.185 194.19 748.185 M194.19 744.481 Q200 744.481 203.056 749.088 Q206.135 753.671 206.135 762.421 Q206.135 771.148 203.056 775.754 Q200 780.337 194.19 780.337 Q188.38 780.337 185.301 775.754 Q182.246 771.148 182.246 762.421 Q182.246 753.671 185.301 749.088 Q188.38 744.481 194.19 744.481 Z" fill="#000000" fill-rule="evenodd" fill-opacity="1" /><path clip-path="url(#clip170)" d="M114.26 562.128 L143.936 562.128 L143.936 566.063 L114.26 566.063 L114.26 562.128 Z" fill="#000000" fill-rule="evenodd" fill-opacity="1" /><path clip-path="url(#clip170)" d="M158.056 575.021 L174.376 575.021 L174.376 578.956 L152.431 578.956 L152.431 575.021 Q155.093 572.266 159.677 567.637 Q164.283 562.984 165.464 561.641 Q167.709 559.118 168.589 557.382 Q169.491 555.623 169.491 553.933 Q169.491 551.179 167.547 549.442 Q165.626 547.706 162.524 547.706 Q160.325 547.706 157.871 548.47 Q155.44 549.234 152.663 550.785 L152.663 546.063 Q155.487 544.929 157.94 544.35 Q160.394 543.771 162.431 543.771 Q167.802 543.771 170.996 546.456 Q174.19 549.142 174.19 553.632 Q174.19 555.762 173.38 557.683 Q172.593 559.581 170.487 562.174 Q169.908 562.845 166.806 566.063 Q163.704 569.257 158.056 575.021 Z" fill="#000000" fill-rule="evenodd" fill-opacity="1" /><path clip-path="url(#clip170)" d="M194.19 547.475 Q190.579 547.475 188.75 551.04 Q186.945 554.581 186.945 561.711 Q186.945 568.817 188.75 572.382 Q190.579 575.924 194.19 575.924 Q197.825 575.924 199.63 572.382 Q201.459 568.817 201.459 561.711 Q201.459 554.581 199.63 551.04 Q197.825 547.475 194.19 547.475 M194.19 543.771 Q200 543.771 203.056 548.378 Q206.135 552.961 206.135 561.711 Q206.135 570.438 203.056 575.044 Q200 579.627 194.19 579.627 Q188.38 579.627 185.301 575.044 Q182.246 570.438 182.246 561.711 Q182.246 552.961 185.301 548.378 Q188.38 543.771 194.19 543.771 Z" fill="#000000" fill-rule="evenodd" fill-opacity="1" /><path clip-path="url(#clip170)" d="M114.26 361.418 L143.936 361.418 L143.936 365.353 L114.26 365.353 L114.26 361.418 Z" fill="#000000" fill-rule="evenodd" fill-opacity="1" /><path clip-path="url(#clip170)" d="M154.839 374.311 L162.477 374.311 L162.477 347.945 L154.167 349.612 L154.167 345.353 L162.431 343.686 L167.107 343.686 L167.107 374.311 L174.746 374.311 L174.746 378.246 L154.839 378.246 L154.839 374.311 Z" fill="#000000" fill-rule="evenodd" fill-opacity="1" /><path clip-path="url(#clip170)" d="M194.19 346.765 Q190.579 346.765 188.75 350.33 Q186.945 353.871 186.945 361.001 Q186.945 368.107 188.75 371.672 Q190.579 375.214 194.19 375.214 Q197.825 375.214 199.63 371.672 Q201.459 368.107 201.459 361.001 Q201.459 353.871 199.63 350.33 Q197.825 346.765 194.19 346.765 M194.19 343.061 Q200 343.061 203.056 347.668 Q206.135 352.251 206.135 361.001 Q206.135 369.728 203.056 374.334 Q200 378.918 194.19 378.918 Q188.38 378.918 185.301 374.334 Q182.246 369.728 182.246 361.001 Q182.246 352.251 185.301 347.668 Q188.38 343.061 194.19 343.061 Z" fill="#000000" fill-rule="evenodd" fill-opacity="1" /><path clip-path="url(#clip170)" d="M194.19 146.055 Q190.579 146.055 188.75 149.62 Q186.945 153.161 186.945 160.291 Q186.945 167.397 188.75 170.962 Q190.579 174.504 194.19 174.504 Q197.825 174.504 199.63 170.962 Q201.459 167.397 201.459 160.291 Q201.459 153.161 199.63 149.62 Q197.825 146.055 194.19 146.055 M194.19 142.351 Q200 142.351 203.056 146.958 Q206.135 151.541 206.135 160.291 Q206.135 169.018 203.056 173.624 Q200 178.208 194.19 178.208 Q188.38 178.208 185.301 173.624 Q182.246 169.018 182.246 160.291 Q182.246 151.541 185.301 146.958 Q188.38 142.351 194.19 142.351 Z" fill="#000000" fill-rule="evenodd" fill-opacity="1" /><path clip-path="url(#clip170)" d="M33.7671 817.552 L14.479 817.552 L14.479 811.695 L64.0042 811.695 L64.0042 817.552 L58.657 817.552 Q61.8398 819.398 63.3994 822.231 Q64.9272 825.031 64.9272 828.978 Q64.9272 835.439 59.771 839.513 Q54.6147 843.556 46.212 843.556 Q37.8093 843.556 32.6531 839.513 Q27.4968 835.439 27.4968 828.978 Q27.4968 825.031 29.0564 822.231 Q30.5842 819.398 33.7671 817.552 M46.212 837.508 Q52.6732 837.508 56.3653 834.866 Q60.0256 832.193 60.0256 827.546 Q60.0256 822.899 56.3653 820.225 Q52.6732 817.552 46.212 817.552 Q39.7508 817.552 36.0905 820.225 Q32.3984 822.899 32.3984 827.546 Q32.3984 832.193 36.0905 834.866 Q39.7508 837.508 46.212 837.508 Z" fill="#000000" fill-rule="evenodd" fill-opacity="1" /><path clip-path="url(#clip170)" d="M41.3104 792.948 L58.7206 792.948 L58.7206 782.636 Q58.7206 777.448 56.5881 774.965 Q54.4238 772.451 49.9996 772.451 Q45.5436 772.451 43.4429 774.965 Q41.3104 777.448 41.3104 782.636 L41.3104 792.948 M21.7677 792.948 L36.0905 792.948 L36.0905 783.432 Q36.0905 778.721 34.34 776.429 Q32.5576 774.106 28.9291 774.106 Q25.3325 774.106 23.5501 776.429 Q21.7677 778.721 21.7677 783.432 L21.7677 792.948 M16.4842 799.378 L16.4842 782.954 Q16.4842 775.602 19.5397 771.623 Q22.5952 767.645 28.2289 767.645 Q32.5894 767.645 35.1675 769.682 Q37.7456 771.719 38.3822 775.665 Q39.4007 770.923 42.6472 768.313 Q45.8619 765.671 50.6998 765.671 Q57.0655 765.671 60.5348 770 Q64.0042 774.329 64.0042 782.318 L64.0042 799.378 L16.4842 799.378 Z" fill="#000000" fill-rule="evenodd" fill-opacity="1" /><path clip-path="url(#clip170)" d="M35.1993 727.159 Q31.2526 724.963 29.3747 721.907 Q27.4968 718.851 27.4968 714.714 Q27.4968 709.144 31.4117 706.12 Q35.2948 703.096 42.4881 703.096 L64.0042 703.096 L64.0042 708.985 L42.679 708.985 Q37.5546 708.985 35.072 710.799 Q32.5894 712.613 32.5894 716.337 Q32.5894 720.888 35.6131 723.53 Q38.6368 726.172 43.8567 726.172 L64.0042 726.172 L64.0042 732.06 L42.679 732.06 Q37.5228 732.06 35.072 733.875 Q32.5894 735.689 32.5894 739.476 Q32.5894 743.964 35.6449 746.606 Q38.6686 749.248 43.8567 749.248 L64.0042 749.248 L64.0042 755.136 L28.3562 755.136 L28.3562 749.248 L33.8944 749.248 Q30.616 747.243 29.0564 744.442 Q27.4968 741.641 27.4968 737.789 Q27.4968 733.906 29.4702 731.201 Q31.4436 728.464 35.1993 727.159 Z" fill="#000000" fill-rule="evenodd" fill-opacity="1" /><path clip-path="url(#clip170)" d="M1134.03 19.2256 L1113.37 51.5113 L1134.03 51.5113 L1134.03 19.2256 M1131.88 12.096 L1142.17 12.096 L1142.17 51.5113 L1150.8 51.5113 L1150.8 58.3168 L1142.17 58.3168 L1142.17 72.576 L1134.03 72.576 L1134.03 58.3168 L1106.73 58.3168 L1106.73 50.4176 L1131.88 12.096 Z" fill="#000000" fill-rule="evenodd" fill-opacity="1" /><path clip-path="url(#clip170)" d="M1170.65 14.324 L1170.65 27.2059 L1186 27.2059 L1186 32.9987 L1170.65 32.9987 L1170.65 57.6282 Q1170.65 63.1779 1172.15 64.7578 Q1173.69 66.3376 1178.35 66.3376 L1186 66.3376 L1186 72.576 L1178.35 72.576 Q1169.72 72.576 1166.44 69.3758 Q1163.16 66.1351 1163.16 57.6282 L1163.16 32.9987 L1157.69 32.9987 L1157.69 27.2059 L1163.16 27.2059 L1163.16 14.324 L1170.65 14.324 Z" fill="#000000" fill-rule="evenodd" fill-opacity="1" /><path clip-path="url(#clip170)" d="M1233.52 45.1919 L1233.52 72.576 L1226.07 72.576 L1226.07 45.4349 Q1226.07 38.994 1223.56 35.7938 Q1221.05 32.5936 1216.02 32.5936 Q1209.99 32.5936 1206.5 36.4419 Q1203.02 40.2903 1203.02 46.9338 L1203.02 72.576 L1195.52 72.576 L1195.52 9.54393 L1203.02 9.54393 L1203.02 34.2544 Q1205.69 30.163 1209.3 28.1376 Q1212.94 26.1121 1217.68 26.1121 Q1225.5 26.1121 1229.51 30.9732 Q1233.52 35.7938 1233.52 45.1919 Z" fill="#000000" fill-rule="evenodd" fill-opacity="1" /><path clip-path="url(#clip170)" d="M1292.34 32.4315 Q1286.35 32.4315 1282.86 37.1306 Q1279.38 41.7891 1279.38 49.9314 Q1279.38 58.0738 1282.82 62.7728 Q1286.31 67.4314 1292.34 67.4314 Q1298.3 67.4314 1301.78 62.7323 Q1305.26 58.0333 1305.26 49.9314 Q1305.26 41.8701 1301.78 37.1711 Q1298.3 32.4315 1292.34 32.4315 M1292.34 26.1121 Q1302.06 26.1121 1307.61 32.4315 Q1313.16 38.7509 1313.16 49.9314 Q1313.16 61.0714 1307.61 67.4314 Q1302.06 73.7508 1292.34 73.7508 Q1282.58 73.7508 1277.03 67.4314 Q1271.52 61.0714 1271.52 49.9314 Q1271.52 38.7509 1277.03 32.4315 Q1282.58 26.1121 1292.34 26.1121 Z" fill="#000000" fill-rule="evenodd" fill-opacity="1" /><path clip-path="url(#clip170)" d="M1351.81 34.1734 Q1350.55 33.4443 1349.05 33.1202 Q1347.6 32.7556 1345.81 32.7556 Q1339.49 32.7556 1336.09 36.8875 Q1332.73 40.9789 1332.73 48.6757 L1332.73 72.576 L1325.23 72.576 L1325.23 27.2059 L1332.73 27.2059 L1332.73 34.2544 Q1335.08 30.1225 1338.85 28.1376 Q1342.61 26.1121 1348 26.1121 Q1348.77 26.1121 1349.7 26.2337 Q1350.63 26.3147 1351.77 26.5172 L1351.81 34.1734 Z" fill="#000000" fill-rule="evenodd" fill-opacity="1" /><path clip-path="url(#clip170)" d="M1388.02 34.0924 L1388.02 9.54393 L1395.48 9.54393 L1395.48 72.576 L1388.02 72.576 L1388.02 65.7705 Q1385.67 69.8214 1382.07 71.8063 Q1378.5 73.7508 1373.48 73.7508 Q1365.26 73.7508 1360.07 67.1883 Q1354.93 60.6258 1354.93 49.9314 Q1354.93 39.2371 1360.07 32.6746 Q1365.26 26.1121 1373.48 26.1121 Q1378.5 26.1121 1382.07 28.0971 Q1385.67 30.0415 1388.02 34.0924 M1362.62 49.9314 Q1362.62 58.1548 1365.99 62.8538 Q1369.39 67.5124 1375.3 67.5124 Q1381.22 67.5124 1384.62 62.8538 Q1388.02 58.1548 1388.02 49.9314 Q1388.02 41.7081 1384.62 37.0496 Q1381.22 32.3505 1375.3 32.3505 Q1369.39 32.3505 1365.99 37.0496 Q1362.62 41.7081 1362.62 49.9314 Z" fill="#000000" fill-rule="evenodd" fill-opacity="1" /><path clip-path="url(#clip170)" d="M1449.64 48.0275 L1449.64 51.6733 L1415.37 51.6733 Q1415.85 59.3701 1419.99 63.421 Q1424.16 67.4314 1431.57 67.4314 Q1435.86 67.4314 1439.88 66.3781 Q1443.93 65.3249 1447.9 63.2184 L1447.9 70.267 Q1443.89 71.9684 1439.67 72.8596 Q1435.46 73.7508 1431.13 73.7508 Q1420.27 73.7508 1413.91 67.4314 Q1407.59 61.1119 1407.59 50.3365 Q1407.59 39.1965 1413.58 32.6746 Q1419.62 26.1121 1429.83 26.1121 Q1438.98 26.1121 1444.29 32.0264 Q1449.64 37.9003 1449.64 48.0275 M1442.18 45.84 Q1442.1 39.7232 1438.74 36.0774 Q1435.42 32.4315 1429.91 32.4315 Q1423.67 32.4315 1419.9 35.9558 Q1416.18 39.4801 1415.61 45.8805 L1442.18 45.84 Z" fill="#000000" fill-rule="evenodd" fill-opacity="1" /><path clip-path="url(#clip170)" d="M1488.16 34.1734 Q1486.91 33.4443 1485.41 33.1202 Q1483.95 32.7556 1482.17 32.7556 Q1475.85 32.7556 1472.44 36.8875 Q1469.08 40.9789 1469.08 48.6757 L1469.08 72.576 L1461.59 72.576 L1461.59 27.2059 L1469.08 27.2059 L1469.08 34.2544 Q1471.43 30.1225 1475.2 28.1376 Q1478.97 26.1121 1484.35 26.1121 Q1485.12 26.1121 1486.06 26.2337 Q1486.99 26.3147 1488.12 26.5172 L1488.16 34.1734 Z" fill="#000000" fill-rule="evenodd" fill-opacity="1" /><circle clip-path="url(#clip172)" cx="301.869" cy="160.256" r="14" fill="#009af9" fill-rule="evenodd" fill-opacity="1" stroke="#000000" stroke-opacity="1" stroke-width="3.2"/>
<circle clip-path="url(#clip172)" cx="315.938" cy="180.327" r="14" fill="#009af9" fill-rule="evenodd" fill-opacity="1" stroke="#000000" stroke-opacity="1" stroke-width="3.2"/>
<circle clip-path="url(#clip172)" cx="339.938" cy="200.398" r="14" fill="#009af9" fill-rule="evenodd" fill-opacity="1" stroke="#000000" stroke-opacity="1" stroke-width="3.2"/>
<circle clip-path="url(#clip172)" cx="358.972" cy="220.469" r="14" fill="#009af9" fill-rule="evenodd" fill-opacity="1" stroke="#000000" stroke-opacity="1" stroke-width="3.2"/>
<circle clip-path="url(#clip172)" cx="385.455" cy="240.54" r="14" fill="#009af9" fill-rule="evenodd" fill-opacity="1" stroke="#000000" stroke-opacity="1" stroke-width="3.2"/>
<circle clip-path="url(#clip172)" cx="416.075" cy="260.611" r="14" fill="#009af9" fill-rule="evenodd" fill-opacity="1" stroke="#000000" stroke-opacity="1" stroke-width="3.2"/>
<circle clip-path="url(#clip172)" cx="451.661" cy="280.682" r="14" fill="#009af9" fill-rule="evenodd" fill-opacity="1" stroke="#000000" stroke-opacity="1" stroke-width="3.2"/>
<circle clip-path="url(#clip172)" cx="482.281" cy="300.753" r="14" fill="#009af9" fill-rule="evenodd" fill-opacity="1" stroke="#000000" stroke-opacity="1" stroke-width="3.2"/>
<circle clip-path="url(#clip172)" cx="517.039" cy="320.824" r="14" fill="#009af9" fill-rule="evenodd" fill-opacity="1" stroke="#000000" stroke-opacity="1" stroke-width="3.2"/>
<circle clip-path="url(#clip172)" cx="548.487" cy="340.895" r="14" fill="#009af9" fill-rule="evenodd" fill-opacity="1" stroke="#000000" stroke-opacity="1" stroke-width="3.2"/>
<circle clip-path="url(#clip172)" cx="581.591" cy="360.966" r="14" fill="#009af9" fill-rule="evenodd" fill-opacity="1" stroke="#000000" stroke-opacity="1" stroke-width="3.2"/>
<circle clip-path="url(#clip172)" cx="633.728" cy="381.037" r="14" fill="#009af9" fill-rule="evenodd" fill-opacity="1" stroke="#000000" stroke-opacity="1" stroke-width="3.2"/>
<circle clip-path="url(#clip172)" cx="670.141" cy="401.108" r="14" fill="#009af9" fill-rule="evenodd" fill-opacity="1" stroke="#000000" stroke-opacity="1" stroke-width="3.2"/>
<circle clip-path="url(#clip172)" cx="702.417" cy="421.179" r="14" fill="#009af9" fill-rule="evenodd" fill-opacity="1" stroke="#000000" stroke-opacity="1" stroke-width="3.2"/>
<circle clip-path="url(#clip172)" cx="733.865" cy="441.25" r="14" fill="#009af9" fill-rule="evenodd" fill-opacity="1" stroke="#000000" stroke-opacity="1" stroke-width="3.2"/>
<circle clip-path="url(#clip172)" cx="769.451" cy="461.321" r="14" fill="#009af9" fill-rule="evenodd" fill-opacity="1" stroke="#000000" stroke-opacity="1" stroke-width="3.2"/>
<circle clip-path="url(#clip172)" cx="799.243" cy="481.392" r="14" fill="#009af9" fill-rule="evenodd" fill-opacity="1" stroke="#000000" stroke-opacity="1" stroke-width="3.2"/>
<circle clip-path="url(#clip172)" cx="837.312" cy="501.463" r="14" fill="#009af9" fill-rule="evenodd" fill-opacity="1" stroke="#000000" stroke-opacity="1" stroke-width="3.2"/>
<circle clip-path="url(#clip172)" cx="871.243" cy="521.534" r="14" fill="#009af9" fill-rule="evenodd" fill-opacity="1" stroke="#000000" stroke-opacity="1" stroke-width="3.2"/>
<circle clip-path="url(#clip172)" cx="902.691" cy="541.605" r="14" fill="#009af9" fill-rule="evenodd" fill-opacity="1" stroke="#000000" stroke-opacity="1" stroke-width="3.2"/>
<circle clip-path="url(#clip172)" cx="949.863" cy="561.676" r="14" fill="#009af9" fill-rule="evenodd" fill-opacity="1" stroke="#000000" stroke-opacity="1" stroke-width="3.2"/>
<circle clip-path="url(#clip172)" cx="980.483" cy="581.747" r="14" fill="#009af9" fill-rule="evenodd" fill-opacity="1" stroke="#000000" stroke-opacity="1" stroke-width="3.2"/>
<circle clip-path="url(#clip172)" cx="1014.41" cy="601.818" r="14" fill="#009af9" fill-rule="evenodd" fill-opacity="1" stroke="#000000" stroke-opacity="1" stroke-width="3.2"/>
<circle clip-path="url(#clip172)" cx="1045.03" cy="621.889" r="14" fill="#009af9" fill-rule="evenodd" fill-opacity="1" stroke="#000000" stroke-opacity="1" stroke-width="3.2"/>
<circle clip-path="url(#clip172)" cx="1074" cy="641.96" r="14" fill="#009af9" fill-rule="evenodd" fill-opacity="1" stroke="#000000" stroke-opacity="1" stroke-width="3.2"/>
<circle clip-path="url(#clip172)" cx="1110.41" cy="662.031" r="14" fill="#009af9" fill-rule="evenodd" fill-opacity="1" stroke="#000000" stroke-opacity="1" stroke-width="3.2"/>
<circle clip-path="url(#clip172)" cx="1138.55" cy="682.102" r="14" fill="#009af9" fill-rule="evenodd" fill-opacity="1" stroke="#000000" stroke-opacity="1" stroke-width="3.2"/>
<circle clip-path="url(#clip172)" cx="1176.62" cy="702.173" r="14" fill="#009af9" fill-rule="evenodd" fill-opacity="1" stroke="#000000" stroke-opacity="1" stroke-width="3.2"/>
<circle clip-path="url(#clip172)" cx="1211.38" cy="722.244" r="14" fill="#009af9" fill-rule="evenodd" fill-opacity="1" stroke="#000000" stroke-opacity="1" stroke-width="3.2"/>
<circle clip-path="url(#clip172)" cx="1242.83" cy="742.315" r="14" fill="#009af9" fill-rule="evenodd" fill-opacity="1" stroke="#000000" stroke-opacity="1" stroke-width="3.2"/>
<circle clip-path="url(#clip172)" cx="1292.48" cy="762.386" r="14" fill="#009af9" fill-rule="evenodd" fill-opacity="1" stroke="#000000" stroke-opacity="1" stroke-width="3.2"/>
<circle clip-path="url(#clip172)" cx="1323.93" cy="782.457" r="14" fill="#009af9" fill-rule="evenodd" fill-opacity="1" stroke="#000000" stroke-opacity="1" stroke-width="3.2"/>
<circle clip-path="url(#clip172)" cx="1362" cy="802.528" r="14" fill="#009af9" fill-rule="evenodd" fill-opacity="1" stroke="#000000" stroke-opacity="1" stroke-width="3.2"/>
<circle clip-path="url(#clip172)" cx="1396.75" cy="822.599" r="14" fill="#009af9" fill-rule="evenodd" fill-opacity="1" stroke="#000000" stroke-opacity="1" stroke-width="3.2"/>
<circle clip-path="url(#clip172)" cx="1433.17" cy="842.67" r="14" fill="#009af9" fill-rule="evenodd" fill-opacity="1" stroke="#000000" stroke-opacity="1" stroke-width="3.2"/>
<circle clip-path="url(#clip172)" cx="1474.55" cy="862.741" r="14" fill="#009af9" fill-rule="evenodd" fill-opacity="1" stroke="#000000" stroke-opacity="1" stroke-width="3.2"/>
<circle clip-path="url(#clip172)" cx="1521.72" cy="882.812" r="14" fill="#009af9" fill-rule="evenodd" fill-opacity="1" stroke="#000000" stroke-opacity="1" stroke-width="3.2"/>
<circle clip-path="url(#clip172)" cx="1564.75" cy="902.883" r="14" fill="#009af9" fill-rule="evenodd" fill-opacity="1" stroke="#000000" stroke-opacity="1" stroke-width="3.2"/>
<circle clip-path="url(#clip172)" cx="1616.89" cy="922.954" r="14" fill="#009af9" fill-rule="evenodd" fill-opacity="1" stroke="#000000" stroke-opacity="1" stroke-width="3.2"/>
<circle clip-path="url(#clip172)" cx="1669.03" cy="943.025" r="14" fill="#009af9" fill-rule="evenodd" fill-opacity="1" stroke="#000000" stroke-opacity="1" stroke-width="3.2"/>
<circle clip-path="url(#clip172)" cx="1726.96" cy="963.096" r="14" fill="#009af9" fill-rule="evenodd" fill-opacity="1" stroke="#000000" stroke-opacity="1" stroke-width="3.2"/>
<circle clip-path="url(#clip172)" cx="1793.99" cy="983.167" r="14" fill="#009af9" fill-rule="evenodd" fill-opacity="1" stroke="#000000" stroke-opacity="1" stroke-width="3.2"/>
<circle clip-path="url(#clip172)" cx="1835.37" cy="1003.24" r="14" fill="#009af9" fill-rule="evenodd" fill-opacity="1" stroke="#000000" stroke-opacity="1" stroke-width="3.2"/>
<circle clip-path="url(#clip172)" cx="1863.51" cy="1023.31" r="14" fill="#009af9" fill-rule="evenodd" fill-opacity="1" stroke="#000000" stroke-opacity="1" stroke-width="3.2"/>
<circle clip-path="url(#clip172)" cx="1887.51" cy="1043.38" r="14" fill="#009af9" fill-rule="evenodd" fill-opacity="1" stroke="#000000" stroke-opacity="1" stroke-width="3.2"/>
<circle clip-path="url(#clip172)" cx="1920.61" cy="1063.45" r="14" fill="#009af9" fill-rule="evenodd" fill-opacity="1" stroke="#000000" stroke-opacity="1" stroke-width="3.2"/>
<circle clip-path="url(#clip172)" cx="1942.96" cy="1083.52" r="14" fill="#009af9" fill-rule="evenodd" fill-opacity="1" stroke="#000000" stroke-opacity="1" stroke-width="3.2"/>
<circle clip-path="url(#clip172)" cx="1978.54" cy="1103.59" r="14" fill="#009af9" fill-rule="evenodd" fill-opacity="1" stroke="#000000" stroke-opacity="1" stroke-width="3.2"/>
<circle clip-path="url(#clip172)" cx="1994.27" cy="1123.66" r="14" fill="#009af9" fill-rule="evenodd" fill-opacity="1" stroke="#000000" stroke-opacity="1" stroke-width="3.2"/>
<circle clip-path="url(#clip172)" cx="2022.4" cy="1143.73" r="14" fill="#009af9" fill-rule="evenodd" fill-opacity="1" stroke="#000000" stroke-opacity="1" stroke-width="3.2"/>
<circle clip-path="url(#clip172)" cx="2046.4" cy="1163.81" r="14" fill="#009af9" fill-rule="evenodd" fill-opacity="1" stroke="#000000" stroke-opacity="1" stroke-width="3.2"/>
<circle clip-path="url(#clip172)" cx="2072.89" cy="1183.88" r="14" fill="#009af9" fill-rule="evenodd" fill-opacity="1" stroke="#000000" stroke-opacity="1" stroke-width="3.2"/>
<circle clip-path="url(#clip172)" cx="2097.71" cy="1203.95" r="14" fill="#009af9" fill-rule="evenodd" fill-opacity="1" stroke="#000000" stroke-opacity="1" stroke-width="3.2"/>
<circle clip-path="url(#clip172)" cx="2115.92" cy="1224.02" r="14" fill="#009af9" fill-rule="evenodd" fill-opacity="1" stroke="#000000" stroke-opacity="1" stroke-width="3.2"/>
<circle clip-path="url(#clip172)" cx="2134.13" cy="1244.09" r="14" fill="#009af9" fill-rule="evenodd" fill-opacity="1" stroke="#000000" stroke-opacity="1" stroke-width="3.2"/>
<circle clip-path="url(#clip172)" cx="2162.26" cy="1264.16" r="14" fill="#009af9" fill-rule="evenodd" fill-opacity="1" stroke="#000000" stroke-opacity="1" stroke-width="3.2"/>
<circle clip-path="url(#clip172)" cx="2181.3" cy="1284.23" r="14" fill="#009af9" fill-rule="evenodd" fill-opacity="1" stroke="#000000" stroke-opacity="1" stroke-width="3.2"/>
<circle clip-path="url(#clip172)" cx="2207.78" cy="1304.3" r="14" fill="#009af9" fill-rule="evenodd" fill-opacity="1" stroke="#000000" stroke-opacity="1" stroke-width="3.2"/>
<circle clip-path="url(#clip172)" cx="2232.61" cy="1324.37" r="14" fill="#009af9" fill-rule="evenodd" fill-opacity="1" stroke="#000000" stroke-opacity="1" stroke-width="3.2"/>
<circle clip-path="url(#clip172)" cx="2258.26" cy="1344.44" r="14" fill="#009af9" fill-rule="evenodd" fill-opacity="1" stroke="#000000" stroke-opacity="1" stroke-width="3.2"/>
<circle clip-path="url(#clip172)" cx="2293.02" cy="1364.52" r="14" fill="#009af9" fill-rule="evenodd" fill-opacity="1" stroke="#000000" stroke-opacity="1" stroke-width="3.2"/>
<polyline clip-path="url(#clip172)" style="stroke:#e26f46; stroke-linecap:butt; stroke-linejoin:round; stroke-width:4; stroke-opacity:1; fill:none" points="
  301.869,186.486 303.862,187.499 305.856,188.515 307.849,189.533 309.842,190.554 311.835,191.579 313.828,192.605 315.821,193.635 317.814,194.668 319.808,195.703 
  321.801,196.741 323.794,197.781 325.787,198.824 327.78,199.87 329.773,200.919 331.766,201.97 333.76,203.024 335.753,204.08 337.746,205.139 339.739,206.2 
  341.732,207.264 343.725,208.331 345.718,209.4 347.712,210.471 349.705,211.545 351.698,212.621 353.691,213.7 355.684,214.781 357.677,215.864 359.67,216.95 
  361.664,218.038 363.657,219.128 365.65,220.221 367.643,221.316 369.636,222.413 371.629,223.512 373.622,224.614 375.616,225.718 377.609,226.823 379.602,227.932 
  381.595,229.042 383.588,230.154 385.581,231.269 387.574,232.385 389.568,233.504 391.561,234.625 393.554,235.747 395.547,236.872 397.54,237.999 399.533,239.128 
  401.526,240.258 403.52,241.391 405.513,242.526 407.506,243.662 409.499,244.8 411.492,245.941 413.485,247.083 415.479,248.227 417.472,249.372 419.465,250.52 
  421.458,251.669 423.451,252.82 425.444,253.973 427.437,255.128 429.431,256.284 431.424,257.442 433.417,258.601 435.41,259.763 437.403,260.926 439.396,262.09 
  441.389,263.257 443.383,264.424 445.376,265.594 447.369,266.765 449.362,267.937 451.355,269.111 453.348,270.287 455.341,271.464 457.335,272.642 459.328,273.822 
  461.321,275.004 463.314,276.187 465.307,277.371 467.3,278.557 469.293,279.744 471.287,280.932 473.28,282.122 475.273,283.313 477.266,284.505 479.259,285.699 
  481.252,286.894 483.245,288.091 485.239,289.288 487.232,290.487 489.225,291.687 491.218,292.888 493.211,294.091 495.204,295.294 497.197,296.499 499.191,297.705 
  501.184,298.912 503.177,300.12 505.17,301.329 507.163,302.54 509.156,303.751 511.149,304.964 513.143,306.177 515.136,307.392 517.129,308.607 519.122,309.824 
  521.115,311.041 523.108,312.26 525.101,313.479 527.095,314.7 529.088,315.921 531.081,317.143 533.074,318.367 535.067,319.591 537.06,320.816 539.054,322.041 
  541.047,323.268 543.04,324.495 545.033,325.724 547.026,326.953 549.019,328.182 551.012,329.413 553.006,330.644 554.999,331.876 556.992,333.109 558.985,334.343 
  560.978,335.577 562.971,336.812 564.964,338.047 566.958,339.283 568.951,340.52 570.944,341.758 572.937,342.996 574.93,344.234 576.923,345.474 578.916,346.714 
  580.91,347.954 582.903,349.195 584.896,350.437 586.889,351.679 588.882,352.921 590.875,354.164 592.868,355.408 594.862,356.652 596.855,357.896 598.848,359.141 
  600.841,360.387 602.834,361.632 604.827,362.878 606.82,364.125 608.814,365.372 610.807,366.619 612.8,367.867 614.793,369.115 616.786,370.363 618.779,371.612 
  620.772,372.861 622.766,374.11 624.759,375.36 626.752,376.61 628.745,377.86 630.738,379.11 632.731,380.361 634.724,381.612 636.718,382.863 638.711,384.114 
  640.704,385.366 642.697,386.617 644.69,387.869 646.683,389.121 648.677,390.373 650.67,391.625 652.663,392.878 654.656,394.13 656.649,395.383 658.642,396.635 
  660.635,397.888 662.629,399.141 664.622,400.394 666.615,401.646 668.608,402.899 670.601,404.152 672.594,405.405 674.587,406.658 676.581,407.911 678.574,409.164 
  680.567,410.417 682.56,411.67 684.553,412.922 686.546,414.175 688.539,415.428 690.533,416.68 692.526,417.933 694.519,419.185 696.512,420.437 698.505,421.689 
  700.498,422.941 702.491,424.193 704.485,425.445 706.478,426.696 708.471,427.948 710.464,429.199 712.457,430.45 714.45,431.7 716.443,432.951 718.437,434.201 
  720.43,435.451 722.423,436.701 724.416,437.951 726.409,439.2 728.402,440.449 730.395,441.698 732.389,442.946 734.382,444.194 736.375,445.442 738.368,446.689 
  740.361,447.937 742.354,449.183 744.347,450.43 746.341,451.676 748.334,452.922 750.327,454.167 752.32,455.412 754.313,456.657 756.306,457.901 758.299,459.145 
  760.293,460.388 762.286,461.631 764.279,462.874 766.272,464.116 768.265,465.357 770.258,466.599 772.252,467.839 774.245,469.079 776.238,470.319 778.231,471.558 
  780.224,472.797 782.217,474.035 784.21,475.273 786.204,476.51 788.197,477.747 790.19,478.983 792.183,480.219 794.176,481.454 796.169,482.688 798.162,483.922 
  800.156,485.155 802.149,486.388 804.142,487.62 806.135,488.851 808.128,490.082 810.121,491.313 812.114,492.542 814.108,493.771 816.101,495 818.094,496.227 
  820.087,497.454 822.08,498.681 824.073,499.906 826.066,501.132 828.06,502.356 830.053,503.58 832.046,504.803 834.039,506.025 836.032,507.247 838.025,508.467 
  840.018,509.688 842.012,510.907 844.005,512.126 845.998,513.344 847.991,514.561 849.984,515.777 851.977,516.993 853.97,518.208 855.964,519.422 857.957,520.635 
  859.95,521.848 861.943,523.06 863.936,524.271 865.929,525.481 867.922,526.69 869.916,527.899 871.909,529.107 873.902,530.314 875.895,531.52 877.888,532.725 
  879.881,533.929 881.874,535.133 883.868,536.336 885.861,537.537 887.854,538.738 889.847,539.939 891.84,541.138 893.833,542.336 895.827,543.534 897.82,544.73 
  899.813,545.926 901.806,547.121 903.799,548.315 905.792,549.508 907.785,550.7 909.779,551.891 911.772,553.081 913.765,554.27 915.758,555.459 917.751,556.646 
  919.744,557.832 921.737,559.018 923.731,560.203 925.724,561.386 927.717,562.569 929.71,563.751 931.703,564.931 933.696,566.111 935.689,567.29 937.683,568.467 
  939.676,569.644 941.669,570.82 943.662,571.995 945.655,573.169 947.648,574.342 949.641,575.513 951.635,576.684 953.628,577.854 955.621,579.023 957.614,580.19 
  959.607,581.357 961.6,582.523 963.593,583.687 965.587,584.851 967.58,586.014 969.573,587.175 971.566,588.336 973.559,589.495 975.552,590.654 977.545,591.811 
  979.539,592.967 981.532,594.123 983.525,595.277 985.518,596.43 987.511,597.582 989.504,598.733 991.497,599.883 993.491,601.032 995.484,602.179 997.477,603.326 
  999.47,604.472 1001.46,605.616 1003.46,606.759 1005.45,607.902 1007.44,609.043 1009.44,610.183 1011.43,611.322 1013.42,612.46 1015.42,613.597 1017.41,614.733 
  1019.4,615.867 1021.39,617.001 1023.39,618.133 1025.38,619.265 1027.37,620.395 1029.37,621.524 1031.36,622.652 1033.35,623.779 1035.35,624.904 1037.34,626.029 
  1039.33,627.152 1041.33,628.275 1043.32,629.396 1045.31,630.516 1047.31,631.635 1049.3,632.753 1051.29,633.87 1053.28,634.985 1055.28,636.1 1057.27,637.213 
  1059.26,638.325 1061.26,639.436 1063.25,640.546 1065.24,641.655 1067.24,642.762 1069.23,643.869 1071.22,644.974 1073.22,646.078 1075.21,647.182 1077.2,648.283 
  1079.2,649.384 1081.19,650.484 1083.18,651.582 1085.18,652.68 1087.17,653.776 1089.16,654.871 1091.15,655.965 1093.15,657.058 1095.14,658.149 1097.13,659.24 
  1099.13,660.329 1101.12,661.417 1103.11,662.505 1105.11,663.59 1107.1,664.675 1109.09,665.759 1111.09,666.841 1113.08,667.923 1115.07,669.003 1117.07,670.082 
  1119.06,671.16 1121.05,672.237 1123.05,673.312 1125.04,674.387 1127.03,675.46 1129.02,676.533 1131.02,677.604 1133.01,678.674 1135,679.743 1137,680.81 
  1138.99,681.877 1140.98,682.942 1142.98,684.007 1144.97,685.07 1146.96,686.132 1148.96,687.193 1150.95,688.253 1152.94,689.311 1154.94,690.369 1156.93,691.425 
  1158.92,692.481 1160.91,693.535 1162.91,694.588 1164.9,695.64 1166.89,696.691 1168.89,697.741 1170.88,698.789 1172.87,699.837 1174.87,700.883 1176.86,701.929 
  1178.85,702.973 1180.85,704.016 1182.84,705.058 1184.83,706.099 1186.83,707.139 1188.82,708.178 1190.81,709.216 1192.81,710.252 1194.8,711.288 1196.79,712.322 
  1198.78,713.356 1200.78,714.388 1202.77,715.419 1204.76,716.449 1206.76,717.479 1208.75,718.507 1210.74,719.534 1212.74,720.56 1214.73,721.585 1216.72,722.608 
  1218.72,723.631 1220.71,724.653 1222.7,725.674 1224.7,726.693 1226.69,727.712 1228.68,728.73 1230.67,729.746 1232.67,730.762 1234.66,731.776 1236.65,732.79 
  1238.65,733.802 1240.64,734.814 1242.63,735.824 1244.63,736.834 1246.62,737.842 1248.61,738.85 1250.61,739.856 1252.6,740.862 1254.59,741.866 1256.59,742.87 
  1258.58,743.873 1260.57,744.874 1262.57,745.875 1264.56,746.875 1266.55,747.873 1268.54,748.871 1270.54,749.868 1272.53,750.864 1274.52,751.859 1276.52,752.853 
  1278.51,753.846 1280.5,754.838 1282.5,755.83 1284.49,756.82 1286.48,757.809 1288.48,758.798 1290.47,759.786 1292.46,760.772 1294.46,761.758 1296.45,762.743 
  1298.44,763.727 1300.44,764.71 1302.43,765.693 1304.42,766.674 1306.41,767.655 1308.41,768.635 1310.4,769.614 1312.39,770.592 1314.39,771.569 1316.38,772.545 
  1318.37,773.521 1320.37,774.496 1322.36,775.47 1324.35,776.443 1326.35,777.415 1328.34,778.387 1330.33,779.358 1332.33,780.327 1334.32,781.297 1336.31,782.265 
  1338.3,783.233 1340.3,784.2 1342.29,785.166 1344.28,786.131 1346.28,787.096 1348.27,788.06 1350.26,789.023 1352.26,789.986 1354.25,790.947 1356.24,791.908 
  1358.24,792.869 1360.23,793.828 1362.22,794.787 1364.22,795.746 1366.21,796.703 1368.2,797.66 1370.2,798.617 1372.19,799.572 1374.18,800.527 1376.17,801.482 
  1378.17,802.435 1380.16,803.388 1382.15,804.341 1384.15,805.293 1386.14,806.244 1388.13,807.195 1390.13,808.145 1392.12,809.094 1394.11,810.043 1396.11,810.992 
  1398.1,811.94 1400.09,812.887 1402.09,813.834 1404.08,814.78 1406.07,815.726 1408.06,816.671 1410.06,817.615 1412.05,818.56 1414.04,819.503 1416.04,820.446 
  1418.03,821.389 1420.02,822.331 1422.02,823.273 1424.01,824.214 1426,825.155 1428,826.096 1429.99,827.036 1431.98,827.975 1433.98,828.915 1435.97,829.853 
  1437.96,830.792 1439.96,831.73 1441.95,832.668 1443.94,833.605 1445.93,834.542 1447.93,835.478 1449.92,836.415 1451.91,837.351 1453.91,838.286 1455.9,839.222 
  1457.89,840.157 1459.89,841.091 1461.88,842.026 1463.87,842.96 1465.87,843.894 1467.86,844.827 1469.85,845.761 1471.85,846.694 1473.84,847.627 1475.83,848.56 
  1477.82,849.492 1479.82,850.424 1481.81,851.357 1483.8,852.289 1485.8,853.22 1487.79,854.152 1489.78,855.083 1491.78,856.015 1493.77,856.946 1495.76,857.877 
  1497.76,858.808 1499.75,859.739 1501.74,860.67 1503.74,861.601 1505.73,862.531 1507.72,863.462 1509.72,864.393 1511.71,865.323 1513.7,866.254 1515.69,867.184 
  1517.69,868.115 1519.68,869.045 1521.67,869.976 1523.67,870.907 1525.66,871.837 1527.65,872.768 1529.65,873.699 1531.64,874.63 1533.63,875.561 1535.63,876.492 
  1537.62,877.423 1539.61,878.354 1541.61,879.286 1543.6,880.217 1545.59,881.149 1547.59,882.081 1549.58,883.013 1551.57,883.945 1553.56,884.877 1555.56,885.81 
  1557.55,886.743 1559.54,887.676 1561.54,888.61 1563.53,889.543 1565.52,890.477 1567.52,891.411 1569.51,892.346 1571.5,893.281 1573.5,894.216 1575.49,895.152 
  1577.48,896.087 1579.48,897.024 1581.47,897.96 1583.46,898.897 1585.45,899.834 1587.45,900.772 1589.44,901.71 1591.43,902.649 1593.43,903.588 1595.42,904.528 
  1597.41,905.468 1599.41,906.408 1601.4,907.349 1603.39,908.291 1605.39,909.233 1607.38,910.175 1609.37,911.119 1611.37,912.062 1613.36,913.007 1615.35,913.951 
  1617.35,914.897 1619.34,915.843 1621.33,916.79 1623.32,917.737 1625.32,918.685 1627.31,919.634 1629.3,920.583 1631.3,921.533 1633.29,922.484 1635.28,923.436 
  1637.28,924.388 1639.27,925.341 1641.26,926.295 1643.26,927.25 1645.25,928.205 1647.24,929.161 1649.24,930.118 1651.23,931.076 1653.22,932.035 1655.21,932.994 
  1657.21,933.955 1659.2,934.916 1661.19,935.879 1663.19,936.842 1665.18,937.806 1667.17,938.771 1669.17,939.737 1671.16,940.704 1673.15,941.672 1675.15,942.641 
  1677.14,943.612 1679.13,944.583 1681.13,945.555 1683.12,946.528 1685.11,947.503 1687.11,948.478 1689.1,949.455 1691.09,950.432 1693.08,951.411 1695.08,952.391 
  1697.07,953.373 1699.06,954.355 1701.06,955.339 1703.05,956.324 1705.04,957.31 1707.04,958.297 1709.03,959.286 1711.02,960.276 1713.02,961.267 1715.01,962.26 
  1717,963.254 1719,964.249 1720.99,965.246 1722.98,966.244 1724.97,967.243 1726.97,968.244 1728.96,969.246 1730.95,970.25 1732.95,971.255 1734.94,972.262 
  1736.93,973.27 1738.93,974.28 1740.92,975.291 1742.91,976.304 1744.91,977.318 1746.9,978.334 1748.89,979.352 1750.89,980.371 1752.88,981.392 1754.87,982.414 
  1756.87,983.438 1758.86,984.464 1760.85,985.491 1762.84,986.521 1764.84,987.552 1766.83,988.584 1768.82,989.619 1770.82,990.655 1772.81,991.693 1774.8,992.733 
  1776.8,993.775 1778.79,994.818 1780.78,995.864 1782.78,996.911 1784.77,997.96 1786.76,999.011 1788.76,1000.06 1790.75,1001.12 1792.74,1002.18 1794.74,1003.24 
  1796.73,1004.3 1798.72,1005.36 1800.71,1006.43 1802.71,1007.49 1804.7,1008.56 1806.69,1009.63 1808.69,1010.71 1810.68,1011.78 1812.67,1012.86 1814.67,1013.94 
  1816.66,1015.02 1818.65,1016.11 1820.65,1017.19 1822.64,1018.28 1824.63,1019.37 1826.63,1020.47 1828.62,1021.56 1830.61,1022.66 1832.6,1023.76 1834.6,1024.86 
  1836.59,1025.97 1838.58,1027.08 1840.58,1028.19 1842.57,1029.3 1844.56,1030.42 1846.56,1031.53 1848.55,1032.65 1850.54,1033.78 1852.54,1034.9 1854.53,1036.03 
  1856.52,1037.16 1858.52,1038.29 1860.51,1039.43 1862.5,1040.56 1864.5,1041.71 1866.49,1042.85 1868.48,1043.99 1870.47,1045.14 1872.47,1046.29 1874.46,1047.45 
  1876.45,1048.61 1878.45,1049.77 1880.44,1050.93 1882.43,1052.09 1884.43,1053.26 1886.42,1054.43 1888.41,1055.61 1890.41,1056.78 1892.4,1057.96 1894.39,1059.15 
  1896.39,1060.33 1898.38,1061.52 1900.37,1062.71 1902.36,1063.91 1904.36,1065.11 1906.35,1066.31 1908.34,1067.51 1910.34,1068.72 1912.33,1069.93 1914.32,1071.14 
  1916.32,1072.36 1918.31,1073.58 1920.3,1074.8 1922.3,1076.03 1924.29,1077.26 1926.28,1078.49 1928.28,1079.73 1930.27,1080.97 1932.26,1082.21 1934.26,1083.46 
  1936.25,1084.71 1938.24,1085.96 1940.23,1087.22 1942.23,1088.48 1944.22,1089.74 1946.21,1091.01 1948.21,1092.28 1950.2,1093.56 1952.19,1094.83 1954.19,1096.12 
  1956.18,1097.4 1958.17,1098.69 1960.17,1099.98 1962.16,1101.28 1964.15,1102.58 1966.15,1103.88 1968.14,1105.19 1970.13,1106.5 1972.12,1107.81 1974.12,1109.13 
  1976.11,1110.46 1978.1,1111.78 1980.1,1113.11 1982.09,1114.45 1984.08,1115.78 1986.08,1117.13 1988.07,1118.47 1990.06,1119.82 1992.06,1121.18 1994.05,1122.53 
  1996.04,1123.9 1998.04,1125.26 2000.03,1126.63 2002.02,1128.01 2004.02,1129.39 2006.01,1130.77 2008,1132.16 2009.99,1133.55 2011.99,1134.94 2013.98,1136.34 
  2015.97,1137.75 2017.97,1139.15 2019.96,1140.57 2021.95,1141.98 2023.95,1143.41 2025.94,1144.83 2027.93,1146.26 2029.93,1147.7 2031.92,1149.14 2033.91,1150.58 
  2035.91,1152.03 2037.9,1153.48 2039.89,1154.94 2041.89,1156.4 2043.88,1157.87 2045.87,1159.34 2047.86,1160.82 2049.86,1162.3 2051.85,1163.78 2053.84,1165.27 
  2055.84,1166.77 2057.83,1168.27 2059.82,1169.77 2061.82,1171.28 2063.81,1172.8 2065.8,1174.32 2067.8,1175.84 2069.79,1177.37 2071.78,1178.91 2073.78,1180.45 
  2075.77,1181.99 2077.76,1183.54 2079.75,1185.09 2081.75,1186.65 2083.74,1188.22 2085.73,1189.79 2087.73,1191.36 2089.72,1192.94 2091.71,1194.53 2093.71,1196.12 
  2095.7,1197.72 2097.69,1199.32 2099.69,1200.92 2101.68,1202.54 2103.67,1204.15 2105.67,1205.78 2107.66,1207.41 2109.65,1209.04 2111.65,1210.68 2113.64,1212.32 
  2115.63,1213.97 2117.62,1215.63 2119.62,1217.29 2121.61,1218.96 2123.6,1220.63 2125.6,1222.31 2127.59,1224 2129.58,1225.69 2131.58,1227.38 2133.57,1229.08 
  2135.56,1230.79 2137.56,1232.5 2139.55,1234.22 2141.54,1235.95 2143.54,1237.68 2145.53,1239.41 2147.52,1241.16 2149.51,1242.91 2151.51,1244.66 2153.5,1246.42 
  2155.49,1248.19 2157.49,1249.96 2159.48,1251.74 2161.47,1253.53 2163.47,1255.32 2165.46,1257.12 2167.45,1258.92 2169.45,1260.73 2171.44,1262.55 2173.43,1264.37 
  2175.43,1266.2 2177.42,1268.03 2179.41,1269.88 2181.41,1271.72 2183.4,1273.58 2185.39,1275.44 2187.38,1277.31 2189.38,1279.18 2191.37,1281.06 2193.36,1282.95 
  2195.36,1284.85 2197.35,1286.75 2199.34,1288.66 2201.34,1290.57 2203.33,1292.49 2205.32,1294.42 2207.32,1296.35 2209.31,1298.3 2211.3,1300.24 2213.3,1302.2 
  2215.29,1304.16 2217.28,1306.13 2219.27,1308.11 2221.27,1310.09 2223.26,1312.08 2225.25,1314.08 2227.25,1316.08 2229.24,1318.09 2231.23,1320.11 2233.23,1322.14 
  2235.22,1324.17 2237.21,1326.21 2239.21,1328.26 2241.2,1330.31 2243.19,1332.37 2245.19,1334.44 2247.18,1336.52 2249.17,1338.61 2251.17,1340.7 2253.16,1342.8 
  2255.15,1344.9 2257.14,1347.02 2259.14,1349.14 2261.13,1351.27 2263.12,1353.41 2265.12,1355.55 2267.11,1357.7 2269.1,1359.86 2271.1,1362.03 2273.09,1364.21 
  2275.08,1366.39 2277.08,1368.58 2279.07,1370.78 2281.06,1372.99 2283.06,1375.2 2285.05,1377.42 2287.04,1379.66 2289.04,1381.89 2291.03,1384.14 2293.02,1386.4 
  
  "/>
<path clip-path="url(#clip170)" d="
M1414.49 322.316 L2282.4 322.316 L2282.4 166.796 L1414.49 166.796  Z
  " fill="#ffffff" fill-rule="evenodd" fill-opacity="1"/>
<polyline clip-path="url(#clip170)" style="stroke:#000000; stroke-linecap:butt; stroke-linejoin:round; stroke-width:4; stroke-opacity:1; fill:none" points="
  1414.49,322.316 2282.4,322.316 2282.4,166.796 1414.49,166.796 1414.49,322.316 
  "/>
<circle clip-path="url(#clip170)" cx="1508.29" cy="218.636" r="23" fill="#009af9" fill-rule="evenodd" fill-opacity="1" stroke="#000000" stroke-opacity="1" stroke-width="5.12"/>
<path clip-path="url(#clip170)" d="M1621.01 213.925 L1621.01 199.897 L1625.27 199.897 L1625.27 235.916 L1621.01 235.916 L1621.01 232.027 Q1619.67 234.342 1617.61 235.476 Q1615.57 236.587 1612.7 236.587 Q1608 236.587 1605.04 232.837 Q1602.1 229.087 1602.1 222.976 Q1602.1 216.865 1605.04 213.115 Q1608 209.365 1612.7 209.365 Q1615.57 209.365 1617.61 210.499 Q1619.67 211.61 1621.01 213.925 M1606.5 222.976 Q1606.5 227.675 1608.42 230.36 Q1610.36 233.022 1613.74 233.022 Q1617.12 233.022 1619.07 230.36 Q1621.01 227.675 1621.01 222.976 Q1621.01 218.277 1619.07 215.615 Q1617.12 212.93 1613.74 212.93 Q1610.36 212.93 1608.42 215.615 Q1606.5 218.277 1606.5 222.976 Z" fill="#000000" fill-rule="evenodd" fill-opacity="1" /><path clip-path="url(#clip170)" d="M1652.66 222.976 Q1652.66 218.277 1650.71 215.615 Q1648.79 212.93 1645.41 212.93 Q1642.03 212.93 1640.09 215.615 Q1638.16 218.277 1638.16 222.976 Q1638.16 227.675 1640.09 230.36 Q1642.03 233.022 1645.41 233.022 Q1648.79 233.022 1650.71 230.36 Q1652.66 227.675 1652.66 222.976 M1638.16 213.925 Q1639.51 211.61 1641.54 210.499 Q1643.6 209.365 1646.45 209.365 Q1651.17 209.365 1654.11 213.115 Q1657.08 216.865 1657.08 222.976 Q1657.08 229.087 1654.11 232.837 Q1651.17 236.587 1646.45 236.587 Q1643.6 236.587 1641.54 235.476 Q1639.51 234.342 1638.16 232.027 L1638.16 235.916 L1633.88 235.916 L1633.88 199.897 L1638.16 199.897 L1638.16 213.925 Z" fill="#000000" fill-rule="evenodd" fill-opacity="1" /><path clip-path="url(#clip170)" d="M1684.32 214.967 Q1685.92 212.096 1688.14 210.731 Q1690.36 209.365 1693.37 209.365 Q1697.42 209.365 1699.62 212.212 Q1701.82 215.036 1701.82 220.268 L1701.82 235.916 L1697.54 235.916 L1697.54 220.407 Q1697.54 216.68 1696.22 214.874 Q1694.9 213.069 1692.19 213.069 Q1688.88 213.069 1686.96 215.268 Q1685.04 217.467 1685.04 221.263 L1685.04 235.916 L1680.76 235.916 L1680.76 220.407 Q1680.76 216.657 1679.44 214.874 Q1678.12 213.069 1675.36 213.069 Q1672.1 213.069 1670.18 215.291 Q1668.26 217.49 1668.26 221.263 L1668.26 235.916 L1663.97 235.916 L1663.97 209.99 L1668.26 209.99 L1668.26 214.018 Q1669.72 211.633 1671.75 210.499 Q1673.79 209.365 1676.59 209.365 Q1679.41 209.365 1681.38 210.8 Q1683.37 212.235 1684.32 214.967 Z" fill="#000000" fill-rule="evenodd" fill-opacity="1" /><path clip-path="url(#clip170)" d="M1711.4 230.036 L1716.29 230.036 L1716.29 234.018 L1712.49 241.425 L1709.51 241.425 L1711.4 234.018 L1711.4 230.036 Z" fill="#000000" fill-rule="evenodd" fill-opacity="1" /><path clip-path="url(#clip170)" d="M1752.19 205.962 L1745.85 223.161 L1758.56 223.161 L1752.19 205.962 M1749.55 201.356 L1754.85 201.356 L1768.02 235.916 L1763.16 235.916 L1760.02 227.05 L1744.44 227.05 L1741.29 235.916 L1736.36 235.916 L1749.55 201.356 Z" fill="#000000" fill-rule="evenodd" fill-opacity="1" /><path clip-path="url(#clip170)" d="M1777.75 205.198 L1777.75 232.073 L1783.4 232.073 Q1790.55 232.073 1793.86 228.832 Q1797.19 225.592 1797.19 218.601 Q1797.19 211.657 1793.86 208.439 Q1790.55 205.198 1783.4 205.198 L1777.75 205.198 M1773.07 201.356 L1782.68 201.356 Q1792.72 201.356 1797.42 205.546 Q1802.12 209.712 1802.12 218.601 Q1802.12 227.536 1797.4 231.726 Q1792.68 235.916 1782.68 235.916 L1773.07 235.916 L1773.07 201.356 Z" fill="#000000" fill-rule="evenodd" fill-opacity="1" /><path clip-path="url(#clip170)" d="M1835.46 204.018 L1835.46 208.948 Q1833.09 206.749 1830.41 205.661 Q1827.75 204.573 1824.74 204.573 Q1818.81 204.573 1815.66 208.208 Q1812.52 211.819 1812.52 218.67 Q1812.52 225.499 1815.66 229.133 Q1818.81 232.744 1824.74 232.744 Q1827.75 232.744 1830.41 231.656 Q1833.09 230.569 1835.46 228.369 L1835.46 233.254 Q1833 234.92 1830.25 235.754 Q1827.52 236.587 1824.46 236.587 Q1816.61 236.587 1812.1 231.795 Q1807.58 226.981 1807.58 218.67 Q1807.58 210.337 1812.1 205.546 Q1816.61 200.731 1824.46 200.731 Q1827.56 200.731 1830.29 201.564 Q1833.05 202.374 1835.46 204.018 Z" fill="#000000" fill-rule="evenodd" fill-opacity="1" /><path clip-path="url(#clip170)" d="M1861.68 232.027 L1861.68 245.777 L1857.4 245.777 L1857.4 209.99 L1861.68 209.99 L1861.68 213.925 Q1863.02 211.61 1865.06 210.499 Q1867.12 209.365 1869.97 209.365 Q1874.69 209.365 1877.63 213.115 Q1880.59 216.865 1880.59 222.976 Q1880.59 229.087 1877.63 232.837 Q1874.69 236.587 1869.97 236.587 Q1867.12 236.587 1865.06 235.476 Q1863.02 234.342 1861.68 232.027 M1876.17 222.976 Q1876.17 218.277 1874.23 215.615 Q1872.31 212.93 1868.93 212.93 Q1865.55 212.93 1863.6 215.615 Q1861.68 218.277 1861.68 222.976 Q1861.68 227.675 1863.6 230.36 Q1865.55 233.022 1868.93 233.022 Q1872.31 233.022 1874.23 230.36 Q1876.17 227.675 1876.17 222.976 Z" fill="#000000" fill-rule="evenodd" fill-opacity="1" /><path clip-path="url(#clip170)" d="M1899.44 222.883 Q1894.27 222.883 1892.28 224.064 Q1890.29 225.244 1890.29 228.092 Q1890.29 230.36 1891.77 231.703 Q1893.28 233.022 1895.85 233.022 Q1899.39 233.022 1901.52 230.522 Q1903.67 227.999 1903.67 223.832 L1903.67 222.883 L1899.44 222.883 M1907.93 221.124 L1907.93 235.916 L1903.67 235.916 L1903.67 231.981 Q1902.21 234.342 1900.04 235.476 Q1897.86 236.587 1894.71 236.587 Q1890.73 236.587 1888.37 234.365 Q1886.03 232.119 1886.03 228.369 Q1886.03 223.994 1888.95 221.772 Q1891.89 219.55 1897.7 219.55 L1903.67 219.55 L1903.67 219.133 Q1903.67 216.194 1901.73 214.596 Q1899.81 212.976 1896.31 212.976 Q1894.09 212.976 1891.98 213.508 Q1889.88 214.041 1887.93 215.106 L1887.93 211.17 Q1890.27 210.268 1892.47 209.828 Q1894.67 209.365 1896.75 209.365 Q1902.38 209.365 1905.15 212.282 Q1907.93 215.198 1907.93 221.124 Z" fill="#000000" fill-rule="evenodd" fill-opacity="1" /><path clip-path="url(#clip170)" d="M1916.7 209.99 L1920.96 209.99 L1920.96 235.916 L1916.7 235.916 L1916.7 209.99 M1916.7 199.897 L1920.96 199.897 L1920.96 205.291 L1916.7 205.291 L1916.7 199.897 Z" fill="#000000" fill-rule="evenodd" fill-opacity="1" /><path clip-path="url(#clip170)" d="M1944.9 213.971 Q1944.18 213.555 1943.32 213.37 Q1942.49 213.161 1941.47 213.161 Q1937.86 213.161 1935.92 215.522 Q1934 217.86 1934 222.258 L1934 235.916 L1929.71 235.916 L1929.71 209.99 L1934 209.99 L1934 214.018 Q1935.34 211.657 1937.49 210.522 Q1939.64 209.365 1942.72 209.365 Q1943.16 209.365 1943.7 209.434 Q1944.23 209.481 1944.88 209.596 L1944.9 213.971 Z" fill="#000000" fill-rule="evenodd" fill-opacity="1" /><path clip-path="url(#clip170)" d="M1965.89 210.754 L1965.89 214.782 Q1964.09 213.856 1962.14 213.393 Q1960.2 212.93 1958.12 212.93 Q1954.95 212.93 1953.35 213.902 Q1951.77 214.874 1951.77 216.819 Q1951.77 218.3 1952.91 219.157 Q1954.04 219.99 1957.47 220.754 L1958.93 221.078 Q1963.46 222.05 1965.36 223.832 Q1967.28 225.592 1967.28 228.763 Q1967.28 232.374 1964.41 234.481 Q1961.57 236.587 1956.57 236.587 Q1954.48 236.587 1952.21 236.17 Q1949.97 235.777 1947.47 234.967 L1947.47 230.569 Q1949.83 231.795 1952.12 232.42 Q1954.41 233.022 1956.66 233.022 Q1959.67 233.022 1961.29 232.004 Q1962.91 230.962 1962.91 229.087 Q1962.91 227.351 1961.73 226.425 Q1960.57 225.499 1956.61 224.643 L1955.13 224.295 Q1951.17 223.462 1949.41 221.749 Q1947.65 220.013 1947.65 217.004 Q1947.65 213.346 1950.25 211.356 Q1952.84 209.365 1957.61 209.365 Q1959.97 209.365 1962.05 209.712 Q1964.13 210.059 1965.89 210.754 Z" fill="#000000" fill-rule="evenodd" fill-opacity="1" /><polyline clip-path="url(#clip170)" style="stroke:#e26f46; stroke-linecap:butt; stroke-linejoin:round; stroke-width:4; stroke-opacity:1; fill:none" points="
  1437.94,270.476 1578.65,270.476 
  "/>
<path clip-path="url(#clip170)" d="M1618.6 251.737 L1618.6 255.279 L1614.53 255.279 Q1612.24 255.279 1611.34 256.205 Q1610.46 257.131 1610.46 259.538 L1610.46 261.83 L1617.47 261.83 L1617.47 265.14 L1610.46 265.14 L1610.46 287.756 L1606.17 287.756 L1606.17 265.14 L1602.1 265.14 L1602.1 261.83 L1606.17 261.83 L1606.17 260.024 Q1606.17 255.696 1608.19 253.728 Q1610.2 251.737 1614.58 251.737 L1618.6 251.737 Z" fill="#000000" fill-rule="evenodd" fill-opacity="1" /><path clip-path="url(#clip170)" d="M1622.17 261.83 L1626.43 261.83 L1626.43 287.756 L1622.17 287.756 L1622.17 261.83 M1622.17 251.737 L1626.43 251.737 L1626.43 257.131 L1622.17 257.131 L1622.17 251.737 Z" fill="#000000" fill-rule="evenodd" fill-opacity="1" /><path clip-path="url(#clip170)" d="M1639.55 254.469 L1639.55 261.83 L1648.33 261.83 L1648.33 265.14 L1639.55 265.14 L1639.55 279.214 Q1639.55 282.385 1640.41 283.288 Q1641.29 284.191 1643.95 284.191 L1648.33 284.191 L1648.33 287.756 L1643.95 287.756 Q1639.02 287.756 1637.15 285.927 Q1635.27 284.075 1635.27 279.214 L1635.27 265.14 L1632.15 265.14 L1632.15 261.83 L1635.27 261.83 L1635.27 254.469 L1639.55 254.469 Z" fill="#000000" fill-rule="evenodd" fill-opacity="1" /><path clip-path="url(#clip170)" d="M1682.12 251.737 L1682.12 255.279 L1678.05 255.279 Q1675.76 255.279 1674.85 256.205 Q1673.97 257.131 1673.97 259.538 L1673.97 261.83 L1680.99 261.83 L1680.99 265.14 L1673.97 265.14 L1673.97 287.756 L1669.69 287.756 L1669.69 265.14 L1665.62 265.14 L1665.62 261.83 L1669.69 261.83 L1669.69 260.024 Q1669.69 255.696 1671.71 253.728 Q1673.72 251.737 1678.09 251.737 L1682.12 251.737 Z" fill="#000000" fill-rule="evenodd" fill-opacity="1" /><path clip-path="url(#clip170)" d="M1685.25 277.524 L1685.25 261.83 L1689.51 261.83 L1689.51 277.362 Q1689.51 281.043 1690.94 282.895 Q1692.38 284.723 1695.25 284.723 Q1698.7 284.723 1700.69 282.524 Q1702.7 280.325 1702.7 276.529 L1702.7 261.83 L1706.96 261.83 L1706.96 287.756 L1702.7 287.756 L1702.7 283.774 Q1701.15 286.135 1699.09 287.293 Q1697.05 288.427 1694.34 288.427 Q1689.88 288.427 1687.56 285.649 Q1685.25 282.871 1685.25 277.524 M1695.97 261.205 L1695.97 261.205 Z" fill="#000000" fill-rule="evenodd" fill-opacity="1" /><path clip-path="url(#clip170)" d="M1737.28 272.108 L1737.28 287.756 L1733.03 287.756 L1733.03 272.247 Q1733.03 268.566 1731.59 266.737 Q1730.15 264.909 1727.28 264.909 Q1723.84 264.909 1721.84 267.108 Q1719.85 269.307 1719.85 273.103 L1719.85 287.756 L1715.57 287.756 L1715.57 261.83 L1719.85 261.83 L1719.85 265.858 Q1721.38 263.52 1723.44 262.362 Q1725.53 261.205 1728.23 261.205 Q1732.7 261.205 1734.99 263.983 Q1737.28 266.737 1737.28 272.108 Z" fill="#000000" fill-rule="evenodd" fill-opacity="1" /><path clip-path="url(#clip170)" d="M1764.44 262.825 L1764.44 266.807 Q1762.63 265.811 1760.8 265.325 Q1759 264.816 1757.15 264.816 Q1753 264.816 1750.71 267.455 Q1748.42 270.071 1748.42 274.816 Q1748.42 279.561 1750.71 282.2 Q1753 284.816 1757.15 284.816 Q1759 284.816 1760.8 284.33 Q1762.63 283.821 1764.44 282.825 L1764.44 286.76 Q1762.65 287.594 1760.73 288.01 Q1758.84 288.427 1756.68 288.427 Q1750.83 288.427 1747.38 284.746 Q1743.93 281.066 1743.93 274.816 Q1743.93 268.473 1747.4 264.839 Q1750.9 261.205 1756.96 261.205 Q1758.93 261.205 1760.8 261.622 Q1762.68 262.015 1764.44 262.825 Z" fill="#000000" fill-rule="evenodd" fill-opacity="1" /><path clip-path="url(#clip170)" d="M1776.06 254.469 L1776.06 261.83 L1784.83 261.83 L1784.83 265.14 L1776.06 265.14 L1776.06 279.214 Q1776.06 282.385 1776.91 283.288 Q1777.79 284.191 1780.46 284.191 L1784.83 284.191 L1784.83 287.756 L1780.46 287.756 Q1775.52 287.756 1773.65 285.927 Q1771.77 284.075 1771.77 279.214 L1771.77 265.14 L1768.65 265.14 L1768.65 261.83 L1771.77 261.83 L1771.77 254.469 L1776.06 254.469 Z" fill="#000000" fill-rule="evenodd" fill-opacity="1" /><path clip-path="url(#clip170)" d="M1790.43 261.83 L1794.69 261.83 L1794.69 287.756 L1790.43 287.756 L1790.43 261.83 M1790.43 251.737 L1794.69 251.737 L1794.69 257.131 L1790.43 257.131 L1790.43 251.737 Z" fill="#000000" fill-rule="evenodd" fill-opacity="1" /><path clip-path="url(#clip170)" d="M1813.65 264.816 Q1810.22 264.816 1808.23 267.501 Q1806.24 270.163 1806.24 274.816 Q1806.24 279.469 1808.21 282.154 Q1810.2 284.816 1813.65 284.816 Q1817.05 284.816 1819.04 282.131 Q1821.03 279.446 1821.03 274.816 Q1821.03 270.21 1819.04 267.524 Q1817.05 264.816 1813.65 264.816 M1813.65 261.205 Q1819.21 261.205 1822.38 264.816 Q1825.55 268.427 1825.55 274.816 Q1825.55 281.182 1822.38 284.816 Q1819.21 288.427 1813.65 288.427 Q1808.07 288.427 1804.9 284.816 Q1801.75 281.182 1801.75 274.816 Q1801.75 268.427 1804.9 264.816 Q1808.07 261.205 1813.65 261.205 Z" fill="#000000" fill-rule="evenodd" fill-opacity="1" /><path clip-path="url(#clip170)" d="M1854.16 272.108 L1854.16 287.756 L1849.9 287.756 L1849.9 272.247 Q1849.9 268.566 1848.46 266.737 Q1847.03 264.909 1844.16 264.909 Q1840.71 264.909 1838.72 267.108 Q1836.73 269.307 1836.73 273.103 L1836.73 287.756 L1832.45 287.756 L1832.45 261.83 L1836.73 261.83 L1836.73 265.858 Q1838.26 263.52 1840.32 262.362 Q1842.4 261.205 1845.11 261.205 Q1849.58 261.205 1851.87 263.983 Q1854.16 266.737 1854.16 272.108 Z" fill="#000000" fill-rule="evenodd" fill-opacity="1" /><path clip-path="url(#clip170)" d="M1863.74 281.876 L1868.63 281.876 L1868.63 285.858 L1864.83 293.265 L1861.84 293.265 L1863.74 285.858 L1863.74 281.876 Z" fill="#000000" fill-rule="evenodd" fill-opacity="1" /><path clip-path="url(#clip170)" d="M1914.97 273.728 L1914.97 275.811 L1895.39 275.811 Q1895.66 280.209 1898.02 282.524 Q1900.41 284.816 1904.64 284.816 Q1907.1 284.816 1909.39 284.214 Q1911.7 283.612 1913.97 282.409 L1913.97 286.436 Q1911.68 287.408 1909.27 287.918 Q1906.87 288.427 1904.39 288.427 Q1898.19 288.427 1894.55 284.816 Q1890.94 281.205 1890.94 275.047 Q1890.94 268.682 1894.37 264.955 Q1897.82 261.205 1903.65 261.205 Q1908.88 261.205 1911.91 264.585 Q1914.97 267.941 1914.97 273.728 M1910.71 272.478 Q1910.66 268.983 1908.74 266.899 Q1906.84 264.816 1903.7 264.816 Q1900.13 264.816 1897.98 266.83 Q1895.85 268.844 1895.52 272.501 L1910.71 272.478 Z" fill="#000000" fill-rule="evenodd" fill-opacity="1" /><path clip-path="url(#clip170)" d="M1936.98 265.811 Q1936.26 265.395 1935.41 265.21 Q1934.57 265.001 1933.56 265.001 Q1929.95 265.001 1928 267.362 Q1926.08 269.7 1926.08 274.098 L1926.08 287.756 L1921.8 287.756 L1921.8 261.83 L1926.08 261.83 L1926.08 265.858 Q1927.42 263.497 1929.57 262.362 Q1931.73 261.205 1934.81 261.205 Q1935.25 261.205 1935.78 261.274 Q1936.31 261.321 1936.96 261.436 L1936.98 265.811 Z" fill="#000000" fill-rule="evenodd" fill-opacity="1" /><path clip-path="url(#clip170)" d="M1955.64 265.811 Q1954.92 265.395 1954.07 265.21 Q1953.23 265.001 1952.21 265.001 Q1948.6 265.001 1946.66 267.362 Q1944.74 269.7 1944.74 274.098 L1944.74 287.756 L1940.45 287.756 L1940.45 261.83 L1944.74 261.83 L1944.74 265.858 Q1946.08 263.497 1948.23 262.362 Q1950.38 261.205 1953.46 261.205 Q1953.9 261.205 1954.44 261.274 Q1954.97 261.321 1955.62 261.436 L1955.64 265.811 Z" fill="#000000" fill-rule="evenodd" fill-opacity="1" /><path clip-path="url(#clip170)" d="M1969.11 264.816 Q1965.69 264.816 1963.7 267.501 Q1961.7 270.163 1961.7 274.816 Q1961.7 279.469 1963.67 282.154 Q1965.66 284.816 1969.11 284.816 Q1972.51 284.816 1974.51 282.131 Q1976.5 279.446 1976.5 274.816 Q1976.5 270.21 1974.51 267.524 Q1972.51 264.816 1969.11 264.816 M1969.11 261.205 Q1974.67 261.205 1977.84 264.816 Q1981.01 268.427 1981.01 274.816 Q1981.01 281.182 1977.84 284.816 Q1974.67 288.427 1969.11 288.427 Q1963.53 288.427 1960.36 284.816 Q1957.21 281.182 1957.21 274.816 Q1957.21 268.427 1960.36 264.816 Q1963.53 261.205 1969.11 261.205 Z" fill="#000000" fill-rule="evenodd" fill-opacity="1" /><path clip-path="url(#clip170)" d="M2003.09 265.811 Q2002.38 265.395 2001.52 265.21 Q2000.69 265.001 1999.67 265.001 Q1996.06 265.001 1994.11 267.362 Q1992.19 269.7 1992.19 274.098 L1992.19 287.756 L1987.91 287.756 L1987.91 261.83 L1992.19 261.83 L1992.19 265.858 Q1993.53 263.497 1995.69 262.362 Q1997.84 261.205 2000.92 261.205 Q2001.36 261.205 2001.89 261.274 Q2002.42 261.321 2003.07 261.436 L2003.09 265.811 Z" fill="#000000" fill-rule="evenodd" fill-opacity="1" /><path clip-path="url(#clip170)" d="M2023.19 266.228 L2052.86 266.228 L2052.86 270.117 L2023.19 270.117 L2023.19 266.228 M2023.19 275.672 L2052.86 275.672 L2052.86 279.608 L2023.19 279.608 L2023.19 275.672 Z" fill="#000000" fill-rule="evenodd" fill-opacity="1" /><path clip-path="url(#clip170)" d="M2088.02 271.344 Q2084.69 271.344 2082.77 273.126 Q2080.87 274.909 2080.87 278.034 Q2080.87 281.159 2082.77 282.941 Q2084.69 284.723 2088.02 284.723 Q2091.36 284.723 2093.28 282.941 Q2095.2 281.135 2095.2 278.034 Q2095.2 274.909 2093.28 273.126 Q2091.38 271.344 2088.02 271.344 M2083.35 269.353 Q2080.34 268.612 2078.65 266.552 Q2076.98 264.492 2076.98 261.529 Q2076.98 257.386 2079.92 254.978 Q2082.88 252.571 2088.02 252.571 Q2093.19 252.571 2096.12 254.978 Q2099.06 257.386 2099.06 261.529 Q2099.06 264.492 2097.37 266.552 Q2095.71 268.612 2092.72 269.353 Q2096.1 270.14 2097.98 272.432 Q2099.87 274.723 2099.87 278.034 Q2099.87 283.057 2096.8 285.742 Q2093.74 288.427 2088.02 288.427 Q2082.31 288.427 2079.23 285.742 Q2076.17 283.057 2076.17 278.034 Q2076.17 274.723 2078.07 272.432 Q2079.97 270.14 2083.35 269.353 M2081.63 261.969 Q2081.63 264.654 2083.3 266.159 Q2084.99 267.663 2088.02 267.663 Q2091.03 267.663 2092.72 266.159 Q2094.44 264.654 2094.44 261.969 Q2094.44 259.284 2092.72 257.779 Q2091.03 256.274 2088.02 256.274 Q2084.99 256.274 2083.3 257.779 Q2081.63 259.284 2081.63 261.969 Z" fill="#000000" fill-rule="evenodd" fill-opacity="1" /><path clip-path="url(#clip170)" d="M2108.19 281.876 L2113.07 281.876 L2113.07 287.756 L2108.19 287.756 L2108.19 281.876 Z" fill="#000000" fill-rule="evenodd" fill-opacity="1" /><path clip-path="url(#clip170)" d="M2124.06 283.821 L2131.7 283.821 L2131.7 257.455 L2123.39 259.122 L2123.39 254.862 L2131.66 253.196 L2136.33 253.196 L2136.33 283.821 L2143.97 283.821 L2143.97 287.756 L2124.06 287.756 L2124.06 283.821 Z" fill="#000000" fill-rule="evenodd" fill-opacity="1" /><path clip-path="url(#clip170)" d="M2166.26 257.27 L2154.46 275.719 L2166.26 275.719 L2166.26 257.27 M2165.04 253.196 L2170.92 253.196 L2170.92 275.719 L2175.85 275.719 L2175.85 279.608 L2170.92 279.608 L2170.92 287.756 L2166.26 287.756 L2166.26 279.608 L2150.66 279.608 L2150.66 275.094 L2165.04 253.196 Z" fill="#000000" fill-rule="evenodd" fill-opacity="1" /><path clip-path="url(#clip170)" d="M2194.16 268.612 Q2191.01 268.612 2189.16 270.765 Q2187.33 272.918 2187.33 276.668 Q2187.33 280.395 2189.16 282.571 Q2191.01 284.723 2194.16 284.723 Q2197.3 284.723 2199.13 282.571 Q2200.99 280.395 2200.99 276.668 Q2200.99 272.918 2199.13 270.765 Q2197.3 268.612 2194.16 268.612 M2203.44 253.96 L2203.44 258.219 Q2201.68 257.386 2199.87 256.946 Q2198.09 256.506 2196.33 256.506 Q2191.7 256.506 2189.25 259.631 Q2186.82 262.756 2186.47 269.075 Q2187.84 267.061 2189.9 265.997 Q2191.96 264.909 2194.43 264.909 Q2199.64 264.909 2202.65 268.08 Q2205.68 271.228 2205.68 276.668 Q2205.68 281.992 2202.54 285.209 Q2199.39 288.427 2194.16 288.427 Q2188.16 288.427 2184.99 283.844 Q2181.82 279.237 2181.82 270.51 Q2181.82 262.316 2185.71 257.455 Q2189.6 252.571 2196.15 252.571 Q2197.91 252.571 2199.69 252.918 Q2201.49 253.265 2203.44 253.96 Z" fill="#000000" fill-rule="evenodd" fill-opacity="1" /><path clip-path="url(#clip170)" d="M2213.88 287.038 L2213.88 282.779 Q2215.64 283.612 2217.44 284.052 Q2219.25 284.492 2220.99 284.492 Q2225.61 284.492 2228.05 281.39 Q2230.5 278.265 2230.85 271.922 Q2229.5 273.913 2227.44 274.978 Q2225.38 276.043 2222.88 276.043 Q2217.7 276.043 2214.67 272.918 Q2211.66 269.77 2211.66 264.33 Q2211.66 259.006 2214.8 255.788 Q2217.95 252.571 2223.18 252.571 Q2229.18 252.571 2232.33 257.177 Q2235.5 261.76 2235.5 270.51 Q2235.5 278.682 2231.61 283.566 Q2227.74 288.427 2221.19 288.427 Q2219.43 288.427 2217.63 288.08 Q2215.82 287.733 2213.88 287.038 M2223.18 272.385 Q2226.33 272.385 2228.16 270.233 Q2230.01 268.08 2230.01 264.33 Q2230.01 260.603 2228.16 258.45 Q2226.33 256.274 2223.18 256.274 Q2220.04 256.274 2218.18 258.45 Q2216.36 260.603 2216.36 264.33 Q2216.36 268.08 2218.18 270.233 Q2220.04 272.385 2223.18 272.385 Z" fill="#000000" fill-rule="evenodd" fill-opacity="1" /></svg>
