<?xml version="1.0" encoding="utf-8"?>
<svg xmlns="http://www.w3.org/2000/svg" xmlns:xlink="http://www.w3.org/1999/xlink" width="600" height="400" viewBox="0 0 2400 1600">
<defs>
  <clipPath id="clip330">
    <rect x="0" y="0" width="2400" height="1600"/>
  </clipPath>
</defs>
<path clip-path="url(#clip330)" d="
M0 1600 L2400 1600 L2400 8.88178e-14 L0 8.88178e-14  Z
  " fill="#ffffff" fill-rule="evenodd" fill-opacity="1"/>
<defs>
  <clipPath id="clip331">
    <rect x="480" y="0" width="1681" height="1600"/>
  </clipPath>
</defs>
<path clip-path="url(#clip330)" d="
M242.135 1423.18 L2352.76 1423.18 L2352.76 123.472 L242.135 123.472  Z
  " fill="#ffffff" fill-rule="evenodd" fill-opacity="1"/>
<defs>
  <clipPath id="clip332">
    <rect x="242" y="123" width="2112" height="1301"/>
  </clipPath>
</defs>
<polyline clip-path="url(#clip332)" style="stroke:#000000; stroke-linecap:butt; stroke-linejoin:round; stroke-width:2; stroke-opacity:0.1; fill:none" points="
  467.385,1423.18 467.385,123.472 
  "/>
<polyline clip-path="url(#clip332)" style="stroke:#000000; stroke-linecap:butt; stroke-linejoin:round; stroke-width:2; stroke-opacity:0.1; fill:none" points="
  881.174,1423.18 881.174,123.472 
  "/>
<polyline clip-path="url(#clip332)" style="stroke:#000000; stroke-linecap:butt; stroke-linejoin:round; stroke-width:2; stroke-opacity:0.1; fill:none" points="
  1294.96,1423.18 1294.96,123.472 
  "/>
<polyline clip-path="url(#clip332)" style="stroke:#000000; stroke-linecap:butt; stroke-linejoin:round; stroke-width:2; stroke-opacity:0.1; fill:none" points="
  1708.75,1423.18 1708.75,123.472 
  "/>
<polyline clip-path="url(#clip332)" style="stroke:#000000; stroke-linecap:butt; stroke-linejoin:round; stroke-width:2; stroke-opacity:0.1; fill:none" points="
  2122.54,1423.18 2122.54,123.472 
  "/>
<polyline clip-path="url(#clip330)" style="stroke:#000000; stroke-linecap:butt; stroke-linejoin:round; stroke-width:4; stroke-opacity:1; fill:none" points="
  242.135,1423.18 2352.76,1423.18 
  "/>
<polyline clip-path="url(#clip330)" style="stroke:#000000; stroke-linecap:butt; stroke-linejoin:round; stroke-width:4; stroke-opacity:1; fill:none" points="
  467.385,1423.18 467.385,1404.28 
  "/>
<polyline clip-path="url(#clip330)" style="stroke:#000000; stroke-linecap:butt; stroke-linejoin:round; stroke-width:4; stroke-opacity:1; fill:none" points="
  881.174,1423.18 881.174,1404.28 
  "/>
<polyline clip-path="url(#clip330)" style="stroke:#000000; stroke-linecap:butt; stroke-linejoin:round; stroke-width:4; stroke-opacity:1; fill:none" points="
  1294.96,1423.18 1294.96,1404.28 
  "/>
<polyline clip-path="url(#clip330)" style="stroke:#000000; stroke-linecap:butt; stroke-linejoin:round; stroke-width:4; stroke-opacity:1; fill:none" points="
  1708.75,1423.18 1708.75,1404.28 
  "/>
<polyline clip-path="url(#clip330)" style="stroke:#000000; stroke-linecap:butt; stroke-linejoin:round; stroke-width:4; stroke-opacity:1; fill:none" points="
  2122.54,1423.18 2122.54,1404.28 
  "/>
<path clip-path="url(#clip330)" d="M411.911 1481.64 L419.549 1481.64 L419.549 1455.28 L411.239 1456.95 L411.239 1452.69 L419.503 1451.02 L424.179 1451.02 L424.179 1481.64 L431.818 1481.64 L431.818 1485.58 L411.911 1485.58 L411.911 1481.64 Z" fill="#000000" fill-rule="evenodd" fill-opacity="1" /><path clip-path="url(#clip330)" d="M451.262 1454.1 Q447.651 1454.1 445.822 1457.66 Q444.017 1461.2 444.017 1468.33 Q444.017 1475.44 445.822 1479.01 Q447.651 1482.55 451.262 1482.55 Q454.896 1482.55 456.702 1479.01 Q458.531 1475.44 458.531 1468.33 Q458.531 1461.2 456.702 1457.66 Q454.896 1454.1 451.262 1454.1 M451.262 1450.39 Q457.072 1450.39 460.128 1455 Q463.207 1459.58 463.207 1468.33 Q463.207 1477.06 460.128 1481.67 Q457.072 1486.25 451.262 1486.25 Q445.452 1486.25 442.373 1481.67 Q439.318 1477.06 439.318 1468.33 Q439.318 1459.58 442.373 1455 Q445.452 1450.39 451.262 1450.39 Z" fill="#000000" fill-rule="evenodd" fill-opacity="1" /><path clip-path="url(#clip330)" d="M481.424 1454.1 Q477.813 1454.1 475.984 1457.66 Q474.179 1461.2 474.179 1468.33 Q474.179 1475.44 475.984 1479.01 Q477.813 1482.55 481.424 1482.55 Q485.058 1482.55 486.864 1479.01 Q488.693 1475.44 488.693 1468.33 Q488.693 1461.2 486.864 1457.66 Q485.058 1454.1 481.424 1454.1 M481.424 1450.39 Q487.234 1450.39 490.29 1455 Q493.368 1459.58 493.368 1468.33 Q493.368 1477.06 490.29 1481.67 Q487.234 1486.25 481.424 1486.25 Q475.614 1486.25 472.535 1481.67 Q469.48 1477.06 469.48 1468.33 Q469.48 1459.58 472.535 1455 Q475.614 1450.39 481.424 1450.39 Z" fill="#000000" fill-rule="evenodd" fill-opacity="1" /><path clip-path="url(#clip330)" d="M511.586 1454.1 Q507.975 1454.1 506.146 1457.66 Q504.341 1461.2 504.341 1468.33 Q504.341 1475.44 506.146 1479.01 Q507.975 1482.55 511.586 1482.55 Q515.22 1482.55 517.026 1479.01 Q518.854 1475.44 518.854 1468.33 Q518.854 1461.2 517.026 1457.66 Q515.22 1454.1 511.586 1454.1 M511.586 1450.39 Q517.396 1450.39 520.452 1455 Q523.53 1459.58 523.53 1468.33 Q523.53 1477.06 520.452 1481.67 Q517.396 1486.25 511.586 1486.25 Q505.776 1486.25 502.697 1481.67 Q499.642 1477.06 499.642 1468.33 Q499.642 1459.58 502.697 1455 Q505.776 1450.39 511.586 1450.39 Z" fill="#000000" fill-rule="evenodd" fill-opacity="1" /><path clip-path="url(#clip330)" d="M825.699 1481.64 L833.338 1481.64 L833.338 1455.28 L825.028 1456.95 L825.028 1452.69 L833.292 1451.02 L837.968 1451.02 L837.968 1481.64 L845.607 1481.64 L845.607 1485.58 L825.699 1485.58 L825.699 1481.64 Z" fill="#000000" fill-rule="evenodd" fill-opacity="1" /><path clip-path="url(#clip330)" d="M855.097 1451.02 L873.454 1451.02 L873.454 1454.96 L859.38 1454.96 L859.38 1463.43 Q860.398 1463.08 861.417 1462.92 Q862.435 1462.73 863.454 1462.73 Q869.241 1462.73 872.62 1465.9 Q876 1469.08 876 1474.49 Q876 1480.07 872.528 1483.17 Q869.056 1486.25 862.736 1486.25 Q860.56 1486.25 858.292 1485.88 Q856.046 1485.51 853.639 1484.77 L853.639 1480.07 Q855.722 1481.2 857.945 1481.76 Q860.167 1482.32 862.644 1482.32 Q866.648 1482.32 868.986 1480.21 Q871.324 1478.1 871.324 1474.49 Q871.324 1470.88 868.986 1468.77 Q866.648 1466.67 862.644 1466.67 Q860.769 1466.67 858.894 1467.08 Q857.042 1467.5 855.097 1468.38 L855.097 1451.02 Z" fill="#000000" fill-rule="evenodd" fill-opacity="1" /><path clip-path="url(#clip330)" d="M895.213 1454.1 Q891.602 1454.1 889.773 1457.66 Q887.968 1461.2 887.968 1468.33 Q887.968 1475.44 889.773 1479.01 Q891.602 1482.55 895.213 1482.55 Q898.847 1482.55 900.653 1479.01 Q902.481 1475.44 902.481 1468.33 Q902.481 1461.2 900.653 1457.66 Q898.847 1454.1 895.213 1454.1 M895.213 1450.39 Q901.023 1450.39 904.079 1455 Q907.157 1459.58 907.157 1468.33 Q907.157 1477.06 904.079 1481.67 Q901.023 1486.25 895.213 1486.25 Q889.403 1486.25 886.324 1481.67 Q883.269 1477.06 883.269 1468.33 Q883.269 1459.58 886.324 1455 Q889.403 1450.39 895.213 1450.39 Z" fill="#000000" fill-rule="evenodd" fill-opacity="1" /><path clip-path="url(#clip330)" d="M925.375 1454.1 Q921.764 1454.1 919.935 1457.66 Q918.129 1461.2 918.129 1468.33 Q918.129 1475.44 919.935 1479.01 Q921.764 1482.55 925.375 1482.55 Q929.009 1482.55 930.815 1479.01 Q932.643 1475.44 932.643 1468.33 Q932.643 1461.2 930.815 1457.66 Q929.009 1454.1 925.375 1454.1 M925.375 1450.39 Q931.185 1450.39 934.241 1455 Q937.319 1459.58 937.319 1468.33 Q937.319 1477.06 934.241 1481.67 Q931.185 1486.25 925.375 1486.25 Q919.565 1486.25 916.486 1481.67 Q913.43 1477.06 913.43 1468.33 Q913.43 1459.58 916.486 1455 Q919.565 1450.39 925.375 1450.39 Z" fill="#000000" fill-rule="evenodd" fill-opacity="1" /><path clip-path="url(#clip330)" d="M1243.57 1481.64 L1259.89 1481.64 L1259.89 1485.58 L1237.95 1485.58 L1237.95 1481.64 Q1240.61 1478.89 1245.19 1474.26 Q1249.8 1469.61 1250.98 1468.27 Q1253.23 1465.74 1254.11 1464.01 Q1255.01 1462.25 1255.01 1460.56 Q1255.01 1457.8 1253.06 1456.07 Q1251.14 1454.33 1248.04 1454.33 Q1245.84 1454.33 1243.39 1455.09 Q1240.96 1455.86 1238.18 1457.41 L1238.18 1452.69 Q1241 1451.55 1243.46 1450.97 Q1245.91 1450.39 1247.95 1450.39 Q1253.32 1450.39 1256.51 1453.08 Q1259.71 1455.77 1259.71 1460.26 Q1259.71 1462.39 1258.9 1464.31 Q1258.11 1466.2 1256 1468.8 Q1255.43 1469.47 1252.32 1472.69 Q1249.22 1475.88 1243.57 1481.64 Z" fill="#000000" fill-rule="evenodd" fill-opacity="1" /><path clip-path="url(#clip330)" d="M1279.71 1454.1 Q1276.1 1454.1 1274.27 1457.66 Q1272.46 1461.2 1272.46 1468.33 Q1272.46 1475.44 1274.27 1479.01 Q1276.1 1482.55 1279.71 1482.55 Q1283.34 1482.55 1285.15 1479.01 Q1286.98 1475.44 1286.98 1468.33 Q1286.98 1461.2 1285.15 1457.66 Q1283.34 1454.1 1279.71 1454.1 M1279.71 1450.39 Q1285.52 1450.39 1288.57 1455 Q1291.65 1459.58 1291.65 1468.33 Q1291.65 1477.06 1288.57 1481.67 Q1285.52 1486.25 1279.71 1486.25 Q1273.9 1486.25 1270.82 1481.67 Q1267.76 1477.06 1267.76 1468.33 Q1267.76 1459.58 1270.82 1455 Q1273.9 1450.39 1279.71 1450.39 Z" fill="#000000" fill-rule="evenodd" fill-opacity="1" /><path clip-path="url(#clip330)" d="M1309.87 1454.1 Q1306.26 1454.1 1304.43 1457.66 Q1302.62 1461.2 1302.62 1468.33 Q1302.62 1475.44 1304.43 1479.01 Q1306.26 1482.55 1309.87 1482.55 Q1313.5 1482.55 1315.31 1479.01 Q1317.14 1475.44 1317.14 1468.33 Q1317.14 1461.2 1315.31 1457.66 Q1313.5 1454.1 1309.87 1454.1 M1309.87 1450.39 Q1315.68 1450.39 1318.74 1455 Q1321.81 1459.58 1321.81 1468.33 Q1321.81 1477.06 1318.74 1481.67 Q1315.68 1486.25 1309.87 1486.25 Q1304.06 1486.25 1300.98 1481.67 Q1297.93 1477.06 1297.93 1468.33 Q1297.93 1459.58 1300.98 1455 Q1304.06 1450.39 1309.87 1450.39 Z" fill="#000000" fill-rule="evenodd" fill-opacity="1" /><path clip-path="url(#clip330)" d="M1340.03 1454.1 Q1336.42 1454.1 1334.59 1457.66 Q1332.79 1461.2 1332.79 1468.33 Q1332.79 1475.44 1334.59 1479.01 Q1336.42 1482.55 1340.03 1482.55 Q1343.67 1482.55 1345.47 1479.01 Q1347.3 1475.44 1347.3 1468.33 Q1347.3 1461.2 1345.47 1457.66 Q1343.67 1454.1 1340.03 1454.1 M1340.03 1450.39 Q1345.84 1450.39 1348.9 1455 Q1351.98 1459.58 1351.98 1468.33 Q1351.98 1477.06 1348.9 1481.67 Q1345.84 1486.25 1340.03 1486.25 Q1334.22 1486.25 1331.14 1481.67 Q1328.09 1477.06 1328.09 1468.33 Q1328.09 1459.58 1331.14 1455 Q1334.22 1450.39 1340.03 1450.39 Z" fill="#000000" fill-rule="evenodd" fill-opacity="1" /><path clip-path="url(#clip330)" d="M1657.36 1481.64 L1673.68 1481.64 L1673.68 1485.58 L1651.74 1485.58 L1651.74 1481.64 Q1654.4 1478.89 1658.98 1474.26 Q1663.59 1469.61 1664.77 1468.27 Q1667.02 1465.74 1667.9 1464.01 Q1668.8 1462.25 1668.8 1460.56 Q1668.8 1457.8 1666.85 1456.07 Q1664.93 1454.33 1661.83 1454.33 Q1659.63 1454.33 1657.18 1455.09 Q1654.75 1455.86 1651.97 1457.41 L1651.97 1452.69 Q1654.79 1451.55 1657.25 1450.97 Q1659.7 1450.39 1661.74 1450.39 Q1667.11 1450.39 1670.3 1453.08 Q1673.5 1455.77 1673.5 1460.26 Q1673.5 1462.39 1672.69 1464.31 Q1671.9 1466.2 1669.79 1468.8 Q1669.21 1469.47 1666.11 1472.69 Q1663.01 1475.88 1657.36 1481.64 Z" fill="#000000" fill-rule="evenodd" fill-opacity="1" /><path clip-path="url(#clip330)" d="M1683.54 1451.02 L1701.9 1451.02 L1701.9 1454.96 L1687.83 1454.96 L1687.83 1463.43 Q1688.84 1463.08 1689.86 1462.92 Q1690.88 1462.73 1691.9 1462.73 Q1697.69 1462.73 1701.07 1465.9 Q1704.45 1469.08 1704.45 1474.49 Q1704.45 1480.07 1700.97 1483.17 Q1697.5 1486.25 1691.18 1486.25 Q1689.01 1486.25 1686.74 1485.88 Q1684.49 1485.51 1682.08 1484.77 L1682.08 1480.07 Q1684.17 1481.2 1686.39 1481.76 Q1688.61 1482.32 1691.09 1482.32 Q1695.09 1482.32 1697.43 1480.21 Q1699.77 1478.1 1699.77 1474.49 Q1699.77 1470.88 1697.43 1468.77 Q1695.09 1466.67 1691.09 1466.67 Q1689.21 1466.67 1687.34 1467.08 Q1685.49 1467.5 1683.54 1468.38 L1683.54 1451.02 Z" fill="#000000" fill-rule="evenodd" fill-opacity="1" /><path clip-path="url(#clip330)" d="M1723.66 1454.1 Q1720.05 1454.1 1718.22 1457.66 Q1716.41 1461.2 1716.41 1468.33 Q1716.41 1475.44 1718.22 1479.01 Q1720.05 1482.55 1723.66 1482.55 Q1727.29 1482.55 1729.1 1479.01 Q1730.93 1475.44 1730.93 1468.33 Q1730.93 1461.2 1729.1 1457.66 Q1727.29 1454.1 1723.66 1454.1 M1723.66 1450.39 Q1729.47 1450.39 1732.52 1455 Q1735.6 1459.58 1735.6 1468.33 Q1735.6 1477.06 1732.52 1481.67 Q1729.47 1486.25 1723.66 1486.25 Q1717.85 1486.25 1714.77 1481.67 Q1711.71 1477.06 1711.71 1468.33 Q1711.71 1459.58 1714.77 1455 Q1717.85 1450.39 1723.66 1450.39 Z" fill="#000000" fill-rule="evenodd" fill-opacity="1" /><path clip-path="url(#clip330)" d="M1753.82 1454.1 Q1750.21 1454.1 1748.38 1457.66 Q1746.58 1461.2 1746.58 1468.33 Q1746.58 1475.44 1748.38 1479.01 Q1750.21 1482.55 1753.82 1482.55 Q1757.45 1482.55 1759.26 1479.01 Q1761.09 1475.44 1761.09 1468.33 Q1761.09 1461.2 1759.26 1457.66 Q1757.45 1454.1 1753.82 1454.1 M1753.82 1450.39 Q1759.63 1450.39 1762.69 1455 Q1765.77 1459.58 1765.77 1468.33 Q1765.77 1477.06 1762.69 1481.67 Q1759.63 1486.25 1753.82 1486.25 Q1748.01 1486.25 1744.93 1481.67 Q1741.88 1477.06 1741.88 1468.33 Q1741.88 1459.58 1744.93 1455 Q1748.01 1450.39 1753.82 1450.39 Z" fill="#000000" fill-rule="evenodd" fill-opacity="1" /><path clip-path="url(#clip330)" d="M2081.22 1466.95 Q2084.58 1467.66 2086.45 1469.93 Q2088.35 1472.2 2088.35 1475.53 Q2088.35 1480.65 2084.83 1483.45 Q2081.31 1486.25 2074.83 1486.25 Q2072.66 1486.25 2070.34 1485.81 Q2068.05 1485.39 2065.6 1484.54 L2065.6 1480.02 Q2067.54 1481.16 2069.86 1481.74 Q2072.17 1482.32 2074.69 1482.32 Q2079.09 1482.32 2081.38 1480.58 Q2083.7 1478.84 2083.7 1475.53 Q2083.7 1472.48 2081.55 1470.77 Q2079.42 1469.03 2075.6 1469.03 L2071.57 1469.03 L2071.57 1465.19 L2075.78 1465.19 Q2079.23 1465.19 2081.06 1463.82 Q2082.89 1462.43 2082.89 1459.84 Q2082.89 1457.18 2080.99 1455.77 Q2079.11 1454.33 2075.6 1454.33 Q2073.67 1454.33 2071.48 1454.75 Q2069.28 1455.16 2066.64 1456.04 L2066.64 1451.88 Q2069.3 1451.14 2071.61 1450.77 Q2073.95 1450.39 2076.01 1450.39 Q2081.34 1450.39 2084.44 1452.83 Q2087.54 1455.23 2087.54 1459.35 Q2087.54 1462.22 2085.9 1464.21 Q2084.25 1466.18 2081.22 1466.95 Z" fill="#000000" fill-rule="evenodd" fill-opacity="1" /><path clip-path="url(#clip330)" d="M2107.22 1454.1 Q2103.61 1454.1 2101.78 1457.66 Q2099.97 1461.2 2099.97 1468.33 Q2099.97 1475.44 2101.78 1479.01 Q2103.61 1482.55 2107.22 1482.55 Q2110.85 1482.55 2112.66 1479.01 Q2114.48 1475.44 2114.48 1468.33 Q2114.48 1461.2 2112.66 1457.66 Q2110.85 1454.1 2107.22 1454.1 M2107.22 1450.39 Q2113.03 1450.39 2116.08 1455 Q2119.16 1459.58 2119.16 1468.33 Q2119.16 1477.06 2116.08 1481.67 Q2113.03 1486.25 2107.22 1486.25 Q2101.41 1486.25 2098.33 1481.67 Q2095.27 1477.06 2095.27 1468.33 Q2095.27 1459.58 2098.33 1455 Q2101.41 1450.39 2107.22 1450.39 Z" fill="#000000" fill-rule="evenodd" fill-opacity="1" /><path clip-path="url(#clip330)" d="M2137.38 1454.1 Q2133.77 1454.1 2131.94 1457.66 Q2130.13 1461.2 2130.13 1468.33 Q2130.13 1475.44 2131.94 1479.01 Q2133.77 1482.55 2137.38 1482.55 Q2141.01 1482.55 2142.82 1479.01 Q2144.65 1475.44 2144.65 1468.33 Q2144.65 1461.2 2142.82 1457.66 Q2141.01 1454.1 2137.38 1454.1 M2137.38 1450.39 Q2143.19 1450.39 2146.24 1455 Q2149.32 1459.58 2149.32 1468.33 Q2149.32 1477.06 2146.24 1481.67 Q2143.19 1486.25 2137.38 1486.25 Q2131.57 1486.25 2128.49 1481.67 Q2125.43 1477.06 2125.43 1468.33 Q2125.43 1459.58 2128.49 1455 Q2131.57 1450.39 2137.38 1450.39 Z" fill="#000000" fill-rule="evenodd" fill-opacity="1" /><path clip-path="url(#clip330)" d="M2167.54 1454.1 Q2163.93 1454.1 2162.1 1457.66 Q2160.29 1461.2 2160.29 1468.33 Q2160.29 1475.44 2162.1 1479.01 Q2163.93 1482.55 2167.54 1482.55 Q2171.17 1482.55 2172.98 1479.01 Q2174.81 1475.44 2174.81 1468.33 Q2174.81 1461.2 2172.98 1457.66 Q2171.17 1454.1 2167.54 1454.1 M2167.54 1450.39 Q2173.35 1450.39 2176.41 1455 Q2179.48 1459.58 2179.48 1468.33 Q2179.48 1477.06 2176.41 1481.67 Q2173.35 1486.25 2167.54 1486.25 Q2161.73 1486.25 2158.65 1481.67 Q2155.6 1477.06 2155.6 1468.33 Q2155.6 1459.58 2158.65 1455 Q2161.73 1450.39 2167.54 1450.39 Z" fill="#000000" fill-rule="evenodd" fill-opacity="1" /><path clip-path="url(#clip330)" d="M1251.09 1526.86 L1242.37 1550.51 L1259.84 1550.51 L1251.09 1526.86 M1247.46 1520.52 L1254.75 1520.52 L1272.86 1568.04 L1266.17 1568.04 L1261.85 1555.85 L1240.42 1555.85 L1236.1 1568.04 L1229.32 1568.04 L1247.46 1520.52 Z" fill="#000000" fill-rule="evenodd" fill-opacity="1" /><path clip-path="url(#clip330)" d="M1286.23 1525.81 L1286.23 1562.76 L1293.99 1562.76 Q1303.83 1562.76 1308.38 1558.3 Q1312.96 1553.85 1312.96 1544.24 Q1312.96 1534.69 1308.38 1530.26 Q1303.83 1525.81 1293.99 1525.81 L1286.23 1525.81 M1279.8 1520.52 L1293.01 1520.52 Q1306.82 1520.52 1313.28 1526.28 Q1319.74 1532.01 1319.74 1544.24 Q1319.74 1556.52 1313.25 1562.28 Q1306.76 1568.04 1293.01 1568.04 L1279.8 1568.04 L1279.8 1520.52 Z" fill="#000000" fill-rule="evenodd" fill-opacity="1" /><path clip-path="url(#clip330)" d="M1365.57 1524.18 L1365.57 1530.96 Q1362.33 1527.94 1358.64 1526.44 Q1354.98 1524.95 1350.84 1524.95 Q1342.69 1524.95 1338.36 1529.95 Q1334.03 1534.91 1334.03 1544.33 Q1334.03 1553.72 1338.36 1558.72 Q1342.69 1563.68 1350.84 1563.68 Q1354.98 1563.68 1358.64 1562.19 Q1362.33 1560.69 1365.57 1557.67 L1365.57 1564.38 Q1362.2 1566.68 1358.41 1567.82 Q1354.66 1568.97 1350.46 1568.97 Q1339.67 1568.97 1333.46 1562.38 Q1327.25 1555.76 1327.25 1544.33 Q1327.25 1532.87 1333.46 1526.28 Q1339.67 1519.66 1350.46 1519.66 Q1354.72 1519.66 1358.48 1520.81 Q1362.26 1521.92 1365.57 1524.18 Z" fill="#000000" fill-rule="evenodd" fill-opacity="1" /><polyline clip-path="url(#clip332)" style="stroke:#000000; stroke-linecap:butt; stroke-linejoin:round; stroke-width:2; stroke-opacity:0.1; fill:none" points="
  242.135,1363.82 2352.76,1363.82 
  "/>
<polyline clip-path="url(#clip332)" style="stroke:#000000; stroke-linecap:butt; stroke-linejoin:round; stroke-width:2; stroke-opacity:0.1; fill:none" points="
  242.135,1163.23 2352.76,1163.23 
  "/>
<polyline clip-path="url(#clip332)" style="stroke:#000000; stroke-linecap:butt; stroke-linejoin:round; stroke-width:2; stroke-opacity:0.1; fill:none" points="
  242.135,962.635 2352.76,962.635 
  "/>
<polyline clip-path="url(#clip332)" style="stroke:#000000; stroke-linecap:butt; stroke-linejoin:round; stroke-width:2; stroke-opacity:0.1; fill:none" points="
  242.135,762.04 2352.76,762.04 
  "/>
<polyline clip-path="url(#clip332)" style="stroke:#000000; stroke-linecap:butt; stroke-linejoin:round; stroke-width:2; stroke-opacity:0.1; fill:none" points="
  242.135,561.446 2352.76,561.446 
  "/>
<polyline clip-path="url(#clip332)" style="stroke:#000000; stroke-linecap:butt; stroke-linejoin:round; stroke-width:2; stroke-opacity:0.1; fill:none" points="
  242.135,360.851 2352.76,360.851 
  "/>
<polyline clip-path="url(#clip332)" style="stroke:#000000; stroke-linecap:butt; stroke-linejoin:round; stroke-width:2; stroke-opacity:0.1; fill:none" points="
  242.135,160.256 2352.76,160.256 
  "/>
<polyline clip-path="url(#clip330)" style="stroke:#000000; stroke-linecap:butt; stroke-linejoin:round; stroke-width:4; stroke-opacity:1; fill:none" points="
  242.135,1423.18 242.135,123.472 
  "/>
<polyline clip-path="url(#clip330)" style="stroke:#000000; stroke-linecap:butt; stroke-linejoin:round; stroke-width:4; stroke-opacity:1; fill:none" points="
  242.135,1363.82 261.032,1363.82 
  "/>
<polyline clip-path="url(#clip330)" style="stroke:#000000; stroke-linecap:butt; stroke-linejoin:round; stroke-width:4; stroke-opacity:1; fill:none" points="
  242.135,1163.23 261.032,1163.23 
  "/>
<polyline clip-path="url(#clip330)" style="stroke:#000000; stroke-linecap:butt; stroke-linejoin:round; stroke-width:4; stroke-opacity:1; fill:none" points="
  242.135,962.635 261.032,962.635 
  "/>
<polyline clip-path="url(#clip330)" style="stroke:#000000; stroke-linecap:butt; stroke-linejoin:round; stroke-width:4; stroke-opacity:1; fill:none" points="
  242.135,762.04 261.032,762.04 
  "/>
<polyline clip-path="url(#clip330)" style="stroke:#000000; stroke-linecap:butt; stroke-linejoin:round; stroke-width:4; stroke-opacity:1; fill:none" points="
  242.135,561.446 261.032,561.446 
  "/>
<polyline clip-path="url(#clip330)" style="stroke:#000000; stroke-linecap:butt; stroke-linejoin:round; stroke-width:4; stroke-opacity:1; fill:none" points="
  242.135,360.851 261.032,360.851 
  "/>
<polyline clip-path="url(#clip330)" style="stroke:#000000; stroke-linecap:butt; stroke-linejoin:round; stroke-width:4; stroke-opacity:1; fill:none" points="
  242.135,160.256 261.032,160.256 
  "/>
<path clip-path="url(#clip330)" d="M114.26 1364.28 L143.936 1364.28 L143.936 1368.21 L114.26 1368.21 L114.26 1364.28 Z" fill="#000000" fill-rule="evenodd" fill-opacity="1" /><path clip-path="url(#clip330)" d="M164.607 1361.96 Q161.459 1361.96 159.607 1364.11 Q157.778 1366.27 157.778 1370.02 Q157.778 1373.74 159.607 1375.92 Q161.459 1378.07 164.607 1378.07 Q167.755 1378.07 169.584 1375.92 Q171.436 1373.74 171.436 1370.02 Q171.436 1366.27 169.584 1364.11 Q167.755 1361.96 164.607 1361.96 M173.889 1347.31 L173.889 1351.57 Q172.13 1350.73 170.325 1350.29 Q168.542 1349.85 166.783 1349.85 Q162.153 1349.85 159.7 1352.98 Q157.269 1356.1 156.922 1362.42 Q158.288 1360.41 160.348 1359.35 Q162.408 1358.26 164.885 1358.26 Q170.093 1358.26 173.102 1361.43 Q176.135 1364.58 176.135 1370.02 Q176.135 1375.34 172.987 1378.56 Q169.839 1381.78 164.607 1381.78 Q158.612 1381.78 155.44 1377.19 Q152.269 1372.59 152.269 1363.86 Q152.269 1355.66 156.158 1350.8 Q160.047 1345.92 166.598 1345.92 Q168.357 1345.92 170.139 1346.27 Q171.945 1346.61 173.889 1347.31 Z" fill="#000000" fill-rule="evenodd" fill-opacity="1" /><path clip-path="url(#clip330)" d="M194.19 1349.62 Q190.579 1349.62 188.75 1353.19 Q186.945 1356.73 186.945 1363.86 Q186.945 1370.97 188.75 1374.53 Q190.579 1378.07 194.19 1378.07 Q197.825 1378.07 199.63 1374.53 Q201.459 1370.97 201.459 1363.86 Q201.459 1356.73 199.63 1353.19 Q197.825 1349.62 194.19 1349.62 M194.19 1345.92 Q200 1345.92 203.056 1350.53 Q206.135 1355.11 206.135 1363.86 Q206.135 1372.59 203.056 1377.19 Q200 1381.78 194.19 1381.78 Q188.38 1381.78 185.301 1377.19 Q182.246 1372.59 182.246 1363.86 Q182.246 1355.11 185.301 1350.53 Q188.38 1345.92 194.19 1345.92 Z" fill="#000000" fill-rule="evenodd" fill-opacity="1" /><path clip-path="url(#clip330)" d="M114.26 1163.68 L143.936 1163.68 L143.936 1167.62 L114.26 1167.62 L114.26 1163.68 Z" fill="#000000" fill-rule="evenodd" fill-opacity="1" /><path clip-path="url(#clip330)" d="M154.075 1145.95 L172.431 1145.95 L172.431 1149.88 L158.357 1149.88 L158.357 1158.36 Q159.376 1158.01 160.394 1157.85 Q161.413 1157.66 162.431 1157.66 Q168.218 1157.66 171.598 1160.83 Q174.977 1164.01 174.977 1169.42 Q174.977 1175 171.505 1178.1 Q168.033 1181.18 161.714 1181.18 Q159.538 1181.18 157.269 1180.81 Q155.024 1180.44 152.616 1179.7 L152.616 1175 Q154.7 1176.13 156.922 1176.69 Q159.144 1177.25 161.621 1177.25 Q165.626 1177.25 167.964 1175.14 Q170.302 1173.03 170.302 1169.42 Q170.302 1165.81 167.964 1163.7 Q165.626 1161.6 161.621 1161.6 Q159.746 1161.6 157.871 1162.01 Q156.019 1162.43 154.075 1163.31 L154.075 1145.95 Z" fill="#000000" fill-rule="evenodd" fill-opacity="1" /><path clip-path="url(#clip330)" d="M194.19 1149.03 Q190.579 1149.03 188.75 1152.59 Q186.945 1156.13 186.945 1163.26 Q186.945 1170.37 188.75 1173.94 Q190.579 1177.48 194.19 1177.48 Q197.825 1177.48 199.63 1173.94 Q201.459 1170.37 201.459 1163.26 Q201.459 1156.13 199.63 1152.59 Q197.825 1149.03 194.19 1149.03 M194.19 1145.32 Q200 1145.32 203.056 1149.93 Q206.135 1154.51 206.135 1163.26 Q206.135 1171.99 203.056 1176.6 Q200 1181.18 194.19 1181.18 Q188.38 1181.18 185.301 1176.6 Q182.246 1171.99 182.246 1163.26 Q182.246 1154.51 185.301 1149.93 Q188.38 1145.32 194.19 1145.32 Z" fill="#000000" fill-rule="evenodd" fill-opacity="1" /><path clip-path="url(#clip330)" d="M114.26 963.086 L143.936 963.086 L143.936 967.022 L114.26 967.022 L114.26 963.086 Z" fill="#000000" fill-rule="evenodd" fill-opacity="1" /><path clip-path="url(#clip330)" d="M166.876 949.429 L155.07 967.878 L166.876 967.878 L166.876 949.429 M165.649 945.355 L171.528 945.355 L171.528 967.878 L176.459 967.878 L176.459 971.767 L171.528 971.767 L171.528 979.915 L166.876 979.915 L166.876 971.767 L151.274 971.767 L151.274 967.253 L165.649 945.355 Z" fill="#000000" fill-rule="evenodd" fill-opacity="1" /><path clip-path="url(#clip330)" d="M194.19 948.434 Q190.579 948.434 188.75 951.998 Q186.945 955.54 186.945 962.67 Q186.945 969.776 188.75 973.341 Q190.579 976.883 194.19 976.883 Q197.825 976.883 199.63 973.341 Q201.459 969.776 201.459 962.67 Q201.459 955.54 199.63 951.998 Q197.825 948.434 194.19 948.434 M194.19 944.73 Q200 944.73 203.056 949.336 Q206.135 953.92 206.135 962.67 Q206.135 971.397 203.056 976.003 Q200 980.586 194.19 980.586 Q188.38 980.586 185.301 976.003 Q182.246 971.397 182.246 962.67 Q182.246 953.92 185.301 949.336 Q188.38 944.73 194.19 944.73 Z" fill="#000000" fill-rule="evenodd" fill-opacity="1" /><path clip-path="url(#clip330)" d="M114.26 762.492 L143.936 762.492 L143.936 766.427 L114.26 766.427 L114.26 762.492 Z" fill="#000000" fill-rule="evenodd" fill-opacity="1" /><path clip-path="url(#clip330)" d="M168.195 760.686 Q171.552 761.404 173.427 763.672 Q175.325 765.941 175.325 769.274 Q175.325 774.39 171.806 777.191 Q168.288 779.992 161.806 779.992 Q159.63 779.992 157.315 779.552 Q155.024 779.135 152.57 778.279 L152.57 773.765 Q154.515 774.899 156.829 775.478 Q159.144 776.056 161.667 776.056 Q166.065 776.056 168.357 774.32 Q170.672 772.584 170.672 769.274 Q170.672 766.219 168.519 764.506 Q166.39 762.769 162.57 762.769 L158.542 762.769 L158.542 758.927 L162.755 758.927 Q166.204 758.927 168.033 757.561 Q169.862 756.172 169.862 753.58 Q169.862 750.918 167.964 749.506 Q166.089 748.07 162.57 748.07 Q160.649 748.07 158.45 748.487 Q156.251 748.904 153.612 749.783 L153.612 745.617 Q156.274 744.876 158.589 744.506 Q160.927 744.135 162.987 744.135 Q168.311 744.135 171.413 746.566 Q174.514 748.973 174.514 753.094 Q174.514 755.964 172.871 757.955 Q171.227 759.922 168.195 760.686 Z" fill="#000000" fill-rule="evenodd" fill-opacity="1" /><path clip-path="url(#clip330)" d="M194.19 747.839 Q190.579 747.839 188.75 751.404 Q186.945 754.945 186.945 762.075 Q186.945 769.181 188.75 772.746 Q190.579 776.288 194.19 776.288 Q197.825 776.288 199.63 772.746 Q201.459 769.181 201.459 762.075 Q201.459 754.945 199.63 751.404 Q197.825 747.839 194.19 747.839 M194.19 744.135 Q200 744.135 203.056 748.742 Q206.135 753.325 206.135 762.075 Q206.135 770.802 203.056 775.408 Q200 779.992 194.19 779.992 Q188.38 779.992 185.301 775.408 Q182.246 770.802 182.246 762.075 Q182.246 753.325 185.301 748.742 Q188.38 744.135 194.19 744.135 Z" fill="#000000" fill-rule="evenodd" fill-opacity="1" /><path clip-path="url(#clip330)" d="M114.26 561.897 L143.936 561.897 L143.936 565.832 L114.26 565.832 L114.26 561.897 Z" fill="#000000" fill-rule="evenodd" fill-opacity="1" /><path clip-path="url(#clip330)" d="M158.056 574.79 L174.376 574.79 L174.376 578.726 L152.431 578.726 L152.431 574.79 Q155.093 572.036 159.677 567.406 Q164.283 562.754 165.464 561.411 Q167.709 558.888 168.589 557.152 Q169.491 555.392 169.491 553.703 Q169.491 550.948 167.547 549.212 Q165.626 547.476 162.524 547.476 Q160.325 547.476 157.871 548.24 Q155.44 549.004 152.663 550.554 L152.663 545.832 Q155.487 544.698 157.94 544.119 Q160.394 543.541 162.431 543.541 Q167.802 543.541 170.996 546.226 Q174.19 548.911 174.19 553.402 Q174.19 555.531 173.38 557.453 Q172.593 559.351 170.487 561.943 Q169.908 562.615 166.806 565.832 Q163.704 569.027 158.056 574.79 Z" fill="#000000" fill-rule="evenodd" fill-opacity="1" /><path clip-path="url(#clip330)" d="M194.19 547.244 Q190.579 547.244 188.75 550.809 Q186.945 554.351 186.945 561.48 Q186.945 568.587 188.75 572.152 Q190.579 575.693 194.19 575.693 Q197.825 575.693 199.63 572.152 Q201.459 568.587 201.459 561.48 Q201.459 554.351 199.63 550.809 Q197.825 547.244 194.19 547.244 M194.19 543.541 Q200 543.541 203.056 548.147 Q206.135 552.73 206.135 561.48 Q206.135 570.207 203.056 574.814 Q200 579.397 194.19 579.397 Q188.38 579.397 185.301 574.814 Q182.246 570.207 182.246 561.48 Q182.246 552.73 185.301 548.147 Q188.38 543.541 194.19 543.541 Z" fill="#000000" fill-rule="evenodd" fill-opacity="1" /><path clip-path="url(#clip330)" d="M114.26 361.302 L143.936 361.302 L143.936 365.238 L114.26 365.238 L114.26 361.302 Z" fill="#000000" fill-rule="evenodd" fill-opacity="1" /><path clip-path="url(#clip330)" d="M154.839 374.196 L162.477 374.196 L162.477 347.83 L154.167 349.497 L154.167 345.238 L162.431 343.571 L167.107 343.571 L167.107 374.196 L174.746 374.196 L174.746 378.131 L154.839 378.131 L154.839 374.196 Z" fill="#000000" fill-rule="evenodd" fill-opacity="1" /><path clip-path="url(#clip330)" d="M194.19 346.65 Q190.579 346.65 188.75 350.214 Q186.945 353.756 186.945 360.886 Q186.945 367.992 188.75 371.557 Q190.579 375.099 194.19 375.099 Q197.825 375.099 199.63 371.557 Q201.459 367.992 201.459 360.886 Q201.459 353.756 199.63 350.214 Q197.825 346.65 194.19 346.65 M194.19 342.946 Q200 342.946 203.056 347.552 Q206.135 352.136 206.135 360.886 Q206.135 369.613 203.056 374.219 Q200 378.802 194.19 378.802 Q188.38 378.802 185.301 374.219 Q182.246 369.613 182.246 360.886 Q182.246 352.136 185.301 347.552 Q188.38 342.946 194.19 342.946 Z" fill="#000000" fill-rule="evenodd" fill-opacity="1" /><path clip-path="url(#clip330)" d="M194.19 146.055 Q190.579 146.055 188.75 149.62 Q186.945 153.161 186.945 160.291 Q186.945 167.397 188.75 170.962 Q190.579 174.504 194.19 174.504 Q197.825 174.504 199.63 170.962 Q201.459 167.397 201.459 160.291 Q201.459 153.161 199.63 149.62 Q197.825 146.055 194.19 146.055 M194.19 142.351 Q200 142.351 203.056 146.958 Q206.135 151.541 206.135 160.291 Q206.135 169.018 203.056 173.624 Q200 178.208 194.19 178.208 Q188.38 178.208 185.301 173.624 Q182.246 169.018 182.246 160.291 Q182.246 151.541 185.301 146.958 Q188.38 142.351 194.19 142.351 Z" fill="#000000" fill-rule="evenodd" fill-opacity="1" /><path clip-path="url(#clip330)" d="M33.7671 817.552 L14.479 817.552 L14.479 811.695 L64.0042 811.695 L64.0042 817.552 L58.657 817.552 Q61.8398 819.398 63.3994 822.231 Q64.9272 825.031 64.9272 828.978 Q64.9272 835.439 59.771 839.513 Q54.6147 843.556 46.212 843.556 Q37.8093 843.556 32.6531 839.513 Q27.4968 835.439 27.4968 828.978 Q27.4968 825.031 29.0564 822.231 Q30.5842 819.398 33.7671 817.552 M46.212 837.508 Q52.6732 837.508 56.3653 834.866 Q60.0256 832.193 60.0256 827.546 Q60.0256 822.899 56.3653 820.225 Q52.6732 817.552 46.212 817.552 Q39.7508 817.552 36.0905 820.225 Q32.3984 822.899 32.3984 827.546 Q32.3984 832.193 36.0905 834.866 Q39.7508 837.508 46.212 837.508 Z" fill="#000000" fill-rule="evenodd" fill-opacity="1" /><path clip-path="url(#clip330)" d="M41.3104 792.948 L58.7206 792.948 L58.7206 782.636 Q58.7206 777.448 56.5881 774.965 Q54.4238 772.451 49.9996 772.451 Q45.5436 772.451 43.4429 774.965 Q41.3104 777.448 41.3104 782.636 L41.3104 792.948 M21.7677 792.948 L36.0905 792.948 L36.0905 783.432 Q36.0905 778.721 34.34 776.429 Q32.5576 774.106 28.9291 774.106 Q25.3325 774.106 23.5501 776.429 Q21.7677 778.721 21.7677 783.432 L21.7677 792.948 M16.4842 799.378 L16.4842 782.954 Q16.4842 775.602 19.5397 771.623 Q22.5952 767.645 28.2289 767.645 Q32.5894 767.645 35.1675 769.682 Q37.7456 771.719 38.3822 775.665 Q39.4007 770.923 42.6472 768.313 Q45.8619 765.671 50.6998 765.671 Q57.0655 765.671 60.5348 770 Q64.0042 774.329 64.0042 782.318 L64.0042 799.378 L16.4842 799.378 Z" fill="#000000" fill-rule="evenodd" fill-opacity="1" /><path clip-path="url(#clip330)" d="M35.1993 727.159 Q31.2526 724.963 29.3747 721.907 Q27.4968 718.851 27.4968 714.714 Q27.4968 709.144 31.4117 706.12 Q35.2948 703.096 42.4881 703.096 L64.0042 703.096 L64.0042 708.985 L42.679 708.985 Q37.5546 708.985 35.072 710.799 Q32.5894 712.613 32.5894 716.337 Q32.5894 720.888 35.6131 723.53 Q38.6368 726.172 43.8567 726.172 L64.0042 726.172 L64.0042 732.06 L42.679 732.06 Q37.5228 732.06 35.072 733.875 Q32.5894 735.689 32.5894 739.476 Q32.5894 743.964 35.6449 746.606 Q38.6686 749.248 43.8567 749.248 L64.0042 749.248 L64.0042 755.136 L28.3562 755.136 L28.3562 749.248 L33.8944 749.248 Q30.616 747.243 29.0564 744.442 Q27.4968 741.641 27.4968 737.789 Q27.4968 733.906 29.4702 731.201 Q31.4436 728.464 35.1993 727.159 Z" fill="#000000" fill-rule="evenodd" fill-opacity="1" /><path clip-path="url(#clip330)" d="M1134.03 19.2256 L1113.37 51.5113 L1134.03 51.5113 L1134.03 19.2256 M1131.88 12.096 L1142.17 12.096 L1142.17 51.5113 L1150.8 51.5113 L1150.8 58.3168 L1142.17 58.3168 L1142.17 72.576 L1134.03 72.576 L1134.03 58.3168 L1106.73 58.3168 L1106.73 50.4176 L1131.88 12.096 Z" fill="#000000" fill-rule="evenodd" fill-opacity="1" /><path clip-path="url(#clip330)" d="M1170.65 14.324 L1170.65 27.2059 L1186 27.2059 L1186 32.9987 L1170.65 32.9987 L1170.65 57.6282 Q1170.65 63.1779 1172.15 64.7578 Q1173.69 66.3376 1178.35 66.3376 L1186 66.3376 L1186 72.576 L1178.35 72.576 Q1169.72 72.576 1166.44 69.3758 Q1163.16 66.1351 1163.16 57.6282 L1163.16 32.9987 L1157.69 32.9987 L1157.69 27.2059 L1163.16 27.2059 L1163.16 14.324 L1170.65 14.324 Z" fill="#000000" fill-rule="evenodd" fill-opacity="1" /><path clip-path="url(#clip330)" d="M1233.52 45.1919 L1233.52 72.576 L1226.07 72.576 L1226.07 45.4349 Q1226.07 38.994 1223.56 35.7938 Q1221.05 32.5936 1216.02 32.5936 Q1209.99 32.5936 1206.5 36.4419 Q1203.02 40.2903 1203.02 46.9338 L1203.02 72.576 L1195.52 72.576 L1195.52 9.54393 L1203.02 9.54393 L1203.02 34.2544 Q1205.69 30.163 1209.3 28.1376 Q1212.94 26.1121 1217.68 26.1121 Q1225.5 26.1121 1229.51 30.9732 Q1233.52 35.7938 1233.52 45.1919 Z" fill="#000000" fill-rule="evenodd" fill-opacity="1" /><path clip-path="url(#clip330)" d="M1292.34 32.4315 Q1286.35 32.4315 1282.86 37.1306 Q1279.38 41.7891 1279.38 49.9314 Q1279.38 58.0738 1282.82 62.7728 Q1286.31 67.4314 1292.34 67.4314 Q1298.3 67.4314 1301.78 62.7323 Q1305.26 58.0333 1305.26 49.9314 Q1305.26 41.8701 1301.78 37.1711 Q1298.3 32.4315 1292.34 32.4315 M1292.34 26.1121 Q1302.06 26.1121 1307.61 32.4315 Q1313.16 38.7509 1313.16 49.9314 Q1313.16 61.0714 1307.61 67.4314 Q1302.06 73.7508 1292.34 73.7508 Q1282.58 73.7508 1277.03 67.4314 Q1271.52 61.0714 1271.52 49.9314 Q1271.52 38.7509 1277.03 32.4315 Q1282.58 26.1121 1292.34 26.1121 Z" fill="#000000" fill-rule="evenodd" fill-opacity="1" /><path clip-path="url(#clip330)" d="M1351.81 34.1734 Q1350.55 33.4443 1349.05 33.1202 Q1347.6 32.7556 1345.81 32.7556 Q1339.49 32.7556 1336.09 36.8875 Q1332.73 40.9789 1332.73 48.6757 L1332.73 72.576 L1325.23 72.576 L1325.23 27.2059 L1332.73 27.2059 L1332.73 34.2544 Q1335.08 30.1225 1338.85 28.1376 Q1342.61 26.1121 1348 26.1121 Q1348.77 26.1121 1349.7 26.2337 Q1350.63 26.3147 1351.77 26.5172 L1351.81 34.1734 Z" fill="#000000" fill-rule="evenodd" fill-opacity="1" /><path clip-path="url(#clip330)" d="M1388.02 34.0924 L1388.02 9.54393 L1395.48 9.54393 L1395.48 72.576 L1388.02 72.576 L1388.02 65.7705 Q1385.67 69.8214 1382.07 71.8063 Q1378.5 73.7508 1373.48 73.7508 Q1365.26 73.7508 1360.07 67.1883 Q1354.93 60.6258 1354.93 49.9314 Q1354.93 39.2371 1360.07 32.6746 Q1365.26 26.1121 1373.48 26.1121 Q1378.5 26.1121 1382.07 28.0971 Q1385.67 30.0415 1388.02 34.0924 M1362.62 49.9314 Q1362.62 58.1548 1365.99 62.8538 Q1369.39 67.5124 1375.3 67.5124 Q1381.22 67.5124 1384.62 62.8538 Q1388.02 58.1548 1388.02 49.9314 Q1388.02 41.7081 1384.62 37.0496 Q1381.22 32.3505 1375.3 32.3505 Q1369.39 32.3505 1365.99 37.0496 Q1362.62 41.7081 1362.62 49.9314 Z" fill="#000000" fill-rule="evenodd" fill-opacity="1" /><path clip-path="url(#clip330)" d="M1449.64 48.0275 L1449.64 51.6733 L1415.37 51.6733 Q1415.85 59.3701 1419.99 63.421 Q1424.16 67.4314 1431.57 67.4314 Q1435.86 67.4314 1439.88 66.3781 Q1443.93 65.3249 1447.9 63.2184 L1447.9 70.267 Q1443.89 71.9684 1439.67 72.8596 Q1435.46 73.7508 1431.13 73.7508 Q1420.27 73.7508 1413.91 67.4314 Q1407.59 61.1119 1407.59 50.3365 Q1407.59 39.1965 1413.58 32.6746 Q1419.62 26.1121 1429.83 26.1121 Q1438.98 26.1121 1444.29 32.0264 Q1449.64 37.9003 1449.64 48.0275 M1442.18 45.84 Q1442.1 39.7232 1438.74 36.0774 Q1435.42 32.4315 1429.91 32.4315 Q1423.67 32.4315 1419.9 35.9558 Q1416.18 39.4801 1415.61 45.8805 L1442.18 45.84 Z" fill="#000000" fill-rule="evenodd" fill-opacity="1" /><path clip-path="url(#clip330)" d="M1488.16 34.1734 Q1486.91 33.4443 1485.41 33.1202 Q1483.95 32.7556 1482.17 32.7556 Q1475.85 32.7556 1472.44 36.8875 Q1469.08 40.9789 1469.08 48.6757 L1469.08 72.576 L1461.59 72.576 L1461.59 27.2059 L1469.08 27.2059 L1469.08 34.2544 Q1471.43 30.1225 1475.2 28.1376 Q1478.97 26.1121 1484.35 26.1121 Q1485.12 26.1121 1486.06 26.2337 Q1486.99 26.3147 1488.12 26.5172 L1488.16 34.1734 Z" fill="#000000" fill-rule="evenodd" fill-opacity="1" /><circle clip-path="url(#clip332)" cx="301.869" cy="160.256" r="14" fill="#009af9" fill-rule="evenodd" fill-opacity="1" stroke="#000000" stroke-opacity="1" stroke-width="3.2"/>
<circle clip-path="url(#clip332)" cx="315.938" cy="180.316" r="14" fill="#009af9" fill-rule="evenodd" fill-opacity="1" stroke="#000000" stroke-opacity="1" stroke-width="3.2"/>
<circle clip-path="url(#clip332)" cx="339.938" cy="200.375" r="14" fill="#009af9" fill-rule="evenodd" fill-opacity="1" stroke="#000000" stroke-opacity="1" stroke-width="3.2"/>
<circle clip-path="url(#clip332)" cx="358.972" cy="220.435" r="14" fill="#009af9" fill-rule="evenodd" fill-opacity="1" stroke="#000000" stroke-opacity="1" stroke-width="3.2"/>
<circle clip-path="url(#clip332)" cx="385.455" cy="240.494" r="14" fill="#009af9" fill-rule="evenodd" fill-opacity="1" stroke="#000000" stroke-opacity="1" stroke-width="3.2"/>
<circle clip-path="url(#clip332)" cx="416.075" cy="260.554" r="14" fill="#009af9" fill-rule="evenodd" fill-opacity="1" stroke="#000000" stroke-opacity="1" stroke-width="3.2"/>
<circle clip-path="url(#clip332)" cx="451.661" cy="280.613" r="14" fill="#009af9" fill-rule="evenodd" fill-opacity="1" stroke="#000000" stroke-opacity="1" stroke-width="3.2"/>
<circle clip-path="url(#clip332)" cx="482.281" cy="300.673" r="14" fill="#009af9" fill-rule="evenodd" fill-opacity="1" stroke="#000000" stroke-opacity="1" stroke-width="3.2"/>
<circle clip-path="url(#clip332)" cx="517.039" cy="320.732" r="14" fill="#009af9" fill-rule="evenodd" fill-opacity="1" stroke="#000000" stroke-opacity="1" stroke-width="3.2"/>
<circle clip-path="url(#clip332)" cx="548.487" cy="340.792" r="14" fill="#009af9" fill-rule="evenodd" fill-opacity="1" stroke="#000000" stroke-opacity="1" stroke-width="3.2"/>
<circle clip-path="url(#clip332)" cx="581.591" cy="360.851" r="14" fill="#009af9" fill-rule="evenodd" fill-opacity="1" stroke="#000000" stroke-opacity="1" stroke-width="3.2"/>
<circle clip-path="url(#clip332)" cx="633.728" cy="380.91" r="14" fill="#009af9" fill-rule="evenodd" fill-opacity="1" stroke="#000000" stroke-opacity="1" stroke-width="3.2"/>
<circle clip-path="url(#clip332)" cx="670.141" cy="400.97" r="14" fill="#009af9" fill-rule="evenodd" fill-opacity="1" stroke="#000000" stroke-opacity="1" stroke-width="3.2"/>
<circle clip-path="url(#clip332)" cx="702.417" cy="421.029" r="14" fill="#009af9" fill-rule="evenodd" fill-opacity="1" stroke="#000000" stroke-opacity="1" stroke-width="3.2"/>
<circle clip-path="url(#clip332)" cx="733.865" cy="441.089" r="14" fill="#009af9" fill-rule="evenodd" fill-opacity="1" stroke="#000000" stroke-opacity="1" stroke-width="3.2"/>
<circle clip-path="url(#clip332)" cx="769.451" cy="461.148" r="14" fill="#009af9" fill-rule="evenodd" fill-opacity="1" stroke="#000000" stroke-opacity="1" stroke-width="3.2"/>
<circle clip-path="url(#clip332)" cx="799.243" cy="481.208" r="14" fill="#009af9" fill-rule="evenodd" fill-opacity="1" stroke="#000000" stroke-opacity="1" stroke-width="3.2"/>
<circle clip-path="url(#clip332)" cx="837.312" cy="501.267" r="14" fill="#009af9" fill-rule="evenodd" fill-opacity="1" stroke="#000000" stroke-opacity="1" stroke-width="3.2"/>
<circle clip-path="url(#clip332)" cx="871.243" cy="521.327" r="14" fill="#009af9" fill-rule="evenodd" fill-opacity="1" stroke="#000000" stroke-opacity="1" stroke-width="3.2"/>
<circle clip-path="url(#clip332)" cx="902.691" cy="541.386" r="14" fill="#009af9" fill-rule="evenodd" fill-opacity="1" stroke="#000000" stroke-opacity="1" stroke-width="3.2"/>
<circle clip-path="url(#clip332)" cx="949.863" cy="561.446" r="14" fill="#009af9" fill-rule="evenodd" fill-opacity="1" stroke="#000000" stroke-opacity="1" stroke-width="3.2"/>
<circle clip-path="url(#clip332)" cx="980.483" cy="581.505" r="14" fill="#009af9" fill-rule="evenodd" fill-opacity="1" stroke="#000000" stroke-opacity="1" stroke-width="3.2"/>
<circle clip-path="url(#clip332)" cx="1014.41" cy="601.565" r="14" fill="#009af9" fill-rule="evenodd" fill-opacity="1" stroke="#000000" stroke-opacity="1" stroke-width="3.2"/>
<circle clip-path="url(#clip332)" cx="1045.03" cy="621.624" r="14" fill="#009af9" fill-rule="evenodd" fill-opacity="1" stroke="#000000" stroke-opacity="1" stroke-width="3.2"/>
<circle clip-path="url(#clip332)" cx="1074" cy="641.684" r="14" fill="#009af9" fill-rule="evenodd" fill-opacity="1" stroke="#000000" stroke-opacity="1" stroke-width="3.2"/>
<circle clip-path="url(#clip332)" cx="1110.41" cy="661.743" r="14" fill="#009af9" fill-rule="evenodd" fill-opacity="1" stroke="#000000" stroke-opacity="1" stroke-width="3.2"/>
<circle clip-path="url(#clip332)" cx="1138.55" cy="681.802" r="14" fill="#009af9" fill-rule="evenodd" fill-opacity="1" stroke="#000000" stroke-opacity="1" stroke-width="3.2"/>
<circle clip-path="url(#clip332)" cx="1176.62" cy="701.862" r="14" fill="#009af9" fill-rule="evenodd" fill-opacity="1" stroke="#000000" stroke-opacity="1" stroke-width="3.2"/>
<circle clip-path="url(#clip332)" cx="1211.38" cy="721.921" r="14" fill="#009af9" fill-rule="evenodd" fill-opacity="1" stroke="#000000" stroke-opacity="1" stroke-width="3.2"/>
<circle clip-path="url(#clip332)" cx="1242.83" cy="741.981" r="14" fill="#009af9" fill-rule="evenodd" fill-opacity="1" stroke="#000000" stroke-opacity="1" stroke-width="3.2"/>
<circle clip-path="url(#clip332)" cx="1292.48" cy="762.04" r="14" fill="#009af9" fill-rule="evenodd" fill-opacity="1" stroke="#000000" stroke-opacity="1" stroke-width="3.2"/>
<circle clip-path="url(#clip332)" cx="1323.93" cy="782.1" r="14" fill="#009af9" fill-rule="evenodd" fill-opacity="1" stroke="#000000" stroke-opacity="1" stroke-width="3.2"/>
<circle clip-path="url(#clip332)" cx="1362" cy="802.159" r="14" fill="#009af9" fill-rule="evenodd" fill-opacity="1" stroke="#000000" stroke-opacity="1" stroke-width="3.2"/>
<circle clip-path="url(#clip332)" cx="1396.75" cy="822.219" r="14" fill="#009af9" fill-rule="evenodd" fill-opacity="1" stroke="#000000" stroke-opacity="1" stroke-width="3.2"/>
<circle clip-path="url(#clip332)" cx="1433.17" cy="842.278" r="14" fill="#009af9" fill-rule="evenodd" fill-opacity="1" stroke="#000000" stroke-opacity="1" stroke-width="3.2"/>
<circle clip-path="url(#clip332)" cx="1474.55" cy="862.338" r="14" fill="#009af9" fill-rule="evenodd" fill-opacity="1" stroke="#000000" stroke-opacity="1" stroke-width="3.2"/>
<circle clip-path="url(#clip332)" cx="1521.72" cy="882.397" r="14" fill="#009af9" fill-rule="evenodd" fill-opacity="1" stroke="#000000" stroke-opacity="1" stroke-width="3.2"/>
<circle clip-path="url(#clip332)" cx="1564.75" cy="902.457" r="14" fill="#009af9" fill-rule="evenodd" fill-opacity="1" stroke="#000000" stroke-opacity="1" stroke-width="3.2"/>
<circle clip-path="url(#clip332)" cx="1616.89" cy="922.516" r="14" fill="#009af9" fill-rule="evenodd" fill-opacity="1" stroke="#000000" stroke-opacity="1" stroke-width="3.2"/>
<circle clip-path="url(#clip332)" cx="1669.03" cy="942.576" r="14" fill="#009af9" fill-rule="evenodd" fill-opacity="1" stroke="#000000" stroke-opacity="1" stroke-width="3.2"/>
<circle clip-path="url(#clip332)" cx="1753.44" cy="962.635" r="14" fill="#009af9" fill-rule="evenodd" fill-opacity="1" stroke="#000000" stroke-opacity="1" stroke-width="3.2"/>
<circle clip-path="url(#clip332)" cx="1793.99" cy="982.694" r="14" fill="#009af9" fill-rule="evenodd" fill-opacity="1" stroke="#000000" stroke-opacity="1" stroke-width="3.2"/>
<circle clip-path="url(#clip332)" cx="1835.37" cy="1002.75" r="14" fill="#009af9" fill-rule="evenodd" fill-opacity="1" stroke="#000000" stroke-opacity="1" stroke-width="3.2"/>
<circle clip-path="url(#clip332)" cx="1863.51" cy="1022.81" r="14" fill="#009af9" fill-rule="evenodd" fill-opacity="1" stroke="#000000" stroke-opacity="1" stroke-width="3.2"/>
<circle clip-path="url(#clip332)" cx="1887.51" cy="1042.87" r="14" fill="#009af9" fill-rule="evenodd" fill-opacity="1" stroke="#000000" stroke-opacity="1" stroke-width="3.2"/>
<circle clip-path="url(#clip332)" cx="1920.61" cy="1062.93" r="14" fill="#009af9" fill-rule="evenodd" fill-opacity="1" stroke="#000000" stroke-opacity="1" stroke-width="3.2"/>
<circle clip-path="url(#clip332)" cx="1942.96" cy="1082.99" r="14" fill="#009af9" fill-rule="evenodd" fill-opacity="1" stroke="#000000" stroke-opacity="1" stroke-width="3.2"/>
<circle clip-path="url(#clip332)" cx="1978.54" cy="1103.05" r="14" fill="#009af9" fill-rule="evenodd" fill-opacity="1" stroke="#000000" stroke-opacity="1" stroke-width="3.2"/>
<circle clip-path="url(#clip332)" cx="1994.27" cy="1123.11" r="14" fill="#009af9" fill-rule="evenodd" fill-opacity="1" stroke="#000000" stroke-opacity="1" stroke-width="3.2"/>
<circle clip-path="url(#clip332)" cx="2022.4" cy="1143.17" r="14" fill="#009af9" fill-rule="evenodd" fill-opacity="1" stroke="#000000" stroke-opacity="1" stroke-width="3.2"/>
<circle clip-path="url(#clip332)" cx="2046.4" cy="1163.23" r="14" fill="#009af9" fill-rule="evenodd" fill-opacity="1" stroke="#000000" stroke-opacity="1" stroke-width="3.2"/>
<circle clip-path="url(#clip332)" cx="2072.89" cy="1183.29" r="14" fill="#009af9" fill-rule="evenodd" fill-opacity="1" stroke="#000000" stroke-opacity="1" stroke-width="3.2"/>
<circle clip-path="url(#clip332)" cx="2097.71" cy="1203.35" r="14" fill="#009af9" fill-rule="evenodd" fill-opacity="1" stroke="#000000" stroke-opacity="1" stroke-width="3.2"/>
<circle clip-path="url(#clip332)" cx="2115.92" cy="1223.41" r="14" fill="#009af9" fill-rule="evenodd" fill-opacity="1" stroke="#000000" stroke-opacity="1" stroke-width="3.2"/>
<circle clip-path="url(#clip332)" cx="2134.13" cy="1243.47" r="14" fill="#009af9" fill-rule="evenodd" fill-opacity="1" stroke="#000000" stroke-opacity="1" stroke-width="3.2"/>
<circle clip-path="url(#clip332)" cx="2162.26" cy="1263.53" r="14" fill="#009af9" fill-rule="evenodd" fill-opacity="1" stroke="#000000" stroke-opacity="1" stroke-width="3.2"/>
<circle clip-path="url(#clip332)" cx="2181.3" cy="1283.59" r="14" fill="#009af9" fill-rule="evenodd" fill-opacity="1" stroke="#000000" stroke-opacity="1" stroke-width="3.2"/>
<circle clip-path="url(#clip332)" cx="2207.78" cy="1303.65" r="14" fill="#009af9" fill-rule="evenodd" fill-opacity="1" stroke="#000000" stroke-opacity="1" stroke-width="3.2"/>
<circle clip-path="url(#clip332)" cx="2232.61" cy="1323.71" r="14" fill="#009af9" fill-rule="evenodd" fill-opacity="1" stroke="#000000" stroke-opacity="1" stroke-width="3.2"/>
<circle clip-path="url(#clip332)" cx="2258.26" cy="1343.76" r="14" fill="#009af9" fill-rule="evenodd" fill-opacity="1" stroke="#000000" stroke-opacity="1" stroke-width="3.2"/>
<circle clip-path="url(#clip332)" cx="2293.02" cy="1363.82" r="14" fill="#009af9" fill-rule="evenodd" fill-opacity="1" stroke="#000000" stroke-opacity="1" stroke-width="3.2"/>
<polyline clip-path="url(#clip332)" style="stroke:#e26f46; stroke-linecap:butt; stroke-linejoin:round; stroke-width:4; stroke-opacity:1; fill:none" points="
  301.869,186.314 303.862,187.328 305.856,188.345 307.849,189.365 309.842,190.388 311.835,191.414 313.828,192.442 315.821,193.473 317.814,194.507 319.808,195.544 
  321.801,196.583 323.794,197.626 325.787,198.67 327.78,199.718 329.773,200.768 331.766,201.82 333.76,202.876 335.753,203.934 337.746,204.994 339.739,206.057 
  341.732,207.122 343.725,208.19 345.718,209.261 347.712,210.333 349.705,211.409 351.698,212.486 353.691,213.566 355.684,214.649 357.677,215.734 359.67,216.821 
  361.664,217.91 363.657,219.002 365.65,220.096 367.643,221.193 369.636,222.291 371.629,223.392 373.622,224.495 375.616,225.6 377.609,226.708 379.602,227.817 
  381.595,228.929 383.588,230.043 385.581,231.159 387.574,232.277 389.568,233.397 391.561,234.519 393.554,235.643 395.547,236.769 397.54,237.897 399.533,239.027 
  401.526,240.159 403.52,241.293 405.513,242.429 407.506,243.567 409.499,244.707 411.492,245.848 413.485,246.992 415.479,248.137 417.472,249.284 419.465,250.433 
  421.458,251.583 423.451,252.736 425.444,253.89 427.437,255.045 429.431,256.203 431.424,257.362 433.417,258.523 435.41,259.686 437.403,260.85 439.396,262.016 
  441.389,263.183 443.383,264.352 445.376,265.523 447.369,266.695 449.362,267.869 451.355,269.044 453.348,270.22 455.341,271.399 457.335,272.578 459.328,273.76 
  461.321,274.942 463.314,276.126 465.307,277.311 467.3,278.498 469.293,279.686 471.287,280.876 473.28,282.067 475.273,283.259 477.266,284.453 479.259,285.647 
  481.252,286.843 483.245,288.041 485.239,289.239 487.232,290.439 489.225,291.64 491.218,292.842 493.211,294.046 495.204,295.25 497.197,296.456 499.191,297.663 
  501.184,298.871 503.177,300.08 505.17,301.29 507.163,302.502 509.156,303.714 511.149,304.928 513.143,306.142 515.136,307.357 517.129,308.574 519.122,309.791 
  521.115,311.01 523.108,312.229 525.101,313.449 527.095,314.671 529.088,315.893 531.081,317.116 533.074,318.34 535.067,319.565 537.06,320.79 539.054,322.017 
  541.047,323.244 543.04,324.472 545.033,325.701 547.026,326.931 549.019,328.162 551.012,329.393 553.006,330.625 554.999,331.858 556.992,333.091 558.985,334.325 
  560.978,335.56 562.971,336.796 564.964,338.032 566.958,339.269 568.951,340.506 570.944,341.744 572.937,342.983 574.93,344.222 576.923,345.462 578.916,346.702 
  580.91,347.943 582.903,349.185 584.896,350.427 586.889,351.669 588.882,352.912 590.875,354.156 592.868,355.4 594.862,356.644 596.855,357.889 598.848,359.135 
  600.841,360.38 602.834,361.627 604.827,362.873 606.82,364.12 608.814,365.367 610.807,366.615 612.8,367.863 614.793,369.112 616.786,370.36 618.779,371.609 
  620.772,372.859 622.766,374.108 624.759,375.358 626.752,376.608 628.745,377.858 630.738,379.109 632.731,380.36 634.724,381.611 636.718,382.862 638.711,384.114 
  640.704,385.365 642.697,386.617 644.69,387.869 646.683,389.121 648.677,390.373 650.67,391.625 652.663,392.878 654.656,394.13 656.649,395.383 658.642,396.636 
  660.635,397.888 662.629,399.141 664.622,400.394 666.615,401.647 668.608,402.9 670.601,404.153 672.594,405.406 674.587,406.659 676.581,407.911 678.574,409.164 
  680.567,410.417 682.56,411.67 684.553,412.922 686.546,414.175 688.539,415.427 690.533,416.68 692.526,417.932 694.519,419.184 696.512,420.436 698.505,421.688 
  700.498,422.94 702.491,424.191 704.485,425.443 706.478,426.694 708.471,427.945 710.464,429.196 712.457,430.447 714.45,431.697 716.443,432.947 718.437,434.197 
  720.43,435.447 722.423,436.696 724.416,437.945 726.409,439.194 728.402,440.443 730.395,441.691 732.389,442.939 734.382,444.187 736.375,445.434 738.368,446.681 
  740.361,447.928 742.354,449.174 744.347,450.42 746.341,451.666 748.334,452.911 750.327,454.156 752.32,455.4 754.313,456.644 756.306,457.888 758.299,459.131 
  760.293,460.373 762.286,461.616 764.279,462.858 766.272,464.099 768.265,465.34 770.258,466.58 772.252,467.82 774.245,469.06 776.238,470.299 778.231,471.537 
  780.224,472.775 782.217,474.013 784.21,475.249 786.204,476.486 788.197,477.722 790.19,478.957 792.183,480.192 794.176,481.426 796.169,482.659 798.162,483.892 
  800.156,485.124 802.149,486.356 804.142,487.587 806.135,488.818 808.128,490.048 810.121,491.277 812.114,492.506 814.108,493.734 816.101,494.961 818.094,496.188 
  820.087,497.414 822.08,498.639 824.073,499.864 826.066,501.088 828.06,502.311 830.053,503.533 832.046,504.755 834.039,505.976 836.032,507.197 838.025,508.416 
  840.018,509.635 842.012,510.854 844.005,512.071 845.998,513.288 847.991,514.504 849.984,515.719 851.977,516.933 853.97,518.147 855.964,519.36 857.957,520.572 
  859.95,521.783 861.943,522.993 863.936,524.203 865.929,525.412 867.922,526.62 869.916,527.827 871.909,529.033 873.902,530.239 875.895,531.443 877.888,532.647 
  879.881,533.85 881.874,535.052 883.868,536.253 885.861,537.453 887.854,538.653 889.847,539.851 891.84,541.049 893.833,542.246 895.827,543.442 897.82,544.637 
  899.813,545.831 901.806,547.024 903.799,548.216 905.792,549.407 907.785,550.598 909.779,551.787 911.772,552.976 913.765,554.163 915.758,555.35 917.751,556.535 
  919.744,557.72 921.737,558.904 923.731,560.087 925.724,561.268 927.717,562.449 929.71,563.629 931.703,564.808 933.696,565.986 935.689,567.163 937.683,568.339 
  939.676,569.513 941.669,570.687 943.662,571.86 945.655,573.032 947.648,574.203 949.641,575.373 951.635,576.541 953.628,577.709 955.621,578.876 957.614,580.042 
  959.607,581.206 961.6,582.37 963.593,583.533 965.587,584.694 967.58,585.855 969.573,587.014 971.566,588.172 973.559,589.33 975.552,590.486 977.545,591.641 
  979.539,592.795 981.532,593.948 983.525,595.1 985.518,596.251 987.511,597.401 989.504,598.55 991.497,599.697 993.491,600.844 995.484,601.99 997.477,603.134 
  999.47,604.277 1001.46,605.419 1003.46,606.56 1005.45,607.7 1007.44,608.839 1009.44,609.977 1011.43,611.114 1013.42,612.249 1015.42,613.384 1017.41,614.517 
  1019.4,615.649 1021.39,616.78 1023.39,617.91 1025.38,619.039 1027.37,620.167 1029.37,621.293 1031.36,622.419 1033.35,623.543 1035.35,624.666 1037.34,625.788 
  1039.33,626.909 1041.33,628.029 1043.32,629.148 1045.31,630.265 1047.31,631.382 1049.3,632.497 1051.29,633.611 1053.28,634.724 1055.28,635.836 1057.27,636.946 
  1059.26,638.056 1061.26,639.164 1063.25,640.271 1065.24,641.377 1067.24,642.482 1069.23,643.586 1071.22,644.689 1073.22,645.79 1075.21,646.89 1077.2,647.99 
  1079.2,649.088 1081.19,650.184 1083.18,651.28 1085.18,652.375 1087.17,653.468 1089.16,654.56 1091.15,655.651 1093.15,656.741 1095.14,657.83 1097.13,658.918 
  1099.13,660.004 1101.12,661.09 1103.11,662.174 1105.11,663.257 1107.1,664.339 1109.09,665.419 1111.09,666.499 1113.08,667.577 1115.07,668.655 1117.07,669.731 
  1119.06,670.806 1121.05,671.879 1123.05,672.952 1125.04,674.024 1127.03,675.094 1129.02,676.163 1131.02,677.231 1133.01,678.298 1135,679.364 1137,680.428 
  1138.99,681.492 1140.98,682.554 1142.98,683.616 1144.97,684.676 1146.96,685.735 1148.96,686.792 1150.95,687.849 1152.94,688.905 1154.94,689.959 1156.93,691.012 
  1158.92,692.064 1160.91,693.116 1162.91,694.165 1164.9,695.214 1166.89,696.262 1168.89,697.308 1170.88,698.354 1172.87,699.398 1174.87,700.441 1176.86,701.484 
  1178.85,702.525 1180.85,703.564 1182.84,704.603 1184.83,705.641 1186.83,706.678 1188.82,707.713 1190.81,708.747 1192.81,709.781 1194.8,710.813 1196.79,711.844 
  1198.78,712.874 1200.78,713.903 1202.77,714.931 1204.76,715.958 1206.76,716.984 1208.75,718.008 1210.74,719.032 1212.74,720.055 1214.73,721.076 1216.72,722.096 
  1218.72,723.116 1220.71,724.134 1222.7,725.151 1224.7,726.168 1226.69,727.183 1228.68,728.197 1230.67,729.21 1232.67,730.222 1234.66,731.233 1236.65,732.244 
  1238.65,733.253 1240.64,734.261 1242.63,735.268 1244.63,736.274 1246.62,737.279 1248.61,738.283 1250.61,739.286 1252.6,740.288 1254.59,741.289 1256.59,742.289 
  1258.58,743.288 1260.57,744.286 1262.57,745.283 1264.56,746.279 1266.55,747.275 1268.54,748.269 1270.54,749.262 1272.53,750.254 1274.52,751.246 1276.52,752.236 
  1278.51,753.226 1280.5,754.215 1282.5,755.202 1284.49,756.189 1286.48,757.175 1288.48,758.16 1290.47,759.144 1292.46,760.127 1294.46,761.109 1296.45,762.091 
  1298.44,763.071 1300.44,764.051 1302.43,765.029 1304.42,766.007 1306.41,766.984 1308.41,767.96 1310.4,768.936 1312.39,769.91 1314.39,770.884 1316.38,771.857 
  1318.37,772.829 1320.37,773.8 1322.36,774.77 1324.35,775.74 1326.35,776.708 1328.34,777.676 1330.33,778.643 1332.33,779.61 1334.32,780.575 1336.31,781.54 
  1338.3,782.504 1340.3,783.467 1342.29,784.43 1344.28,785.391 1346.28,786.352 1348.27,787.313 1350.26,788.272 1352.26,789.231 1354.25,790.189 1356.24,791.147 
  1358.24,792.103 1360.23,793.059 1362.22,794.015 1364.22,794.969 1366.21,795.923 1368.2,796.877 1370.2,797.829 1372.19,798.781 1374.18,799.733 1376.17,800.683 
  1378.17,801.633 1380.16,802.583 1382.15,803.532 1384.15,804.48 1386.14,805.427 1388.13,806.374 1390.13,807.321 1392.12,808.267 1394.11,809.212 1396.11,810.157 
  1398.1,811.101 1400.09,812.045 1402.09,812.988 1404.08,813.93 1406.07,814.872 1408.06,815.814 1410.06,816.755 1412.05,817.695 1414.04,818.636 1416.04,819.575 
  1418.03,820.514 1420.02,821.453 1422.02,822.391 1424.01,823.329 1426,824.266 1428,825.203 1429.99,826.139 1431.98,827.075 1433.98,828.011 1435.97,828.946 
  1437.96,829.881 1439.96,830.815 1441.95,831.749 1443.94,832.683 1445.93,833.616 1447.93,834.55 1449.92,835.482 1451.91,836.415 1453.91,837.347 1455.9,838.278 
  1457.89,839.21 1459.89,840.141 1461.88,841.072 1463.87,842.003 1465.87,842.933 1467.86,843.863 1469.85,844.793 1471.85,845.723 1473.84,846.652 1475.83,847.581 
  1477.82,848.51 1479.82,849.439 1481.81,850.368 1483.8,851.296 1485.8,852.225 1487.79,853.153 1489.78,854.081 1491.78,855.009 1493.77,855.937 1495.76,856.864 
  1497.76,857.792 1499.75,858.719 1501.74,859.647 1503.74,860.574 1505.73,861.501 1507.72,862.429 1509.72,863.356 1511.71,864.283 1513.7,865.21 1515.69,866.138 
  1517.69,867.065 1519.68,867.992 1521.67,868.919 1523.67,869.847 1525.66,870.774 1527.65,871.701 1529.65,872.629 1531.64,873.557 1533.63,874.484 1535.63,875.412 
  1537.62,876.34 1539.61,877.268 1541.61,878.196 1543.6,879.125 1545.59,880.053 1547.59,880.982 1549.58,881.911 1551.57,882.84 1553.56,883.769 1555.56,884.699 
  1557.55,885.628 1559.54,886.558 1561.54,887.489 1563.53,888.419 1565.52,889.35 1567.52,890.281 1569.51,891.213 1571.5,892.145 1573.5,893.077 1575.49,894.009 
  1577.48,894.942 1579.48,895.875 1581.47,896.809 1583.46,897.743 1585.45,898.677 1587.45,899.612 1589.44,900.547 1591.43,901.483 1593.43,902.419 1595.42,903.356 
  1597.41,904.293 1599.41,905.231 1601.4,906.169 1603.39,907.108 1605.39,908.047 1607.38,908.987 1609.37,909.927 1611.37,910.868 1613.36,911.81 1615.35,912.752 
  1617.35,913.695 1619.34,914.638 1621.33,915.582 1623.32,916.527 1625.32,917.472 1627.31,918.418 1629.3,919.365 1631.3,920.313 1633.29,921.261 1635.28,922.21 
  1637.28,923.16 1639.27,924.11 1641.26,925.061 1643.26,926.014 1645.25,926.967 1647.24,927.92 1649.24,928.875 1651.23,929.83 1653.22,930.787 1655.21,931.744 
  1657.21,932.702 1659.2,933.661 1661.19,934.621 1663.19,935.582 1665.18,936.544 1667.17,937.507 1669.17,938.471 1671.16,939.435 1673.15,940.401 1675.15,941.368 
  1677.14,942.336 1679.13,943.305 1681.13,944.275 1683.12,945.247 1685.11,946.219 1687.11,947.192 1689.1,948.167 1691.09,949.143 1693.08,950.12 1695.08,951.098 
  1697.07,952.077 1699.06,953.057 1701.06,954.039 1703.05,955.022 1705.04,956.007 1707.04,956.992 1709.03,957.979 1711.02,958.967 1713.02,959.957 1715.01,960.947 
  1717,961.94 1719,962.933 1720.99,963.928 1722.98,964.925 1724.97,965.922 1726.97,966.922 1728.96,967.922 1730.95,968.925 1732.95,969.928 1734.94,970.934 
  1736.93,971.94 1738.93,972.949 1740.92,973.958 1742.91,974.97 1744.91,975.983 1746.9,976.997 1748.89,978.014 1750.89,979.032 1752.88,980.051 1754.87,981.072 
  1756.87,982.095 1758.86,983.12 1760.85,984.146 1762.84,985.174 1764.84,986.204 1766.83,987.236 1768.82,988.269 1770.82,989.305 1772.81,990.342 1774.8,991.381 
  1776.8,992.421 1778.79,993.464 1780.78,994.509 1782.78,995.555 1784.77,996.604 1786.76,997.654 1788.76,998.707 1790.75,999.761 1792.74,1000.82 1794.74,1001.88 
  1796.73,1002.94 1798.72,1004 1800.71,1005.06 1802.71,1006.13 1804.7,1007.2 1806.69,1008.27 1808.69,1009.34 1810.68,1010.42 1812.67,1011.5 1814.67,1012.58 
  1816.66,1013.66 1818.65,1014.74 1820.65,1015.83 1822.64,1016.92 1824.63,1018.01 1826.63,1019.1 1828.62,1020.2 1830.61,1021.3 1832.6,1022.4 1834.6,1023.5 
  1836.59,1024.6 1838.58,1025.71 1840.58,1026.82 1842.57,1027.93 1844.56,1029.05 1846.56,1030.17 1848.55,1031.29 1850.54,1032.41 1852.54,1033.54 1854.53,1034.66 
  1856.52,1035.79 1858.52,1036.93 1860.51,1038.06 1862.5,1039.2 1864.5,1040.34 1866.49,1041.49 1868.48,1042.63 1870.47,1043.78 1872.47,1044.94 1874.46,1046.09 
  1876.45,1047.25 1878.45,1048.41 1880.44,1049.57 1882.43,1050.74 1884.43,1051.91 1886.42,1053.08 1888.41,1054.26 1890.41,1055.43 1892.4,1056.62 1894.39,1057.8 
  1896.39,1058.99 1898.38,1060.18 1900.37,1061.37 1902.36,1062.57 1904.36,1063.77 1906.35,1064.97 1908.34,1066.17 1910.34,1067.38 1912.33,1068.59 1914.32,1069.81 
  1916.32,1071.03 1918.31,1072.25 1920.3,1073.48 1922.3,1074.7 1924.29,1075.94 1926.28,1077.17 1928.28,1078.41 1930.27,1079.65 1932.26,1080.9 1934.26,1082.14 
  1936.25,1083.4 1938.24,1084.65 1940.23,1085.91 1942.23,1087.17 1944.22,1088.44 1946.21,1089.71 1948.21,1090.98 1950.2,1092.26 1952.19,1093.54 1954.19,1094.82 
  1956.18,1096.11 1958.17,1097.4 1960.17,1098.7 1962.16,1099.99 1964.15,1101.3 1966.15,1102.6 1968.14,1103.91 1970.13,1105.23 1972.12,1106.54 1974.12,1107.87 
  1976.11,1109.19 1978.1,1110.52 1980.1,1111.85 1982.09,1113.19 1984.08,1114.53 1986.08,1115.88 1988.07,1117.23 1990.06,1118.58 1992.06,1119.94 1994.05,1121.3 
  1996.04,1122.67 1998.04,1124.04 2000.03,1125.41 2002.02,1126.79 2004.02,1128.17 2006.01,1129.56 2008,1130.95 2009.99,1132.34 2011.99,1133.74 2013.98,1135.15 
  2015.97,1136.55 2017.97,1137.97 2019.96,1139.38 2021.95,1140.8 2023.95,1142.23 2025.94,1143.66 2027.93,1145.1 2029.93,1146.54 2031.92,1147.98 2033.91,1149.43 
  2035.91,1150.88 2037.9,1152.34 2039.89,1153.8 2041.89,1155.27 2043.88,1156.74 2045.87,1158.22 2047.86,1159.7 2049.86,1161.18 2051.85,1162.67 2053.84,1164.17 
  2055.84,1165.67 2057.83,1167.17 2059.82,1168.68 2061.82,1170.2 2063.81,1171.72 2065.8,1173.24 2067.8,1174.77 2069.79,1176.31 2071.78,1177.85 2073.78,1179.39 
  2075.77,1180.94 2077.76,1182.5 2079.75,1184.06 2081.75,1185.63 2083.74,1187.2 2085.73,1188.77 2087.73,1190.35 2089.72,1191.94 2091.71,1193.53 2093.71,1195.13 
  2095.7,1196.73 2097.69,1198.34 2099.69,1199.95 2101.68,1201.57 2103.67,1203.2 2105.67,1204.83 2107.66,1206.46 2109.65,1208.1 2111.65,1209.75 2113.64,1211.4 
  2115.63,1213.06 2117.62,1214.72 2119.62,1216.39 2121.61,1218.06 2123.6,1219.74 2125.6,1221.43 2127.59,1223.12 2129.58,1224.82 2131.58,1226.52 2133.57,1228.23 
  2135.56,1229.95 2137.56,1231.67 2139.55,1233.39 2141.54,1235.13 2143.54,1236.87 2145.53,1238.61 2147.52,1240.36 2149.51,1242.12 2151.51,1243.88 2153.5,1245.65 
  2155.49,1247.43 2157.49,1249.21 2159.48,1251 2161.47,1252.79 2163.47,1254.59 2165.46,1256.4 2167.45,1258.21 2169.45,1260.03 2171.44,1261.85 2173.43,1263.69 
  2175.43,1265.52 2177.42,1267.37 2179.41,1269.22 2181.41,1271.08 2183.4,1272.94 2185.39,1274.81 2187.38,1276.69 2189.38,1278.57 2191.37,1280.47 2193.36,1282.36 
  2195.36,1284.27 2197.35,1286.18 2199.34,1288.1 2201.34,1290.02 2203.33,1291.95 2205.32,1293.89 2207.32,1295.83 2209.31,1297.79 2211.3,1299.74 2213.3,1301.71 
  2215.29,1303.68 2217.28,1305.66 2219.27,1307.65 2221.27,1309.64 2223.26,1311.65 2225.25,1313.65 2227.25,1315.67 2229.24,1317.69 2231.23,1319.72 2233.23,1321.76 
  2235.22,1323.8 2237.21,1325.85 2239.21,1327.91 2241.2,1329.98 2243.19,1332.05 2245.19,1334.14 2247.18,1336.22 2249.17,1338.32 2251.17,1340.42 2253.16,1342.54 
  2255.15,1344.65 2257.14,1346.78 2259.14,1348.92 2261.13,1351.06 2263.12,1353.21 2265.12,1355.36 2267.11,1357.53 2269.1,1359.7 2271.1,1361.88 2273.09,1364.07 
  2275.08,1366.27 2277.08,1368.47 2279.07,1370.68 2281.06,1372.9 2283.06,1375.13 2285.05,1377.37 2287.04,1379.61 2289.04,1381.87 2291.03,1384.13 2293.02,1386.4 
  
  "/>
<path clip-path="url(#clip330)" d="
M1415.53 322.316 L2282.4 322.316 L2282.4 166.796 L1415.53 166.796  Z
  " fill="#ffffff" fill-rule="evenodd" fill-opacity="1"/>
<polyline clip-path="url(#clip330)" style="stroke:#000000; stroke-linecap:butt; stroke-linejoin:round; stroke-width:4; stroke-opacity:1; fill:none" points="
  1415.53,322.316 2282.4,322.316 2282.4,166.796 1415.53,166.796 1415.53,322.316 
  "/>
<circle clip-path="url(#clip330)" cx="1509.34" cy="218.636" r="23" fill="#009af9" fill-rule="evenodd" fill-opacity="1" stroke="#000000" stroke-opacity="1" stroke-width="5.12"/>
<path clip-path="url(#clip330)" d="M1622.05 213.925 L1622.05 199.897 L1626.31 199.897 L1626.31 235.916 L1622.05 235.916 L1622.05 232.027 Q1620.71 234.342 1618.65 235.476 Q1616.61 236.587 1613.74 236.587 Q1609.04 236.587 1606.08 232.837 Q1603.14 229.087 1603.14 222.976 Q1603.14 216.865 1606.08 213.115 Q1609.04 209.365 1613.74 209.365 Q1616.61 209.365 1618.65 210.499 Q1620.71 211.61 1622.05 213.925 M1607.54 222.976 Q1607.54 227.675 1609.46 230.36 Q1611.41 233.022 1614.78 233.022 Q1618.16 233.022 1620.11 230.36 Q1622.05 227.675 1622.05 222.976 Q1622.05 218.277 1620.11 215.615 Q1618.16 212.93 1614.78 212.93 Q1611.41 212.93 1609.46 215.615 Q1607.54 218.277 1607.54 222.976 Z" fill="#000000" fill-rule="evenodd" fill-opacity="1" /><path clip-path="url(#clip330)" d="M1653.7 222.976 Q1653.7 218.277 1651.75 215.615 Q1649.83 212.93 1646.45 212.93 Q1643.07 212.93 1641.13 215.615 Q1639.21 218.277 1639.21 222.976 Q1639.21 227.675 1641.13 230.36 Q1643.07 233.022 1646.45 233.022 Q1649.83 233.022 1651.75 230.36 Q1653.7 227.675 1653.7 222.976 M1639.21 213.925 Q1640.55 211.61 1642.59 210.499 Q1644.65 209.365 1647.49 209.365 Q1652.22 209.365 1655.16 213.115 Q1658.12 216.865 1658.12 222.976 Q1658.12 229.087 1655.16 232.837 Q1652.22 236.587 1647.49 236.587 Q1644.65 236.587 1642.59 235.476 Q1640.55 234.342 1639.21 232.027 L1639.21 235.916 L1634.92 235.916 L1634.92 199.897 L1639.21 199.897 L1639.21 213.925 Z" fill="#000000" fill-rule="evenodd" fill-opacity="1" /><path clip-path="url(#clip330)" d="M1685.36 214.967 Q1686.96 212.096 1689.18 210.731 Q1691.4 209.365 1694.41 209.365 Q1698.47 209.365 1700.66 212.212 Q1702.86 215.036 1702.86 220.268 L1702.86 235.916 L1698.58 235.916 L1698.58 220.407 Q1698.58 216.68 1697.26 214.874 Q1695.94 213.069 1693.23 213.069 Q1689.92 213.069 1688 215.268 Q1686.08 217.467 1686.08 221.263 L1686.08 235.916 L1681.8 235.916 L1681.8 220.407 Q1681.8 216.657 1680.48 214.874 Q1679.16 213.069 1676.4 213.069 Q1673.14 213.069 1671.22 215.291 Q1669.3 217.49 1669.3 221.263 L1669.3 235.916 L1665.02 235.916 L1665.02 209.99 L1669.3 209.99 L1669.3 214.018 Q1670.76 211.633 1672.79 210.499 Q1674.83 209.365 1677.63 209.365 Q1680.46 209.365 1682.42 210.8 Q1684.41 212.235 1685.36 214.967 Z" fill="#000000" fill-rule="evenodd" fill-opacity="1" /><path clip-path="url(#clip330)" d="M1712.45 230.036 L1717.33 230.036 L1717.33 234.018 L1713.53 241.425 L1710.55 241.425 L1712.45 234.018 L1712.45 230.036 Z" fill="#000000" fill-rule="evenodd" fill-opacity="1" /><path clip-path="url(#clip330)" d="M1753.23 205.962 L1746.89 223.161 L1759.6 223.161 L1753.23 205.962 M1750.59 201.356 L1755.9 201.356 L1769.07 235.916 L1764.21 235.916 L1761.06 227.05 L1745.48 227.05 L1742.33 235.916 L1737.4 235.916 L1750.59 201.356 Z" fill="#000000" fill-rule="evenodd" fill-opacity="1" /><path clip-path="url(#clip330)" d="M1778.79 205.198 L1778.79 232.073 L1784.44 232.073 Q1791.59 232.073 1794.9 228.832 Q1798.23 225.592 1798.23 218.601 Q1798.23 211.657 1794.9 208.439 Q1791.59 205.198 1784.44 205.198 L1778.79 205.198 M1774.11 201.356 L1783.72 201.356 Q1793.77 201.356 1798.46 205.546 Q1803.16 209.712 1803.16 218.601 Q1803.16 227.536 1798.44 231.726 Q1793.72 235.916 1783.72 235.916 L1774.11 235.916 L1774.11 201.356 Z" fill="#000000" fill-rule="evenodd" fill-opacity="1" /><path clip-path="url(#clip330)" d="M1836.5 204.018 L1836.5 208.948 Q1834.14 206.749 1831.45 205.661 Q1828.79 204.573 1825.78 204.573 Q1819.85 204.573 1816.71 208.208 Q1813.56 211.819 1813.56 218.67 Q1813.56 225.499 1816.71 229.133 Q1819.85 232.744 1825.78 232.744 Q1828.79 232.744 1831.45 231.656 Q1834.14 230.569 1836.5 228.369 L1836.5 233.254 Q1834.04 234.92 1831.29 235.754 Q1828.56 236.587 1825.5 236.587 Q1817.65 236.587 1813.14 231.795 Q1808.63 226.981 1808.63 218.67 Q1808.63 210.337 1813.14 205.546 Q1817.65 200.731 1825.5 200.731 Q1828.6 200.731 1831.33 201.564 Q1834.09 202.374 1836.5 204.018 Z" fill="#000000" fill-rule="evenodd" fill-opacity="1" /><path clip-path="url(#clip330)" d="M1862.72 232.027 L1862.72 245.777 L1858.44 245.777 L1858.44 209.99 L1862.72 209.99 L1862.72 213.925 Q1864.07 211.61 1866.1 210.499 Q1868.16 209.365 1871.01 209.365 Q1875.73 209.365 1878.67 213.115 Q1881.64 216.865 1881.64 222.976 Q1881.64 229.087 1878.67 232.837 Q1875.73 236.587 1871.01 236.587 Q1868.16 236.587 1866.1 235.476 Q1864.07 234.342 1862.72 232.027 M1877.21 222.976 Q1877.21 218.277 1875.27 215.615 Q1873.35 212.93 1869.97 212.93 Q1866.59 212.93 1864.64 215.615 Q1862.72 218.277 1862.72 222.976 Q1862.72 227.675 1864.64 230.36 Q1866.59 233.022 1869.97 233.022 Q1873.35 233.022 1875.27 230.36 Q1877.21 227.675 1877.21 222.976 Z" fill="#000000" fill-rule="evenodd" fill-opacity="1" /><path clip-path="url(#clip330)" d="M1900.48 222.883 Q1895.32 222.883 1893.33 224.064 Q1891.33 225.244 1891.33 228.092 Q1891.33 230.36 1892.82 231.703 Q1894.32 233.022 1896.89 233.022 Q1900.43 233.022 1902.56 230.522 Q1904.71 227.999 1904.71 223.832 L1904.71 222.883 L1900.48 222.883 M1908.97 221.124 L1908.97 235.916 L1904.71 235.916 L1904.71 231.981 Q1903.26 234.342 1901.08 235.476 Q1898.9 236.587 1895.76 236.587 Q1891.77 236.587 1889.41 234.365 Q1887.08 232.119 1887.08 228.369 Q1887.08 223.994 1889.99 221.772 Q1892.93 219.55 1898.74 219.55 L1904.71 219.55 L1904.71 219.133 Q1904.71 216.194 1902.77 214.596 Q1900.85 212.976 1897.35 212.976 Q1895.13 212.976 1893.02 213.508 Q1890.92 214.041 1888.97 215.106 L1888.97 211.17 Q1891.31 210.268 1893.51 209.828 Q1895.71 209.365 1897.79 209.365 Q1903.42 209.365 1906.2 212.282 Q1908.97 215.198 1908.97 221.124 Z" fill="#000000" fill-rule="evenodd" fill-opacity="1" /><path clip-path="url(#clip330)" d="M1917.75 209.99 L1922.01 209.99 L1922.01 235.916 L1917.75 235.916 L1917.75 209.99 M1917.75 199.897 L1922.01 199.897 L1922.01 205.291 L1917.75 205.291 L1917.75 199.897 Z" fill="#000000" fill-rule="evenodd" fill-opacity="1" /><path clip-path="url(#clip330)" d="M1945.94 213.971 Q1945.22 213.555 1944.37 213.37 Q1943.53 213.161 1942.51 213.161 Q1938.9 213.161 1936.96 215.522 Q1935.04 217.86 1935.04 222.258 L1935.04 235.916 L1930.76 235.916 L1930.76 209.99 L1935.04 209.99 L1935.04 214.018 Q1936.38 211.657 1938.53 210.522 Q1940.69 209.365 1943.76 209.365 Q1944.2 209.365 1944.74 209.434 Q1945.27 209.481 1945.92 209.596 L1945.94 213.971 Z" fill="#000000" fill-rule="evenodd" fill-opacity="1" /><path clip-path="url(#clip330)" d="M1966.94 210.754 L1966.94 214.782 Q1965.13 213.856 1963.19 213.393 Q1961.24 212.93 1959.16 212.93 Q1955.99 212.93 1954.39 213.902 Q1952.82 214.874 1952.82 216.819 Q1952.82 218.3 1953.95 219.157 Q1955.08 219.99 1958.51 220.754 L1959.97 221.078 Q1964.51 222.05 1966.4 223.832 Q1968.32 225.592 1968.32 228.763 Q1968.32 232.374 1965.45 234.481 Q1962.61 236.587 1957.61 236.587 Q1955.52 236.587 1953.26 236.17 Q1951.01 235.777 1948.51 234.967 L1948.51 230.569 Q1950.87 231.795 1953.16 232.42 Q1955.45 233.022 1957.7 233.022 Q1960.71 233.022 1962.33 232.004 Q1963.95 230.962 1963.95 229.087 Q1963.95 227.351 1962.77 226.425 Q1961.61 225.499 1957.65 224.643 L1956.17 224.295 Q1952.21 223.462 1950.45 221.749 Q1948.7 220.013 1948.7 217.004 Q1948.7 213.346 1951.29 211.356 Q1953.88 209.365 1958.65 209.365 Q1961.01 209.365 1963.09 209.712 Q1965.18 210.059 1966.94 210.754 Z" fill="#000000" fill-rule="evenodd" fill-opacity="1" /><polyline clip-path="url(#clip330)" style="stroke:#e26f46; stroke-linecap:butt; stroke-linejoin:round; stroke-width:4; stroke-opacity:1; fill:none" points="
  1438.98,270.476 1579.69,270.476 
  "/>
<path clip-path="url(#clip330)" d="M1619.65 251.737 L1619.65 255.279 L1615.57 255.279 Q1613.28 255.279 1612.38 256.205 Q1611.5 257.131 1611.5 259.538 L1611.5 261.83 L1618.51 261.83 L1618.51 265.14 L1611.5 265.14 L1611.5 287.756 L1607.22 287.756 L1607.22 265.14 L1603.14 265.14 L1603.14 261.83 L1607.22 261.83 L1607.22 260.024 Q1607.22 255.696 1609.23 253.728 Q1611.24 251.737 1615.62 251.737 L1619.65 251.737 Z" fill="#000000" fill-rule="evenodd" fill-opacity="1" /><path clip-path="url(#clip330)" d="M1623.21 261.83 L1627.47 261.83 L1627.47 287.756 L1623.21 287.756 L1623.21 261.83 M1623.21 251.737 L1627.47 251.737 L1627.47 257.131 L1623.21 257.131 L1623.21 251.737 Z" fill="#000000" fill-rule="evenodd" fill-opacity="1" /><path clip-path="url(#clip330)" d="M1640.59 254.469 L1640.59 261.83 L1649.37 261.83 L1649.37 265.14 L1640.59 265.14 L1640.59 279.214 Q1640.59 282.385 1641.45 283.288 Q1642.33 284.191 1644.99 284.191 L1649.37 284.191 L1649.37 287.756 L1644.99 287.756 Q1640.06 287.756 1638.19 285.927 Q1636.31 284.075 1636.31 279.214 L1636.31 265.14 L1633.19 265.14 L1633.19 261.83 L1636.31 261.83 L1636.31 254.469 L1640.59 254.469 Z" fill="#000000" fill-rule="evenodd" fill-opacity="1" /><path clip-path="url(#clip330)" d="M1683.16 251.737 L1683.16 255.279 L1679.09 255.279 Q1676.8 255.279 1675.9 256.205 Q1675.02 257.131 1675.02 259.538 L1675.02 261.83 L1682.03 261.83 L1682.03 265.14 L1675.02 265.14 L1675.02 287.756 L1670.73 287.756 L1670.73 265.14 L1666.66 265.14 L1666.66 261.83 L1670.73 261.83 L1670.73 260.024 Q1670.73 255.696 1672.75 253.728 Q1674.76 251.737 1679.14 251.737 L1683.16 251.737 Z" fill="#000000" fill-rule="evenodd" fill-opacity="1" /><path clip-path="url(#clip330)" d="M1686.29 277.524 L1686.29 261.83 L1690.55 261.83 L1690.55 277.362 Q1690.55 281.043 1691.98 282.895 Q1693.42 284.723 1696.29 284.723 Q1699.74 284.723 1701.73 282.524 Q1703.74 280.325 1703.74 276.529 L1703.74 261.83 L1708 261.83 L1708 287.756 L1703.74 287.756 L1703.74 283.774 Q1702.19 286.135 1700.13 287.293 Q1698.09 288.427 1695.39 288.427 Q1690.92 288.427 1688.6 285.649 Q1686.29 282.871 1686.29 277.524 M1697.01 261.205 L1697.01 261.205 Z" fill="#000000" fill-rule="evenodd" fill-opacity="1" /><path clip-path="url(#clip330)" d="M1738.33 272.108 L1738.33 287.756 L1734.07 287.756 L1734.07 272.247 Q1734.07 268.566 1732.63 266.737 Q1731.2 264.909 1728.33 264.909 Q1724.88 264.909 1722.89 267.108 Q1720.9 269.307 1720.9 273.103 L1720.9 287.756 L1716.61 287.756 L1716.61 261.83 L1720.9 261.83 L1720.9 265.858 Q1722.42 263.52 1724.48 262.362 Q1726.57 261.205 1729.28 261.205 Q1733.74 261.205 1736.03 263.983 Q1738.33 266.737 1738.33 272.108 Z" fill="#000000" fill-rule="evenodd" fill-opacity="1" /><path clip-path="url(#clip330)" d="M1765.48 262.825 L1765.48 266.807 Q1763.67 265.811 1761.84 265.325 Q1760.04 264.816 1758.19 264.816 Q1754.04 264.816 1751.75 267.455 Q1749.46 270.071 1749.46 274.816 Q1749.46 279.561 1751.75 282.2 Q1754.04 284.816 1758.19 284.816 Q1760.04 284.816 1761.84 284.33 Q1763.67 283.821 1765.48 282.825 L1765.48 286.76 Q1763.7 287.594 1761.77 288.01 Q1759.88 288.427 1757.72 288.427 Q1751.87 288.427 1748.42 284.746 Q1744.97 281.066 1744.97 274.816 Q1744.97 268.473 1748.44 264.839 Q1751.94 261.205 1758 261.205 Q1759.97 261.205 1761.84 261.622 Q1763.72 262.015 1765.48 262.825 Z" fill="#000000" fill-rule="evenodd" fill-opacity="1" /><path clip-path="url(#clip330)" d="M1777.1 254.469 L1777.1 261.83 L1785.87 261.83 L1785.87 265.14 L1777.1 265.14 L1777.1 279.214 Q1777.1 282.385 1777.96 283.288 Q1778.83 284.191 1781.5 284.191 L1785.87 284.191 L1785.87 287.756 L1781.5 287.756 Q1776.57 287.756 1774.69 285.927 Q1772.82 284.075 1772.82 279.214 L1772.82 265.14 L1769.69 265.14 L1769.69 261.83 L1772.82 261.83 L1772.82 254.469 L1777.1 254.469 Z" fill="#000000" fill-rule="evenodd" fill-opacity="1" /><path clip-path="url(#clip330)" d="M1791.47 261.83 L1795.73 261.83 L1795.73 287.756 L1791.47 287.756 L1791.47 261.83 M1791.47 251.737 L1795.73 251.737 L1795.73 257.131 L1791.47 257.131 L1791.47 251.737 Z" fill="#000000" fill-rule="evenodd" fill-opacity="1" /><path clip-path="url(#clip330)" d="M1814.69 264.816 Q1811.27 264.816 1809.27 267.501 Q1807.28 270.163 1807.28 274.816 Q1807.28 279.469 1809.25 282.154 Q1811.24 284.816 1814.69 284.816 Q1818.09 284.816 1820.08 282.131 Q1822.08 279.446 1822.08 274.816 Q1822.08 270.21 1820.08 267.524 Q1818.09 264.816 1814.69 264.816 M1814.69 261.205 Q1820.25 261.205 1823.42 264.816 Q1826.59 268.427 1826.59 274.816 Q1826.59 281.182 1823.42 284.816 Q1820.25 288.427 1814.69 288.427 Q1809.11 288.427 1805.94 284.816 Q1802.79 281.182 1802.79 274.816 Q1802.79 268.427 1805.94 264.816 Q1809.11 261.205 1814.69 261.205 Z" fill="#000000" fill-rule="evenodd" fill-opacity="1" /><path clip-path="url(#clip330)" d="M1855.2 272.108 L1855.2 287.756 L1850.94 287.756 L1850.94 272.247 Q1850.94 268.566 1849.51 266.737 Q1848.07 264.909 1845.2 264.909 Q1841.75 264.909 1839.76 267.108 Q1837.77 269.307 1837.77 273.103 L1837.77 287.756 L1833.49 287.756 L1833.49 261.83 L1837.77 261.83 L1837.77 265.858 Q1839.3 263.52 1841.36 262.362 Q1843.44 261.205 1846.15 261.205 Q1850.62 261.205 1852.91 263.983 Q1855.2 266.737 1855.2 272.108 Z" fill="#000000" fill-rule="evenodd" fill-opacity="1" /><path clip-path="url(#clip330)" d="M1864.78 281.876 L1869.67 281.876 L1869.67 285.858 L1865.87 293.265 L1862.89 293.265 L1864.78 285.858 L1864.78 281.876 Z" fill="#000000" fill-rule="evenodd" fill-opacity="1" /><path clip-path="url(#clip330)" d="M1916.01 273.728 L1916.01 275.811 L1896.43 275.811 Q1896.7 280.209 1899.07 282.524 Q1901.45 284.816 1905.69 284.816 Q1908.14 284.816 1910.43 284.214 Q1912.75 283.612 1915.01 282.409 L1915.01 286.436 Q1912.72 287.408 1910.32 287.918 Q1907.91 288.427 1905.43 288.427 Q1899.23 288.427 1895.59 284.816 Q1891.98 281.205 1891.98 275.047 Q1891.98 268.682 1895.41 264.955 Q1898.86 261.205 1904.69 261.205 Q1909.92 261.205 1912.95 264.585 Q1916.01 267.941 1916.01 273.728 M1911.75 272.478 Q1911.7 268.983 1909.78 266.899 Q1907.89 264.816 1904.74 264.816 Q1901.17 264.816 1899.02 266.83 Q1896.89 268.844 1896.57 272.501 L1911.75 272.478 Z" fill="#000000" fill-rule="evenodd" fill-opacity="1" /><path clip-path="url(#clip330)" d="M1938.02 265.811 Q1937.31 265.395 1936.45 265.21 Q1935.62 265.001 1934.6 265.001 Q1930.99 265.001 1929.04 267.362 Q1927.12 269.7 1927.12 274.098 L1927.12 287.756 L1922.84 287.756 L1922.84 261.83 L1927.12 261.83 L1927.12 265.858 Q1928.46 263.497 1930.62 262.362 Q1932.77 261.205 1935.85 261.205 Q1936.29 261.205 1936.82 261.274 Q1937.35 261.321 1938 261.436 L1938.02 265.811 Z" fill="#000000" fill-rule="evenodd" fill-opacity="1" /><path clip-path="url(#clip330)" d="M1956.68 265.811 Q1955.96 265.395 1955.11 265.21 Q1954.27 265.001 1953.26 265.001 Q1949.64 265.001 1947.7 267.362 Q1945.78 269.7 1945.78 274.098 L1945.78 287.756 L1941.5 287.756 L1941.5 261.83 L1945.78 261.83 L1945.78 265.858 Q1947.12 263.497 1949.27 262.362 Q1951.43 261.205 1954.51 261.205 Q1954.95 261.205 1955.48 261.274 Q1956.01 261.321 1956.66 261.436 L1956.68 265.811 Z" fill="#000000" fill-rule="evenodd" fill-opacity="1" /><path clip-path="url(#clip330)" d="M1970.15 264.816 Q1966.73 264.816 1964.74 267.501 Q1962.75 270.163 1962.75 274.816 Q1962.75 279.469 1964.71 282.154 Q1966.7 284.816 1970.15 284.816 Q1973.56 284.816 1975.55 282.131 Q1977.54 279.446 1977.54 274.816 Q1977.54 270.21 1975.55 267.524 Q1973.56 264.816 1970.15 264.816 M1970.15 261.205 Q1975.71 261.205 1978.88 264.816 Q1982.05 268.427 1982.05 274.816 Q1982.05 281.182 1978.88 284.816 Q1975.71 288.427 1970.15 288.427 Q1964.57 288.427 1961.4 284.816 Q1958.26 281.182 1958.26 274.816 Q1958.26 268.427 1961.4 264.816 Q1964.57 261.205 1970.15 261.205 Z" fill="#000000" fill-rule="evenodd" fill-opacity="1" /><path clip-path="url(#clip330)" d="M2004.13 265.811 Q2003.42 265.395 2002.56 265.21 Q2001.73 265.001 2000.71 265.001 Q1997.1 265.001 1995.15 267.362 Q1993.23 269.7 1993.23 274.098 L1993.23 287.756 L1988.95 287.756 L1988.95 261.83 L1993.23 261.83 L1993.23 265.858 Q1994.57 263.497 1996.73 262.362 Q1998.88 261.205 2001.96 261.205 Q2002.4 261.205 2002.93 261.274 Q2003.46 261.321 2004.11 261.436 L2004.13 265.811 Z" fill="#000000" fill-rule="evenodd" fill-opacity="1" /><path clip-path="url(#clip330)" d="M2024.23 266.228 L2053.9 266.228 L2053.9 270.117 L2024.23 270.117 L2024.23 266.228 M2024.23 275.672 L2053.9 275.672 L2053.9 279.608 L2024.23 279.608 L2024.23 275.672 Z" fill="#000000" fill-rule="evenodd" fill-opacity="1" /><path clip-path="url(#clip330)" d="M2089.06 271.344 Q2085.73 271.344 2083.81 273.126 Q2081.91 274.909 2081.91 278.034 Q2081.91 281.159 2083.81 282.941 Q2085.73 284.723 2089.06 284.723 Q2092.4 284.723 2094.32 282.941 Q2096.24 281.135 2096.24 278.034 Q2096.24 274.909 2094.32 273.126 Q2092.42 271.344 2089.06 271.344 M2084.39 269.353 Q2081.38 268.612 2079.69 266.552 Q2078.02 264.492 2078.02 261.529 Q2078.02 257.386 2080.96 254.978 Q2083.93 252.571 2089.06 252.571 Q2094.23 252.571 2097.17 254.978 Q2100.11 257.386 2100.11 261.529 Q2100.11 264.492 2098.42 266.552 Q2096.75 268.612 2093.76 269.353 Q2097.14 270.14 2099.02 272.432 Q2100.92 274.723 2100.92 278.034 Q2100.92 283.057 2097.84 285.742 Q2094.78 288.427 2089.06 288.427 Q2083.35 288.427 2080.27 285.742 Q2077.21 283.057 2077.21 278.034 Q2077.21 274.723 2079.11 272.432 Q2081.01 270.14 2084.39 269.353 M2082.68 261.969 Q2082.68 264.654 2084.34 266.159 Q2086.03 267.663 2089.06 267.663 Q2092.07 267.663 2093.76 266.159 Q2095.48 264.654 2095.48 261.969 Q2095.48 259.284 2093.76 257.779 Q2092.07 256.274 2089.06 256.274 Q2086.03 256.274 2084.34 257.779 Q2082.68 259.284 2082.68 261.969 Z" fill="#000000" fill-rule="evenodd" fill-opacity="1" /><path clip-path="url(#clip330)" d="M2109.23 281.876 L2114.11 281.876 L2114.11 287.756 L2109.23 287.756 L2109.23 281.876 Z" fill="#000000" fill-rule="evenodd" fill-opacity="1" /><path clip-path="url(#clip330)" d="M2124.34 253.196 L2142.7 253.196 L2142.7 257.131 L2128.62 257.131 L2128.62 265.603 Q2129.64 265.256 2130.66 265.094 Q2131.68 264.909 2132.7 264.909 Q2138.49 264.909 2141.87 268.08 Q2145.25 271.251 2145.25 276.668 Q2145.25 282.246 2141.77 285.348 Q2138.3 288.427 2131.98 288.427 Q2129.81 288.427 2127.54 288.057 Q2125.29 287.686 2122.88 286.946 L2122.88 282.246 Q2124.97 283.381 2127.19 283.936 Q2129.41 284.492 2131.89 284.492 Q2135.89 284.492 2138.23 282.385 Q2140.57 280.279 2140.57 276.668 Q2140.57 273.057 2138.23 270.95 Q2135.89 268.844 2131.89 268.844 Q2130.01 268.844 2128.14 269.26 Q2126.29 269.677 2124.34 270.557 L2124.34 253.196 Z" fill="#000000" fill-rule="evenodd" fill-opacity="1" /><path clip-path="url(#clip330)" d="M2158.49 283.821 L2174.81 283.821 L2174.81 287.756 L2152.86 287.756 L2152.86 283.821 Q2155.52 281.066 2160.11 276.436 Q2164.71 271.784 2165.89 270.441 Q2168.14 267.918 2169.02 266.182 Q2169.92 264.423 2169.92 262.733 Q2169.92 259.978 2167.98 258.242 Q2166.06 256.506 2162.95 256.506 Q2160.75 256.506 2158.3 257.27 Q2155.87 258.034 2153.09 259.585 L2153.09 254.862 Q2155.92 253.728 2158.37 253.149 Q2160.82 252.571 2162.86 252.571 Q2168.23 252.571 2171.43 255.256 Q2174.62 257.941 2174.62 262.432 Q2174.62 264.561 2173.81 266.483 Q2173.02 268.381 2170.92 270.973 Q2170.34 271.645 2167.24 274.862 Q2164.13 278.057 2158.49 283.821 Z" fill="#000000" fill-rule="evenodd" fill-opacity="1" /><path clip-path="url(#clip330)" d="M2194.62 271.344 Q2191.29 271.344 2189.37 273.126 Q2187.47 274.909 2187.47 278.034 Q2187.47 281.159 2189.37 282.941 Q2191.29 284.723 2194.62 284.723 Q2197.95 284.723 2199.87 282.941 Q2201.8 281.135 2201.8 278.034 Q2201.8 274.909 2199.87 273.126 Q2197.98 271.344 2194.62 271.344 M2189.94 269.353 Q2186.93 268.612 2185.24 266.552 Q2183.58 264.492 2183.58 261.529 Q2183.58 257.386 2186.52 254.978 Q2189.48 252.571 2194.62 252.571 Q2199.78 252.571 2202.72 254.978 Q2205.66 257.386 2205.66 261.529 Q2205.66 264.492 2203.97 266.552 Q2202.3 268.612 2199.32 269.353 Q2202.7 270.14 2204.57 272.432 Q2206.47 274.723 2206.47 278.034 Q2206.47 283.057 2203.39 285.742 Q2200.34 288.427 2194.62 288.427 Q2188.9 288.427 2185.82 285.742 Q2182.77 283.057 2182.77 278.034 Q2182.77 274.723 2184.67 272.432 Q2186.56 270.14 2189.94 269.353 M2188.23 261.969 Q2188.23 264.654 2189.9 266.159 Q2191.59 267.663 2194.62 267.663 Q2197.63 267.663 2199.32 266.159 Q2201.03 264.654 2201.03 261.969 Q2201.03 259.284 2199.32 257.779 Q2197.63 256.274 2194.62 256.274 Q2191.59 256.274 2189.9 257.779 Q2188.23 259.284 2188.23 261.969 Z" fill="#000000" fill-rule="evenodd" fill-opacity="1" /><path clip-path="url(#clip330)" d="M2215.59 283.821 L2223.23 283.821 L2223.23 257.455 L2214.92 259.122 L2214.92 254.862 L2223.18 253.196 L2227.86 253.196 L2227.86 283.821 L2235.5 283.821 L2235.5 287.756 L2215.59 287.756 L2215.59 283.821 Z" fill="#000000" fill-rule="evenodd" fill-opacity="1" /></svg>
